ply
format ascii 1.0
comment Created by Blender 3.3.1 - www.blender.org
element vertex 90
property float x
property float y
property float z
property uchar red
property uchar green
property uchar blue
property uchar alpha
element face 68
property list uchar uint vertex_indices
end_header
-0.447038 1.613174 0.189683 170 100 70 255
-0.447038 1.612892 0.149684 172 106 78 255
-0.447038 1.012907 0.153913 170 100 70 255
-0.447038 1.013189 0.193912 171 101 72 255
-0.415547 1.504548 0.011822 170 134 100 255
-0.415547 1.504548 -0.011822 170 134 100 255
-0.415547 1.615474 -0.011822 170 134 100 255
-0.415547 1.615474 0.011822 170 134 100 255
-0.439192 1.504548 -0.011822 170 134 100 255
-0.439192 1.504548 0.011822 170 134 100 255
-0.439192 1.615474 0.011822 170 134 100 255
-0.439192 1.615474 -0.011822 170 134 100 255
-0.407038 1.012907 -0.192589 170 100 70 255
-0.407038 1.612892 -0.196818 170 100 70 255
-0.407038 1.613174 -0.156819 170 100 70 255
-0.407038 1.013189 -0.152590 170 100 70 255
-0.407038 -0.498951 -0.020000 173 107 81 255
-0.447038 -0.498951 -0.020000 171 101 72 255
-0.447038 1.001049 -0.020000 170 100 70 255
-0.407038 1.001049 -0.020000 170 101 71 255
-0.410909 1.111710 -0.016460 170 131 59 255
-0.410909 1.111710 0.016460 170 131 59 255
-0.443829 1.111710 0.016460 170 131 59 255
-0.443829 1.111710 -0.016460 170 131 60 255
-0.406327 -0.480723 0.406327 151 160 163 255
-0.384242 -0.480723 -0.384242 138 149 153 255
-0.406327 -0.480723 -0.406327 138 149 153 255
0.406327 -0.480723 0.406327 138 149 153 255
0.384242 -0.480723 -0.384242 138 149 153 255
0.384242 -0.480723 0.384242 138 149 153 255
0.406327 -0.480723 -0.406327 138 149 153 255
-0.384242 -0.480723 0.384242 138 149 153 255
-0.538342 1.199471 0.065634 189 146 65 255
-0.310979 1.199471 0.065634 189 146 65 255
-0.424661 1.199471 0.131268 189 146 65 255
-0.391169 1.507091 -0.019336 214 166 74 255
-0.424661 1.507091 -0.038673 214 166 74 255
-0.458152 1.507091 -0.019336 214 166 74 255
-0.424661 1.507091 0.038673 214 166 74 255
-0.447038 -0.498951 0.020000 174 109 84 255
-0.407038 -0.498951 0.020000 177 118 96 255
-0.407038 1.001049 0.020000 170 100 70 255
-0.447038 1.001049 0.020000 170 101 72 255
-0.447038 1.613174 -0.156819 170 100 70 255
-0.447038 1.612892 -0.196818 170 100 70 255
-0.447038 1.012907 -0.192589 170 100 70 255
-0.447038 1.013189 -0.152590 170 100 70 255
0.406327 -0.500723 0.406327 138 149 153 255
0.406327 -0.500723 -0.406327 138 149 153 255
-0.406327 -0.500723 0.406327 139 150 154 255
-0.406327 -0.500723 -0.406327 138 149 153 255
-0.384242 -0.459334 -0.384242 164 177 182 255
-0.384242 -0.459334 0.384242 164 177 182 255
0.384242 -0.459334 0.384242 164 177 182 255
0.384242 -0.459334 -0.384242 164 177 182 255
-0.405058 1.034013 0.200000 170 100 70 255
-0.405058 0.990013 0.200000 170 100 70 255
-0.405058 0.990013 -0.200000 170 100 70 255
-0.405058 1.034013 -0.200000 170 100 70 255
-0.449058 1.034013 0.200000 170 100 70 255
-0.449058 1.034013 -0.200000 170 100 70 255
-0.449058 0.990013 0.200000 170 100 70 255
-0.449058 0.990013 -0.200000 170 100 70 255
-0.405058 1.650156 0.200000 170 100 70 255
-0.405058 1.606156 0.200000 170 100 70 255
-0.405058 1.606156 -0.200000 171 101 72 255
-0.405058 1.650156 -0.200000 170 100 70 255
-0.449058 1.650156 0.200000 170 100 70 255
-0.449058 1.650156 -0.200000 170 100 70 255
-0.449058 1.606156 0.200000 170 100 70 255
-0.449058 1.606156 -0.200000 170 100 70 255
-0.443829 1.209708 -0.016460 170 131 59 255
-0.410909 1.209708 -0.016460 170 131 59 255
-0.424661 1.322942 -0.063860 189 146 65 255
-0.479965 1.322942 -0.031930 191 148 66 255
-0.458152 1.507091 0.019336 214 166 74 255
-0.479965 1.322942 0.031930 191 147 66 255
-0.424661 1.322942 0.063860 190 146 65 255
-0.391169 1.507091 0.019336 214 166 74 255
-0.369357 1.322942 0.031930 189 146 65 255
-0.369357 1.322942 -0.031930 189 146 65 255
-0.310979 1.199471 -0.065634 189 146 65 255
-0.424661 1.199471 -0.131268 189 146 65 255
-0.538342 1.199471 -0.065634 189 146 65 255
-0.410909 1.209708 0.016460 170 131 59 255
-0.443829 1.209708 0.016460 170 131 59 255
-0.407038 1.613174 0.189683 170 100 70 255
-0.407038 1.013189 0.193912 174 110 85 255
-0.407038 1.612892 0.149684 172 103 76 255
-0.407038 1.012907 0.153913 170 100 70 255
4 0 1 2 3
4 4 5 6 7
4 8 9 10 11
4 12 13 14 15
4 16 17 18 19
4 9 4 7 10
4 20 21 22 23
3 24 25 26
3 27 28 29
3 30 25 28
3 27 31 24
3 32 33 34
4 35 36 37 38
4 39 40 41 42
4 17 39 42 18
4 43 44 45 46
4 47 48 30 27
4 49 47 27 24
4 50 49 24 26
4 48 50 26 30
4 51 25 31 52
3 24 31 25
4 51 52 53 54
3 27 30 28
3 30 26 25
3 27 29 31
4 53 29 28 54
4 54 28 25 51
4 52 31 29 53
4 55 56 57 58
4 59 55 58 60
4 61 59 60 62
4 56 61 62 57
4 56 55 59 61
4 62 60 58 57
4 63 64 65 66
4 67 63 66 68
4 69 67 68 70
4 64 69 70 65
4 64 63 67 69
4 70 68 66 65
4 20 23 71 72
4 73 74 37 36
4 75 76 77 38
4 78 79 80 35
4 35 80 73 36
4 81 82 73 80
4 38 77 79 78
4 83 32 76 74
4 81 33 32 82
3 35 38 78
3 38 37 75
4 74 76 75 37
3 82 32 83
4 82 83 74 73
4 34 77 76 32
4 34 33 79 77
4 33 81 80 79
4 5 8 11 6
4 21 20 72 84
4 22 21 84 85
4 23 22 85 71
4 86 0 3 87
4 1 88 89 2
4 14 43 46 15
4 44 13 12 45
4 89 88 86 87
4 40 16 19 41
