ply
format ascii 1.0
comment Created by Blender 2.82 (sub 7) - www.blender.org, source file: '1alchemisttable.blend'
element vertex 118
property float x
property float y
property float z
property uchar red
property uchar green
property uchar blue
property uchar alpha
element face 74
property list uchar uint vertex_indices
end_header
-0.336311 0.904106 0.115187 84 109 82 255
-0.336311 1.143213 0.115187 84 109 82 255
-0.336311 1.143213 0.354294 84 109 82 255
-0.336311 0.904106 0.354294 94 116 92 255
-0.415835 1.143213 0.354294 86 111 84 255
-0.415835 0.904106 0.354294 93 115 91 255
-0.415835 1.143213 0.115187 84 109 82 255
-0.415835 0.904106 0.115187 84 109 82 255
-0.056718 0.862736 0.056588 178 132 105 255
-0.056718 0.902736 0.056588 177 131 103 255
-0.056718 0.902736 0.456588 177 131 103 255
-0.056718 0.862736 0.456588 177 131 103 255
-0.456718 0.862736 0.056588 177 131 103 255
-0.456718 0.902736 0.056588 177 131 103 255
-0.456718 0.862736 0.456588 177 132 104 255
-0.456718 0.902736 0.456588 177 132 104 255
0.466657 0.663090 0.056588 177 131 103 255
0.466657 0.703089 0.056588 177 131 103 255
0.466657 0.703089 0.456588 177 131 103 255
0.466657 0.663090 0.456588 177 131 103 255
0.066657 0.663090 0.456588 178 134 106 255
0.066657 0.703089 0.456588 177 131 103 255
0.066657 0.703089 0.056588 177 131 103 255
0.066657 0.663090 0.056588 177 131 103 255
-0.056718 0.455610 0.059040 177 131 103 255
-0.056718 0.495610 0.059040 177 131 103 255
-0.056718 0.495610 0.459040 177 131 103 255
-0.056718 0.455610 0.459040 177 131 103 255
-0.456718 0.455610 0.059040 179 135 108 255
-0.456718 0.495610 0.059040 177 131 103 255
-0.456718 0.455610 0.459040 177 131 103 255
-0.456718 0.495610 0.459040 177 131 103 255
-0.012976 0.325699 -0.022878 223 213 201 255
-0.016655 0.402887 0.034749 223 213 201 255
-0.253264 0.402887 -0.161359 223 213 201 255
-0.197321 0.325699 -0.175667 223 213 201 255
-0.139870 0.402887 -0.446987 223 213 201 255
-0.108975 0.325699 -0.398204 223 213 201 255
0.129971 0.325699 -0.382950 223 213 201 255
0.166819 0.402887 -0.427408 223 213 201 255
0.242970 0.402887 -0.129679 222 212 200 255
0.189301 0.325699 -0.150985 223 213 201 255
-0.463956 0.285512 -0.492648 180 138 109 255
-0.463956 0.325512 -0.492648 180 138 109 255
0.456044 0.325512 -0.492648 180 138 109 255
0.456044 0.285512 -0.492648 180 139 110 255
0.456044 0.285512 0.467352 180 138 109 255
-0.463956 0.285512 0.467352 180 138 109 255
-0.463956 0.325512 0.467352 180 138 109 255
0.456044 0.325512 0.467352 180 138 109 255
-0.460069 1.099941 0.460795 143 109 87 255
-0.460069 1.099941 -0.139205 145 112 91 255
-0.500069 1.099941 -0.139205 143 109 87 255
-0.500069 1.099941 0.460795 144 110 89 255
-0.500069 0.499941 0.460795 143 109 87 255
-0.500069 0.499941 -0.139205 143 109 87 255
-0.460069 0.499941 -0.139205 143 109 87 255
-0.460069 0.499941 0.460795 143 109 87 255
-0.499968 1.100689 0.499836 150 119 100 255
0.500032 1.100689 0.499837 143 109 87 255
0.500032 1.100689 0.459837 143 109 87 255
-0.499968 1.100689 0.459837 144 110 88 255
-0.499968 -0.499311 0.459837 119 84 71 255
0.500032 -0.499311 0.459837 119 84 71 255
0.500032 -0.499311 0.499837 119 84 71 255
-0.499968 -0.499311 0.499836 120 85 72 255
0.497350 0.500012 0.459919 143 109 87 255
0.497350 0.500012 -0.500081 143 109 87 255
0.457350 0.500012 -0.500081 148 117 98 255
0.457350 0.500012 0.459919 150 120 101 255
0.457350 -0.499988 0.459919 120 85 72 255
0.457350 -0.499988 -0.500081 119 84 71 255
0.497350 -0.499988 -0.500081 119 84 71 255
0.497350 -0.499988 0.459919 119 84 71 255
-0.459187 0.500012 0.459919 143 109 87 255
-0.459187 0.500012 -0.500081 143 109 87 255
-0.499187 0.500012 -0.500081 147 115 95 255
-0.499187 0.500012 0.459919 143 109 87 255
-0.499187 -0.499988 0.459919 119 84 71 255
-0.499187 -0.499988 -0.500081 119 84 71 255
-0.459187 -0.499988 -0.500081 119 84 71 255
-0.459187 -0.499988 0.459919 119 84 71 255
-0.277794 0.494784 0.355814 71 148 111 255
-0.272095 0.743015 0.251328 91 182 119 255
-0.292938 0.764314 0.244343 91 182 119 255
-0.399911 0.494784 0.267091 71 148 111 255
-0.292852 0.768026 0.213960 101 185 126 255
-0.353267 0.494784 0.123533 72 150 112 255
-0.271957 0.749021 0.202168 91 182 119 255
-0.202321 0.494784 0.123533 71 148 111 255
-0.192063 0.815731 0.257672 91 182 119 255
-0.193694 0.825234 0.228622 91 182 119 255
-0.259128 0.733563 0.225263 91 182 119 255
-0.155677 0.494784 0.267091 71 148 111 255
-0.188209 0.785367 0.257489 105 187 130 255
-0.187457 0.776104 0.228326 91 182 119 255
-0.190847 0.800742 0.210485 91 182 119 255
0.249859 0.701841 0.209927 202 207 191 255
0.249859 0.911109 0.209927 236 243 223 255
0.306112 0.911109 0.260783 236 243 223 255
0.306112 0.701841 0.260783 202 207 191 255
0.255256 0.911109 0.317036 235 242 222 255
0.255256 0.701841 0.317036 202 207 191 255
0.199003 0.911109 0.266181 236 243 223 255
0.199003 0.701841 0.266181 202 207 191 255
-0.203259 0.925956 0.114745 151 54 58 255
-0.288651 1.105462 0.114745 151 54 58 255
-0.288651 1.105462 0.348737 151 54 58 255
-0.203259 0.925956 0.348737 151 54 58 255
-0.336748 1.082582 0.348737 152 59 63 255
-0.251356 0.903076 0.348737 151 54 58 255
-0.336748 1.082582 0.114745 151 54 58 255
-0.251356 0.903076 0.114745 151 54 58 255
0.159642 0.323893 0.303214 96 131 50 255
0.204530 0.523893 0.160088 192 155 86 255
0.061404 0.323893 0.115200 96 131 50 255
0.249419 0.323893 0.016962 96 131 50 255
0.347656 0.323893 0.204977 104 136 65 255
4 0 1 2 3
4 3 2 4 5
4 5 4 6 7
4 7 6 1 0
4 4 2 1 6
4 8 9 10 11
4 12 13 9 8
4 11 14 12 8
4 15 10 9 13
4 16 17 18 19
4 20 21 22 23
4 23 22 17 16
4 19 20 23 16
4 21 18 17 22
4 24 25 26 27
4 28 29 25 24
4 27 30 28 24
4 31 26 25 29
4 32 33 34 35
4 35 34 36 37
4 38 39 40 41
4 41 40 33 32
4 42 43 44 45
4 46 47 42 45
4 48 49 44 43
4 50 51 52 53
4 54 53 52 55
4 55 52 51 56
4 56 51 50 57
4 58 59 60 61
4 62 61 60 63
4 63 60 59 64
4 65 58 61 62
4 64 59 58 65
4 66 67 68 69
4 70 69 68 71
4 71 68 67 72
4 72 67 66 73
4 74 75 76 77
4 78 77 76 79
4 79 76 75 80
4 80 75 74 81
4 82 83 84 85
4 85 84 86 87
4 87 86 88 89
4 86 84 90 91
4 89 88 92 93
4 93 92 83 82
3 94 95 96
4 83 92 95 94
4 84 83 94 90
4 88 86 91 96
4 92 88 96 95
4 97 98 99 100
4 100 99 101 102
4 102 101 103 104
4 104 103 98 97
4 101 99 98 103
4 105 106 107 108
4 108 107 109 110
4 110 109 111 112
4 112 111 106 105
4 108 110 112 105
4 109 107 106 111
3 113 114 115
3 115 114 116
3 116 114 117
3 117 114 113
4 37 36 39 38
3 36 34 39
3 34 33 39
3 33 40 39
3 91 90 96
3 90 94 96
