ply
format ascii 1.0
comment Created by Blender 2.82 (sub 7) - www.blender.org, source file: 'archer.blend'
element vertex 88
property float x
property float y
property float z
property uchar red
property uchar green
property uchar blue
property uchar alpha
element face 116
property list uchar uint vertex_indices
end_header
-0.317426 0.391535 -0.051637 177 129 97 255
-0.315863 0.391361 -0.031699 177 130 98 255
-0.370852 -0.105605 -0.031699 177 130 98 255
-0.336966 0.386151 -0.035105 107 19 20 255
-0.385415 0.329581 -0.031796 107 19 20 255
-0.347963 0.286757 -0.035105 107 19 20 255
-0.373745 0.435051 -0.031796 107 19 20 255
-0.386197 0.329668 -0.041765 107 19 20 255
-0.337747 0.386237 -0.045074 107 19 20 255
-0.348745 0.286844 -0.045074 107 19 20 255
-0.374527 0.435137 -0.041765 107 19 20 255
-0.372416 -0.105433 -0.051637 177 130 98 255
-0.390669 -0.103413 -0.030126 178 131 100 255
-0.335680 0.393554 -0.030126 177 129 97 255
-0.392233 -0.103240 -0.050064 177 129 97 255
-0.337244 0.393727 -0.050064 178 130 99 255
-0.318042 0.384057 -0.046638 107 19 20 255
-0.283132 0.318264 -0.049947 107 19 20 255
-0.329040 0.284663 -0.046638 107 19 20 255
-0.271462 0.423733 -0.049947 107 19 20 255
-0.282350 0.318177 -0.039978 107 19 20 255
-0.317260 0.383970 -0.036669 107 19 20 255
-0.328258 0.284577 -0.036669 107 19 20 255
-0.270680 0.423647 -0.039978 107 19 20 255
-0.324931 -0.500000 -0.064180 138 80 62 255
-0.324930 -0.024486 0.035820 138 80 62 255
-0.324930 -0.500000 0.035820 138 80 62 255
-0.424931 -0.500000 0.035820 138 80 62 255
-0.424931 -0.024486 0.035820 138 80 62 255
-0.424931 -0.500000 -0.064180 138 80 62 255
-0.324930 -0.024486 -0.064180 138 80 62 255
-0.412704 -0.024486 -0.051953 138 80 62 255
-0.424931 -0.024486 -0.064180 138 80 62 255
-0.412704 -0.024486 0.023594 138 80 62 255
-0.412704 -0.480431 -0.051953 0 0 0 255
-0.337157 -0.024486 0.023594 138 80 62 255
-0.337157 -0.024486 -0.051953 138 80 62 255
-0.412704 -0.480431 0.023594 16 14 14 255
-0.337157 -0.480431 -0.051953 0 0 0 255
-0.337157 -0.480431 0.023594 0 0 0 255
-0.353963 0.158994 0.015742 107 19 20 255
-0.400685 0.101136 0.021025 107 19 20 255
-0.362307 0.059343 0.015742 107 19 20 255
-0.391831 0.206879 0.021025 107 19 20 255
-0.401937 0.101241 0.011105 107 19 20 255
-0.355215 0.159099 0.005822 107 19 20 255
-0.363559 0.059447 0.005822 107 19 20 255
-0.393083 0.206984 0.011105 107 19 20 255
-0.377092 -0.333293 -0.001660 177 130 98 255
-0.332869 0.164754 0.018182 177 130 98 255
-0.374589 -0.333503 0.018182 177 130 98 255
-0.394362 -0.331847 0.020694 178 131 100 255
-0.352642 0.166410 0.020694 177 129 97 255
-0.396865 -0.331637 0.000852 177 129 97 255
-0.335372 0.164963 -0.001660 177 129 97 255
-0.355145 0.166619 0.000852 178 130 99 255
-0.335554 0.157452 0.003324 107 19 20 255
-0.299104 0.092631 -0.001959 107 19 20 255
-0.343898 0.057801 0.003324 107 19 20 255
-0.288998 0.198269 0.007962 107 19 20 255
-0.297852 0.092526 0.007962 107 19 20 255
-0.334302 0.157348 0.013245 107 19 20 255
-0.342646 0.057696 0.013245 107 19 20 255
-0.290250 0.198374 -0.001959 107 19 20 255
-0.437385 0.261465 -0.012089 107 19 20 255
-0.469904 0.194703 -0.018706 107 19 20 255
-0.423393 0.162449 -0.012089 107 19 20 255
-0.484752 0.299773 -0.018706 107 19 20 255
-0.468347 0.194924 -0.028582 107 19 20 255
-0.435828 0.261685 -0.021964 107 19 20 255
-0.421835 0.162669 -0.021964 107 19 20 255
-0.483195 0.299993 -0.028582 107 19 20 255
-0.346510 -0.223086 -0.023745 177 130 98 255
-0.419588 0.271555 -0.003994 177 130 98 255
-0.349625 -0.223526 -0.003994 177 130 98 255
-0.369182 -0.226290 -0.007140 178 131 100 255
-0.439145 0.268791 -0.007140 177 129 97 255
-0.366066 -0.225850 -0.026891 177 129 97 255
-0.416473 0.271995 -0.023745 177 129 97 255
-0.436029 0.269231 -0.026891 178 130 99 255
-0.416381 0.264433 -0.018836 107 19 20 255
-0.366636 0.209297 -0.012218 107 19 20 255
-0.402389 0.165417 -0.018836 107 19 20 255
-0.383042 0.314146 -0.002343 107 19 20 255
-0.368194 0.209077 -0.002343 107 19 20 255
-0.417939 0.264213 -0.008960 107 19 20 255
-0.403946 0.165197 -0.008960 107 19 20 255
-0.381484 0.314366 -0.012218 107 19 20 255
3 0 1 2
3 3 4 5
3 6 7 4
3 7 8 9
3 4 9 5
3 3 10 6
3 0 2 11
3 1 12 2
3 13 14 12
3 15 11 14
3 15 0 11
3 1 15 13
3 3 8 10
3 16 17 18
3 19 20 17
3 20 21 22
3 18 20 22
3 16 23 19
3 24 25 26
3 25 27 26
3 28 29 27
3 29 30 24
3 28 31 32
3 33 34 31
3 30 35 25
3 30 31 36
3 28 35 33
3 37 38 34
3 35 38 39
3 36 34 38
3 35 37 33
3 4 7 9
3 40 41 42
3 43 44 41
3 44 45 46
3 42 44 46
3 40 47 43
3 48 49 50
3 49 51 50
3 52 53 51
3 53 54 48
3 13 15 14
3 49 55 52
3 7 10 8
3 56 57 58
3 57 59 60
3 60 61 62
3 58 60 62
3 56 59 63
3 6 10 7
3 64 65 66
3 67 68 65
3 68 69 70
3 65 70 66
3 67 69 71
3 72 73 74
3 73 75 74
3 76 77 75
3 77 78 72
3 1 13 12
3 76 78 79
3 3 6 4
3 80 81 82
3 81 83 84
3 84 85 86
3 81 86 82
3 87 85 83
3 1 0 15
3 16 19 17
3 19 23 20
3 20 23 21
3 18 17 20
3 16 21 23
3 24 30 25
3 25 28 27
3 28 32 29
3 29 32 30
3 28 33 31
3 33 37 34
3 30 36 35
3 30 32 31
3 28 25 35
3 37 39 38
3 35 36 38
3 36 31 34
3 35 39 37
3 40 43 41
3 43 47 44
3 44 47 45
3 42 41 44
3 40 45 47
3 48 54 49
3 49 52 51
3 52 55 53
3 53 55 54
3 49 54 55
3 56 63 57
3 57 63 59
3 60 59 61
3 58 57 60
3 56 61 59
3 64 67 65
3 67 71 68
3 68 71 69
3 65 68 70
3 67 64 69
3 72 78 73
3 73 76 75
3 76 79 77
3 77 79 78
3 76 73 78
3 80 87 81
3 81 87 83
3 84 83 85
3 81 84 86
3 87 80 85
