ply
format ascii 1.0
comment Created by Blender 3.4.1 - www.blender.org
element vertex 48
property float x
property float y
property float z
property uchar red
property uchar green
property uchar blue
property uchar alpha
element face 46
property list uchar uint vertex_indices
end_header
0.500000 -0.500000 -0.500000 174 129 88 255
0.500000 -0.422860 -0.500000 156 113 77 255
0.500000 -0.422860 0.500000 157 114 78 255
0.500000 -0.500000 0.500000 175 130 89 255
-0.500000 -0.422860 0.500000 166 121 82 255
-0.500000 -0.500000 0.500000 173 128 88 255
-0.500000 -0.422860 -0.500000 153 110 75 255
-0.500000 -0.500000 -0.500000 175 130 89 255
0.513031 -0.381848 0.513031 125 87 60 255
-0.513031 -0.381848 0.513031 127 89 62 255
-0.513031 -0.381848 -0.513031 124 86 60 255
-0.513031 -0.336358 0.513031 124 86 60 255
-0.513031 -0.336358 -0.513031 124 86 60 255
0.513031 -0.381848 -0.513031 125 87 61 255
-0.580603 -0.300757 0.580603 128 89 62 255
-0.580603 -0.300757 -0.580603 124 86 60 255
0.513031 -0.336358 -0.513031 127 89 62 255
0.513031 -0.336358 0.513031 124 86 60 255
0.580603 -0.300757 -0.580603 124 86 60 255
-0.580603 -0.273068 -0.580603 158 115 79 255
0.580603 -0.273068 -0.580603 161 116 80 255
0.580603 -0.300757 0.580603 125 87 60 255
-0.580603 -0.273068 0.580603 164 119 83 255
-0.501913 -0.273068 0.501913 175 130 89 255
-0.501913 -0.273068 -0.501913 175 130 89 255
0.580603 -0.273068 0.580603 164 119 82 255
0.501913 -0.273068 -0.501913 175 130 89 255
-0.501913 0.239189 -0.501913 165 121 83 255
0.501913 0.239189 -0.501913 170 125 86 255
0.501913 -0.273068 0.501913 175 130 89 255
-0.501913 0.239189 0.501913 167 124 85 255
-0.551095 0.303270 0.551095 126 88 61 255
-0.551095 0.303270 -0.551095 127 88 61 255
0.501913 0.239189 0.501913 170 126 86 255
-0.551095 0.355485 0.551095 156 113 77 255
-0.551095 0.355485 -0.551095 158 114 78 255
0.551095 0.303270 -0.551095 126 87 61 255
0.551095 0.303270 0.551095 125 87 60 255
0.551095 0.355485 -0.551095 152 110 75 255
-0.657803 0.464661 -0.657803 124 86 60 255
0.657803 0.464661 -0.657803 124 86 60 255
0.551095 0.355485 0.551095 153 110 75 255
-0.657803 0.464661 0.657803 124 86 60 255
-0.657803 0.499967 0.657803 143 103 70 255
-0.657803 0.499967 -0.657803 124 86 60 255
0.657803 0.464661 0.657803 124 86 60 255
0.657803 0.499967 0.657803 124 86 60 255
0.657803 0.499967 -0.657803 124 86 60 255
4 0 1 2 3
4 3 2 4 5
4 5 4 6 7
4 7 6 1 0
4 3 5 7 0
4 4 2 8 9
4 10 9 11 12
4 6 4 9 10
4 2 1 13 8
4 1 6 10 13
4 12 11 14 15
4 8 13 16 17
4 13 10 12 16
4 9 8 17 11
4 18 15 19 20
4 17 16 18 21
4 16 12 15 18
4 11 17 21 14
4 19 22 23 24
4 14 21 25 22
4 15 14 22 19
4 21 18 20 25
4 26 24 27 28
4 25 20 26 29
4 20 19 24 26
4 22 25 29 23
4 27 30 31 32
4 23 29 33 30
4 24 23 30 27
4 29 26 28 33
4 32 31 34 35
4 33 28 36 37
4 28 27 32 36
4 30 33 37 31
4 38 35 39 40
4 37 36 38 41
4 36 32 35 38
4 31 37 41 34
4 39 42 43 44
4 34 41 45 42
4 35 34 42 39
4 41 38 40 45
4 43 46 47 44
4 45 40 47 46
4 40 39 44 47
4 42 45 46 43
