ply
format ascii 1.0
comment Created by Blender 2.78 (sub 0) - www.blender.org, source file: ''
element vertex 50
property float x
property float y
property float z
property uchar red
property uchar green
property uchar blue
element face 76
property list uchar uint vertex_indices
end_header
0.005281 0.000108 -0.406170 0 255 0
0.003817 -0.003428 -0.406170 0 255 0
0.000281 0.000108 -0.406170 0 255 0
0.000281 -0.004892 -0.406170 0 255 0
-0.003254 -0.003428 -0.406170 0 255 0
-0.004719 0.000108 -0.406170 0 255 0
0.003817 -0.003428 0.344327 0 255 0
0.000281 -0.004892 0.344327 0 255 0
-0.003254 -0.003428 0.344327 0 255 0
-0.004719 0.000108 0.344327 0 255 0
0.000624 -0.019202 -0.348746 255 255 0
-0.000996 -0.004236 -0.356341 255 255 0
0.000624 -0.006929 -0.356341 255 255 0
0.001729 -0.004236 -0.348746 255 255 0
0.000624 -0.018804 -0.332888 255 255 0
0.000416 -0.004236 -0.258929 255 255 0
0.004435 -0.004046 0.343969 255 0 0
0.005083 0.000013 0.359518 255 0 0
0.003507 -0.003413 0.359971 255 0 0
-0.003873 -0.004046 0.343969 255 0 0
-0.000055 -0.004940 0.359518 255 0 0
-0.003508 -0.003615 0.359669 255 0 0
-0.005593 0.000108 0.343969 255 0 0
-0.004887 -0.000027 0.359971 255 0 0
0.000282 -0.005767 0.343969 255 0 0
0.003817 0.003644 -0.405925 0 255 0
0.000281 0.005108 -0.406170 0 255 0
-0.003254 0.003644 -0.406170 0 255 0
0.005281 0.000108 0.344327 0 255 0
0.003817 0.003644 0.344327 0 255 0
0.000281 0.005108 0.344327 0 255 0
-0.003254 0.003644 0.344327 0 255 0
0.000624 0.019418 -0.348746 0 0 255
0.000624 0.007145 -0.356341 0 0 255
-0.000996 0.004452 -0.356341 0 0 255
0.001729 0.004452 -0.348746 0 0 255
0.000624 0.019020 -0.332888 0 0 255
0.004435 0.004262 0.343969 255 0 0
0.006156 0.000108 0.343969 255 0 0
-0.003679 0.003592 0.359971 255 0 0
-0.003873 0.004262 0.343969 255 0 0
-0.000600 -0.015113 0.344488 255 0 0
-0.015337 -0.000376 0.344488 255 0 0
-0.000600 -0.000376 0.432746 255 0 0
0.014136 -0.000376 0.344488 255 0 0
-0.000600 0.014360 0.344488 255 0 0
0.003772 0.003856 0.359971 255 0 0
-0.000063 0.005099 0.359518 255 0 0
0.000000 0.004107 -0.258929 0 0 255
0.000282 0.005983 0.343969 255 0 0
3 0 1 2
3 1 3 2
3 3 4 2
3 4 5 2
3 0 6 1
3 1 7 3
3 3 8 4
3 4 9 5
3 10 11 12
3 11 13 12
3 13 10 12
3 11 14 15
3 16 17 18
3 19 20 21
3 22 21 23
3 16 20 24
3 0 2 25
3 25 2 26
3 26 2 27
3 27 2 5
3 28 25 29
3 30 25 26
3 31 26 27
3 5 31 27
3 32 33 34
3 34 33 35
3 35 33 32
3 34 36 32
3 37 17 38
3 22 39 40
3 41 21 20
3 42 21 43
3 44 18 17
3 45 46 47
3 42 43 39
3 41 20 18
3 23 42 21
3 44 46 43
3 46 45 43
3 39 43 45
3 21 41 43
3 45 47 39
3 42 39 23
3 36 35 32
3 13 14 10
3 44 43 18
3 18 43 41
3 44 17 46
3 37 47 46
3 47 40 39
3 22 37 38
3 0 28 6
3 1 6 7
3 3 7 8
3 4 8 9
3 11 10 14
3 16 38 17
3 19 24 20
3 22 19 21
3 16 18 20
3 28 0 25
3 30 29 25
3 31 30 26
3 5 9 31
3 34 48 36
3 37 46 17
3 22 23 39
3 36 48 35
3 13 15 14
3 37 49 47
3 47 49 40
3 38 16 22
3 24 19 22
3 22 40 49
3 49 37 22
3 16 24 22
