ply
format ascii 1.0
comment Created by Blender 2.83.20 - www.blender.org, source file: 'ArtistsWorkbench.blend'
element vertex 144
property float x
property float y
property float z
property uchar red
property uchar green
property uchar blue
property uchar alpha
element face 132
property list uchar uint vertex_indices
end_header
-0.305007 0.458676 0.374837 150 108 77 255
-0.305007 0.080671 0.232000 183 131 93 255
-0.305007 -0.108420 0.232000 183 131 93 255
-0.305007 -0.500138 -0.392369 183 131 93 255
-0.305007 -0.252465 -0.249532 183 131 93 255
-0.305007 -0.107859 -0.249532 183 131 93 255
0.062643 0.578493 0.523153 224 200 167 255
0.062643 0.558493 0.523153 224 200 167 255
0.062643 0.558493 0.500242 224 200 167 255
-0.177357 0.578493 0.123153 224 200 167 255
-0.177357 0.558493 0.123153 224 200 167 255
-0.177357 0.558493 0.500171 224 200 167 255
0.523081 0.578493 -0.425294 224 200 167 255
0.523081 0.558493 -0.425294 224 200 167 255
0.500170 0.558493 -0.425294 224 200 167 255
0.206958 0.578493 -0.265293 224 200 167 255
0.206958 0.558493 -0.265293 224 200 167 255
0.500100 0.558493 -0.265293 224 200 167 255
-0.024286 -0.401721 -0.422192 154 117 73 255
0.037854 -0.410288 -0.417068 117 108 97 255
0.024286 -0.401721 -0.422192 160 126 87 255
0.024286 -0.396702 -0.445954 154 117 73 255
-0.037854 -0.402464 -0.454104 117 108 97 255
-0.024286 -0.396702 -0.445954 154 117 73 255
-0.183295 0.563341 -0.225358 160 126 87 255
-0.135482 0.556970 -0.265785 117 108 97 255
-0.186859 0.556970 -0.210178 117 108 97 255
-0.184275 0.587591 -0.226262 154 117 73 255
-0.137009 0.594767 -0.267195 117 108 97 255
-0.151312 0.587591 -0.261939 154 117 73 255
0.335829 0.677490 0.283993 147 51 47 255
0.299821 0.677490 0.235151 147 51 47 255
0.239518 0.677490 0.241914 147 51 47 255
-0.305007 -0.500138 0.374837 183 131 93 255
0.462198 -0.500138 0.374837 183 131 93 255
0.462198 0.458676 0.374837 150 108 77 255
-0.177465 0.078647 -0.058785 147 136 129 255
-0.191269 0.078647 -0.117875 147 136 129 255
-0.191269 0.164423 -0.117875 147 136 129 255
-0.177465 0.164423 -0.058785 148 137 130 255
0.143470 -0.252465 0.232000 109 78 56 255
-0.305007 -0.252465 0.232000 183 131 93 255
0.143470 -0.108420 0.232000 109 78 56 255
-0.249344 0.078647 -0.135465 147 136 129 255
-0.249344 0.164423 -0.135465 147 136 129 255
-0.305007 0.229068 0.232000 184 132 94 255
-0.305007 0.229068 -0.249532 183 132 94 255
-0.305007 0.458676 -0.392369 151 109 78 255
-0.305007 0.078551 -0.249532 182 131 93 255
0.020000 -0.246645 -0.412064 154 117 73 255
0.020000 -0.250778 -0.392496 162 129 95 255
0.145811 0.080671 0.232000 109 78 56 255
0.145811 0.229068 0.232000 109 78 56 255
0.145811 0.229068 -0.249532 109 78 56 255
0.145811 0.078551 -0.249532 109 78 56 255
0.037854 -0.502547 -0.436557 92 90 122 255
0.037854 -0.442876 -0.423952 213 196 176 255
-0.037854 -0.442876 -0.423952 208 189 169 255
-0.037854 -0.502547 -0.436557 73 75 117 255
0.143470 -0.252465 -0.249532 109 78 56 255
0.143470 -0.107859 -0.249532 114 85 67 255
0.499339 0.458598 0.500000 125 90 64 255
0.499339 0.458598 -0.500000 125 90 64 255
0.499339 0.558598 -0.500000 126 91 66 255
0.499339 0.558598 0.500000 125 90 64 255
-0.380661 0.458598 0.500000 125 90 64 255
-0.380661 0.558598 0.500000 125 90 64 255
-0.380661 0.458598 -0.500000 125 90 64 255
-0.380661 0.558598 -0.500000 126 91 65 255
-0.177357 0.558493 0.523153 224 200 167 255
-0.177357 0.578493 0.523153 224 200 167 255
0.062643 0.558493 0.123153 224 200 167 255
0.062643 0.578493 0.123153 224 200 167 255
0.062643 0.199591 0.523153 72 102 59 255
-0.177357 0.199591 0.523153 70 101 58 255
0.215223 0.677490 0.297519 147 51 47 255
0.215223 0.642051 0.297519 147 136 129 255
0.251231 0.642051 0.346361 147 136 129 255
0.251231 0.677490 0.346361 147 62 57 255
0.062643 0.199591 0.500242 79 105 64 255
-0.177357 0.199591 0.500171 70 101 58 255
0.523081 0.558493 -0.265293 224 200 167 255
0.523081 0.578493 -0.265293 224 200 167 255
0.206958 0.558493 -0.425294 224 200 167 255
0.206958 0.578493 -0.425294 224 200 167 255
0.523081 0.340392 -0.425294 57 64 100 255
0.523081 0.340392 -0.265293 56 62 101 255
0.251231 0.556276 0.346361 147 136 129 255
0.311534 0.556276 0.339598 147 136 129 255
0.311534 0.642051 0.339598 147 136 129 255
0.500170 0.340392 -0.425294 56 63 101 255
0.500100 0.340392 -0.265293 56 62 101 255
0.239518 0.642051 0.241914 147 136 129 255
-0.020000 -0.246645 -0.412064 154 117 73 255
-0.020000 -0.250778 -0.392496 154 117 73 255
-0.266945 0.577008 -0.362939 154 117 73 255
-0.150333 0.563341 -0.261034 154 117 73 255
-0.266139 0.557038 -0.362194 154 117 73 255
-0.294090 0.577008 -0.333559 154 117 73 255
-0.037854 -0.410288 -0.417068 117 108 97 255
0.215223 0.556276 0.297519 147 136 129 255
-0.162431 0.558798 -0.187610 213 196 176 255
-0.163958 0.596595 -0.189020 212 195 175 255
-0.178296 0.595522 -0.202267 117 108 97 255
-0.176770 0.557725 -0.200857 117 108 97 255
0.037854 -0.402464 -0.454104 117 108 97 255
0.037854 -0.423747 -0.419911 117 108 97 255
-0.037854 -0.423747 -0.419911 118 109 96 255
-0.037854 -0.415924 -0.456947 117 108 97 255
-0.112581 0.596595 -0.244626 209 191 170 255
-0.126920 0.595522 -0.257874 117 108 97 255
0.335829 0.642051 0.283993 147 136 129 255
0.299821 0.642051 0.235151 148 137 130 255
0.037854 -0.415924 -0.456947 117 108 97 255
-0.037854 -0.435052 -0.460988 209 191 170 255
0.037854 -0.435052 -0.460988 212 195 175 255
-0.037854 -0.494723 -0.473593 89 88 121 255
0.037854 -0.494723 -0.473593 74 76 117 255
-0.293283 0.557038 -0.332814 162 129 95 255
-0.067854 0.599943 -0.203302 76 113 84 255
-0.119230 0.599943 -0.147695 74 109 86 255
-0.188385 0.594767 -0.211588 117 108 97 255
-0.117704 0.562146 -0.146285 80 109 93 255
-0.066328 0.562146 -0.201891 74 113 80 255
-0.125393 0.557725 -0.256464 118 109 96 255
-0.111055 0.558798 -0.243216 77 118 77 255
0.239518 0.556276 0.241914 147 136 129 255
0.299821 0.556276 0.235151 147 136 129 255
0.335829 0.556276 0.283993 148 137 130 255
-0.293615 0.199861 -0.093965 83 80 146 255
-0.221736 0.199861 -0.017285 83 79 146 255
-0.191269 0.199861 -0.117875 87 78 143 255
-0.249344 0.199861 -0.135465 81 80 147 255
0.311534 0.677490 0.339598 147 51 47 255
-0.293615 0.078647 -0.093965 147 136 129 255
-0.293615 0.164423 -0.093965 147 136 129 255
0.462198 -0.500138 -0.392369 183 131 93 255
0.462198 0.458676 -0.392369 152 109 78 255
-0.221736 0.078647 -0.017285 148 137 130 255
-0.221736 0.164423 -0.017285 147 136 129 255
-0.279811 0.078647 -0.034875 147 136 129 255
-0.279811 0.164423 -0.034875 147 136 129 255
-0.279811 0.199861 -0.034875 81 80 147 255
-0.177465 0.199861 -0.058785 84 79 145 255
3 0 1 2
3 3 4 5
3 6 7 8
3 9 10 11
3 12 13 14
3 15 16 17
3 18 19 20
3 21 22 23
3 24 25 26
3 27 28 29
3 30 31 32
4 33 34 35 0
4 36 37 38 39
4 40 41 2 42
4 37 43 44 38
3 41 33 2
3 33 0 2
3 0 45 1
3 46 47 48
3 47 3 5
3 48 47 5
4 46 45 0 47
4 48 5 2 1
4 20 21 49 50
4 51 1 45 52
4 52 45 46 53
4 54 48 1 51
4 55 56 57 58
4 53 54 51 52
4 59 4 41 40
4 42 2 5 60
4 61 62 63 64
4 65 61 64 66
4 67 65 66 68
4 62 67 68 63
4 62 61 65 67
4 68 66 64 63
4 69 7 6 70
3 8 71 72
3 72 6 8
4 71 10 9 72
3 11 69 70
3 70 9 11
4 73 7 69 74
4 9 70 6 72
4 75 76 77 78
4 79 73 74 80
4 74 69 11 80
4 80 11 8 79
4 81 13 12 82
3 14 83 84
3 84 12 14
4 83 16 15 84
3 17 81 82
3 82 15 17
4 85 13 81 86
4 15 82 12 84
4 87 88 89 77
4 90 85 86 91
4 59 40 42 60
4 86 81 17 91
4 91 17 14 90
4 32 92 76 75
4 93 23 18 94
4 21 23 93 49
4 95 29 96 97
4 27 29 95 98
3 18 99 19
4 100 87 77 76
4 101 102 103 104
4 4 3 33 41
4 105 21 20 19
3 21 105 22
4 56 106 107 57
4 108 107 99 22
4 106 19 99 107
4 109 110 103 102
4 30 111 112 31
4 108 22 105 113
4 113 105 19 106
4 57 107 108 114
4 114 108 113 115
4 58 57 114 116
4 117 55 58 116
4 60 5 4 59
4 18 20 50 94
4 75 78 30 32
4 118 24 27 98
3 24 96 25
4 119 109 102 120
4 104 103 121 26
4 25 96 29 28
4 99 18 23 22
3 27 121 28
4 120 102 101 122
4 31 112 92 32
4 56 115 113 106
4 120 122 123 119
4 124 25 28 110
4 109 125 124 110
4 119 123 125 109
4 98 95 97 118
4 116 114 115 117
4 93 94 50 49
4 126 100 76 92
4 127 126 92 112
4 128 127 112 111
4 90 14 13 85
4 88 128 111 89
4 129 130 131 132
3 78 133 30
4 79 8 7 73
4 133 89 111 30
4 55 117 115 56
4 53 46 48 54
4 110 28 121 103
4 78 77 89 133
4 43 134 135 44
4 136 3 47 137
4 34 136 137 35
4 138 36 39 139
4 131 38 44 132
4 140 138 139 141
4 121 27 24 26
3 129 142 130
3 130 143 131
4 134 140 141 135
4 142 141 139 130
4 132 44 135 129
4 143 39 38 131
4 129 135 141 142
4 130 139 39 143
