ply
format ascii 1.0
comment Created by Blender 2.78 (sub 0) - www.blender.org, source file: 'bananatree.blend'
element vertex 186
property float x
property float y
property float z
property uchar red
property uchar green
property uchar blue
element face 91
property list uchar uint vertex_indices
end_header
0.352895 0.560691 0.043463 194 155 63
0.300727 0.294403 0.070617 194 155 63
0.306774 0.296673 -0.077707 195 156 64
0.356227 0.561942 -0.038275 194 155 63
0.306774 0.296673 -0.077707 194 155 63
0.212228 0.411121 -0.079810 194 155 63
0.277257 0.583134 -0.041170 194 155 63
0.212228 0.411121 -0.079810 198 160 74
0.206181 0.408852 0.068514 194 155 63
0.273924 0.581883 0.040568 194 155 63
0.094688 0.169210 -0.044664 194 155 63
0.055657 0.216426 -0.045532 194 155 63
0.055657 0.216426 -0.045532 199 164 80
0.094688 0.169210 -0.044664 195 156 65
0.092193 0.168274 0.016545 196 158 69
0.053161 0.215489 0.015676 196 158 69
0.053161 0.215489 0.015676 194 155 64
0.092193 0.168274 0.016545 194 155 63
0.053161 0.215489 0.015676 194 155 63
0.065307 -0.500008 -0.084623 135 189 89
0.031672 0.557494 -0.047251 198 255 149
0.031672 0.557494 0.050438 194 255 141
0.065307 -0.500008 0.087810 135 189 89
-0.056249 0.557494 0.050438 189 251 137
-0.089883 -0.500008 0.087810 126 185 95
-0.056249 0.557494 -0.047252 188 251 137
-0.089883 -0.500008 -0.084623 135 189 89
-0.056249 0.557494 -0.047252 193 255 140
0.031672 0.557494 -0.047251 193 255 140
-0.056249 0.557494 0.050438 193 255 140
0.031672 0.557494 0.050438 193 255 140
-0.056249 0.557494 -0.047252 192 254 139
-0.105866 0.745801 -0.235593 121 209 56
-0.549137 1.498873 -0.235593 127 215 62
-0.549137 1.498873 0.238780 121 209 56
-0.105866 0.745801 0.238780 124 213 59
-0.105866 0.745801 0.238780 157 255 98
-0.549137 1.498873 0.238780 157 255 98
-0.576032 1.483042 0.238780 157 255 98
-0.132761 0.729970 0.238780 157 255 98
-0.132761 0.729970 0.238780 123 211 58
-0.576032 1.483042 0.238780 122 210 57
-0.576032 1.483042 -0.235593 123 211 58
-0.132762 0.729970 -0.235593 121 209 56
-0.549137 1.498873 -0.235593 123 211 58
-0.065881 0.632788 -0.108826 132 224 69
-0.065881 0.632788 0.112013 154 251 95
-0.576032 1.483042 0.238780 132 224 70
-0.549137 1.498873 0.238780 137 230 75
-0.624390 1.607257 0.088709 142 236 81
-0.634269 1.601442 0.088709 147 243 87
-0.624390 1.607257 -0.085522 150 247 91
-0.634268 1.601442 -0.085522 151 247 91
-0.634269 1.601442 0.088709 128 218 64
-0.634268 1.601442 -0.085522 126 215 62
-0.624390 1.607257 -0.085522 146 241 84
-0.549137 1.498873 -0.235593 141 234 80
-0.576032 1.483042 -0.235593 147 242 86
-0.053360 0.640158 0.112013 140 234 78
-0.065881 0.632788 0.112013 151 247 91
-0.065881 0.632788 -0.108826 157 255 98
-0.053360 0.640158 -0.108826 157 255 98
-0.065881 0.632788 0.112013 157 255 98
-0.053360 0.640158 0.112013 157 255 98
-0.053360 0.640158 0.112013 126 216 62
-0.053360 0.640158 -0.108826 123 212 58
0.014143 0.572531 -0.029615 120 182 98
-0.604083 1.622981 -0.029615 213 255 171
-0.604083 1.622982 0.032802 213 255 171
0.014143 0.572531 0.032802 122 183 99
-0.604083 1.622982 0.032802 215 255 174
-0.657874 1.591319 0.032802 213 255 171
0.009159 0.458721 0.032802 125 185 100
0.009159 0.458721 0.032802 126 186 100
-0.657874 1.591319 -0.029615 213 255 171
0.009159 0.458721 -0.029615 120 182 98
0.145138 0.673639 -0.235593 122 210 57
0.654950 1.383355 -0.235593 121 209 56
0.654951 1.383355 0.238780 121 209 56
0.145138 0.673638 0.238780 121 209 56
0.145138 0.673638 0.238780 157 255 98
0.654951 1.383355 0.238780 157 255 98
0.629604 1.401562 0.238780 157 255 98
0.119791 0.691846 0.238780 157 255 98
0.119791 0.691846 0.238780 123 212 59
0.629604 1.401562 0.238780 121 209 56
0.629604 1.401562 -0.235593 121 209 56
0.119791 0.691846 -0.235593 121 209 56
0.145138 0.673639 -0.235593 121 209 56
0.057911 0.591407 -0.108826 120 199 71
0.057911 0.591407 0.112013 125 216 62
0.723696 1.495979 0.088709 157 255 98
0.714386 1.502667 0.088709 157 255 98
0.723696 1.495979 -0.085522 157 255 98
0.714386 1.502666 -0.085522 157 255 98
0.714386 1.502667 0.088709 132 222 68
0.714386 1.502666 -0.085522 121 209 56
0.723696 1.495979 -0.085522 121 209 56
0.723696 1.495979 0.088709 130 220 66
0.069711 0.582930 0.112013 157 255 98
0.057911 0.591407 0.112013 157 255 98
0.057911 0.591407 -0.108826 143 229 98
0.069711 0.582930 -0.108826 142 229 98
0.119791 0.691846 -0.235593 157 255 98
0.145138 0.673639 -0.235593 157 255 98
0.069711 0.582930 -0.108826 157 255 98
0.057911 0.591407 -0.108826 157 255 98
0.069711 0.582930 0.112013 135 227 73
0.069711 0.582930 -0.108826 130 221 67
0.746284 1.483755 -0.029615 207 252 162
0.746284 1.483755 0.032802 213 255 171
0.009159 0.458721 0.032802 118 181 97
0.746284 1.483755 0.032802 213 255 172
0.695590 1.520170 0.032802 214 255 173
0.014143 0.572531 0.032802 120 182 98
0.695590 1.520170 0.032802 213 255 171
0.695590 1.520170 -0.029615 213 255 171
0.746284 1.483755 -0.029615 213 255 171
0.225136 0.632777 -0.170764 125 213 60
0.225136 1.283488 -0.754016 121 209 56
-0.249165 1.289036 -0.747825 121 209 56
-0.249165 0.638326 -0.164573 121 210 57
-0.249165 0.638326 -0.164573 121 209 56
-0.249712 1.268209 -0.771061 121 209 56
-0.249712 0.617499 -0.187809 121 209 56
-0.249712 0.617499 -0.187809 122 211 57
0.224589 1.262660 -0.777252 121 209 56
0.224589 0.611951 -0.194000 121 209 56
0.225136 0.632777 -0.170764 121 209 56
0.097987 0.531371 -0.107593 149 245 89
-0.122818 0.533955 -0.104711 157 255 98
-0.099290 1.378672 -0.844957 143 238 83
-0.099491 1.371022 -0.853491 139 232 77
0.074915 1.376634 -0.847230 122 210 57
0.074714 1.368984 -0.855765 122 210 57
-0.099290 1.378672 -0.844957 145 240 85
-0.122563 0.543650 -0.093893 123 197 85
-0.122818 0.533955 -0.104711 122 190 94
0.098242 0.541067 -0.096775 147 243 86
-0.122818 0.533955 -0.104711 142 235 81
-0.122563 0.543650 -0.093893 130 220 67
0.225136 0.632777 -0.170764 157 255 98
-0.122563 0.543650 -0.093893 119 188 86
0.098242 0.541067 -0.096775 121 209 56
0.019323 0.461226 0.008944 120 182 98
0.019463 1.396710 -0.829701 213 255 171
-0.042945 1.397440 -0.828887 213 255 171
-0.043088 0.461753 0.009143 120 182 98
-0.043088 0.461753 0.009143 118 181 97
-0.044039 1.355785 -0.875359 214 255 174
-0.043900 0.366113 0.009625 118 181 97
-0.044039 1.355785 -0.875359 213 255 171
0.018369 1.355055 -0.876173 213 255 171
0.018512 0.365585 0.009426 118 181 97
0.019323 0.461226 0.008944 118 181 97
-0.249334 0.644693 0.171284 122 210 57
-0.249334 1.332872 0.709815 121 209 56
0.225022 1.330395 0.712979 121 209 56
0.225022 0.642216 0.174449 121 209 56
0.224758 1.311163 0.737556 121 209 56
0.224758 0.622984 0.199026 121 209 56
-0.249599 1.313640 0.734392 121 209 56
-0.249598 0.625460 0.195861 121 209 56
-0.249598 0.625460 0.195861 123 211 58
-0.122766 0.537264 0.117618 125 214 60
0.098066 0.536111 0.119091 154 252 95
0.074873 1.428716 0.800842 136 229 73
0.074776 1.421652 0.809869 132 222 68
-0.099352 1.429626 0.799679 122 211 57
-0.099449 1.422562 0.808706 125 215 62
0.074776 1.421652 0.809869 121 209 56
-0.099449 1.422562 0.808706 122 210 57
-0.099352 1.429626 0.799679 121 209 56
0.098189 0.545065 0.107650 154 251 95
-0.122766 0.537264 0.117618 157 255 98
-0.122642 0.546218 0.106176 157 255 98
-0.249598 0.625460 0.195861 150 246 90
0.098189 0.545065 0.107650 137 230 75
-0.122642 0.546218 0.106176 131 221 68
-0.043231 1.447594 0.781992 213 255 171
0.019184 1.447268 0.782408 213 255 171
0.019184 1.447268 0.782408 215 255 176
0.018655 1.408803 0.831562 213 255 171
-0.043760 1.409128 0.831146 213 255 171
-0.043231 1.447594 0.781992 209 252 166
-0.043088 0.461753 0.009143 127 188 104
4 0 1 2 3
4 3 4 5 6
4 6 7 8 9
4 1 0 9 8
4 9 0 3 6
4 5 4 10 11
4 12 13 14 15
4 8 7 11 16
4 4 1 17 10
4 1 8 18 17
4 19 20 21 22
4 22 21 23 24
4 24 23 25 26
4 26 27 28 19
4 29 30 28 31
4 32 33 34 35
4 36 37 38 39
4 40 41 42 43
4 43 42 44 32
4 40 43 45 46
4 47 48 49 50
4 50 49 51 52
4 42 41 53 54
4 34 33 55 49
4 56 57 52 51
4 58 59 60 61
4 43 32 61 60
4 36 39 62 63
4 32 35 64 65
4 66 67 68 69
4 69 70 71 72
4 73 71 74 75
4 75 74 67 66
4 71 68 67 74
4 76 77 78 79
4 80 81 82 83
4 84 85 86 87
4 87 86 77 88
4 84 87 89 90
4 82 81 91 92
4 92 91 93 94
4 86 85 95 96
4 78 77 97 98
4 77 86 96 97
4 99 100 101 102
4 103 104 105 106
4 80 83 100 99
4 76 79 107 108
4 75 109 110 111
4 111 112 113 114
4 114 115 116 66
4 66 116 109 75
4 115 110 117 116
4 118 119 120 121
4 122 120 123 124
4 125 123 126 127
4 127 126 119 128
4 125 127 129 130
4 123 120 131 132
4 132 131 133 134
4 126 123 132 134
4 120 119 133 135
4 119 126 134 133
4 136 137 129 138
4 127 128 138 129
4 122 124 139 140
4 141 121 142 143
4 144 145 146 147
4 148 146 149 150
4 150 151 152 153
4 153 152 145 154
4 151 146 145 152
4 155 156 157 158
4 158 157 159 160
4 160 159 161 162
4 163 161 156 155
4 160 162 164 165
4 159 157 166 167
4 167 166 168 169
4 161 159 170 171
4 157 156 168 166
4 156 161 171 172
4 173 165 174 175
4 176 155 175 174
4 158 160 165 173
4 155 158 177 178
4 147 179 180 144
4 154 181 182 153
4 153 182 183 150
4 150 183 184 185
4 182 180 179 183
