ply
format ascii 1.0
comment Created by Blender 2.78 (sub 0) - www.blender.org, source file: 'banner.blend'
element vertex 60
property float x
property float y
property float z
property uchar red
property uchar green
property uchar blue
element face 74
property list uchar uint vertex_indices
end_header
-1.300000 2.849995 -0.050000 255 0 0
-1.300000 2.749995 -0.050000 255 0 0
-1.300000 2.749995 0.050000 255 0 0
1.300000 2.849994 -0.050001 255 0 0
1.300000 2.849994 0.049999 255 0 0
1.300000 2.749994 0.049999 255 0 0
1.300000 2.749994 -0.050001 255 0 0
-1.300000 2.849995 0.050000 255 0 0
0.800000 2.749995 0.010000 0 255 0
0.800000 1.549995 -0.000001 0 255 0
1.200000 1.149995 -0.000001 0 255 0
0.800000 2.749995 -0.010000 0 255 0
1.200000 2.749994 -0.010000 0 255 0
0.400000 2.749995 0.010000 0 255 0
0.400000 1.149995 -0.000001 0 255 0
-0.800000 2.749995 0.010000 0 255 0
-0.800000 1.549995 0.000000 0 255 0
-0.400000 1.149995 0.000000 0 255 0
-0.800000 2.749990 -0.010000 0 255 0
-0.400000 2.749995 -0.010000 0 255 0
-1.200000 1.149995 0.000000 0 255 0
-1.200000 2.749995 0.010000 0 255 0
1.200000 2.749994 0.010000 0 255 0
0.400000 2.749995 -0.010000 0 255 0
-0.400000 2.749995 0.010000 0 255 0
-1.200000 2.749995 -0.010000 0 255 0
0.050000 3.499995 -0.049997 255 0 0
-0.050000 3.499995 -0.049997 255 0 0
-0.050000 3.499995 0.050003 255 0 0
0.050000 3.499995 0.050003 255 0 0
0.050000 -0.500001 0.050000 255 0 0
-0.050000 -0.500001 -0.050000 255 0 0
0.050000 -0.500001 -0.050000 255 0 0
-0.050000 -0.500001 0.050000 255 0 0
0.050000 2.749995 -1.299999 255 0 0
-0.050000 2.749995 -1.299999 255 0 0
-0.050000 2.849995 -1.299999 255 0 0
0.050000 2.849994 1.300000 255 0 0
-0.050000 2.849994 1.300000 255 0 0
-0.050000 2.749994 1.300000 255 0 0
0.050000 2.849995 -1.299999 255 0 0
0.050000 2.749994 1.300000 255 0 0
-0.010000 2.749995 0.800000 0 0 255
0.000000 1.549995 0.800000 0 0 255
0.000000 1.149995 1.200000 0 0 255
0.010000 2.749995 0.800000 0 0 255
0.010000 2.749994 1.200001 0 0 255
0.000000 1.149995 0.400000 0 0 255
-0.010000 2.749995 -0.800000 0 0 255
0.000000 1.549995 -0.800000 0 0 255
0.000000 1.149995 -0.400000 0 0 255
0.010000 2.749995 -0.800000 0 0 255
0.010000 2.749995 -0.400000 0 0 255
0.000000 1.149995 -1.200000 0 0 255
-0.010000 2.749995 -1.200000 0 0 255
-0.010000 2.749995 0.400000 0 0 255
-0.010000 2.749994 1.200001 0 0 255
0.010000 2.749995 0.400000 0 0 255
-0.010000 2.749995 -0.400000 0 0 255
0.010000 2.749995 -1.200000 0 0 255
3 0 1 2
3 3 4 5
3 3 6 1
3 6 5 2
3 5 4 7
3 0 7 4
3 8 9 10
3 11 12 10
3 8 13 14
3 11 9 14
3 15 16 17
3 18 19 17
3 18 16 20
3 15 21 20
3 7 0 2
3 6 3 5
3 0 3 1
3 1 6 2
3 2 5 7
3 3 0 4
3 22 8 10
3 9 11 10
3 12 22 10
3 9 8 14
3 13 23 14
3 23 11 14
3 24 15 17
3 16 18 17
3 19 24 17
3 21 25 20
3 25 18 20
3 16 15 20
3 26 27 28
3 26 29 30
3 30 29 28
3 28 27 31
3 32 31 27
3 29 26 28
3 32 26 30
3 33 30 28
3 33 28 31
3 26 32 27
3 34 35 36
3 37 38 39
3 40 37 41
3 34 41 39
3 39 38 36
3 37 40 36
3 42 43 44
3 45 46 44
3 45 43 47
3 48 49 50
3 51 52 50
3 51 49 53
3 48 54 53
3 42 55 47
3 40 34 36
3 41 37 39
3 34 40 41
3 35 34 39
3 35 39 36
3 38 37 36
3 56 42 44
3 43 45 44
3 46 56 44
3 55 57 47
3 57 45 47
3 58 48 50
3 49 51 50
3 52 58 50
3 54 59 53
3 59 51 53
3 49 48 53
3 43 42 47
