ply
format ascii 1.0
comment Created by Blender 2.78 (sub 0) - www.blender.org, source file: 'barleystage1.blend'
element vertex 44
property float x
property float y
property float z
property uchar red
property uchar green
property uchar blue
element face 42
property list uchar uint vertex_indices
end_header
-0.122511 -0.300240 0.234613 118 166 51
-0.094320 -0.300247 0.244874 118 166 51
-0.122511 -0.500165 0.234478 118 166 51
-0.094320 -0.500172 0.244739 118 166 51
-0.002690 -0.278821 0.335705 150 149 44
0.023988 -0.278772 0.262409 150 149 44
-0.006622 -0.264691 0.334283 150 149 44
0.020056 -0.264642 0.260987 150 149 44
-0.180492 -0.299985 -0.142387 118 166 51
-0.165492 -0.299967 -0.168368 118 166 51
-0.180492 -0.499910 -0.142522 118 166 51
-0.165492 -0.499892 -0.168503 118 166 51
0.255338 -0.300001 -0.118892 118 166 51
0.255338 -0.299980 -0.148891 118 166 51
0.255338 -0.499926 -0.119027 124 166 50
0.255338 -0.499905 -0.149026 118 166 51
0.255338 -0.499926 -0.119027 118 166 51
-0.104581 -0.300266 0.273064 118 166 51
-0.132772 -0.300259 0.262804 120 165 51
-0.104581 -0.500191 0.272929 118 166 51
-0.132772 -0.500184 0.262669 118 166 51
-0.153521 -0.300128 0.280792 150 149 44
-0.139511 -0.299977 -0.153368 118 166 51
-0.154511 -0.299995 -0.127387 125 162 50
-0.139511 -0.499902 -0.153503 118 166 51
-0.154511 -0.499920 -0.127522 118 166 51
-0.251336 -0.264299 -0.245619 150 149 44
-0.290336 -0.264345 -0.178069 150 149 44
-0.110734 -0.300562 -0.164466 150 149 44
-0.149734 -0.300608 -0.096916 150 149 44
-0.293799 -0.277840 -0.180077 150 149 44
-0.254799 -0.277795 -0.247627 150 149 44
0.285338 -0.299980 -0.148891 120 166 51
0.285338 -0.300001 -0.118892 118 166 51
0.285338 -0.499905 -0.149026 118 166 51
0.285338 -0.499926 -0.119027 118 166 51
0.231338 -0.277863 -0.001927 150 149 44
0.309339 -0.277863 -0.001927 150 149 44
0.231338 -0.264461 -0.005887 150 149 44
0.309339 -0.264461 -0.005887 150 149 44
-0.126843 -0.300078 0.207496 150 149 44
-0.154511 -0.299995 -0.127387 118 166 51
0.231338 -0.300966 -0.164108 150 149 44
0.309339 -0.300966 -0.164108 150 149 44
3 0 1 2
3 3 2 1
3 4 5 6
3 7 6 5
3 8 9 10
3 11 10 9
3 12 13 14
3 15 16 13
3 17 18 19
3 20 19 18
3 6 21 4
3 22 23 24
3 25 24 23
3 26 27 28
3 29 28 27
3 27 30 29
3 28 31 26
3 32 33 34
3 35 34 33
3 36 37 38
3 39 38 37
3 18 0 20
3 20 0 2
3 6 7 21
3 40 21 7
3 41 8 25
3 10 25 8
3 31 30 26
3 27 26 30
3 33 12 35
3 16 35 12
3 1 17 3
3 19 3 17
3 38 42 36
3 40 7 5
3 9 22 11
3 24 11 22
3 39 37 43
3 13 32 15
3 34 15 32
3 38 39 42
3 43 42 39
