ply
format ascii 1.0
comment Created by Blender 2.78 (sub 0) - www.blender.org, source file: 'barleystage2.blend'
element vertex 104
property float x
property float y
property float z
property uchar red
property uchar green
property uchar blue
element face 90
property list uchar uint vertex_indices
end_header
-0.123398 0.199971 0.235834 182 148 85
-0.095207 0.199970 0.246095 182 148 85
-0.123398 -0.499998 0.235744 182 148 85
-0.095207 -0.499999 0.246005 182 148 85
0.051414 -0.190132 0.356876 182 148 85
0.078091 -0.190123 0.283580 182 148 85
0.049812 -0.177928 0.356294 182 148 85
0.076490 -0.177919 0.282998 182 148 85
-0.133658 0.199968 0.264025 182 148 85
-0.133658 -0.500001 0.263935 182 148 85
-0.127198 -0.244146 0.291860 182 148 85
-0.100520 -0.244137 0.218564 182 148 85
-0.105468 0.199966 0.274286 182 148 85
-0.133658 0.199968 0.264025 181 147 85
-0.105468 -0.500003 0.274196 182 148 85
-0.253690 0.033971 0.162850 182 148 85
-0.280367 0.033962 0.236146 182 148 85
-0.252089 0.046596 0.163435 182 148 85
-0.278766 0.046587 0.236731 182 148 85
-0.097161 -0.000137 0.219817 182 148 85
-0.123839 -0.000146 0.293113 182 148 85
-0.130314 0.318473 0.222690 105 85 49
-0.130314 0.178473 0.222672 105 85 49
-0.147415 0.318467 0.269675 105 85 49
-0.147415 0.178467 0.269657 105 85 49
-0.083330 0.318471 0.239791 105 85 49
-0.100431 0.318465 0.286776 105 85 49
-0.083330 0.178471 0.239773 105 85 49
-0.100431 0.178465 0.286758 106 86 50
-0.100431 0.178465 0.286758 109 89 53
-0.100431 0.178465 0.286758 105 85 49
-0.153692 0.200022 -0.127381 182 148 85
-0.179673 0.200024 -0.142381 182 148 85
-0.153692 -0.500003 -0.127471 182 148 85
-0.179673 -0.500000 -0.142471 182 148 85
-0.304821 -0.189886 -0.277039 182 148 85
-0.343821 -0.189894 -0.209489 182 148 85
-0.303345 -0.177843 -0.276185 182 148 85
-0.342345 -0.177852 -0.208636 182 148 85
-0.138692 0.200025 -0.153361 182 148 85
-0.138692 -0.499999 -0.153451 182 148 85
-0.140212 -0.244081 -0.182008 182 148 85
-0.179212 -0.244090 -0.114458 182 148 85
-0.164673 0.200027 -0.168361 182 148 85
-0.138692 0.200025 -0.153361 180 148 85
-0.164673 -0.499997 -0.168451 182 148 85
-0.179673 -0.500000 -0.142471 143 117 59
-0.164673 -0.499997 -0.168451 144 116 59
-0.038049 0.030876 -0.032923 182 148 85
0.000951 0.030886 -0.100474 182 148 85
-0.039525 0.046626 -0.033773 182 148 85
-0.000525 0.046635 -0.101323 182 148 85
-0.182307 -0.000089 -0.116214 182 148 85
-0.143307 -0.000081 -0.183764 182 148 85
-0.149166 0.318520 -0.113205 105 85 49
-0.149166 0.178520 -0.113223 115 92 53
-0.124166 0.318526 -0.156507 105 85 49
-0.124166 0.178526 -0.156525 106 86 50
-0.192467 0.318523 -0.138205 105 85 49
-0.167467 0.318529 -0.181507 105 85 49
-0.192467 0.178523 -0.138223 105 85 49
-0.167467 0.178529 -0.181525 108 87 50
-0.149166 0.178520 -0.113223 105 85 49
-0.124166 0.178526 -0.156525 107 86 50
-0.124166 0.178526 -0.156525 107 87 51
0.285444 0.200017 -0.147694 182 148 85
0.285444 0.200013 -0.117694 182 148 85
0.285444 -0.499998 -0.147784 179 146 83
0.285444 -0.500002 -0.117784 178 145 82
0.231444 -0.192540 0.057940 182 148 85
0.309444 -0.192540 0.057940 182 148 85
0.231444 -0.177894 0.056238 182 148 85
0.309444 -0.177894 0.056238 182 148 85
0.255444 0.200017 -0.147694 172 140 81
0.255444 -0.499998 -0.147784 181 147 84
0.285444 -0.499998 -0.147784 181 147 84
0.231444 -0.244095 -0.132140 182 148 85
0.309444 -0.244095 -0.132140 182 148 85
0.255444 0.200013 -0.117694 157 128 75
0.255444 0.200017 -0.147694 168 137 79
0.255444 -0.500002 -0.117784 182 148 85
0.255444 -0.499998 -0.147784 182 148 85
0.255444 0.200017 -0.147694 171 140 80
0.285444 0.200013 -0.117694 168 137 79
0.255444 0.200013 -0.117694 178 145 83
0.285444 -0.500002 -0.117784 182 148 85
0.309444 0.035189 -0.295105 182 148 85
0.231444 0.035189 -0.295105 182 148 85
0.309444 0.046651 -0.293399 182 148 85
0.231444 0.046651 -0.293399 182 148 85
0.309444 -0.000096 -0.128535 182 148 85
0.231444 -0.000096 -0.128535 182 148 85
0.295444 0.318518 -0.158679 105 85 49
0.295444 0.178518 -0.158697 136 111 66
0.245444 0.318518 -0.158679 105 85 49
0.245444 0.178518 -0.158697 105 85 49
0.295444 0.178518 -0.158697 135 110 65
0.295444 0.318512 -0.108679 105 85 49
0.245444 0.318512 -0.108679 105 85 49
0.295444 0.178512 -0.108697 106 86 50
0.245444 0.178512 -0.108697 106 86 50
0.295444 0.178512 -0.108697 117 94 55
0.295444 0.178518 -0.158697 105 85 49
0.245444 0.178512 -0.108697 113 92 53
3 0 1 2
3 3 2 1
3 4 5 6
3 7 6 5
3 8 0 9
3 9 0 2
3 6 7 10
3 11 10 7
3 12 13 14
3 9 14 8
3 1 12 3
3 14 3 12
3 15 16 17
3 18 17 16
3 17 18 19
3 20 19 18
3 21 22 23
3 24 23 22
3 25 21 26
3 23 26 21
3 27 25 28
3 26 29 25
3 27 22 25
3 21 25 22
3 30 26 24
3 23 24 26
3 31 32 33
3 34 33 32
3 35 36 37
3 38 37 36
3 39 31 40
3 33 40 31
3 37 38 41
3 42 41 38
3 43 44 45
3 40 45 44
3 32 43 46
3 47 46 43
3 18 16 20
3 17 19 15
3 48 49 50
3 51 50 49
3 50 51 52
3 53 52 51
3 38 36 42
3 37 41 35
3 51 49 53
3 50 52 48
3 7 5 11
3 10 4 6
3 54 55 56
3 57 56 55
3 58 54 59
3 56 59 54
3 60 58 61
3 59 61 58
3 60 62 58
3 54 58 62
3 61 59 63
3 56 64 59
3 65 66 67
3 68 67 66
3 69 70 71
3 72 71 70
3 73 65 74
3 75 74 65
3 71 72 76
3 77 76 72
3 71 76 69
3 78 79 80
3 81 80 82
3 83 84 85
3 80 85 84
3 72 70 77
3 86 87 88
3 89 88 87
3 88 89 90
3 91 90 89
3 88 90 86
3 89 87 91
3 92 93 94
3 95 94 96
3 97 92 98
3 94 98 92
3 99 97 100
3 98 100 97
3 101 102 97
3 92 97 102
3 103 98 95
3 94 95 98
