ply
format ascii 1.0
comment Created by Blender 2.78 (sub 0) - www.blender.org, source file: 'bedend.blend'
element vertex 32
property float x
property float y
property float z
property uchar red
property uchar green
property uchar blue
element face 26
property list uchar uint vertex_indices
end_header
0.500000 -0.300000 -0.500002 255 0 0
0.500000 -0.400000 -0.500002 255 0 0
-0.400199 -0.400000 -0.499999 255 0 0
-0.400196 -0.300000 0.500001 255 0 0
-0.400196 -0.400000 0.500001 255 0 0
0.500003 -0.400000 0.499999 255 0 0
-0.400199 -0.300000 -0.499999 255 0 0
0.500000 -0.300000 0.499999 255 0 0
0.500000 -0.100000 -0.500002 0 255 0
0.500000 -0.300000 -0.500002 0 255 0
-0.400199 -0.300000 -0.499999 0 255 0
-0.400196 -0.100000 0.500001 0 255 0
-0.400196 -0.300000 0.500001 0 255 0
0.500003 -0.300000 0.499999 0 255 0
-0.400199 -0.100000 -0.499999 0 255 0
0.500003 -0.100000 0.499999 0 255 0
-0.500003 0.100000 -0.499999 255 0 0
-0.500001 0.100000 0.500001 255 0 0
-0.400001 0.100000 0.500001 255 0 0
-0.400004 -0.500000 -0.499999 255 0 0
-0.400004 0.100000 -0.499999 255 0 0
-0.500001 -0.500000 0.500001 255 0 0
-0.500004 -0.500000 -0.499999 255 0 0
-0.400001 -0.500000 0.500001 255 0 0
0.499996 -0.050000 -0.500001 0 0 255
0.500000 -0.100000 -0.500001 0 0 255
-0.400204 -0.100000 -0.499999 0 0 255
-0.400201 -0.050000 0.500001 0 0 255
-0.400201 -0.100000 0.500001 0 0 255
0.500000 -0.100000 0.499999 0 0 255
-0.400204 -0.050000 -0.499999 0 0 255
0.499998 -0.050000 0.499999 0 0 255
3 0 1 2
3 3 4 5
3 2 1 5
3 6 0 2
3 7 3 5
3 4 2 5
3 8 9 10
3 11 12 13
3 14 8 10
3 15 11 13
3 16 17 18
3 19 20 18
3 18 17 21
3 17 16 22
3 19 22 16
3 20 16 18
3 23 19 18
3 23 18 21
3 21 17 22
3 20 19 16
3 24 25 26
3 27 28 29
3 24 30 27
3 30 24 26
3 31 27 29
3 31 24 27
