ply
format ascii 1.0
comment Created by Blender 2.78 (sub 0) - www.blender.org, source file: 'bed.blend'
element vertex 40
property float x
property float y
property float z
property uchar red
property uchar green
property uchar blue
element face 40
property list uchar uint vertex_indices
end_header
-0.499999 0.500000 -0.500000 255 0 0
-0.499999 0.500000 0.500000 255 0 0
-0.399999 0.500000 0.500000 255 0 0
-0.399999 0.500000 -0.499999 255 0 0
-0.399999 -0.500000 0.500000 255 0 0
-0.499999 -0.500000 0.500000 255 0 0
-0.499999 -0.500000 -0.500000 255 0 0
-0.399999 -0.500000 -0.500000 255 0 0
0.500000 -0.300000 -0.500000 255 0 0
0.500000 -0.400000 -0.500000 255 0 0
-0.400194 -0.400000 -0.500000 255 0 0
-0.400194 -0.300000 0.500000 255 0 0
-0.400194 -0.400000 0.500000 255 0 0
0.500000 -0.400000 0.500000 255 0 0
-0.400194 -0.300000 -0.500000 255 0 0
0.500000 -0.300000 0.500000 255 0 0
0.500000 -0.100000 -0.500000 0 255 0
0.500000 -0.300000 -0.500000 0 255 0
-0.400194 -0.300000 -0.500000 0 255 0
-0.400194 -0.100000 0.500000 0 255 0
-0.400194 -0.300000 0.500000 0 255 0
0.500000 -0.300000 0.500000 0 255 0
-0.400194 -0.100000 -0.500000 0 255 0
0.500000 -0.100000 0.500000 0 255 0
-0.000102 -0.050000 -0.500000 0 0 255
-0.000102 -0.100000 -0.500000 0 0 255
-0.000102 -0.100000 0.500000 0 0 255
0.500000 -0.050000 -0.500000 0 0 255
0.500000 -0.100000 -0.500000 0 0 255
-0.000102 -0.050000 0.500000 0 0 255
0.500000 -0.100000 0.500000 0 0 255
0.500000 -0.050000 0.500000 0 0 255
-0.367412 0.020000 -0.300000 0 255 0
-0.367412 -0.100000 -0.300000 0 255 0
-0.367412 -0.100000 0.300000 0 255 0
-0.017412 0.020000 -0.300000 0 255 0
-0.017412 -0.100000 -0.300000 0 255 0
-0.017412 0.020000 0.300000 0 255 0
-0.017412 -0.100000 0.300000 0 255 0
-0.367412 0.020000 0.300000 0 255 0
3 0 1 2
3 3 2 4
3 2 1 5
3 1 0 6
3 7 6 0
3 3 0 2
3 7 3 4
3 4 2 5
3 5 1 6
3 3 7 0
3 8 9 10
3 11 12 13
3 10 9 13
3 14 8 10
3 15 11 13
3 12 10 13
3 16 17 18
3 19 20 21
3 16 22 19
3 22 16 18
3 23 19 21
3 23 16 19
3 24 25 26
3 27 28 25
3 29 26 30
3 27 24 29
3 29 24 26
3 24 27 25
3 31 29 30
3 31 27 29
3 32 33 34
3 35 36 33
3 37 38 36
3 39 34 38
3 35 32 39
3 39 32 34
3 32 35 33
3 35 37 36
3 37 39 38
3 37 35 39
