ply
format ascii 1.0
comment Created by Blender 2.78 (sub 0) - www.blender.org, source file: 'beehive.blend'
element vertex 143
property float x
property float y
property float z
property uchar red
property uchar green
property uchar blue
element face 210
property list uchar uint vertex_indices
end_header
0.260185 0.000647 -0.137561 161 113 53
0.162074 -0.222773 -0.178199 161 113 53
0.260185 -0.222773 -0.137561 161 113 53
0.162074 0.000647 -0.178199 161 113 53
0.121435 -0.222773 -0.276311 161 113 53
0.121435 0.000647 -0.276311 161 113 53
0.162074 -0.222773 -0.374422 161 113 53
0.162074 0.000647 -0.374422 161 113 53
0.260185 -0.222773 -0.415061 161 113 53
0.358297 -0.222773 -0.374422 161 113 53
0.398935 0.000647 -0.276311 161 113 53
0.398935 -0.222773 -0.276311 161 113 53
0.358297 0.000647 -0.178199 161 113 53
0.260185 0.088988 -0.178766 161 113 53
0.260185 0.000647 -0.137561 161 114 53
0.358297 -0.222773 -0.178199 161 113 53
0.357730 0.088988 -0.276311 162 114 53
0.260185 0.148064 -0.276311 161 113 53
0.329160 0.088988 -0.207336 161 113 53
0.191211 0.088988 -0.207336 161 113 53
0.191211 0.088988 -0.345285 161 113 53
0.358297 0.000647 -0.374422 161 113 53
0.357730 0.088988 -0.276311 161 113 53
0.260185 0.088988 -0.373855 161 113 53
0.260185 0.000647 -0.415061 161 113 53
0.162641 0.088988 -0.276311 161 113 53
0.329160 0.088988 -0.345285 161 113 53
0.297120 -0.183617 -0.399762 161 113 53
0.321144 -0.182979 -0.389811 161 113 53
0.312550 -0.217294 -0.373598 23 19 7
0.288942 -0.183617 -0.383377 23 19 7
0.312965 -0.182979 -0.373426 25 20 8
0.295684 -0.217738 -0.400356 161 113 53
0.320728 -0.217294 -0.389983 161 113 53
0.287506 -0.217738 -0.383971 27 22 8
0.499500 -0.222500 -0.499500 158 129 89
0.499500 -0.333500 0.499500 158 129 89
0.499500 -0.333500 -0.499500 158 129 89
0.499500 -0.222500 0.499500 158 129 89
-0.499500 -0.333500 0.499500 158 129 89
-0.499500 -0.222500 0.499500 158 129 89
-0.499500 -0.333500 -0.499500 158 129 89
-0.499500 -0.222500 -0.499500 158 129 89
-0.388500 -0.333500 -0.499500 158 129 89
-0.388500 -0.500000 -0.388500 158 129 89
-0.388500 -0.500000 -0.499500 158 129 89
-0.388500 -0.333500 -0.388500 158 129 89
-0.499500 -0.500000 -0.388500 158 129 89
-0.499500 -0.333500 -0.388500 158 129 89
-0.499500 -0.500000 -0.499500 158 129 89
0.499500 -0.500000 -0.388500 158 129 89
0.499500 -0.500000 -0.499500 158 129 89
0.499500 -0.333500 -0.388500 158 129 89
0.388500 -0.500000 -0.388500 158 129 89
0.388500 -0.333500 -0.388500 158 129 89
0.388500 -0.500000 -0.499500 158 129 89
0.388500 -0.333500 -0.499500 158 129 89
-0.388500 -0.333500 0.388500 158 129 89
-0.388500 -0.500000 0.499500 158 129 89
-0.388500 -0.500000 0.388500 158 129 89
-0.388500 -0.333500 0.499500 158 129 89
-0.499500 -0.500000 0.499500 158 129 89
-0.499500 -0.500000 0.388500 158 129 89
-0.499500 -0.333500 0.388500 158 129 89
0.499500 -0.333500 0.388500 158 129 89
0.499500 -0.500000 0.499500 158 129 89
0.499500 -0.500000 0.388500 158 129 89
0.388500 -0.500000 0.499500 158 129 89
0.388500 -0.333500 0.499500 158 129 89
0.388500 -0.500000 0.388500 158 129 89
0.388500 -0.333500 0.388500 158 129 89
0.026216 0.000321 0.229356 161 113 53
0.097960 -0.223098 0.151061 161 113 53
0.026216 -0.223098 0.229356 161 113 53
0.097960 0.000321 0.151061 161 113 53
0.204054 -0.223098 0.146429 161 113 53
0.204054 0.000321 0.146429 161 113 53
0.282349 -0.223098 0.218173 161 113 53
0.282349 0.000321 0.218173 161 113 53
0.286981 -0.223098 0.324266 161 113 53
0.215237 -0.223098 0.402561 161 113 53
0.109143 0.000321 0.407193 161 113 53
0.109143 -0.223098 0.407193 161 113 53
0.030848 0.000321 0.335449 161 113 53
0.064937 0.088662 0.243449 161 113 53
0.026216 0.000321 0.229356 161 114 53
0.030848 -0.223098 0.335449 161 113 53
0.123236 0.088662 0.368473 162 114 53
0.156599 0.147739 0.276811 161 113 53
0.068193 0.088662 0.318035 161 113 53
0.115374 0.088662 0.188405 161 113 53
0.245004 0.088662 0.235587 161 113 53
0.215237 0.000321 0.402561 161 113 53
0.123236 0.088662 0.368473 161 113 53
0.248261 0.088662 0.310173 161 113 53
0.286981 0.000321 0.324266 161 113 53
0.189961 0.088662 0.185149 161 113 53
0.197823 0.088662 0.365216 161 113 53
0.242405 -0.183305 0.372912 161 113 53
0.261022 -0.218064 0.352595 161 113 53
0.215237 -0.223098 0.402561 169 127 55
0.230109 -0.217619 0.359292 23 19 7
0.247373 -0.183943 0.340452 23 19 7
0.229805 -0.183305 0.359623 25 20 8
0.242709 -0.217619 0.372581 161 113 53
0.259972 -0.183943 0.353741 161 113 53
0.248422 -0.218064 0.339306 27 22 8
-0.103326 -0.001993 -0.017004 161 113 53
-0.126311 -0.225412 0.086673 161 113 53
-0.103326 -0.225412 -0.017004 161 113 53
-0.126311 -0.001993 0.086673 161 113 53
-0.215874 -0.225412 0.143732 161 113 53
-0.215874 -0.001993 0.143732 161 113 53
-0.319552 -0.225412 0.120747 161 113 53
-0.319552 -0.001993 0.120747 161 113 53
-0.376610 -0.225412 0.031183 161 113 53
-0.353625 -0.225412 -0.072494 161 113 53
-0.264062 -0.001993 -0.129552 161 113 53
-0.264062 -0.225412 -0.129552 161 113 53
-0.160384 -0.001993 -0.106568 161 113 53
-0.143905 0.086348 -0.009849 161 113 53
-0.103326 -0.001993 -0.017004 161 114 53
-0.160384 -0.225412 -0.106568 161 113 53
-0.160064 0.086348 0.063039 161 113 53
-0.295917 0.086348 0.086994 161 113 53
-0.353625 -0.001993 -0.072494 161 113 53
-0.256906 0.086348 -0.088973 161 113 53
-0.336031 0.086348 0.024028 161 113 53
-0.376610 -0.001993 0.031183 161 113 53
-0.184019 0.086348 -0.072814 161 113 53
-0.223030 0.086348 0.103153 161 113 53
-0.319872 0.086348 -0.048860 161 113 53
-0.239968 0.145425 0.007090 161 113 53
-0.367957 -0.186256 -0.007847 161 113 53
-0.362329 -0.185619 -0.033233 161 113 53
-0.344870 -0.219933 -0.027586 23 19 7
-0.350401 -0.186256 -0.002638 23 19 7
-0.344773 -0.185619 -0.028024 25 20 8
-0.368294 -0.221233 -0.006330 161 113 53
-0.362427 -0.220789 -0.032794 161 113 53
-0.350737 -0.220378 -0.001121 27 22 8
0.260185 -0.222773 -0.415061 169 127 55
-0.256906 0.086348 -0.088973 162 114 53
3 0 1 2
3 3 4 1
3 5 6 4
3 7 8 6
3 9 10 11
3 12 13 14
3 10 15 11
3 12 2 15
3 16 17 18
3 0 19 3
3 5 20 7
3 21 22 10
3 7 23 24
3 10 18 12
3 5 19 25
3 24 26 21
3 25 17 20
3 13 17 19
3 26 17 22
3 19 17 25
3 27 24 28
3 29 30 31
3 32 29 33
3 33 31 28
3 27 31 30
3 32 30 34
3 35 36 37
3 38 39 36
3 40 41 39
3 42 37 41
3 39 37 36
3 38 42 40
3 43 44 45
3 46 47 44
3 48 49 47
3 41 45 49
3 37 50 51
3 52 53 50
3 54 55 53
3 56 51 55
3 57 58 59
3 60 61 58
3 39 62 61
3 63 59 62
3 64 65 66
3 36 67 65
3 68 69 67
3 70 66 69
3 71 72 73
3 74 75 72
3 76 77 75
3 78 79 77
3 80 81 82
3 83 84 85
3 81 86 82
3 83 73 86
3 87 88 89
3 71 90 74
3 76 91 78
3 92 93 81
3 78 94 95
3 81 89 83
3 74 96 76
3 92 94 97
3 94 88 97
3 96 88 91
3 84 88 90
3 90 88 96
3 98 95 92
3 99 100 79
3 101 102 103
3 99 101 104
3 104 103 98
3 105 103 102
3 99 102 106
3 107 108 109
3 110 111 108
3 112 113 111
3 114 115 113
3 116 117 118
3 119 120 121
3 117 122 118
3 119 109 122
3 107 123 110
3 112 124 114
3 125 126 117
3 114 127 128
3 119 126 129
3 110 130 112
3 125 127 131
3 127 132 131
3 130 132 124
3 120 132 123
3 129 132 120
3 124 132 127
3 123 132 130
3 133 128 134
3 135 136 137
3 138 135 139
3 139 137 134
3 133 137 136
3 138 136 140
3 0 3 1
3 3 5 4
3 5 7 6
3 7 24 8
3 8 27 32
3 9 21 10
3 12 18 13
3 10 12 15
3 12 0 2
3 0 13 19
3 5 25 20
3 21 26 22
3 7 20 23
3 10 22 18
3 5 3 19
3 24 23 26
3 26 23 17
3 13 18 17
3 23 20 17
3 21 9 28
3 27 8 24
3 21 28 24
3 9 141 33
3 33 28 9
3 32 33 141
3 29 34 30
3 32 34 29
3 33 29 31
3 27 28 31
3 32 27 30
3 35 38 36
3 38 40 39
3 40 42 41
3 42 35 37
3 39 41 37
3 38 35 42
3 43 46 44
3 46 48 47
3 48 41 49
3 41 43 45
3 37 52 50
3 52 54 53
3 54 56 55
3 56 37 51
3 57 60 58
3 60 39 61
3 39 63 62
3 63 57 59
3 64 36 65
3 36 68 67
3 68 70 69
3 70 64 66
3 71 74 72
3 74 76 75
3 76 78 77
3 78 95 79
3 79 105 99
3 80 92 81
3 83 89 84
3 81 83 86
3 83 71 73
3 71 84 90
3 76 96 91
3 92 97 93
3 78 91 94
3 81 93 89
3 74 90 96
3 92 95 94
3 84 89 88
3 93 97 88
3 94 91 88
3 92 80 98
3 98 105 95
3 79 95 105
3 104 98 80
3 99 104 100
3 101 106 102
3 99 106 101
3 104 101 103
3 105 98 103
3 99 105 102
3 107 110 108
3 110 112 111
3 112 114 113
3 114 128 115
3 115 133 138
3 116 125 117
3 119 129 120
3 117 119 122
3 119 107 109
3 129 142 132
3 107 120 123
3 112 130 124
3 125 131 126
3 114 124 127
3 119 117 126
3 110 123 130
3 125 128 127
3 126 131 132
3 125 116 134
3 133 115 128
3 125 134 128
3 139 134 116
3 135 140 136
3 138 140 135
3 139 135 137
3 133 134 137
3 138 133 136
