ply
format ascii 1.0
comment Created by Blender 2.82 (sub 7) - www.blender.org, source file: ''
element vertex 96
property float x
property float y
property float z
property float s
property float t
property uchar red
property uchar green
property uchar blue
property uchar alpha
element face 66
property list uchar uint vertex_indices
end_header
-0.500000 -0.500095 -0.500000 0.750000 0.250000 184 165 151 255
-0.500000 -0.460095 -0.500000 0.750000 0.250000 184 165 151 255
0.500000 -0.460095 -0.500000 0.750000 0.250000 184 165 151 255
0.500000 -0.500095 -0.500000 0.750000 0.250000 184 165 151 255
0.500000 -0.460095 0.500000 0.750000 0.250000 184 165 151 255
0.500000 -0.500095 0.500000 0.750000 0.250000 184 165 151 255
-0.500000 -0.460095 0.500000 0.750000 0.250000 184 165 151 255
-0.500000 -0.500095 0.500000 0.750000 0.250000 184 165 151 255
-0.346886 0.601346 -0.346886 0.750000 0.250000 150 149 151 255
-0.346886 1.295118 -0.346886 0.750000 0.250000 150 149 151 255
0.346886 1.295118 -0.346886 0.750000 0.250000 151 150 152 255
0.346886 0.601346 -0.346886 0.750000 0.250000 151 150 152 255
0.346886 1.295118 0.346886 0.750000 0.250000 150 149 151 255
0.346886 0.601346 0.346886 0.750000 0.250000 150 149 151 255
-0.346886 1.295118 0.346886 0.750000 0.250000 150 149 151 255
-0.346886 0.601346 0.346886 0.750000 0.250000 150 149 151 255
-0.149320 -0.031479 0.149320 0.750000 0.250000 150 149 151 255
0.149320 -0.031479 0.149320 0.750000 0.250000 150 149 151 255
0.157231 1.487979 0.157231 0.750000 0.250000 150 149 151 255
-0.157231 1.487979 0.157231 0.750000 0.250000 150 149 151 255
-0.218614 -0.034433 0.218614 0.750000 0.250000 163 132 111 255
0.218614 -0.034433 0.218614 0.750000 0.250000 163 132 111 255
-0.149320 -0.031479 -0.149320 0.750000 0.250000 150 149 151 255
0.149320 -0.031479 -0.149320 0.750000 0.250000 151 150 152 255
0.218614 -0.034433 -0.218614 0.750000 0.250000 163 132 111 255
0.218614 -0.462816 0.218614 0.750000 0.250000 163 132 111 255
0.218614 -0.462816 -0.218614 0.750000 0.250000 163 132 111 255
-0.218614 -0.034433 -0.218614 0.750000 0.250000 163 132 111 255
-0.218614 -0.462816 0.218614 0.750000 0.250000 158 124 103 255
-0.218614 -0.462816 -0.218614 0.750000 0.250000 163 132 111 255
-0.218614 -0.239327 -0.074063 0.750000 0.250000 163 132 111 255
-0.218614 -0.239327 0.074063 0.750000 0.250000 163 132 111 255
0.157231 1.487979 0.157231 0.750000 0.250000 150 149 151 255
-0.157231 1.487979 0.157231 0.750000 0.250000 150 149 151 255
-0.157231 1.487979 -0.157231 0.750000 0.250000 150 149 151 255
0.157231 1.487979 -0.157231 0.750000 0.250000 150 149 151 255
-0.157231 1.487979 0.157231 0.250000 0.750000 150 149 151 255
0.157231 1.487979 0.157231 0.250000 0.750000 150 149 151 255
0.209549 1.189133 0.209548 0.250000 0.750000 56 45 38 255
-0.209548 1.189133 0.209549 0.250000 0.750000 56 45 38 255
-0.157231 1.487979 -0.157231 0.750000 0.250000 150 149 151 255
0.157231 1.487979 -0.157231 0.750000 0.250000 150 149 151 255
0.209549 1.189133 -0.209549 0.250000 0.750000 56 45 38 255
-0.209548 1.189133 -0.209548 0.250000 0.750000 56 45 38 255
0.157231 1.487979 -0.157231 0.250000 0.750000 150 149 151 255
-0.157231 1.487979 -0.157231 0.250000 0.750000 150 149 151 255
-0.218614 -0.384456 -0.074063 0.750000 0.250000 163 132 111 255
-0.201890 -0.384456 -0.074063 0.750000 0.250000 56 45 38 255
-0.201890 -0.239327 -0.074063 0.750000 0.250000 56 45 38 255
-0.218614 -0.384456 0.074063 0.750000 0.250000 163 132 111 255
-0.201890 -0.384456 0.074063 0.750000 0.250000 56 45 38 255
-0.201890 -0.455240 0.146309 0.750000 0.250000 56 45 38 255
-0.201890 -0.455240 -0.146309 0.750000 0.250000 56 45 38 255
-0.201890 -0.239327 0.074063 0.750000 0.250000 56 45 38 255
-0.201890 -0.455240 0.146309 0.250000 0.750000 56 45 38 255
-0.201890 -0.168543 0.146309 0.250000 0.750000 63 53 47 255
0.088952 -0.168543 0.146309 0.250000 0.750000 56 45 38 255
0.088952 -0.455240 0.146309 0.250000 0.750000 56 45 38 255
-0.201890 -0.168543 0.146309 0.750000 0.250000 63 53 47 255
-0.201890 -0.168543 -0.146309 0.750000 0.250000 56 45 38 255
0.088952 -0.168543 -0.146309 0.250000 0.750000 56 45 38 255
0.088952 -0.455240 -0.146309 0.250000 0.750000 57 46 40 255
-0.201890 -0.168543 -0.146309 0.250000 0.750000 56 45 38 255
-0.201890 -0.455240 -0.146309 0.250000 0.750000 56 45 38 255
-0.343315 -0.482023 -0.341685 0.750000 0.250000 120 120 123 255
-0.343315 0.614745 -0.341685 0.750000 0.250000 119 119 122 255
-0.283315 0.614745 -0.341685 0.750000 0.250000 119 119 122 255
-0.283315 -0.482023 -0.341685 0.750000 0.250000 119 119 122 255
-0.283315 0.614745 -0.281685 0.750000 0.250000 119 119 122 255
-0.283315 -0.482023 -0.281685 0.750000 0.250000 119 119 122 255
-0.343315 0.614745 -0.281685 0.750000 0.250000 119 119 122 255
-0.343315 -0.482023 -0.281685 0.750000 0.250000 115 115 118 255
-0.343315 -0.482023 0.283315 0.750000 0.250000 119 119 122 255
-0.343315 0.614745 0.283315 0.750000 0.250000 119 119 122 255
-0.283315 0.614745 0.283315 0.750000 0.250000 119 119 122 255
-0.283315 -0.482023 0.283315 0.750000 0.250000 119 119 122 255
-0.283315 0.614745 0.343315 0.750000 0.250000 119 119 122 255
-0.283315 -0.482023 0.343315 0.750000 0.250000 119 119 122 255
-0.343315 0.614745 0.343315 0.750000 0.250000 120 120 123 255
-0.343315 -0.482023 0.343315 0.750000 0.250000 130 130 132 255
0.282541 -0.482023 -0.341685 0.750000 0.250000 119 119 122 255
0.282541 0.614745 -0.341685 0.750000 0.250000 119 119 122 255
0.342541 0.614745 -0.341685 0.750000 0.250000 120 120 123 255
0.342541 -0.482023 -0.341685 0.750000 0.250000 119 119 122 255
0.342541 0.614745 -0.281685 0.750000 0.250000 120 120 123 255
0.342541 -0.482023 -0.281685 0.750000 0.250000 119 119 122 255
0.282541 0.614745 -0.281685 0.750000 0.250000 119 119 122 255
0.282541 -0.482023 -0.281685 0.750000 0.250000 119 119 122 255
0.282541 -0.482023 0.283315 0.750000 0.250000 132 132 135 255
0.282541 0.614745 0.283315 0.750000 0.250000 121 121 124 255
0.342541 0.614745 0.283315 0.750000 0.250000 119 119 122 255
0.342541 -0.482023 0.283315 0.750000 0.250000 127 127 129 255
0.342541 0.614745 0.343315 0.750000 0.250000 120 120 123 255
0.342541 -0.482023 0.343315 0.750000 0.250000 119 119 122 255
0.282541 0.614745 0.343315 0.750000 0.250000 119 119 122 255
0.282541 -0.482023 0.343315 0.750000 0.250000 120 120 123 255
4 0 1 2 3
4 3 2 4 5
4 5 4 6 7
4 7 6 1 0
4 4 2 1 6
4 8 9 10 11
4 11 10 12 13
4 13 12 14 15
4 15 14 9 8
4 13 15 16 17
4 14 12 18 19
4 17 16 20 21
4 15 8 22 16
4 11 13 17 23
4 8 11 23 22
4 24 21 25 26
4 22 23 24 27
4 16 22 27 20
4 23 17 21 24
4 21 20 28 25
4 27 24 26 29
4 20 27 30 31
4 19 18 32 33
4 10 9 34 35
4 9 14 19 34
4 12 10 35 18
4 36 37 38 39
4 35 34 40 41
4 34 19 33 40
4 18 35 41 32
4 38 42 43 39
4 44 45 43 42
4 45 36 39 43
4 37 44 42 38
4 30 46 47 48
4 28 20 31 49
4 27 29 46 30
4 29 28 49 46
4 47 50 51 52
4 46 49 50 47
4 49 31 53 50
4 31 30 48 53
4 54 55 56 57
4 50 53 58 51
4 53 48 59 58
4 48 47 52 59
4 56 60 61 57
4 55 62 60 56
4 62 63 61 60
4 63 54 57 61
4 64 65 66 67
4 67 66 68 69
4 69 68 70 71
4 71 70 65 64
4 72 73 74 75
4 75 74 76 77
4 77 76 78 79
4 79 78 73 72
4 80 81 82 83
4 83 82 84 85
4 85 84 86 87
4 87 86 81 80
4 88 89 90 91
4 91 90 92 93
4 93 92 94 95
4 95 94 89 88
