ply
format ascii 1.0
comment Created in Blender version 4.2.3 LTS
element vertex 228
property float x
property float y
property float z
property uchar red
property uchar green
property uchar blue
property uchar alpha
element face 422
property list uchar uint vertex_indices
end_header
-0.5 -0.5 0.5 116 64 35 255
-0.5 -0.5 -0.5 117 65 35 255
0.5 -0.5 0.5 160 87 50 255
0.5 -0.5 -0.5 160 87 50 255
-0.41001698 -0.11422622 0.5 160 87 50 255
-0.5 -0.11422622 0.41001698 160 87 50 255
-0.5 -0.19307642 0.5 160 87 50 255
-0.5 -0.11422622 -0.41001698 160 87 50 255
-0.41001698 -0.11422622 -0.5 160 87 50 255
-0.5 -0.19307642 -0.5 160 87 50 255
0.5 -0.11422622 0.41001698 160 87 50 255
0.41001698 -0.11422622 0.5 160 87 50 255
0.5 -0.19307642 0.5 160 87 50 255
0.41001698 -0.11422622 -0.5 160 87 50 255
0.5 -0.11422622 -0.41001698 160 87 50 255
0.5 -0.19307642 -0.5 160 87 50 255
-0.17841294 0.21435858 -0.22312409 196 115 74 255
-0.14381222 0.21435858 -0.23729643 196 115 74 255
-0.1743303 0.2008694 -0.24808103 196 115 74 255
-0.23729645 0.21435858 -0.1438122 196 115 74 255
-0.22312412 0.21435858 -0.17841291 196 115 74 255
-0.24808104 0.2008694 -0.17433028 196 115 74 255
0.22312412 0.21435858 -0.17841291 196 115 74 255
0.23729645 0.21435858 -0.1438122 196 115 74 255
0.24808104 0.2008694 -0.17433028 196 115 74 255
0.14381221 0.21435858 -0.23729643 196 115 74 255
0.17841294 0.21435858 -0.22312409 196 115 74 255
0.1743303 0.2008694 -0.24808103 196 115 74 255
-0.2231241 0.21435858 0.17841297 196 115 74 255
-0.23729645 0.21435858 0.14381225 196 115 74 255
-0.24808104 0.2008694 0.17433032 196 115 74 255
-0.14381221 0.21435858 0.23729646 196 115 74 255
-0.17841294 0.21435858 0.22312413 196 115 74 255
-0.1743303 0.2008694 0.24808106 196 115 74 255
0.17841294 0.21435858 0.22312413 196 115 74 255
0.14381222 0.21435858 0.23729646 196 115 74 255
0.1743303 0.2008694 0.24808106 196 115 74 255
0.23729645 0.21435858 0.14381225 196 115 74 255
0.2231241 0.21435858 0.17841297 196 115 74 255
0.24808104 0.2008694 0.17433032 196 115 74 255
-0.10235959 0.58578706 0.11991046 155 90 59 255
-0.03483326 0.58578706 0.15558156 155 90 59 255
-0.15364757 0.58578706 0.02778366 155 90 59 255
-0.11991045 0.58578706 0.102359615 155 90 59 255
-0.11991045 0.58578706 -0.10235958 155 90 59 255
-0.15364757 0.58578706 -0.027783623 155 90 59 255
-0.02793629 0.58578706 -0.15217611 155 90 59 255
-0.10235959 0.58578706 -0.119910434 155 90 59 255
0.119910434 0.58578706 0.10235961 155 90 59 255
0.15445282 0.58578706 0.025601383 155 90 59 255
0.03483326 0.58578706 0.15558156 155 90 59 255
0.10235959 0.58578706 0.11991046 155 90 59 255
0.10235959 0.58578706 -0.119910434 155 90 59 255
0.027936293 0.58578706 -0.15217611 155 90 59 255
0.15445282 0.58578706 -0.025601339 155 90 59 255
0.11991045 0.58578706 -0.10235958 155 90 59 255
0.10235971 1.1801507 0.11991046 129 75 50 255
0.03483338 1.1801507 0.15558156 129 75 50 255
-0.03483314 1.1801507 0.15558156 129 75 50 255
-0.10235947 1.1801507 0.11991046 129 75 50 255
0.027936412 1.1801507 -0.15217611 129 75 50 255
0.10235971 1.1801507 -0.119910434 129 75 50 255
0.11991057 1.1801507 -0.10235958 129 75 50 255
0.15445293 1.1801507 -0.025601339 129 75 50 255
-0.11991033 1.1801507 0.102359615 129 75 50 255
-0.15364745 1.1801507 0.02778366 129 75 50 255
-0.15364745 1.1801507 -0.027783623 129 75 50 255
-0.11991033 1.1801507 -0.10235958 129 75 50 255
0.15445293 1.1801507 0.025601383 129 75 50 255
0.11991055 1.1801507 0.10235961 129 75 50 255
-0.10235947 1.1801507 -0.119910434 129 75 50 255
-0.02793617 1.1801507 -0.15217611 129 75 50 255
0.13306549 1.1934439 0.15578873 129 75 50 255
0.0452627 1.1934439 0.20217095 129 75 50 255
-0.045322914 1.1934439 0.20217095 129 75 50 255
-0.1331257 1.1934439 0.15578873 129 75 50 255
0.036294747 1.1934439 -0.19799858 129 75 50 255
0.13306549 1.1934439 -0.15604432 129 75 50 255
0.15588643 1.1934439 -0.13322338 129 75 50 255
0.20080099 1.1934439 -0.0334166 129 75 50 255
-0.15594663 1.1934439 0.1329678 129 75 50 255
-0.19981416 1.1934439 0.035998568 129 75 50 255
-0.19981416 1.1934439 -0.036254164 129 75 50 255
-0.15594663 1.1934439 -0.13322338 129 75 50 255
0.20080099 1.1934439 0.033161007 129 75 50 255
0.1558864 1.1934439 0.1329678 129 75 50 255
-0.1331257 1.1934439 -0.15604432 129 75 50 255
-0.03635496 1.1934439 -0.19799858 129 75 50 255
0.13306549 1.2371212 0.15578873 129 75 50 255
0.0452627 1.2371212 0.20217095 129 75 50 255
-0.045322914 1.2371212 0.20217095 129 75 50 255
-0.1331257 1.2371212 0.15578873 129 75 50 255
0.036294747 1.2371212 -0.19799858 129 75 50 255
0.13306549 1.2371212 -0.15604432 129 75 50 255
0.15588643 1.2371212 -0.13322338 129 75 50 255
0.20080099 1.2371212 -0.0334166 129 75 50 255
-0.15594663 1.2371212 0.1329678 129 75 50 255
-0.19981416 1.2371212 0.035998568 129 75 50 255
-0.19981416 1.2371212 -0.036254164 129 75 50 255
-0.15594663 1.2371212 -0.13322338 129 75 50 255
0.20080099 1.2371212 0.033161007 129 75 50 255
0.1558864 1.2371212 0.1329678 129 75 50 255
-0.1331257 1.2371212 -0.15604432 129 75 50 255
-0.03635496 1.2371212 -0.19799858 129 75 50 255
0.097645596 1.241737 0.114402264 91 53 34 255
0.033232212 1.241737 0.14842892 91 53 34 255
-0.033222698 1.241737 0.14842892 91 53 34 255
-0.09763609 1.241737 0.114402264 91 53 34 255
0.026653193 1.241737 -0.14514121 91 53 34 255
0.097645596 1.241737 -0.11436295 91 53 34 255
0.11438736 1.241737 -0.09762119 91 53 34 255
0.14733733 1.241737 -0.024401497 91 53 34 255
-0.11437784 1.241737 0.0976605 91 53 34 255
-0.1465597 1.241737 0.026522469 91 53 34 255
-0.1465597 1.241737 -0.026483174 91 53 34 255
-0.11437784 1.241737 -0.09762119 91 53 34 255
0.14733733 1.241737 0.024440791 91 53 34 255
0.11438735 1.241737 0.0976605 91 53 34 255
-0.09763609 1.241737 -0.11436295 91 53 34 255
-0.026643677 1.241737 -0.14514121 91 53 34 255
0.09764532 0.06012574 0.114402264 75 44 28 255
0.03323194 0.06012574 0.14842892 75 44 28 255
-0.03322297 0.06012574 0.14842892 75 44 28 255
-0.097636364 0.06012574 0.114402264 75 44 28 255
0.026652921 0.06012574 -0.14514121 75 44 28 255
0.09764532 0.06012574 -0.11436295 75 44 28 255
0.11438709 0.06012574 -0.09762119 75 44 28 255
0.14733706 0.06012574 -0.024401497 75 44 28 255
-0.11437812 0.06012574 0.0976605 75 44 28 255
-0.14655997 0.06012574 0.026522469 75 44 28 255
-0.14655997 0.06012574 -0.026483174 75 44 28 255
-0.11437812 0.06012574 -0.09762119 75 44 28 255
0.14733706 0.06012574 0.024440791 75 44 28 255
0.11438707 0.06012574 0.0976605 75 44 28 255
-0.097636364 0.06012574 -0.11436295 75 44 28 255
-0.026643949 0.06012574 -0.14514121 75 44 28 255
-0.5 -0.48132354 -0.12337102 83 45 25 255
-0.5 -0.48132354 0.12337102 77 43 23 255
-0.5 -0.29986796 0.10116844 83 45 25 255
-0.5 -0.32339516 0.12337102 88 49 26 255
-0.5 -0.32339516 -0.12337102 88 49 26 255
-0.5 -0.29986796 -0.10116844 77 43 23 255
0.29780903 -0.48132354 -0.12337102 52 28 17 255
0.29780903 -0.48132354 0.12337102 52 28 17 255
0.29780903 -0.29986796 0.10116844 52 28 17 255
0.29780903 -0.32339516 0.12337102 52 28 17 255
0.29780903 -0.32339516 -0.12337102 52 28 17 255
0.29780903 -0.29986796 -0.10116844 52 28 17 255
0.16616447 0.043899104 -0.40655985 137 69 43 255
0.16616447 0.063758284 -0.3901264 137 69 43 255
0.16616447 0.027465645 -0.3867007 137 69 43 255
0.16616447 0.04732482 -0.37026724 137 69 43 255
0.070967816 0.043899104 -0.40655985 137 69 43 255
0.070967816 0.063758284 -0.3901264 137 69 43 255
0.070967816 0.027465645 -0.3867007 139 75 52 255
0.070967816 0.04732482 -0.37026724 138 73 49 255
0.070967816 0.046571974 -0.37824303 161 126 117 255
0.070967816 0.035441436 -0.38745353 161 126 117 255
0.070967816 0.04465195 -0.39858407 161 125 116 255
0.070967816 0.05578249 -0.38937357 161 125 115 255
-0.15685937 0.0465265 -0.37872475 184 182 187 255
-0.15685937 0.035923183 -0.387499 184 182 187 255
-0.15685937 0.044697426 -0.39810234 184 182 187 255
-0.15685937 0.055300742 -0.3893281 184 182 187 255
-0.18042502 0.04588311 -0.38554096 184 182 187 255
-0.18042502 0.042739376 -0.3881424 184 182 187 255
-0.18042502 0.045340814 -0.39128613 184 182 187 255
-0.18042502 0.04848455 -0.3886847 184 182 187 255
0.00028978102 0.019630134 -0.38587296 111 110 113 255
0.00028978102 0.042956 -0.41471088 111 110 113 255
0.00028978102 0.04846805 -0.3625471 111 110 113 255
0.00028978102 0.071793914 -0.39138502 111 110 113 255
-0.021785459 0.019630134 -0.38587296 111 110 113 255
-0.021785459 0.042956 -0.41471088 111 110 113 255
-0.021785459 0.04846805 -0.3625471 111 110 113 255
-0.021785459 0.071793914 -0.39138502 111 110 113 255
0.012371294 0.067774124 0.33522728 111 110 113 255
0.012371294 0.1196306 0.3997644 111 110 113 255
0.012371294 0.019826412 0.373346 111 110 113 255
0.012371294 0.071682885 0.43788314 111 110 113 255
-0.024085026 0.067774124 0.33522728 111 110 113 255
-0.024085026 0.1196306 0.3997644 111 110 113 255
-0.024085026 0.019826412 0.373346 111 110 113 255
-0.024085026 0.071682885 0.43788314 111 110 113 255
0.00025464222 0.06594142 -0.3482796 111 110 113 255
0.00025464222 0.08926728 -0.3771175 111 110 113 255
0.00025464222 0.09477934 -0.32495373 111 110 113 255
0.00025464222 0.1181052 -0.35379165 111 110 113 255
-0.021820597 0.06594142 -0.3482796 111 110 113 255
-0.021820597 0.08926728 -0.3771175 111 110 113 255
-0.021820597 0.09477934 -0.32495373 111 110 113 255
-0.021820597 0.1181052 -0.35379165 111 110 113 255
0.1327145 0.09021039 -0.3689665 137 69 43 255
0.1327145 0.11006957 -0.35253304 137 69 43 255
0.1327145 0.07377693 -0.34910733 137 69 43 255
0.1327145 0.09363611 -0.33267388 137 69 43 255
0.03751784 0.09021039 -0.3689665 137 69 43 255
0.03751784 0.11006957 -0.35253304 137 69 43 255
0.03751784 0.07377693 -0.34910733 139 75 52 255
0.03751784 0.09363611 -0.33267388 138 73 49 255
0.03751784 0.09288326 -0.34064966 164 134 126 255
0.03751784 0.081752725 -0.34986016 161 126 117 255
0.03751784 0.090963244 -0.3609907 161 125 116 255
0.03751784 0.10209378 -0.3517802 156 115 100 255
-0.110534415 0.09283779 -0.3411314 184 182 187 255
-0.110534415 0.08223447 -0.34990564 184 182 187 255
-0.110534415 0.091008715 -0.36050898 184 182 187 255
-0.110534415 0.10161203 -0.35173473 184 182 187 255
-0.13410008 0.0921944 -0.3479476 184 182 187 255
-0.13410008 0.089050665 -0.35054904 184 182 187 255
-0.13410008 0.0916521 -0.35369277 184 182 187 255
-0.13410008 0.09479584 -0.35109133 184 182 187 255
0.04764592 0.04912334 0.3921253 178 138 112 255
0.04764592 0.0774589 0.36912978 174 144 127 255
0.04764592 0.07211886 0.42046088 177 141 119 255
0.04764592 0.10045443 0.39746535 177 141 119 255
-0.119161986 0.04912334 0.3921253 191 121 71 255
-0.119161986 0.0774589 0.36912978 191 121 71 255
-0.119161986 0.07211886 0.42046088 191 121 71 255
-0.119161986 0.10045443 0.39746535 191 121 71 255
0.04764592 0.05636128 0.4553151 163 161 166 255
0.04764592 0.0117719695 0.40037122 163 161 166 255
0.04764592 0.09667073 0.33147228 163 161 166 255
0.04764592 0.14126004 0.38641617 163 161 166 255
0.100293964 0.05636128 0.4553151 163 161 166 255
0.100293964 0.0117719695 0.40037122 163 161 166 255
0.100293964 0.09667073 0.33147228 163 161 166 255
0.100293964 0.14126004 0.38641617 163 161 166 255
3 9 13 3
3 25 46 53
3 23 49 37
3 0 3 2
3 31 50 41
3 1 140 9
3 29 45 19
3 15 10 2
3 38 51 34
3 4 5 6
3 7 8 9
3 10 11 12
3 13 14 15
3 11 35 33
3 8 17 27
3 52 62 55
3 14 23 39
3 12 4 0
3 24 13 26
3 26 55 22
3 39 34 11
3 18 7 20
3 32 43 28
3 33 28 5
3 5 29 21
3 16 17 18
3 19 20 21
3 22 23 24
3 25 26 27
3 28 29 30
3 31 32 33
3 34 35 36
3 37 38 39
3 51 35 34
3 40 31 41
3 25 52 26
3 23 55 54
3 43 29 28
3 44 19 45
3 37 48 38
3 17 47 46
3 20 47 16
3 61 76 77
3 43 65 42
3 47 71 46
3 53 61 52
3 45 67 44
3 46 60 53
3 50 58 41
3 51 57 50
3 54 62 63
3 54 68 49
3 48 56 51
3 44 70 47
3 41 59 40
3 42 66 45
3 40 64 43
3 49 69 48
3 86 103 87
3 66 81 82
3 62 79 63
3 61 78 62
3 64 81 65
3 63 84 68
3 67 82 83
3 64 75 80
3 69 84 85
3 58 73 74
3 70 87 71
3 57 72 73
3 69 72 56
3 70 83 86
3 58 75 59
3 71 76 60
3 100 111 116
3 72 89 73
3 85 88 72
3 83 102 86
3 74 91 75
3 87 92 76
3 76 93 77
3 81 98 82
3 78 95 79
3 77 94 78
3 80 97 81
3 79 100 84
3 82 99 83
3 75 96 80
3 84 101 85
3 73 90 74
3 108 125 109
3 98 115 99
3 91 112 96
3 100 117 101
3 89 106 90
3 103 118 119
3 88 105 89
3 88 117 104
3 99 118 102
3 91 106 107
3 92 119 108
3 92 109 93
3 97 114 98
3 95 110 111
3 94 109 110
3 97 112 113
3 132 124 130
3 113 130 114
3 110 127 111
3 109 126 110
3 112 129 113
3 111 132 116
3 114 131 115
3 107 128 112
3 116 133 117
3 105 122 106
3 118 135 119
3 104 121 105
3 117 120 104
3 115 134 118
3 106 123 107
3 108 135 124
3 138 145 139
3 7 140 141
3 0 139 137
3 0 136 1
3 7 138 5
3 5 139 6
3 145 147 142
3 141 144 138
3 140 147 141
3 137 142 136
3 136 146 140
3 139 143 137
3 148 151 150
3 151 154 150
3 153 156 155
3 153 148 152
3 154 148 150
3 151 153 155
3 158 163 159
3 155 157 154
3 152 159 153
3 154 158 152
3 163 166 167
3 157 162 158
3 159 160 156
3 156 161 157
3 164 166 165
3 161 166 162
3 163 164 160
3 160 165 161
3 169 170 168
3 171 174 170
3 175 172 174
3 173 168 172
3 171 173 175
3 176 179 178
3 179 182 178
3 183 180 182
3 181 176 180
3 179 181 183
3 185 186 184
3 187 190 186
3 191 188 190
3 189 184 188
3 187 189 191
3 192 195 194
3 195 198 194
3 197 200 199
3 197 192 196
3 198 192 194
3 195 197 199
3 202 207 203
3 199 201 198
3 196 203 197
3 198 202 196
3 206 211 207
3 201 206 202
3 200 207 204
3 200 205 201
3 208 210 209
3 205 210 206
3 207 208 204
3 204 209 205
3 215 222 213
3 215 218 214
3 219 216 218
3 217 212 216
3 218 212 214
3 215 217 219
3 220 227 223
3 212 220 214
3 215 220 223
3 213 221 212
3 226 224 225
3 222 225 221
3 223 226 222
3 221 224 220
3 3 1 9
3 9 8 13
3 13 15 3
3 25 17 46
3 23 54 49
3 0 1 3
3 31 35 50
3 1 136 140
3 29 42 45
3 2 3 15
3 15 14 10
3 10 12 2
3 38 48 51
3 33 4 11
3 11 36 35
3 35 31 33
3 27 13 8
3 8 18 17
3 17 25 27
3 52 61 62
3 39 10 14
3 14 24 23
3 23 37 39
3 0 2 12
3 12 11 4
3 4 6 0
3 26 22 24
3 24 14 13
3 13 27 26
3 26 52 55
3 11 10 39
3 39 38 34
3 34 36 11
3 20 16 18
3 18 8 7
3 7 21 20
3 32 40 43
3 5 4 33
3 33 32 28
3 28 30 5
3 21 7 5
3 5 30 29
3 29 19 21
3 51 50 35
3 40 32 31
3 25 53 52
3 23 22 55
3 43 42 29
3 44 20 19
3 37 49 48
3 17 16 47
3 20 44 47
3 61 60 76
3 43 64 65
3 47 70 71
3 53 60 61
3 45 66 67
3 46 71 60
3 50 57 58
3 51 56 57
3 54 55 62
3 54 63 68
3 48 69 56
3 44 67 70
3 41 58 59
3 42 65 66
3 40 59 64
3 49 68 69
3 86 102 103
3 66 65 81
3 62 78 79
3 61 77 78
3 64 80 81
3 63 79 84
3 67 66 82
3 64 59 75
3 69 68 84
3 58 57 73
3 70 86 87
3 57 56 72
3 69 85 72
3 70 67 83
3 58 74 75
3 71 87 76
3 100 95 111
3 72 88 89
3 85 101 88
3 83 99 102
3 74 90 91
3 87 103 92
3 76 92 93
3 81 97 98
3 78 94 95
3 77 93 94
3 80 96 97
3 79 95 100
3 82 98 99
3 75 91 96
3 84 100 101
3 73 89 90
3 108 124 125
3 98 114 115
3 91 107 112
3 100 116 117
3 89 105 106
3 103 102 118
3 88 104 105
3 88 101 117
3 99 115 118
3 91 90 106
3 92 103 119
3 92 108 109
3 97 113 114
3 95 94 110
3 94 93 109
3 97 96 112
3 130 129 128
3 128 123 122
3 122 121 120
3 120 133 132
3 132 127 126
3 126 125 124
3 124 135 134
3 134 131 130
3 130 128 122
3 122 120 132
3 132 126 124
3 124 134 130
3 130 122 132
3 113 129 130
3 110 126 127
3 109 125 126
3 112 128 129
3 111 127 132
3 114 130 131
3 107 123 128
3 116 132 133
3 105 121 122
3 118 134 135
3 104 120 121
3 117 133 120
3 115 131 134
3 106 122 123
3 108 119 135
3 138 144 145
3 7 9 140
3 0 6 139
3 0 137 136
3 7 141 138
3 5 138 139
3 142 143 145
3 145 144 147
3 147 146 142
3 141 147 144
3 140 146 147
3 137 143 142
3 136 142 146
3 139 145 143
3 148 149 151
3 151 155 154
3 153 159 156
3 153 149 148
3 154 152 148
3 151 149 153
3 158 162 163
3 155 156 157
3 152 158 159
3 154 157 158
3 163 162 166
3 157 161 162
3 159 163 160
3 156 160 161
3 164 167 166
3 161 165 166
3 163 167 164
3 160 164 165
3 169 171 170
3 171 175 174
3 175 173 172
3 173 169 168
3 171 169 173
3 176 177 179
3 179 183 182
3 183 181 180
3 181 177 176
3 179 177 181
3 185 187 186
3 187 191 190
3 191 189 188
3 189 185 184
3 187 185 189
3 192 193 195
3 195 199 198
3 197 203 200
3 197 193 192
3 198 196 192
3 195 193 197
3 202 206 207
3 199 200 201
3 196 202 203
3 198 201 202
3 206 210 211
3 201 205 206
3 200 203 207
3 200 204 205
3 208 211 210
3 205 209 210
3 207 211 208
3 204 208 209
3 215 223 222
3 215 219 218
3 219 217 216
3 217 213 212
3 218 216 212
3 215 213 217
3 220 224 227
3 212 221 220
3 215 214 220
3 213 222 221
3 226 227 224
3 222 226 225
3 223 227 226
3 221 225 224
