ply
format ascii 1.0
comment Created in Blender version 4.2.3 LTS
element vertex 72
property float x
property float y
property float z
property uchar red
property uchar green
property uchar blue
property uchar alpha
element face 140
property list uchar uint vertex_indices
end_header
-0.5 -0.5 0.5 67 63 71 255
-0.5 -0.5 -0.5 67 63 71 255
0.5 -0.5 0.5 67 63 71 255
0.5 -0.5 -0.5 67 63 71 255
-0.08108585 0.39603317 -0.08016575 103 98 97 255
0.079245634 0.39603317 -0.08016575 107 101 99 255
-0.08108585 0.39603317 0.08016574 107 101 99 255
0.079245634 0.39603317 0.08016574 106 100 98 255
-0.37648675 -0.36372957 0.49081233 67 63 71 255
-0.4906521 -0.36265457 0.37561008 67 63 71 255
-0.49945247 -0.470136 0.4996504 67 63 71 255
-0.4906521 -0.36225116 -0.37531096 67 63 71 255
-0.37609693 -0.36291015 -0.49051732 67 63 71 255
-0.49945247 -0.4696518 -0.4993309 67 63 71 255
0.4903812 -0.36579645 0.37807095 67 63 71 255
0.37624383 -0.36438632 0.49081233 67 63 71 255
0.49920666 -0.47092208 0.4996504 67 63 71 255
0.37585402 -0.36356616 -0.49051732 67 63 71 255
0.4903812 -0.36539042 -0.37777117 67 63 71 255
0.49920666 -0.47043788 -0.4993309 67 63 71 255
-0.3846343 0.36740527 -0.49899572 67 63 71 255
-0.49917474 0.36680323 -0.38377473 67 63 71 255
-0.46031865 0.4999757 -0.46012646 67 63 71 255
0.46010804 0.49962488 -0.46012646 67 63 71 255
0.4989892 0.36880678 -0.3862904 67 63 71 255
0.38442075 0.36711246 -0.49899572 67 63 71 255
-0.49917474 0.3668365 0.38387054 67 63 71 255
-0.38503298 0.3677809 0.49909568 67 63 71 255
-0.46031865 0.5000156 0.46020192 67 63 71 255
0.46010804 0.4996648 0.46020192 67 63 71 255
0.38481945 0.3674878 0.49909568 67 63 71 255
0.4989892 0.36884028 0.38638556 67 63 71 255
0.27859345 0.26502025 -0.47655833 107 101 99 255
-0.27881062 0.26524022 -0.47655836 107 101 99 255
-0.476775 0.26664537 -0.2800307 107 101 99 255
-0.476775 0.26667053 0.28015128 107 101 99 255
0.4766235 0.2685777 0.2826261 107 101 99 255
0.4766235 0.2685523 -0.2825062 107 101 99 255
-0.2801587 0.26645648 0.47671452 107 101 99 255
0.2799416 0.26623544 0.47671455 107 101 99 255
-0.46193767 -0.26213834 -0.2652379 107 101 99 255
-0.26404852 -0.2608631 -0.4618405 107 101 99 255
0.4616327 -0.26518098 -0.26758268 107 101 99 255
0.2638093 -0.261356 -0.4618405 107 101 99 255
0.2650859 -0.26301715 0.46207926 107 101 99 255
0.4616327 -0.26548883 0.26785773 107 101 99 255
-0.2653252 -0.26252186 0.46207926 107 101 99 255
-0.46193767 -0.26244348 0.26551226 107 101 99 255
-0.03772569 0.39603317 -0.036805596 86 81 85 255
0.03588548 0.39603317 -0.036805596 86 81 85 255
-0.03772569 0.39603317 0.036805574 86 81 85 255
0.03588548 0.39603317 0.036805574 86 81 85 255
-0.03772569 0.45162112 -0.036805596 67 63 71 255
0.03588548 0.45162112 -0.036805596 67 63 71 255
-0.03772569 0.45162112 0.036805574 67 63 71 255
0.03588548 0.45162112 0.036805574 67 63 71 255
-0.017579932 0.4512854 -0.016659835 108 66 64 255
0.015739717 0.4512854 -0.016659835 114 66 63 255
-0.017579932 0.4512854 0.016659813 101 66 65 255
0.015739717 0.4512854 0.016659813 108 66 64 255
-0.019059014 0.4578281 -0.016659832 148 69 57 255
0.0099713 0.4738388 -0.016659832 148 69 57 255
-0.019059014 0.4578281 0.016659817 148 69 57 255
0.0099713 0.4738388 0.016659817 148 69 57 255
-0.026649825 0.47804245 -0.022375725 148 69 57 255
-0.0031651629 0.49658927 -0.020851837 148 69 57 255
-0.02862918 0.4780731 0.016610766 148 69 57 255
-0.0051445174 0.49661997 0.018134654 148 69 57 255
-0.28004676 0.49941498 -0.28042015 67 63 71 255
0.2800147 0.49986595 0.27959746 67 63 71 255
0.27803373 0.50006324 -0.2787076 67 63 71 255
-0.2857681 0.5002476 0.28506714 67 63 71 255
3 19 14 2
3 30 38 39
3 8 38 27
3 0 3 2
3 12 43 17
3 10 11 1
3 29 71 28
3 23 68 70
3 13 17 3
3 14 36 31
3 7 50 6
3 22 71 68
3 23 69 29
3 8 9 10
3 11 12 13
3 14 15 16
3 17 18 19
3 20 21 22
3 23 24 25
3 26 27 28
3 29 30 31
3 23 20 22
3 28 21 26
3 29 24 23
3 29 27 30
3 11 20 12
3 24 17 25
3 30 14 31
3 27 9 8
3 16 8 0
3 41 32 43
3 42 36 45
3 46 39 38
3 40 35 34
3 9 35 47
3 11 34 21
3 18 45 14
3 25 33 20
3 12 33 41
3 8 44 46
3 18 37 42
3 26 34 35
3 17 32 25
3 11 47 40
3 15 39 44
3 31 37 24
3 49 55 51
3 6 48 4
3 5 51 7
3 4 49 5
3 53 59 55
3 48 53 49
3 51 54 50
3 50 52 48
3 57 63 59
3 52 57 53
3 55 58 54
3 52 58 56
3 61 67 63
3 57 60 61
3 59 62 58
3 58 60 56
3 66 65 64
3 61 64 65
3 63 66 62
3 60 66 64
3 69 6 71
3 68 6 4
3 68 5 70
3 70 7 69
3 2 3 19
3 19 18 14
3 14 16 2
3 30 27 38
3 8 46 38
3 0 1 3
3 12 41 43
3 1 0 10
3 10 9 11
3 11 13 1
3 29 69 71
3 23 22 68
3 3 1 13
3 13 12 17
3 17 19 3
3 14 45 36
3 7 51 50
3 22 28 71
3 23 70 69
3 23 25 20
3 28 22 21
3 29 31 24
3 29 28 27
3 11 21 20
3 24 18 17
3 30 15 14
3 27 26 9
3 0 2 16
3 16 15 8
3 8 10 0
3 41 33 32
3 42 37 36
3 46 44 39
3 40 47 35
3 9 26 35
3 11 40 34
3 18 42 45
3 25 32 33
3 12 20 33
3 8 15 44
3 18 24 37
3 26 21 34
3 17 43 32
3 11 9 47
3 15 30 39
3 31 36 37
3 49 53 55
3 6 50 48
3 5 49 51
3 4 48 49
3 53 57 59
3 48 52 53
3 51 55 54
3 50 54 52
3 57 61 63
3 52 56 57
3 55 59 58
3 52 54 58
3 61 65 67
3 57 56 60
3 59 63 62
3 58 62 60
3 66 67 65
3 61 60 64
3 63 67 66
3 60 62 66
3 69 7 6
3 68 71 6
3 68 4 5
3 70 5 7
