ply
format ascii 1.0
comment Created by Blender 2.82 (sub 7) - www.blender.org, source file: 'bookcase3.blend'
element vertex 151
property float x
property float y
property float z
property uchar red
property uchar green
property uchar blue
property uchar alpha
element face 85
property list uchar uint vertex_indices
end_header
0.497380 -0.500000 -0.500000 78 43 32 255
0.497380 0.500000 -0.500000 136 80 63 255
0.497380 0.500000 0.500000 133 75 56 255
0.497380 -0.500000 0.500000 78 43 32 255
-0.002620 0.500000 0.500000 133 75 56 255
-0.002620 -0.500000 0.500000 78 43 32 255
-0.002620 0.500000 -0.500000 133 75 56 255
-0.002620 0.478752 -0.478752 133 75 56 255
-0.002620 0.478752 0.478752 133 75 56 255
-0.002620 -0.500000 -0.500000 78 43 32 255
0.446851 0.478752 -0.478752 34 13 5 255
0.446851 0.478752 0.478752 34 13 5 255
-0.002620 -0.478752 0.478752 78 43 32 255
-0.002620 -0.478752 -0.478752 78 43 32 255
0.446851 -0.478752 0.478752 34 13 5 255
0.446851 -0.478752 -0.478752 34 13 5 255
0.482439 -0.203481 -0.490000 158 117 88 255
0.482439 -0.173481 -0.490000 166 133 109 255
0.482439 -0.173481 0.490000 158 117 88 255
0.482439 -0.203481 0.490000 159 118 90 255
0.042439 -0.173481 0.490000 158 117 88 255
0.042439 -0.203481 0.490000 164 127 103 255
0.042439 -0.173481 -0.490000 158 117 88 255
0.042439 -0.203481 -0.490000 158 117 88 255
0.482439 0.169900 -0.490000 158 117 88 255
0.482439 0.199900 -0.490000 158 117 88 255
0.482439 0.199900 0.490000 159 121 96 255
0.482439 0.169900 0.490000 162 124 98 255
0.042439 0.199900 0.490000 163 123 99 255
0.042439 0.169900 0.490000 158 117 88 255
0.042439 0.199900 -0.490000 158 117 88 255
0.042439 0.169900 -0.490000 159 118 90 255
0.373894 -0.172866 0.422395 121 42 42 255
0.373894 0.067134 0.422395 142 50 50 255
0.073894 0.067134 0.422395 143 50 50 255
0.073894 -0.172866 0.422395 121 42 42 255
0.073894 0.067134 0.182395 143 50 50 255
0.073894 -0.172866 0.182395 128 64 64 255
0.373894 0.067134 0.182395 122 42 42 255
0.373894 -0.172866 0.182395 128 61 61 255
0.366038 -0.173095 0.105039 108 78 58 255
0.366038 0.126905 0.105039 127 102 87 255
0.066038 0.126905 0.105039 127 102 87 255
0.066038 -0.173095 0.105039 105 73 51 255
0.066038 0.126905 0.005039 127 102 87 255
0.066038 -0.173095 0.005039 105 73 51 255
0.366038 0.126905 0.005039 127 102 87 255
0.366038 -0.173095 0.005039 105 73 51 255
0.410331 -0.478854 -0.142854 86 109 64 255
0.410331 -0.238854 -0.142854 101 127 75 255
0.110331 -0.238854 -0.142854 101 127 75 255
0.110331 -0.478854 -0.142854 86 109 64 255
0.110331 -0.238854 -0.342854 105 130 80 255
0.110331 -0.478854 -0.342854 86 109 64 255
0.410331 -0.238854 -0.342854 101 127 75 255
0.410331 -0.478854 -0.342854 86 109 64 255
0.394763 -0.478387 0.326198 141 92 37 255
0.394763 -0.238387 0.326198 141 111 36 255
0.094763 -0.238387 0.326198 141 111 36 255
0.094763 -0.478387 0.326198 141 92 37 255
0.094763 -0.238387 0.266198 141 111 36 255
0.094763 -0.478387 0.266198 141 92 37 255
0.394763 -0.238387 0.266198 141 111 37 255
0.394763 -0.478387 0.266198 141 92 37 255
0.405847 0.200694 0.403420 126 71 53 255
0.405847 0.400694 0.403420 144 82 62 255
0.105847 0.400694 0.403420 144 81 61 255
0.105847 0.200694 0.403420 126 71 53 255
0.105847 0.400694 0.323420 144 81 61 255
0.105847 0.200694 0.323420 126 71 53 255
0.405847 0.400694 0.323420 149 90 73 255
0.405847 0.200694 0.323420 129 77 61 255
0.394763 0.200630 -0.251751 129 74 56 255
0.394763 0.440630 -0.251751 144 81 61 255
0.094763 0.440630 -0.251751 144 81 61 255
0.094763 0.200630 -0.251751 90 57 45 255
0.094763 0.440630 -0.351751 144 81 61 255
0.094763 0.200630 -0.351751 93 56 43 255
0.394763 0.440630 -0.351751 152 98 83 255
0.394763 0.200630 -0.351751 129 73 54 255
0.394763 -0.172962 -0.229031 105 73 51 255
0.394763 0.067038 -0.229031 128 104 89 255
0.094763 0.067038 -0.229031 127 102 87 255
0.094763 -0.172962 -0.229031 106 74 53 255
0.094763 0.067038 -0.329031 127 102 87 255
0.094763 -0.172962 -0.329031 105 73 51 255
0.394763 0.067038 -0.329031 127 102 87 255
0.394763 -0.172962 -0.329031 105 73 51 255
0.394763 0.200630 0.153301 91 112 71 255
0.394763 0.440630 0.153301 100 126 74 255
0.094763 0.440630 0.153301 100 126 74 255
0.094763 0.200630 0.153301 88 111 67 255
0.094763 0.440630 0.053301 101 127 75 255
0.094763 0.200630 0.053301 86 109 64 255
0.394763 0.440630 0.053301 102 127 77 255
0.394763 0.200630 0.053301 86 109 64 255
0.374068 0.190694 -0.084914 129 45 45 255
0.374068 0.410694 -0.084914 143 50 50 255
0.074068 0.410694 -0.084914 143 50 50 255
0.074068 0.190694 -0.084914 129 45 45 255
0.074068 0.410694 -0.144914 143 50 50 255
0.074068 0.190694 -0.144914 129 46 46 255
0.374068 0.410694 -0.144914 150 72 72 255
0.374068 0.190694 -0.144914 129 45 45 255
0.238343 -0.327771 0.159693 201 188 142 255
0.259520 -0.327771 -0.008983 201 188 142 255
0.140455 -0.327771 -0.023932 201 188 142 255
0.119277 -0.327771 0.144744 201 188 142 255
0.140455 -0.357771 -0.023932 201 188 142 255
0.119277 -0.357771 0.144744 201 188 142 255
0.238343 -0.357771 0.159693 201 188 142 255
0.259520 -0.357771 -0.008983 201 188 142 255
0.327878 0.221120 0.283920 65 72 114 255
0.327878 0.414048 0.231206 65 72 114 255
0.127878 0.414048 0.231206 65 72 114 255
0.127878 0.221120 0.283920 65 72 114 255
0.127878 0.392962 0.154035 63 70 111 255
0.127878 0.200034 0.206749 65 72 114 255
0.327878 0.392962 0.154035 65 72 114 255
0.327878 0.200034 0.206749 64 71 112 255
0.069854 -0.173469 0.005940 96 114 26 255
0.069854 0.066531 0.005940 96 114 26 255
0.069854 0.066531 -0.075788 96 114 26 255
0.069854 -0.173469 -0.075788 96 114 26 255
0.256331 0.066531 -0.075788 96 114 26 255
0.256331 -0.173469 -0.075788 96 114 26 255
0.256331 0.066531 0.005940 96 114 26 255
0.276259 -0.178450 -0.094076 114 30 46 255
0.276259 0.000353 -0.073351 114 30 46 255
0.076259 0.000353 -0.073351 114 30 46 255
0.076259 -0.178450 -0.094076 114 30 46 255
0.076259 0.007262 -0.132951 114 30 46 255
0.076259 -0.171541 -0.153677 114 30 46 255
0.276259 0.007262 -0.132951 114 30 46 255
0.276259 -0.171541 -0.153677 114 30 46 255
0.275001 -0.398258 0.204818 88 67 32 255
0.275001 -0.398258 -0.075182 88 67 34 255
0.075001 -0.398258 -0.075182 88 67 32 255
0.075001 -0.398258 0.204818 88 67 32 255
0.075001 -0.478258 -0.075182 88 67 33 255
0.075001 -0.478258 0.204818 88 67 32 255
0.275001 -0.478258 0.204818 87 68 41 255
0.275001 -0.478258 -0.075182 88 67 32 255
0.252405 -0.357442 0.155558 88 37 28 255
0.226502 -0.357442 -0.042758 88 37 28 255
0.097597 -0.357442 -0.025921 88 37 28 255
0.123500 -0.357442 0.172394 88 37 28 255
0.097597 -0.397442 -0.025921 88 37 28 255
0.123500 -0.397442 0.172394 88 37 28 255
0.252405 -0.397442 0.155558 88 37 28 255
0.226502 -0.397442 -0.042758 88 37 28 255
4 0 1 2 3
4 3 2 4 5
4 4 6 7 8
4 9 6 1 0
4 3 5 9 0
4 4 2 1 6
4 8 7 10 11
4 5 4 8 12
4 6 9 13 7
4 9 5 12 13
4 14 11 10 15
4 12 8 11 14
4 7 13 15 10
4 13 12 14 15
4 16 17 18 19
4 19 18 20 21
4 21 20 22 23
4 23 22 17 16
4 19 21 23 16
4 20 18 17 22
4 24 25 26 27
4 27 26 28 29
4 29 28 30 31
4 31 30 25 24
4 27 29 31 24
4 28 26 25 30
4 32 33 34 35
4 35 34 36 37
4 37 36 38 39
4 34 33 38 36
4 40 41 42 43
4 43 42 44 45
4 45 44 46 47
4 42 41 46 44
4 48 49 50 51
4 51 50 52 53
4 53 52 54 55
4 50 49 54 52
4 56 57 58 59
4 59 58 60 61
4 61 60 62 63
4 58 57 62 60
4 64 65 66 67
4 67 66 68 69
4 69 68 70 71
4 66 65 70 68
4 72 73 74 75
4 75 74 76 77
4 77 76 78 79
4 74 73 78 76
4 80 81 82 83
4 83 82 84 85
4 85 84 86 87
4 82 81 86 84
4 88 89 90 91
4 91 90 92 93
4 93 92 94 95
4 90 89 94 92
4 96 97 98 99
4 99 98 100 101
4 101 100 102 103
4 98 97 102 100
4 104 105 106 107
4 107 106 108 109
4 104 107 109 110
4 106 105 111 108
4 112 113 114 115
4 115 114 116 117
4 117 116 118 119
4 114 113 118 116
4 120 121 122 123
4 123 122 124 125
4 121 126 124 122
4 127 128 129 130
4 130 129 131 132
4 132 131 133 134
4 129 128 133 131
4 135 136 137 138
4 138 137 139 140
4 135 138 140 141
4 137 136 142 139
4 143 144 145 146
4 146 145 147 148
4 143 146 148 149
4 145 144 150 147
