ply
format ascii 1.0
comment Created by Blender 2.82 (sub 7) - www.blender.org, source file: 'bookcase0.blend'
element vertex 48
property float x
property float y
property float z
property uchar red
property uchar green
property uchar blue
property uchar alpha
element face 34
property list uchar uint vertex_indices
end_header
0.497380 -0.500000 -0.500000 78 43 32 255
0.497380 0.500000 -0.500000 136 80 63 255
0.497380 0.500000 0.500000 133 75 56 255
0.497380 -0.500000 0.500000 78 43 32 255
-0.002620 0.500000 0.500000 133 75 56 255
-0.002620 -0.500000 0.500000 78 43 32 255
-0.002620 0.500000 -0.500000 133 75 56 255
-0.002620 0.478752 -0.478752 133 75 56 255
-0.002620 0.478752 0.478752 133 75 56 255
-0.002620 -0.500000 -0.500000 78 43 32 255
0.446851 0.478752 -0.478752 34 13 5 255
0.446851 0.478752 0.478752 34 13 5 255
-0.002620 -0.478752 0.478752 78 43 32 255
-0.002620 -0.478752 -0.478752 78 43 32 255
0.446851 -0.478752 0.478752 34 13 5 255
0.446851 -0.478752 -0.478752 34 13 5 255
0.482439 -0.203481 -0.490000 158 117 88 255
0.482439 -0.173481 -0.490000 166 133 109 255
0.482439 -0.173481 0.490000 158 117 88 255
0.482439 -0.203481 0.490000 159 118 90 255
0.042439 -0.173481 0.490000 158 117 88 255
0.042439 -0.203481 0.490000 164 127 103 255
0.042439 -0.173481 -0.490000 158 117 88 255
0.042439 -0.203481 -0.490000 158 117 88 255
0.482439 0.169900 -0.490000 158 117 88 255
0.482439 0.199900 -0.490000 158 117 88 255
0.482439 0.199900 0.490000 159 121 96 255
0.482439 0.169900 0.490000 162 124 98 255
0.042439 0.199900 0.490000 163 123 99 255
0.042439 0.169900 0.490000 158 117 88 255
0.042439 0.199900 -0.490000 158 117 88 255
0.042439 0.169900 -0.490000 159 118 90 255
0.405847 0.200694 0.403420 126 71 53 255
0.405847 0.400694 0.403420 144 82 62 255
0.105847 0.400694 0.403420 144 81 61 255
0.105847 0.200694 0.403420 126 71 53 255
0.105847 0.400694 0.323420 144 81 61 255
0.105847 0.200694 0.323420 126 71 53 255
0.405847 0.400694 0.323420 149 90 73 255
0.405847 0.200694 0.323420 129 77 61 255
0.394763 0.200630 -0.251751 129 74 56 255
0.394763 0.440630 -0.251751 144 81 61 255
0.094763 0.440630 -0.251751 144 81 61 255
0.094763 0.200630 -0.251751 90 57 45 255
0.094763 0.440630 -0.351751 144 81 61 255
0.094763 0.200630 -0.351751 93 56 43 255
0.394763 0.440630 -0.351751 152 98 83 255
0.394763 0.200630 -0.351751 129 73 54 255
4 0 1 2 3
4 3 2 4 5
4 4 6 7 8
4 9 6 1 0
4 3 5 9 0
4 4 2 1 6
4 8 7 10 11
4 5 4 8 12
4 6 9 13 7
4 9 5 12 13
4 14 11 10 15
4 12 8 11 14
4 7 13 15 10
4 13 12 14 15
4 16 17 18 19
4 19 18 20 21
4 21 20 22 23
4 23 22 17 16
4 19 21 23 16
4 20 18 17 22
4 24 25 26 27
4 27 26 28 29
4 29 28 30 31
4 31 30 25 24
4 27 29 31 24
4 28 26 25 30
4 32 33 34 35
4 35 34 36 37
4 37 36 38 39
4 34 33 38 36
4 40 41 42 43
4 43 42 44 45
4 45 44 46 47
4 42 41 46 44
