ply
format ascii 1.0
comment Created by Blender 2.82 (sub 7) - www.blender.org, source file: 'bronzelockbox.blend'
element vertex 67
property float x
property float y
property float z
property uchar red
property uchar green
property uchar blue
property uchar alpha
element face 54
property list uchar uint vertex_indices
end_header
-0.450000 0.450000 -0.500000 136 83 46 255
0.450000 0.450000 -0.500000 136 83 46 255
0.359361 0.359361 -0.500000 136 83 46 255
-0.359361 0.359361 -0.500000 136 83 46 255
-0.500000 -0.450000 0.450000 114 70 38 255
-0.500000 0.450000 0.450000 136 83 46 255
-0.500000 0.450000 -0.450000 136 83 46 255
-0.500000 -0.450000 -0.450000 114 70 39 255
-0.450000 0.500000 0.450000 136 83 46 255
0.450000 0.500000 0.450000 136 83 46 255
0.450000 0.500000 -0.450000 136 83 46 255
-0.450000 0.500000 -0.450000 136 83 46 255
0.500000 -0.450000 -0.450000 114 70 38 255
0.500000 0.450000 -0.450000 136 83 46 255
0.500000 0.450000 0.450000 136 83 46 255
0.500000 -0.450000 0.450000 114 70 38 255
0.450000 -0.450000 0.500000 114 70 38 255
0.450000 0.450000 0.500000 136 83 46 255
-0.450000 0.450000 0.500000 136 83 46 255
-0.450000 -0.450000 0.500000 114 70 38 255
0.450000 -0.500000 -0.450000 114 70 38 255
0.450000 -0.450000 -0.500000 114 70 38 255
0.450000 -0.500000 0.450000 114 70 38 255
-0.450000 -0.500000 -0.450000 114 70 38 255
-0.450000 -0.450000 -0.500000 114 70 38 255
-0.450000 -0.500000 0.450000 114 70 38 255
-0.359361 -0.359361 -0.500000 114 70 38 255
-0.333187 0.333187 -0.408121 151 103 63 255
-0.333187 -0.333187 -0.408121 151 103 63 255
0.359361 -0.359361 -0.500000 114 70 38 255
0.333187 0.333187 -0.408121 151 103 63 255
0.333187 -0.333187 -0.408121 151 103 63 255
0.059734 0.007427 -0.490133 138 127 114 255
-0.007428 0.059734 -0.490133 136 125 112 255
-0.007428 0.059734 -0.389729 177 163 147 255
0.059734 0.007427 -0.389729 175 161 145 255
0.007428 -0.059734 -0.389729 182 169 155 255
-0.059734 -0.007427 -0.389729 175 161 145 255
-0.059734 -0.007427 -0.490133 135 125 112 255
0.007428 -0.059734 -0.490133 134 124 111 255
-0.003082 0.018773 -0.478502 177 164 148 255
-0.169109 0.148538 -0.478502 148 138 125 255
-0.169109 0.148538 -0.451941 148 138 125 255
-0.003082 0.018773 -0.451941 178 165 149 255
0.001874 -0.018092 -0.451941 177 163 147 255
-0.185430 0.127582 -0.451941 134 124 111 255
-0.185430 0.127582 -0.478502 134 124 111 255
0.001874 -0.018092 -0.478502 175 161 145 255
0.186811 -0.128658 -0.478502 134 124 111 255
-0.003082 0.018773 -0.478502 175 161 145 255
-0.003082 0.018773 -0.451941 175 161 145 255
0.186811 -0.128658 -0.451941 134 124 111 255
0.170491 -0.149614 -0.451941 134 124 111 255
0.001874 -0.018092 -0.451941 175 161 145 255
0.170491 -0.149614 -0.478502 134 124 111 255
-0.149833 -0.169654 -0.478502 134 124 111 255
-0.149833 -0.169654 -0.451941 134 124 111 255
-0.128877 -0.185975 -0.451941 134 124 111 255
-0.128877 -0.185975 -0.478502 134 124 111 255
0.001874 -0.018092 -0.478502 175 162 146 255
0.127033 0.185840 -0.478502 134 124 111 255
-0.003082 0.018773 -0.478502 176 162 146 255
-0.003082 0.018773 -0.451941 182 170 156 255
0.127033 0.185840 -0.451941 135 125 112 255
0.147988 0.169520 -0.451941 134 124 111 255
0.001874 -0.018092 -0.451941 186 175 162 255
0.147988 0.169520 -0.478502 137 127 114 255
4 0 1 2 3
4 4 5 6 7
4 8 9 10 11
4 12 13 14 15
4 16 17 18 19
3 20 21 12
3 1 10 13
3 22 15 16
3 9 17 14
3 23 7 24
3 11 0 6
3 25 19 4
3 8 5 18
4 22 20 12 15
4 21 1 13 12
4 10 9 14 13
4 17 16 15 14
4 25 22 16 19
4 9 8 18 17
4 5 4 19 18
4 23 25 4 7
4 8 11 6 5
4 0 24 7 6
4 20 23 24 21
4 11 10 1 0
4 26 3 27 28
4 21 24 26 29
4 1 21 29 2
4 24 0 3 26
4 28 27 30 31
4 29 26 28 31
4 2 29 31 30
4 3 2 30 27
4 32 33 34 35
4 36 37 38 39
4 39 38 33 32
4 35 36 39 32
4 37 34 33 38
4 40 41 42 43
4 44 45 46 47
4 47 46 41 40
4 45 42 41 46
4 48 49 50 51
4 52 53 47 54
4 54 47 49 48
4 51 52 54 48
4 49 55 56 50
4 53 57 58 59
4 59 58 55 49
4 57 56 55 58
4 60 61 62 63
4 64 65 47 66
4 66 47 61 60
4 63 64 66 60
