ply
format ascii 1.0
comment Created by Blender 2.78 (sub 0) - www.blender.org, source file: 'bronzeanvil.blend'
element vertex 116
property float x
property float y
property float z
property uchar red
property uchar green
property uchar blue
element face 134
property list uchar uint vertex_indices
end_header
0.000000 -0.033583 0.459919 54 27 5
-0.258626 -0.500000 0.375886 54 27 5
0.000000 -0.500000 0.459919 54 27 5
-0.258626 -0.033583 0.375886 54 27 5
-0.418465 -0.500000 0.155886 54 27 5
-0.418465 -0.033583 0.155886 54 27 5
-0.418465 -0.500000 -0.116049 54 27 5
-0.418465 -0.033583 -0.116049 54 27 5
-0.258626 -0.500000 -0.336049 54 27 5
-0.258626 -0.033583 -0.336049 54 27 5
0.000000 -0.500000 -0.420081 54 27 5
0.000000 -0.033583 -0.420081 62 34 8
0.258626 -0.500000 -0.336049 54 27 5
0.258626 -0.033583 -0.336049 68 39 12
0.418465 -0.500000 -0.116049 54 27 5
0.418465 -0.033583 -0.116049 54 27 5
0.418465 -0.500000 0.155886 54 27 5
0.258626 -0.033583 -0.336049 83 46 21
0.379181 -0.033583 -0.103285 115 79 31
0.418465 -0.033583 -0.116049 74 36 19
0.418465 -0.033583 0.155886 59 31 7
0.258625 -0.500000 0.375886 54 27 5
0.258625 -0.033583 0.375886 54 27 5
0.234347 -0.033583 -0.302632 115 79 31
-0.234347 -0.033583 -0.302632 115 79 31
-0.379181 -0.033583 0.143122 115 79 31
0.258626 -0.033583 -0.336049 69 39 12
-0.258626 -0.033583 -0.336049 75 37 19
0.000000 -0.033583 -0.378775 115 79 31
0.000000 -0.033583 -0.420081 79 42 21
-0.418465 -0.033583 -0.116049 76 39 20
0.000000 -0.033583 0.459919 74 36 19
-0.234347 -0.033583 0.342469 121 88 40
-0.258626 -0.033583 0.375886 57 30 2
-0.418465 -0.033583 0.155886 74 36 19
-0.379181 -0.033583 -0.103284 115 80 32
0.258625 -0.033583 0.375886 74 36 19
-0.000000 -0.033583 0.418613 116 80 32
0.418465 -0.033583 0.155886 77 39 20
0.234346 -0.033583 0.342469 115 79 31
0.379181 -0.033583 0.143122 115 79 31
-0.230361 -0.033259 0.327862 84 41 22
-0.230361 0.043006 0.294466 84 41 22
-0.230361 -0.033259 0.293835 84 41 22
0.207629 -0.033259 -0.289738 84 41 22
0.207629 0.043006 -0.220514 84 41 22
0.207629 -0.033259 -0.220055 84 41 22
-0.234244 -0.033259 -0.224516 84 41 22
-0.234243 0.043006 -0.289739 84 41 22
-0.234244 -0.033259 -0.289738 84 41 22
-0.131793 0.043006 0.195557 84 41 22
-0.131793 -0.033259 0.193284 84 41 22
0.212948 -0.033259 0.293244 84 41 22
0.212948 0.043006 0.327862 84 41 22
0.212948 -0.033259 0.327862 84 41 22
0.120575 0.043006 -0.150817 84 41 22
0.120575 -0.033259 -0.149862 84 41 22
-0.131793 -0.033259 -0.149128 84 41 22
-0.234243 0.043006 -0.223593 84 41 22
-0.131793 0.043006 -0.148860 84 41 22
0.120575 -0.033259 0.208524 84 41 22
0.212948 0.043006 0.291828 84 41 22
0.120575 0.043006 0.208237 84 41 22
-0.230361 0.043006 0.327862 84 41 22
-0.080785 0.242170 0.156935 84 41 22
0.207629 0.043006 -0.289738 84 41 22
-0.080785 0.242170 -0.102578 85 41 22
0.073927 0.242170 -0.100237 87 41 22
0.073927 0.327602 -0.106520 105 51 28
0.073927 0.242170 0.155115 84 41 22
0.073927 0.376542 0.184868 105 51 28
-0.080785 0.376542 0.186688 105 51 28
0.073927 0.327602 -0.106520 104 50 27
0.073927 0.242170 -0.100237 84 41 22
-0.080785 0.330513 -0.109641 104 50 27
0.063856 0.344356 -0.223039 105 51 28
0.073927 0.414323 0.412766 91 44 24
-0.080785 0.414323 0.414587 105 51 28
-0.080785 0.475479 -0.139169 120 58 32
0.073927 0.498358 -0.136828 120 58 32
0.073927 0.475479 -0.136828 120 58 32
0.063856 0.393785 -0.254062 105 51 28
0.073927 0.414323 0.412766 105 51 28
-0.080785 0.496284 0.414587 105 51 28
-0.080785 0.330513 -0.109641 105 51 28
-0.080785 0.475479 -0.139169 105 51 28
-0.070150 0.393785 -0.256403 105 51 28
-0.017864 0.455099 -0.466086 120 58 32
-0.070150 0.347268 -0.226161 105 51 28
0.063856 0.475479 -0.254062 120 58 32
-0.070150 0.475479 -0.256403 120 58 32
0.073927 0.475479 -0.136828 105 51 28
0.063856 0.475479 -0.254062 128 62 34
-0.017864 0.455099 -0.466086 105 51 28
0.018287 0.473684 -0.464815 125 61 33
0.018287 0.455101 -0.462964 112 54 29
0.018287 0.455101 -0.462964 117 57 31
0.018287 0.473684 -0.464815 119 57 32
0.018287 0.455101 -0.462964 105 51 28
-0.070150 0.475479 -0.256403 105 51 28
-0.017864 0.473684 -0.467156 120 58 32
0.018287 0.473684 -0.464815 120 58 32
-0.080785 0.496284 0.414587 120 58 32
-0.080785 0.498358 -0.139169 120 58 32
-0.080785 0.498358 -0.139169 105 51 28
-0.080785 0.242170 -0.102578 84 41 22
0.073927 0.376542 0.184868 104 50 28
0.073927 0.496284 0.412766 105 51 28
0.073927 0.496284 0.412766 108 52 28
0.018287 0.455101 -0.462964 115 56 31
-0.017864 0.473684 -0.467156 105 51 28
0.073927 0.496284 0.412766 120 58 32
0.073927 0.498358 -0.136828 105 51 28
0.073927 0.496284 0.412766 127 61 34
0.000000 -0.033583 -0.420081 54 27 5
0.418465 -0.033583 0.155886 59 31 6
3 0 1 2
3 3 4 1
3 5 6 4
3 7 8 6
3 9 10 8
3 11 12 10
3 13 14 12
3 15 16 14
3 17 18 19
3 20 21 16
3 22 2 21
3 23 24 25
3 11 23 26
3 27 28 29
3 30 24 27
3 31 32 33
3 34 35 30
3 33 25 34
3 36 37 31
3 38 39 36
3 19 40 38
3 41 42 43
3 44 45 46
3 47 48 49
3 43 50 51
3 52 53 54
3 46 55 56
3 57 58 47
3 50 59 51
3 60 61 52
3 55 62 56
3 63 62 50
3 53 61 62
3 48 58 59
3 62 64 50
3 59 65 48
3 66 55 59
3 67 68 69
3 64 70 71
3 66 72 73
3 74 75 72
3 71 76 77
3 78 79 80
3 68 75 81
3 82 83 77
3 84 83 85
3 86 87 88
3 78 89 90
3 85 86 84
3 91 81 92
3 71 77 83
3 93 94 95
3 81 96 97
3 88 98 75
3 99 100 86
3 90 101 100
3 102 79 103
3 85 83 104
3 63 50 42
3 41 63 42
3 44 49 48
3 48 65 44
3 44 65 45
3 41 54 63
3 53 63 54
3 47 58 48
3 43 42 50
3 52 61 53
3 46 45 55
3 57 59 58
3 57 51 59
3 50 64 105
3 105 59 50
3 60 62 61
3 60 56 62
3 55 67 69
3 69 62 55
3 63 53 62
3 65 55 45
3 62 69 64
3 59 55 65
3 74 105 64
3 64 71 74
3 66 73 55
3 70 69 68
3 106 68 107
3 64 69 70
3 66 84 72
3 68 91 108
3 74 88 75
3 71 106 76
3 78 103 79
3 106 107 76
3 82 107 83
3 78 80 89
3 81 75 109
3 86 100 87
3 85 99 86
3 91 68 81
3 84 86 88
3 93 110 94
3 92 81 97
3 88 93 98
3 90 89 101
3 102 111 79
3 91 112 113
3 71 83 74
3 0 3 1
3 3 5 4
3 5 7 6
3 7 9 8
3 9 114 10
3 11 13 12
3 13 15 14
3 15 115 16
3 17 23 18
3 20 22 21
3 22 0 2
3 25 32 37
3 37 39 40
3 40 18 23
3 23 28 24
3 24 35 25
3 25 37 40
3 40 23 25
3 11 28 23
3 27 24 28
3 30 35 24
3 31 37 32
3 34 25 35
3 33 32 25
3 36 39 37
3 38 40 39
3 19 18 40
