ply
format ascii 1.0
comment Created by Blender 2.78 (sub 0) - www.blender.org, source file: 'cabbagejustplanted.blend'
element vertex 24
property float x
property float y
property float z
property uchar red
property uchar green
property uchar blue
element face 15
property list uchar uint vertex_indices
end_header
0.230000 -0.499997 -0.163438 128 181 117
0.230000 -0.405863 -0.125754 77 171 79
0.125754 -0.405863 -0.230000 77 171 79
0.163438 -0.499997 -0.230000 128 181 117
0.230000 -0.405863 -0.334246 77 171 79
0.230000 -0.499997 -0.296562 128 181 117
0.334246 -0.405863 -0.230000 77 171 79
0.296562 -0.499997 -0.230000 128 181 117
0.294294 -0.499997 0.212772 128 181 117
0.330694 -0.405863 0.203019 77 171 79
0.256981 -0.405863 0.330694 77 171 79
0.247228 -0.499997 0.294294 128 181 117
0.129306 -0.405863 0.256981 77 171 79
0.165706 -0.499997 0.247228 128 181 117
0.203019 -0.405863 0.129306 77 171 79
0.212772 -0.499997 0.165706 128 181 117
-0.227234 -0.499997 -0.062548 128 181 117
-0.214346 -0.405863 -0.097959 77 171 79
-0.152041 -0.405863 0.035654 77 171 79
-0.187452 -0.499997 0.022766 128 181 117
-0.285654 -0.405863 0.097959 77 171 79
-0.272766 -0.499997 0.062548 128 181 117
-0.347959 -0.405863 -0.035654 77 171 79
-0.312548 -0.499997 -0.022766 128 181 117
4 0 1 2 3
4 3 2 4 5
4 5 4 6 7
4 1 0 7 6
4 4 2 1 6
4 8 9 10 11
4 11 10 12 13
4 13 12 14 15
4 15 14 9 8
4 12 10 9 14
4 16 17 18 19
4 19 18 20 21
4 21 20 22 23
4 23 22 17 16
4 20 18 17 22
