ply
format ascii 1.0
comment Created by Blender 2.78 (sub 0) - www.blender.org, source file: 'cabbagefullgrown.blend'
element vertex 93
property float x
property float y
property float z
property uchar red
property uchar green
property uchar blue
element face 90
property list uchar uint vertex_indices
end_header
-0.128683 -0.308046 0.050274 125 181 119
-0.366659 -0.305430 -0.048970 125 181 119
-0.290817 -0.308753 0.123362 125 181 119
-0.370360 -0.339831 0.188791 85 143 72
-0.386718 -0.499998 -0.055292 85 143 72
-0.296310 -0.499998 0.141219 85 143 72
-0.297431 -0.292089 0.147740 94 152 82
-0.471693 -0.339831 -0.028517 48 139 48
-0.370360 -0.339831 0.188791 44 138 46
-0.128691 -0.339831 -0.188461 44 138 46
-0.115724 -0.499998 0.054081 85 143 72
-0.204348 -0.499998 -0.140092 85 143 72
-0.105640 -0.292089 0.058183 94 152 82
-0.202187 -0.289599 -0.148625 94 152 82
-0.250092 -0.414401 -0.001050 94 152 82
-0.393978 -0.289599 -0.059068 94 152 82
-0.235587 -0.335276 -0.219132 43 138 45
-0.073461 -0.340256 0.127656 85 143 72
-0.426723 -0.335276 -0.129756 48 139 48
-0.264597 -0.340256 0.217032 43 138 45
-0.264597 -0.340256 0.217032 85 143 72
-0.297431 -0.292089 0.147740 85 143 72
-0.393978 -0.289599 -0.059068 121 177 114
-0.202187 -0.289599 -0.148625 110 167 102
-0.212944 -0.306355 -0.118221 125 181 119
-0.393978 -0.289599 -0.059068 110 167 101
-0.027359 -0.339831 0.028847 64 140 58
-0.027359 -0.339831 0.028847 85 143 72
-0.105640 -0.292089 0.058183 95 152 83
-0.202187 -0.289599 -0.148625 78 142 67
-0.073461 -0.340256 0.127656 43 138 45
0.361267 -0.308046 -0.226211 125 181 119
0.103551 -0.305430 -0.234228 125 181 119
0.235777 -0.308753 -0.100189 125 181 119
0.184740 -0.339831 -0.010728 85 143 72
0.082555 -0.499998 -0.232995 85 143 72
0.237001 -0.499998 -0.081547 85 143 72
0.238275 -0.292089 -0.075054 94 152 82
0.012681 -0.339831 -0.177721 48 139 48
0.184740 -0.339831 -0.010728 44 138 46
0.276264 -0.339831 -0.449301 44 138 46
0.374732 -0.499998 -0.227268 85 143 72
0.222785 -0.499998 -0.377166 85 143 72
0.385615 -0.292089 -0.227025 94 152 82
0.221767 -0.289599 -0.385909 94 152 82
0.229540 -0.414401 -0.230949 94 152 82
0.074427 -0.289599 -0.233938 94 152 82
0.165453 -0.335276 -0.439905 43 138 45
0.440420 -0.340256 -0.173560 85 143 72
0.018660 -0.335276 -0.288337 48 139 48
0.293627 -0.340256 -0.021992 43 138 45
0.293627 -0.340256 -0.021992 85 143 72
0.238275 -0.292089 -0.075054 85 143 72
0.074427 -0.289599 -0.233938 121 177 114
0.221767 -0.289599 -0.385909 110 167 102
0.222539 -0.306355 -0.353667 125 181 119
0.074427 -0.289599 -0.233938 110 167 101
0.448323 -0.339831 -0.282308 64 140 58
0.448323 -0.339831 -0.282308 85 143 72
0.385615 -0.292089 -0.227025 95 152 83
0.221767 -0.289599 -0.385909 78 142 67
0.440420 -0.340256 -0.173560 43 138 45
0.361267 -0.308046 0.233789 125 181 119
0.103551 -0.305430 0.225772 125 181 119
0.235777 -0.308753 0.359811 125 181 119
0.184740 -0.339831 0.449272 85 143 72
0.082555 -0.499998 0.227005 85 143 72
0.237001 -0.499998 0.378453 85 143 72
0.238275 -0.292089 0.384946 94 152 82
0.012681 -0.339831 0.282279 48 139 48
0.184740 -0.339831 0.449272 44 138 46
0.276264 -0.339831 0.010699 44 138 46
0.374732 -0.499998 0.232732 85 143 72
0.222785 -0.499998 0.082834 85 143 72
0.385615 -0.292089 0.232975 94 152 82
0.221767 -0.289599 0.074091 94 152 82
0.229540 -0.414401 0.229051 94 152 82
0.074427 -0.289599 0.226062 94 152 82
0.165453 -0.335276 0.020095 43 138 45
0.440420 -0.340256 0.286440 85 143 72
0.018660 -0.335276 0.171663 48 139 48
0.293627 -0.340256 0.438008 43 138 45
0.293627 -0.340256 0.438008 85 143 72
0.238275 -0.292089 0.384946 85 143 72
0.074427 -0.289599 0.226062 121 177 114
0.221767 -0.289599 0.074091 110 167 102
0.222539 -0.306355 0.106333 125 181 119
0.074427 -0.289599 0.226062 110 167 101
0.448323 -0.339831 0.177692 64 140 58
0.448323 -0.339831 0.177692 85 143 72
0.385615 -0.292089 0.232975 95 152 83
0.221767 -0.289599 0.074091 78 142 67
0.440420 -0.340256 0.286440 43 138 45
3 0 1 2
3 3 4 5
3 6 7 8
3 9 10 11
3 12 9 13
3 14 13 15
3 4 16 11
3 12 17 10
3 15 16 18
3 10 19 5
3 14 6 12
3 5 20 21
3 19 12 6
3 18 4 22
3 11 16 23
3 0 24 1
3 6 14 15
3 6 8 5
3 3 7 4
3 4 7 25
3 6 15 7
3 9 26 10
3 10 27 28
3 12 13 14
3 29 9 11
3 12 26 9
3 4 18 16
3 15 13 16
3 10 30 19
3 19 30 12
3 31 32 33
3 34 35 36
3 37 38 39
3 40 41 42
3 43 40 44
3 45 44 46
3 35 47 42
3 43 48 41
3 46 47 49
3 41 50 36
3 45 37 43
3 36 51 52
3 50 43 37
3 49 35 53
3 42 47 54
3 31 55 32
3 37 45 46
3 37 39 36
3 34 38 35
3 35 38 56
3 37 46 38
3 40 57 41
3 41 58 59
3 43 44 45
3 60 40 42
3 43 57 40
3 35 49 47
3 46 44 47
3 41 61 50
3 50 61 43
3 62 63 64
3 65 66 67
3 68 69 70
3 71 72 73
3 74 71 75
3 76 75 77
3 66 78 73
3 74 79 72
3 77 78 80
3 72 81 67
3 76 68 74
3 67 82 83
3 81 74 68
3 80 66 84
3 73 78 85
3 62 86 63
3 68 76 77
3 68 70 67
3 65 69 66
3 66 69 87
3 68 77 69
3 71 88 72
3 72 89 90
3 74 75 76
3 91 71 73
3 74 88 71
3 66 80 78
3 77 75 78
3 72 92 81
3 81 92 74
