ply
format ascii 1.0
comment Created by Blender 2.78 (sub 0) - www.blender.org, source file: 'cacaoplant.blend'
element vertex 55
property float x
property float y
property float z
property uchar red
property uchar green
property uchar blue
element face 46
property list uchar uint vertex_indices
end_header
0.050000 -0.500000 -0.050000 115 77 49
0.050000 0.000000 -0.050000 115 77 49
0.050000 0.000000 0.050000 115 77 49
0.050000 -0.500000 0.050000 115 77 49
-0.050000 -0.500000 0.050000 115 77 49
0.001307 0.000000 0.050000 115 77 49
-0.050000 0.000000 0.050000 115 77 49
-0.050000 0.000000 -0.050000 115 77 49
-0.050000 -0.500000 -0.050000 115 77 49
0.000667 0.000000 -0.050000 115 77 49
-0.123898 0.274998 -0.050000 115 77 49
-0.073231 0.274998 -0.050000 115 77 49
0.120540 0.274301 -0.050000 115 77 49
0.120540 0.274301 0.050000 115 77 49
0.071207 0.274301 -0.050000 115 77 49
0.071847 0.274301 0.050000 115 77 49
-0.072591 0.274998 0.050000 115 77 49
-0.123898 0.274998 0.050000 115 77 49
-0.228325 0.270153 0.213141 98 148 72
-0.228325 0.270153 -0.213141 98 148 72
0.197956 0.270153 -0.213141 98 148 72
0.197956 0.270153 0.213141 98 148 72
0.362516 0.696434 -0.377700 98 148 72
-0.392885 0.696434 -0.377700 98 148 72
-0.315676 1.156861 -0.300492 109 163 79
0.285307 1.156861 -0.300491 109 163 79
-0.392885 0.696434 0.377700 98 148 72
0.362516 0.696434 0.377700 98 148 72
-0.315676 1.156861 0.300491 109 163 79
0.285307 1.156861 0.300492 109 163 79
-0.392885 0.696434 0.377700 108 162 79
0.086032 0.094050 -0.110356 77 28 23
0.118247 0.145074 -0.130819 77 28 23
0.118247 0.145074 -0.052660 77 28 23
0.086032 0.094050 -0.073123 77 28 23
0.041925 0.161918 -0.052660 77 28 23
0.049673 0.102074 -0.073123 77 28 23
0.041925 0.161918 -0.130819 77 28 23
0.049673 0.102074 -0.110356 77 28 23
0.109998 0.213678 -0.075500 77 28 23
0.078282 0.220678 -0.075500 77 28 23
0.109998 0.213678 -0.107979 77 28 23
0.078282 0.220678 -0.107979 77 28 23
-0.018574 0.106352 0.071456 77 28 23
-0.020539 0.166663 0.050993 77 28 23
-0.020539 0.166663 0.129152 77 28 23
-0.018574 0.106352 0.108689 77 28 23
-0.093165 0.137779 0.129152 77 28 23
-0.053172 0.092592 0.108689 77 28 23
-0.093165 0.137779 0.050993 77 28 23
-0.053172 0.092592 0.071456 77 28 23
-0.065862 0.218820 0.106312 77 28 23
-0.096042 0.206817 0.106312 77 28 23
-0.065862 0.218820 0.073833 77 28 23
-0.096042 0.206817 0.073833 77 28 23
4 0 1 2 3
3 4 3 2
3 5 6 4
3 2 5 4
4 4 6 7 8
3 0 8 7
3 9 1 0
3 7 9 0
4 9 7 10 11
4 2 1 12 13
4 1 9 14 12
4 9 5 15 14
4 5 2 13 15
4 6 5 16 17
4 5 9 11 16
4 7 6 17 10
4 18 19 20 21
4 22 23 24 25
4 18 26 23 19
4 19 23 22 20
4 20 22 27 21
4 26 18 21 27
4 28 29 25 24
4 23 26 28 24
4 27 22 25 29
4 30 27 29 28
4 31 32 33 34
4 34 33 35 36
4 36 35 37 38
4 38 37 32 31
4 34 36 38 31
4 35 33 39 40
4 40 39 41 42
4 37 35 40 42
4 33 32 41 39
4 32 37 42 41
4 43 44 45 46
4 46 45 47 48
4 48 47 49 50
4 50 49 44 43
4 46 48 50 43
4 47 45 51 52
4 52 51 53 54
4 49 47 52 54
4 45 44 53 51
4 44 49 54 53
