ply
format ascii 1.0
comment Created by Blender 2.78 (sub 0) - www.blender.org, source file: 'cassavastage1.blend'
element vertex 104
property float x
property float y
property float z
property uchar red
property uchar green
property uchar blue
element face 112
property list uchar uint vertex_indices
end_header
-0.190208 -0.143816 -0.215797 121 145 35
-0.108381 -0.184754 -0.218643 121 145 35
-0.190208 -0.184754 -0.215797 121 145 35
-0.108381 -0.143816 -0.218643 121 145 35
-0.105534 -0.184754 -0.136816 121 145 35
-0.105534 -0.143816 -0.136816 121 145 35
-0.187362 -0.184754 -0.133970 121 145 35
-0.105534 -0.184754 -0.136816 120 147 37
-0.187362 -0.143816 -0.133970 121 145 35
-0.168387 -0.175569 -0.196074 118 79 41
-0.127474 -0.503075 -0.197497 117 76 40
-0.168387 -0.503075 -0.196074 117 76 40
-0.127474 -0.175569 -0.197497 117 76 40
-0.126050 -0.503075 -0.156584 117 76 40
-0.126050 -0.175569 -0.156584 117 76 40
-0.166964 -0.503075 -0.155161 117 76 40
-0.166964 -0.175569 -0.155161 117 76 40
-0.105534 -0.143816 -0.136816 122 149 39
-0.274883 -0.388859 -0.210857 76 191 75
-0.107124 -0.406436 -0.217111 76 191 75
-0.269292 -0.429123 -0.215704 76 191 75
-0.108646 -0.385177 -0.049669 76 191 75
-0.103055 -0.425441 -0.054515 76 191 75
-0.270814 -0.407865 -0.048262 76 191 75
-0.265223 -0.448129 -0.053108 76 191 75
-0.186391 -0.371772 -0.290728 76 191 75
-0.018317 -0.374517 -0.306047 76 191 75
-0.028107 -0.413251 -0.297117 76 191 75
-0.013014 -0.380252 -0.137435 76 191 75
-0.003224 -0.341517 -0.146365 76 191 75
-0.171298 -0.338773 -0.131046 76 191 75
-0.176601 -0.333037 -0.299658 76 191 75
-0.161508 -0.300038 -0.139976 76 191 75
-0.276106 -0.293538 -0.293495 76 191 75
-0.107533 -0.302062 -0.294762 76 191 75
-0.268107 -0.333036 -0.286295 76 191 75
-0.115532 -0.262563 -0.301962 76 191 75
-0.104811 -0.272167 -0.133784 76 191 75
-0.273384 -0.263643 -0.132517 76 191 75
-0.265385 -0.303141 -0.125317 76 191 75
-0.112810 -0.232668 -0.140984 80 190 75
0.155860 -0.155851 0.220374 121 145 35
0.076237 -0.195663 0.220896 121 145 35
0.155860 -0.195663 0.220374 121 145 35
0.076237 -0.155851 0.220896 121 145 35
0.075716 -0.195663 0.141274 121 146 36
0.075716 -0.155851 0.141274 121 145 35
0.155338 -0.195663 0.140752 121 145 35
0.155338 -0.155851 0.140752 121 145 35
0.076237 -0.155851 0.220896 121 146 36
0.135189 -0.186730 0.200603 118 78 41
0.095378 -0.505226 0.200864 116 79 41
0.135189 -0.505226 0.200603 115 81 42
0.095378 -0.186730 0.200864 117 76 40
0.095117 -0.505226 0.161053 117 76 40
0.095378 -0.505226 0.200864 117 76 40
0.095117 -0.186730 0.161053 117 76 40
0.134928 -0.505226 0.160792 117 76 40
0.134928 -0.186730 0.160792 117 77 41
0.135189 -0.505226 0.200603 115 79 42
-0.187362 -0.143816 -0.133970 121 146 36
0.238308 -0.394152 0.217896 48 128 33
0.075058 -0.411245 0.219372 48 128 33
0.232740 -0.433308 0.222454 48 128 33
0.075058 -0.411245 0.219372 76 191 75
0.081131 -0.390571 0.056643 76 191 75
0.075563 -0.429728 0.061201 76 191 75
0.238813 -0.412635 0.059725 76 191 75
0.233245 -0.451791 0.064283 76 191 75
0.232740 -0.433308 0.222454 76 191 75
0.075563 -0.429728 0.061201 48 128 33
0.238308 -0.394152 0.217896 76 191 75
0.150094 -0.377535 0.293110 76 191 75
-0.013711 -0.380204 0.303390 76 191 75
-0.003949 -0.417873 0.294978 76 191 75
-0.014240 -0.385781 0.139337 76 191 75
-0.024002 -0.348113 0.147750 76 191 75
0.139803 -0.345443 0.137469 76 191 75
0.140332 -0.339866 0.301522 76 191 75
0.130041 -0.307775 0.145881 76 191 75
0.237229 -0.301454 0.298261 76 191 75
0.073325 -0.309743 0.294868 76 191 75
0.229651 -0.339865 0.291043 76 191 75
0.080903 -0.271331 0.302087 80 191 75
0.075096 -0.280670 0.138306 76 191 75
0.239000 -0.272381 0.141700 88 179 64
0.231422 -0.310792 0.134481 76 191 75
0.080903 -0.271331 0.302087 76 191 75
0.239000 -0.272381 0.141700 76 191 75
0.082674 -0.242258 0.145525 76 191 75
-0.127474 -0.175569 -0.197497 119 87 44
-0.126050 -0.175569 -0.156584 117 83 40
-0.168387 -0.175569 -0.196074 117 79 41
-0.112715 -0.366172 -0.212264 76 191 75
-0.112810 -0.232668 -0.140984 76 191 75
0.076237 -0.155851 0.220896 123 155 47
0.095378 -0.186730 0.200864 118 80 42
0.095117 -0.186730 0.161053 117 77 40
0.134928 -0.186730 0.160792 117 76 40
0.135189 -0.186730 0.200603 117 76 40
0.080626 -0.372089 0.214814 48 128 33
0.080626 -0.372089 0.214814 76 191 75
0.233245 -0.451791 0.064283 48 128 33
0.082674 -0.242258 0.145525 85 189 75
3 0 1 2
3 3 4 1
3 5 6 7
3 8 2 6
3 4 2 1
3 3 8 5
3 9 10 11
3 12 13 10
3 14 15 13
3 16 11 15
3 8 0 2
3 3 17 4
3 18 19 20
3 19 21 22
3 22 23 24
3 23 20 24
3 22 20 19
3 21 18 23
3 25 26 27
3 26 28 27
3 29 30 28
3 30 31 25
3 28 25 27
3 29 31 32
3 33 34 35
3 36 37 34
3 37 38 39
3 39 33 35
3 34 39 35
3 36 38 40
3 41 42 43
3 44 45 42
3 46 47 45
3 48 43 47
3 42 47 43
3 49 48 46
3 50 51 52
3 53 54 55
3 56 57 54
3 58 59 57
3 5 60 6
3 0 3 1
3 61 62 63
3 64 65 66
3 66 67 68
3 67 69 68
3 70 63 62
3 65 71 67
3 72 73 74
3 73 75 74
3 76 77 75
3 77 78 72
3 75 72 74
3 76 78 79
3 80 81 82
3 83 84 81
3 84 85 86
3 86 80 82
3 81 86 82
3 87 88 89
3 4 6 2
3 3 0 8
3 9 90 10
3 12 91 13
3 14 16 15
3 16 92 11
3 18 93 19
3 19 93 21
3 22 21 23
3 23 18 20
3 22 24 20
3 21 93 18
3 25 31 26
3 26 29 28
3 29 32 30
3 30 32 31
3 28 30 25
3 29 26 31
3 33 36 34
3 36 94 37
3 37 94 38
3 39 38 33
3 34 37 39
3 36 33 38
3 41 95 42
3 44 46 45
3 46 48 47
3 48 41 43
3 42 45 47
3 49 41 48
3 50 96 51
3 53 97 54
3 56 98 57
3 58 99 59
3 61 100 62
3 64 101 65
3 66 65 67
3 67 71 69
3 70 102 63
3 65 101 71
3 72 78 73
3 73 76 75
3 76 79 77
3 77 79 78
3 75 77 72
3 76 73 78
3 80 87 81
3 83 103 84
3 84 103 85
3 86 88 80
3 81 84 86
3 87 80 88
