ply
format ascii 1.0
comment Created by Blender 2.78 (sub 0) - www.blender.org, source file: 'cassavastage2.blend'
element vertex 105
property float x
property float y
property float z
property uchar red
property uchar green
property uchar blue
element face 56
property list uchar uint vertex_indices
end_header
0.228852 0.120506 0.292304 78 157 52
0.228852 0.240879 0.292304 75 156 48
-0.011887 0.240879 0.293882 75 156 48
-0.011887 0.120506 0.293882 75 156 48
-0.013465 0.240879 0.053143 75 156 48
-0.013465 0.120506 0.053143 75 156 48
0.227275 0.240879 0.051565 75 156 48
0.227275 0.120506 0.051565 75 156 48
0.228852 0.120506 0.292304 75 156 48
0.156237 -0.506219 0.222062 95 196 86
0.156237 0.157814 0.222062 95 196 86
0.073235 0.157814 0.222606 95 196 86
0.073235 -0.506219 0.222606 95 196 86
0.072691 0.157814 0.139604 95 196 86
0.072691 -0.506219 0.139604 95 196 86
0.155694 0.157814 0.139060 104 196 94
0.155694 -0.506219 0.139060 95 196 86
0.155694 0.157814 0.139060 95 196 86
0.359623 -0.356278 0.267618 48 128 33
0.371231 -0.274641 0.258115 48 128 33
0.042479 -0.228641 0.251690 48 128 33
0.030871 -0.310278 0.261193 48 128 33
0.043532 -0.267176 -0.078081 48 128 33
0.031924 -0.348813 -0.068578 48 128 33
0.372284 -0.313176 -0.071656 49 129 34
0.360676 -0.394813 -0.062154 49 129 34
0.187313 -0.239996 0.414930 48 128 33
0.166960 -0.161460 0.432469 49 129 34
-0.154205 -0.245561 0.436363 49 129 34
-0.133852 -0.324097 0.418825 48 128 33
-0.154205 -0.245561 0.436363 48 128 33
-0.175661 -0.178654 0.111867 48 128 33
-0.155308 -0.257190 0.094328 48 128 33
0.145504 -0.094553 0.107972 48 128 33
0.165857 -0.173089 0.090433 48 128 33
0.165857 -0.173089 0.090433 49 129 34
0.145504 -0.094553 0.107972 49 129 34
0.187313 -0.239996 0.414930 49 129 34
0.166960 -0.161460 0.432469 56 139 41
0.145504 -0.094553 0.107972 54 137 40
0.353182 -0.161458 0.410619 50 132 36
0.368982 -0.081374 0.425669 48 128 33
0.043056 -0.018571 0.433645 49 129 34
0.027257 -0.098656 0.418595 49 129 34
0.027257 -0.098656 0.418595 48 128 33
0.043056 -0.018571 0.433645 48 128 33
0.046749 0.042043 0.107229 48 128 33
0.030949 -0.038042 0.092179 48 128 33
0.372674 -0.020760 0.099254 49 129 34
0.356874 -0.100844 0.084203 49 129 34
0.353182 -0.161458 0.410619 48 128 33
0.046749 0.042043 0.107229 49 130 35
0.372674 -0.020760 0.099254 48 128 33
-0.266626 0.120507 -0.292112 75 156 48
-0.266626 0.240879 -0.292112 75 156 48
-0.026027 0.240879 -0.300481 75 156 48
-0.026027 0.120507 -0.300481 75 156 48
-0.017658 0.240879 -0.059882 75 156 48
-0.017658 0.120507 -0.059882 75 156 48
-0.258257 0.240879 -0.051513 75 156 48
-0.258257 0.120507 -0.051513 75 156 48
-0.266626 0.240879 -0.292112 76 157 49
-0.189468 -0.506219 -0.216387 95 196 86
-0.189468 0.157814 -0.216387 95 196 86
-0.106514 0.157814 -0.219272 95 196 86
-0.106514 -0.506219 -0.219272 95 196 86
-0.103629 0.157814 -0.136318 95 196 86
-0.103629 -0.506219 -0.136318 95 196 86
-0.186583 0.157814 -0.133433 104 196 94
-0.186583 -0.506219 -0.133433 95 196 86
-0.186583 0.157814 -0.133433 95 196 86
-0.394058 -0.356278 -0.256186 48 128 33
-0.405394 -0.274641 -0.246360 48 128 33
-0.076591 -0.228641 -0.249212 48 128 33
-0.065256 -0.310278 -0.259039 48 128 33
-0.068340 -0.267176 0.080457 48 128 33
-0.057005 -0.348813 0.070631 48 128 33
-0.397143 -0.313176 0.083310 48 128 33
-0.385807 -0.394813 0.073483 49 129 34
-0.405394 -0.274641 -0.246360 49 129 34
-0.394058 -0.356278 -0.256186 49 129 34
-0.385807 -0.394813 0.073483 48 128 33
-0.225972 -0.239995 -0.408301 48 128 33
-0.206122 -0.161460 -0.426407 48 129 34
0.114805 -0.245561 -0.439361 49 129 34
0.094955 -0.324097 -0.421255 48 128 33
0.114805 -0.245561 -0.439361 48 128 33
0.145407 -0.178654 -0.115599 48 128 33
0.125557 -0.257189 -0.097493 48 128 33
-0.175521 -0.094553 -0.102645 49 129 34
-0.195371 -0.173089 -0.084539 49 129 34
-0.206122 -0.161460 -0.426407 49 129 34
-0.225972 -0.239995 -0.408301 49 129 34
-0.206122 -0.161460 -0.426407 56 139 41
-0.391654 -0.161458 -0.399313 50 132 36
-0.407872 -0.081374 -0.413911 48 128 33
-0.082301 -0.018571 -0.431078 48 128 33
-0.066083 -0.098656 -0.416480 48 128 33
-0.076783 0.042043 -0.104688 48 128 33
-0.060565 -0.038042 -0.090090 49 129 34
-0.402354 -0.020760 -0.087521 48 128 33
-0.386136 -0.100844 -0.072923 48 128 33
-0.391654 -0.161458 -0.399313 49 129 34
-0.060565 -0.038042 -0.090090 48 128 33
-0.076783 0.042043 -0.104688 49 130 35
4 0 1 2 3
4 3 2 4 5
4 5 4 6 7
4 1 8 7 6
4 7 8 3 5
4 4 2 1 6
4 9 10 11 12
4 12 11 13 14
4 14 13 15 16
4 16 17 10 9
4 18 19 20 21
4 21 20 22 23
4 23 22 24 25
4 25 24 19 18
4 21 23 25 18
4 22 20 19 24
4 26 27 28 29
4 29 30 31 32
4 32 31 33 34
4 35 36 27 37
4 29 32 35 37
4 31 30 38 39
4 40 41 42 43
4 44 45 46 47
4 47 46 48 49
4 49 48 41 50
4 43 47 49 40
4 51 45 41 52
4 53 54 55 56
4 56 55 57 58
4 58 57 59 60
4 60 59 61 53
4 56 58 60 53
4 57 55 61 59
4 62 63 64 65
4 65 64 66 67
4 67 66 68 69
4 69 70 63 62
4 71 72 73 74
4 74 73 75 76
4 76 75 77 78
4 78 77 79 80
4 74 76 81 71
4 75 73 79 77
4 82 83 84 85
4 85 86 87 88
4 88 87 89 90
4 90 89 91 92
4 85 88 90 92
4 87 86 93 89
4 94 95 96 97
4 97 96 98 99
4 99 98 100 101
4 101 100 95 102
4 97 103 101 94
4 104 96 95 100
