ply
format ascii 1.0
comment Created by Blender 2.82 (sub 7) - www.blender.org, source file: 'Chestmaker.blend'
element vertex 158
property float x
property float y
property float z
property uchar red
property uchar green
property uchar blue
property uchar alpha
element face 108
property list uchar uint vertex_indices
end_header
0.283826 0.888454 -0.194972 221 161 112 255
0.451235 0.922566 -0.084702 221 161 112 255
0.476216 0.888454 -0.068248 221 161 112 255
0.032595 0.888454 0.186441 221 161 112 255
0.200003 0.922566 0.296711 221 161 112 255
0.056028 0.922566 0.201876 221 161 112 255
0.348895 0.955633 -0.152112 221 161 112 255
0.416493 0.955633 -0.107586 221 161 112 255
0.097663 0.955633 0.229301 221 161 112 255
0.390209 0.967381 -0.124900 221 161 112 255
0.138977 0.967381 0.256514 221 161 112 255
0.123510 0.967381 0.246326 221 161 112 255
0.269331 0.578755 -0.204520 221 161 112 255
0.018100 0.578755 0.176894 221 161 112 255
0.269331 0.578755 -0.204520 221 161 112 255
0.018100 0.578755 0.176894 221 161 112 255
0.018100 0.807115 0.176894 221 161 112 255
0.269331 0.807115 -0.204520 221 161 112 255
-0.158214 0.623361 -0.406175 183 169 170 255
-0.156015 0.620858 -0.261692 167 147 149 255
-0.101855 0.623361 -0.287390 165 145 147 255
-0.155953 0.563413 -0.407247 166 146 148 255
-0.153754 0.560911 -0.262765 165 145 147 255
-0.233336 0.560910 -0.430494 165 145 147 255
-0.450000 -0.500000 0.450000 206 163 111 255
0.450000 -0.500000 0.450000 206 163 111 255
0.450000 0.500000 0.450000 206 163 111 255
-0.450000 0.500000 0.450000 206 163 111 255
-0.450000 -0.500000 -0.450000 206 163 111 255
-0.450000 0.500000 -0.450000 206 163 111 255
0.450000 -0.500000 -0.450000 206 163 111 255
0.450000 0.500000 -0.450000 206 163 111 255
-0.520000 0.541066 -0.350000 190 177 159 255
-0.520000 0.541066 0.350000 190 177 159 255
-0.520000 0.561066 0.350000 190 177 159 255
-0.520000 0.561066 -0.350000 190 177 158 255
-0.158749 0.610341 -0.174178 179 94 71 255
-0.171817 0.610341 -0.115303 179 94 71 255
0.030136 0.610341 -0.070478 179 94 71 255
0.043204 0.610341 -0.129352 179 94 71 255
0.498179 0.843473 -0.053781 221 161 112 255
0.269331 0.843473 -0.204520 221 161 112 255
0.144347 0.844073 -0.040742 183 180 190 255
0.119224 0.844073 -0.002601 183 180 190 255
0.126852 0.844073 0.002424 183 180 190 255
0.151975 0.844073 -0.035718 183 180 190 255
-0.050825 0.560701 0.009816 158 158 170 255
-0.308818 0.560701 -0.074553 156 156 169 255
-0.284954 0.610341 -0.043658 155 155 168 255
-0.088333 0.610341 0.020641 155 155 168 255
0.307260 0.922566 -0.179537 221 161 112 255
0.246948 0.843473 0.327632 221 161 112 255
0.224984 0.888454 0.313165 221 161 112 255
-0.496298 0.145515 0.350000 190 177 159 255
-0.516298 0.145448 0.350000 190 176 157 255
-0.516298 0.145448 -0.350000 190 177 159 255
-0.496298 0.145514 -0.350000 190 177 159 255
0.165262 0.955633 0.273827 221 161 112 255
-0.368613 0.610341 0.098551 236 175 102 255
-0.395224 0.610341 0.152670 236 175 102 255
-0.209583 0.610341 0.243949 236 175 102 255
-0.182972 0.610341 0.189830 236 175 102 255
-0.517620 0.545446 -0.350000 190 177 159 255
-0.517620 0.545446 0.350000 190 177 159 255
-0.497620 0.545512 0.350000 190 177 159 255
-0.497620 0.545512 -0.350000 190 177 158 255
-0.235597 0.620858 -0.429421 165 145 147 255
0.374741 0.967381 -0.135088 221 161 112 255
0.246948 0.578755 0.327632 221 161 112 255
0.246948 0.807115 0.327632 221 161 112 255
0.498179 0.578755 -0.053781 223 166 121 255
0.498179 0.807115 -0.053781 221 161 112 255
0.246576 0.560447 0.336473 184 181 191 255
0.506155 0.560447 -0.057613 183 180 190 255
0.506155 0.588761 -0.057613 184 181 191 255
0.246576 0.588761 0.336473 183 180 190 255
0.010124 0.560447 0.180726 183 180 190 255
0.010124 0.588761 0.180726 183 180 190 255
0.269703 0.560447 -0.213360 183 180 190 255
0.269703 0.588761 -0.213360 183 180 190 255
0.299061 0.577345 -0.188184 183 180 190 255
0.268548 0.577345 -0.208283 187 184 193 255
0.268548 0.805705 -0.208283 183 180 190 255
0.299061 0.805705 -0.188184 183 180 190 255
-0.392770 0.601088 -0.215191 165 126 90 255
-0.409917 0.601088 -0.251329 165 126 89 255
-0.408410 0.561122 -0.252044 165 126 90 255
-0.391263 0.561123 -0.215906 165 126 89 255
0.010124 0.791155 0.180726 183 180 190 255
0.246576 0.791155 0.336473 183 180 190 255
0.246576 0.847789 0.336473 183 180 190 255
0.010124 0.847789 0.180726 183 180 190 255
0.269703 0.791155 -0.213360 183 180 190 255
0.269703 0.847789 -0.213360 183 180 190 255
0.506155 0.791155 -0.057613 183 180 190 255
0.506155 0.847789 -0.057613 183 180 190 255
0.248449 0.577345 -0.177770 183 180 190 255
0.248449 0.805705 -0.177770 183 180 190 255
-0.176128 0.611098 -0.317981 166 128 92 255
-0.193274 0.611098 -0.354119 166 128 92 255
0.502016 0.577345 -0.054500 183 180 190 255
0.471503 0.577345 -0.074599 183 180 190 255
0.471503 0.805705 -0.074599 183 180 190 255
0.502016 0.805705 -0.054500 183 180 190 255
0.500000 0.443751 -0.500000 97 51 24 255
-0.500000 0.443751 -0.500000 97 51 24 255
-0.500000 0.543751 -0.500000 97 51 24 255
0.500000 0.543751 -0.500000 97 51 24 255
0.481918 0.577345 -0.023987 183 180 190 255
0.481918 0.805705 -0.023987 183 180 190 255
0.247924 0.577345 0.331257 184 181 191 255
0.268022 0.577345 0.300743 183 180 190 255
0.268022 0.805705 0.300743 183 180 190 255
0.247924 0.805705 0.331257 183 180 190 255
-0.500000 0.543751 0.500000 97 51 24 255
0.500000 0.543751 0.500000 98 52 28 255
0.520000 0.541066 0.350000 190 176 157 255
0.520000 0.541066 -0.350000 190 177 159 255
0.520000 0.561066 -0.350000 190 177 159 255
0.520000 0.561066 0.350000 190 177 159 255
0.119224 0.770998 -0.002601 183 180 190 255
0.126852 0.770998 0.002424 183 180 190 255
0.144347 0.770998 -0.040742 183 180 190 255
0.500000 0.443751 0.500000 97 51 24 255
-0.500000 0.443751 0.500000 97 51 24 255
0.217411 0.577345 0.311158 183 180 190 255
0.217411 0.805705 0.311158 183 180 190 255
0.014455 0.577345 0.177474 183 180 190 255
0.044968 0.577345 0.197573 183 180 190 255
0.044968 0.805705 0.197573 183 180 190 255
0.014455 0.805705 0.177474 183 180 190 255
0.034554 0.577345 0.146961 183 180 190 255
0.034554 0.805705 0.146961 183 180 190 255
0.151975 0.770998 -0.035718 183 180 190 255
0.497397 0.145448 -0.350000 190 177 159 255
0.496075 0.545446 -0.350000 190 177 159 255
0.516075 0.545512 -0.350000 190 177 158 255
0.517396 0.145514 -0.350000 190 177 159 255
0.516075 0.545512 0.350000 190 177 159 255
0.517396 0.145515 0.350000 190 177 159 255
0.018100 0.843473 0.176894 221 161 112 255
0.496075 0.545446 0.350000 190 177 159 255
0.497396 0.145448 0.350000 190 176 157 255
-0.387901 0.560701 0.064610 236 175 102 255
-0.432815 0.560701 0.155954 235 174 102 255
-0.191767 0.571133 -0.354835 165 126 90 255
-0.303699 0.610341 0.013662 155 155 168 255
-0.107078 0.610341 0.077962 155 155 168 255
-0.099594 0.563413 -0.288463 165 145 147 255
-0.174620 0.571133 -0.318696 165 126 89 255
-0.185511 0.560701 -0.202599 179 94 71 255
-0.207568 0.560701 -0.103229 179 94 71 255
-0.189230 0.560701 0.275724 236 175 102 255
-0.144316 0.560701 0.184380 232 177 112 255
-0.340456 0.560701 0.022194 157 157 170 255
-0.082463 0.560701 0.106563 172 172 182 255
0.057421 0.560701 -0.044412 180 99 78 255
0.079478 0.560701 -0.143783 182 102 82 255
3 0 1 2
3 3 4 5
3 1 6 7
3 4 8 5
3 6 9 7
3 8 10 11
3 12 13 14
3 15 16 13
3 17 12 14
3 18 19 20
3 21 22 23
4 24 25 26 27
4 28 24 27 29
4 30 28 29 31
4 32 33 34 35
4 36 37 38 39
4 2 40 41 0
4 42 43 44 45
4 46 47 48 49
3 0 50 1
4 51 40 2 52
3 3 52 4
4 53 54 55 56
4 57 4 1 7
4 10 57 7 9
4 58 59 60 61
3 1 50 6
3 4 57 8
4 62 63 64 65
4 19 66 23 22
3 6 67 9
3 8 57 10
4 15 68 69 16
4 70 12 17 71
3 12 15 13
4 14 13 16 17
4 72 73 74 75
4 76 72 75 77
4 78 76 77 79
4 73 78 79 74
4 80 81 82 83
4 84 85 86 87
4 88 89 90 91
4 92 88 91 93
4 94 92 93 95
4 81 96 97 82
4 98 99 85 84
4 100 101 102 103
4 104 105 106 107
4 108 100 103 109
4 89 94 95 90
4 68 70 71 69
4 110 111 112 113
4 106 114 115 107
4 116 117 118 119
4 33 116 119 34
4 120 121 44 43
4 122 120 43 42
4 79 77 75 74
4 6 50 5 8
4 104 123 124 105
4 123 104 107 115
4 117 32 35 118
4 65 64 53 56
4 25 30 31 26
4 125 110 113 126
4 127 128 129 130
4 131 127 130 132
4 133 122 42 45
4 124 123 115 114
4 105 124 114 106
4 5 50 0 3
4 23 66 18 21
4 134 135 136 137
4 55 62 65 56
4 136 138 139 137
4 93 91 90 95
4 41 140 3 0
4 138 141 142 139
4 136 135 141 138
4 64 63 54 53
4 134 142 141 135
4 55 54 63 62
4 58 143 144 59
4 139 142 134 137
4 86 85 99 145
4 49 48 146 147
4 9 67 11 10
4 20 19 22 148
4 21 18 20 148
4 98 84 87 149
3 18 66 19
3 21 148 22
4 36 150 151 37
4 144 152 60 59
4 152 153 61 60
4 154 155 147 146
4 4 52 2 1
4 156 157 39 38
4 151 156 38 37
4 140 51 52 3
4 153 143 58 61
4 133 121 120 122
4 48 47 154 146
4 155 46 49 147
4 39 157 150 36
4 11 67 6 8
4 35 34 119 118
