ply
format ascii 1.0
comment Created by Blender 2.78 (sub 0) - www.blender.org, source file: 'chickencoop.blend'
element vertex 83
property float x
property float y
property float z
property uchar red
property uchar green
property uchar blue
element face 109
property list uchar uint vertex_indices
end_header
0.399678 0.191365 0.260137 196 157 99
-0.454727 0.159528 0.308366 66 44 18
-0.402920 0.191365 0.260137 196 157 99
-0.402920 0.398830 -0.048043 196 157 99
-0.402920 -0.347951 -0.340652 196 157 99
-0.094637 -0.102114 0.260137 196 157 99
0.060017 -0.102257 0.260137 196 157 99
0.399678 -0.347951 -0.340652 196 157 99
0.399679 0.191365 -0.340652 196 157 99
0.399679 0.398830 -0.048043 196 157 99
0.458146 0.408948 -0.047953 66 44 18
-0.454727 0.171503 -0.385643 66 44 18
-0.454727 0.408948 -0.047953 66 44 18
-0.454727 0.169590 0.308781 67 45 18
0.458146 0.159528 0.308366 66 44 18
-0.454727 0.169590 0.308781 66 44 18
0.458146 0.398830 -0.048043 66 44 18
-0.454727 0.398830 -0.048043 66 44 18
-0.454727 0.161385 -0.385643 66 44 18
0.458146 0.171503 -0.385643 66 44 18
0.458146 0.161385 -0.385643 66 44 18
-0.402920 0.191365 -0.340652 196 157 99
-0.454727 0.408891 -0.048031 66 44 18
0.458146 0.169590 0.308781 66 44 18
0.458146 0.159528 0.308366 67 45 19
0.458146 0.408891 -0.047953 66 44 18
0.058709 -0.328835 0.260137 196 157 99
-0.094815 -0.329490 0.260137 196 157 99
-0.402920 -0.347951 0.260137 196 157 99
0.058709 -0.328835 0.260137 66 44 18
-0.084397 -0.484591 0.464972 66 44 18
0.051665 -0.483936 0.464972 54 36 15
0.058709 -0.328835 0.181003 0 0 0
-0.094815 -0.329490 0.181003 12 8 3
0.060017 -0.102257 0.181003 0 0 0
-0.094637 -0.102114 0.181003 7 5 2
0.051465 -0.503052 0.464972 54 36 15
-0.084397 -0.484591 0.464972 54 36 15
-0.084423 -0.503052 0.464972 54 36 15
0.057708 -0.348950 0.260137 196 157 99
-0.095463 -0.348950 0.260137 66 44 18
-0.094815 -0.329490 0.260137 66 44 18
-0.095463 -0.348950 0.260137 196 157 99
-0.094637 -0.102114 0.181003 0 0 0
-0.094815 -0.329490 0.181003 0 0 0
-0.349570 -0.334000 -0.354395 112 86 46
-0.349570 -0.500000 -0.288395 112 86 46
-0.349570 -0.500000 -0.354395 112 86 46
-0.415570 -0.334000 -0.288395 112 86 46
-0.415570 -0.500000 -0.288395 112 86 46
-0.415570 -0.500000 -0.354395 112 86 46
-0.415570 -0.334000 -0.354395 112 86 46
-0.349570 -0.334000 -0.288395 112 86 46
-0.349570 -0.334000 0.209337 112 86 46
-0.349570 -0.500000 0.275337 112 86 46
-0.349570 -0.500000 0.209337 112 86 46
-0.349570 -0.334000 0.275337 112 86 46
-0.415570 -0.500000 0.275337 112 86 46
-0.415570 -0.334000 0.275337 112 86 46
-0.415570 -0.500000 0.209337 112 86 46
-0.415570 -0.334000 0.209337 112 86 46
0.412871 -0.500000 0.209337 112 86 46
0.412871 -0.334000 0.275337 112 86 46
0.412871 -0.500000 0.275337 112 86 46
0.346871 -0.500000 0.275337 112 86 46
0.346871 -0.334000 0.275337 112 86 46
0.346871 -0.500000 0.209337 112 86 46
0.412871 -0.334000 0.209337 112 86 46
0.346871 -0.334000 0.209337 112 86 46
0.412871 -0.334000 -0.354395 112 86 46
0.412871 -0.500000 -0.288395 112 86 46
0.412871 -0.500000 -0.354395 112 86 46
0.412871 -0.334000 -0.288395 112 86 46
0.346871 -0.500000 -0.288395 112 86 46
0.346871 -0.334000 -0.288395 112 86 46
0.346871 -0.500000 -0.354395 112 86 46
0.346871 -0.334000 -0.354395 112 86 46
0.399678 -0.347951 0.260137 196 157 99
0.399678 0.191365 0.260137 197 157 99
0.458146 0.408948 -0.047953 255 255 255
0.458146 0.408891 -0.047953 255 255 255
0.458146 0.398830 -0.048043 255 255 255
-0.084423 -0.503052 0.464972 55 36 15
3 0 1 2
3 2 3 4
3 5 6 2
3 7 8 9
3 10 11 12
3 13 10 12
3 14 15 1
3 8 16 9
3 2 17 3
3 18 19 20
3 21 20 8
3 17 11 18
3 17 15 22
3 3 18 21
3 16 19 10
3 16 23 24
3 10 23 25
3 9 14 0
3 6 26 0
3 27 2 28
3 29 30 31
3 27 32 33
3 26 34 32
3 5 34 6
3 27 35 5
3 36 37 38
3 39 31 36
3 40 30 41
3 39 38 42
3 32 43 44
3 45 46 47
3 46 48 49
3 48 50 49
3 51 47 50
3 52 51 48
3 53 54 55
3 56 57 54
3 58 59 57
3 60 55 59
3 56 60 58
3 61 62 63
3 62 64 63
3 65 66 64
3 66 67 61
3 62 68 65
3 69 70 71
3 72 73 70
3 74 75 73
3 75 69 71
3 72 76 74
3 0 14 1
3 4 28 2
3 77 7 0
3 9 78 7
3 0 2 6
3 7 4 21
3 21 8 7
3 4 3 21
3 10 19 11
3 13 23 10
3 14 23 15
3 8 20 16
3 2 1 17
3 18 11 19
3 21 18 20
3 79 80 81
3 17 12 11
3 17 1 15
3 3 17 18
3 13 12 22
3 16 20 19
3 16 25 23
3 9 16 14
3 77 0 26
3 26 39 77
3 28 42 27
3 27 5 2
3 4 7 77
3 29 41 30
3 27 26 32
3 26 6 34
3 5 35 34
3 27 33 35
3 36 31 37
3 39 26 31
3 40 82 30
3 39 36 38
3 32 34 43
3 45 52 46
3 46 52 48
3 48 51 50
3 51 45 47
3 52 45 51
3 53 56 54
3 56 58 57
3 58 60 59
3 60 53 55
3 56 53 60
3 61 67 62
3 62 65 64
3 65 68 66
3 66 68 67
3 62 67 68
3 69 72 70
3 72 74 73
3 74 76 75
3 75 76 69
3 72 69 76
3 4 77 28
