ply
format ascii 1.0
comment Created by Blender 2.82 (sub 7) - www.blender.org, source file: 'CompostingBin.blend'
element vertex 128
property float x
property float y
property float z
property uchar red
property uchar green
property uchar blue
property uchar alpha
element face 61
property list uchar uint vertex_indices
end_header
0.482287 -0.484798 -0.483599 192 155 113 255
0.482287 -0.184798 -0.483704 190 154 112 255
0.481058 -0.184798 0.479733 199 160 114 255
0.478605 -0.484798 0.479249 199 160 114 255
0.442010 -0.184798 -0.443906 182 148 111 255
0.441283 -0.184798 0.439144 180 147 111 255
0.441098 0.181929 0.449978 182 148 111 255
0.441098 0.481929 0.449978 178 142 106 255
0.442063 0.481929 -0.450021 182 148 111 255
0.442063 0.181929 -0.450021 182 148 111 255
0.482063 0.181929 -0.449978 182 148 111 255
0.482063 0.481929 -0.449978 182 148 111 255
0.481098 0.481929 0.450021 182 148 111 255
0.481098 0.181929 0.450021 182 148 111 255
0.482063 -0.149103 -0.449978 192 161 130 255
0.482063 0.150897 -0.449978 192 161 130 255
0.481098 0.150897 0.450021 192 161 130 255
0.481098 -0.149103 0.450021 192 161 130 255
0.441098 -0.149103 0.449978 182 148 111 255
0.442063 -0.149103 -0.450021 182 148 111 255
0.442063 0.150897 -0.450021 182 148 111 255
0.441098 0.150897 0.449978 182 148 111 255
-0.482298 -0.484798 0.479451 182 148 111 255
-0.482298 -0.184798 0.479451 182 148 111 255
-0.481352 -0.184798 -0.483853 182 148 111 255
-0.481352 -0.484798 -0.483853 182 148 111 255
-0.441866 -0.184798 0.439321 182 148 111 255
-0.441442 -0.184798 -0.443788 182 148 111 255
-0.482063 0.181929 0.448988 170 142 114 255
-0.482063 0.481929 0.448988 169 141 114 255
-0.481098 0.481929 -0.451011 168 141 114 255
-0.481098 0.181929 -0.451011 168 141 114 255
-0.441098 0.181929 -0.450968 182 148 111 255
-0.441098 0.481929 -0.450968 182 148 111 255
-0.442063 0.481929 0.449031 182 148 111 255
-0.442063 0.181929 0.449031 182 148 111 255
-0.482063 -0.149103 0.448988 197 161 120 255
-0.482063 0.150897 0.448988 195 157 113 255
-0.481098 0.150897 -0.451011 198 159 114 255
-0.481098 -0.149103 -0.451011 199 160 114 255
-0.441098 -0.149103 -0.450968 182 148 111 255
-0.442063 -0.149103 0.449031 182 148 111 255
-0.442063 0.150897 0.449031 182 148 111 255
-0.441098 0.150897 -0.450968 182 148 111 255
-0.481352 -0.484798 -0.483853 169 129 96 255
-0.481352 -0.184798 -0.483853 176 139 104 255
0.482287 -0.184798 -0.483704 168 128 95 255
0.482287 -0.484798 -0.483599 168 128 95 255
-0.441442 -0.184798 -0.443788 182 148 112 255
0.442010 -0.184798 -0.443906 182 147 110 255
0.450000 0.181929 -0.443912 182 149 112 255
0.450000 0.481929 -0.443912 182 148 111 255
-0.450000 0.481929 -0.443912 187 156 124 255
-0.450000 0.181929 -0.443912 182 148 111 255
-0.450000 0.181929 -0.483912 182 148 111 255
-0.450000 0.481929 -0.483912 182 148 111 255
0.450000 0.481929 -0.483912 182 148 111 255
0.450000 0.181929 -0.483912 182 148 111 255
-0.450000 -0.149103 -0.483912 173 143 113 255
-0.450000 0.150897 -0.483912 174 144 113 255
0.450000 0.150897 -0.483912 168 141 114 255
0.450000 -0.149103 -0.483912 168 141 114 255
0.450000 -0.149103 -0.443912 186 156 126 255
-0.450000 -0.149103 -0.443912 182 148 111 255
-0.450000 0.150897 -0.443912 182 148 111 255
0.450000 0.150897 -0.443912 172 143 113 255
0.478605 -0.484798 0.479249 172 143 113 255
0.481058 -0.184798 0.479733 168 141 114 255
-0.482298 -0.184798 0.479451 168 141 114 255
-0.482298 -0.484798 0.479451 168 141 114 255
0.441283 -0.184798 0.439144 182 148 111 255
-0.441866 -0.184798 0.439321 181 148 111 255
0.450000 0.181929 0.479249 177 141 106 255
0.450000 0.481929 0.479249 168 128 95 255
-0.450000 0.481929 0.479249 173 135 101 255
-0.450000 0.181929 0.479249 168 128 95 255
-0.450000 0.181929 0.439249 182 148 111 255
-0.450000 0.481929 0.439249 176 141 107 255
0.450000 0.481929 0.439249 180 145 109 255
0.450000 0.181929 0.439249 181 147 110 255
0.450000 -0.149103 0.479249 192 161 130 255
0.450000 0.150897 0.479249 192 161 130 255
-0.450000 0.150897 0.479249 186 154 120 255
-0.450000 -0.149103 0.479249 191 159 128 255
-0.450000 -0.149103 0.439249 191 160 128 255
0.450000 -0.149103 0.439249 191 160 129 255
0.450000 0.150897 0.439249 192 161 130 255
-0.450000 0.150897 0.439249 185 152 117 255
0.435418 -0.516388 -0.435418 102 67 31 255
0.435418 0.370981 -0.435418 102 67 32 255
0.435418 0.370981 0.435418 102 67 31 255
0.435418 -0.516388 0.435418 102 67 31 255
-0.435418 0.370981 0.435418 104 70 37 255
-0.435418 -0.516388 0.435418 108 78 51 255
-0.435418 0.370981 -0.435418 102 67 31 255
-0.435418 -0.516388 -0.435418 102 67 31 255
0.498148 -0.500000 -0.500037 146 117 84 255
0.498148 0.500000 -0.500037 145 116 83 255
0.498148 0.500000 -0.420037 145 116 84 255
0.498148 -0.500000 -0.420037 145 116 83 255
0.418148 0.500000 -0.420037 145 116 83 255
0.418148 -0.500000 -0.420037 145 116 83 255
0.418148 0.500000 -0.500037 145 116 83 255
0.418148 -0.500000 -0.500037 145 116 83 255
-0.421386 -0.500000 -0.500037 145 116 83 255
-0.421386 0.500000 -0.500037 145 116 83 255
-0.421386 0.500000 -0.420037 145 116 84 255
-0.421386 -0.500000 -0.420037 148 120 89 255
-0.501386 0.500000 -0.420037 145 116 83 255
-0.501386 -0.500000 -0.420037 146 117 85 255
-0.501386 0.500000 -0.500037 145 116 83 255
-0.501386 -0.500000 -0.500037 145 116 83 255
-0.421386 -0.500000 0.417879 145 116 83 255
-0.421386 0.500000 0.417879 145 116 83 255
-0.421386 0.500000 0.497879 145 116 83 255
-0.421386 -0.500000 0.497879 147 120 89 255
-0.501386 0.500000 0.497879 145 116 83 255
-0.501386 -0.500000 0.497879 145 116 83 255
-0.501386 0.500000 0.417879 145 116 83 255
-0.501386 -0.500000 0.417879 145 116 83 255
0.498148 -0.500000 0.417879 146 119 87 255
0.498148 0.500000 0.417879 145 116 83 255
0.498148 0.500000 0.497879 147 119 88 255
0.498148 -0.500000 0.497879 148 121 90 255
0.418148 0.500000 0.497879 145 116 83 255
0.418148 -0.500000 0.497879 145 116 83 255
0.418148 0.500000 0.417879 145 116 83 255
0.418148 -0.500000 0.417879 145 116 83 255
4 0 1 2 3
4 4 5 2 1
4 6 7 8 9
4 10 11 12 13
4 6 9 10 13
4 8 7 12 11
4 14 15 16 17
4 18 19 14 17
4 20 21 16 15
4 22 23 24 25
4 24 23 26 27
4 28 29 30 31
4 32 33 34 35
4 28 31 32 35
4 30 29 34 33
4 36 37 38 39
4 36 39 40 41
4 38 37 42 43
4 44 45 46 47
4 48 49 46 45
4 50 51 52 53
4 54 55 56 57
4 50 53 54 57
4 52 51 56 55
4 58 59 60 61
4 62 63 58 61
4 64 65 60 59
4 66 67 68 69
4 68 67 70 71
4 72 73 74 75
4 76 77 78 79
4 72 75 76 79
4 74 73 78 77
4 80 81 82 83
4 80 83 84 85
4 82 81 86 87
4 88 89 90 91
4 91 90 92 93
4 93 92 94 95
4 95 94 89 88
4 92 90 89 94
4 96 97 98 99
4 99 98 100 101
4 101 100 102 103
4 103 102 97 96
4 100 98 97 102
4 104 105 106 107
4 107 106 108 109
4 109 108 110 111
4 111 110 105 104
4 108 106 105 110
4 112 113 114 115
4 115 114 116 117
4 117 116 118 119
4 119 118 113 112
4 116 114 113 118
4 120 121 122 123
4 123 122 124 125
4 125 124 126 127
4 127 126 121 120
4 124 122 121 126
