ply
format ascii 1.0
comment Created by Blender 2.82 (sub 7) - www.blender.org, source file: 'woodenlockbox.blend'
element vertex 48
property float x
property float y
property float z
property uchar red
property uchar green
property uchar blue
property uchar alpha
element face 28
property list uchar uint vertex_indices
end_header
-0.480000 0.201878 0.480000 78 107 93 255
0.480000 0.201878 0.480000 78 107 93 255
0.480000 0.201878 -0.480000 76 104 91 255
-0.480000 0.201878 -0.480000 78 107 93 255
0.500000 0.102607 -0.500000 140 92 71 255
0.500000 0.202607 -0.500000 177 115 87 255
0.500000 0.202607 0.500000 177 115 87 255
0.500000 0.102607 0.500000 129 84 64 255
-0.500000 0.202607 0.500000 177 115 87 255
-0.500000 0.102607 0.500000 129 84 64 255
-0.500000 0.202607 -0.500000 177 115 88 255
-0.500000 0.102607 -0.500000 129 84 64 255
0.480630 0.202607 -0.480630 177 115 87 255
0.480630 0.202607 0.480630 177 115 87 255
0.480000 -0.497274 -0.480000 78 108 94 255
0.480000 0.102726 -0.480000 119 144 133 255
0.480000 0.102726 0.480000 119 144 133 255
0.480000 -0.497274 0.480000 78 107 93 255
-0.480000 0.102726 0.480000 119 144 133 255
-0.480000 -0.497274 0.480000 78 108 94 255
-0.480000 0.102726 -0.480000 119 144 133 255
-0.480000 -0.497274 -0.480000 78 108 94 255
0.500000 -0.500000 0.220000 113 77 60 255
0.500000 0.060000 0.220000 177 115 87 255
0.500000 0.060000 0.320000 177 115 87 255
0.500000 -0.500000 0.320000 117 78 61 255
-0.500000 0.060000 0.320000 177 115 87 255
-0.500000 -0.500000 0.320000 110 74 58 255
-0.500000 0.060000 0.220000 177 116 88 255
-0.500000 -0.500000 0.220000 110 74 58 255
0.498345 -0.047268 -0.068585 111 74 58 255
0.498345 0.102732 -0.068585 177 115 87 255
0.498345 0.102732 0.081415 177 115 87 255
0.498345 -0.047268 0.081415 110 74 58 255
0.478345 0.102732 0.081415 177 115 87 255
0.478345 -0.047268 0.081415 110 74 58 255
0.478345 -0.047268 -0.068585 110 74 58 255
0.478345 0.102732 -0.068585 177 115 87 255
0.500000 -0.500000 -0.320000 117 79 63 255
0.500000 0.060000 -0.320000 177 115 87 255
0.500000 0.060000 -0.220000 177 115 87 255
0.500000 -0.500000 -0.220000 110 74 58 255
-0.500000 0.060000 -0.220000 177 115 87 255
-0.500000 -0.500000 -0.220000 110 74 58 255
-0.500000 0.060000 -0.320000 177 116 88 255
-0.500000 -0.500000 -0.320000 110 74 58 255
-0.480630 0.202607 -0.480630 177 115 88 255
-0.480630 0.202607 0.480630 177 115 87 255
4 0 1 2 3
4 4 5 6 7
4 7 6 8 9
4 9 8 10 11
4 11 10 5 4
4 7 9 11 4
4 6 5 12 13
4 14 15 16 17
4 17 16 18 19
4 19 18 20 21
4 21 20 15 14
4 22 23 24 25
4 25 24 26 27
4 27 26 28 29
4 29 28 23 22
4 26 24 23 28
4 30 31 32 33
4 33 32 34 35
4 36 37 31 30
4 33 35 36 30
4 38 39 40 41
4 41 40 42 43
4 43 42 44 45
4 45 44 39 38
4 42 40 39 44
4 5 10 46 12
4 8 6 13 47
4 10 8 47 46
