ply
format ascii 1.0
comment Created by Blender 3.4.1 - www.blender.org
element vertex 60
property float x
property float y
property float z
property uchar red
property uchar green
property uchar blue
property uchar alpha
element face 58
property list uchar uint vertex_indices
end_header
0.500000 0.100001 -0.160208 186 132 93 255
0.500000 0.428909 -0.200000 168 121 83 255
0.500000 0.428909 0.200000 168 121 83 255
0.500000 0.100001 0.162678 204 146 100 255
0.100000 0.428909 0.200000 168 121 83 255
0.218767 0.100001 0.162678 203 145 99 255
0.100000 0.429062 0.091286 168 121 83 255
0.100000 0.254366 0.046577 206 148 101 255
0.218767 0.100001 -0.160208 206 148 101 255
0.100000 0.428909 -0.200000 168 121 83 255
0.260010 0.100001 0.120027 169 121 83 255
0.500063 0.100001 0.120027 168 121 83 255
0.500000 0.439095 0.226276 203 146 100 255
0.081244 0.439095 0.226276 206 148 101 255
0.100000 0.429062 -0.089321 168 121 83 255
0.100000 0.254366 -0.042621 206 148 101 255
-0.196674 0.353257 -0.042621 206 148 101 255
-0.196674 0.429062 -0.089321 168 121 83 255
-0.196674 0.429062 0.091286 168 121 83 255
-0.206288 0.428762 -0.198276 168 121 83 255
-0.206288 0.428762 0.196228 168 121 83 255
-0.196674 0.353257 0.046577 206 148 101 255
0.057682 0.500004 0.178762 206 148 101 255
-0.196674 0.500004 0.178762 205 147 100 255
0.500063 0.100001 -0.120027 169 121 83 255
0.500063 -0.199256 0.078649 196 141 96 255
0.500063 -0.199256 -0.080674 189 135 93 255
0.260010 0.100001 -0.120027 169 121 83 255
0.360275 -0.199256 0.078649 206 148 101 255
0.360275 -0.199256 -0.080674 206 148 101 255
0.322721 -0.207734 -0.159120 206 148 101 255
0.322721 -0.207734 0.155610 206 148 101 255
-0.259002 0.298178 0.097268 206 148 101 255
-0.416432 0.428762 0.196228 168 121 83 255
-0.363719 0.298178 0.097268 206 148 101 255
-0.259002 0.298178 -0.099316 206 148 101 255
-0.363719 0.298178 -0.099316 206 148 101 255
-0.416432 0.428762 -0.198276 168 121 83 255
-0.439061 0.433743 -0.218937 206 148 101 255
-0.196899 0.433743 -0.218937 206 148 101 255
0.299071 -0.414394 -0.197162 168 121 83 255
0.299071 -0.414394 0.197162 168 121 83 255
0.500063 -0.207734 0.155610 206 148 101 255
0.500063 -0.207734 -0.159120 189 135 93 255
0.500063 -0.414394 0.197162 168 121 83 255
0.500063 -0.414394 -0.197162 168 121 83 255
0.081244 0.439095 -0.224280 206 148 101 255
0.057666 0.500000 0.246593 168 121 83 255
0.057666 0.500000 -0.240409 168 121 83 255
0.500000 0.439095 -0.224280 206 148 101 255
0.500000 0.500000 0.246593 168 121 83 255
0.500000 0.500000 -0.240409 168 121 83 255
0.057682 0.500004 -0.169631 206 148 101 255
-0.196674 0.500004 -0.169631 206 148 101 255
-0.439061 0.433743 0.223044 206 148 101 255
-0.196899 0.433743 0.223044 206 148 101 255
-0.196899 0.499985 0.223044 168 121 83 255
-0.439061 0.499985 0.223044 168 121 83 255
-0.196899 0.499985 -0.218937 168 121 83 255
-0.439061 0.499985 -0.218937 168 121 83 255
4 0 1 2 3
4 3 2 4 5
4 5 4 6 7
4 8 9 1 0
4 3 5 10 11
4 4 2 12 13
4 14 15 16 17
4 9 8 15 14
4 8 5 7 15
4 4 9 14 6
4 18 17 19 20
4 15 7 21 16
4 18 6 22 23
4 7 6 18 21
4 24 11 25 26
4 0 3 11 24
4 5 8 27 10
4 8 0 24 27
4 28 29 30 31
4 27 24 26 29
4 11 10 28 25
4 10 27 29 28
4 32 20 33 34
4 21 18 20 32
4 17 16 35 19
4 16 21 32 35
4 19 35 36 37
4 35 32 34 36
4 19 37 38 39
4 31 30 40 41
4 26 25 42 43
4 29 26 43 30
4 25 28 31 42
4 44 41 40 45
4 43 42 44 45
4 30 43 45 40
4 42 31 41 44
4 34 33 37 36
4 46 13 47 48
4 9 4 13 46
4 2 1 49 12
4 1 9 46 49
4 47 50 51 48
4 12 49 51 50
4 49 46 48 51
4 13 12 50 47
4 22 52 53 23
4 6 14 52 22
4 14 17 53 52
4 17 18 23 53
4 54 55 56 57
4 20 19 39 55
4 33 20 55 54
4 37 33 54 38
4 56 58 59 57
4 55 39 58 56
4 39 38 59 58
4 38 54 57 59
