ply
format ascii 1.0
comment Created by Blender 2.78 (sub 0) - www.blender.org, source file: 'cottonstage1.blend'
element vertex 91
property float x
property float y
property float z
property uchar red
property uchar green
property uchar blue
element face 124
property list uchar uint vertex_indices
end_header
0.002690 -0.088868 -0.210259 106 191 72
0.088921 -0.156940 -0.145983 106 191 72
0.018517 -0.176679 -0.198462 106 191 72
0.073095 -0.069128 -0.157780 106 191 72
0.035133 -0.156940 -0.073821 106 191 72
0.019307 -0.069128 -0.085618 106 191 72
-0.035271 -0.176679 -0.126300 106 191 72
-0.051098 -0.088868 -0.138097 106 191 72
0.146263 -0.231535 -0.103242 106 191 72
0.200975 -0.338980 -0.062461 106 191 72
0.130546 -0.319376 -0.114957 106 191 72
0.216692 -0.251138 -0.050745 106 191 72
0.147187 -0.338980 0.009701 106 191 72
0.162904 -0.251138 0.021417 106 191 72
0.076758 -0.319376 -0.042795 106 191 72
0.092475 -0.231535 -0.031080 106 191 72
0.159462 -0.171086 -0.248337 106 191 72
0.215229 -0.259887 -0.176190 106 191 72
0.139137 -0.255330 -0.224040 106 191 72
0.191996 -0.144296 -0.128234 106 191 72
0.171671 -0.228540 -0.103937 106 191 72
0.115903 -0.139738 -0.176084 106 191 72
0.095578 -0.223982 -0.151787 106 191 72
0.136771 -0.318322 -0.074235 157 168 87
0.129308 -0.503291 -0.081505 152 159 82
0.103422 -0.501637 -0.099645 154 164 84
0.129308 -0.503291 -0.081505 157 168 87
0.142660 -0.325621 -0.029755 157 168 87
0.109677 -0.504152 -0.054340 157 168 87
0.117561 -0.318322 -0.048463 157 168 87
0.085049 -0.502738 -0.072697 157 168 87
0.103422 -0.501637 -0.099645 157 168 87
0.048393 -0.155697 -0.140110 152 158 82
0.029183 -0.155697 -0.114338 156 167 86
0.029183 -0.155697 -0.114338 157 168 87
0.004430 -0.164643 -0.132789 157 167 87
0.178414 -0.244731 -0.168050 157 168 87
0.162857 -0.233536 -0.142245 157 168 87
0.135290 -0.233743 -0.158775 157 168 87
-0.106127 -0.020188 0.325939 106 191 72
-0.170670 -0.099461 0.218602 106 191 72
-0.117973 -0.122449 0.306239 106 191 72
-0.158823 0.002799 0.238303 106 191 72
-0.080846 -0.099461 0.164590 106 191 72
-0.069000 0.002799 0.184291 106 191 72
-0.028149 -0.122449 0.252227 106 191 72
-0.016303 -0.020188 0.271928 106 191 72
-0.213589 -0.186330 0.147226 106 191 72
-0.254539 -0.311454 0.079123 106 191 72
-0.201824 -0.288626 0.166790 106 191 72
-0.266304 -0.209158 0.059558 106 191 72
-0.164716 -0.311454 0.025111 106 191 72
-0.123765 -0.186330 0.093214 106 191 72
-0.112001 -0.288626 0.112778 106 191 72
-0.176480 -0.209158 0.005547 106 191 72
-0.291876 -0.115935 0.297752 106 191 72
-0.320115 -0.219348 0.195383 106 191 72
-0.259246 -0.214040 0.280544 106 191 72
-0.352745 -0.121242 0.212591 106 191 72
-0.241275 -0.182842 0.136756 106 191 72
-0.213036 -0.079429 0.239125 106 191 72
-0.180406 -0.177534 0.221917 106 191 72
-0.273905 -0.084736 0.153964 106 191 72
-0.166218 -0.504818 0.160629 157 168 87
-0.209197 -0.297072 0.089153 157 168 87
-0.187860 -0.504436 0.133920 157 168 87
-0.152666 -0.504247 0.110526 157 168 87
-0.177117 -0.297072 0.069863 157 168 87
-0.134138 -0.504818 0.141339 157 168 87
-0.158331 -0.288572 0.101105 157 168 87
-0.152666 -0.504247 0.110526 255 255 255
-0.166218 -0.504818 0.160629 255 255 255
-0.187860 -0.504436 0.133920 255 255 255
-0.124468 -0.098445 0.230061 157 167 87
-0.124468 -0.098445 0.230061 157 168 87
-0.092388 -0.098445 0.210771 157 168 87
-0.073860 -0.108864 0.241583 157 168 87
-0.277403 -0.199814 0.203296 157 168 87
-0.249245 -0.186776 0.182358 157 168 87
-0.226837 -0.187018 0.212341 157 168 87
0.235554 -0.175644 -0.200487 106 191 72
0.161870 -0.325621 -0.055527 157 168 87
0.023640 -0.164643 -0.158561 154 161 84
0.048393 -0.155697 -0.140110 157 167 87
0.004430 -0.164643 -0.132789 157 168 87
0.023640 -0.164643 -0.158561 157 167 88
0.150846 -0.244939 -0.184579 157 168 87
-0.190411 -0.288572 0.120394 157 168 87
-0.134138 -0.504818 0.141339 255 255 255
-0.105940 -0.108864 0.260873 157 168 87
-0.254994 -0.200056 0.233280 157 168 87
3 0 1 2
3 3 4 1
3 5 6 4
3 7 2 6
3 4 2 1
3 5 0 7
3 8 9 10
3 11 12 9
3 13 14 12
3 15 10 14
3 12 10 9
3 13 8 15
3 16 17 18
3 17 19 20
3 20 21 22
3 21 18 22
3 20 18 17
3 19 16 21
3 23 24 25
3 26 27 28
3 28 29 30
3 29 31 30
3 31 32 26
3 26 33 28
3 34 30 28
3 35 31 30
3 31 36 26
3 26 37 28
3 37 30 28
3 38 31 30
3 39 40 41
3 42 43 40
3 44 45 43
3 45 39 41
3 43 41 40
3 42 46 44
3 47 48 49
3 50 51 48
3 51 52 53
3 52 49 53
3 48 53 49
3 54 47 52
3 55 56 57
3 58 59 56
3 59 60 61
3 60 57 61
3 59 57 56
3 58 60 62
3 63 64 65
3 64 66 65
3 67 68 66
3 69 63 68
3 70 71 72
3 63 73 65
3 74 66 65
3 75 68 66
3 76 63 68
3 65 68 63
3 63 77 65
3 77 66 65
3 78 68 66
3 79 63 68
3 0 3 1
3 3 5 4
3 5 7 6
3 7 0 2
3 4 6 2
3 5 3 0
3 8 11 9
3 11 13 12
3 13 15 14
3 15 8 10
3 12 14 10
3 13 11 8
3 16 80 17
3 17 80 19
3 20 19 21
3 21 16 18
3 20 22 18
3 19 80 16
3 23 81 24
3 26 81 27
3 28 27 29
3 29 23 31
3 31 82 32
3 26 83 33
3 34 84 30
3 35 85 31
3 31 86 36
3 26 36 37
3 37 38 30
3 38 86 31
3 39 42 40
3 42 44 43
3 44 46 45
3 45 46 39
3 43 45 41
3 42 39 46
3 47 50 48
3 50 54 51
3 51 54 52
3 52 47 49
3 48 51 53
3 54 50 47
3 55 58 56
3 58 62 59
3 59 62 60
3 60 55 57
3 59 61 57
3 58 55 60
3 63 87 64
3 64 67 66
3 67 69 68
3 69 87 63
3 70 88 71
3 63 89 73
3 74 75 66
3 75 76 68
3 76 89 63
3 65 66 68
3 63 90 77
3 77 78 66
3 78 79 68
3 79 90 63
