ply
format ascii 1.0
comment Created by Blender 3.3.1 - www.blender.org
element vertex 152
property float x
property float y
property float z
property uchar red
property uchar green
property uchar blue
property uchar alpha
element face 126
property list uchar uint vertex_indices
end_header
0.500000 0.417085 0.219101 133 68 16 255
0.500000 0.500000 0.500000 133 68 16 255
0.500000 -0.500000 0.500000 133 68 16 255
-0.441841 0.500000 0.441841 133 68 16 255
-0.500000 0.500000 0.500000 133 68 16 255
-0.500000 0.500000 -0.500000 134 69 21 255
0.441841 0.500000 -0.441841 133 68 16 255
0.500000 0.500000 -0.500000 133 68 16 255
-0.500000 0.500000 -0.441204 133 68 16 255
-0.441841 0.500000 -0.441841 133 68 16 255
0.500000 0.500000 0.441263 133 68 16 255
0.441841 0.500000 0.441841 133 68 16 255
0.500000 0.500000 -0.441204 133 68 16 255
-0.500000 0.500000 0.441263 133 68 16 255
0.346326 0.336585 0.275123 216 196 182 255
0.262774 0.424291 0.359568 216 195 181 255
0.258728 0.418304 0.440328 215 194 180 255
0.197447 0.417194 0.345221 216 195 181 255
0.149984 0.386866 0.376772 216 195 181 255
-0.176055 0.335252 0.173699 216 195 181 255
-0.019304 0.310757 0.219745 216 195 181 255
-0.211655 0.309631 0.143756 216 195 181 255
-0.098278 0.378321 0.264466 216 195 181 255
-0.078636 0.361297 0.323563 217 196 182 255
0.395941 0.489024 0.092887 139 149 162 255
0.395941 0.443124 0.040007 138 148 162 255
-0.404059 0.443124 0.040007 149 157 170 255
-0.404059 0.489024 0.092887 138 148 162 255
0.395941 0.373275 0.035072 138 148 162 255
-0.404059 0.373275 0.035072 139 149 162 255
-0.452711 0.387357 -0.039722 148 99 53 255
0.447289 0.387357 -0.039722 148 99 53 255
0.447289 0.404494 -0.029410 148 99 53 255
-0.452711 0.404494 -0.029410 148 99 53 255
-0.404059 0.343625 -0.028229 191 182 171 255
0.395941 0.343625 -0.028229 188 179 167 255
0.395941 0.412655 0.012203 187 178 166 255
-0.404059 0.412655 0.012203 191 183 172 255
-0.394059 0.370185 -0.073192 196 188 179 255
0.385941 0.370185 -0.073192 197 189 180 255
0.385941 0.352927 -0.083301 56 28 16 255
-0.394059 0.352927 -0.083301 80 62 54 255
0.395941 0.431210 0.208637 138 148 162 255
0.395941 0.320395 0.080973 140 150 163 255
-0.404059 0.315460 0.150822 138 148 162 255
-0.404059 0.361361 0.203702 138 148 162 255
-0.404059 0.484089 0.162736 139 149 162 255
-0.404059 0.431210 0.208637 138 148 162 255
-0.404059 0.320395 0.080973 139 149 163 255
-0.391921 0.387679 -0.002675 190 181 169 255
0.385137 0.387679 -0.002675 190 181 170 255
0.385137 0.370422 -0.012783 195 187 177 255
-0.391921 0.370422 -0.012783 192 184 173 255
-0.054000 0.411794 -0.423552 216 195 181 255
-0.156355 0.411794 -0.423552 216 195 181 255
-0.156355 0.420679 -0.418963 216 195 181 255
-0.054000 0.420679 -0.418963 216 195 181 255
0.395941 0.361361 0.203702 138 148 162 255
0.395941 0.315460 0.150822 138 148 162 255
-0.500000 0.417085 0.219101 133 68 16 255
-0.500000 0.417085 -0.225909 133 68 16 255
-0.500000 -0.500000 -0.500000 133 68 16 255
-0.500000 -0.500000 0.500000 133 68 16 255
0.395941 0.484089 0.162736 138 148 162 255
0.441841 0.419211 0.441841 168 121 72 255
0.441841 0.417085 0.219101 134 70 21 255
0.441841 0.309441 0.219101 168 121 72 255
0.500000 -0.500000 -0.500000 133 68 17 255
0.500000 0.417085 -0.225909 133 68 16 255
-0.441841 0.419211 0.441841 168 121 72 255
-0.441841 0.309441 0.219101 172 130 91 255
-0.394059 0.455609 -0.120490 56 28 16 255
0.385941 0.455610 -0.120490 56 28 16 255
0.385941 0.438352 -0.130598 56 28 16 255
-0.394059 0.438352 -0.130598 56 28 16 255
-0.452711 0.401639 0.135223 148 99 53 255
0.447289 0.401639 0.135223 148 99 53 255
0.447289 0.416356 0.121680 148 99 53 255
-0.452711 0.416356 0.121680 148 99 53 255
0.385577 0.487700 -0.004361 56 28 16 255
0.385577 0.456344 -0.022727 56 28 16 255
-0.391843 0.456344 -0.022727 56 28 16 255
-0.391843 0.487700 -0.004361 56 28 16 255
-0.394059 0.409878 -0.081985 199 192 183 255
-0.394059 0.427136 -0.071877 189 180 168 255
-0.394059 0.437244 -0.089134 56 28 16 255
-0.394059 0.419986 -0.099242 56 28 16 255
-0.174000 0.328882 -0.241273 216 195 181 255
-0.040504 0.328882 -0.241273 216 195 181 255
-0.441841 0.419211 -0.441841 168 121 72 255
-0.441841 0.309441 -0.225909 168 121 72 255
0.441841 0.309441 -0.225909 168 121 72 255
0.441841 0.419211 -0.441841 166 119 70 255
0.385577 0.477591 0.012896 56 28 16 255
0.385577 0.446236 -0.005469 56 28 16 255
0.395941 0.453088 -0.056827 191 183 173 255
-0.404059 0.453088 -0.056827 187 178 166 255
0.246059 0.319081 0.239738 216 195 181 255
0.256455 0.375984 0.261910 216 195 181 255
0.306167 0.387515 0.285221 216 195 181 255
0.441841 0.417085 -0.225909 133 68 16 255
-0.441841 0.417085 0.219101 133 69 17 255
-0.441841 0.417085 -0.225909 133 68 16 255
0.385577 0.428978 -0.015577 187 178 166 255
0.385577 0.439086 -0.032835 193 185 174 255
0.385941 0.437244 -0.089134 56 28 16 255
0.395941 0.384058 -0.097260 187 178 166 255
-0.404059 0.384058 -0.097260 201 195 186 255
-0.391921 0.360314 0.004474 56 28 16 255
-0.391921 0.377571 0.014582 56 28 16 255
0.385137 0.377571 0.014583 56 28 16 255
0.385137 0.359206 0.045938 56 28 16 255
-0.391921 0.359205 0.045938 56 28 16 255
0.385137 0.341948 0.035830 56 28 16 255
0.385137 0.360314 0.004474 56 28 16 255
0.447289 0.397669 -0.056859 148 99 53 255
-0.452711 0.397669 -0.056859 148 99 53 255
-0.452711 0.414805 -0.046547 148 99 53 255
0.447289 0.414806 -0.046547 148 99 53 255
0.385941 0.409878 -0.081985 188 179 167 255
0.385941 0.427136 -0.071877 190 182 170 255
-0.174000 0.319998 -0.245863 216 195 181 255
-0.040504 0.319998 -0.245863 216 195 181 255
0.385941 0.419986 -0.099242 56 28 16 255
-0.391843 0.439086 -0.032835 187 178 166 255
-0.391843 0.428978 -0.015577 187 178 166 255
-0.391843 0.446236 -0.005469 56 28 16 255
0.385941 0.321571 -0.101666 56 28 16 255
0.385941 0.342819 -0.066043 56 28 16 255
0.385941 0.311463 -0.084409 56 28 16 255
-0.452711 0.402813 0.106963 148 99 53 255
0.447289 0.402813 0.106963 148 99 53 255
0.447289 0.388096 0.120506 148 99 53 255
-0.452711 0.388096 0.120506 148 99 53 255
-0.391843 0.477591 0.012896 56 28 16 255
0.385941 0.360074 -0.055932 187 178 167 255
-0.394059 0.360076 -0.055935 188 179 167 255
-0.394059 0.342819 -0.066043 67 45 37 255
-0.394059 0.321571 -0.101666 61 36 27 255
0.128169 0.319998 -0.245863 216 195 181 255
0.261665 0.319998 -0.245863 216 195 181 255
0.261665 0.328882 -0.241273 216 195 181 255
0.128169 0.328882 -0.241273 216 195 181 255
-0.394059 0.311463 -0.084409 56 28 16 255
-0.391921 0.341948 0.035830 56 28 16 255
-0.240598 0.326359 0.251794 216 195 181 255
-0.196805 0.356819 0.220298 216 195 181 255
-0.089083 0.349158 0.204560 216 195 181 255
0.248169 0.411794 -0.423552 216 195 181 255
0.248169 0.420679 -0.418963 216 195 181 255
0.145814 0.411794 -0.423552 216 195 181 255
0.145814 0.420679 -0.418963 216 195 181 255
3 0 1 2
3 1 3 4
3 5 6 7
3 5 8 9
3 1 10 11
3 6 12 7
3 3 13 4
3 14 15 16
3 16 17 18
3 19 20 21
3 20 22 23
4 24 25 26 27
4 25 28 29 26
4 30 31 32 33
4 34 35 36 37
4 38 39 40 41
4 28 24 42 43
3 44 45 46
3 45 47 46
3 46 27 26
3 26 29 48
4 49 50 51 52
4 53 54 55 56
3 42 57 58
3 58 43 42
4 59 60 61 62
3 28 25 24
3 24 63 42
4 62 2 1 4
4 64 11 65 66
3 67 7 68
3 7 12 68
3 0 10 1
4 69 64 66 70
4 67 68 0 2
3 62 4 59
3 4 13 59
3 60 8 5
3 60 5 61
3 1 11 3
4 71 72 73 74
3 5 9 6
4 75 76 77 78
4 63 24 27 46
4 79 80 81 82
4 65 11 10 0
4 83 84 85 86
4 55 87 88 56
4 89 90 91 92
4 93 94 80 79
4 90 70 66 91
4 37 36 95 96
4 14 97 98 99
4 92 91 100 6
4 69 70 101 3
4 89 9 102 90
4 102 9 8 60
4 12 6 100 68
4 69 3 11 64
4 94 103 104 80
4 71 85 105 72
4 96 95 106 107
4 57 42 47 45
4 66 65 100 91
4 95 36 35 106
4 49 52 108 109
4 50 49 109 110
4 111 110 109 112
4 113 114 110 111
4 42 63 46 47
4 115 116 117 118
4 83 119 120 84
4 84 120 105 85
4 101 102 60 59
4 121 122 88 87
4 72 105 123 73
4 119 83 86 123
4 124 104 103 125
4 125 103 94 126
4 100 65 0 68
4 70 90 102 101
4 127 40 128 129
4 73 123 86 74
4 104 124 81 80
4 33 32 118 117
4 34 37 96 107
4 81 124 125 126
4 130 131 132 133
4 134 126 94 93
4 133 132 76 75
4 35 34 107 106
4 13 3 101 59
4 134 93 79 82
4 134 82 81 126
4 39 135 128 40
4 105 120 119 123
4 136 38 41 137
4 138 41 40 127
4 51 50 110 114
4 92 6 9 89
4 139 140 141 142
4 30 116 115 31
4 28 43 48 29
4 58 57 45 44
4 138 143 137 41
4 144 112 109 108
4 145 23 22 146
4 97 18 17 98
3 14 99 15
3 16 15 17
4 147 19 146 22
4 21 145 146 19
3 19 147 20
3 20 147 22
4 46 26 48 44
4 131 130 78 77
4 136 135 39 38
4 54 121 87 55
4 122 53 56 88
4 15 99 98 17
4 67 61 5 7
4 141 140 148 149
4 150 139 142 151
4 71 74 86 85
4 151 142 141 149
4 148 150 151 149
