ply
format ascii 1.0
comment Created by Blender 2.78 (sub 0) - www.blender.org, source file: 'cottonstage2.blend'
element vertex 80
property float x
property float y
property float z
property uchar red
property uchar green
property uchar blue
element face 120
property list uchar uint vertex_indices
end_header
-0.062386 0.340320 -0.375546 191 182 160
0.112104 0.202577 -0.245485 191 182 160
-0.030360 0.162633 -0.351675 191 182 160
0.080079 0.380263 -0.269356 191 182 160
0.003264 0.202577 -0.099465 191 182 160
-0.028762 0.380263 -0.123336 191 182 160
-0.139201 0.162633 -0.205655 191 182 160
-0.171226 0.340320 -0.229527 191 182 160
0.228135 0.051634 -0.158997 191 182 160
0.338845 -0.165782 -0.076476 191 182 160
0.196331 -0.126115 -0.182703 191 182 160
0.370649 0.011967 -0.052770 191 182 160
0.230005 -0.165782 0.069544 191 182 160
0.261809 0.011967 0.093250 191 182 160
0.087491 -0.126115 -0.036684 191 182 160
0.119295 0.051634 -0.012978 191 182 160
0.254843 0.173952 -0.452599 191 182 160
0.367688 -0.005738 -0.306608 191 182 160
0.213715 0.003484 -0.403433 191 182 160
0.408816 0.164729 -0.355773 191 182 160
0.279548 0.057694 -0.160404 191 182 160
0.320676 0.228162 -0.209569 191 182 160
0.125575 0.066917 -0.257229 191 182 160
0.166702 0.237384 -0.306394 191 182 160
0.208549 -0.126006 -0.100585 115 78 48
0.193828 -0.504949 -0.115013 115 78 48
0.141608 -0.506200 -0.151226 115 78 48
0.259337 -0.140776 -0.062729 115 78 48
0.157420 -0.505286 -0.062841 115 78 48
0.220465 -0.140776 -0.010579 115 78 48
0.105200 -0.507381 -0.099054 115 78 48
0.169677 -0.126006 -0.048435 115 78 48
0.031599 0.198622 -0.232480 115 78 48
-0.007273 0.198622 -0.180330 115 78 48
-0.057362 0.180518 -0.217666 115 78 48
0.238022 0.027809 -0.324646 115 78 48
0.293804 0.028229 -0.291199 115 78 48
0.262326 0.050883 -0.238983 115 78 48
0.206543 0.050464 -0.272430 115 78 48
-0.173040 -0.109005 0.069599 115 78 48
-0.164532 -0.505127 0.089376 115 78 48
-0.128321 -0.507477 0.145182 115 78 48
-0.207212 -0.124467 0.012770 115 78 48
-0.108557 -0.505441 0.053289 115 78 48
-0.114687 -0.109005 0.034511 115 78 48
-0.072346 -0.506751 0.109094 115 78 48
-0.018877 0.221658 0.325979 115 78 48
-0.052579 0.240609 0.269931 115 78 48
0.039476 0.221657 0.290891 115 78 48
-0.330998 0.051609 0.220122 115 78 48
-0.279780 0.075325 0.182036 115 78 48
-0.290237 0.051169 0.274663 115 78 48
-0.019751 0.379379 0.443445 191 182 160
-0.137154 0.235183 0.248199 191 182 160
-0.041299 0.193368 0.407610 191 182 160
-0.115606 0.421194 0.284034 191 182 160
0.026236 0.235183 0.149952 191 182 160
0.047784 0.421194 0.185787 191 182 160
0.122091 0.193368 0.309363 191 182 160
0.143639 0.379379 0.345198 191 182 160
-0.193824 -0.108907 0.153953 191 182 160
-0.311111 0.035643 -0.041101 191 182 160
-0.289713 -0.150433 -0.005514 191 182 160
-0.126323 -0.150433 -0.103761 191 182 160
-0.147722 0.035643 -0.139348 191 182 160
-0.030435 -0.108907 0.055706 191 182 160
-0.215223 0.077168 0.118366 191 182 160
-0.051834 0.077168 0.020119 191 182 160
-0.357628 0.205217 0.392173 191 182 160
-0.408995 0.017108 0.205964 191 182 160
-0.298274 0.026763 0.360871 191 182 160
-0.468349 0.195562 0.237265 191 182 160
-0.265584 0.083513 0.099322 191 182 160
-0.214218 0.271621 0.285531 191 182 160
-0.154864 0.093167 0.254229 191 182 160
-0.324939 0.261967 0.130623 191 182 160
-0.018490 0.180518 -0.269816 115 78 48
-0.148858 -0.124467 -0.022318 115 78 48
0.005774 0.240609 0.234843 115 78 48
-0.239019 0.074885 0.236576 115 78 48
3 0 1 2
3 3 4 1
3 5 6 4
3 7 2 6
3 4 2 1
3 3 7 5
3 8 9 10
3 11 12 9
3 13 14 12
3 15 10 14
3 12 10 9
3 11 15 13
3 16 17 18
3 19 20 17
3 21 22 20
3 22 16 18
3 17 22 18
3 19 23 21
3 24 25 26
3 27 28 25
3 29 30 28
3 31 26 30
3 26 32 25
3 32 28 25
3 33 30 28
3 34 26 30
3 35 25 26
3 36 28 25
3 37 30 28
3 38 26 30
3 39 40 41
3 42 43 40
3 43 44 45
3 44 41 45
3 46 40 41
3 47 43 40
3 43 48 45
3 45 46 41
3 41 49 40
3 49 43 40
3 50 45 43
3 45 51 41
3 52 53 54
3 55 56 53
3 57 58 56
3 58 52 54
3 56 54 53
3 55 59 57
3 60 61 62
3 61 63 62
3 64 65 63
3 65 66 60
3 62 65 60
3 61 67 64
3 68 69 70
3 71 72 69
3 72 73 74
3 73 70 74
3 69 74 70
3 71 73 75
3 0 3 1
3 3 5 4
3 5 7 6
3 7 0 2
3 4 6 2
3 3 0 7
3 8 11 9
3 11 13 12
3 13 15 14
3 15 8 10
3 12 14 10
3 11 8 15
3 16 19 17
3 19 21 20
3 21 23 22
3 22 23 16
3 17 20 22
3 19 16 23
3 24 27 25
3 27 29 28
3 29 31 30
3 31 24 26
3 26 76 32
3 32 33 28
3 33 34 30
3 34 76 26
3 35 36 25
3 36 37 28
3 37 38 30
3 38 35 26
3 39 42 40
3 42 77 43
3 43 77 44
3 44 39 41
3 46 47 40
3 47 78 43
3 43 78 48
3 45 48 46
3 41 51 49
3 49 50 43
3 50 79 45
3 45 79 51
3 52 55 53
3 55 57 56
3 57 59 58
3 58 59 52
3 56 58 54
3 55 52 59
3 60 66 61
3 61 64 63
3 64 67 65
3 65 67 66
3 62 63 65
3 61 66 67
3 68 71 69
3 71 75 72
3 72 75 73
3 73 68 70
3 69 72 74
3 71 68 73
