ply
format ascii 1.0
comment Created by Blender 2.78 (sub 0) - www.blender.org, source file: 'crossbowbolt.blend'
element vertex 38
property float x
property float y
property float z
property uchar red
property uchar green
property uchar blue
element face 62
property list uchar uint vertex_indices
end_header
0.005281 0.000108 -0.241595 0 255 0
0.003817 -0.003428 -0.241595 0 255 0
0.000281 0.000108 -0.241595 0 255 0
0.000281 -0.004892 -0.241595 0 255 0
-0.003254 -0.003428 -0.241595 0 255 0
-0.004719 0.000108 -0.241595 0 255 0
0.003817 -0.003428 0.191329 0 255 0
0.000281 -0.004892 0.191329 0 255 0
-0.003254 -0.003428 0.191329 0 255 0
-0.004719 0.000108 0.191329 0 255 0
0.004435 -0.004046 0.190971 255 0 0
0.005083 0.000013 0.206520 255 0 0
0.003507 -0.003413 0.206973 255 0 0
-0.003873 -0.004046 0.190971 255 0 0
-0.000055 -0.004940 0.206520 255 0 0
-0.003508 -0.003615 0.206671 255 0 0
-0.005593 0.000108 0.190971 255 0 0
-0.004887 -0.000027 0.206973 255 0 0
0.000282 -0.005767 0.190971 255 0 0
0.003817 0.003644 -0.241350 0 255 0
0.000281 0.005108 -0.241595 0 255 0
-0.003254 0.003644 -0.241595 0 255 0
0.005281 0.000108 0.191329 0 255 0
0.003817 0.003644 0.191329 0 255 0
0.000281 0.005108 0.191329 0 255 0
-0.003254 0.003644 0.191329 0 255 0
0.004435 0.004262 0.190971 255 0 0
0.006156 0.000108 0.190971 255 0 0
-0.003679 0.003592 0.206973 255 0 0
-0.003873 0.004262 0.190971 255 0 0
-0.000600 -0.015113 0.191490 255 0 0
-0.015337 -0.000376 0.191490 255 0 0
-0.000600 -0.000376 0.279748 255 0 0
0.014136 -0.000376 0.191490 255 0 0
-0.000600 0.014360 0.191490 255 0 0
0.003772 0.003856 0.206973 255 0 0
-0.000063 0.005099 0.206520 255 0 0
0.000282 0.005983 0.190971 255 0 0
3 0 1 2
3 1 3 2
3 3 4 2
3 4 5 2
3 0 6 1
3 1 7 3
3 3 8 4
3 4 9 5
3 10 11 12
3 13 14 15
3 16 15 17
3 10 14 18
3 0 2 19
3 19 2 20
3 20 2 21
3 21 2 5
3 22 19 23
3 24 19 20
3 25 20 21
3 5 25 21
3 26 11 27
3 16 28 29
3 30 15 14
3 31 15 32
3 33 12 11
3 34 35 36
3 31 32 28
3 30 14 12
3 17 31 15
3 33 35 32
3 35 34 32
3 28 32 34
3 15 30 32
3 34 36 28
3 31 28 17
3 33 32 12
3 12 32 30
3 33 11 35
3 26 36 35
3 36 29 28
3 16 26 27
3 0 22 6
3 1 6 7
3 3 7 8
3 4 8 9
3 10 27 11
3 13 18 14
3 16 13 15
3 10 12 14
3 22 0 19
3 24 23 19
3 25 24 20
3 5 9 25
3 26 35 11
3 16 17 28
3 26 37 36
3 36 37 29
3 27 10 16
3 18 13 16
3 16 29 37
3 37 26 16
3 10 18 16
