ply
format ascii 1.0
comment Created by Blender 2.82 (sub 7) - www.blender.org, source file: 'crossbow.blend'
element vertex 98
property float x
property float y
property float z
property uchar red
property uchar green
property uchar blue
property uchar alpha
element face 66
property list uchar uint vertex_indices
end_header
-0.428644 0.324567 0.202704 197 181 184 255
-0.471645 0.419237 0.202704 197 181 184 255
-0.471645 0.419237 0.191572 197 181 184 255
-0.428631 0.324567 0.191572 197 181 184 255
-0.428614 0.435886 0.191572 197 181 184 255
-0.428614 0.324567 0.191572 197 181 184 255
-0.428614 0.435886 0.202704 197 181 184 255
-0.404812 -0.408654 0.185138 168 105 72 255
-0.404812 0.451346 0.185138 168 106 73 255
-0.404812 0.451346 0.209138 168 105 73 255
-0.404812 -0.408654 0.209138 172 115 87 255
-0.428812 0.451346 0.209138 168 106 74 255
-0.428812 -0.408654 0.209138 168 105 72 255
-0.428812 0.451346 0.185138 168 105 72 255
-0.428812 -0.408654 0.185138 171 113 84 255
-0.404951 0.324567 0.191572 197 181 184 255
-0.361949 0.419237 0.191572 197 181 184 255
-0.361949 0.419237 0.202704 197 181 184 255
-0.404963 0.324567 0.202704 197 181 184 255
-0.404981 0.435886 0.202704 197 181 184 255
-0.404981 0.324567 0.202704 197 181 184 255
-0.404981 0.435886 0.191572 197 181 184 255
-0.375000 -0.450000 -0.290000 127 120 125 255
-0.375000 0.350000 -0.290000 151 142 149 255
-0.375000 0.350000 -0.270000 144 136 142 255
-0.375000 -0.450000 -0.270000 132 125 130 255
-0.475000 0.350000 -0.270000 155 146 153 255
-0.475000 -0.450000 -0.270000 126 119 124 255
-0.475000 0.350000 -0.290000 155 146 153 255
-0.475000 -0.450000 -0.290000 134 127 132 255
-0.350075 -0.498940 -0.300000 131 124 129 255
-0.350075 -0.378940 -0.300000 132 125 130 255
-0.350075 -0.378940 0.300000 126 119 124 255
-0.350075 -0.498940 0.300000 126 119 124 255
-0.500075 -0.378940 0.300000 126 119 124 255
-0.500075 -0.498940 0.300000 126 119 124 255
-0.500075 -0.378940 -0.300000 126 119 124 255
-0.500075 -0.498940 -0.300000 126 120 125 255
-0.350075 0.271766 -0.300000 126 119 124 255
-0.350075 0.303766 -0.300000 126 119 124 255
-0.350075 0.303766 0.300000 126 119 124 255
-0.350075 0.271766 0.300000 127 120 125 255
-0.500075 0.303766 0.300000 126 119 124 255
-0.500075 0.271766 0.300000 127 120 125 255
-0.500075 0.303766 -0.300000 126 119 124 255
-0.500075 0.271766 -0.300000 126 119 124 255
-0.375000 -0.450000 0.270000 127 120 125 255
-0.375000 0.350000 0.270000 153 144 151 255
-0.375000 0.350000 0.290000 146 139 144 255
-0.375000 -0.450000 0.290000 132 125 130 255
-0.475000 0.350000 0.290000 155 146 153 255
-0.475000 -0.450000 0.290000 126 119 124 255
-0.475000 0.350000 0.270000 155 146 153 255
-0.475000 -0.450000 0.270000 134 127 132 255
-0.428644 0.324567 0.123040 197 181 184 255
-0.471645 0.419237 0.123040 197 181 184 255
-0.471645 0.419237 0.111909 197 181 184 255
-0.428631 0.324567 0.111909 197 181 184 255
-0.428613 0.435886 0.111909 197 181 184 255
-0.428613 0.324567 0.111909 197 181 184 255
-0.428613 0.435886 0.123040 197 181 184 255
-0.404812 -0.408654 0.105475 168 105 72 255
-0.404812 0.451346 0.105475 168 106 73 255
-0.404812 0.451346 0.129475 168 105 73 255
-0.404812 -0.408654 0.129475 172 115 87 255
-0.428812 0.451346 0.129475 168 106 74 255
-0.428812 -0.408654 0.129475 168 105 72 255
-0.428812 0.451346 0.105475 168 105 72 255
-0.428812 -0.408654 0.105475 171 113 84 255
-0.404951 0.324567 0.111909 197 181 184 255
-0.361949 0.419237 0.111909 197 181 184 255
-0.361949 0.419237 0.123040 197 181 184 255
-0.404963 0.324567 0.123040 197 181 184 255
-0.404981 0.435886 0.123040 197 181 184 255
-0.404981 0.324567 0.123040 197 181 184 255
-0.404981 0.435886 0.111909 197 181 184 255
-0.428644 0.324567 0.036014 197 181 184 255
-0.471645 0.419237 0.036014 197 181 184 255
-0.471645 0.419237 0.024882 197 181 184 255
-0.428631 0.324567 0.024882 197 181 184 255
-0.428613 0.435886 0.024882 197 181 184 255
-0.428613 0.324567 0.024882 197 181 184 255
-0.428613 0.435886 0.036014 197 181 184 255
-0.404812 -0.408654 0.018448 168 105 72 255
-0.404812 0.451346 0.018448 168 106 73 255
-0.404812 0.451346 0.042448 168 105 73 255
-0.404812 -0.408654 0.042448 172 115 87 255
-0.428812 0.451346 0.042448 168 106 74 255
-0.428812 -0.408654 0.042448 168 105 72 255
-0.428812 0.451346 0.018448 168 105 72 255
-0.428812 -0.408654 0.018448 171 113 84 255
-0.404951 0.324567 0.024882 197 181 184 255
-0.361949 0.419237 0.024882 197 181 184 255
-0.361949 0.419237 0.036014 197 181 184 255
-0.404963 0.324567 0.036014 197 181 184 255
-0.404981 0.435886 0.036014 197 181 184 255
-0.404981 0.324567 0.036014 197 181 184 255
-0.404981 0.435886 0.024882 197 181 184 255
4 0 1 2 3
4 3 2 4 5
3 0 6 1
3 3 5 0
4 4 2 1 6
4 7 8 9 10
4 10 9 11 12
4 12 11 13 14
4 14 13 8 7
4 11 9 8 13
4 15 16 17 18
4 18 17 19 20
3 15 21 16
3 18 20 15
4 19 17 16 21
4 22 23 24 25
4 25 24 26 27
4 27 26 28 29
4 29 28 23 22
4 26 24 23 28
4 30 31 32 33
4 33 32 34 35
4 35 34 36 37
4 37 36 31 30
4 34 32 31 36
4 38 39 40 41
4 41 40 42 43
4 43 42 44 45
4 45 44 39 38
4 41 43 45 38
4 42 40 39 44
4 46 47 48 49
4 49 48 50 51
4 51 50 52 53
4 53 52 47 46
4 50 48 47 52
4 54 55 56 57
4 57 56 58 59
3 54 60 55
3 57 59 54
4 58 56 55 60
4 61 62 63 64
4 64 63 65 66
4 66 65 67 68
4 68 67 62 61
4 65 63 62 67
4 69 70 71 72
4 72 71 73 74
3 69 75 70
3 72 74 69
4 73 71 70 75
4 76 77 78 79
4 79 78 80 81
3 76 82 77
3 79 81 76
4 80 78 77 82
4 83 84 85 86
4 86 85 87 88
4 88 87 89 90
4 90 89 84 83
4 87 85 84 89
4 91 92 93 94
4 94 93 95 96
3 91 97 92
3 94 96 91
4 95 93 92 97
