ply
format ascii 1.0
comment Created by Blender 2.83.20 - www.blender.org, source file: 'CrownMouldingOutsideCorner.blend'
element vertex 21
property float x
property float y
property float z
property uchar red
property uchar green
property uchar blue
property uchar alpha
element face 22
property list uchar uint vertex_indices
end_header
-0.422951 0.385967 0.423451 223 207 198 255
-0.499994 0.385967 0.423451 223 207 198 255
-0.499983 0.437119 0.354323 223 207 198 255
-0.354251 0.437119 0.354323 223 207 198 255
-0.500000 0.499868 0.500430 225 210 201 255
-0.422948 0.385967 0.500430 225 210 202 255
-0.354254 0.437119 0.500430 225 210 202 255
-0.354254 0.499868 0.500430 224 208 199 255
-0.499994 0.339988 0.423451 223 207 198 255
-0.422948 0.339988 0.500430 225 210 202 255
-0.499996 0.283292 0.468612 223 207 198 255
-0.468049 0.283292 0.500430 225 210 202 255
-0.500000 0.170953 0.500430 225 210 201 255
-0.468049 0.170953 0.500430 225 210 202 255
-0.468049 0.170953 0.468612 223 207 198 255
-0.468049 0.283292 0.468612 223 207 198 255
-0.422951 0.339988 0.423451 223 207 198 255
-0.499996 0.170953 0.468612 223 207 198 255
-0.354251 0.499868 0.354323 223 207 198 255
-0.499983 0.499868 0.354323 223 207 198 255
-0.500000 0.499868 0.500430 227 213 206 255
4 0 1 2 3
4 4 5 6 7
3 4 1 8
3 5 4 9
3 4 8 10
3 9 4 11
3 11 12 13
3 10 12 4
4 14 15 11 13
4 8 1 0 16
4 13 12 17 14
4 7 18 19 20
4 0 3 6 5
4 2 1 20 19
4 17 10 15 14
4 16 0 5 9
4 15 16 9 11
4 15 10 8 16
3 11 4 12
4 6 3 18 7
3 10 17 12
4 3 2 19 18
