ply
format ascii 1.0
comment Created by Blender 2.83.20 - www.blender.org, source file: 'CrownMouldingCorner.blend'
element vertex 29
property float x
property float y
property float z
property uchar red
property uchar green
property uchar blue
property uchar alpha
element face 30
property list uchar uint vertex_indices
end_header
0.500000 0.499868 0.499999 225 210 202 255
0.499996 0.385967 0.423021 223 207 198 255
0.500003 0.437119 0.353892 223 207 198 255
0.500003 0.499868 0.353892 223 207 198 255
-0.499998 0.499868 -0.499996 227 213 206 255
-0.353882 0.499868 0.353893 223 207 198 255
-0.353890 0.499868 -0.499978 223 207 198 255
-0.468179 0.283292 -0.499991 223 207 198 255
-0.468179 0.170953 -0.499991 223 207 198 255
-0.499998 0.170953 -0.499996 225 210 201 255
-0.499998 0.499868 -0.499996 225 210 201 255
-0.423019 0.385967 -0.499989 223 207 198 255
-0.423019 0.339988 -0.499989 223 207 198 255
-0.468180 0.170953 0.468184 223 207 198 255
0.500000 0.283292 0.468181 223 207 198 255
-0.468180 0.283292 0.468184 223 207 198 255
-0.423017 0.339988 0.423021 223 207 198 255
0.499996 0.339988 0.423021 223 207 198 255
-0.499999 0.170953 0.500002 225 210 202 255
-0.499999 0.499868 0.500002 224 208 199 255
-0.423017 0.385967 0.423021 223 207 198 255
-0.353882 0.437119 0.353893 223 207 198 255
0.500000 0.499868 0.499999 224 208 199 255
-0.353890 0.437119 -0.499978 223 207 198 255
0.500000 0.170953 0.499999 225 210 202 255
-0.499999 0.170953 0.500002 225 210 201 255
0.500000 0.170953 0.468181 223 207 198 255
-0.499999 0.499868 0.500002 225 210 201 255
-0.499999 0.499868 0.500002 227 213 206 255
4 0 1 2 3
3 4 5 6
3 7 8 9
3 10 11 12
3 9 8 13
3 10 12 7
4 14 15 16 17
3 9 13 18
3 4 19 5
3 7 9 10
4 7 12 16 15
4 1 20 21 2
3 5 22 3
3 1 0 17
4 21 23 6 5
3 17 0 14
3 13 24 25
4 12 11 20 16
3 14 24 26
4 24 22 27 25
3 5 28 22
4 11 23 21 20
4 2 21 5 3
4 13 15 14 26
4 8 7 15 13
4 23 11 4 6
3 13 26 24
3 14 0 24
4 18 19 10 9
4 16 20 1 17
