ply
format ascii 1.0
comment Created by Blender 2.83.20 - www.blender.org, source file: 'CrownMouldingStraight.blend'
element vertex 18
property float x
property float y
property float z
property uchar red
property uchar green
property uchar blue
property uchar alpha
element face 18
property list uchar uint vertex_indices
end_header
-0.500430 0.499868 0.500000 225 210 202 255
-0.423451 0.385967 0.499996 223 207 198 255
-0.354322 0.437119 0.500003 223 207 198 255
-0.354323 0.437119 -0.499983 223 207 198 255
-0.500430 0.499868 -0.500000 227 213 206 255
-0.354323 0.499868 -0.499983 223 207 198 255
-0.354322 0.499868 0.500003 223 207 198 255
-0.500430 0.170953 -0.500000 225 210 201 255
-0.500430 0.499868 -0.500000 225 210 201 255
-0.468612 0.283292 -0.499995 223 207 198 255
-0.468612 0.170953 -0.499995 223 207 198 255
-0.423452 0.385967 -0.499993 223 207 198 255
-0.500430 0.170953 0.500000 225 210 202 255
-0.468612 0.170953 0.500000 223 207 198 255
-0.423452 0.339988 -0.499993 223 207 198 255
-0.423451 0.339988 0.499996 223 207 198 255
-0.468612 0.283292 0.500000 223 207 198 255
-0.500430 0.499868 0.500000 224 208 199 255
3 0 1 2
3 3 4 5
4 2 3 5 6
3 0 2 6
4 7 8 9 10
3 8 3 11
4 12 7 10 13
4 9 14 15 16
4 13 16 0 12
3 16 15 0
3 9 8 14
3 8 11 14
4 14 11 1 15
4 17 6 5 4
4 10 9 16 13
4 1 11 3 2
4 17 8 7 12
3 15 1 0
