ply
format ascii 1.0
comment Created by Blender 2.83.20 - www.blender.org, source file: 'dyer.blend'
element vertex 280
property float x
property float y
property float z
property uchar red
property uchar green
property uchar blue
property uchar alpha
element face 257
property list uchar uint vertex_indices
end_header
-0.450000 0.299757 -0.450000 140 92 68 255
0.500286 0.299757 -0.500286 140 92 68 255
0.450000 0.299757 -0.450000 140 92 68 255
-0.450000 -0.500243 0.450000 155 118 95 255
0.450000 -0.500243 0.450000 155 118 95 255
0.450000 0.299757 0.450000 155 118 95 255
-0.450000 0.299757 0.450000 155 118 95 255
0.500286 0.299757 0.500286 140 92 68 255
0.450000 0.299757 0.450000 140 92 68 255
-0.450000 0.299757 0.450000 140 92 68 255
-0.500286 0.299757 -0.500286 140 92 68 255
-0.500286 0.299757 0.500286 140 92 68 255
0.429267 0.312687 0.427365 135 84 72 255
0.429267 0.312687 0.477365 135 84 72 255
0.429267 1.012687 0.477365 135 84 72 255
0.429267 1.012687 0.427365 135 84 72 255
0.479267 0.312687 0.477365 135 84 72 255
0.479267 1.012687 0.477365 135 84 72 255
0.472679 1.002447 -0.150777 143 52 57 255
0.412804 0.982447 -0.150777 143 52 57 255
0.494804 0.982447 -0.150777 142 52 57 255
0.450000 -0.500243 -0.450000 155 118 95 255
0.450000 0.299757 -0.450000 155 118 95 255
0.412804 0.982447 -0.398619 143 52 57 255
0.472679 1.002447 -0.398619 143 52 57 255
0.494804 0.982447 -0.398619 142 52 57 255
0.472679 1.002447 0.122548 190 171 166 255
0.412804 0.982447 0.122548 189 170 165 255
0.494804 0.982447 0.122548 190 171 166 255
0.412804 0.982447 -0.125295 189 170 165 255
0.472679 1.002447 -0.125295 190 171 166 255
0.494804 0.982447 -0.125295 189 170 165 255
0.472679 1.002447 0.398619 56 79 121 255
0.412804 0.982447 0.398619 45 71 116 255
0.494804 0.982447 0.398619 45 71 116 255
-0.450000 -0.500243 -0.450000 155 118 95 255
-0.450000 0.299757 -0.450000 155 118 95 255
0.412804 0.982447 0.150777 45 71 116 255
0.472679 1.002447 0.150777 45 71 116 255
0.494804 0.982447 0.150777 45 71 116 255
0.277482 0.766132 0.429773 191 151 109 255
0.305139 0.766132 0.447648 229 194 164 255
0.323014 0.766132 0.429773 191 151 109 255
0.323014 0.766132 0.475305 191 151 109 255
0.295357 0.766132 0.457430 229 194 164 255
0.277482 0.766132 0.475305 191 151 109 255
0.295357 0.766132 0.447648 228 193 163 255
0.305139 0.766132 0.457430 229 194 164 255
0.117787 0.748248 0.429773 191 151 109 255
0.145444 0.748248 0.447648 229 194 164 255
0.163319 0.748248 0.429773 191 151 109 255
0.163319 0.748248 0.475305 191 151 109 255
0.135662 0.748248 0.457430 229 194 164 255
0.117787 0.748248 0.475305 191 151 109 255
0.135662 0.748248 0.447648 228 193 163 255
0.145444 0.748248 0.457430 229 194 164 255
-0.500286 0.349286 -0.500286 140 92 68 255
-0.500286 0.349286 0.500286 140 92 68 255
0.500286 0.349286 0.500286 140 92 68 255
0.500286 0.349286 -0.500286 140 92 68 255
-0.045479 0.773418 0.429773 191 151 109 255
-0.017823 0.773418 0.447648 229 194 164 255
0.000053 0.773418 0.429773 191 151 109 255
0.000053 0.773418 0.475305 191 151 109 255
-0.027604 0.773418 0.457430 229 194 164 255
-0.045479 0.773418 0.475305 191 151 109 255
-0.027604 0.773418 0.447648 228 193 163 255
-0.017823 0.773418 0.457430 229 194 164 255
0.479267 0.312687 0.427365 135 84 72 255
0.479267 1.012687 0.427365 135 84 72 255
0.221171 0.518508 -0.403503 169 109 60 255
0.327667 0.518508 -0.463938 192 121 67 255
0.325132 0.518508 -0.456195 165 107 59 255
0.377824 0.518508 -0.352233 165 107 59 255
0.271328 0.518508 -0.291798 189 121 65 255
0.273863 0.518508 -0.299542 168 108 60 255
0.385567 0.518508 -0.349699 193 123 67 255
0.213428 0.518508 -0.406038 197 125 68 255
0.409816 0.493617 -0.246048 165 107 59 255
0.305198 0.493617 -0.228368 197 125 68 255
0.413631 0.493617 -0.251988 192 121 67 255
0.332633 0.493617 -0.125874 168 108 60 255
0.437251 0.493617 -0.143554 193 123 67 255
0.328818 0.493617 -0.119934 189 121 65 255
0.431311 0.493617 -0.147369 165 107 59 255
0.311138 0.493617 -0.224553 169 109 60 255
0.040041 0.390880 0.369982 147 99 74 255
0.157024 0.390883 0.313731 147 99 74 255
0.049860 0.390883 0.350082 147 99 74 255
0.013508 0.390883 0.242918 147 99 74 255
-0.006391 0.390880 0.233099 147 99 74 255
0.130492 0.390880 0.186667 147 99 74 255
0.176924 0.390880 0.323550 148 100 75 255
0.120673 0.390883 0.206567 147 99 74 255
-0.159902 0.390880 0.412141 147 99 74 255
-0.037147 0.390883 0.369946 147 99 74 255
-0.147825 0.390883 0.393525 147 99 74 255
-0.171404 0.390883 0.282847 147 99 74 255
-0.190020 0.390880 0.270770 147 99 74 255
-0.018531 0.390880 0.382023 148 100 75 255
-0.060726 0.390883 0.259268 147 99 74 255
-0.048649 0.390880 0.240652 147 99 74 255
-0.370499 0.390880 0.426430 147 99 74 255
-0.243993 0.390883 0.397355 147 99 74 255
-0.356535 0.390883 0.409185 147 99 74 255
-0.385610 0.390880 0.282679 147 99 74 255
-0.368365 0.390883 0.296643 147 99 74 255
-0.226748 0.390880 0.411319 148 100 75 255
-0.255823 0.390883 0.284813 147 99 74 255
-0.241859 0.390880 0.267568 147 99 74 255
0.479267 0.312687 -0.426501 135 84 72 255
0.479267 0.312687 -0.476501 135 84 72 255
0.479267 1.012687 -0.476501 135 84 72 255
0.479267 1.012687 -0.426501 135 84 72 255
0.429267 0.312687 -0.426501 135 84 72 255
0.429267 1.012687 -0.426501 135 84 72 255
0.429267 0.312687 -0.476501 135 84 72 255
0.429267 1.012687 -0.476501 135 84 72 255
0.432936 0.617050 -0.150777 116 42 46 255
0.432936 0.617050 -0.398619 116 42 46 255
0.432936 0.982438 -0.398619 143 52 57 255
0.432936 0.982438 -0.150777 142 52 57 255
0.412936 0.617050 -0.150777 116 42 46 255
0.412936 0.982438 -0.150777 143 52 57 255
0.412936 0.617050 -0.398619 116 42 46 255
0.412936 0.982438 -0.398619 143 52 57 255
0.494649 0.696612 -0.150777 116 42 46 255
0.494649 0.696612 -0.398619 116 42 46 255
0.494649 0.982438 -0.398619 142 52 57 255
0.494649 0.982438 -0.150777 142 52 57 255
0.474649 0.696612 -0.150777 116 42 46 255
0.474649 0.982438 -0.150777 142 52 57 255
0.474649 0.696612 -0.398619 120 44 48 255
0.474649 0.982438 -0.398619 142 53 58 255
0.433459 1.002447 -0.398619 143 52 57 255
0.433459 1.002447 -0.150777 145 59 63 255
0.432936 0.699447 0.122548 161 145 141 255
0.432936 0.699447 -0.125295 161 145 141 255
0.432936 0.982438 -0.125295 189 170 165 255
0.432936 0.982438 0.122548 189 170 165 255
0.412936 0.699447 0.122548 191 172 167 255
0.412936 0.982438 0.122548 189 170 165 255
0.412936 0.699447 -0.125295 190 171 166 255
0.412936 0.982438 -0.125295 189 170 165 255
0.494649 0.782969 0.122548 161 145 141 255
0.494649 0.782969 -0.125295 161 145 141 255
0.494649 0.982438 -0.125295 189 170 165 255
0.494649 0.982438 0.122548 190 171 166 255
0.474649 0.782969 0.122548 190 171 166 255
0.474649 0.982438 0.122548 190 171 166 255
0.474649 0.782969 -0.125295 190 171 166 255
0.474649 0.982438 -0.125295 189 170 165 255
0.433459 1.002447 -0.125295 192 174 169 255
0.433459 1.002447 0.122548 192 173 168 255
0.432936 0.734267 0.398619 35 55 90 255
0.432936 0.734267 0.150777 35 55 90 255
0.432936 0.982438 0.150777 45 71 116 255
0.432936 0.982438 0.398619 45 71 116 255
0.412936 0.734267 0.398619 35 55 90 255
0.412936 0.982438 0.398619 45 71 116 255
0.412936 0.734267 0.150777 35 55 90 255
0.412936 0.982438 0.150777 45 71 116 255
0.494649 0.662438 0.398619 35 55 90 255
0.494649 0.662438 0.150777 35 55 90 255
0.494649 0.982438 0.150777 45 71 116 255
0.494649 0.982438 0.398619 45 71 116 255
0.474649 0.662438 0.398619 35 55 90 255
0.474649 0.982438 0.398619 46 71 116 255
0.474649 0.662438 0.150777 35 55 90 255
0.474649 0.982438 0.150777 45 71 116 255
0.433459 1.002447 0.150777 54 77 120 255
0.433459 1.002447 0.398619 45 71 116 255
0.500686 0.899454 0.432600 140 92 68 255
-0.099314 0.899454 0.432600 140 92 68 255
-0.099314 0.939454 0.432600 140 92 68 255
0.500686 0.939454 0.432600 140 92 68 255
0.500686 0.899454 0.472600 140 92 68 255
0.500686 0.939454 0.472600 140 92 68 255
-0.099314 0.899454 0.472600 140 92 68 255
-0.099314 0.939454 0.472600 140 92 68 255
-0.027604 0.929799 0.447648 223 189 160 255
-0.027604 0.929799 0.457430 227 192 162 255
0.039493 0.338526 -0.286931 175 118 32 255
-0.390830 0.338526 -0.219466 175 118 32 255
-0.390830 0.357586 -0.219466 175 118 32 255
0.039493 0.357586 -0.286931 175 118 32 255
0.433856 0.942279 -0.500000 140 92 68 255
0.433856 0.942279 0.500000 140 92 68 255
0.433856 0.982279 0.500000 140 92 68 255
0.433856 0.982279 -0.500000 140 92 68 255
0.473856 0.942279 -0.500000 140 92 68 255
0.473856 0.982279 -0.500000 140 92 68 255
0.473856 0.942279 0.500000 140 92 68 255
0.473856 0.982279 0.500000 140 92 68 255
0.013508 0.360198 0.242918 202 184 170 255
0.049860 0.360198 0.350082 203 185 171 255
-0.048206 0.564741 0.427046 229 157 48 255
-0.048206 0.564741 0.478032 229 157 48 255
-0.055043 0.688783 0.484869 229 157 48 255
-0.055043 0.688783 0.420210 229 157 48 255
0.002780 0.564741 0.478032 229 157 48 255
0.009616 0.688783 0.484869 229 157 48 255
0.002780 0.564741 0.427046 229 157 48 255
0.009616 0.688783 0.420210 229 157 48 255
0.115060 0.539571 0.478032 160 44 48 255
0.166046 0.539571 0.478032 160 44 48 255
0.172883 0.663613 0.484869 160 44 48 255
0.108224 0.663613 0.484869 160 44 48 255
-0.159902 0.347493 0.412141 106 72 53 255
-0.018531 0.347493 0.382023 106 72 53 255
0.267918 0.681497 0.484869 215 198 183 255
0.332577 0.681497 0.484869 215 198 183 255
0.332577 0.681497 0.420210 215 198 183 255
0.172883 0.663613 0.420210 160 44 48 255
0.108224 0.663613 0.420210 160 44 48 255
0.305139 0.922513 0.457430 227 192 162 255
0.305139 0.922513 0.447648 219 186 159 255
0.295357 0.922513 0.447648 223 189 160 255
0.295357 0.922513 0.457430 227 192 162 255
-0.171404 0.360198 0.282847 78 123 52 255
-0.147825 0.360198 0.393525 82 123 54 255
0.274755 0.557455 0.478032 215 198 183 255
0.325741 0.557455 0.478032 215 198 183 255
0.166046 0.539571 0.427046 162 55 53 255
0.115060 0.539571 0.427046 160 44 48 255
0.325741 0.557455 0.427046 215 198 183 255
0.130492 0.347493 0.186667 106 72 53 255
-0.006391 0.347493 0.233099 113 76 56 255
0.267918 0.681497 0.420210 215 198 183 255
0.145444 0.904629 0.457430 227 192 162 255
0.145444 0.904629 0.447648 219 186 159 255
0.135662 0.904629 0.447648 223 189 160 255
0.135662 0.904629 0.457430 227 192 162 255
-0.368365 0.360198 0.296643 58 53 145 255
-0.356535 0.360198 0.409185 59 54 145 255
0.274755 0.557455 0.427046 215 198 183 255
-0.243993 0.360198 0.397355 61 55 144 255
0.226661 0.349314 -0.401706 165 107 59 255
0.275660 0.349314 -0.305032 165 107 59 255
0.269607 0.457696 -0.286538 203 128 69 255
0.208167 0.457696 -0.407759 203 128 69 255
-0.351163 0.357586 0.033551 175 118 32 255
0.079160 0.357586 -0.033914 175 118 32 255
-0.017823 0.929799 0.457430 227 192 162 255
-0.017823 0.929799 0.447648 219 186 159 255
0.416223 0.440924 -0.256023 203 128 69 255
0.407111 0.347011 -0.241836 165 107 59 255
0.315350 0.347011 -0.221847 165 107 59 255
0.301162 0.440924 -0.230960 203 128 69 255
0.372334 0.349314 -0.354030 165 107 59 255
0.323336 0.349314 -0.450704 165 107 59 255
0.329388 0.457696 -0.469199 203 128 69 255
0.390828 0.457696 -0.347977 203 128 69 255
0.326226 0.440924 -0.115899 203 128 69 255
0.441287 0.440924 -0.140962 203 128 69 255
0.335338 0.347011 -0.130086 165 107 59 255
0.427099 0.347011 -0.150075 165 107 59 255
0.326480 0.533179 -0.460312 203 128 69 255
0.217054 0.533179 -0.404851 203 130 71 255
-0.370499 0.347493 0.426430 106 72 53 255
-0.226748 0.347493 0.411319 106 72 53 255
0.381941 0.533179 -0.350886 203 128 69 255
0.307980 0.506329 -0.226581 203 130 71 255
0.330604 0.506329 -0.122716 203 128 69 255
0.434469 0.506329 -0.145341 203 128 69 255
0.411844 0.506329 -0.249206 203 128 69 255
0.120673 0.360198 0.206567 198 178 164 255
0.272515 0.533179 -0.295425 203 128 69 255
0.176924 0.347493 0.323550 106 72 53 255
0.040041 0.347493 0.369982 106 72 53 255
-0.037147 0.360198 0.369946 78 123 52 255
-0.060726 0.360198 0.259268 88 121 55 255
0.157024 0.360198 0.313731 203 185 171 255
-0.048649 0.347493 0.240652 106 72 53 255
-0.190020 0.347493 0.270770 113 76 56 255
-0.241859 0.347493 0.267568 106 72 53 255
-0.385610 0.347493 0.282679 113 76 56 255
-0.255823 0.360198 0.284813 73 60 139 255
0.079160 0.338526 -0.033914 175 118 32 255
-0.351163 0.338526 0.033551 175 118 32 255
3 0 1 2
4 3 4 5 6
3 2 7 8
3 9 10 0
3 8 11 9
4 12 13 14 15
4 13 16 17 14
3 18 19 20
4 4 21 22 5
3 23 24 25
3 26 27 28
3 0 10 1
3 29 30 31
3 32 33 34
4 35 3 6 36
3 37 38 39
3 40 41 42
3 43 44 45
3 45 46 40
3 42 47 43
3 2 1 7
3 48 49 50
3 51 52 53
3 53 54 48
3 50 55 51
4 56 57 58 59
3 60 61 62
3 63 64 65
3 65 66 60
3 62 67 63
4 57 11 7 58
4 16 68 69 17
3 70 71 72
3 73 74 75
3 72 76 73
3 75 77 70
4 59 1 10 56
3 78 79 80
3 81 82 83
3 84 80 82
3 81 79 85
4 58 7 1 59
3 86 87 88
3 86 89 90
3 91 87 92
3 90 93 91
4 56 10 11 57
3 94 95 96
3 94 97 98
3 99 100 95
3 98 100 101
3 8 7 11
3 102 103 104
3 105 104 106
3 107 108 103
3 109 106 108
3 9 11 10
4 68 12 15 69
4 15 14 17 69
4 110 111 112 113
4 114 110 113 115
4 116 114 115 117
4 111 116 117 112
4 117 115 113 112
4 118 119 120 121
4 122 118 121 123
4 124 122 123 125
4 119 124 125 120
4 119 118 122 124
4 125 123 121 120
4 126 127 128 129
4 130 126 129 131
4 132 130 131 133
4 127 132 133 128
4 127 126 130 132
4 133 131 129 128
4 18 24 134 135
4 24 18 20 25
3 18 135 19
3 23 134 24
4 23 19 135 134
4 136 137 138 139
4 140 136 139 141
4 142 140 141 143
4 137 142 143 138
4 137 136 140 142
4 143 141 139 138
4 144 145 146 147
4 148 144 147 149
4 150 148 149 151
4 145 150 151 146
4 145 144 148 150
4 151 149 147 146
4 26 30 152 153
4 30 26 28 31
3 26 153 27
3 29 152 30
4 29 27 153 152
4 154 155 156 157
4 158 154 157 159
4 160 158 159 161
4 155 160 161 156
4 155 154 158 160
4 161 159 157 156
4 162 163 164 165
4 166 162 165 167
4 168 166 167 169
4 163 168 169 164
4 163 162 166 168
4 169 167 165 164
4 32 38 170 171
4 38 32 34 39
3 32 171 33
3 37 170 38
4 37 33 171 170
4 172 173 174 175
4 176 172 175 177
4 178 176 177 179
4 173 178 179 174
4 173 172 176 178
4 179 177 175 174
4 180 66 64 181
4 182 183 184 185
4 186 187 188 189
4 190 186 189 191
4 190 192 187 186
4 189 188 193 191
4 194 89 88 195
4 196 197 198 199
4 197 200 201 198
4 200 202 203 201
4 204 205 206 207
4 208 209 99 94
4 45 210 211 43
3 40 46 41
4 43 211 212 42
4 51 206 213 50
4 48 214 207 53
4 215 47 41 216
3 43 47 44
3 45 44 46
3 42 41 47
4 216 41 46 217
4 218 44 47 215
4 219 97 96 220
4 221 222 211 210
4 223 224 214 213
4 222 225 212 211
4 203 202 196 199
4 226 227 90 91
4 50 213 214 48
3 48 54 49
4 53 207 206 51
4 40 228 210 45
4 63 201 203 62
4 229 55 49 230
3 51 55 52
3 53 52 54
3 50 49 55
4 230 49 54 231
4 232 52 55 229
4 233 106 104 234
4 224 204 207 214
4 225 235 228 212
4 42 212 228 40
4 235 221 210 228
4 234 104 103 236
4 60 62 203 199
3 60 66 61
4 65 198 201 63
4 60 199 198 65
4 237 238 239 240
4 187 192 193 188
3 63 67 64
3 65 64 66
3 62 61 67
4 184 241 242 185
4 243 67 61 244
4 244 61 66 180
4 245 246 247 248
4 249 250 251 252
4 81 253 254 84
4 255 256 254 253
4 75 239 252 73
3 70 77 71
4 84 254 245 78
4 72 251 240 70
4 81 85 248 253
4 257 71 77 258
3 73 76 74
3 72 71 76
3 75 74 77
4 259 260 107 102
4 261 76 71 257
4 262 79 83 263
4 247 255 253 248
4 254 256 246 245
4 251 250 237 240
4 238 249 252 239
4 70 240 239 75
3 78 85 79
4 73 252 251 72
4 78 245 248 85
4 264 82 80 265
4 262 265 80 79
3 81 84 82
3 84 78 80
3 81 83 79
4 266 93 89 194
4 261 267 74 76
4 263 83 82 264
4 258 77 74 267
4 225 222 221 235
4 268 226 91 92
4 269 268 92 86
4 219 220 270 271
3 86 92 87
4 194 195 272 266
3 86 88 89
3 91 93 87
3 90 89 93
4 272 87 93 266
4 265 262 263 264
4 195 88 87 272
4 209 273 101 99
4 274 208 94 98
4 223 205 204 224
4 273 274 98 101
4 217 46 44 218
3 94 99 95
4 270 95 100 271
3 94 96 97
3 99 101 100
3 98 97 100
4 206 205 223 213
4 271 100 97 219
4 220 96 95 270
4 260 275 109 107
4 257 258 267 261
4 276 259 102 105
4 275 276 105 109
4 231 54 52 232
3 102 107 103
4 233 234 236 277
3 105 102 104
3 107 109 108
3 109 105 106
4 236 103 108 277
4 277 108 106 233
4 202 200 197 196
4 278 182 185 242
4 181 64 67 243
4 21 35 36 22
4 279 278 242 241
4 183 279 241 184
4 227 269 86 90
4 192 190 191 193
