ply
format ascii 1.0
comment Created by Blender 2.83.20 - www.blender.org, source file: 'NewRailsCornerThreeWayCrossing.blend'
element vertex 300
property float x
property float y
property float z
property uchar red
property uchar green
property uchar blue
property uchar alpha
element face 368
property list uchar uint vertex_indices
end_header
0.008969 -0.444919 -0.221365 133 110 120 255
0.060577 -0.433709 -0.237702 147 122 132 255
0.095587 -0.444919 -0.248784 134 111 121 255
0.249872 -0.433709 -0.051516 147 122 132 255
0.211595 -0.444919 -0.013239 140 116 126 255
0.275839 -0.444919 -0.077483 142 119 128 255
0.249872 -0.348786 -0.051516 107 89 97 255
0.224144 -0.337695 -0.025788 147 122 132 255
0.236169 -0.348786 -0.037813 107 89 97 255
0.025888 -0.337695 -0.226721 143 119 128 255
0.060577 -0.348786 -0.237702 107 89 97 255
0.042102 -0.348786 -0.231853 107 89 97 255
0.354428 -0.444919 0.387029 147 122 132 255
0.408560 -0.433709 0.387029 147 122 132 255
0.389181 -0.433709 0.387029 147 122 132 255
0.408560 -0.433709 0.499998 147 122 132 255
0.354428 -0.444919 0.499998 147 122 132 255
0.445282 -0.444919 0.499998 140 117 125 255
0.408560 -0.348786 0.499998 107 89 97 255
0.372174 -0.337695 0.499998 147 122 132 255
0.389181 -0.348786 0.499998 107 89 97 255
0.408560 -0.348786 0.387029 107 89 97 255
0.372174 -0.337695 0.387029 147 122 132 255
0.389181 -0.348786 0.387029 114 95 103 255
-0.449851 -0.433709 0.428092 147 122 132 255
-0.449874 -0.444919 0.482224 147 122 132 255
-0.449836 -0.444919 0.391369 147 122 132 255
-0.449851 -0.348786 0.428092 107 89 97 255
-0.449866 -0.337695 0.464478 147 122 132 255
-0.449859 -0.348786 0.447471 107 89 97 255
-0.500342 -0.433709 0.408956 147 122 132 255
-0.500342 -0.444919 0.354824 147 122 132 255
-0.500342 -0.444919 0.445678 147 122 132 255
-0.500342 -0.348786 0.408956 107 89 97 255
-0.500342 -0.337695 0.372570 147 122 132 255
-0.500342 -0.348786 0.389577 107 89 97 255
-0.464900 -0.433709 0.447465 147 122 132 255
-0.485256 -0.444919 0.445678 147 122 132 255
-0.464915 -0.444919 0.482217 147 122 132 255
-0.464900 -0.348786 0.447465 107 89 97 255
-0.485256 -0.337695 0.427996 147 122 132 255
-0.485256 -0.348786 0.408956 107 89 97 255
-0.464884 -0.316293 0.409045 147 122 132 255
-0.485256 -0.316293 0.427996 147 122 132 255
-0.464907 -0.316293 0.464471 147 122 132 255
-0.485256 -0.460820 0.450118 107 89 97 255
-0.464875 -0.460820 0.386924 107 89 97 255
-0.464917 -0.460820 0.486924 107 89 97 255
-0.464877 -0.444919 0.391363 147 122 132 255
-0.485256 -0.433709 0.389577 147 122 132 255
-0.464892 -0.433709 0.428085 148 123 133 255
-0.464884 -0.337695 0.409045 147 122 132 255
-0.485256 -0.348786 0.389577 107 89 97 255
-0.485256 -0.337695 0.372570 147 122 132 255
0.000591 -0.444919 -0.225374 133 110 120 255
-0.037686 -0.433709 -0.263651 147 122 132 255
-0.023983 -0.433709 -0.249948 147 122 132 255
-0.211544 -0.444919 -0.013239 140 116 126 255
-0.249821 -0.433709 -0.051516 147 122 132 255
-0.275788 -0.444919 -0.077483 142 119 128 255
-0.249821 -0.348786 -0.051516 107 89 97 255
-0.224093 -0.337695 -0.025788 147 122 132 255
-0.263285 -0.337695 -0.064980 147 122 132 255
-0.037686 -0.348786 -0.263651 107 89 97 255
-0.011958 -0.337695 -0.237923 143 119 128 255
-0.023983 -0.348786 -0.249948 107 89 97 255
-0.354377 -0.444919 0.387029 147 122 132 255
-0.408509 -0.433709 0.387029 147 122 132 255
-0.445231 -0.444919 0.387029 144 120 129 255
-0.354377 -0.444919 0.499998 147 122 132 255
-0.408509 -0.433709 0.499998 147 122 132 255
-0.445231 -0.444919 0.499998 140 117 125 255
-0.408509 -0.348786 0.499998 107 89 97 255
-0.372123 -0.337695 0.499998 147 122 132 255
-0.427549 -0.337695 0.499998 147 122 132 255
-0.372123 -0.337695 0.387029 147 122 132 255
-0.408509 -0.348786 0.387029 107 89 97 255
-0.389130 -0.348786 0.387029 114 95 103 255
0.155143 -0.444919 -0.349286 147 122 132 255
0.271848 -0.433709 -0.349387 148 123 133 255
0.308570 -0.444919 -0.349456 147 123 133 255
0.172889 -0.337695 -0.349319 147 122 132 255
0.271848 -0.348786 -0.349387 109 91 99 255
0.189895 -0.348786 -0.349351 107 89 97 255
0.003919 -0.460820 -0.222047 107 89 97 255
0.150436 -0.460820 -0.349277 107 89 97 255
0.313009 -0.460820 -0.349464 107 89 97 255
0.189895 -0.433709 -0.349351 148 123 133 255
-0.051150 -0.337695 -0.277115 147 122 132 255
-0.011958 -0.316293 -0.237923 147 122 132 255
0.172889 -0.316293 -0.349319 147 122 132 255
-0.051150 -0.316293 -0.277115 148 123 133 255
0.449666 -0.444919 0.482390 147 122 132 255
0.449841 -0.433709 0.428259 147 122 132 255
0.449960 -0.444919 0.391536 147 122 132 255
0.449841 -0.348786 0.428259 107 89 97 255
0.449723 -0.337695 0.464644 147 122 132 255
0.449903 -0.337695 0.409219 147 122 132 255
0.500393 -0.444919 0.354824 147 122 132 255
0.500393 -0.433709 0.408956 147 122 132 255
0.500393 -0.444919 0.445678 147 122 132 255
0.500393 -0.348786 0.408956 107 89 97 255
0.500393 -0.337695 0.372570 147 122 132 255
0.500393 -0.337695 0.427996 147 122 132 255
0.464819 -0.433709 0.447686 147 122 132 255
0.485307 -0.444919 0.445678 147 122 132 255
0.485307 -0.433709 0.408956 147 122 132 255
0.464819 -0.348786 0.447686 107 89 97 255
0.485307 -0.337695 0.427996 147 122 132 255
0.464764 -0.337695 0.464693 147 122 132 255
0.464944 -0.316293 0.409267 147 122 132 255
0.485307 -0.316293 0.427996 147 122 132 255
0.485307 -0.316293 0.372570 147 122 132 255
0.465016 -0.460820 0.387146 107 89 97 255
0.485307 -0.460820 0.450118 107 89 97 255
0.464691 -0.460820 0.487145 107 89 97 255
0.465001 -0.444919 0.391585 147 122 132 255
0.485307 -0.433709 0.389577 147 122 132 255
0.485307 -0.444919 0.354824 147 122 132 255
0.464944 -0.337695 0.409267 147 122 132 255
0.485307 -0.348786 0.389577 107 89 97 255
0.464882 -0.348786 0.428307 107 89 97 255
0.331016 -0.444919 0.445848 147 122 132 255
0.331026 -0.433710 0.391716 147 122 132 255
0.331023 -0.433710 0.411095 147 122 132 255
-0.327188 -0.444919 0.445653 147 122 132 255
-0.327177 -0.433710 0.391521 147 122 132 255
-0.327170 -0.444919 0.354799 147 122 132 255
-0.327177 -0.348786 0.391521 106 88 96 255
-0.327184 -0.337695 0.427907 147 122 132 255
-0.327174 -0.337695 0.372481 147 122 132 255
0.331026 -0.348786 0.391716 106 88 96 255
0.331019 -0.337695 0.428102 147 122 132 255
0.331023 -0.348786 0.411095 106 88 96 255
0.500015 -0.444919 -0.354152 147 122 132 255
0.500025 -0.433710 -0.408284 147 122 132 255
0.500022 -0.433710 -0.388905 147 122 132 255
-0.500000 -0.444919 -0.354347 147 122 132 255
-0.499989 -0.433710 -0.408479 147 122 132 255
-0.499982 -0.444919 -0.445201 147 122 132 255
-0.499989 -0.348786 -0.408479 106 88 96 255
-0.499996 -0.337695 -0.372093 147 122 132 255
-0.499985 -0.337695 -0.427519 147 122 132 255
0.500025 -0.348786 -0.408284 106 88 96 255
0.500018 -0.337695 -0.371898 147 122 132 255
0.500022 -0.348786 -0.388905 106 88 96 255
-0.214389 -0.444919 -0.349552 147 122 132 255
-0.337384 -0.433709 -0.349328 148 123 133 255
-0.249141 -0.433709 -0.349408 148 123 133 255
-0.337384 -0.348786 -0.349328 109 91 99 255
-0.232135 -0.337695 -0.349479 147 122 132 255
-0.249141 -0.348786 -0.349408 107 89 97 255
-0.209683 -0.460820 -0.349572 107 89 97 255
-0.090203 -0.460820 -0.287248 107 89 97 255
-0.378545 -0.460820 -0.349157 107 89 97 255
-0.034562 -0.433709 -0.306381 147 122 132 255
0.000164 -0.444919 -0.318322 134 111 121 255
-0.034562 -0.348786 -0.306381 107 89 97 255
-0.232135 -0.316293 -0.349479 147 122 132 255
-0.068971 -0.316293 -0.294549 147 122 132 255
-0.016557 -0.316293 -0.312572 148 123 133 255
-0.085753 -0.444919 -0.288778 133 110 120 255
-0.052888 -0.433709 -0.300079 147 122 132 255
-0.068971 -0.337695 -0.294549 143 119 128 255
-0.356424 -0.337695 -0.349248 147 122 132 255
0.445282 -0.444919 0.387029 144 120 129 255
0.449722 -0.460820 0.387029 107 89 97 255
0.278978 -0.460820 -0.080622 107 89 97 255
-0.449876 -0.460820 0.486930 107 89 97 255
-0.449834 -0.460820 0.386930 134 112 121 255
0.099820 -0.460820 -0.250124 107 89 97 255
-0.449671 -0.460820 0.387029 107 89 97 255
-0.349671 -0.460820 0.387029 107 89 97 255
0.042102 -0.433709 -0.231853 147 122 132 255
0.464707 -0.444919 0.482439 147 122 132 255
-0.278927 -0.460820 -0.080622 107 89 97 255
-0.208217 -0.460820 -0.009911 108 89 97 255
0.236169 -0.433709 -0.037813 147 122 132 255
0.078730 -0.337695 -0.243448 147 122 132 255
0.263336 -0.337695 -0.064980 147 122 132 255
-0.327184 -0.316293 0.427907 147 122 132 255
0.331019 -0.316293 0.428102 147 122 132 255
-0.449843 -0.337695 0.409052 147 122 132 255
-0.449843 -0.316293 0.409052 147 122 132 255
-0.485256 -0.444919 0.354824 147 122 132 255
-0.485256 -0.460820 0.350118 107 89 97 255
-0.372123 -0.316293 0.499998 147 122 132 255
-0.372123 -0.316293 0.387029 147 122 132 255
-0.427549 -0.316293 0.387029 147 122 132 255
-0.427549 -0.316293 0.499998 147 122 132 255
-0.327181 -0.433710 0.410901 147 122 132 255
-0.327181 -0.348786 0.410901 106 88 96 255
-0.449671 -0.460820 0.499998 107 89 97 255
0.208267 -0.460820 -0.009912 108 89 97 255
0.349722 -0.460820 0.387029 107 89 97 255
-0.066792 -0.460820 -0.292757 107 89 97 255
0.409832 -0.500010 0.497583 165 121 73 255
0.410027 -0.500010 -0.502417 165 121 73 255
0.410027 -0.460010 -0.502417 165 121 73 255
0.409832 -0.460010 0.497583 165 121 73 255
-0.499993 -0.433710 -0.389100 147 122 132 255
0.485307 -0.348786 0.408956 107 89 97 255
0.389181 -0.433709 0.499998 147 122 132 255
-0.499993 -0.348786 -0.389100 106 88 96 255
0.427600 -0.337695 0.499998 147 122 132 255
0.427600 -0.316293 0.499998 147 122 132 255
0.372174 -0.316293 0.499998 147 122 132 255
-0.080168 -0.500010 0.497488 165 121 73 255
0.079832 -0.500010 0.497519 165 121 73 255
0.079832 -0.460010 0.497519 165 121 73 255
-0.080168 -0.460010 0.497488 165 121 73 255
0.427600 -0.337695 0.387029 147 122 132 255
-0.236118 -0.348786 -0.037813 107 89 97 255
0.372174 -0.316293 0.387029 147 122 132 255
0.427600 -0.316293 0.387029 147 122 132 255
0.080027 -0.500010 -0.502481 165 121 73 255
-0.079973 -0.500010 -0.502513 165 121 73 255
-0.079973 -0.460010 -0.502513 165 121 73 255
0.080027 -0.460010 -0.502481 165 121 73 255
-0.224093 -0.316293 -0.025788 147 122 132 255
-0.263285 -0.316293 -0.064980 147 122 132 255
-0.250168 -0.500010 0.497454 165 121 73 255
-0.249973 -0.500010 -0.502546 165 121 73 255
-0.249973 -0.460010 -0.502546 165 121 73 255
-0.250168 -0.460010 0.497454 165 121 73 255
-0.427549 -0.337695 0.387029 147 122 132 255
-0.409973 -0.500010 -0.502577 165 121 73 255
-0.409973 -0.460010 -0.502577 165 121 73 255
-0.052888 -0.348786 -0.300079 107 89 97 255
0.464764 -0.316293 0.464693 147 122 132 255
0.500393 -0.460820 0.450118 116 97 105 255
0.485307 -0.460820 0.350118 107 89 97 255
0.500393 -0.460820 0.350118 107 89 97 255
0.449778 -0.433709 0.447638 147 122 132 255
0.349722 -0.460820 0.499998 107 89 97 255
0.449722 -0.460820 0.499998 107 89 97 255
-0.449866 -0.316293 0.464478 147 122 132 255
0.500393 -0.433709 0.389577 147 122 132 255
0.500393 -0.348786 0.389577 107 89 97 255
0.449975 -0.460820 0.387097 134 112 121 255
-0.449859 -0.433709 0.447471 147 122 132 255
0.449903 -0.316293 0.409219 147 122 132 255
-0.464907 -0.337695 0.464471 147 122 132 255
-0.016557 -0.337695 -0.312572 147 122 132 255
-0.500342 -0.460820 0.350118 107 89 97 255
-0.499981 -0.460820 -0.449640 106 88 96 255
-0.500000 -0.460820 -0.349640 106 88 96 255
-0.500342 -0.433709 0.389577 147 122 132 255
-0.500342 -0.337695 0.427996 147 122 132 255
-0.500342 -0.316293 0.427996 147 122 132 255
-0.500342 -0.316293 0.372570 147 122 132 255
-0.389130 -0.433709 0.387029 147 122 132 255
-0.236118 -0.433709 -0.037813 147 122 132 255
-0.485256 -0.316293 0.372570 147 122 132 255
-0.485256 -0.433709 0.408956 147 122 132 255
0.290888 -0.337695 -0.349423 147 122 132 255
0.290888 -0.316293 -0.349423 147 122 132 255
-0.063653 -0.444919 -0.289618 134 111 121 255
-0.464892 -0.348786 0.428085 107 89 97 255
0.004482 -0.460820 -0.219945 107 89 97 255
0.331015 -0.460820 0.450554 119 99 107 255
0.331034 -0.460820 0.350554 106 88 96 255
0.331033 -0.444919 0.354994 147 122 132 255
-0.499996 -0.316293 -0.372093 147 122 132 255
0.500018 -0.316293 -0.371898 147 122 132 255
0.500029 -0.316293 -0.427324 147 122 132 255
-0.499985 -0.316293 -0.427519 147 122 132 255
-0.410168 -0.500010 0.497423 165 121 73 255
0.449650 -0.460820 0.487096 107 89 97 255
-0.500342 -0.460820 0.450118 116 97 105 255
0.500029 -0.337695 -0.427324 147 122 132 255
-0.389130 -0.433709 0.499998 147 122 132 255
0.464882 -0.433709 0.428307 148 123 133 255
-0.389130 -0.348786 0.499998 107 89 97 255
0.263336 -0.316293 -0.064980 147 122 132 255
0.224144 -0.316293 -0.025788 147 122 132 255
-0.356424 -0.316293 -0.349248 147 122 132 255
-0.374106 -0.444919 -0.349175 147 123 133 255
-0.327169 -0.460820 0.350360 106 88 96 255
-0.327189 -0.460820 0.450360 107 89 97 255
0.449778 -0.348786 0.447638 107 89 97 255
0.500014 -0.460820 -0.349446 106 88 96 255
0.449723 -0.316293 0.464644 147 122 132 255
0.485307 -0.337695 0.372570 147 122 132 255
-0.349671 -0.460820 0.499998 107 89 97 255
0.500033 -0.460820 -0.449446 106 88 96 255
0.500033 -0.444919 -0.445006 147 122 132 255
0.500393 -0.316293 0.427996 147 122 132 255
0.500393 -0.316293 0.372570 147 122 132 255
0.078730 -0.316293 -0.243448 148 123 133 255
0.025888 -0.316293 -0.226721 147 122 132 255
-0.410168 -0.460010 0.497423 165 121 73 255
0.249832 -0.460010 0.497552 165 121 73 255
0.250027 -0.460010 -0.502448 165 121 73 255
0.250027 -0.500010 -0.502448 165 121 73 255
0.249832 -0.500010 0.497552 165 121 73 255
0.331030 -0.316293 0.372676 147 122 132 255
-0.327174 -0.316293 0.372481 147 122 132 255
0.331030 -0.337695 0.372676 147 122 132 255
0.004362 -0.460820 -0.319766 107 89 97 255
3 0 1 2
3 3 4 5
3 6 7 8
3 9 10 11
3 12 13 14
3 15 16 17
3 18 19 20
3 21 22 23
3 24 25 26
3 27 28 29
3 30 31 32
3 33 34 35
3 36 37 38
3 39 40 41
3 42 43 44
3 45 46 47
3 48 49 50
3 51 52 53
3 54 55 56
3 57 58 59
3 60 61 62
3 63 64 65
3 66 67 68
3 69 70 71
3 72 73 74
3 75 76 77
3 78 79 80
3 81 82 83
3 84 85 86
3 78 55 87
3 81 63 88
3 89 90 91
3 79 54 80
3 82 64 65
3 92 93 94
3 95 96 97
3 98 99 100
3 101 102 103
3 104 105 106
3 107 108 109
3 110 111 112
3 113 114 115
3 116 117 118
3 119 120 121
3 122 123 124
3 125 126 127
3 128 129 130
3 131 132 133
3 134 135 136
3 137 138 139
3 140 141 142
3 143 144 145
3 146 147 148
3 149 150 151
3 152 153 154
3 146 155 156
3 150 157 151
3 158 159 160
3 147 161 162
3 149 163 164
3 162 161 153
4 5 165 166 167
4 25 168 169 26
4 5 167 170 2
4 66 68 171 172
4 84 86 80 54
3 0 173 1
4 143 135 138 140
4 174 115 114 105
4 175 176 57 59
3 3 177 4
4 6 10 178 179
4 177 3 6 8
4 1 173 11 10
4 180 129 132 181
4 182 51 42 183
4 173 0 4 177
3 6 179 7
3 9 178 10
4 184 48 46 185
4 133 124 123 131
4 186 187 188 189
4 128 126 190 191
4 171 192 71 68
4 4 193 167 5
4 88 63 60 62
4 12 194 166 165
4 175 195 84 176
3 12 165 13
4 196 197 198 199
4 200 137 134 136
4 108 201 101 103
3 15 202 16
4 141 203 145 144
4 202 15 18 20
4 23 14 13 21
4 19 204 205 206
4 207 208 209 210
4 67 68 71 70
3 18 204 19
3 21 211 22
4 61 212 65 64
4 22 19 206 213
4 204 211 214 205
4 215 216 217 218
4 188 187 219 220
4 59 175 171 68
4 58 59 68 67
4 221 222 223 224
4 60 76 225 62
4 222 226 227 223
4 160 159 228 157
4 176 57 66 172
4 3 13 165 5
4 111 229 109 108
4 61 75 77 212
4 107 104 106 201
4 230 114 231 232
4 233 92 174 104
4 16 234 235 17
4 183 42 44 236
4 101 99 237 238
4 38 47 168 25
4 113 239 94 116
3 24 240 25
4 237 98 118 117
4 240 24 27 29
4 28 182 183 236
4 110 119 97 241
4 242 39 29 28
3 27 182 28
4 48 26 169 46
4 243 150 158 160
4 234 194 166 235
4 184 185 244 31
4 36 38 25 240
4 245 246 137 139
4 53 52 35 34
4 90 81 88 91
4 98 232 231 118
4 184 31 247 49
3 30 247 31
4 248 33 41 40
4 247 30 33 35
4 34 248 249 250
4 212 77 251 252
4 249 43 253 250
3 33 248 34
4 22 23 20 19
4 248 40 43 249
4 58 67 76 60
4 118 231 113 116
3 36 254 37
4 242 44 43 40
3 39 242 40
4 42 51 53 253
3 42 253 43
4 255 81 90 256
3 45 185 46
4 38 37 45 47
3 48 184 49
4 195 175 59 257
3 51 258 52
4 79 87 83 82
4 0 2 170 259
4 17 165 13 15
4 122 260 261 262
4 210 209 218 217
3 54 257 55
4 189 74 73 186
4 263 264 265 266
4 252 57 54 56
3 57 252 58
4 55 257 59 58
4 60 58 252 212
4 65 56 55 63
4 220 62 61 219
4 76 67 70 72
4 176 84 54 57
3 60 212 61
3 63 88 64
4 214 213 206 205
4 219 61 64 89
4 91 88 62 220
4 226 222 221 267
4 12 194 234 16
4 239 268 92 94
4 26 48 50 24
4 31 244 269 32
4 12 16 202 14
3 66 251 67
4 89 64 88 91
4 270 143 140 142
4 239 113 115 268
3 69 271 70
4 93 272 116 94
4 273 271 251 77
4 63 55 58 60
4 72 70 271 273
4 67 251 77 76
4 18 21 211 204
3 72 273 73
3 75 225 76
4 7 179 274 275
4 159 276 164 163
4 228 162 155 157
4 186 73 75 187
4 146 152 154 277
3 78 87 79
4 188 225 74 189
3 81 255 82
4 52 258 50 49
4 193 167 166 194
4 12 4 193 194
4 176 172 171 175
4 254 36 39 41
4 57 252 251 66
4 53 34 250 253
4 275 213 214 274
4 11 8 7 9
4 14 177 4 12
4 225 188 220 62
4 211 21 6 179
4 30 254 41 33
3 84 195 85
4 153 161 277 154
3 78 257 55
4 187 75 61 219
3 81 83 63
4 63 83 87 55
3 89 256 90
4 3 5 2 1
3 79 56 54
4 49 247 35 52
3 82 255 64
4 56 79 82 65
4 182 27 258 51
4 32 269 45 37
4 278 279 125 127
4 17 235 166 165
4 255 256 89 64
4 109 96 280 107
4 114 230 100 105
3 92 233 93
4 246 281 134 137
4 280 233 104 107
4 121 272 93 95
4 95 93 233 280
4 282 229 110 241
3 95 280 96
4 283 102 238 120
4 241 97 96 282
4 282 96 109 229
4 119 121 95 97
4 47 46 169 168
4 192 284 69 71
4 69 284 172 66
4 24 50 258 27
4 285 245 139 286
4 75 73 273 77
3 98 237 99
4 268 115 174 92
4 238 237 117 120
4 201 106 99 101
4 36 240 29 39
4 287 288 112 111
3 101 238 102
4 271 69 66 251
4 287 103 102 288
4 288 102 283 112
4 289 290 275 274
3 104 174 105
4 111 108 103 287
3 107 201 108
4 7 22 213 275
3 110 229 111
4 14 23 8 177
3 113 231 114
4 193 259 170 167
3 116 272 117
4 283 119 110 112
3 119 283 120
4 272 121 120 117
4 274 214 211 179
4 21 13 3 6
4 267 221 224 291
4 291 224 223 227
4 242 28 236 44
4 226 267 291 227
4 213 22 211 214
4 208 215 218 209
4 15 13 21 18
4 292 199 198 293
4 216 215 208 207
4 216 207 210 217
4 197 294 293 198
4 14 202 20 23
4 295 196 199 292
4 220 219 89 91
4 294 197 196 295
4 279 260 122 125
4 54 84 195 257
4 129 191 133 132
4 134 281 285 286
4 180 181 296 297
3 122 262 123
4 294 295 292 293
4 126 123 262 127
4 279 278 261 260
3 125 190 126
4 298 131 128 130
4 191 190 124 133
4 131 123 126 128
4 179 178 289 274
4 178 9 290 289
4 124 190 125 122
3 128 191 129
3 131 298 132
4 0 259 193 4
4 297 130 129 180
4 181 132 298 296
4 3 1 10 6
4 106 105 100 99
4 230 232 98 100
4 261 278 127 262
4 78 80 86 85
4 32 37 254 30
3 134 286 135
4 296 298 130 297
4 135 286 139 138
4 225 76 72 74
3 137 200 138
4 246 245 285 281
4 203 200 136 145
4 173 177 8 11
4 140 138 200 203
4 145 136 135 143
4 185 45 269 244
3 140 203 141
3 143 270 144
4 192 171 172 284
4 266 142 141 263
4 264 144 270 265
4 263 141 144 264
4 85 195 257 78
3 146 277 147
4 265 270 142 266
3 149 164 150
4 151 148 147 149
3 152 299 153
4 23 22 7 8
3 146 148 155
4 158 150 164 276
3 150 243 157
4 9 7 275 290
3 158 276 159
4 152 146 156 299
3 147 277 161
4 148 151 157 155
3 149 228 163
4 149 147 162 228
3 159 163 228
3 157 243 160
4 212 252 56 65
3 153 299 155
3 299 156 155
3 153 155 162
4 225 75 187 188
