ply
format ascii 1.0
comment Created by Blender 2.83.20 - www.blender.org, source file: 'NewRailsCornerFourWayCrossing.blend'
element vertex 312
property float x
property float y
property float z
property uchar red
property uchar green
property uchar blue
property uchar alpha
element face 378
property list uchar uint vertex_indices
end_header
-0.000261 -0.444919 0.225374 133 110 120 255
0.038016 -0.433709 0.263651 147 122 132 255
0.024313 -0.433709 0.249948 147 122 132 255
0.211874 -0.444919 0.013239 140 116 126 255
0.250151 -0.433709 0.051516 147 122 132 255
0.276118 -0.444919 0.077483 142 119 128 255
0.250151 -0.348786 0.051516 107 89 97 255
0.224422 -0.337695 0.025788 147 122 132 255
0.263614 -0.337695 0.064980 147 122 132 255
0.038016 -0.348786 0.263651 107 89 97 255
0.012287 -0.337695 0.237923 143 119 128 255
0.024313 -0.348786 0.249948 107 89 97 255
0.351067 -0.444919 -0.270198 147 122 132 255
0.350285 -0.433709 -0.119016 147 122 132 255
0.349755 -0.444919 -0.082298 144 120 129 255
0.350810 -0.337695 -0.252454 147 122 132 255
0.350285 -0.348786 -0.119016 107 89 97 255
0.350565 -0.348786 -0.235449 114 95 103 255
-0.102061 -0.444919 0.350208 147 122 132 255
-0.262976 -0.433709 0.350539 148 123 133 255
-0.299697 -0.444919 0.350764 147 123 133 255
-0.119806 -0.337695 0.350316 147 122 132 255
-0.262976 -0.348786 0.350539 109 91 99 255
-0.136813 -0.348786 0.350421 107 89 97 255
0.349691 -0.460820 -0.077859 107 89 97 255
0.208546 -0.460820 0.009911 108 89 97 255
0.351135 -0.460820 -0.274904 107 89 97 255
0.350010 -0.337695 -0.099978 147 122 132 255
0.224422 -0.316293 0.025788 147 122 132 255
0.350010 -0.316293 -0.099978 147 122 132 255
0.350810 -0.316293 -0.252454 147 122 132 255
0.350565 -0.433709 -0.235449 147 122 132 255
0.236448 -0.433709 0.037813 147 122 132 255
-0.003589 -0.460820 0.222047 107 89 97 255
-0.097354 -0.460820 0.350179 107 89 97 255
-0.304137 -0.460820 0.350791 107 89 97 255
-0.136813 -0.433709 0.350421 148 123 133 255
0.051479 -0.337695 0.277115 147 122 132 255
0.012287 -0.316293 0.237923 147 122 132 255
-0.119806 -0.316293 0.350316 147 122 132 255
0.051479 -0.316293 0.277115 148 123 133 255
-0.445294 -0.444919 0.500016 147 122 132 255
-0.391162 -0.433710 0.500017 147 122 132 255
-0.410541 -0.433710 0.500016 147 122 132 255
-0.445294 -0.444919 -0.499998 147 122 132 255
-0.391162 -0.433710 -0.499998 147 122 132 255
-0.354440 -0.444919 -0.499998 147 122 132 255
-0.391162 -0.348786 -0.499998 106 88 96 255
-0.427548 -0.337695 -0.499998 147 122 132 255
-0.372122 -0.337695 -0.499998 147 122 132 255
-0.391162 -0.348786 0.500017 106 88 96 255
-0.427548 -0.337695 0.500016 147 122 132 255
-0.410541 -0.348786 0.500016 106 88 96 255
0.354706 -0.444919 0.500017 147 122 132 255
0.408838 -0.433710 0.500016 147 122 132 255
0.389459 -0.433710 0.500016 147 122 132 255
0.354706 -0.444919 -0.499998 147 122 132 255
0.408838 -0.433710 -0.499998 147 122 132 255
0.445560 -0.444919 -0.499998 147 122 132 255
0.408838 -0.348786 -0.499998 106 88 96 255
0.372452 -0.337695 -0.499998 147 122 132 255
0.427878 -0.337695 -0.499998 147 122 132 255
0.408838 -0.348786 0.500016 106 88 96 255
0.372452 -0.337695 0.500016 147 122 132 255
0.389459 -0.348786 0.500016 106 88 96 255
0.348804 -0.444919 0.445087 147 122 132 255
0.348804 -0.433710 0.390955 147 122 132 255
0.348804 -0.433710 0.410334 147 122 132 255
-0.349656 -0.444919 0.446172 147 122 132 255
-0.349656 -0.433710 0.392040 147 122 132 255
-0.349656 -0.444919 0.355318 147 122 132 255
-0.349656 -0.348786 0.392040 106 88 96 255
-0.349656 -0.337695 0.428426 147 122 132 255
-0.349656 -0.337695 0.373000 147 122 132 255
0.348804 -0.348786 0.390955 106 88 96 255
0.348804 -0.337695 0.427341 147 122 132 255
0.348804 -0.348786 0.410334 106 88 96 255
0.348804 -0.444919 -0.354913 147 122 132 255
0.348804 -0.433710 -0.409045 147 122 132 255
0.348804 -0.433710 -0.389666 147 122 132 255
-0.349656 -0.444919 -0.353828 147 122 132 255
-0.349656 -0.433710 -0.407960 147 122 132 255
-0.349656 -0.444919 -0.444682 147 122 132 255
-0.349656 -0.348786 -0.407960 106 88 96 255
-0.349656 -0.337695 -0.371574 147 122 132 255
-0.349656 -0.337695 -0.427000 147 122 132 255
0.348804 -0.348786 -0.409045 106 88 96 255
0.348804 -0.337695 -0.372659 147 122 132 255
0.348804 -0.348786 -0.389666 106 88 96 255
-0.450669 -0.444919 0.445087 147 122 132 255
-0.450669 -0.433710 0.390955 147 122 132 255
-0.450669 -0.433710 0.410334 147 122 132 255
-0.500331 -0.444919 0.446172 147 122 132 255
-0.500331 -0.433710 0.392040 147 122 132 255
-0.500331 -0.444919 0.355318 147 122 132 255
-0.500331 -0.348786 0.392040 106 88 96 255
-0.500331 -0.337695 0.428426 147 122 132 255
-0.500331 -0.337695 0.373000 147 122 132 255
-0.450669 -0.348786 0.390955 106 88 96 255
-0.450669 -0.337695 0.427341 147 122 132 255
-0.450669 -0.348786 0.410334 106 88 96 255
-0.450669 -0.444919 -0.354913 147 122 132 255
-0.450669 -0.433710 -0.409045 147 122 132 255
-0.450669 -0.433710 -0.389666 147 122 132 255
-0.500331 -0.444919 -0.353828 147 122 132 255
-0.500331 -0.433710 -0.407960 147 122 132 255
-0.500331 -0.444919 -0.444682 147 122 132 255
-0.500331 -0.348786 -0.407960 106 88 96 255
-0.500331 -0.337695 -0.371574 147 122 132 255
-0.500331 -0.337695 -0.427000 147 122 132 255
-0.450669 -0.348786 -0.409045 106 88 96 255
-0.450669 -0.337695 -0.372659 147 122 132 255
-0.450669 -0.348786 -0.389666 106 88 96 255
0.500007 -0.444919 0.445087 147 122 132 255
0.500007 -0.433710 0.390955 147 122 132 255
0.500007 -0.433710 0.410334 147 122 132 255
0.450345 -0.444919 0.446172 147 122 132 255
0.450345 -0.433710 0.392040 147 122 132 255
0.450345 -0.444919 0.355318 147 122 132 255
0.450345 -0.348786 0.392040 106 88 96 255
0.450345 -0.337695 0.428426 147 122 132 255
0.450345 -0.337695 0.373000 147 122 132 255
0.500007 -0.348786 0.390955 106 88 96 255
0.500007 -0.337695 0.427341 147 122 132 255
0.500007 -0.348786 0.410334 106 88 96 255
0.500007 -0.444919 -0.354913 147 122 132 255
0.500007 -0.433710 -0.409045 147 122 132 255
0.500007 -0.433710 -0.389666 147 122 132 255
0.450345 -0.444919 -0.353828 147 122 132 255
0.450345 -0.433710 -0.407960 147 122 132 255
0.450345 -0.444919 -0.444682 147 122 132 255
0.450345 -0.348786 -0.407960 106 88 96 255
0.450345 -0.337695 -0.371574 147 122 132 255
0.450345 -0.337695 -0.427000 147 122 132 255
0.500007 -0.348786 -0.409045 106 88 96 255
0.500007 -0.337695 -0.372659 147 122 132 255
0.500007 -0.348786 -0.389666 106 88 96 255
0.000916 -0.444919 -0.224598 133 110 120 255
-0.037362 -0.433709 -0.262875 147 122 132 255
-0.023658 -0.433709 -0.249172 147 122 132 255
-0.211220 -0.444919 -0.012463 140 116 126 255
-0.249497 -0.433709 -0.050740 147 122 132 255
-0.275463 -0.444919 -0.076707 142 119 128 255
-0.249497 -0.348786 -0.050740 107 89 97 255
-0.223768 -0.337695 -0.025012 147 122 132 255
-0.262960 -0.337695 -0.064204 147 122 132 255
-0.037362 -0.348786 -0.262875 107 89 97 255
-0.011633 -0.337695 -0.237147 143 119 128 255
-0.023658 -0.348786 -0.249172 107 89 97 255
-0.350412 -0.444919 0.270975 147 122 132 255
-0.349631 -0.433709 0.119792 147 122 132 255
-0.349100 -0.444919 0.083074 144 120 129 255
-0.350156 -0.337695 0.253230 147 122 132 255
-0.349631 -0.348786 0.119792 107 89 97 255
-0.349910 -0.348786 0.236225 114 95 103 255
0.102715 -0.444919 -0.349432 147 122 132 255
0.263630 -0.433709 -0.349763 148 123 133 255
0.300352 -0.444919 -0.349988 147 123 133 255
0.120461 -0.337695 -0.349540 147 122 132 255
0.263630 -0.348786 -0.349763 109 91 99 255
0.137467 -0.348786 -0.349644 107 89 97 255
-0.349036 -0.460820 0.078635 107 89 97 255
-0.207892 -0.460820 -0.009135 108 89 97 255
-0.350480 -0.460820 0.275680 107 89 97 255
-0.349356 -0.337695 0.100754 147 122 132 255
-0.223768 -0.316293 -0.025012 147 122 132 255
-0.349356 -0.316293 0.100754 147 122 132 255
-0.350156 -0.316293 0.253230 147 122 132 255
-0.349910 -0.433709 0.236225 147 122 132 255
-0.235793 -0.433709 -0.037037 147 122 132 255
0.004243 -0.460820 -0.221270 107 89 97 255
0.098009 -0.460820 -0.349403 107 89 97 255
0.304791 -0.460820 -0.350015 107 89 97 255
0.137467 -0.433709 -0.349644 148 123 133 255
-0.050825 -0.337695 -0.276339 147 122 132 255
-0.011633 -0.316293 -0.237147 147 122 132 255
0.120461 -0.316293 -0.349540 147 122 132 255
-0.050825 -0.316293 -0.276339 148 123 133 255
-0.500331 -0.460820 0.350878 106 88 96 255
-0.500331 -0.460820 0.450879 107 89 97 255
0.450000 -0.460820 0.500016 106 88 96 255
0.450000 -0.460820 -0.499998 106 88 96 255
0.445560 -0.444919 0.500016 147 122 132 255
0.348804 -0.460820 -0.350207 106 88 96 255
0.348804 -0.460820 -0.450207 106 88 96 255
0.348804 -0.444919 -0.445767 147 122 132 255
0.236448 -0.348786 0.037813 107 89 97 255
0.063982 -0.444919 0.289618 134 111 121 255
0.350000 -0.460820 0.500016 106 88 96 255
0.350000 -0.460820 -0.499998 106 88 96 255
-0.278602 -0.460820 -0.079846 107 89 97 255
-0.066467 -0.460820 -0.291981 107 89 97 255
0.263614 -0.316293 0.064980 147 122 132 255
-0.410541 -0.433710 -0.499998 147 122 132 255
-0.262960 -0.316293 -0.064204 147 122 132 255
-0.282015 -0.337695 0.350656 147 122 132 255
-0.282015 -0.316293 0.350656 147 122 132 255
0.279257 -0.460820 0.080622 107 89 97 255
0.067122 -0.460820 0.292757 107 89 97 255
-0.063328 -0.444919 -0.288842 134 111 121 255
0.500000 -0.500010 -0.250000 165 121 73 255
0.500000 -0.500010 -0.410000 165 121 73 255
0.500000 -0.460010 -0.410000 165 121 73 255
0.500000 -0.460010 -0.250000 165 121 73 255
-0.500000 -0.500010 -0.250000 165 121 73 255
-0.500000 -0.460010 -0.250000 165 121 73 255
-0.500000 -0.500010 -0.410000 165 121 73 255
-0.500000 -0.460010 -0.410000 165 121 73 255
0.500000 -0.500010 0.080000 165 121 73 255
0.500000 -0.500010 -0.080000 165 121 73 255
0.500000 -0.460010 -0.080000 165 121 73 255
0.500000 -0.460010 0.080000 165 121 73 255
-0.500000 -0.500010 0.080000 165 121 73 255
-0.500000 -0.460010 0.080000 165 121 73 255
-0.500000 -0.500010 -0.080000 165 121 73 255
-0.500000 -0.460010 -0.080000 165 121 73 255
0.500000 -0.500010 0.410000 165 121 73 255
0.500000 -0.500010 0.250000 165 121 73 255
0.500000 -0.460010 0.250000 165 121 73 255
0.500000 -0.460010 0.410000 165 121 73 255
-0.500000 -0.500010 0.410000 165 121 73 255
-0.500000 -0.460010 0.410000 165 121 73 255
-0.500000 -0.500010 0.250000 165 121 73 255
-0.500000 -0.460010 0.250000 165 121 73 255
-0.350000 -0.460820 -0.499998 106 88 96 255
-0.450000 -0.460820 -0.499998 107 89 97 255
-0.235793 -0.348786 -0.037037 107 89 97 255
-0.450669 -0.460820 -0.350207 106 88 96 255
-0.450669 -0.460820 -0.450207 106 88 96 255
-0.450669 -0.444919 -0.445767 147 122 132 255
-0.354440 -0.444919 0.500016 147 122 132 255
0.427878 -0.316293 -0.499998 147 122 132 255
0.372452 -0.316293 -0.499998 147 122 132 255
0.372452 -0.316293 0.500016 147 122 132 255
0.427878 -0.316293 0.500017 147 122 132 255
0.389459 -0.433710 -0.499998 147 122 132 255
-0.410541 -0.348786 -0.499998 106 88 96 255
-0.372122 -0.316293 -0.499998 147 122 132 255
-0.427548 -0.316293 -0.499998 147 122 132 255
0.450345 -0.316293 -0.371574 147 122 132 255
0.500007 -0.316293 -0.372659 147 122 132 255
-0.350000 -0.460820 0.500017 106 88 96 255
-0.372122 -0.337695 0.500016 147 122 132 255
-0.427548 -0.316293 0.500016 147 122 132 255
-0.372122 -0.316293 0.500016 147 122 132 255
0.500007 -0.337695 -0.428085 147 122 132 255
0.500007 -0.316293 -0.428085 147 122 132 255
0.450345 -0.460820 -0.449122 106 88 96 255
0.450345 -0.460820 -0.349122 106 88 96 255
0.348804 -0.444919 0.354233 147 122 132 255
0.348804 -0.460820 0.349793 106 88 96 255
-0.349656 -0.460820 0.350879 106 88 96 255
-0.349656 -0.460820 -0.449122 106 88 96 255
-0.349656 -0.460820 -0.349122 106 88 96 255
-0.450000 -0.460820 0.500016 119 99 107 255
0.450345 -0.348786 -0.388581 106 88 96 255
0.450345 -0.433710 -0.388581 147 122 132 255
0.389459 -0.348786 -0.499998 106 88 96 255
0.427878 -0.337695 0.500017 147 122 132 255
0.500007 -0.316293 0.427341 147 122 132 255
0.500007 -0.337695 0.371915 147 122 132 255
0.500007 -0.316293 0.371915 147 122 132 255
-0.450669 -0.460820 0.449793 119 99 107 255
-0.450669 -0.460820 0.349793 106 88 96 255
-0.450669 -0.444919 0.354233 147 122 132 255
-0.500331 -0.460820 -0.449122 106 88 96 255
-0.500331 -0.460820 -0.349122 106 88 96 255
-0.349656 -0.316293 -0.427000 147 122 132 255
-0.349656 -0.316293 -0.371574 147 122 132 255
0.348804 -0.316293 -0.372659 147 122 132 255
0.348804 -0.316293 -0.428085 147 122 132 255
-0.500331 -0.316293 -0.371574 147 122 132 255
-0.450669 -0.316293 -0.372659 147 122 132 255
-0.349656 -0.433710 -0.388581 147 122 132 255
-0.349656 -0.433710 0.411419 147 122 132 255
-0.349656 -0.348786 -0.388581 106 88 96 255
-0.349656 -0.348786 0.411419 106 88 96 255
-0.349656 -0.316293 0.373000 147 122 132 255
-0.349656 -0.316293 0.428426 147 122 132 255
0.348804 -0.337695 0.371915 147 122 132 255
0.348804 -0.460820 0.449793 119 99 107 255
-0.349656 -0.460820 0.450879 107 89 97 255
0.348804 -0.316293 0.427341 147 122 132 255
0.348804 -0.316293 0.371915 147 122 132 255
0.500007 -0.460820 0.449793 119 99 107 255
0.500007 -0.460820 0.349793 106 88 96 255
0.500007 -0.444919 0.354233 147 122 132 255
-0.500331 -0.316293 0.373000 147 122 132 255
-0.500331 -0.316293 0.428426 147 122 132 255
0.348804 -0.337695 -0.428085 147 122 132 255
0.500007 -0.444919 -0.445767 147 122 132 255
0.500007 -0.460820 -0.450207 106 88 96 255
0.500007 -0.460820 -0.350207 106 88 96 255
-0.450669 -0.316293 0.427341 147 122 132 255
-0.450669 -0.316293 0.371915 147 122 132 255
0.450345 -0.316293 -0.427000 147 122 132 255
-0.500331 -0.433710 0.411419 147 122 132 255
0.450345 -0.348786 0.411420 106 88 96 255
-0.500331 -0.348786 0.411419 106 88 96 255
0.282670 -0.337695 -0.349880 147 122 132 255
0.282670 -0.316293 -0.349880 147 122 132 255
-0.450669 -0.337695 0.371915 147 122 132 255
-0.500331 -0.316293 -0.427000 147 122 132 255
-0.450669 -0.316293 -0.428085 147 122 132 255
0.450345 -0.460820 0.350878 106 88 96 255
0.450345 -0.316293 0.373000 147 122 132 255
0.450345 -0.316293 0.428426 147 122 132 255
-0.500331 -0.433710 -0.388581 147 122 132 255
-0.500331 -0.348786 -0.388581 106 88 96 255
-0.450669 -0.337695 -0.428085 147 122 132 255
0.450345 -0.433710 0.411420 147 122 132 255
0.450345 -0.460820 0.450879 107 89 97 255
3 0 1 2
3 3 4 5
3 6 7 8
3 9 10 11
3 12 13 14
3 15 16 17
3 18 19 20
3 21 22 23
3 24 25 26
3 14 4 5
3 27 6 16
3 28 29 30
3 31 3 32
3 17 7 15
3 33 34 35
3 18 1 36
3 21 9 37
3 38 39 40
3 19 0 20
3 22 10 11
3 41 42 43
3 44 45 46
3 47 48 49
3 50 51 52
3 53 54 55
3 56 57 58
3 59 60 61
3 62 63 64
3 65 66 67
3 68 69 70
3 71 72 73
3 74 75 76
3 77 78 79
3 80 81 82
3 83 84 85
3 86 87 88
3 89 90 91
3 92 93 94
3 95 96 97
3 98 99 100
3 101 102 103
3 104 105 106
3 107 108 109
3 110 111 112
3 113 114 115
3 116 117 118
3 119 120 121
3 122 123 124
3 125 126 127
3 128 129 130
3 131 132 133
3 134 135 136
3 137 138 139
3 140 141 142
3 143 144 145
3 146 147 148
3 149 150 151
3 152 153 154
3 155 156 157
3 158 159 160
3 161 162 163
3 151 141 142
3 164 143 153
3 165 166 167
3 168 140 169
3 154 144 152
3 170 171 172
3 155 138 173
3 158 146 174
3 175 176 177
3 156 137 157
3 159 147 148
4 174 146 143 145
4 178 179 92 94
4 180 181 58 182
4 77 183 184 185
4 186 32 2 11
3 0 187 1
4 167 152 144 165
4 4 1 187 5
4 181 180 188 189
3 3 32 4
4 190 191 170 162
4 6 4 32 186
4 11 2 1 9
4 192 8 7 28
4 141 150 153 143
4 193 44 41 43
3 6 186 7
3 9 37 10
4 194 165 175 177
4 28 7 10 38
4 40 37 8 192
4 156 173 160 159
4 149 151 161 163
3 12 31 13
4 27 15 30 29
3 15 27 16
4 164 152 167 166
4 12 14 24 26
3 18 36 19
4 195 21 39 196
3 21 195 22
4 150 168 154 153
3 24 197 25
4 142 190 161 151
3 14 13 4
4 27 29 192 8
3 27 8 6
4 177 174 145 194
3 28 192 29
4 162 140 149 163
3 31 12 3
4 30 15 7 28
3 17 186 7
4 165 144 147 175
3 33 198 34
4 181 189 56 58
3 18 187 1
4 39 21 37 40
3 21 23 9
4 175 147 174 177
3 38 196 39
4 171 191 199 155
3 19 2 0
4 195 196 38 10
3 22 195 10
4 200 201 202 203
4 204 200 203 205
4 206 204 205 207
4 201 206 207 202
4 201 200 204 206
4 207 205 203 202
4 208 209 210 211
4 212 208 211 213
4 214 212 213 215
4 209 214 215 210
4 209 208 212 214
4 215 213 211 210
4 216 217 218 219
4 220 216 219 221
4 222 220 221 223
4 217 222 223 218
4 217 216 220 222
4 223 221 219 218
4 194 145 144 165
4 56 189 188 53
4 224 225 44 46
4 143 141 169 226
4 101 227 228 229
4 28 38 40 192
3 41 230 42
4 147 144 226 148
4 25 33 0 3
4 231 232 233 234
3 44 193 45
4 55 235 56 53
4 47 45 193 236
4 52 43 42 50
4 237 49 48 238
4 239 132 135 240
4 241 224 46 230
3 47 236 48
3 50 242 51
4 243 51 242 244
4 238 48 51 243
4 244 242 49 237
4 240 135 245 246
4 45 42 230 46
4 247 248 128 130
4 249 250 251 70
4 252 253 80 82
4 224 241 254 225
3 53 182 54
4 255 256 127 136
4 60 257 64 63
4 61 258 62 59
3 56 235 57
4 54 182 58 57
4 59 57 235 257
4 64 55 54 62
4 231 61 60 232
4 259 123 260 261
4 242 50 47 49
3 59 257 60
3 62 258 63
4 198 197 5 187
4 232 60 63 233
4 234 258 61 231
4 124 115 114 122
4 185 184 252 82
4 89 262 263 264
4 80 253 183 77
4 265 266 104 106
4 267 268 269 270
3 65 249 66
4 271 108 111 272
4 273 80 77 79
4 78 185 82 81
3 68 274 69
4 87 84 275 88
4 71 69 274 276
4 76 67 66 74
4 277 73 72 278
4 112 103 102 110
4 274 68 65 67
3 71 276 72
3 74 279 75
4 251 250 280 281
4 278 72 75 282
4 283 279 73 277
4 110 102 105 107
4 68 281 280 65
4 251 281 68 70
4 75 72 276 76
4 113 284 285 286
4 229 228 265 106
3 77 185 78
4 287 97 96 288
4 66 249 70 69
4 277 278 282 283
3 80 273 81
4 85 289 86 83
4 139 156 159 148
4 88 79 78 86
4 267 85 84 268
4 98 90 93 95
4 73 279 74 71
3 83 275 84
3 86 289 87
4 252 184 183 253
4 268 84 87 269
4 270 289 85 267
4 7 186 11 10
4 290 291 247 130
4 137 170 191 199
4 128 248 292 125
4 53 188 180 182
4 287 288 293 294
3 89 264 90
4 269 87 289 270
4 256 128 125 127
4 295 239 240 246
3 92 296 93
4 123 120 297 124
4 298 296 91 100
4 299 300 175 147
4 95 93 296 298
4 100 91 90 98
4 121 260 122 119
3 95 298 96
3 98 301 99
4 302 271 272 303
4 275 273 79 88
4 293 99 301 294
4 288 96 99 293
4 286 285 304 118
4 155 157 172 171
4 135 132 255 136
4 190 162 140 142
4 305 306 259 261
3 101 229 102
4 294 301 97 287
4 296 92 89 91
4 90 264 94 93
3 104 307 105
4 99 96 298 100
4 308 307 103 112
4 282 75 279 283
4 107 105 307 308
4 74 66 69 71
4 97 301 98 95
3 107 308 108
3 110 309 111
4 247 291 292 248
4 302 109 108 271
4 272 111 309 303
4 276 274 67 76
4 264 263 178 94
4 65 280 250 249
4 104 266 227 101
4 0 33 198 187
4 178 263 262 179
3 113 286 114
4 303 309 109 302
4 114 286 118 117
4 126 290 130 129
3 116 310 117
4 133 245 134 131
4 297 310 115 124
4 122 114 117 119
4 119 117 310 297
4 233 63 258 234
4 307 104 101 103
3 119 297 120
3 122 260 123
4 5 197 24 14
4 305 121 120 306
4 62 54 57 59
4 306 120 123 259
4 92 179 262 89
4 41 254 241 230
4 116 311 284 113
4 125 292 291 290
4 265 228 227 266
3 125 290 126
4 261 260 121 305
4 310 116 113 115
4 102 229 106 105
3 128 256 129
4 111 108 308 112
4 257 235 55 64
4 134 126 129 131
4 131 129 256 255
4 136 127 126 134
4 109 309 110 107
3 131 255 132
3 134 245 135
4 304 285 284 311
4 295 133 132 239
4 238 243 244 237
4 50 42 45 47
4 51 48 236 52
4 197 25 3 5
4 191 190 142 199
4 304 311 116 118
4 169 140 137 139
3 137 199 138
4 246 245 133 295
4 2 32 3 0
4 37 9 6 8
3 140 169 141
4 226 169 139 148
4 236 193 43 52
4 146 138 141 143
4 225 254 41 44
4 148 139 138 146
4 162 170 137 140
3 143 226 144
3 146 174 147
4 138 199 142 141
4 2 19 22 11
4 9 23 36 1
4 186 17 31 32
3 149 168 150
4 4 13 16 6
3 152 164 153
4 19 36 23 22
4 18 20 35 34
3 155 173 156
4 13 31 17 16
3 158 299 159
4 38 10 37 40
3 161 190 162
4 25 3 12 26
3 151 150 141
4 299 158 176 300
3 164 145 143
4 9 1 4 6
3 165 194 166
4 170 172 157 137
3 168 149 140
4 164 166 194 145
3 154 226 144
4 226 154 168 169
3 170 191 171
4 34 198 187 18
3 155 199 138
4 197 198 33 25
3 158 160 146
4 146 160 173 138
3 175 300 176
4 33 35 20 0
3 156 139 137
4 176 158 174 177
3 159 299 147
4 83 81 273 275
4 86 78 81 83
