ply
format ascii 1.0
comment Created by Blender 2.83.20 - www.blender.org, source file: ''
element vertex 144
property float x
property float y
property float z
property uchar red
property uchar green
property uchar blue
property uchar alpha
element face 146
property list uchar uint vertex_indices
end_header
0.217655 -0.072378 -0.270909 162 132 117 255
0.270909 -0.072378 -0.270909 162 132 117 255
0.270909 -0.270909 -0.270909 120 100 96 255
0.243248 -0.070743 -0.243248 162 132 117 255
-0.270909 0.652005 -0.270909 162 132 117 255
-0.243248 0.653640 0.243248 162 132 117 255
-0.243248 0.653640 -0.243248 162 132 117 255
0.243248 -0.070743 0.243248 162 132 117 255
0.270909 -0.072378 0.270909 162 132 117 255
-0.158490 0.652005 0.270909 162 132 117 255
-0.270909 0.652005 0.270909 162 132 117 255
0.216901 -0.070743 0.243248 162 132 117 255
0.243248 -0.219457 0.243248 104 84 75 255
-0.243248 -0.219457 0.243248 106 86 79 255
-0.243248 -0.219457 -0.243248 107 87 79 255
0.243248 -0.219457 -0.243248 107 86 77 255
0.217615 -0.070743 -0.243248 162 132 117 255
-0.158490 0.652005 -0.270909 162 132 117 255
-0.158490 0.653640 -0.243248 162 132 117 255
0.216860 -0.072378 0.270909 162 132 117 255
0.143016 -0.223825 -0.401457 162 166 181 255
0.186508 -0.148495 -0.401457 162 166 181 255
0.273492 -0.148495 -0.401457 162 166 181 255
0.161082 -0.104455 -0.272419 102 105 115 255
0.092163 -0.223825 -0.272419 102 105 115 255
0.161082 -0.343195 -0.272419 102 105 115 255
-0.143016 -0.223825 0.401457 162 166 181 255
-0.186508 -0.148495 0.401457 162 166 181 255
-0.273492 -0.148495 0.401457 162 166 181 255
-0.270909 -0.270909 -0.270909 120 100 96 255
0.186508 -0.299155 -0.401457 162 166 181 255
0.273492 -0.299155 -0.401457 160 164 179 255
0.183276 -0.115688 -0.148671 129 117 128 255
0.183276 -0.115688 -0.243661 128 116 127 255
0.183276 -0.020698 -0.243661 173 157 171 255
0.183276 -0.020698 -0.148671 173 157 171 255
-0.270909 -0.270909 0.270909 120 100 96 255
0.270909 -0.270909 0.270909 120 100 96 255
-0.158490 0.653640 0.243248 162 132 117 255
0.088286 -0.115688 -0.148671 128 116 127 255
0.088286 -0.020698 -0.148671 173 157 171 255
0.105891 -0.040605 -0.217646 139 113 118 255
0.139553 -0.025237 -0.214318 136 110 115 255
0.135848 -0.025127 -0.177349 138 112 117 255
0.102186 -0.040496 -0.180677 136 110 115 255
0.088286 -0.115688 -0.243661 128 116 127 255
0.088286 -0.020698 -0.243661 173 157 171 255
-0.298918 -0.104455 0.272419 102 105 115 255
-0.298918 -0.104455 0.287489 102 105 115 255
-0.161082 -0.104455 0.287489 102 105 115 255
-0.161082 -0.104455 0.272419 102 105 115 255
0.143016 -0.223825 0.401457 162 166 181 255
0.186508 -0.148495 0.401457 162 166 181 255
0.170429 -0.120644 0.287489 118 121 132 255
0.110857 -0.223825 0.287489 118 121 132 255
-0.273492 -0.148495 -0.401457 162 166 181 255
-0.316984 -0.223825 -0.401457 162 166 181 255
-0.349143 -0.223825 -0.287489 118 121 132 255
-0.289571 -0.120644 -0.287489 118 121 132 255
0.273492 -0.299155 0.401457 162 166 181 255
0.186508 -0.299155 0.401457 160 164 179 255
0.170429 -0.327006 0.287489 118 121 132 255
0.289571 -0.327006 0.287489 118 121 132 255
-0.273492 -0.299155 -0.401457 162 166 181 255
-0.186508 -0.299155 -0.401457 160 164 179 255
-0.170429 -0.327006 -0.287489 118 121 132 255
-0.289571 -0.327005 -0.287489 118 121 132 255
-0.186508 -0.148495 -0.401457 162 166 181 255
-0.170429 -0.120644 -0.287489 118 121 132 255
0.161082 -0.104455 -0.287489 102 105 115 255
0.298918 -0.104455 -0.287489 102 105 115 255
0.289571 -0.120644 -0.287489 118 121 132 255
0.170429 -0.120644 -0.287489 118 121 132 255
0.316984 -0.223825 -0.401457 162 166 181 255
0.349143 -0.223825 -0.287489 118 121 132 255
0.289571 -0.327006 -0.287489 118 121 132 255
-0.143016 -0.223825 -0.401457 162 166 181 255
-0.186508 -0.299155 0.401457 162 166 181 255
-0.273492 -0.299155 0.401457 160 164 179 255
0.024345 0.248339 -0.177852 112 50 64 255
0.030328 0.248163 -0.237553 112 50 64 255
-0.019031 0.357414 -0.242823 138 53 56 255
-0.025014 0.357591 -0.183122 133 52 53 255
-0.161082 -0.104455 -0.287489 102 105 115 255
-0.092163 -0.223825 -0.287489 102 105 115 255
-0.110857 -0.223825 -0.287489 118 121 132 255
0.161082 -0.343195 -0.287489 102 105 115 255
0.092163 -0.223825 -0.287489 104 107 117 255
0.110857 -0.223825 -0.287489 118 121 132 255
0.170429 -0.327005 -0.287489 118 121 132 255
-0.367837 -0.223825 0.287489 102 105 115 255
-0.349143 -0.223825 0.287489 118 121 132 255
-0.289571 -0.120644 0.287489 118 121 132 255
0.298918 -0.343195 -0.287489 102 105 115 255
0.273492 -0.148495 0.401457 162 166 181 255
0.316984 -0.223825 0.401457 162 166 181 255
-0.092163 -0.223825 -0.272419 102 105 115 255
-0.161082 -0.104455 -0.272419 102 105 115 255
-0.298918 -0.104455 -0.272419 102 105 115 255
-0.367837 -0.223825 -0.272419 102 105 115 255
-0.298918 -0.343195 -0.272419 102 105 115 255
-0.161082 -0.343195 0.272419 102 105 115 255
-0.161082 -0.343195 0.287489 102 105 115 255
-0.298918 -0.343195 0.287489 102 105 115 255
-0.298918 -0.343195 0.272419 102 105 115 255
-0.367837 -0.223825 -0.287489 104 107 117 255
-0.298918 -0.343195 -0.287489 102 105 115 255
-0.092163 -0.223825 0.287489 104 107 117 255
-0.092163 -0.223825 0.272419 102 105 115 255
0.161082 -0.343195 0.272419 102 105 115 255
0.161082 -0.343195 0.287489 102 105 115 255
0.092163 -0.223825 0.287489 102 105 115 255
0.092163 -0.223825 0.272419 102 105 115 255
-0.170429 -0.327006 0.287489 118 121 132 255
-0.110857 -0.223825 0.287489 118 121 132 255
0.289571 -0.120644 0.287489 118 121 132 255
-0.289571 -0.327006 0.287489 118 121 132 255
-0.367837 -0.223825 0.272419 102 105 115 255
-0.298918 -0.104455 -0.287489 102 105 115 255
0.367837 -0.223825 0.287489 104 107 117 255
0.298918 -0.104455 0.287489 102 105 115 255
0.349143 -0.223825 0.287489 118 121 132 255
-0.170429 -0.120644 0.287489 118 121 132 255
0.298918 -0.343195 0.287489 102 105 115 255
0.298918 -0.343195 -0.272419 102 105 115 255
0.367837 -0.223825 -0.272419 102 105 115 255
0.367837 -0.223825 0.272419 102 105 115 255
0.298918 -0.343195 0.272419 102 105 115 255
0.298918 -0.104455 0.272419 102 105 115 255
-0.161082 -0.343195 -0.287489 102 105 115 255
-0.161082 -0.343195 -0.272419 102 105 115 255
-0.021213 0.232633 -0.193852 173 140 146 255
0.012449 0.248002 -0.190524 173 140 146 255
0.016154 0.247892 -0.227492 173 140 146 255
-0.017508 0.232523 -0.230821 173 140 146 255
0.161082 -0.104455 0.287489 102 105 115 255
-0.316984 -0.223825 0.401457 162 166 181 255
0.298918 -0.104455 -0.272419 102 105 115 255
0.367837 -0.223825 -0.287489 102 105 115 255
0.161082 -0.104455 0.272419 102 105 115 255
-0.024032 0.223343 -0.242928 112 50 64 255
-0.073392 0.332595 -0.248197 138 53 56 255
-0.030016 0.223520 -0.183227 112 50 64 255
-0.079375 0.332771 -0.188497 138 53 56 255
3 0 1 2
3 0 3 1
3 4 5 6
3 1 7 8
3 9 5 10
3 11 12 13
3 14 15 16
3 17 6 18
3 19 7 11
3 20 21 22
3 23 24 25
3 26 27 28
3 29 0 2
4 30 20 22 31
4 32 33 34 35
3 36 37 19
3 37 8 19
4 38 11 13 5
4 39 32 35 40
4 41 42 43 44
3 0 16 3
4 45 39 40 46
3 4 10 5
3 1 3 7
3 9 38 5
4 29 2 37 36
4 47 48 49 50
4 18 6 14 16
3 11 7 12
3 15 3 16
4 0 29 4 17
4 16 0 17 18
3 17 4 6
4 51 52 53 54
3 19 8 7
4 55 56 57 58
4 59 60 61 62
4 63 64 65 66
4 67 55 58 68
4 69 70 71 72
4 56 63 66 57
4 31 73 74 75
3 67 76 64
3 64 63 56
4 77 26 28 78
4 79 80 81 82
4 83 84 85 68
4 86 87 88 89
4 87 69 72 88
4 90 91 92 48
4 86 89 75 93
4 94 52 60 95
3 96 97 98
3 98 99 100
4 101 102 103 104
4 33 45 46 34
4 99 105 106 100
4 50 49 107 108
4 109 110 111 112
4 22 21 72 71
4 20 30 89 88
4 26 77 113 114
4 53 52 94 115
4 102 113 116 103
4 30 31 75 89
4 76 67 68 85
3 22 73 31
4 108 101 117 50
4 98 118 105 99
4 106 105 57 66
4 119 120 115 121
4 105 118 58 57
4 107 49 122 114
4 123 62 61 110
3 25 124 125
4 126 127 112 128
4 100 106 129 130
4 23 69 87 24
4 25 86 93 124
4 131 132 133 134
4 42 41 134 133
4 60 51 54 61
4 94 95 121 115
4 77 78 116 113
4 95 59 62 121
4 135 53 115 120
4 74 73 22 71
4 92 28 27 122
3 28 136 78
4 137 23 25 125
4 130 129 84 96
4 123 119 121 62
4 90 103 116 91
4 93 75 74 138
4 106 66 65 129
3 101 104 117
3 117 47 50
4 96 98 100 130
4 117 90 48 47
4 104 103 90 117
4 139 135 120 128
4 80 140 141 81
4 127 123 110 109
4 21 20 88 72
4 9 10 36 19
4 78 136 91 116
4 27 26 114 122
4 118 83 68 58
4 64 76 85 65
4 136 28 92 91
3 52 51 60
3 60 59 95
4 55 67 64 56
4 37 2 1 8
4 138 74 71 70
4 107 114 113 102
4 111 110 61 54
4 111 54 53 135
4 84 129 65 85
3 127 109 112
3 112 139 128
4 48 92 122 49
4 108 107 102 101
4 41 44 131 134
4 137 70 69 23
4 142 79 82 143
4 40 35 34 46
4 97 83 118 98
4 29 36 10 4
4 14 6 5 13
4 12 7 3 15
4 13 12 15 14
4 140 80 79 142
4 141 140 142 143
4 126 119 123 127
4 126 128 120 119
4 125 138 70 137
4 39 45 33 32
4 44 43 132 131
4 143 82 81 141
4 11 38 9 19
4 132 43 42 133
4 24 87 86 25
4 96 84 83 97
4 124 93 138 125
4 112 111 135 139
