ply
format ascii 1.0
comment Created by Blender 2.82 (sub 7) - www.blender.org, source file: 'elevatorhorizontalvehicle.blend'
element vertex 160
property float x
property float y
property float z
property uchar red
property uchar green
property uchar blue
property uchar alpha
element face 232
property list uchar uint vertex_indices
end_header
0.461166 0.474842 0.015014 134 39 36 255
0.431166 0.444842 0.014897 134 39 36 255
0.461166 0.444842 0.015014 134 39 36 255
0.431166 0.474842 0.014897 134 39 36 255
0.431283 0.444842 -0.015103 134 39 36 255
0.431283 0.474842 -0.015103 134 39 36 255
0.461283 0.444842 -0.014986 134 39 36 255
0.461283 0.474842 -0.014986 134 39 36 255
0.490361 0.509842 0.030128 218 207 217 255
0.450362 0.409842 0.029972 218 207 217 255
0.490361 0.409842 0.030128 218 207 217 255
0.450362 0.509842 0.029972 218 207 217 255
0.450596 0.409842 -0.030027 218 207 217 255
0.450596 0.509842 -0.030027 218 207 217 255
0.490595 0.409842 -0.029871 217 206 216 255
0.490595 0.509842 -0.029871 218 207 217 255
0.466687 -0.171671 0.428896 93 84 99 255
0.484371 -0.202301 0.358160 93 84 99 255
0.466687 -0.171671 0.358160 93 84 99 255
0.484371 -0.202301 0.428896 93 84 99 255
0.466687 -0.232931 0.358160 93 84 99 255
0.431319 -0.232931 0.428896 93 84 99 255
0.431319 -0.232931 0.358160 93 84 99 255
0.413635 -0.202301 0.358160 93 84 99 255
0.413635 -0.202301 0.428896 93 84 99 255
0.466687 -0.232931 0.428896 93 84 99 255
0.431319 -0.171671 0.358160 93 84 99 255
0.431319 -0.171671 0.428896 93 84 99 255
0.466687 0.035169 0.428896 93 84 99 255
0.484371 0.004539 0.358160 93 84 99 255
0.466687 0.035169 0.358160 93 84 99 255
0.466687 -0.026091 0.428896 93 84 99 255
0.466687 -0.026091 0.358160 93 84 99 255
0.431319 -0.026091 0.358160 93 84 99 255
0.431319 -0.026091 0.428896 93 84 99 255
0.413635 0.004539 0.358160 93 84 99 255
0.413635 0.004539 0.428896 93 84 99 255
0.431319 0.035169 0.358160 93 84 99 255
0.431319 0.035169 0.428896 93 84 99 255
-0.430397 0.035169 0.358160 93 84 99 255
-0.412713 0.004539 0.428896 93 84 99 255
-0.412713 0.004539 0.358160 93 84 99 255
-0.430397 -0.026091 0.428896 93 84 99 255
-0.430397 -0.026091 0.358160 93 84 99 255
-0.465765 -0.026091 0.428896 93 84 99 255
-0.465765 -0.026091 0.358160 93 84 99 255
-0.483449 0.004539 0.358160 93 84 99 255
-0.483449 0.004539 0.428896 93 84 99 255
-0.465765 0.035169 0.358160 93 84 99 255
-0.430397 0.035169 0.428896 93 84 99 255
0.466687 0.035169 -0.358143 93 84 99 255
0.484371 0.004539 -0.428879 93 84 99 255
0.466687 0.035169 -0.428879 93 84 99 255
0.484371 0.004539 -0.358143 93 84 99 255
0.466687 -0.026091 -0.428879 93 84 99 255
0.431319 -0.026091 -0.358143 93 84 99 255
0.431319 -0.026091 -0.428879 93 84 99 255
0.413635 0.004539 -0.428879 93 84 99 255
0.431319 0.035169 -0.358143 93 84 99 255
0.431319 0.035169 -0.428879 93 84 99 255
-0.430397 0.035169 -0.358143 93 84 99 255
-0.412713 0.004539 -0.428879 93 84 99 255
-0.430397 0.035169 -0.428879 93 84 99 255
-0.412713 0.004539 -0.358143 93 84 99 255
-0.430397 -0.026091 -0.428879 93 84 99 255
-0.430397 -0.026091 -0.358143 93 84 99 255
-0.465765 -0.026091 -0.428879 93 84 99 255
-0.483449 0.004539 -0.358143 93 84 99 255
-0.483449 0.004539 -0.428879 93 84 99 255
-0.465765 0.035169 -0.358143 93 84 99 255
-0.465765 0.035169 -0.428879 93 84 99 255
-0.430397 -0.171671 0.428896 93 84 99 255
-0.412713 -0.202301 0.358160 93 84 99 255
-0.430397 -0.171671 0.358160 95 87 101 255
-0.430397 -0.232931 0.428896 93 84 99 255
-0.430397 -0.232931 0.358160 93 84 99 255
-0.465765 -0.232931 0.428896 93 84 99 255
-0.465765 -0.232931 0.358160 95 86 101 255
-0.483449 -0.202301 0.358160 93 84 99 255
-0.483449 -0.202301 0.428896 93 84 99 255
-0.465765 -0.171671 0.358160 93 84 99 255
-0.465765 -0.171671 0.428896 93 84 99 255
-0.430397 -0.171671 -0.358143 95 86 101 255
-0.412713 -0.202301 -0.428879 93 84 99 255
-0.430397 -0.171671 -0.428879 93 84 99 255
-0.412713 -0.202301 -0.358143 95 87 101 255
-0.430397 -0.232931 -0.428879 93 84 99 255
-0.430397 -0.232931 -0.358143 95 87 101 255
-0.465765 -0.232931 -0.428879 93 84 99 255
-0.483449 -0.202301 -0.358143 94 85 100 255
-0.483449 -0.202301 -0.428879 93 84 99 255
-0.465765 -0.171671 -0.428879 93 84 99 255
0.466687 -0.171671 -0.428879 93 84 99 255
0.484371 -0.202301 -0.358143 93 84 99 255
0.484371 -0.202301 -0.428879 93 84 99 255
0.466687 -0.232931 -0.428879 93 84 99 255
0.431319 -0.232931 -0.358143 93 84 99 255
0.431319 -0.232931 -0.428879 93 84 99 255
0.413635 -0.202301 -0.428879 93 84 99 255
0.431319 -0.171671 -0.358143 93 84 99 255
0.431319 -0.171671 -0.428879 93 84 99 255
-0.500594 -0.469110 -0.358300 141 145 151 255
0.371119 -0.302517 -0.358300 142 146 152 255
0.499406 -0.469110 -0.358300 141 145 151 255
0.499406 0.616501 0.358212 162 166 173 255
0.499406 -0.469110 0.358212 141 145 151 255
-0.372974 -0.302517 0.358212 142 146 152 255
-0.500594 -0.469110 0.358212 141 145 151 255
-0.500594 0.616501 0.358212 141 145 151 255
-0.403501 0.616501 0.358212 142 146 152 255
-0.484089 0.616501 0.342114 141 145 151 255
-0.484089 -0.450875 -0.342202 103 105 110 255
-0.484089 0.616501 -0.342202 162 166 173 255
0.400374 0.616501 -0.358300 162 166 173 255
0.484432 0.616501 -0.342202 162 166 173 255
0.499406 0.616501 -0.358300 162 166 173 255
-0.500594 0.616501 -0.358300 162 166 173 255
0.484432 0.616501 0.342114 162 166 173 255
0.484432 -0.450875 0.342114 102 104 109 255
-0.484089 -0.450875 0.342114 104 106 111 255
0.372391 -0.302517 0.342114 142 146 152 255
0.371119 -0.302517 -0.342202 144 148 154 255
-0.372974 -0.302517 -0.342202 141 145 151 255
0.400374 0.616501 -0.342202 162 166 173 255
0.372391 -0.302517 0.358212 141 145 151 255
0.399102 0.616501 0.342114 162 166 173 255
0.399102 0.616501 0.358212 162 166 173 255
-0.372974 -0.302517 -0.358300 141 145 151 255
-0.403501 0.616501 -0.342202 162 166 173 255
-0.403501 0.616501 -0.358300 162 166 173 255
-0.372974 -0.302517 0.342114 142 146 152 255
-0.403501 0.616501 0.342114 142 146 152 255
-0.462897 0.474842 -0.015044 134 39 36 255
-0.432897 0.444842 -0.015044 134 39 36 255
-0.462897 0.444842 -0.015044 134 39 36 255
-0.432897 0.474842 -0.015044 134 39 36 255
-0.432897 0.444842 0.014956 134 39 36 255
-0.432897 0.474842 0.014956 134 39 36 255
-0.462897 0.444842 0.014956 134 39 36 255
-0.462897 0.474842 0.014956 134 39 36 255
-0.492151 0.509842 -0.030044 218 207 217 255
-0.452151 0.409842 -0.030044 218 207 217 255
-0.492151 0.409842 -0.030044 218 207 217 255
-0.452151 0.509842 -0.030044 218 207 217 255
-0.452151 0.409842 0.029956 218 207 217 255
-0.452151 0.509842 0.029956 218 207 217 255
-0.492151 0.409842 0.029956 217 206 216 255
-0.492151 0.509842 0.029956 218 207 217 255
0.484371 0.004539 0.428896 93 84 99 255
-0.465765 0.035169 0.428896 93 84 99 255
0.466687 -0.026091 -0.358143 93 84 99 255
0.413635 0.004539 -0.358143 93 84 99 255
-0.465765 -0.026091 -0.358143 93 84 99 255
-0.412713 -0.202301 0.428896 93 84 99 255
-0.465765 -0.232931 -0.358143 94 85 100 255
-0.465765 -0.171671 -0.358143 95 87 101 255
0.466687 -0.171671 -0.358143 93 84 99 255
0.466687 -0.232931 -0.358143 93 84 99 255
0.413635 -0.202301 -0.358143 93 84 99 255
0.484432 -0.450875 -0.342202 102 104 109 255
3 0 1 2
3 3 4 1
3 5 6 4
3 4 2 1
3 3 7 5
3 8 9 10
3 11 12 9
3 13 14 12
3 12 10 9
3 11 15 13
3 16 17 18
3 19 20 17
3 20 21 22
3 21 23 22
3 24 21 25
3 24 26 23
3 27 18 26
3 28 29 30
3 29 31 32
3 31 33 32
3 34 35 33
3 36 34 31
3 36 37 35
3 38 30 37
3 39 40 41
3 41 42 43
3 43 44 45
3 44 46 45
3 47 44 42
3 47 48 46
3 48 49 39
3 50 51 52
3 53 54 51
3 54 55 56
3 55 57 56
3 57 58 59
3 58 52 59
3 51 56 59
3 60 61 62
3 63 64 61
3 65 66 64
3 66 67 68
3 68 69 70
3 70 60 62
3 68 70 61
3 71 72 73
3 72 74 75
3 75 76 77
3 76 78 77
3 79 76 74
3 79 80 78
3 81 73 80
3 82 83 84
3 85 86 83
3 87 88 86
3 88 89 90
3 89 91 90
3 91 82 84
3 90 91 83
3 92 93 94
3 93 95 94
3 95 96 97
3 96 98 97
3 98 99 100
3 99 92 100
3 98 100 94
3 101 102 103
3 103 104 105
3 105 106 107
3 108 101 107
3 105 101 103
3 109 110 108
3 110 111 112
3 113 114 115
3 116 110 112
3 115 117 104
3 118 111 119
3 114 118 117
3 120 118 119
3 121 122 111
3 113 121 123
3 102 122 121
3 124 125 120
3 126 117 125
3 127 128 122
3 129 112 128
3 106 120 130
3 109 130 131
3 132 133 134
3 135 136 133
3 137 138 136
3 139 134 138
3 136 134 133
3 137 132 139
3 140 141 142
3 143 144 141
3 145 146 144
3 147 142 146
3 144 142 141
3 143 147 145
3 0 3 1
3 3 5 4
3 5 7 6
3 4 6 2
3 3 0 7
3 8 11 9
3 11 13 12
3 13 15 14
3 12 14 10
3 11 8 15
3 16 19 17
3 19 25 20
3 20 25 21
3 21 24 23
3 25 19 24
3 19 16 24
3 16 27 24
3 24 27 26
3 27 16 18
3 28 148 29
3 29 148 31
3 31 34 33
3 34 36 35
3 31 148 36
3 148 28 36
3 28 38 36
3 36 38 37
3 38 28 30
3 39 49 40
3 41 40 42
3 43 42 44
3 44 47 46
3 42 40 47
3 40 49 47
3 49 149 47
3 47 149 48
3 48 149 49
3 50 53 51
3 53 150 54
3 54 150 55
3 55 151 57
3 57 151 58
3 58 50 52
3 59 52 51
3 51 54 56
3 56 57 59
3 60 63 61
3 63 65 64
3 65 152 66
3 66 152 67
3 68 67 69
3 70 69 60
3 70 62 61
3 61 64 66
3 66 68 61
3 71 153 72
3 72 153 74
3 75 74 76
3 76 79 78
3 74 153 71
3 71 81 74
3 81 79 74
3 79 81 80
3 81 71 73
3 82 85 83
3 85 87 86
3 87 154 88
3 88 154 89
3 89 155 91
3 91 155 82
3 91 84 83
3 83 86 88
3 88 90 83
3 92 156 93
3 93 157 95
3 95 157 96
3 96 158 98
3 98 158 99
3 99 156 92
3 100 92 94
3 94 95 97
3 97 98 94
3 101 116 127
3 116 129 127
3 113 115 102
3 115 103 102
3 101 127 102
3 103 115 104
3 105 104 124
3 104 126 124
3 109 108 106
3 108 107 106
3 105 124 106
3 108 116 101
3 105 107 101
3 109 131 110
3 110 119 111
3 113 123 114
3 116 108 110
3 115 114 117
3 118 159 111
3 114 159 118
3 119 110 130
3 110 131 130
3 125 117 120
3 117 118 120
3 119 130 120
3 159 114 121
3 114 123 121
3 128 112 122
3 112 111 122
3 159 121 111
3 113 102 121
3 102 127 122
3 124 126 125
3 126 104 117
3 127 129 128
3 129 116 112
3 106 124 120
3 109 106 130
3 132 135 133
3 135 137 136
3 137 139 138
3 139 132 134
3 136 138 134
3 137 135 132
3 140 143 141
3 143 145 144
3 145 147 146
3 147 140 142
3 144 146 142
3 143 140 147
