ply
format ascii 1.0
comment Created by Blender 2.82 (sub 7) - www.blender.org, source file: 'elevatorshaft.blend'
element vertex 120
property float x
property float y
property float z
property uchar red
property uchar green
property uchar blue
property uchar alpha
element face 140
property list uchar uint vertex_indices
end_header
0.487783 0.500000 -0.070000 157 140 144 255
0.487783 -0.500000 0.070000 158 142 145 255
0.487783 -0.500000 -0.070000 156 139 143 255
0.487783 0.500000 0.070000 157 140 144 255
0.347783 -0.500000 0.070000 156 139 143 255
0.347783 0.500000 0.070000 156 139 143 255
0.347783 -0.500000 -0.070000 156 139 143 255
0.347783 0.500000 -0.070000 156 139 143 255
-0.350903 0.406117 0.485578 132 103 93 255
0.358330 -0.407539 0.485578 131 102 83 255
0.467851 -0.403130 0.485578 131 102 83 255
0.358330 -0.407539 0.445578 131 102 87 255
-0.350903 0.406117 0.445578 131 101 91 255
0.467851 -0.403130 0.445578 131 102 88 255
-0.466783 0.407272 0.485578 131 101 91 255
0.345439 0.401485 -0.460416 134 105 96 255
-0.347260 -0.403799 -0.460416 142 119 104 255
0.457358 0.401015 -0.460416 135 106 97 255
-0.347260 -0.403799 -0.483855 131 102 83 255
0.345439 0.401485 -0.483855 134 106 97 255
0.457358 0.401015 -0.483855 134 105 96 255
-0.461823 -0.404430 -0.483855 131 102 83 255
-0.461823 -0.404430 -0.460416 140 116 99 255
-0.500538 0.399767 0.437580 117 90 64 255
-0.500515 0.499767 0.497580 138 116 92 255
-0.500515 0.499767 0.437580 140 118 94 255
0.499462 0.399536 0.497580 114 85 59 255
0.499485 0.499536 0.497580 138 116 92 255
0.499485 0.499536 0.437580 138 116 92 255
0.499462 0.399536 0.437580 116 88 62 255
-0.500538 0.399767 0.497580 114 85 59 255
-0.395840 0.403426 0.492860 138 116 92 255
-0.495840 -0.403913 0.492860 138 116 92 255
-0.395840 -0.403913 0.492860 138 116 92 255
-0.495840 -0.403913 0.442860 138 116 92 255
-0.395840 0.403426 0.442860 138 116 92 255
-0.395840 -0.403913 0.442860 138 116 92 255
-0.495841 0.403426 0.492860 138 116 92 255
0.396327 0.404311 0.492570 138 116 92 255
0.496327 -0.404157 0.492570 138 116 92 255
0.496327 0.404311 0.492570 138 116 92 255
0.396327 -0.404157 0.442570 138 116 92 255
0.496327 0.404311 0.442570 138 116 92 255
0.496327 -0.404157 0.442570 138 116 92 255
0.396327 -0.404157 0.492570 138 116 92 255
-0.500750 -0.500087 0.437580 114 85 59 255
-0.500727 -0.400087 0.497580 138 116 92 255
-0.500727 -0.400087 0.437580 138 116 92 255
0.499250 -0.500318 0.497580 114 85 59 255
0.499273 -0.400318 0.497580 138 116 92 255
0.499250 -0.500318 0.437580 114 85 59 255
0.499273 -0.400318 0.437580 138 116 92 255
-0.500750 -0.500087 0.497580 114 85 59 255
-0.395840 0.408948 -0.444018 138 116 92 255
-0.495840 -0.408545 -0.444019 138 116 92 255
-0.395840 -0.408545 -0.444018 138 116 92 255
-0.495840 -0.408545 -0.494019 138 116 92 255
-0.395840 0.408948 -0.494018 138 116 92 255
-0.395840 -0.408545 -0.494018 138 116 92 255
-0.495840 0.408948 -0.444019 138 116 92 255
0.496327 0.402685 -0.444308 138 116 92 255
0.396327 -0.404357 -0.444309 138 116 92 255
0.496327 -0.404357 -0.444308 138 116 92 255
0.396327 -0.404357 -0.494309 138 116 92 255
0.496327 0.402685 -0.494308 138 116 92 255
0.496327 -0.404357 -0.494308 138 116 92 255
0.396327 0.402685 -0.444308 138 116 92 255
-0.500538 0.399767 -0.499299 117 90 64 255
-0.500515 0.499767 -0.439299 139 117 93 255
-0.500515 0.499767 -0.499299 139 117 92 255
0.499462 0.399536 -0.439299 114 85 59 255
0.499485 0.499536 -0.439299 138 116 92 255
0.499485 0.499536 -0.499299 138 116 92 255
0.499462 0.399536 -0.499299 114 85 59 255
-0.500538 0.399767 -0.439299 114 85 59 255
-0.500750 -0.500087 -0.499299 114 85 59 255
-0.500727 -0.400087 -0.439299 138 116 92 255
-0.500727 -0.400087 -0.499299 138 116 92 255
0.499250 -0.500318 -0.439299 114 85 59 255
0.499273 -0.400318 -0.439299 138 116 92 255
0.499273 -0.400318 -0.499299 138 116 92 255
0.499250 -0.500318 -0.499299 114 85 59 255
0.493693 -0.400101 0.442969 138 116 92 255
0.493693 -0.500303 -0.447310 114 85 59 255
0.493693 -0.400303 -0.447332 138 116 92 255
0.443693 -0.500303 -0.447310 122 96 71 255
0.443693 -0.400101 0.442969 138 116 97 255
0.443693 -0.400303 -0.447332 138 116 92 255
0.493693 -0.500101 0.442992 114 85 59 255
0.493693 0.496845 0.445011 138 116 92 255
0.493693 0.396641 -0.443530 114 85 59 255
0.493693 0.496641 -0.443553 138 116 92 255
0.443693 0.396640 -0.443530 122 97 71 255
0.443693 0.496845 0.445011 138 116 92 255
0.443693 0.496641 -0.443553 138 116 92 255
0.493693 0.396845 0.445034 114 85 59 255
-0.352798 0.406676 -0.451301 138 122 114 255
0.358153 -0.407346 -0.451301 131 110 92 255
0.469264 -0.404527 -0.451301 132 111 94 255
0.358153 -0.407347 -0.491301 131 110 91 255
-0.352798 0.406676 -0.491301 138 122 114 255
0.469264 -0.404527 -0.491301 131 110 91 255
-0.465467 0.407770 -0.451301 138 122 114 255
0.349948 0.404117 0.477335 138 122 114 255
-0.353309 -0.405079 0.477335 131 110 91 255
0.459768 0.403100 0.477335 138 122 114 255
-0.353309 -0.405079 0.452152 131 110 91 255
0.349948 0.404117 0.452152 138 122 114 255
0.459768 0.403100 0.452152 138 122 114 255
-0.461513 -0.404120 0.452152 131 110 91 255
-0.461513 -0.404120 0.477335 131 110 91 255
-0.466783 0.407272 0.445578 131 101 91 255
-0.495841 0.403426 0.442860 138 116 92 255
0.396327 0.404311 0.442570 138 116 92 255
-0.495840 0.408948 -0.494019 138 116 92 255
0.396327 0.402685 -0.494309 138 116 92 255
-0.500750 -0.500087 -0.439299 114 85 59 255
0.443693 -0.500101 0.442992 126 101 80 255
0.443693 0.396845 0.445034 130 104 80 255
-0.465468 0.407770 -0.491301 138 122 114 255
3 0 1 2
3 3 4 1
3 5 6 4
3 7 2 6
3 4 2 1
3 3 7 5
3 8 9 10
3 11 12 13
3 10 12 8
3 14 11 9
3 5 7 6
3 15 16 17
3 18 19 20
3 16 20 17
3 15 21 22
3 23 24 25
3 24 26 27
3 26 28 27
3 29 25 28
3 27 25 24
3 30 29 26
3 31 32 33
3 34 35 36
3 33 35 31
3 37 34 32
3 3 0 7
3 38 39 40
3 41 42 43
3 39 42 40
3 38 41 44
3 45 46 47
3 46 48 49
3 49 50 51
3 50 47 51
3 49 47 46
3 52 50 48
3 53 54 55
3 56 57 58
3 55 57 53
3 59 56 54
3 3 5 4
3 60 61 62
3 63 64 65
3 62 64 60
3 66 63 61
3 67 68 69
3 68 70 71
3 70 72 71
3 73 69 72
3 71 69 68
3 74 73 70
3 75 76 77
3 76 78 79
3 78 80 79
3 81 77 80
3 76 80 77
3 78 75 81
3 82 83 84
3 85 86 87
3 84 86 82
3 88 85 83
3 7 0 2
3 89 90 91
3 0 3 1
3 92 93 94
3 91 93 89
3 95 92 90
3 96 97 98
3 99 100 101
3 98 100 96
3 102 99 97
3 4 6 2
3 103 104 105
3 106 107 108
3 104 108 105
3 103 109 110
3 8 14 9
3 11 111 12
3 10 13 12
3 14 111 11
3 15 22 16
3 18 21 19
3 16 18 20
3 15 19 21
3 23 30 24
3 24 30 26
3 26 29 28
3 29 23 25
3 27 28 25
3 30 23 29
3 31 37 32
3 34 112 35
3 33 36 35
3 37 112 34
3 38 44 39
3 41 113 42
3 39 43 42
3 38 113 41
3 45 52 46
3 46 52 48
3 49 48 50
3 50 45 47
3 49 51 47
3 52 45 50
3 53 59 54
3 56 114 57
3 55 58 57
3 59 114 56
3 60 66 61
3 63 115 64
3 62 65 64
3 66 115 63
3 67 74 68
3 68 74 70
3 70 73 72
3 73 67 69
3 71 72 69
3 74 67 73
3 75 116 76
3 76 116 78
3 78 81 80
3 81 75 77
3 76 79 80
3 78 116 75
3 82 88 83
3 85 117 86
3 84 87 86
3 88 117 85
3 89 95 90
3 92 118 93
3 91 94 93
3 95 118 92
3 96 102 97
3 99 119 100
3 98 101 100
3 102 119 99
3 103 110 104
3 106 109 107
3 104 106 108
3 103 107 109
