ply
format ascii 1.0
comment Created by Blender 2.83.20 - www.blender.org, source file: 'NewRailsCornerDEF2.blend'
element vertex 144
property float x
property float y
property float z
property uchar red
property uchar green
property uchar blue
property uchar alpha
element face 150
property list uchar uint vertex_indices
end_header
-0.339452 -0.500010 0.395448 165 121 73 255
0.497076 -0.500010 0.273587 165 121 73 255
-0.433626 -0.500010 0.478573 165 121 73 255
-0.339452 -0.460010 0.395448 165 121 73 255
0.497076 -0.460010 0.273587 165 121 73 255
0.455665 -0.460010 0.119039 165 121 73 255
-0.287064 -0.500010 -0.496048 165 121 73 255
-0.391405 -0.500010 0.349169 165 121 73 255
-0.486733 -0.500010 0.457183 165 121 73 255
-0.287064 -0.460010 -0.496048 165 121 73 255
-0.391405 -0.460010 0.349169 165 121 73 255
-0.132516 -0.460010 -0.454637 165 121 73 255
-0.499998 -0.444919 -0.354707 147 122 132 255
-0.499998 -0.433709 -0.408838 147 122 132 255
-0.499998 -0.444919 -0.445561 140 117 125 255
-0.499998 -0.348786 -0.408838 107 89 97 255
-0.499998 -0.337695 -0.372453 147 122 132 255
-0.499998 -0.337695 -0.427879 147 122 132 255
0.445071 -0.444919 0.500001 147 122 132 255
0.390939 -0.433709 0.500001 147 122 132 255
0.354217 -0.444919 0.500001 147 122 132 255
0.390939 -0.348786 0.500001 113 94 102 255
0.427325 -0.337695 0.500001 147 122 132 255
0.371899 -0.337695 0.500001 147 122 132 255
-0.499998 -0.444919 0.445228 147 122 132 255
-0.499998 -0.433709 0.391096 147 122 132 255
-0.499998 -0.444919 0.354374 147 122 132 255
-0.499998 -0.348786 0.391096 107 89 97 255
-0.499998 -0.337695 0.427482 147 122 132 255
-0.499998 -0.337695 0.372056 147 122 132 255
-0.354824 -0.444919 0.500063 147 122 132 255
-0.408956 -0.433709 0.500063 147 122 132 255
-0.445678 -0.444919 0.500063 147 122 132 255
-0.408956 -0.348786 0.500063 107 89 97 255
-0.372570 -0.337695 0.500063 147 122 132 255
-0.427996 -0.337695 0.500063 147 122 132 255
-0.484957 -0.433709 0.410475 147 122 132 255
-0.445678 -0.444919 0.484978 147 122 132 255
-0.408956 -0.433709 0.484978 147 122 132 255
-0.484957 -0.316293 0.427482 147 122 132 255
-0.372570 -0.316293 0.484978 147 122 132 255
-0.484957 -0.316293 0.372056 147 122 132 255
-0.484957 -0.460820 0.449934 107 89 97 255
-0.350118 -0.460820 0.484978 107 89 97 255
-0.450118 -0.460820 0.484978 107 89 97 255
-0.484957 -0.444919 0.354374 147 122 132 255
-0.389577 -0.433709 0.484978 147 122 132 255
-0.354824 -0.444919 0.484978 147 122 132 255
0.051516 -0.433709 -0.250151 147 122 132 255
0.263651 -0.433709 -0.038016 147 122 132 255
0.289618 -0.444919 -0.063982 134 111 121 255
0.077483 -0.444919 -0.276117 142 119 128 255
0.455665 -0.500010 0.119039 165 121 73 255
-0.433626 -0.460010 0.478573 165 121 73 255
-0.486733 -0.460010 0.457183 165 121 73 255
-0.132516 -0.500010 -0.454637 165 121 73 255
-0.473686 -0.500010 0.441462 165 121 73 255
-0.434137 -0.500010 0.481011 165 121 73 255
-0.434137 -0.460010 0.481011 165 121 73 255
-0.473686 -0.460010 0.441462 165 121 73 255
-0.499998 -0.460820 -0.350000 107 89 97 255
-0.387029 -0.460820 -0.350000 107 89 97 255
-0.387029 -0.444919 -0.354707 147 122 132 255
0.307933 -0.500010 -0.191132 165 121 73 255
0.307933 -0.460010 -0.191132 165 121 73 255
-0.484957 -0.433709 0.391096 148 123 133 255
-0.484957 -0.348786 0.391096 107 89 97 255
-0.389577 -0.348786 0.484978 107 89 97 255
0.222047 -0.460820 0.003589 107 89 97 255
0.349777 -0.460820 0.383414 107 89 97 255
0.354216 -0.444919 0.383414 147 123 133 255
0.225374 -0.444919 0.000261 133 110 120 255
0.194796 -0.500010 -0.304269 165 121 73 255
-0.389577 -0.433709 0.500063 147 122 132 255
-0.387029 -0.348786 -0.389459 114 95 103 255
0.037813 -0.348786 -0.236448 107 89 97 255
0.025788 -0.337695 -0.224422 147 122 132 255
-0.387029 -0.337695 -0.372453 147 122 132 255
-0.387029 -0.433709 -0.408838 147 122 132 255
-0.387029 -0.444919 -0.445561 144 120 129 255
0.025788 -0.316293 -0.224422 147 122 132 255
0.237923 -0.316293 -0.012287 147 122 132 255
0.277115 -0.316293 -0.051479 148 123 133 255
0.064980 -0.316293 -0.263614 147 122 132 255
-0.389577 -0.348786 0.500063 107 89 97 255
-0.450118 -0.460820 0.500063 116 97 105 255
-0.350118 -0.460820 0.500063 107 89 97 255
-0.499998 -0.460820 -0.450000 107 89 97 255
-0.387029 -0.460820 -0.450000 107 89 97 255
0.249948 -0.433709 -0.024313 147 122 132 255
0.037813 -0.433709 -0.236448 147 122 132 255
0.013239 -0.444919 -0.211874 140 116 126 255
-0.499998 -0.433709 -0.389459 147 122 132 255
-0.387029 -0.433709 -0.389459 147 122 132 255
0.410318 -0.433709 0.500001 147 122 132 255
0.445071 -0.444919 0.383414 147 122 132 255
0.410318 -0.433709 0.383414 148 123 133 255
0.237923 -0.337695 -0.012287 143 119 128 255
0.277115 -0.337695 -0.051479 147 122 132 255
0.064980 -0.337695 -0.263614 147 122 132 255
-0.499998 -0.316293 0.427482 147 122 132 255
-0.484957 -0.337695 0.427482 147 122 132 255
0.371899 -0.337695 0.383414 147 122 132 255
0.390939 -0.348786 0.383414 109 91 99 255
-0.499998 -0.460820 0.349934 134 112 121 255
-0.499998 -0.460820 0.449934 107 89 97 255
0.371899 -0.316293 0.500001 147 122 132 255
0.427325 -0.316293 0.500001 147 122 132 255
0.427325 -0.316293 0.383414 147 122 132 255
0.371899 -0.316293 0.383414 147 122 132 255
-0.499998 -0.348786 0.410475 107 89 97 255
-0.499998 -0.433709 0.410475 147 122 132 255
-0.484957 -0.348786 0.410475 107 89 97 255
-0.499998 -0.348786 -0.389459 107 89 97 255
0.427325 -0.337695 0.383414 147 122 132 255
0.410318 -0.348786 0.500001 107 89 97 255
0.410318 -0.348786 0.383414 107 89 97 255
-0.499998 -0.316293 0.372056 147 122 132 255
-0.499998 -0.316293 -0.427879 147 122 132 255
-0.499998 -0.316293 -0.372453 147 122 132 255
-0.387029 -0.337695 -0.427879 147 122 132 255
-0.387029 -0.348786 -0.408838 107 89 97 255
-0.387029 -0.316293 -0.372453 147 122 132 255
-0.387029 -0.316293 -0.427879 147 122 132 255
0.292757 -0.460820 -0.067122 107 89 97 255
0.080622 -0.460820 -0.279257 107 89 97 255
-0.484957 -0.444919 0.445228 147 122 132 255
0.009911 -0.460820 -0.208546 108 89 97 255
0.051516 -0.348786 -0.250151 107 89 97 255
0.449777 -0.460820 0.500001 107 89 97 255
0.349777 -0.460820 0.500001 107 89 97 255
0.449777 -0.460820 0.383414 107 89 97 255
0.263651 -0.348786 -0.038016 107 89 97 255
0.249948 -0.348786 -0.024313 107 89 97 255
0.194796 -0.460010 -0.304269 165 121 73 255
0.390939 -0.433709 0.383414 148 123 133 255
-0.427996 -0.337695 0.484978 147 122 132 255
-0.408956 -0.348786 0.484978 107 89 97 255
-0.484957 -0.337695 0.372056 147 122 132 255
-0.372570 -0.337695 0.484978 147 122 132 255
-0.484957 -0.460820 0.349934 107 89 97 255
-0.427996 -0.316293 0.500063 147 122 132 255
-0.372570 -0.316293 0.500063 147 122 132 255
-0.427996 -0.316293 0.484978 147 122 132 255
3 0 1 2
3 3 4 5
3 6 7 8
3 9 10 11
3 12 13 14
3 15 16 17
3 18 19 20
3 21 22 23
3 24 25 26
3 27 28 29
3 30 31 32
3 33 34 35
3 36 37 38
3 39 40 41
3 42 43 44
3 45 46 47
4 48 49 50 51
4 1 52 5 4
4 2 1 4 53
4 8 7 10 54
3 0 52 1
3 3 53 4
4 6 8 54 9
4 55 6 9 11
4 7 55 11 10
4 56 57 58 59
3 6 55 7
3 9 54 10
4 60 61 62 12
4 57 63 64 58
4 65 66 67 46
4 68 69 70 71
4 63 57 56 72
4 73 30 47 46
4 74 75 76 77
4 78 79 14 13
4 80 81 82 83
4 33 31 73 84
4 85 44 43 86
4 60 87 88 61
4 89 90 91 71
4 86 43 47 30
4 92 12 62 93
4 94 18 95 96
4 80 76 97 81
4 82 98 99 83
4 100 28 101 39
4 23 102 103 21
4 104 105 24 26
4 0 2 53 3
4 85 86 30 32
4 106 107 108 109
4 110 111 36 112
4 77 16 113 74
4 114 22 115 116
3 12 92 13
4 100 39 41 117
4 15 13 92 113
4 118 17 16 119
4 120 121 15 17
4 119 122 123 118
3 15 113 16
4 119 16 77 122
4 123 120 17 118
4 108 114 98 82
4 50 124 125 51
4 24 105 42 126
4 127 68 71 91
4 121 128 48 78
4 129 130 69 131
4 98 132 128 99
3 18 94 19
4 76 75 133 97
4 106 23 22 107
4 27 25 111 110
4 63 72 134 64
4 72 56 59 134
4 65 45 26 25
3 21 115 22
4 125 124 68 127
4 52 0 3 5
4 103 135 19 21
4 107 22 114 108
4 123 122 80 83
4 127 91 62 61
4 71 70 135 89
4 109 102 23 106
4 132 98 114 116
4 115 94 96 116
4 136 101 112 137
4 131 124 50 95
4 48 51 79 78
4 120 123 83 99
4 120 99 128 121
4 93 90 75 74
4 81 109 108 82
4 42 44 37 126
4 91 90 93 62
4 122 77 76 80
4 97 133 103 102
4 96 49 132 116
4 127 61 88 125
4 51 125 88 79
4 131 69 68 124
4 121 78 13 15
4 49 96 95 50
4 103 133 89 135
4 44 85 32 37
4 88 87 14 79
4 87 60 12 14
4 38 37 32 31
4 102 109 81 97
4 129 131 95 18
4 138 66 27 29
3 24 111 25
4 36 111 24 126
4 113 92 93 74
4 66 65 25 27
4 21 19 94 115
4 35 136 137 33
3 27 110 28
4 101 28 110 112
4 117 29 28 100
4 139 34 84 67
4 41 138 29 117
4 135 70 20 19
4 132 49 48 128
4 45 140 104 26
4 141 142 40 143
3 30 73 31
4 64 134 59 58
4 84 73 46 67
4 137 38 31 33
4 75 90 89 133
4 104 140 42 105
3 33 84 34
4 70 69 130 20
4 141 35 34 142
4 142 34 139 40
4 47 43 140 45
3 36 126 37
4 143 136 35 141
4 66 138 139 67
4 112 36 38 137
3 39 143 40
4 143 39 101 136
3 42 140 43
4 130 129 18 20
3 45 65 46
4 139 138 41 40
