ply
format ascii 1.0
comment Created by Blender 2.82 (sub 7) - www.blender.org, source file: 'elevatorgateway.blend'
element vertex 184
property float x
property float y
property float z
property uchar red
property uchar green
property uchar blue
property uchar alpha
element face 218
property list uchar uint vertex_indices
end_header
-0.303917 1.472039 0.198278 61 56 55 255
-0.303917 -0.467961 -0.201722 61 56 55 255
-0.303917 -0.467961 0.198278 61 56 55 255
-0.303917 1.472039 -0.201722 61 56 55 255
-0.263917 -0.467961 -0.201722 61 56 55 255
-0.263917 1.472039 -0.201722 61 56 55 255
-0.263917 -0.467961 0.198278 61 56 55 255
-0.263917 1.472039 0.198278 61 56 55 255
-0.304738 -0.452278 0.398278 63 58 57 255
-0.304739 -0.492278 -0.401722 61 56 55 255
-0.304738 -0.492278 0.398278 63 58 57 255
-0.304739 -0.452278 -0.401722 61 56 55 255
0.495261 -0.492278 -0.401722 62 57 56 255
0.495261 -0.452278 -0.401722 62 57 56 255
0.495261 -0.492278 0.398278 61 56 55 255
0.495261 -0.452278 0.398278 61 56 55 255
-0.304738 1.488518 0.398278 61 56 55 255
-0.304739 1.448518 -0.401722 65 60 59 255
-0.304738 1.448518 0.398278 61 56 55 255
-0.304739 1.488518 -0.401722 65 60 59 255
0.495261 1.448518 -0.401722 65 61 60 255
0.495261 1.488518 -0.401722 62 57 56 255
0.495261 1.448518 0.398278 62 57 56 255
0.495261 1.488518 0.398278 63 58 57 255
0.447698 1.472039 0.391927 75 71 70 255
0.447698 -0.467961 0.351927 61 56 55 255
0.447698 -0.467961 0.391927 61 56 55 255
0.447698 1.472039 0.351927 82 78 78 255
0.487698 -0.467961 0.351927 61 56 55 255
0.487698 1.472039 0.351927 61 56 55 255
0.487698 -0.467961 0.391927 61 56 55 255
0.487698 1.472039 0.391927 61 56 55 255
0.449053 1.472039 -0.354301 61 56 55 255
0.449053 -0.467961 -0.394301 61 56 55 255
0.449053 -0.467961 -0.354301 61 56 55 255
0.449053 1.472039 -0.394301 61 56 55 255
0.489053 -0.467961 -0.394301 61 56 55 255
0.489053 1.472039 -0.394301 61 56 55 255
0.489053 -0.467961 -0.354301 61 56 55 255
0.489053 1.472039 -0.354301 61 56 55 255
-0.266112 1.130157 -0.051722 182 189 194 255
-0.226112 0.970157 -0.051722 182 189 194 255
-0.266112 0.970157 -0.051722 182 189 194 255
-0.226112 1.130157 -0.051722 182 189 194 255
-0.226112 0.970157 0.048278 182 189 194 255
-0.226112 1.130157 0.048278 182 189 194 255
-0.266112 0.970157 0.048278 182 189 194 255
-0.261485 1.113225 -0.031722 104 27 25 255
-0.201485 1.053225 -0.031722 104 27 25 255
-0.261485 1.053225 -0.031722 104 27 25 255
-0.201485 1.113225 -0.031722 104 27 25 255
-0.201485 1.053225 0.028278 104 27 25 255
-0.201485 1.113225 0.028278 104 27 25 255
-0.261485 1.053225 0.028278 113 56 55 255
-0.261485 1.046618 -0.031722 104 27 25 255
-0.201485 0.986618 -0.031722 104 27 25 255
-0.261485 0.986618 -0.031722 104 27 25 255
-0.201485 1.046618 -0.031722 104 27 25 255
-0.201485 0.986618 0.028278 104 27 25 255
-0.201485 1.046618 0.028278 104 27 25 255
-0.261485 0.986618 0.028278 104 27 25 255
-0.488534 0.500000 0.068278 157 140 144 255
-0.488534 -0.500000 -0.071722 158 142 145 255
-0.488534 -0.500000 0.068278 156 139 143 255
-0.488534 0.500000 -0.071722 157 140 144 255
-0.348534 -0.500000 -0.071722 156 139 143 255
-0.348534 0.500000 -0.071722 156 139 143 255
-0.348534 -0.500000 0.068278 156 139 143 255
-0.348534 0.500000 0.068278 156 139 143 255
0.351431 0.408007 -0.487300 132 103 93 255
-0.354626 -0.404137 -0.487300 131 102 83 255
-0.470724 -0.405858 -0.487300 131 102 83 255
-0.354626 -0.404137 -0.447300 131 102 87 255
0.351431 0.408007 -0.447300 131 101 91 255
-0.470724 -0.405858 -0.447300 131 102 88 255
0.462075 0.404294 -0.487300 131 101 91 255
-0.347987 0.403116 0.450413 134 105 96 255
0.351304 -0.404943 0.450413 142 119 104 255
-0.463892 0.402655 0.450413 135 106 97 255
0.351304 -0.404943 0.490413 131 102 83 255
-0.347987 0.403116 0.490413 134 106 97 255
-0.463892 0.402655 0.490413 134 105 96 255
0.456592 -0.406032 0.450413 140 116 99 255
0.456592 -0.406032 0.490413 131 102 83 255
0.499787 0.399767 -0.439302 117 90 64 255
0.499764 0.499767 -0.499302 138 116 92 255
0.499764 0.499767 -0.439302 140 118 94 255
-0.500213 0.399536 -0.499302 114 85 59 255
-0.500236 0.499536 -0.499302 138 116 92 255
-0.500236 0.499536 -0.439302 138 116 92 255
-0.500213 0.399536 -0.439302 116 88 62 255
0.499787 0.399767 -0.499302 114 85 59 255
0.395089 0.403877 -0.494583 138 116 92 255
0.495089 -0.407989 -0.494583 138 116 92 255
0.395089 -0.407989 -0.494583 138 116 92 255
0.495089 -0.407989 -0.444583 138 116 92 255
0.395089 0.403877 -0.444583 138 116 92 255
0.395089 -0.407989 -0.444583 138 116 92 255
0.495090 0.403877 -0.494583 138 116 92 255
-0.497078 0.407069 -0.494292 138 116 92 255
-0.397078 -0.404789 -0.494292 138 116 92 255
-0.497078 -0.404789 -0.494292 138 116 92 255
-0.397078 -0.404789 -0.444293 138 116 92 255
-0.497078 0.407069 -0.444293 138 116 92 255
-0.497078 -0.404789 -0.444293 138 116 92 255
-0.397078 0.407069 -0.444293 138 116 92 255
0.499999 -0.500087 -0.439302 114 85 59 255
0.499976 -0.400087 -0.499302 138 116 92 255
0.499976 -0.400087 -0.439302 138 116 92 255
-0.500001 -0.500318 -0.499302 114 85 59 255
-0.500024 -0.400318 -0.499302 138 116 92 255
-0.500024 -0.400318 -0.439302 138 116 92 255
-0.500001 -0.500318 -0.439302 114 85 59 255
0.499999 -0.500087 -0.499302 114 85 59 255
0.395090 0.402834 0.442296 138 116 92 255
0.495089 -0.412232 0.442296 138 116 92 255
0.395090 -0.412232 0.442296 138 116 92 255
0.495090 -0.412232 0.492296 138 116 92 255
0.395090 0.402834 0.492296 138 116 92 255
0.395090 -0.412232 0.492296 138 116 92 255
0.495090 0.402834 0.492296 138 116 92 255
-0.497078 0.407068 0.442586 138 116 92 255
-0.397078 -0.403273 0.442587 138 116 92 255
-0.497078 -0.403273 0.442586 138 116 92 255
-0.397078 -0.403273 0.492587 138 116 92 255
-0.497078 0.407068 0.492586 138 116 92 255
-0.497078 -0.403273 0.492586 138 116 92 255
-0.397078 0.407069 0.492587 138 116 92 255
0.499787 0.399767 0.497577 117 90 64 255
0.499764 0.499767 0.437577 139 117 93 255
0.499764 0.499767 0.497577 139 117 92 255
-0.500213 0.399536 0.437577 114 85 59 255
-0.500236 0.499536 0.437577 138 116 92 255
-0.500236 0.499536 0.497577 138 116 92 255
-0.500213 0.399536 0.497577 114 85 59 255
0.499787 0.399767 0.437577 114 85 59 255
0.500000 -0.500087 0.497577 114 85 59 255
0.499976 -0.400087 0.437577 138 116 92 255
0.499976 -0.400087 0.497577 138 116 92 255
-0.500000 -0.500318 0.437577 114 85 59 255
-0.500024 -0.400318 0.437577 138 116 92 255
-0.500024 -0.400318 0.497577 138 116 92 255
-0.500000 -0.500318 0.497576 114 85 59 255
0.500000 -0.500087 0.437577 114 85 59 255
-0.494444 -0.400096 -0.448204 138 116 92 255
-0.494444 -0.500309 0.443590 114 85 59 255
-0.494444 -0.400309 0.443612 138 116 92 255
-0.444444 -0.500309 0.443590 122 96 71 255
-0.444444 -0.400096 -0.448204 138 116 97 255
-0.444444 -0.400309 0.443612 138 116 92 255
-0.444444 -0.500096 -0.448227 126 101 80 255
-0.494444 0.496847 -0.446673 138 116 92 255
-0.494444 0.396634 0.442971 114 85 59 255
-0.494444 0.496634 0.442993 138 116 92 255
-0.444444 0.396634 0.442971 122 97 71 255
-0.444444 0.496847 -0.446673 138 116 92 255
-0.444444 0.496634 0.442993 138 116 92 255
-0.444444 0.396847 -0.446696 130 104 80 255
0.348854 0.404573 0.459147 138 122 114 255
-0.354626 -0.404137 0.459147 131 110 92 255
-0.470724 -0.405858 0.459147 132 111 94 255
-0.354626 -0.404137 0.480011 131 110 91 255
0.348854 0.404573 0.480011 138 122 114 255
-0.470724 -0.405858 0.480011 131 110 91 255
0.460858 0.403688 0.459147 138 122 114 255
-0.347987 0.403116 -0.481608 138 122 114 255
0.351304 -0.404943 -0.481608 131 110 91 255
-0.463892 0.402655 -0.481608 138 122 114 255
0.351304 -0.404943 -0.451324 131 110 91 255
-0.347987 0.403116 -0.451323 138 122 114 255
-0.463892 0.402655 -0.451323 138 122 114 255
0.456592 -0.406032 -0.451324 131 110 91 255
0.456592 -0.406032 -0.481608 131 110 91 255
-0.266112 1.130157 0.048278 179 185 190 255
-0.261485 1.113225 0.028278 104 27 25 255
-0.261485 1.046618 0.028278 104 27 25 255
0.462075 0.404294 -0.447300 131 101 91 255
0.495090 0.403877 -0.444583 138 116 92 255
-0.397078 0.407069 -0.494292 138 116 92 255
0.495090 0.402834 0.442296 138 116 92 255
-0.397078 0.407069 0.442587 138 116 92 255
-0.494444 -0.500096 -0.448227 114 85 59 255
-0.494444 0.396847 -0.446696 114 85 59 255
0.460858 0.403688 0.480011 138 122 114 255
3 0 1 2
3 3 4 1
3 5 6 4
3 7 2 6
3 8 9 10
3 11 12 9
3 13 14 12
3 15 10 14
3 12 10 9
3 11 15 13
3 16 17 18
3 19 20 17
3 21 22 20
3 23 18 22
3 20 18 17
3 19 23 21
3 24 25 26
3 27 28 25
3 29 30 28
3 31 26 30
3 32 33 34
3 35 36 33
3 37 38 36
3 39 34 38
3 40 41 42
3 43 44 41
3 45 46 44
3 41 46 42
3 40 45 43
3 47 48 49
3 50 51 48
3 52 53 51
3 48 53 49
3 47 52 50
3 54 55 56
3 57 58 55
3 59 60 58
3 55 60 56
3 54 59 57
3 61 62 63
3 64 65 62
3 66 67 65
3 68 63 67
3 65 63 62
3 64 68 66
3 69 70 71
3 72 73 74
3 71 73 69
3 75 72 70
3 76 77 78
3 79 80 81
3 77 81 78
3 82 80 83
3 84 85 86
3 85 87 88
3 87 89 88
3 90 86 89
3 88 86 85
3 91 90 87
3 92 93 94
3 95 96 97
3 94 96 92
3 98 95 93
3 99 100 101
3 102 103 104
3 101 103 99
3 100 105 102
3 106 107 108
3 107 109 110
3 109 111 110
3 112 108 111
3 110 108 107
3 113 112 109
3 114 115 116
3 117 118 119
3 116 118 114
3 115 120 117
3 121 122 123
3 124 125 126
3 123 125 121
3 122 127 124
3 128 129 130
3 129 131 132
3 131 133 132
3 134 130 133
3 132 130 129
3 135 134 131
3 136 137 138
3 137 139 140
3 139 141 140
3 142 138 141
3 140 138 137
3 143 142 139
3 144 145 146
3 147 148 149
3 146 148 144
3 145 150 147
3 151 152 153
3 154 155 156
3 153 155 151
3 152 157 154
3 158 159 160
3 161 162 163
3 158 163 162
3 164 161 159
3 165 166 167
3 168 169 170
3 166 170 167
3 165 171 172
3 0 3 1
3 3 5 4
3 5 7 6
3 7 0 2
3 8 11 9
3 11 13 12
3 13 15 14
3 15 8 10
3 12 14 10
3 11 8 15
3 16 19 17
3 19 21 20
3 21 23 22
3 23 16 18
3 20 22 18
3 19 16 23
3 24 27 25
3 27 29 28
3 29 31 30
3 31 24 26
3 32 35 33
3 35 37 36
3 37 39 38
3 39 32 34
3 40 43 41
3 43 45 44
3 45 173 46
3 41 44 46
3 40 173 45
3 47 50 48
3 50 52 51
3 52 174 53
3 48 51 53
3 47 174 52
3 54 57 55
3 57 59 58
3 59 175 60
3 55 58 60
3 54 175 59
3 61 64 62
3 64 66 65
3 66 68 67
3 68 61 63
3 65 67 63
3 64 61 68
3 69 75 70
3 72 176 73
3 71 74 73
3 75 176 72
3 76 82 77
3 79 83 80
3 77 79 81
3 82 76 80
3 84 91 85
3 85 91 87
3 87 90 89
3 90 84 86
3 88 89 86
3 91 84 90
3 92 98 93
3 95 177 96
3 94 97 96
3 98 177 95
3 99 178 100
3 102 105 103
3 101 104 103
3 100 178 105
3 106 113 107
3 107 113 109
3 109 112 111
3 112 106 108
3 110 111 108
3 113 106 112
3 114 179 115
3 117 120 118
3 116 119 118
3 115 179 120
3 121 180 122
3 124 127 125
3 123 126 125
3 122 180 127
3 128 135 129
3 129 135 131
3 131 134 133
3 134 128 130
3 132 133 130
3 135 128 134
3 136 143 137
3 137 143 139
3 139 142 141
3 142 136 138
3 140 141 138
3 143 136 142
3 144 181 145
3 147 150 148
3 146 149 148
3 145 181 150
3 151 182 152
3 154 157 155
3 153 156 155
3 152 182 157
3 158 164 159
3 161 183 162
3 158 160 163
3 164 183 161
3 165 172 166
3 168 171 169
3 166 168 170
3 165 169 171
