ply
format ascii 1.0
comment Created by Blender 2.83.20 - www.blender.org, source file: ''
element vertex 216
property float x
property float y
property float z
property uchar red
property uchar green
property uchar blue
property uchar alpha
element face 216
property list uchar uint vertex_indices
end_header
0.217655 -0.072378 -0.270909 162 132 117 255
0.270909 -0.072378 -0.270909 162 132 117 255
0.270909 -0.270909 -0.270909 120 100 96 255
0.243248 -0.070743 -0.243248 162 132 117 255
-0.270909 0.652005 -0.270909 162 132 117 255
-0.243248 0.653640 0.243248 162 132 117 255
-0.243248 0.653640 -0.243248 162 132 117 255
0.243248 -0.070743 0.243248 162 132 117 255
0.270909 -0.072378 0.270909 162 132 117 255
-0.158490 0.652005 0.270909 162 132 117 255
-0.270909 0.652005 0.270909 162 132 117 255
0.216901 -0.070743 0.243248 162 132 117 255
0.243248 -0.219457 0.243248 104 84 75 255
-0.243248 -0.219457 0.243248 106 86 79 255
-0.243248 -0.219457 -0.243248 107 87 79 255
0.243248 -0.219457 -0.243248 107 86 77 255
0.217615 -0.070743 -0.243248 162 132 117 255
-0.158490 0.652005 -0.270909 162 132 117 255
-0.158490 0.653640 -0.243248 162 132 117 255
0.216860 -0.072378 0.270909 162 132 117 255
0.500016 -0.444919 0.445294 147 122 132 255
0.500016 -0.433710 0.391162 147 122 132 255
0.500016 -0.433710 0.410541 147 122 132 255
-0.499998 -0.444919 0.445294 147 122 132 255
-0.499998 -0.433710 0.391162 147 122 132 255
-0.499998 -0.444919 0.354440 147 122 132 255
-0.499998 -0.348786 0.391162 106 88 96 255
-0.499998 -0.337695 0.427548 147 122 132 255
-0.499998 -0.337695 0.372122 147 122 132 255
0.500016 -0.348786 0.391162 106 88 96 255
0.500016 -0.337695 0.427548 147 122 132 255
0.500016 -0.348786 0.410541 106 88 96 255
0.500016 -0.444919 -0.354706 147 122 132 255
0.500016 -0.433710 -0.408838 147 122 132 255
0.500016 -0.433710 -0.389459 147 122 132 255
-0.499998 -0.444919 -0.354706 147 122 132 255
-0.499998 -0.433710 -0.408838 147 122 132 255
-0.499998 -0.444919 -0.445560 147 122 132 255
-0.499998 -0.348786 -0.408838 106 88 96 255
-0.499998 -0.337695 -0.372452 147 122 132 255
-0.499998 -0.337695 -0.427878 147 122 132 255
0.500016 -0.348786 -0.408838 106 88 96 255
0.500016 -0.337695 -0.372452 147 122 132 255
0.500016 -0.348786 -0.389459 106 88 96 255
-0.143016 -0.223825 0.401457 162 166 181 255
-0.186508 -0.148495 0.401457 162 166 181 255
-0.273492 -0.148495 0.401457 162 166 181 255
-0.270909 -0.270909 -0.270909 120 100 96 255
0.367837 -0.223825 -0.272419 102 105 115 255
0.161082 -0.104455 -0.272419 102 105 115 255
0.161082 -0.343195 -0.272419 102 105 115 255
0.298918 -0.343195 -0.272419 102 105 115 255
0.161082 -0.343195 -0.287489 102 105 115 255
0.298918 -0.343195 -0.287489 102 105 115 255
-0.270909 -0.270909 0.270909 120 100 96 255
0.270909 -0.270909 0.270909 120 100 96 255
-0.158490 0.653640 0.243248 162 132 117 255
0.161082 -0.104455 -0.287489 102 105 115 255
0.092163 -0.223825 -0.287489 104 107 117 255
0.092163 -0.223825 -0.272419 102 105 115 255
-0.092163 -0.223825 -0.272419 102 105 115 255
-0.092163 -0.223825 -0.287489 102 105 115 255
-0.161082 -0.104455 -0.287489 102 105 115 255
-0.161082 -0.104455 -0.272419 102 105 115 255
-0.367837 -0.223825 0.272419 102 105 115 255
-0.367837 -0.223825 0.287489 102 105 115 255
-0.298918 -0.104455 0.287489 102 105 115 255
-0.298918 -0.104455 0.272419 102 105 115 255
0.500016 -0.460820 -0.450000 106 88 96 255
-0.499998 -0.460820 -0.450000 106 88 96 255
0.500016 -0.444919 -0.445560 147 122 132 255
-0.161082 -0.104455 0.287489 102 105 115 255
-0.161082 -0.104455 0.272419 102 105 115 255
0.143016 -0.223825 0.401457 162 166 181 255
0.186508 -0.148495 0.401457 162 166 181 255
0.170429 -0.120644 0.287489 118 121 132 255
0.110857 -0.223825 0.287489 118 121 132 255
0.092163 -0.223825 0.272419 102 105 115 255
0.092163 -0.223825 0.287489 102 105 115 255
0.161082 -0.104455 0.287489 102 105 115 255
0.161082 -0.104455 0.272419 102 105 115 255
-0.499998 -0.460820 0.350000 106 88 96 255
-0.499998 -0.460820 0.450000 107 89 97 255
0.298918 -0.104455 0.287489 102 105 115 255
0.298918 -0.104455 0.272419 102 105 115 255
-0.289571 -0.120644 0.287489 118 121 132 255
-0.170429 -0.120644 0.287489 118 121 132 255
-0.499998 -0.348786 0.410541 106 88 96 255
-0.499998 -0.433710 0.410541 147 122 132 255
0.500016 -0.444919 0.354440 147 122 132 255
-0.499998 -0.316293 0.372122 147 122 132 255
-0.499998 -0.316293 0.427548 147 122 132 255
0.500016 -0.337695 0.372122 147 122 132 255
0.500016 -0.316293 0.427548 147 122 132 255
0.500016 -0.316293 0.372122 147 122 132 255
0.183276 -0.115688 -0.243661 128 116 127 255
0.088286 -0.115688 -0.243661 128 116 127 255
0.088286 -0.020698 -0.243661 173 157 171 255
0.183276 -0.020698 -0.243661 173 157 171 255
0.161082 -0.343195 0.272419 102 105 115 255
0.161082 -0.343195 0.287489 102 105 115 255
-0.499998 -0.460820 -0.350000 106 88 96 255
0.088286 -0.115688 -0.148671 128 116 127 255
0.183276 -0.115688 -0.148671 129 117 128 255
0.183276 -0.020698 -0.148671 173 157 171 255
0.088286 -0.020698 -0.148671 173 157 171 255
0.500016 -0.460820 0.450000 119 99 107 255
0.500016 -0.460820 0.350000 106 88 96 255
-0.499998 -0.348786 -0.389459 106 88 96 255
-0.499998 -0.433710 -0.389459 147 122 132 255
-0.499998 -0.316293 -0.427878 147 122 132 255
-0.499998 -0.316293 -0.372452 147 122 132 255
0.500016 -0.337695 -0.427878 147 122 132 255
0.500016 -0.316293 -0.372452 147 122 132 255
0.500016 -0.316293 -0.427878 147 122 132 255
-0.250000 -0.500010 -0.500000 165 121 73 255
-0.410000 -0.500010 -0.500000 165 121 73 255
-0.410000 -0.460010 -0.500000 165 121 73 255
-0.250000 -0.460010 -0.500000 165 121 73 255
-0.250000 -0.500010 0.500000 165 121 73 255
-0.250000 -0.460010 0.500000 165 121 73 255
-0.410000 -0.500010 0.500000 165 121 73 255
-0.410000 -0.460010 0.500000 165 121 73 255
0.080000 -0.500010 -0.500000 165 121 73 255
-0.080000 -0.500010 -0.500000 165 121 73 255
-0.080000 -0.460010 -0.500000 165 121 73 255
0.080000 -0.460010 -0.500000 165 121 73 255
0.080000 -0.500010 0.500000 165 121 73 255
0.080000 -0.460010 0.500000 165 121 73 255
0.298918 -0.104455 -0.272419 102 105 115 255
0.298918 -0.104455 -0.287489 102 105 115 255
-0.080000 -0.500010 0.500000 165 121 73 255
-0.080000 -0.460010 0.500000 165 121 73 255
0.410000 -0.500010 -0.500000 165 121 73 255
0.250000 -0.500010 -0.500000 165 121 73 255
0.250000 -0.460010 -0.500000 165 121 73 255
0.410000 -0.460010 -0.500000 165 121 73 255
0.410000 -0.500010 0.500000 165 121 73 255
0.410000 -0.460010 0.500000 165 121 73 255
0.250000 -0.500010 0.500000 165 121 73 255
0.250000 -0.460010 0.500000 165 121 73 255
-0.289571 -0.327006 0.287489 118 121 132 255
-0.273492 -0.299155 0.401457 160 164 179 255
-0.316984 -0.223825 0.401457 162 166 181 255
-0.349143 -0.223825 0.287489 118 121 132 255
-0.170429 -0.327006 -0.287489 118 121 132 255
-0.186508 -0.299155 -0.401457 160 164 179 255
-0.143016 -0.223825 -0.401457 162 166 181 255
-0.110857 -0.223825 -0.287489 118 121 132 255
0.170429 -0.327006 0.287489 118 121 132 255
0.186508 -0.299155 0.401457 160 164 179 255
0.186508 -0.299155 -0.401457 162 166 181 255
0.273492 -0.299155 -0.401457 160 164 179 255
0.289571 -0.327006 -0.287489 118 121 132 255
0.170429 -0.327005 -0.287489 118 121 132 255
0.289571 -0.120644 -0.287489 118 121 132 255
0.170429 -0.120644 -0.287489 118 121 132 255
0.349143 -0.223825 0.287489 118 121 132 255
0.316984 -0.223825 0.401457 162 166 181 255
0.273492 -0.299155 0.401457 162 166 181 255
0.289571 -0.327006 0.287489 118 121 132 255
0.143016 -0.223825 -0.401457 162 166 181 255
0.110857 -0.223825 -0.287489 118 121 132 255
-0.186508 -0.148495 -0.401457 162 166 181 255
-0.273492 -0.299155 -0.401457 162 166 181 255
-0.316984 -0.223825 -0.401457 162 166 181 255
-0.186508 -0.299155 0.401457 162 166 181 255
-0.298918 -0.343195 -0.287489 102 105 115 255
-0.367837 -0.223825 -0.287489 104 107 117 255
-0.349143 -0.223825 -0.287489 118 121 132 255
-0.289571 -0.327005 -0.287489 118 121 132 255
0.349143 -0.223825 -0.287489 118 121 132 255
0.367837 -0.223825 -0.287489 102 105 115 255
-0.298918 -0.343195 -0.272419 102 105 115 255
-0.161082 -0.343195 -0.272419 102 105 115 255
-0.298918 -0.104455 -0.272419 102 105 115 255
0.367837 -0.223825 0.272419 102 105 115 255
0.298918 -0.343195 0.272419 102 105 115 255
-0.298918 -0.104455 -0.287489 102 105 115 255
-0.367837 -0.223825 -0.272419 102 105 115 255
-0.161082 -0.343195 -0.287489 102 105 115 255
0.218907 0.259752 -0.193852 173 140 146 255
0.254038 0.248128 -0.190524 173 140 146 255
0.256680 0.245528 -0.227492 173 140 146 255
0.221549 0.257152 -0.230821 173 140 146 255
0.273492 -0.148495 0.401457 162 166 181 255
0.289571 -0.120644 0.287489 118 121 132 255
-0.170429 -0.327006 0.287489 118 121 132 255
-0.110857 -0.223825 0.287489 118 121 132 255
-0.161082 -0.343195 0.287489 102 105 115 255
-0.298918 -0.343195 0.287489 102 105 115 255
0.273492 -0.148495 -0.401457 162 166 181 255
0.316984 -0.223825 -0.401457 162 166 181 255
0.500016 -0.460820 -0.350000 106 88 96 255
-0.170429 -0.120644 -0.287489 118 121 132 255
-0.289571 -0.120644 -0.287489 118 121 132 255
-0.092163 -0.223825 0.287489 104 107 117 255
0.210522 0.254859 -0.242928 112 50 64 255
0.267256 0.236087 -0.237553 112 50 64 255
0.262990 0.240286 -0.177852 112 50 64 255
0.206256 0.259058 -0.183227 112 50 64 255
0.186508 -0.148495 -0.401457 162 166 181 255
-0.273492 -0.148495 -0.401457 162 166 181 255
0.298918 -0.343195 0.287489 102 105 115 255
0.367837 -0.223825 0.287489 104 107 117 255
-0.161082 -0.343195 0.272419 102 105 115 255
-0.298918 -0.343195 0.272419 102 105 115 255
0.126277 -0.027013 -0.217646 139 113 118 255
0.123635 -0.024413 -0.180677 136 110 115 255
0.158766 -0.036037 -0.177349 138 112 117 255
-0.092163 -0.223825 0.272419 102 105 115 255
0.161408 -0.038637 -0.214318 136 110 115 255
0.305365 0.349753 -0.242823 138 53 56 255
0.301098 0.353951 -0.183122 133 52 53 255
0.244365 0.372723 -0.188497 138 53 56 255
0.248631 0.368525 -0.248197 138 53 56 255
3 0 1 2
3 0 3 1
3 4 5 6
3 1 7 8
3 9 5 10
3 11 12 13
3 14 15 16
3 17 6 18
3 19 7 11
3 20 21 22
3 23 24 25
3 26 27 28
3 29 30 31
3 32 33 34
3 35 36 37
3 38 39 40
3 41 42 43
3 44 45 46
3 47 0 2
4 48 49 50 51
4 50 52 53 51
3 54 55 19
3 55 8 19
4 56 11 13 5
4 49 57 58 59
4 60 61 62 63
3 0 16 3
4 64 65 66 67
3 4 10 5
3 1 3 7
3 9 56 5
4 68 69 37 70
4 67 66 71 72
4 18 6 14 16
3 11 7 12
3 15 3 16
4 0 47 4 17
4 16 0 17 18
3 17 4 6
4 73 74 75 76
3 19 8 7
4 77 78 79 80
4 81 82 23 25
4 80 79 83 84
4 66 85 86 71
4 87 88 22 31
3 20 89 21
4 88 23 20 22
4 21 89 25 24
4 27 87 31 30
3 23 88 24
4 29 21 24 26
4 26 24 88 87
4 31 22 21 29
4 90 28 27 91
4 92 29 26 28
4 91 93 94 90
3 26 87 27
3 29 92 30
4 93 30 92 94
4 91 27 30 93
4 94 92 28 90
4 95 96 97 98
4 99 100 78 77
4 69 101 35 37
4 102 103 104 105
4 20 106 107 89
4 108 109 34 43
3 32 70 33
4 109 35 32 34
4 33 70 37 36
4 39 108 43 42
3 35 109 36
4 41 33 36 38
4 38 36 109 108
4 43 34 33 41
4 110 40 39 111
4 112 41 38 40
4 111 113 114 110
3 38 108 39
3 41 112 42
4 113 42 112 114
4 111 39 42 113
4 114 112 40 110
4 115 116 117 118
4 119 115 118 120
4 121 119 120 122
4 116 121 122 117
4 116 115 119 121
4 122 120 118 117
4 123 124 125 126
4 127 123 126 128
4 129 130 57 49
4 55 2 1 8
4 124 123 127 131
4 132 128 126 125
4 133 134 135 136
4 137 133 136 138
4 139 137 138 140
4 134 139 140 135
4 134 133 137 139
4 140 138 136 135
4 96 102 105 97
4 141 142 143 144
4 145 146 147 148
4 149 150 73 76
4 151 152 153 154
4 130 155 156 57
4 157 158 159 160
4 161 151 154 162
3 163 147 146
3 146 164 165
4 166 44 46 142
4 13 12 15 14
4 167 168 169 170
4 53 153 171 172
4 58 57 156 162
4 78 100 149 76
4 52 154 153 53
3 173 174 60
3 60 63 175
4 176 177 77 84
4 107 81 25 89
4 175 178 168 179
4 173 167 180 174
4 59 58 52 50
4 181 182 183 184
4 74 185 186 75
4 159 150 149 160
4 44 166 187 188
4 164 146 145 170
4 189 187 141 190
4 85 46 45 86
4 144 143 46 85
3 191 192 152
3 152 151 161
4 32 193 68 70
4 47 2 55 54
4 62 61 148 194
4 168 178 195 169
4 52 58 162 154
4 196 71 86 188
4 61 180 145 148
4 179 173 60 175
3 48 129 49
3 49 59 50
4 14 6 5 13
4 47 54 10 4
4 124 131 132 125
4 197 198 199 200
4 48 172 130 129
4 185 158 157 186
4 9 10 54 19
4 191 201 156 155
4 195 202 165 169
4 79 75 186 83
4 163 202 195 194
4 148 147 163 194
3 46 143 142
4 201 191 152 161
4 12 7 3 15
4 203 204 157 160
4 65 190 141 144
4 204 83 186 157
4 100 203 160 149
3 205 206 64
3 64 67 72
4 185 74 150 158
4 207 208 181 184
4 177 203 100 99
4 63 62 178 175
4 176 204 203 177
4 208 209 182 181
4 201 161 162 156
4 165 164 170 169
4 153 152 192 171
4 166 142 141 187
4 178 62 194 195
4 86 45 44 188
4 192 191 155 171
3 74 73 150
3 150 159 158
4 202 163 146 165
4 82 106 20 23
4 78 76 75 79
4 196 188 187 189
4 65 144 85 66
4 172 171 155 130
4 167 170 145 180
3 177 99 77
3 77 80 84
4 210 205 64 72
4 72 71 196 210
4 179 168 167 173
4 81 107 106 82
4 209 211 183 182
4 174 180 61 60
4 103 95 98 104
4 101 193 32 35
4 69 68 193 101
4 96 95 103 102
4 105 104 98 97
4 84 83 204 176
4 199 198 212 213
4 214 213 212 215
4 210 196 189 205
4 11 56 9 19
4 211 207 184 183
4 215 197 200 214
4 212 198 197 215
4 205 189 190 206
4 200 199 213 214
4 207 211 209 208
4 51 53 172 48
4 206 190 65 64
4 131 127 128 132
