ply
format ascii 1.0
comment Created by Blender 3.4.1 - www.blender.org
element vertex 176
property float x
property float y
property float z
property uchar red
property uchar green
property uchar blue
property uchar alpha
element face 132
property list uchar uint vertex_indices
end_header
-0.499998 -0.460820 0.350000 106 88 96 255
-0.499998 -0.444919 0.354440 147 122 132 255
0.500017 -0.444919 0.354439 147 122 132 255
0.500017 -0.460820 0.350000 106 88 96 255
0.500017 -0.444919 0.445294 147 122 132 255
0.500017 -0.460820 0.450000 119 99 107 255
-0.499998 -0.444919 0.445294 147 122 132 255
-0.499998 -0.460820 0.450000 107 89 97 255
0.500017 -0.433710 0.391162 147 122 132 255
0.500017 -0.433710 0.410541 147 122 132 255
-0.499998 -0.433710 0.410541 147 122 132 255
0.500017 -0.348786 0.410541 106 88 96 255
-0.499998 -0.348786 0.410541 106 88 96 255
-0.499998 -0.433710 0.391162 147 122 132 255
0.500017 -0.337695 0.427547 147 122 132 255
-0.499998 -0.337695 0.427548 147 122 132 255
-0.499998 -0.348786 0.391162 106 88 96 255
0.500017 -0.348786 0.391162 106 88 96 255
-0.499998 -0.337695 0.372122 147 122 132 255
-0.499998 -0.316293 0.427548 147 122 132 255
-0.499998 -0.316293 0.372122 147 122 132 255
0.500017 -0.337695 0.372122 147 122 132 255
0.500017 -0.316293 0.427547 147 122 132 255
0.500017 -0.316293 0.372122 147 122 132 255
-0.499998 -0.460820 -0.450000 106 88 96 255
-0.499998 -0.444919 -0.445560 147 122 132 255
0.500016 -0.444919 -0.445561 147 122 132 255
0.500016 -0.460820 -0.450000 106 88 96 255
0.500016 -0.444919 -0.354706 147 122 132 255
0.500016 -0.460820 -0.350000 106 88 96 255
-0.499998 -0.444919 -0.354706 147 122 132 255
-0.499998 -0.460820 -0.350000 106 88 96 255
0.500016 -0.433710 -0.408838 147 122 132 255
0.500016 -0.433710 -0.389459 147 122 132 255
-0.499998 -0.433710 -0.389459 147 122 132 255
0.500016 -0.348786 -0.389459 106 88 96 255
-0.499998 -0.348786 -0.389459 106 88 96 255
-0.499998 -0.433710 -0.408838 147 122 132 255
0.500016 -0.337695 -0.372452 147 122 132 255
-0.499998 -0.337695 -0.372452 147 122 132 255
-0.499998 -0.348786 -0.408838 106 88 96 255
0.500016 -0.348786 -0.408838 106 88 96 255
-0.499998 -0.337695 -0.427878 147 122 132 255
-0.499998 -0.316293 -0.372452 147 122 132 255
-0.499998 -0.316293 -0.427878 147 122 132 255
0.500016 -0.337695 -0.427878 147 122 132 255
0.500016 -0.316293 -0.372452 147 122 132 255
0.500016 -0.316293 -0.427878 147 122 132 255
-0.410000 -0.500010 -0.500000 165 121 73 255
-0.410000 -0.460010 -0.500000 165 121 73 255
-0.250000 -0.460010 -0.500000 165 121 73 255
-0.250000 -0.500010 -0.500000 165 121 73 255
-0.250000 -0.460010 0.500000 165 121 73 255
-0.250000 -0.500010 0.500000 165 121 73 255
-0.410000 -0.460010 0.500000 165 121 73 255
-0.410000 -0.500010 0.500000 165 121 73 255
0.250000 -0.500010 -0.500000 165 121 73 255
0.250000 -0.460010 -0.500000 165 121 73 255
0.410000 -0.460010 -0.500000 165 121 73 255
0.410000 -0.500010 -0.500000 165 121 73 255
0.410000 -0.460010 0.500000 165 121 73 255
0.410000 -0.500010 0.500000 165 121 73 255
0.250000 -0.460010 0.500000 165 121 73 255
0.250000 -0.500010 0.500000 165 121 73 255
0.025296 0.433011 -0.456005 213 200 203 255
0.025296 0.481011 -0.456005 213 200 203 255
0.025296 0.481011 -0.056004 213 200 203 255
0.025296 0.433011 -0.056004 213 200 203 255
-0.022704 0.481011 -0.056004 213 200 203 255
-0.022704 0.433011 -0.056004 213 200 203 255
-0.022704 0.481011 -0.456005 213 200 203 255
-0.022704 0.433011 -0.456005 213 200 203 255
0.025296 0.164225 -0.456005 130 69 60 255
0.025296 0.212225 -0.456005 130 69 60 255
0.025296 0.212225 -0.056004 130 69 60 255
0.025296 0.164225 -0.056004 130 69 60 255
-0.022704 0.212225 -0.056004 130 69 60 255
-0.022704 0.164225 -0.056004 130 69 60 255
-0.022704 0.212225 -0.456005 130 69 60 255
-0.022704 0.164225 -0.456005 130 69 60 255
0.043844 0.229543 -0.431515 130 69 60 255
0.043844 0.229543 -0.500141 130 69 60 255
-0.043844 0.229543 -0.500141 141 91 87 255
-0.043844 0.229543 -0.431515 130 70 61 255
0.025296 -0.117702 -0.056004 213 200 203 255
0.025296 -0.069702 -0.056004 213 200 203 255
-0.022704 -0.069702 -0.056004 213 200 203 255
-0.022704 -0.117702 -0.056004 213 200 203 255
-0.024000 -0.500042 0.450567 216 204 207 255
-0.024781 0.420584 0.449786 213 200 203 255
0.024781 0.420584 0.449786 217 204 207 255
0.024000 -0.500042 0.450567 213 200 203 255
0.024781 0.420584 0.499349 213 200 203 255
0.024000 -0.500042 0.498567 213 200 203 255
-0.024781 0.420584 0.499349 213 200 203 255
-0.024000 -0.500042 0.498567 213 200 203 255
-0.044140 -0.134684 0.430427 139 88 82 255
-0.044140 -0.134684 0.499647 130 69 60 255
-0.044140 -0.053957 0.499647 130 69 60 255
-0.044140 -0.053957 0.430427 130 69 60 255
-0.043844 0.148403 0.430724 130 69 60 255
0.043844 0.148403 0.430724 130 69 60 255
0.043844 0.148403 0.499350 131 71 63 255
-0.043844 0.148403 0.499350 130 69 60 255
0.044141 -0.134684 0.499647 131 70 62 255
0.044141 -0.134684 0.430427 130 69 60 255
0.044141 -0.053957 0.430427 130 69 60 255
0.044141 -0.053957 0.499647 130 70 61 255
-0.022704 -0.117702 -0.456005 255 255 255 255
0.025296 -0.117702 -0.456005 255 255 255 255
-0.043844 0.229543 0.499350 130 69 60 255
-0.043844 0.229543 0.430724 130 69 60 255
0.025296 -0.069702 -0.456005 255 255 255 255
0.043844 0.229543 0.499350 141 91 87 255
0.043844 0.229543 0.430724 130 70 61 255
-0.022704 -0.069702 -0.456005 255 255 255 255
-0.044615 0.420584 0.500121 132 69 60 255
0.044615 0.420584 0.500121 130 69 60 255
0.044615 0.499587 0.500121 130 69 60 255
-0.044615 0.499587 0.500121 130 69 60 255
-0.044615 0.420584 0.429953 130 69 60 255
0.044615 0.420584 0.429953 130 69 60 255
0.044615 0.499587 0.429953 131 70 61 255
-0.044615 0.499587 0.429953 131 69 60 255
-0.022704 -0.117702 0.050817 130 69 60 255
-0.022704 -0.069702 0.050817 130 69 60 255
0.025296 -0.069702 0.050817 130 69 60 255
0.025296 -0.117702 0.050817 130 69 60 255
0.025296 -0.069702 0.450817 130 69 60 255
0.025296 -0.117702 0.450817 130 69 60 255
-0.022704 -0.117702 0.450817 130 69 60 255
-0.022704 -0.069702 0.450817 130 69 60 255
-0.022704 0.164225 0.050817 213 200 203 255
-0.022704 0.212225 0.050817 213 200 203 255
0.025296 0.212225 0.050817 213 200 203 255
0.025296 0.164225 0.050817 213 200 203 255
0.025296 0.212225 0.450817 213 200 203 255
0.025296 0.164225 0.450817 213 200 203 255
-0.022704 0.164225 0.450817 213 200 203 255
-0.022704 0.212225 0.450817 213 200 203 255
-0.022704 0.433011 0.050817 130 69 60 255
-0.022704 0.481011 0.050817 130 69 60 255
0.025296 0.481011 0.050817 130 69 60 255
0.025296 0.433011 0.050817 130 69 60 255
0.025296 0.481011 0.450817 130 69 60 255
0.025296 0.433011 0.450817 130 69 60 255
-0.022704 0.433011 0.450817 130 69 60 255
-0.022704 0.481011 0.450817 130 69 60 255
0.024000 -0.500042 -0.451359 216 204 207 255
0.024781 0.420584 -0.450578 213 200 203 255
-0.024781 0.420584 -0.450578 217 204 207 255
-0.024000 -0.500042 -0.451359 213 200 203 255
-0.024781 0.420584 -0.500140 213 200 203 255
-0.024000 -0.500042 -0.499359 213 200 203 255
0.024781 0.420584 -0.500140 213 200 203 255
0.024000 -0.500042 -0.499359 213 200 203 255
0.044140 -0.134684 -0.431218 139 88 82 255
0.044140 -0.134684 -0.500438 130 69 60 255
0.044140 -0.053957 -0.500438 130 69 60 255
0.044140 -0.053957 -0.431218 130 69 60 255
-0.044141 -0.134684 -0.500438 131 70 62 255
-0.044141 -0.134684 -0.431218 130 69 60 255
-0.044141 -0.053957 -0.431218 130 69 60 255
-0.044141 -0.053957 -0.500438 130 70 61 255
0.043844 0.148403 -0.431515 130 69 60 255
0.043844 0.148403 -0.500141 130 69 60 255
-0.043844 0.148403 -0.500141 131 71 63 255
-0.043844 0.148403 -0.431515 130 69 60 255
0.044615 0.420584 -0.500912 132 69 60 255
-0.044615 0.420584 -0.500912 130 69 60 255
-0.044615 0.499587 -0.500912 130 69 60 255
0.044615 0.499587 -0.500912 130 69 60 255
0.044615 0.420584 -0.430744 130 69 60 255
-0.044615 0.420584 -0.430744 130 69 60 255
-0.044615 0.499587 -0.430744 131 70 61 255
0.044615 0.499587 -0.430744 131 69 60 255
4 0 1 2 3
4 3 2 4 5
4 5 4 6 7
4 7 6 1 0
4 3 5 7 0
4 4 2 8 9
4 10 9 11 12
4 6 4 9 10
4 2 1 13 8
4 1 6 10 13
4 12 11 14 15
4 8 13 16 17
4 13 10 12 16
4 9 8 17 11
4 18 15 19 20
4 17 16 18 21
4 16 12 15 18
4 11 17 21 14
4 22 23 20 19
4 14 21 23 22
4 15 14 22 19
4 21 18 20 23
4 24 25 26 27
4 27 26 28 29
4 29 28 30 31
4 31 30 25 24
4 27 29 31 24
4 28 26 32 33
4 34 33 35 36
4 30 28 33 34
4 26 25 37 32
4 25 30 34 37
4 36 35 38 39
4 32 37 40 41
4 37 34 36 40
4 33 32 41 35
4 42 39 43 44
4 41 40 42 45
4 40 36 39 42
4 35 41 45 38
4 46 47 44 43
4 38 45 47 46
4 39 38 46 43
4 45 42 44 47
4 48 49 50 51
4 51 50 52 53
4 53 52 54 55
4 55 54 49 48
4 51 53 55 48
4 52 50 49 54
4 56 57 58 59
4 59 58 60 61
4 61 60 62 63
4 63 62 57 56
4 59 61 63 56
4 60 58 57 62
4 64 65 66 67
4 67 66 68 69
4 69 68 70 71
4 64 67 69 71
4 66 65 70 68
4 72 73 74 75
4 75 74 76 77
4 77 76 78 79
4 72 75 77 79
4 74 73 78 76
4 80 81 82 83
4 84 85 86 87
4 88 89 90 91
4 91 90 92 93
4 93 92 94 95
4 95 94 89 88
4 91 93 95 88
4 96 97 98 99
4 100 101 102 103
4 104 105 106 107
4 97 104 107 98
4 105 96 99 106
4 99 98 107 106
4 84 87 108 109
4 100 103 110 111
4 84 109 112 85
4 111 110 113 114
4 102 101 114 113
4 103 102 113 110
4 101 100 111 114
4 112 115 86 85
4 116 117 118 119
4 115 108 87 86
4 96 105 104 97
4 120 121 117 116
4 118 122 123 119
4 121 120 123 122
4 120 116 119 123
4 117 121 122 118
4 124 125 126 127
4 127 126 128 129
4 130 131 125 124
4 127 129 130 124
4 128 126 125 131
4 132 133 134 135
4 135 134 136 137
4 138 139 133 132
4 135 137 138 132
4 136 134 133 139
4 140 141 142 143
4 143 142 144 145
4 146 147 141 140
4 143 145 146 140
4 144 142 141 147
4 148 149 150 151
4 151 150 152 153
4 153 152 154 155
4 155 154 149 148
4 151 153 155 148
4 156 157 158 159
4 160 161 162 163
4 157 160 163 158
4 161 156 159 162
4 164 165 81 80
4 166 167 83 82
4 165 166 82 81
4 167 164 80 83
4 159 158 163 162
4 168 169 170 171
4 156 161 160 157
4 164 167 166 165
4 172 173 169 168
4 170 174 175 171
4 173 172 175 174
4 172 168 171 175
4 169 173 174 170
