ply
format ascii 1.0
comment Created by Blender 2.83.20 - www.blender.org, source file: 'NewRailsUpDownDEF1.blend'
element vertex 104
property float x
property float y
property float z
property uchar red
property uchar green
property uchar blue
property uchar alpha
element face 102
property list uchar uint vertex_indices
end_header
-0.499998 0.539153 0.350000 106 88 96 255
0.500016 -0.444919 0.354439 147 122 132 255
0.500016 -0.460820 0.350000 106 88 96 255
0.500016 -0.444919 0.445294 147 122 132 255
-0.499998 0.539153 0.450000 107 89 97 255
0.500016 -0.460820 0.450000 119 99 107 255
0.500016 -0.433710 0.391162 147 122 132 255
0.500016 -0.433710 0.410541 147 122 132 255
-0.499998 0.566264 0.410541 147 122 132 255
0.500016 -0.348786 0.410541 106 88 96 255
-0.499998 0.651187 0.410541 106 88 96 255
-0.499998 0.555054 0.445294 147 122 132 255
-0.499998 0.566264 0.391162 147 122 132 255
-0.499998 0.555054 0.354440 147 122 132 255
0.500016 -0.348786 0.391162 106 88 96 255
-0.499998 0.651187 0.391162 106 88 96 255
-0.499998 0.662278 0.427548 147 122 132 255
-0.499998 0.662278 0.372122 147 122 132 255
0.500016 -0.337695 0.427548 147 122 132 255
0.500016 -0.316293 0.427548 147 122 132 255
-0.499998 0.683680 0.427548 147 122 132 255
0.500016 -0.316293 0.372122 147 122 132 255
0.500016 -0.337695 0.372122 147 122 132 255
-0.499998 0.539153 -0.450000 106 88 96 255
0.500016 -0.444919 -0.445561 147 122 132 255
0.500016 -0.460820 -0.450000 106 88 96 255
0.500016 -0.444919 -0.354706 147 122 132 255
-0.499998 0.539153 -0.350000 106 88 96 255
0.500016 -0.460820 -0.350000 106 88 96 255
0.500016 -0.433710 -0.408838 147 122 132 255
0.500016 -0.433710 -0.389459 147 122 132 255
-0.499998 0.566264 -0.389459 147 122 132 255
0.500016 -0.348786 -0.389459 106 88 96 255
-0.499998 0.651187 -0.389459 106 88 96 255
-0.499998 0.555054 -0.354706 147 122 132 255
-0.499998 0.566264 -0.408838 147 122 132 255
-0.499998 0.555054 -0.445560 147 122 132 255
0.500016 -0.348786 -0.408838 106 88 96 255
-0.499998 0.651187 -0.408838 106 88 96 255
-0.499998 0.662278 -0.372452 147 122 132 255
-0.499998 0.662278 -0.427878 147 122 132 255
0.500016 -0.337695 -0.372452 147 122 132 255
0.500016 -0.316293 -0.372452 147 122 132 255
-0.499998 0.683680 -0.372452 147 122 132 255
0.500016 -0.316293 -0.427878 147 122 132 255
0.500016 -0.337695 -0.427878 147 122 132 255
-0.276343 0.282061 0.351821 165 121 73 255
-0.276343 -0.500000 0.351821 117 86 53 255
-0.376343 -0.500000 0.351821 116 85 51 255
-0.376343 0.365410 0.351821 170 130 90 255
0.395098 -0.500000 -0.351094 116 85 52 255
0.395098 -0.500000 -0.451094 117 86 53 255
0.395098 -0.387155 -0.451094 165 121 73 255
0.395098 -0.387155 -0.351094 165 121 73 255
-0.499998 0.683680 0.372122 147 122 132 255
0.395098 -0.500000 0.451821 116 85 52 255
0.395098 -0.500000 0.351821 117 86 53 255
0.395098 -0.387155 0.351821 165 121 73 255
0.395098 -0.387155 0.451821 165 121 73 255
-0.397005 0.379234 -0.500000 165 121 73 255
-0.283868 0.266097 -0.500000 165 121 73 255
-0.283868 0.266097 0.500000 165 121 73 255
-0.397005 0.379234 0.500000 165 121 73 255
0.385055 -0.402826 0.500000 165 121 73 255
0.385055 -0.402826 -0.500000 165 121 73 255
0.413339 -0.374542 -0.500000 165 121 73 255
0.413339 -0.374542 0.500000 165 121 73 255
-0.276343 -0.500000 0.451821 116 85 52 255
-0.276343 0.282061 0.451821 165 121 73 255
-0.499998 0.683680 -0.427878 147 122 132 255
-0.276343 -0.500000 -0.349615 116 85 52 255
-0.276343 -0.500000 -0.449615 117 86 53 255
-0.276343 0.282061 -0.449615 165 121 73 255
-0.276343 0.282061 -0.349615 165 121 73 255
-0.255584 0.294381 -0.500000 165 121 73 255
-0.255584 0.294381 0.500000 165 121 73 255
0.050593 -0.068365 -0.500000 165 121 73 255
-0.062544 0.044772 -0.500000 165 121 73 255
-0.034260 0.073056 -0.500000 165 121 73 255
0.078877 -0.040081 -0.500000 165 121 73 255
-0.034260 0.073056 0.500000 165 121 73 255
0.078878 -0.040081 0.500000 165 121 73 255
-0.368721 0.407518 -0.500000 165 121 73 255
-0.376343 -0.500000 0.451821 116 85 51 255
-0.062544 0.044772 0.500000 165 121 73 255
0.050593 -0.068365 0.500000 165 121 73 255
0.295098 -0.500000 -0.451094 116 85 51 255
0.295098 -0.500000 -0.351094 116 85 51 255
0.295098 -0.303806 -0.351094 165 121 73 255
0.295098 -0.303806 -0.451094 170 130 90 255
0.271918 -0.289689 -0.500000 165 121 73 255
0.300202 -0.261405 -0.500000 165 121 73 255
0.295098 -0.500000 0.351821 116 85 51 255
0.295098 -0.500000 0.451821 116 85 51 255
0.295098 -0.303806 0.451821 165 121 73 255
0.295098 -0.303806 0.351821 170 130 90 255
0.271918 -0.289689 0.500000 165 121 73 255
0.300202 -0.261405 0.500000 165 121 73 255
-0.376343 0.365410 0.451821 165 121 73 255
-0.376343 -0.500000 -0.449615 116 85 51 255
-0.376343 -0.500000 -0.349615 116 85 51 255
-0.376343 0.365410 -0.349615 165 121 73 255
-0.376343 0.365410 -0.449615 170 130 90 255
-0.368721 0.407518 0.500000 165 121 73 255
3 0 1 2
3 3 4 5
3 3 6 7
3 8 9 10
3 11 12 13
3 12 14 6
3 15 16 17
3 14 18 9
3 16 19 20
3 17 21 22
3 23 24 25
3 26 27 28
3 26 29 30
3 31 32 33
3 34 35 36
3 35 37 29
3 38 39 40
3 37 41 32
3 39 42 43
3 40 44 45
4 26 28 25 24
3 3 11 4
4 46 47 48 49
3 0 13 1
4 50 51 52 53
3 3 1 6
3 8 7 9
4 30 31 34 26
4 7 8 11 3
3 11 8 12
3 12 15 14
4 9 7 6 14
4 54 17 16 20
4 55 56 57 58
4 41 39 33 32
3 15 10 16
3 14 22 18
4 59 60 61 62
4 63 64 65 66
3 16 18 19
3 17 54 21
3 23 36 24
4 3 5 2 1
3 26 34 27
4 0 4 11 13
4 67 47 46 68
3 26 24 29
3 31 30 32
4 23 27 34 36
4 6 1 13 12
3 34 31 35
4 18 16 10 9
3 35 38 37
4 32 30 29 37
4 69 40 39 43
4 70 71 72 73
4 22 14 15 17
3 38 33 39
3 37 45 41
4 20 19 21 54
4 61 60 74 75
3 39 41 42
3 40 69 44
4 76 77 78 79
4 80 81 79 78
4 60 59 82 74
4 42 41 45 44
4 48 47 67 83
4 43 42 44 69
4 84 85 81 80
4 86 87 88 89
4 64 90 91 65
4 19 18 22 21
4 92 93 94 95
4 90 64 63 96
4 96 63 66 97
4 48 83 98 49
4 29 24 36 35
4 99 100 101 102
4 91 97 66 65
4 82 103 75 74
4 100 70 73 101
4 59 62 103 82
4 83 67 68 98
4 38 35 31 33
4 86 51 50 87
4 72 71 99 102
4 90 96 97 91
4 87 50 53 88
4 23 25 28 27
4 92 56 55 93
4 52 51 86 89
4 77 84 80 78
4 57 56 92 95
4 15 12 8 10
4 99 71 70 100
4 45 37 38 40
4 77 76 85 84
4 93 55 58 94
4 0 2 5 4
4 62 61 75 103
4 85 76 79 81
