ply
format ascii 1.0
comment Created by Blender 2.82 (sub 7) - www.blender.org, source file: 'elevatorhorizontalshaft.blend'
element vertex 72
property float x
property float y
property float z
property uchar red
property uchar green
property uchar blue
property uchar alpha
element face 88
property list uchar uint vertex_indices
end_header
0.450000 -0.480114 -0.250034 148 114 81 255
-0.450000 -0.500114 -0.250034 160 132 107 255
0.450000 -0.500114 -0.250034 146 111 76 255
-0.450000 -0.480114 -0.416034 146 111 76 255
0.450000 -0.500114 -0.416034 146 111 76 255
-0.450000 -0.500114 -0.416034 150 116 85 255
-0.450000 -0.480114 -0.250034 150 118 87 255
-0.450040 0.100066 -0.500000 189 181 178 255
-0.450040 -0.499934 0.500000 163 154 143 255
-0.450040 -0.499934 -0.500000 163 154 143 255
-0.450040 0.100066 0.500000 194 186 183 255
-0.500040 -0.499934 0.500000 163 154 143 255
-0.500040 0.100066 0.500000 189 181 178 255
-0.500040 -0.499934 -0.500000 163 154 143 255
-0.500040 0.100066 -0.500000 190 182 179 255
0.500042 0.100066 -0.500000 189 181 178 255
0.500042 -0.499934 0.500000 163 154 143 255
0.500042 -0.499934 -0.500000 163 154 143 255
0.500042 0.100066 0.500000 189 181 178 255
0.450042 -0.499934 0.500000 163 154 143 255
0.450042 0.100066 0.500000 189 181 178 255
0.450042 -0.499934 -0.500000 163 154 143 255
0.450042 0.100066 -0.500000 189 181 178 255
-0.370000 -0.026512 -0.500000 185 179 187 255
-0.370000 -0.076512 0.500000 150 145 151 255
-0.370000 -0.076512 -0.500000 150 145 151 255
-0.370000 -0.026512 0.500000 186 180 188 255
-0.450000 -0.076512 0.500000 168 163 170 255
-0.450000 -0.026512 -0.500000 186 180 188 255
-0.450000 -0.076512 -0.500000 153 148 154 255
-0.450000 -0.026512 0.500000 186 180 188 255
0.449800 -0.026512 0.500000 188 182 190 255
0.369800 -0.076512 0.500000 165 159 166 255
0.449800 -0.076512 0.500000 154 149 155 255
0.369800 -0.026512 0.500000 185 179 187 255
0.369800 -0.076512 -0.500000 156 151 157 255
0.369800 -0.026512 -0.500000 185 179 187 255
0.449800 -0.076512 -0.500000 170 165 172 255
0.449800 -0.233492 0.500000 185 179 187 255
0.369800 -0.283492 0.500000 174 168 176 255
0.449800 -0.283492 0.500000 168 163 170 255
0.369800 -0.233492 0.500000 185 179 187 255
0.369800 -0.283492 -0.500000 150 145 151 255
0.369800 -0.233492 -0.500000 188 182 190 255
0.449800 -0.283492 -0.500000 150 145 151 255
-0.370000 -0.233492 -0.500000 185 179 187 255
-0.370000 -0.283492 0.500000 155 150 156 255
-0.370000 -0.283492 -0.500000 150 145 151 255
-0.370000 -0.233492 0.500000 185 179 187 255
-0.450000 -0.283492 0.500000 158 153 159 255
-0.450000 -0.233492 -0.500000 185 179 187 255
-0.450000 -0.283492 -0.500000 150 145 151 255
-0.450000 -0.233492 0.500000 186 180 188 255
0.450000 -0.480114 0.416673 148 114 81 255
-0.450000 -0.500114 0.416673 160 132 107 255
0.450000 -0.500114 0.416673 146 111 76 255
-0.450000 -0.480114 0.250673 146 111 76 255
0.450000 -0.500114 0.250673 146 111 76 255
-0.450000 -0.500114 0.250673 150 116 85 255
-0.450000 -0.480114 0.416673 150 118 87 255
0.450000 -0.480114 0.088814 148 114 81 255
-0.450000 -0.500114 0.088814 160 132 107 255
0.450000 -0.500114 0.088814 146 111 76 255
-0.450000 -0.480114 -0.077186 146 111 76 255
0.450000 -0.500114 -0.077186 146 111 76 255
-0.450000 -0.500114 -0.077186 150 116 85 255
-0.450000 -0.480114 0.088814 150 118 87 255
0.450000 -0.480114 -0.416034 146 111 76 255
0.449800 -0.026512 -0.500000 185 179 187 255
0.449800 -0.233492 -0.500000 189 183 191 255
0.450000 -0.480114 0.250673 146 111 76 255
0.450000 -0.480114 -0.077186 146 111 76 255
3 0 1 2
3 3 4 5
3 1 4 2
3 0 3 6
3 7 8 9
3 10 11 8
3 12 13 11
3 14 9 13
3 11 9 8
3 10 14 12
3 15 16 17
3 18 19 16
3 20 21 19
3 22 17 21
3 19 17 16
3 18 22 20
3 23 24 25
3 26 27 24
3 28 25 29
3 27 25 24
3 26 28 30
3 31 32 33
3 34 35 32
3 36 37 35
3 32 37 33
3 31 36 34
3 38 39 40
3 41 42 39
3 43 44 42
3 39 44 40
3 38 43 41
3 45 46 47
3 48 49 46
3 50 47 51
3 49 47 46
3 48 50 52
3 53 54 55
3 56 57 58
3 54 57 55
3 53 56 59
3 60 61 62
3 63 64 65
3 61 64 62
3 60 63 66
3 0 6 1
3 3 67 4
3 1 5 4
3 0 67 3
3 7 10 8
3 10 12 11
3 12 14 13
3 14 7 9
3 11 13 9
3 10 7 14
3 15 18 16
3 18 20 19
3 20 22 21
3 22 15 17
3 19 21 17
3 18 15 22
3 23 26 24
3 26 30 27
3 28 23 25
3 27 29 25
3 26 23 28
3 31 34 32
3 34 36 35
3 36 68 37
3 32 35 37
3 31 68 36
3 38 41 39
3 41 43 42
3 43 69 44
3 39 42 44
3 38 69 43
3 45 48 46
3 48 52 49
3 50 45 47
3 49 51 47
3 48 45 50
3 53 59 54
3 56 70 57
3 54 58 57
3 53 70 56
3 60 66 61
3 63 71 64
3 61 65 64
3 60 71 63
