ply
format ascii 1.0
comment Created by Blender 2.82 (sub 7) - www.blender.org, source file: 'elevatorgatewaynoshaft.blend'
element vertex 72
property float x
property float y
property float z
property uchar red
property uchar green
property uchar blue
property uchar alpha
element face 90
property list uchar uint vertex_indices
end_header
-0.303916 1.472039 0.199762 61 56 55 255
-0.303916 -0.467961 -0.200238 61 56 55 255
-0.303916 -0.467961 0.199762 61 56 55 255
-0.303916 1.472039 -0.200238 61 56 55 255
-0.263916 -0.467961 -0.200238 61 56 55 255
-0.263916 1.472039 -0.200238 61 56 55 255
-0.263916 -0.467961 0.199762 61 56 55 255
-0.263916 1.472039 0.199762 61 56 55 255
-0.304737 -0.452278 0.399762 63 58 57 255
-0.304737 -0.492278 -0.400238 61 56 55 255
-0.304737 -0.492278 0.399762 63 58 57 255
-0.304737 -0.452278 -0.400238 61 56 55 255
0.495263 -0.492278 -0.400238 62 57 56 255
0.495263 -0.452278 -0.400238 62 57 56 255
0.495263 -0.492278 0.399762 61 56 55 255
0.495263 -0.452278 0.399762 61 56 55 255
-0.304737 1.488518 0.399762 61 56 55 255
-0.304737 1.448518 -0.400238 65 60 59 255
-0.304738 1.448518 0.399762 61 56 55 255
-0.304737 1.488518 -0.400238 65 60 59 255
0.495263 1.448518 -0.400238 65 61 60 255
0.495263 1.488518 -0.400238 62 57 56 255
0.495263 1.448518 0.399762 62 57 56 255
0.495263 1.488518 0.399762 63 58 57 255
0.447700 1.472039 0.393411 75 71 70 255
0.447700 -0.467961 0.353411 61 56 55 255
0.447700 -0.467961 0.393411 61 56 55 255
0.447700 1.472039 0.353411 82 78 78 255
0.487700 -0.467961 0.353411 61 56 55 255
0.487700 1.472039 0.353411 61 56 55 255
0.487700 -0.467961 0.393411 61 56 55 255
0.487700 1.472039 0.393411 61 56 55 255
0.449055 1.472039 -0.352817 61 56 55 255
0.449055 -0.467961 -0.392817 61 56 55 255
0.449055 -0.467961 -0.352817 61 56 55 255
0.449055 1.472039 -0.392817 61 56 55 255
0.489055 -0.467961 -0.392817 61 56 55 255
0.489055 1.472039 -0.392817 61 56 55 255
0.489055 -0.467961 -0.352817 61 56 55 255
0.489055 1.472039 -0.352817 61 56 55 255
-0.266110 1.130157 -0.050238 182 189 194 255
-0.226110 0.970157 -0.050238 182 189 194 255
-0.266110 0.970157 -0.050238 182 189 194 255
-0.226110 1.130157 -0.050238 182 189 194 255
-0.226110 0.970157 0.049762 182 189 194 255
-0.226110 1.130157 0.049762 182 189 194 255
-0.266110 0.970157 0.049762 182 189 194 255
-0.261484 1.113225 -0.030238 104 27 25 255
-0.201484 1.053225 -0.030238 104 27 25 255
-0.261484 1.053225 -0.030238 104 27 25 255
-0.201484 1.113225 -0.030238 104 27 25 255
-0.201484 1.053225 0.029762 104 27 25 255
-0.201484 1.113225 0.029762 104 27 25 255
-0.261484 1.053225 0.029762 113 56 55 255
-0.261484 1.046618 -0.030238 104 27 25 255
-0.201484 0.986618 -0.030238 104 27 25 255
-0.261484 0.986618 -0.030238 104 27 25 255
-0.201484 1.046618 -0.030238 104 27 25 255
-0.201484 0.986618 0.029762 104 27 25 255
-0.201484 1.046618 0.029762 104 27 25 255
-0.261484 0.986618 0.029762 104 27 25 255
-0.488533 0.500000 0.069762 157 140 144 255
-0.488533 -0.500000 -0.070238 158 142 145 255
-0.488533 -0.500000 0.069762 156 139 143 255
-0.488533 0.500000 -0.070238 157 140 144 255
-0.348533 -0.500000 -0.070238 156 139 143 255
-0.348533 0.500000 -0.070238 156 139 143 255
-0.348533 -0.500000 0.069762 156 139 143 255
-0.348533 0.500000 0.069762 156 139 143 255
-0.266110 1.130157 0.049762 179 185 190 255
-0.261484 1.113225 0.029762 104 27 25 255
-0.261484 1.046618 0.029762 104 27 25 255
3 0 1 2
3 3 4 1
3 5 6 4
3 7 2 6
3 8 9 10
3 11 12 9
3 13 14 12
3 15 10 14
3 12 10 9
3 11 15 13
3 16 17 18
3 19 20 17
3 21 22 20
3 23 18 22
3 20 18 17
3 19 23 21
3 24 25 26
3 27 28 25
3 29 30 28
3 31 26 30
3 32 33 34
3 35 36 33
3 37 38 36
3 39 34 38
3 40 41 42
3 43 44 41
3 45 46 44
3 41 46 42
3 40 45 43
3 47 48 49
3 50 51 48
3 52 53 51
3 48 53 49
3 47 52 50
3 54 55 56
3 57 58 55
3 59 60 58
3 55 60 56
3 54 59 57
3 61 62 63
3 64 65 62
3 66 67 65
3 68 63 67
3 65 63 62
3 64 68 66
3 0 3 1
3 3 5 4
3 5 7 6
3 7 0 2
3 8 11 9
3 11 13 12
3 13 15 14
3 15 8 10
3 12 14 10
3 11 8 15
3 16 19 17
3 19 21 20
3 21 23 22
3 23 16 18
3 20 22 18
3 19 16 23
3 24 27 25
3 27 29 28
3 29 31 30
3 31 24 26
3 32 35 33
3 35 37 36
3 37 39 38
3 39 32 34
3 40 43 41
3 43 45 44
3 45 69 46
3 41 44 46
3 40 69 45
3 47 50 48
3 50 52 51
3 52 70 53
3 48 51 53
3 47 70 52
3 54 57 55
3 57 59 58
3 59 71 60
3 55 58 60
3 54 71 59
3 61 64 62
3 64 66 65
3 66 68 67
3 68 61 63
3 65 67 63
3 64 61 68
