ply
format ascii 1.0
comment Created by Blender 3.4.1 - www.blender.org
element vertex 176
property float x
property float y
property float z
property uchar red
property uchar green
property uchar blue
property uchar alpha
element face 132
property list uchar uint vertex_indices
end_header
-0.431344 -0.117702 0.488854 130 69 60 255
-0.431344 -0.069702 0.488854 130 69 60 255
-0.431344 -0.069702 0.440854 130 69 60 255
-0.431344 -0.117702 0.440854 130 69 60 255
0.030113 0.164225 0.440587 213 200 203 255
0.030113 0.212225 0.440587 213 200 203 255
0.430113 0.212225 0.440587 213 200 203 255
0.430113 0.164225 0.440587 213 200 203 255
0.430113 0.164225 0.488587 213 200 203 255
0.430113 0.212225 0.488587 213 200 203 255
0.030113 0.212225 0.488587 213 200 203 255
0.030113 0.164225 0.488587 213 200 203 255
-0.499998 -0.460820 0.350000 106 88 96 255
-0.499998 -0.444919 0.354440 147 122 132 255
0.500016 -0.444919 0.354439 147 122 132 255
0.500016 -0.460820 0.350000 106 88 96 255
0.500016 -0.444919 0.445294 147 122 132 255
0.500016 -0.460820 0.450000 119 99 107 255
-0.499998 -0.444919 0.445294 147 122 132 255
-0.499998 -0.460820 0.450000 107 89 97 255
0.500016 -0.433710 0.391162 147 122 132 255
0.500016 -0.433710 0.410541 147 122 132 255
-0.499998 -0.433710 0.410541 147 122 132 255
0.500016 -0.348786 0.410541 106 88 96 255
-0.499998 -0.348786 0.410541 106 88 96 255
-0.499998 -0.433710 0.391162 147 122 132 255
0.500016 -0.337695 0.427548 147 122 132 255
-0.499998 -0.337695 0.427548 147 122 132 255
-0.499998 -0.348786 0.391162 106 88 96 255
0.500016 -0.348786 0.391162 106 88 96 255
-0.499998 -0.337695 0.372122 147 122 132 255
-0.499998 -0.316293 0.427548 147 122 132 255
-0.499998 -0.316293 0.372122 147 122 132 255
0.500016 -0.337695 0.372122 147 122 132 255
0.500016 -0.316293 0.427548 147 122 132 255
0.500016 -0.316293 0.372122 147 122 132 255
-0.499998 -0.460820 -0.450000 106 88 96 255
-0.499998 -0.444919 -0.445560 147 122 132 255
0.500016 -0.444919 -0.445561 147 122 132 255
0.500016 -0.460820 -0.450000 106 88 96 255
0.500016 -0.444919 -0.354706 147 122 132 255
0.500016 -0.460820 -0.350000 106 88 96 255
-0.499998 -0.444919 -0.354706 147 122 132 255
-0.499998 -0.460820 -0.350000 106 88 96 255
0.500016 -0.433710 -0.408838 147 122 132 255
0.500016 -0.433710 -0.389459 147 122 132 255
-0.499998 -0.433710 -0.389459 147 122 132 255
0.500016 -0.348786 -0.389459 106 88 96 255
-0.499998 -0.348786 -0.389459 106 88 96 255
-0.499998 -0.433710 -0.408838 147 122 132 255
0.500016 -0.337695 -0.372452 147 122 132 255
-0.499998 -0.337695 -0.372452 147 122 132 255
-0.499998 -0.348786 -0.408838 106 88 96 255
0.500016 -0.348786 -0.408838 106 88 96 255
-0.499998 -0.337695 -0.427878 147 122 132 255
-0.499998 -0.316293 -0.372452 147 122 132 255
-0.499998 -0.316293 -0.427878 147 122 132 255
0.500016 -0.337695 -0.427878 147 122 132 255
0.500016 -0.316293 -0.372452 147 122 132 255
0.500016 -0.316293 -0.427878 147 122 132 255
-0.410000 -0.500010 -0.500000 165 121 73 255
-0.410000 -0.460010 -0.500000 165 121 73 255
-0.250000 -0.460010 -0.500000 165 121 73 255
-0.250000 -0.500010 -0.500000 165 121 73 255
-0.250000 -0.460010 0.500000 165 121 73 255
-0.250000 -0.500010 0.500000 165 121 73 255
-0.410000 -0.460010 0.500000 165 121 73 255
-0.410000 -0.500010 0.500000 165 121 73 255
0.250000 -0.500010 -0.500000 165 121 73 255
0.250000 -0.460010 -0.500000 165 121 73 255
0.410000 -0.460010 -0.500000 165 121 73 255
0.410000 -0.500010 -0.500000 165 121 73 255
0.410000 -0.460010 0.500000 165 121 73 255
0.410000 -0.500010 0.500000 165 121 73 255
0.250000 -0.460010 0.500000 165 121 73 255
0.250000 -0.500010 0.500000 165 121 73 255
0.043844 0.229543 -0.431515 130 69 60 255
0.043844 0.229543 -0.500141 130 69 60 255
-0.043844 0.229543 -0.500141 141 91 87 255
-0.043844 0.229543 -0.431515 130 70 61 255
-0.024000 -0.500042 0.450567 216 204 207 255
-0.024781 0.420584 0.449786 213 200 203 255
0.024781 0.420584 0.449786 217 204 207 255
0.024000 -0.500042 0.450567 213 200 203 255
0.024781 0.420584 0.499349 213 200 203 255
0.024000 -0.500042 0.498567 213 200 203 255
-0.024781 0.420584 0.499349 213 200 203 255
-0.024000 -0.500042 0.498567 213 200 203 255
-0.044140 -0.134684 0.430427 139 88 82 255
-0.044140 -0.134684 0.499647 130 69 60 255
-0.044140 -0.053957 0.499647 130 69 60 255
-0.044140 -0.053957 0.430427 130 69 60 255
-0.043844 0.148403 0.430724 130 69 60 255
0.043844 0.148403 0.430724 130 69 60 255
0.043844 0.148403 0.499350 131 71 63 255
-0.043844 0.148403 0.499350 130 69 60 255
0.044141 -0.134684 0.499647 131 70 62 255
0.044141 -0.134684 0.430427 130 69 60 255
0.044141 -0.053957 0.430427 130 69 60 255
0.044141 -0.053957 0.499647 130 70 61 255
-0.043844 0.229543 0.499350 130 69 60 255
-0.043844 0.229543 0.430724 130 69 60 255
0.043844 0.229543 0.499350 141 91 87 255
0.043844 0.229543 0.430724 130 70 61 255
-0.044615 0.420584 0.500121 132 69 60 255
0.044615 0.420584 0.500121 130 69 60 255
0.044615 0.499587 0.500121 130 69 60 255
-0.044615 0.499587 0.500121 130 69 60 255
-0.044615 0.420584 0.429953 130 69 60 255
0.044615 0.420584 0.429953 130 69 60 255
0.044615 0.499587 0.429953 131 70 61 255
-0.044615 0.499587 0.429953 131 69 60 255
0.024000 -0.500042 -0.451359 216 204 207 255
0.024781 0.420584 -0.450578 213 200 203 255
-0.024781 0.420584 -0.450578 217 204 207 255
-0.024000 -0.500042 -0.451359 213 200 203 255
-0.024781 0.420584 -0.500140 213 200 203 255
-0.024000 -0.500042 -0.499359 213 200 203 255
0.024781 0.420584 -0.500140 213 200 203 255
0.024000 -0.500042 -0.499359 213 200 203 255
0.044140 -0.134684 -0.431218 139 88 82 255
0.044140 -0.134684 -0.500438 130 69 60 255
0.044140 -0.053957 -0.500438 130 69 60 255
0.044140 -0.053957 -0.431218 130 69 60 255
-0.044141 -0.134684 -0.500438 131 70 62 255
-0.044141 -0.134684 -0.431218 130 69 60 255
-0.044141 -0.053957 -0.431218 130 69 60 255
-0.044141 -0.053957 -0.500438 130 70 61 255
0.043844 0.148403 -0.431515 130 69 60 255
0.043844 0.148403 -0.500141 130 69 60 255
-0.043844 0.148403 -0.500141 131 71 63 255
-0.043844 0.148403 -0.431515 130 69 60 255
0.044615 0.420584 -0.500912 132 69 60 255
-0.044615 0.420584 -0.500912 130 69 60 255
-0.044615 0.499587 -0.500912 130 69 60 255
0.044615 0.499587 -0.500912 130 69 60 255
0.044615 0.420584 -0.430744 130 69 60 255
-0.044615 0.420584 -0.430744 130 69 60 255
-0.044615 0.499587 -0.430744 131 70 61 255
0.044615 0.499587 -0.430744 131 69 60 255
0.431728 0.433011 -0.441776 213 200 203 255
0.431728 0.481011 -0.441776 213 200 203 255
0.031728 0.481011 -0.441776 213 200 203 255
0.031728 0.433011 -0.441776 213 200 203 255
-0.431268 0.433011 0.488854 130 69 60 255
-0.431268 0.481011 0.488854 130 69 60 255
-0.431268 0.481011 0.440854 130 69 60 255
-0.431268 0.433011 0.440854 130 69 60 255
0.031728 0.433011 -0.489776 213 200 203 255
0.031728 0.481011 -0.489776 213 200 203 255
0.431728 0.481011 -0.489776 213 200 203 255
0.431728 0.433011 -0.489776 213 200 203 255
-0.432470 0.164225 -0.490798 130 69 60 255
-0.432470 0.212225 -0.490798 130 69 60 255
-0.032470 0.212225 -0.490798 130 69 60 255
-0.032470 0.164225 -0.490798 130 69 60 255
-0.432470 0.164225 -0.442798 130 69 60 255
-0.432470 0.212225 -0.442798 130 69 60 255
-0.032470 0.164225 -0.442798 130 69 60 255
-0.032470 0.212225 -0.442798 130 69 60 255
0.031525 -0.117702 -0.441953 213 200 203 255
0.031525 -0.117702 -0.489953 213 200 203 255
0.431525 -0.117702 -0.489953 255 255 255 255
0.431525 -0.117702 -0.441953 255 255 255 255
0.431525 -0.069702 -0.441953 255 255 255 255
0.031525 -0.069702 -0.441953 213 200 203 255
0.431525 -0.069702 -0.489953 255 255 255 255
0.031525 -0.069702 -0.489953 213 200 203 255
-0.031268 0.433011 0.488854 130 69 60 255
-0.031268 0.481011 0.488854 130 69 60 255
-0.031268 0.481011 0.440854 130 69 60 255
-0.031268 0.433011 0.440854 130 69 60 255
-0.031344 -0.117702 0.488854 130 69 60 255
-0.031344 -0.069702 0.488854 130 69 60 255
-0.031344 -0.069702 0.440854 130 69 60 255
-0.031344 -0.117702 0.440854 130 69 60 255
4 0 1 2 3
4 4 5 6 7
4 8 9 10 11
4 4 7 8 11
4 6 5 10 9
4 12 13 14 15
4 15 14 16 17
4 17 16 18 19
4 19 18 13 12
4 15 17 19 12
4 16 14 20 21
4 22 21 23 24
4 18 16 21 22
4 14 13 25 20
4 13 18 22 25
4 24 23 26 27
4 20 25 28 29
4 25 22 24 28
4 21 20 29 23
4 30 27 31 32
4 29 28 30 33
4 28 24 27 30
4 23 29 33 26
4 34 35 32 31
4 26 33 35 34
4 27 26 34 31
4 33 30 32 35
4 36 37 38 39
4 39 38 40 41
4 41 40 42 43
4 43 42 37 36
4 39 41 43 36
4 40 38 44 45
4 46 45 47 48
4 42 40 45 46
4 38 37 49 44
4 37 42 46 49
4 48 47 50 51
4 44 49 52 53
4 49 46 48 52
4 45 44 53 47
4 54 51 55 56
4 53 52 54 57
4 52 48 51 54
4 47 53 57 50
4 58 59 56 55
4 50 57 59 58
4 51 50 58 55
4 57 54 56 59
4 60 61 62 63
4 63 62 64 65
4 65 64 66 67
4 67 66 61 60
4 63 65 67 60
4 64 62 61 66
4 68 69 70 71
4 71 70 72 73
4 73 72 74 75
4 75 74 69 68
4 71 73 75 68
4 72 70 69 74
4 76 77 78 79
4 80 81 82 83
4 83 82 84 85
4 85 84 86 87
4 87 86 81 80
4 83 85 87 80
4 88 89 90 91
4 92 93 94 95
4 96 97 98 99
4 89 96 99 90
4 97 88 91 98
4 91 90 99 98
4 92 95 100 101
4 101 100 102 103
4 94 93 103 102
4 95 94 102 100
4 93 92 101 103
4 104 105 106 107
4 88 97 96 89
4 108 109 105 104
4 106 110 111 107
4 109 108 111 110
4 108 104 107 111
4 105 109 110 106
4 112 113 114 115
4 115 114 116 117
4 117 116 118 119
4 119 118 113 112
4 115 117 119 112
4 120 121 122 123
4 124 125 126 127
4 121 124 127 122
4 125 120 123 126
4 128 129 77 76
4 130 131 79 78
4 129 130 78 77
4 131 128 76 79
4 123 122 127 126
4 132 133 134 135
4 120 125 124 121
4 128 131 130 129
4 136 137 133 132
4 134 138 139 135
4 137 136 139 138
4 136 132 135 139
4 133 137 138 134
4 140 141 142 143
4 144 145 146 147
4 148 149 150 151
4 140 143 148 151
4 142 141 150 149
4 152 153 154 155
4 152 156 157 153
4 158 159 157 156
4 152 155 158 156
4 154 153 157 159
4 7 6 9 8
4 160 161 162 163
4 160 163 164 165
4 164 166 167 165
4 166 162 161 167
4 162 166 164 163
4 168 169 145 144
4 147 146 170 171
4 168 144 147 171
4 145 169 170 146
4 140 151 150 141
4 172 173 1 0
4 3 2 174 175
4 172 0 3 175
4 1 173 174 2
