ply
format ascii 1.0
comment Created by Blender 2.82 (sub 7) - www.blender.org, source file: 'elevatorhorizontalstation.blend'
element vertex 272
property float x
property float y
property float z
property uchar red
property uchar green
property uchar blue
property uchar alpha
element face 376
property list uchar uint vertex_indices
end_header
0.014969 0.474842 -0.461328 134 39 36 255
0.014852 0.444842 -0.431329 134 39 36 255
0.014969 0.444842 -0.461328 134 39 36 255
0.014852 0.474842 -0.431329 134 39 36 255
-0.015148 0.444842 -0.431446 134 39 36 255
-0.015148 0.474842 -0.431446 134 39 36 255
-0.015031 0.444842 -0.461445 134 39 36 255
-0.015031 0.474842 -0.461445 134 39 36 255
0.030083 0.509842 -0.490524 218 207 217 255
0.029927 0.409842 -0.450524 218 207 217 255
0.030083 0.409842 -0.490524 218 207 217 255
0.029927 0.509842 -0.450524 218 207 217 255
-0.030073 0.409842 -0.450758 218 207 217 255
-0.030073 0.509842 -0.450758 218 207 217 255
-0.029917 0.409842 -0.490758 217 206 216 255
-0.029917 0.509842 -0.490758 218 207 217 255
0.428851 -0.171671 -0.466850 93 84 99 255
0.358114 -0.202301 -0.484534 93 84 99 255
0.358114 -0.171671 -0.466850 93 84 99 255
0.428851 -0.202301 -0.484534 93 84 99 255
0.358114 -0.232931 -0.466850 93 84 99 255
0.428851 -0.232931 -0.431482 93 84 99 255
0.358114 -0.232931 -0.431482 93 84 99 255
0.358114 -0.202301 -0.413798 93 84 99 255
0.428851 -0.202301 -0.413798 93 84 99 255
0.428851 -0.232931 -0.466850 93 84 99 255
0.428851 -0.171671 -0.431482 93 84 99 255
0.358114 -0.171671 -0.431482 93 84 99 255
0.428851 0.035169 -0.466850 93 84 99 255
0.358115 0.004539 -0.484534 93 84 99 255
0.358115 0.035169 -0.466850 93 84 99 255
0.428851 -0.026091 -0.466850 93 84 99 255
0.358115 -0.026091 -0.466850 93 84 99 255
0.358115 -0.026091 -0.431482 93 84 99 255
0.428851 -0.026091 -0.431482 93 84 99 255
0.358115 0.004539 -0.413798 93 84 99 255
0.428851 0.004539 -0.413798 93 84 99 255
0.358115 0.035169 -0.431482 93 84 99 255
0.428851 0.035169 -0.431482 93 84 99 255
0.428851 0.035169 0.430235 93 84 99 255
0.358115 0.004539 0.412551 93 84 99 255
0.358115 0.035169 0.430235 93 84 99 255
0.428851 -0.026091 0.430235 93 84 99 255
0.358115 -0.026091 0.430235 93 84 99 255
0.428851 -0.026091 0.465603 93 84 99 255
0.358115 -0.026091 0.465603 93 84 99 255
0.428851 0.004539 0.483287 93 84 99 255
0.358115 0.004539 0.483287 93 84 99 255
0.358115 0.035169 0.465603 93 84 99 255
0.428851 0.035169 0.465603 93 84 99 255
-0.358188 0.035169 -0.466850 93 84 99 255
-0.428924 0.004539 -0.484534 93 84 99 255
-0.428924 0.035169 -0.466850 93 84 99 255
-0.358188 -0.026091 -0.466850 93 84 99 255
-0.428924 -0.026091 -0.466850 93 84 99 255
-0.358188 -0.026091 -0.431481 93 84 99 255
-0.428924 -0.026091 -0.431481 93 84 99 255
-0.428924 0.004539 -0.413797 93 84 99 255
-0.358188 0.035169 -0.431481 93 84 99 255
-0.428924 0.035169 -0.431481 93 84 99 255
-0.358188 0.035169 0.430235 93 84 99 255
-0.428924 0.004539 0.412551 93 84 99 255
-0.428924 0.035169 0.430235 93 84 99 255
-0.358188 -0.026091 0.430235 93 84 99 255
-0.428924 -0.026091 0.430235 93 84 99 255
-0.428924 -0.026091 0.465603 93 84 99 255
-0.358188 0.004539 0.483287 93 84 99 255
-0.428924 0.004539 0.483287 93 84 99 255
-0.358188 -0.026091 0.465603 93 84 99 255
-0.428924 0.035169 0.465603 93 84 99 255
0.428851 -0.171671 0.430235 93 84 99 255
0.358115 -0.202301 0.412551 93 84 99 255
0.358115 -0.171671 0.430235 95 87 101 255
0.428851 -0.232931 0.430235 93 84 99 255
0.358115 -0.232931 0.430235 93 84 99 255
0.358115 -0.232931 0.465603 95 86 101 255
0.428851 -0.232931 0.465603 93 84 99 255
0.358115 -0.202301 0.483287 93 84 99 255
0.428851 -0.202301 0.483287 93 84 99 255
0.358115 -0.171671 0.465603 93 84 99 255
0.428851 -0.171671 0.465603 93 84 99 255
-0.358188 -0.171671 0.430235 95 86 101 255
-0.428924 -0.202301 0.412551 93 84 99 255
-0.428924 -0.171671 0.430235 93 84 99 255
-0.358188 -0.232931 0.430235 95 87 101 255
-0.428924 -0.232931 0.430235 93 84 99 255
-0.428924 -0.232931 0.465603 93 84 99 255
-0.358188 -0.202301 0.483287 94 85 100 255
-0.428924 -0.202301 0.483287 93 84 99 255
-0.428924 -0.171671 0.465603 93 84 99 255
-0.428924 -0.171671 -0.466850 93 84 99 255
-0.358188 -0.202301 -0.484534 93 84 99 255
-0.428924 -0.202301 -0.484534 93 84 99 255
-0.428924 -0.232931 -0.466850 93 84 99 255
-0.358188 -0.232931 -0.431481 93 84 99 255
-0.428924 -0.232931 -0.431481 93 84 99 255
-0.428924 -0.202301 -0.413797 93 84 99 255
-0.358188 -0.171671 -0.431481 93 84 99 255
-0.428924 -0.171671 -0.431481 93 84 99 255
-0.358345 -0.469110 0.500431 141 145 151 255
-0.358345 -0.302517 -0.371281 142 146 152 255
-0.358345 -0.469110 -0.499569 141 145 151 255
0.358166 0.616501 -0.499569 162 166 173 255
0.358166 -0.469110 -0.499569 141 145 151 255
0.358166 -0.302517 0.372812 142 146 152 255
0.358166 -0.469110 0.500431 141 145 151 255
0.358166 0.616501 0.500431 141 145 151 255
0.358166 0.616501 0.403339 142 146 152 255
0.342069 0.616501 0.483926 141 145 151 255
-0.342248 -0.450875 0.483926 103 105 110 255
-0.342248 0.616501 0.483926 162 166 173 255
-0.358345 0.616501 -0.400536 162 166 173 255
-0.342248 0.616501 -0.484594 162 166 173 255
-0.358345 0.616501 -0.499569 162 166 173 255
-0.358345 0.616501 0.500431 162 166 173 255
0.342068 0.616501 -0.484594 162 166 173 255
-0.342248 -0.450875 -0.484594 102 104 109 255
0.342069 -0.450875 0.483926 104 106 111 255
0.342068 -0.450875 -0.484594 102 104 109 255
0.342068 -0.302517 -0.372553 142 146 152 255
-0.342248 -0.302517 -0.371281 144 148 154 255
-0.342248 -0.302517 0.372812 141 145 151 255
-0.342248 0.616501 -0.400536 162 166 173 255
0.358166 -0.302517 -0.372553 141 145 151 255
0.342068 0.616501 -0.399264 162 166 173 255
0.358166 0.616501 -0.399264 162 166 173 255
-0.358345 -0.302517 0.372812 141 145 151 255
-0.342248 0.616501 0.403339 162 166 173 255
-0.358345 0.616501 0.403339 162 166 173 255
0.342068 -0.302517 0.372812 142 146 152 255
0.342069 0.616501 0.403339 142 146 152 255
-0.015090 0.474842 0.462734 134 39 36 255
-0.015090 0.444842 0.432734 134 39 36 255
-0.015090 0.444842 0.462734 134 39 36 255
-0.015090 0.474842 0.432734 134 39 36 255
0.014910 0.444842 0.432734 134 39 36 255
0.014910 0.474842 0.432734 134 39 36 255
0.014910 0.444842 0.462734 134 39 36 255
0.014910 0.474842 0.462734 134 39 36 255
-0.030090 0.509842 0.491988 218 207 217 255
-0.030090 0.409842 0.451989 218 207 217 255
-0.030090 0.409842 0.491988 218 207 217 255
-0.030090 0.509842 0.451989 218 207 217 255
0.029910 0.409842 0.451989 218 207 217 255
0.029910 0.509842 0.451989 218 207 217 255
0.029910 0.409842 0.491989 217 206 216 255
0.029910 0.509842 0.491989 218 207 217 255
-0.450090 -0.479829 -0.499792 146 121 97 255
0.449910 -0.499829 -0.499792 146 121 97 255
-0.450090 -0.499829 -0.499792 146 121 97 255
0.449910 -0.479829 -0.299792 146 121 97 255
-0.450089 -0.499829 -0.299792 146 121 97 255
0.449910 -0.499829 -0.299792 146 121 97 255
0.449910 -0.479829 -0.499792 146 121 97 255
0.449950 0.100066 -0.299792 189 181 178 255
0.449950 -0.499933 -0.499792 163 154 143 255
0.449950 -0.499933 -0.299792 163 154 143 255
0.449950 0.100066 -0.499792 194 186 183 255
0.499950 -0.499933 -0.499792 163 154 143 255
0.499950 0.100066 -0.499792 189 181 178 255
0.499950 -0.499933 -0.299792 163 154 143 255
0.499950 0.100066 -0.299792 190 182 179 255
-0.500132 0.100066 -0.299792 189 181 178 255
-0.500132 -0.499933 -0.499792 163 154 143 255
-0.500132 -0.499933 -0.299792 163 154 143 255
-0.500132 0.100066 -0.499792 189 181 178 255
-0.450132 -0.499933 -0.499792 163 154 143 255
-0.450132 0.100066 -0.499792 189 181 178 255
-0.450132 -0.499933 -0.299792 163 154 143 255
-0.450132 0.100066 -0.299792 189 181 178 255
0.369910 -0.026512 -0.299792 185 179 187 255
0.369910 -0.076512 -0.499792 150 145 151 255
0.369910 -0.076512 -0.299792 150 145 151 255
0.369910 -0.026512 -0.499792 186 180 188 255
0.449910 -0.076512 -0.499792 168 163 170 255
0.449910 -0.026512 -0.299792 186 180 188 255
0.449910 -0.076512 -0.299792 153 148 154 255
0.449910 -0.026512 -0.499792 186 180 188 255
-0.449889 -0.026512 -0.499792 188 182 190 255
-0.369890 -0.076512 -0.499792 165 159 166 255
-0.449889 -0.076512 -0.499792 154 149 155 255
-0.369890 -0.026512 -0.499792 185 179 187 255
-0.369889 -0.076512 -0.299792 156 151 157 255
-0.369889 -0.026512 -0.299792 185 179 187 255
-0.449889 -0.076512 -0.299792 170 165 172 255
-0.449889 -0.026512 -0.299792 185 179 187 255
-0.449889 -0.233492 -0.499792 185 179 187 255
-0.369890 -0.283492 -0.499792 174 168 176 255
-0.449889 -0.283492 -0.499792 168 163 170 255
-0.369890 -0.233492 -0.499792 185 179 187 255
-0.369889 -0.283492 -0.299792 150 145 151 255
-0.369889 -0.233492 -0.299792 188 182 190 255
-0.449889 -0.283492 -0.299792 150 145 151 255
-0.449889 -0.233492 -0.299792 189 183 191 255
0.369910 -0.233492 -0.299792 185 179 187 255
0.369910 -0.283492 -0.499792 155 150 156 255
0.369910 -0.283492 -0.299792 150 145 151 255
0.369910 -0.233492 -0.499792 185 179 187 255
0.449910 -0.283492 -0.499792 158 153 159 255
0.449910 -0.233492 -0.299792 185 179 187 255
0.449910 -0.283492 -0.299792 150 145 151 255
0.449910 -0.233492 -0.499792 186 180 188 255
-0.450090 -0.479829 0.299827 146 121 97 255
0.449910 -0.499829 0.299827 146 121 97 255
-0.450090 -0.499829 0.299827 146 121 97 255
0.449910 -0.479829 0.499827 146 121 97 255
-0.450090 -0.499829 0.499827 146 121 97 255
0.449910 -0.499829 0.499827 146 121 97 255
0.449910 -0.479829 0.299827 146 121 97 255
-0.450090 -0.479829 0.499827 146 121 97 255
0.449951 0.100066 0.499827 189 181 178 255
0.449950 -0.499933 0.299827 163 154 143 255
0.449951 -0.499933 0.499827 163 154 143 255
0.449950 0.100066 0.299827 194 186 183 255
0.499950 -0.499933 0.299827 163 154 143 255
0.499950 0.100066 0.299827 189 181 178 255
0.499950 -0.499933 0.499827 163 154 143 255
0.499950 0.100066 0.499827 190 182 179 255
-0.500132 0.100066 0.499827 189 181 178 255
-0.500132 -0.499933 0.299827 163 154 143 255
-0.500132 -0.499933 0.499827 163 154 143 255
-0.500132 0.100066 0.299827 189 181 178 255
-0.450132 -0.499933 0.299827 163 154 143 255
-0.450132 0.100066 0.299827 189 181 178 255
-0.450132 -0.499933 0.499827 163 154 143 255
-0.450132 0.100066 0.499827 189 181 178 255
0.369910 -0.026512 0.499827 185 179 187 255
0.369910 -0.076512 0.299827 150 145 151 255
0.369910 -0.076512 0.499827 150 145 151 255
0.369910 -0.026512 0.299827 186 180 188 255
0.449910 -0.076512 0.299827 168 163 170 255
0.449910 -0.026512 0.499827 186 180 188 255
0.449910 -0.076512 0.499827 153 148 154 255
0.449910 -0.026512 0.299827 186 180 188 255
-0.449889 -0.026512 0.299827 188 182 190 255
-0.369890 -0.076512 0.299827 165 159 166 255
-0.449889 -0.076512 0.299827 154 149 155 255
-0.369890 -0.026512 0.299827 185 179 187 255
-0.369889 -0.076512 0.499827 156 151 157 255
-0.369889 -0.026512 0.499827 185 179 187 255
-0.449889 -0.076512 0.499827 170 165 172 255
-0.449889 -0.026512 0.499827 185 179 187 255
-0.449889 -0.233492 0.299827 185 179 187 255
-0.369890 -0.283492 0.299827 174 168 176 255
-0.449889 -0.283492 0.299827 168 163 170 255
-0.369890 -0.233492 0.299827 185 179 187 255
-0.369889 -0.283492 0.499827 150 145 151 255
-0.369889 -0.233492 0.499827 188 182 190 255
-0.449889 -0.283492 0.499827 150 145 151 255
-0.449889 -0.233492 0.499827 189 183 191 255
0.369910 -0.233492 0.499827 185 179 187 255
0.369910 -0.283492 0.299827 155 150 156 255
0.369910 -0.283492 0.499827 150 145 151 255
0.369910 -0.233492 0.299827 185 179 187 255
0.449910 -0.283492 0.299827 158 153 159 255
0.449910 -0.233492 0.499827 185 179 187 255
0.449910 -0.283492 0.499827 150 145 151 255
0.449910 -0.233492 0.299827 186 180 188 255
0.428851 0.004539 -0.484534 93 84 99 255
0.428851 0.004539 0.412551 93 84 99 255
-0.358188 0.004539 -0.484534 93 84 99 255
-0.358188 0.004539 -0.413797 93 84 99 255
-0.358188 0.004539 0.412551 93 84 99 255
-0.358188 0.035169 0.465603 93 84 99 255
0.428851 -0.202301 0.412551 93 84 99 255
-0.358188 -0.202301 0.412551 95 87 101 255
-0.358188 -0.232931 0.465603 94 85 100 255
-0.358188 -0.171671 0.465603 95 87 101 255
-0.358188 -0.171671 -0.466850 93 84 99 255
-0.358188 -0.232931 -0.466850 93 84 99 255
-0.358188 -0.202301 -0.413797 93 84 99 255
-0.450089 -0.479829 -0.299792 146 121 97 255
3 0 1 2
3 3 4 1
3 5 6 4
3 4 2 1
3 3 7 5
3 8 9 10
3 11 12 9
3 13 14 12
3 12 10 9
3 11 15 13
3 16 17 18
3 19 20 17
3 20 21 22
3 21 23 22
3 24 21 25
3 23 26 27
3 26 18 27
3 28 29 30
3 29 31 32
3 31 33 32
3 34 35 33
3 34 31 28
3 36 37 35
3 38 30 37
3 39 40 41
3 40 42 43
3 43 44 45
3 45 46 47
3 44 42 39
3 46 48 47
3 49 41 48
3 50 51 52
3 51 53 54
3 54 55 56
3 55 57 56
3 57 58 59
3 58 52 59
3 56 57 59
3 60 61 62
3 61 63 64
3 63 65 64
3 65 66 67
3 66 68 63
3 66 69 67
3 69 60 62
3 61 65 69
3 70 71 72
3 71 73 74
3 73 75 74
3 76 77 75
3 70 78 73
3 78 79 77
3 80 72 79
3 81 82 83
3 82 84 85
3 84 86 85
3 86 87 88
3 87 89 88
3 89 81 83
3 88 89 82
3 90 91 92
3 91 93 92
3 93 94 95
3 94 96 95
3 96 97 98
3 97 90 98
3 96 98 92
3 99 100 101
3 101 102 103
3 103 104 105
3 106 99 105
3 103 99 101
3 107 108 106
3 108 109 110
3 111 112 113
3 114 108 110
3 113 115 102
3 116 117 118
3 112 118 115
3 119 118 117
3 120 121 109
3 111 120 122
3 100 121 120
3 123 124 119
3 125 115 124
3 126 127 121
3 128 110 127
3 104 119 129
3 130 104 129
3 131 132 133
3 134 135 132
3 136 137 135
3 135 133 132
3 136 131 138
3 139 140 141
3 142 143 140
3 144 145 143
3 140 145 141
3 142 146 144
3 147 148 149
3 150 151 152
3 149 152 151
3 147 150 153
3 154 155 156
3 157 158 155
3 159 160 158
3 161 156 160
3 158 156 155
3 159 154 161
3 162 163 164
3 165 166 163
3 167 168 166
3 169 164 168
3 166 164 163
3 165 169 167
3 170 171 172
3 173 174 171
3 175 172 176
3 174 172 171
3 173 175 177
3 178 179 180
3 181 182 179
3 183 184 182
3 180 182 184
3 181 185 183
3 186 187 188
3 189 190 187
3 191 192 190
3 188 190 192
3 189 193 191
3 194 195 196
3 197 198 195
3 199 196 200
3 198 196 195
3 197 199 201
3 202 203 204
3 205 206 207
3 203 206 204
3 208 209 205
3 210 211 212
3 213 214 211
3 215 216 214
3 217 212 216
3 211 216 212
3 213 217 215
3 218 219 220
3 221 222 219
3 223 224 222
3 225 220 224
3 222 220 219
3 221 225 223
3 226 227 228
3 229 230 227
3 231 228 232
3 230 228 227
3 233 226 231
3 234 235 236
3 237 238 235
3 239 240 238
3 235 240 236
3 237 241 239
3 242 243 244
3 245 246 243
3 247 248 246
3 243 248 244
3 245 249 247
3 250 251 252
3 253 254 251
3 255 252 256
3 254 252 251
3 257 250 255
3 0 3 1
3 3 5 4
3 5 7 6
3 4 6 2
3 3 0 7
3 8 11 9
3 11 13 12
3 13 15 14
3 12 14 10
3 11 8 15
3 16 19 17
3 19 25 20
3 20 25 21
3 21 24 23
3 25 19 24
3 19 16 24
3 16 26 24
3 23 24 26
3 26 16 18
3 28 258 29
3 29 258 31
3 31 34 33
3 34 36 35
3 31 258 28
3 28 38 36
3 36 34 28
3 36 38 37
3 38 28 30
3 39 259 40
3 40 259 42
3 43 42 44
3 45 44 46
3 42 259 39
3 39 49 46
3 46 44 39
3 46 49 48
3 49 39 41
3 50 260 51
3 51 260 53
3 54 53 55
3 55 261 57
3 57 261 58
3 58 50 52
3 59 52 56
3 52 51 56
3 51 54 56
3 60 262 61
3 61 262 63
3 63 68 65
3 65 68 66
3 63 262 60
3 60 263 63
3 263 66 63
3 66 263 69
3 69 263 60
3 69 62 61
3 61 64 65
3 65 67 69
3 70 264 71
3 71 264 73
3 73 76 75
3 76 78 77
3 73 264 70
3 70 80 78
3 78 76 73
3 78 80 79
3 80 70 72
3 81 265 82
3 82 265 84
3 84 266 86
3 86 266 87
3 87 267 89
3 89 267 81
3 89 83 82
3 82 85 86
3 86 88 82
3 90 268 91
3 91 269 93
3 93 269 94
3 94 270 96
3 96 270 97
3 97 268 90
3 98 90 92
3 92 93 95
3 95 96 92
3 99 114 126
3 114 128 126
3 111 113 100
3 113 101 100
3 99 126 100
3 101 113 102
3 103 102 123
3 102 125 123
3 107 106 104
3 106 105 104
3 103 123 104
3 106 114 99
3 103 105 99
3 107 130 108
3 108 117 109
3 111 122 112
3 114 106 108
3 113 112 115
3 116 109 117
3 112 116 118
3 117 108 129
3 108 130 129
3 124 115 119
3 115 118 119
3 117 129 119
3 116 112 120
3 112 122 120
3 127 110 121
3 110 109 121
3 116 120 109
3 111 100 120
3 100 126 121
3 123 125 124
3 125 102 115
3 126 128 127
3 128 114 110
3 104 123 119
3 130 107 104
3 131 134 132
3 134 136 135
3 136 138 137
3 135 137 133
3 136 134 131
3 139 142 140
3 142 144 143
3 144 146 145
3 140 143 145
3 142 139 146
3 147 153 148
3 150 271 151
3 149 148 152
3 147 271 150
3 154 157 155
3 157 159 158
3 159 161 160
3 161 154 156
3 158 160 156
3 159 157 154
3 162 165 163
3 165 167 166
3 167 169 168
3 169 162 164
3 166 168 164
3 165 162 169
3 170 173 171
3 173 177 174
3 175 170 172
3 174 176 172
3 173 170 175
3 178 181 179
3 181 183 182
3 183 185 184
3 180 179 182
3 181 178 185
3 186 189 187
3 189 191 190
3 191 193 192
3 188 187 190
3 189 186 193
3 194 197 195
3 197 201 198
3 199 194 196
3 198 200 196
3 197 194 199
3 202 208 203
3 205 209 206
3 203 207 206
3 208 202 209
3 210 213 211
3 213 215 214
3 215 217 216
3 217 210 212
3 211 214 216
3 213 210 217
3 218 221 219
3 221 223 222
3 223 225 224
3 225 218 220
3 222 224 220
3 221 218 225
3 226 229 227
3 229 233 230
3 231 226 228
3 230 232 228
3 233 229 226
3 234 237 235
3 237 239 238
3 239 241 240
3 235 238 240
3 237 234 241
3 242 245 243
3 245 247 246
3 247 249 248
3 243 246 248
3 245 242 249
3 250 253 251
3 253 257 254
3 255 250 252
3 254 256 252
3 257 253 250
