ply
format ascii 1.0
comment Created by Blender 2.83.20 - www.blender.org, source file: 'NewRailsDEF1.blend'
element vertex 72
property float x
property float y
property float z
property uchar red
property uchar green
property uchar blue
property uchar alpha
element face 70
property list uchar uint vertex_indices
end_header
0.500016 -0.444919 0.445294 147 122 132 255
0.500016 -0.433710 0.391162 147 122 132 255
0.500016 -0.433710 0.410541 147 122 132 255
-0.499998 -0.444919 0.445294 147 122 132 255
-0.499998 -0.433710 0.391162 147 122 132 255
-0.499998 -0.444919 0.354440 147 122 132 255
-0.499998 -0.348786 0.391162 106 88 96 255
-0.499998 -0.337695 0.427548 147 122 132 255
-0.499998 -0.337695 0.372122 147 122 132 255
0.500016 -0.348786 0.391162 106 88 96 255
0.500016 -0.337695 0.427548 147 122 132 255
0.500016 -0.348786 0.410541 106 88 96 255
0.500016 -0.444919 -0.354706 147 122 132 255
0.500016 -0.433710 -0.408838 147 122 132 255
0.500016 -0.433710 -0.389459 147 122 132 255
-0.499998 -0.444919 -0.354706 147 122 132 255
-0.499998 -0.433710 -0.408838 147 122 132 255
-0.499998 -0.444919 -0.445560 147 122 132 255
-0.499998 -0.348786 -0.408838 106 88 96 255
-0.499998 -0.337695 -0.372452 147 122 132 255
-0.499998 -0.337695 -0.427878 147 122 132 255
0.500016 -0.348786 -0.408838 106 88 96 255
0.500016 -0.337695 -0.372452 147 122 132 255
0.500016 -0.348786 -0.389459 106 88 96 255
-0.250000 -0.500010 0.500000 165 121 73 255
-0.250000 -0.500010 -0.500000 165 121 73 255
-0.250000 -0.460010 -0.500000 165 121 73 255
-0.250000 -0.460010 0.500000 165 121 73 255
-0.410000 -0.500010 0.500000 165 121 73 255
-0.410000 -0.460010 0.500000 165 121 73 255
-0.410000 -0.500010 -0.500000 165 121 73 255
-0.410000 -0.460010 -0.500000 165 121 73 255
0.080000 -0.500010 -0.500000 165 121 73 255
-0.080000 -0.500010 -0.500000 165 121 73 255
-0.080000 -0.460010 -0.500000 165 121 73 255
0.080000 -0.460010 -0.500000 165 121 73 255
0.080000 -0.500010 0.500000 165 121 73 255
0.080000 -0.460010 0.500000 165 121 73 255
-0.080000 -0.500010 0.500000 165 121 73 255
-0.080000 -0.460010 0.500000 165 121 73 255
0.410000 -0.500010 -0.500000 165 121 73 255
0.250000 -0.500010 -0.500000 165 121 73 255
0.250000 -0.460010 -0.500000 165 121 73 255
0.410000 -0.460010 -0.500000 165 121 73 255
0.410000 -0.500010 0.500000 165 121 73 255
0.410000 -0.460010 0.500000 165 121 73 255
0.250000 -0.500010 0.500000 165 121 73 255
0.250000 -0.460010 0.500000 165 121 73 255
-0.499998 -0.316293 -0.372452 147 122 132 255
0.500016 -0.316293 -0.372452 147 122 132 255
0.500016 -0.460820 0.450000 119 99 107 255
0.500016 -0.460820 0.350000 106 88 96 255
0.500016 -0.444919 0.354439 147 122 132 255
-0.499998 -0.460820 0.350000 106 88 96 255
-0.499998 -0.460820 0.450000 107 89 97 255
0.500016 -0.316293 -0.427878 147 122 132 255
-0.499998 -0.316293 -0.427878 147 122 132 255
0.500016 -0.460820 -0.350000 106 88 96 255
0.500016 -0.460820 -0.450000 106 88 96 255
0.500016 -0.444919 -0.445561 147 122 132 255
-0.499998 -0.348786 0.410541 106 88 96 255
-0.499998 -0.433710 0.410541 147 122 132 255
-0.499998 -0.316293 0.372122 147 122 132 255
-0.499998 -0.316293 0.427548 147 122 132 255
0.500016 -0.337695 0.372122 147 122 132 255
0.500016 -0.316293 0.427548 147 122 132 255
0.500016 -0.316293 0.372122 147 122 132 255
0.500016 -0.337695 -0.427878 147 122 132 255
-0.499998 -0.460820 -0.450000 106 88 96 255
-0.499998 -0.460820 -0.350000 106 88 96 255
-0.499998 -0.348786 -0.389459 106 88 96 255
-0.499998 -0.433710 -0.389459 147 122 132 255
3 0 1 2
3 3 4 5
3 6 7 8
3 9 10 11
3 12 13 14
3 15 16 17
3 18 19 20
3 21 22 23
4 24 25 26 27
4 28 24 27 29
4 30 28 29 31
4 30 25 24 28
4 29 27 26 31
4 32 33 34 35
4 36 32 35 37
4 38 36 37 39
4 33 38 39 34
4 33 32 36 38
4 39 37 35 34
4 40 41 42 43
4 44 40 43 45
4 46 44 45 47
4 41 46 47 42
4 41 40 44 46
4 47 45 43 42
4 48 19 22 49
4 0 50 51 52
4 53 54 3 5
4 48 49 55 56
4 12 57 58 59
4 60 61 2 11
3 0 52 1
4 61 3 0 2
4 1 52 5 4
4 7 60 11 10
3 3 61 4
4 9 1 4 6
4 6 4 61 60
4 11 2 1 9
4 62 8 7 63
4 64 9 6 8
4 63 65 66 62
3 6 60 7
3 9 64 10
4 65 10 64 66
4 63 7 10 65
4 66 64 8 62
4 67 21 18 20
4 51 53 5 52
4 68 69 15 17
4 23 14 13 21
4 70 71 14 23
3 12 59 13
4 71 15 12 14
4 13 59 17 16
4 19 70 23 22
3 15 71 16
4 21 13 16 18
4 18 16 71 70
4 55 67 20 56
4 68 58 57 69
4 69 57 12 15
4 56 20 19 48
3 18 70 19
3 21 67 22
4 53 51 50 54
4 54 50 0 3
4 49 22 67 55
4 58 68 17 59
4 25 30 31 26
