ply
format ascii 1.0
comment Created by Blender 2.82 (sub 7) - www.blender.org, source file: 'trapmakersworkbench.blend'
element vertex 76
property float x
property float y
property float z
property uchar red
property uchar green
property uchar blue
property uchar alpha
element face 93
property list uchar uint vertex_indices
end_header
-0.077905 0.139884 -0.231072 148 141 145 255
-0.107109 0.222354 -0.352821 148 141 145 255
0.017632 0.139420 -0.346613 148 141 145 255
-0.131978 0.278927 -0.216228 148 141 145 255
0.069860 0.144736 -0.206179 148 141 145 255
-0.022606 0.230957 -0.125598 148 141 145 255
-0.069860 0.364397 -0.322593 148 141 145 255
0.022606 0.278176 -0.403175 148 141 145 255
0.131978 0.230207 -0.312545 148 141 145 255
0.107109 0.286779 -0.175951 148 141 145 255
-0.017632 0.369713 -0.182160 148 141 145 255
0.077905 0.369250 -0.297701 148 141 145 255
0.336528 0.199938 -0.085385 144 132 129 255
0.339443 0.139938 -0.025456 144 132 129 255
0.336528 0.139938 -0.085385 144 132 129 255
0.339443 0.199938 -0.025456 144 132 129 255
-0.459612 0.139938 0.013414 146 134 131 255
-0.462527 0.199938 -0.046515 145 133 130 255
-0.462527 0.139938 -0.046515 144 132 129 255
-0.459612 0.199938 0.013414 144 132 129 255
0.500000 0.140000 -0.500000 158 126 88 255
0.500000 0.060000 0.500000 190 153 108 255
0.500000 0.060000 -0.500000 189 151 105 255
0.500000 0.140000 0.500000 158 126 88 255
-0.500000 0.060000 0.500000 191 155 112 255
-0.500000 0.140000 -0.500000 158 126 88 255
-0.500000 0.060000 -0.500000 190 152 106 255
-0.500000 0.140000 0.500000 163 130 91 255
-0.390000 0.100000 -0.470000 189 151 105 255
-0.390000 -0.500000 -0.390000 191 155 112 255
-0.390000 -0.500000 -0.470000 189 151 105 255
-0.390000 0.100000 -0.390000 189 151 105 255
-0.470000 -0.500000 -0.390000 191 155 113 255
-0.470000 0.100000 -0.390000 189 151 105 255
-0.470000 -0.500000 -0.470000 190 153 109 255
-0.470000 0.100000 -0.470000 163 128 77 255
-0.390000 -0.500000 0.390000 189 151 105 255
-0.390000 0.100000 0.470000 189 151 105 255
-0.390000 -0.500000 0.470000 191 155 112 255
-0.470000 0.100000 0.470000 189 151 105 255
-0.470000 -0.500000 0.470000 191 155 113 255
-0.470000 0.100000 0.390000 163 128 77 255
-0.470000 -0.500000 0.390000 190 153 109 255
0.470000 0.100000 -0.470000 189 151 105 255
0.470000 -0.500000 -0.390000 191 155 112 255
0.470000 -0.500000 -0.470000 189 151 105 255
0.470000 0.100000 -0.390000 189 151 105 255
0.390000 -0.500000 -0.390000 191 155 113 255
0.390000 0.100000 -0.390000 189 151 105 255
0.390000 -0.500000 -0.470000 190 153 109 255
0.390000 0.100000 -0.470000 163 128 77 255
0.470000 -0.500000 0.390000 189 151 105 255
0.470000 0.100000 0.470000 189 151 105 255
0.470000 -0.500000 0.470000 191 155 112 255
0.390000 -0.500000 0.470000 191 155 113 255
0.390000 0.100000 0.470000 189 151 105 255
0.390000 -0.500000 0.390000 190 153 109 255
0.390000 0.100000 0.390000 163 128 77 255
0.367203 0.139938 0.102315 144 132 129 255
0.387175 0.199938 0.158894 144 132 129 255
0.387175 0.139938 0.158894 144 132 129 255
-0.367203 0.139938 0.425188 146 134 131 255
-0.367203 0.199938 0.425188 144 132 129 255
-0.387175 0.139938 0.368610 144 132 129 255
0.367203 0.199938 0.102315 144 132 129 255
-0.387175 0.199938 0.368610 145 133 130 255
0.344656 0.199938 0.008868 144 132 129 255
0.356386 0.139938 0.067710 144 132 129 255
0.344656 0.139938 0.008868 144 132 129 255
-0.428177 0.199938 0.224113 144 132 129 255
-0.428177 0.139938 0.224113 146 134 131 255
-0.439907 0.199938 0.165270 145 133 130 255
-0.439907 0.139938 0.165270 144 132 129 255
0.356386 0.199938 0.067710 144 132 129 255
-0.390000 0.100000 0.390000 189 151 105 255
0.470000 0.100000 0.390000 189 151 105 255
3 0 1 2
3 1 0 3
3 0 4 5
3 0 5 3
3 1 3 6
3 2 1 7
3 4 2 8
3 5 4 9
3 3 5 10
3 1 6 7
3 2 7 8
3 4 8 9
3 5 9 10
3 3 10 6
3 7 6 11
3 8 7 11
3 9 8 11
3 10 9 11
3 6 10 11
3 12 13 14
3 15 16 13
3 16 17 18
3 17 14 18
3 19 12 17
3 20 21 22
3 23 24 21
3 24 25 26
3 26 20 22
3 21 26 22
3 23 25 27
3 28 29 30
3 31 32 29
3 33 34 32
3 35 30 34
3 36 37 38
3 38 39 40
3 40 41 42
3 41 36 42
3 43 44 45
3 46 47 44
3 48 49 47
3 50 45 49
3 51 52 53
3 52 54 53
3 55 56 54
3 57 51 56
3 58 59 60
3 59 61 60
3 62 63 61
3 63 64 58
3 59 65 62
3 66 67 68
3 67 69 70
3 70 71 72
3 71 68 72
3 73 71 69
3 12 15 13
3 15 19 16
3 16 19 17
3 17 12 14
3 19 15 12
3 20 23 21
3 23 27 24
3 24 27 25
3 26 25 20
3 21 24 26
3 23 20 25
3 28 31 29
3 31 33 32
3 33 35 34
3 35 28 30
3 36 74 37
3 38 37 39
3 40 39 41
3 41 74 36
3 43 46 44
3 46 48 47
3 48 50 49
3 50 43 45
3 51 75 52
3 52 55 54
3 55 57 56
3 57 75 51
3 58 64 59
3 59 62 61
3 62 65 63
3 63 65 64
3 59 64 65
3 66 73 67
3 67 73 69
3 70 69 71
3 71 66 68
3 73 66 71
