ply
format ascii 1.0
comment Created in Blender version 4.1.1
element vertex 180
property float x
property float y
property float z
property uchar red
property uchar green
property uchar blue
property uchar alpha
element face 248
property list uchar uint vertex_indices
end_header
0.28448147 0.53032327 -0.24500863 165 156 165 255
0.28494832 0.69986594 -0.24454176 165 156 165 255
0.3122306 0.53032327 -0.24500863 165 156 165 255
0.31176373 0.69986594 -0.24454176 165 156 165 255
0.28448147 0.53032327 -0.21725948 165 156 165 255
0.28494832 0.69986594 -0.21772635 165 156 165 255
0.3122306 0.53032327 -0.21725948 165 156 165 255
0.31176373 0.69986594 -0.21772635 165 156 165 255
0.3023426 0.49641553 -0.23512062 165 156 165 255
0.29436946 0.49641553 -0.23512062 165 156 165 255
0.3023426 0.49641553 -0.22714749 165 156 165 255
0.29436946 0.49641553 -0.22714749 165 156 165 255
0.2607668 0.6936166 -0.26872328 120 78 43 255
0.27616 0.8471979 -0.25333008 148 97 53 255
0.33594525 0.6936166 -0.26872328 120 78 43 255
0.32055205 0.8471979 -0.25333008 148 97 52 255
0.2607668 0.6936166 -0.19354482 121 79 43 255
0.27616 0.8471979 -0.20893802 148 97 52 255
0.33594525 0.6936166 -0.19354482 127 83 45 255
0.32055205 0.8471979 -0.20893802 148 97 52 255
-0.45000005 -0.5004949 -0.45593712 119 55 42 255
-0.42557776 -0.19245553 -0.45593706 119 55 42 255
0.4499999 -0.5004949 -0.45593718 119 55 42 255
0.40989858 -0.19245553 -0.45593712 119 55 42 255
-0.45000005 -0.5004949 -0.41593713 119 55 42 255
-0.4255777 -0.19245553 -0.41593707 119 55 42 255
0.4499999 -0.5004949 -0.41593713 119 55 42 255
0.40989858 -0.19245553 -0.41593716 119 55 42 255
-0.30191952 -0.18655825 -0.45593715 119 55 42 255
0.2959878 -0.18655825 -0.45593715 119 55 42 255
0.2959878 -0.18655825 -0.41593716 119 55 42 255
-0.30191952 -0.18655825 -0.4159371 119 55 42 255
-0.28488386 0.31075382 -0.4559371 149 70 52 255
0.2671012 0.31075382 -0.45593715 149 70 52 255
0.26710123 0.31075382 -0.4159371 149 70 52 255
-0.28488386 0.31075382 -0.4159371 149 70 52 255
-0.45 -0.5004949 0.40847716 119 55 42 255
-0.4255777 -0.19245553 0.40847722 119 55 42 255
0.44999996 -0.5004949 0.4084771 119 55 42 255
0.40989864 -0.19245553 0.4084771 119 55 42 255
-0.45 -0.5004949 0.44847724 119 55 42 255
-0.42557764 -0.19245553 0.44847724 119 55 42 255
0.44999996 -0.5004949 0.44847718 119 55 42 255
0.40989864 -0.19245553 0.44847718 119 55 42 255
-0.30191946 -0.18655825 0.4084772 119 55 42 255
0.29598787 -0.18655825 0.40847713 119 55 42 255
0.2959879 -0.18655825 0.4484772 119 55 42 255
-0.30191946 -0.18655825 0.4484772 119 55 42 255
-0.28488386 0.31075382 0.4084772 147 69 52 255
0.26710123 0.31075382 0.40847713 119 55 42 255
0.26710123 0.31075382 0.4484772 149 70 52 255
-0.28488386 0.31075382 0.4484772 149 70 52 255
-0.27790928 0.21488684 -0.41940194 149 70 52 255
-0.27790928 0.31067085 -0.41940194 149 70 52 255
0.26384413 0.21488684 -0.41940194 149 70 52 255
0.26384413 0.31067085 -0.41940194 149 70 52 255
-0.27790922 0.21488684 0.41940194 142 66 50 255
-0.27790922 0.31067085 0.41940194 148 70 52 255
0.26384422 0.21488684 0.41940194 149 70 52 255
0.26384422 0.31067085 0.41940194 119 55 42 255
-0.42757607 0.3097218 -0.49999997 90 43 31 255
-0.42757607 0.34397918 -0.49999997 90 43 31 255
0.40593645 0.3097218 -0.5 90 43 31 255
0.40593645 0.34397918 -0.5 91 43 31 255
-0.427576 0.3097218 0.5 90 43 31 255
-0.427576 0.34397918 0.5 91 43 31 255
0.40593645 0.3097218 0.49999997 96 47 34 255
0.40593645 0.34397918 0.49999997 91 43 31 255
0.3468542 0.33858588 -0.46000007 178 136 106 255
0.3468542 1.0543988 -0.46000007 164 102 78 255
0.3868542 0.33858588 -0.46000007 149 70 52 255
0.3868542 1.0543988 -0.46000007 149 70 52 255
0.3468542 0.33858588 0.46 178 136 106 255
0.3468542 1.0543988 0.46 164 102 78 255
0.3868542 0.33858588 0.46 149 70 52 255
0.3868542 1.0543988 0.46 149 70 52 255
-0.0014363909 0.33680934 0.4912774 149 70 52 255
-0.0014363909 0.9868333 0.4912774 149 70 52 255
-0.0014364225 0.33680934 0.45127743 149 70 52 255
-0.0014364225 0.9868333 0.45127743 149 70 52 255
0.39856362 0.33680934 0.49127737 149 70 52 255
0.39856362 1.1326222 0.49127737 149 70 52 255
0.39856362 0.33680934 0.45127735 149 70 52 255
0.39856362 1.1326222 0.45127735 149 70 52 255
-0.0014364022 0.33680934 -0.45127732 149 70 52 255
-0.0014364022 0.9868333 -0.45127732 149 70 52 255
-0.001436404 0.33680934 -0.49127734 149 70 52 255
-0.001436404 0.9868333 -0.49127734 149 70 52 255
0.39856356 0.33680934 -0.45127735 149 70 52 255
0.39856356 1.1326222 -0.45127735 149 70 52 255
0.39856356 0.33680934 -0.49127737 149 70 52 255
0.39856356 1.1326222 -0.49127737 149 70 52 255
0.3511598 0.6643483 -0.28581712 189 138 100 255
0.25239223 0.6643483 -0.28581712 189 138 100 255
0.3511598 0.6939508 -0.28581712 189 138 100 255
0.25239223 0.6939508 -0.28581712 189 138 100 255
0.3511598 0.6643483 -0.25621465 189 138 100 255
0.25239223 0.6643483 -0.25621462 189 138 100 255
0.3511598 0.6939508 -0.25621465 189 138 100 255
0.25239223 0.6939508 -0.25621462 189 138 100 255
0.35115987 0.6643483 -0.20308457 189 138 100 255
0.25239223 0.6643483 -0.20308457 189 138 100 255
0.35115987 0.6939508 -0.20308457 189 138 100 255
0.25239223 0.6939508 -0.20308457 189 138 100 255
0.3511598 0.6643483 -0.17348213 189 138 100 255
0.25239223 0.6643483 -0.17348213 189 138 100 255
0.3511598 0.6939508 -0.17348213 189 138 100 255
0.25239223 0.6939508 -0.17348213 189 138 100 255
0.3511598 0.6643483 0.09194487 189 138 100 255
0.25239223 0.6643483 0.09194491 189 138 100 255
0.3511598 0.6939508 0.09194487 189 138 100 255
0.25239223 0.6939508 0.09194491 189 138 100 255
0.3511598 0.6643483 0.12154734 189 138 100 255
0.25239223 0.6643483 0.12154735 189 138 100 255
0.3511598 0.6939508 0.12154734 189 138 100 255
0.25239223 0.6939508 0.12154735 189 138 100 255
0.3511598 0.6643483 0.1782625 189 138 100 255
0.25239223 0.6643483 0.1782625 189 138 100 255
0.3511598 0.6939508 0.1782625 189 138 100 255
0.25239223 0.6939508 0.1782625 189 138 100 255
0.3511598 0.6643483 0.20786491 189 138 100 255
0.25239223 0.6643483 0.20786491 189 138 100 255
0.3511598 0.6939508 0.20786491 189 138 100 255
0.25239223 0.6939508 0.20786491 189 138 100 255
-0.22956374 0.40265352 0.16346169 147 141 144 255
-0.11171254 0.48936918 0.13077082 147 141 144 255
-0.108515374 0.40108755 0.25190383 147 141 144 255
-0.24564435 0.4005974 0.31250775 147 141 144 255
-0.33359036 0.48857763 0.22882724 147 141 144 255
-0.25081536 0.5434406 0.116508834 147 141 144 255
-0.054956067 0.5409066 0.25961334 147 141 144 255
-0.13773103 0.48604366 0.37193167 147 141 144 255
-0.27683377 0.54011506 0.3576697 147 141 144 255
-0.28003094 0.6283967 0.23653677 147 141 144 255
-0.142902 0.6288868 0.17593281 147 141 144 255
-0.15898265 0.62683076 0.32497883 147 141 144 255
0.04498549 0.34215868 0.4000138 143 131 128 255
0.04498549 0.40215865 0.4000138 143 131 128 255
-0.014663172 0.34215868 0.40649754 143 131 128 255
-0.014663172 0.40215865 0.40649748 143 131 128 255
-0.04146423 0.34215873 -0.39530164 143 131 128 255
-0.04146417 0.40215874 -0.39530164 144 132 129 255
-0.10111289 0.34215876 -0.38881794 145 133 130 255
-0.10111283 0.40215874 -0.3888179 143 131 128 255
-0.14055161 0.34215868 0.44182748 143 131 128 255
-0.14055155 0.40215868 0.44182754 143 131 128 255
-0.19583832 0.34215868 0.46513796 143 131 128 255
-0.19583832 0.40215868 0.46513796 143 131 128 255
-0.45135733 0.3421588 -0.2953292 143 131 128 255
-0.45135728 0.40215874 -0.2953292 144 132 129 255
-0.506644 0.34215873 -0.27201882 145 133 130 255
-0.506644 0.40215874 -0.27201876 143 131 128 255
-0.048615407 0.34215865 0.41374737 143 131 128 255
-0.048615407 0.40215868 0.41374737 143 131 128 255
-0.10665343 0.34215868 0.4289655 143 131 128 255
-0.10665337 0.40215868 0.4289655 143 131 128 255
-0.2515242 0.34215868 -0.36009252 143 131 128 255
-0.25152415 0.40215874 -0.36009246 144 132 129 255
-0.3095622 0.34215873 -0.34487438 145 133 130 255
-0.30956215 0.4021588 -0.34487435 143 131 128 255
0.09877613 0.49437988 -0.32212585 157 119 95 255
0.22453718 0.48781055 -0.32214224 157 119 95 255
0.092206776 0.36861888 -0.32222766 122 93 74 255
0.21796782 0.36204955 -0.32224405 122 93 74 255
0.086477585 0.5079015 -0.13699308 157 119 95 255
0.23822576 0.49997467 -0.13701288 157 119 95 255
0.07855076 0.35615337 -0.13711593 122 93 74 255
0.23029894 0.34822655 -0.13713573 122 93 74 255
0.21663947 0.3632567 0.051267955 122 93 74 255
0.09375088 0.369676 0.051284026 122 93 74 255
0.100170165 0.49256456 0.051383507 157 119 95 255
0.22305876 0.4861453 0.051367465 157 119 95 255
-0.33845273 0.49115074 -0.17204611 181 138 111 255
0.09009569 0.46876484 -0.172102 181 138 111 255
-0.34213153 0.42072454 -0.1721031 157 119 95 255
0.08641688 0.39833865 -0.172159 157 119 95 255
-0.33844653 0.49109334 -0.10152389 181 138 111 255
0.090101905 0.46870744 -0.10157979 181 138 111 255
-0.3421254 0.4206671 -0.1015809 157 119 95 255
0.08642308 0.39828122 -0.101636805 157 119 95 255
3 1 2 0
3 3 6 2
3 7 4 6
3 5 0 4
3 6 8 2
3 10 9 8
3 2 9 0
3 4 10 6
3 0 11 4
3 13 14 12
3 15 18 14
3 19 16 18
3 17 12 16
3 18 12 14
3 15 17 19
3 20 23 22
3 23 26 22
3 27 24 26
3 25 20 24
3 26 20 22
3 23 28 29
3 29 34 30
3 25 28 21
3 23 30 27
3 27 31 25
3 31 34 35
3 28 33 29
3 31 32 28
3 36 39 38
3 39 42 38
3 43 40 42
3 41 36 40
3 42 36 38
3 39 44 45
3 45 50 46
3 41 44 37
3 43 45 46
3 43 47 41
3 47 50 51
3 44 49 45
3 47 48 44
3 55 58 54
3 57 52 56
3 54 56 52
3 61 62 60
3 63 66 62
3 67 64 66
3 65 60 64
3 66 60 62
3 63 65 67
3 71 74 70
3 73 68 72
3 71 73 75
3 77 78 76
3 79 82 78
3 83 80 82
3 80 77 76
3 83 77 81
3 85 86 84
3 87 90 86
3 91 88 90
3 88 85 84
3 87 89 91
3 93 94 92
3 95 98 94
3 99 96 98
3 97 92 96
3 95 97 99
3 101 102 100
3 103 106 102
3 107 104 106
3 104 101 100
3 103 105 107
3 109 110 108
3 111 114 110
3 115 112 114
3 112 109 108
3 111 113 115
3 117 118 116
3 119 122 118
3 123 120 122
3 121 116 120
3 119 121 123
3 124 125 126
3 125 124 129
3 124 126 127
3 124 127 128
3 124 128 129
3 125 129 134
3 126 125 130
3 127 126 131
3 128 127 132
3 129 128 133
3 125 134 130
3 126 130 131
3 127 131 132
3 128 132 133
3 129 133 134
3 130 134 135
3 131 130 135
3 132 131 135
3 133 132 135
3 134 133 135
3 137 138 136
3 139 142 138
3 143 140 142
3 141 136 140
3 139 141 143
3 145 146 144
3 146 151 150
3 151 148 150
3 149 144 148
3 150 144 146
3 151 145 149
3 153 154 152
3 155 158 154
3 159 156 158
3 157 152 156
3 155 157 159
3 161 162 160
3 163 166 162
3 167 171 168
3 165 160 164
3 166 160 162
3 167 161 165
3 169 171 170
3 167 169 166
3 164 171 165
3 166 170 164
3 173 174 172
3 174 179 178
3 179 176 178
3 177 172 176
3 174 176 172
3 1 3 2
3 3 7 6
3 7 5 4
3 5 1 0
3 6 10 8
3 10 11 9
3 2 8 9
3 4 11 10
3 0 9 11
3 13 15 14
3 15 19 18
3 19 17 16
3 17 13 12
3 18 16 12
3 15 13 17
3 20 21 23
3 23 27 26
3 27 25 24
3 25 21 20
3 26 24 20
3 23 21 28
3 29 33 34
3 25 31 28
3 23 29 30
3 27 30 31
3 31 30 34
3 28 32 33
3 31 35 32
3 36 37 39
3 39 43 42
3 43 41 40
3 41 37 36
3 42 40 36
3 39 37 44
3 45 49 50
3 41 47 44
3 43 39 45
3 43 46 47
3 47 46 50
3 44 48 49
3 47 51 48
3 55 59 58
3 57 53 52
3 54 58 56
3 61 63 62
3 63 67 66
3 67 65 64
3 65 61 60
3 66 64 60
3 63 61 65
3 71 75 74
3 73 69 68
3 71 69 73
3 77 79 78
3 79 83 82
3 83 81 80
3 80 81 77
3 83 79 77
3 85 87 86
3 87 91 90
3 91 89 88
3 88 89 85
3 87 85 89
3 93 95 94
3 95 99 98
3 99 97 96
3 97 93 92
3 95 93 97
3 101 103 102
3 103 107 106
3 107 105 104
3 104 105 101
3 103 101 105
3 109 111 110
3 111 115 114
3 115 113 112
3 112 113 109
3 111 109 113
3 117 119 118
3 119 123 122
3 123 121 120
3 121 117 116
3 119 117 121
3 137 139 138
3 139 143 142
3 143 141 140
3 141 137 136
3 139 137 141
3 145 147 146
3 146 147 151
3 151 149 148
3 149 145 144
3 150 148 144
3 151 147 145
3 153 155 154
3 155 159 158
3 159 157 156
3 157 153 152
3 155 153 157
3 161 163 162
3 163 167 166
3 167 165 171
3 165 161 160
3 166 164 160
3 167 163 161
3 169 168 171
3 167 168 169
3 164 170 171
3 166 169 170
3 173 175 174
3 174 175 179
3 179 177 176
3 177 173 172
3 174 178 176
