ply
format ascii 1.0
comment Created by Blender 2.82 (sub 7) - www.blender.org, source file: 'SanctifiedFailsafe.blend'
element vertex 48
property float x
property float y
property float z
property uchar red
property uchar green
property uchar blue
property uchar alpha
element face 40
property list uchar uint vertex_indices
end_header
-0.379979 -0.500000 -0.379979 78 22 9 255
-0.047406 0.500000 -0.047406 78 22 9 255
0.047406 0.500000 -0.047406 78 22 9 255
0.379979 -0.500000 -0.379979 78 22 9 255
0.047406 0.500000 0.047406 78 22 9 255
0.379979 -0.500000 0.379979 78 22 9 255
-0.379979 -0.500000 0.379979 78 22 10 255
-0.047406 0.500000 0.047406 78 22 9 255
-0.050110 -0.505022 -0.487005 210 157 81 255
-0.050110 0.639306 -0.103934 209 154 71 255
0.049890 0.639306 -0.103934 200 148 68 255
0.049890 -0.505022 -0.487005 199 147 68 255
0.049890 0.638387 0.000557 209 154 71 255
0.049890 -0.506582 -0.379870 208 153 71 255
-0.050110 0.638387 0.000557 209 154 71 255
-0.050110 -0.506582 -0.379870 209 154 71 255
-0.050110 -0.506691 0.380722 209 154 71 255
0.049890 -0.506691 0.380722 209 154 71 255
0.049890 0.639698 0.105048 209 154 71 255
0.049890 -0.505022 0.488250 209 154 71 255
-0.050110 0.639698 0.105048 209 154 71 255
-0.050110 -0.505022 0.488250 208 155 75 255
0.486895 -0.505022 -0.050000 179 133 61 255
0.106523 0.636428 -0.050000 205 151 70 255
0.106523 0.636428 0.050000 204 150 73 255
0.486895 -0.505022 0.050000 175 129 60 255
-0.000829 0.645520 0.050000 209 154 71 255
0.379564 -0.509512 0.050000 209 154 71 255
-0.000829 0.645520 -0.050000 209 154 71 255
0.379564 -0.509512 -0.050000 209 154 71 255
-0.383383 -0.504652 -0.050000 210 159 87 255
-0.383383 -0.504652 0.050000 186 137 64 255
-0.104683 0.638037 0.050000 209 154 71 255
-0.488360 -0.505022 0.050000 205 153 79 255
-0.104683 0.638037 -0.050000 209 154 71 255
-0.488360 -0.505022 -0.050000 209 154 71 255
0.000000 0.527104 0.000000 209 154 71 255
-0.145208 0.638033 -0.105498 209 154 71 255
0.055463 0.638033 -0.170701 209 154 71 255
-0.145208 0.638033 0.105498 209 154 71 255
0.179488 0.638033 0.000000 209 154 71 255
0.055463 0.638033 0.170701 209 154 71 255
-0.179488 0.817522 0.000000 231 167 82 255
-0.055463 0.817522 -0.170701 231 167 82 255
0.145208 0.817522 -0.105498 231 167 82 255
0.145208 0.817522 0.105498 231 167 82 255
-0.055463 0.817522 0.170701 231 167 82 255
0.000000 0.928451 0.000000 231 167 82 255
4 0 1 2 3
4 3 2 4 5
4 6 7 1 0
4 5 4 7 6
4 8 9 10 11
4 11 10 12 13
4 13 12 14 15
4 15 14 9 8
4 16 14 12 17
4 17 12 18 19
4 19 18 20 21
4 21 20 14 16
4 22 23 24 25
4 25 24 26 27
4 27 26 28 29
4 29 28 23 22
4 30 28 26 31
4 31 26 32 33
4 33 32 34 35
4 35 34 28 30
3 36 37 38
3 37 36 39
3 36 38 40
3 36 40 41
3 36 41 39
3 37 39 42
3 38 37 43
3 40 38 44
3 41 40 45
3 39 41 46
3 37 42 43
3 38 43 44
3 40 44 45
3 41 45 46
3 39 46 42
3 43 42 47
3 44 43 47
3 45 44 47
3 46 45 47
3 42 46 47
