ply
format ascii 1.0
comment Created by Blender 2.82 (sub 7) - www.blender.org, source file: 'firepit.blend'
element vertex 44
property float x
property float y
property float z
property uchar red
property uchar green
property uchar blue
property uchar alpha
element face 66
property list uchar uint vertex_indices
end_header
0.200000 0.110290 -0.200000 128 128 128 255
0.200000 0.090290 0.200000 121 121 121 255
0.200000 0.090290 -0.200000 121 121 121 255
0.200000 0.110290 0.200000 121 121 121 255
-0.200000 0.090290 0.200000 123 123 123 255
-0.200000 0.110290 0.200000 121 121 121 255
-0.200000 0.090290 -0.200000 121 121 121 255
-0.200000 0.110290 -0.200000 147 147 147 255
0.139888 0.110290 0.139888 124 124 124 255
-0.139888 0.110290 -0.139888 121 121 121 255
0.114037 0.095807 -0.114037 165 165 165 255
0.139888 0.110290 -0.139888 121 121 121 255
-0.139888 0.110290 0.139888 121 121 121 255
0.114037 0.095807 0.114037 182 182 182 255
-0.114037 0.095807 -0.114037 165 165 165 255
-0.114037 0.095807 0.114037 165 165 165 255
0.450000 -0.327813 -0.450000 151 151 151 255
0.450000 -0.500000 0.450000 122 122 122 255
0.450000 -0.500000 -0.450000 122 122 122 255
0.450000 -0.327813 0.450000 151 151 151 255
-0.450000 -0.500000 0.450000 123 123 123 255
-0.450000 -0.327813 0.450000 151 151 151 255
-0.450000 -0.500000 -0.450000 122 122 122 255
-0.450000 -0.327813 -0.450000 151 151 151 255
-0.292733 -0.327813 -0.292733 151 151 151 255
0.292733 -0.327813 -0.292733 151 151 151 255
0.292733 -0.403952 0.292733 122 122 122 255
0.292733 -0.327813 0.292733 151 151 151 255
-0.292733 -0.327813 0.292733 151 151 151 255
0.292733 -0.403952 -0.292733 151 151 151 255
-0.292733 -0.403952 0.292733 136 136 136 255
-0.292733 -0.403952 -0.292733 151 151 151 255
0.291970 -0.397322 0.319433 49 49 49 255
-0.291970 -0.397322 -0.319433 49 49 49 255
-0.291970 -0.397322 0.319433 49 49 49 255
0.194520 0.165155 -0.020000 120 120 120 255
0.194520 -0.434845 0.020000 131 131 131 255
0.194520 -0.434845 -0.020000 122 122 122 255
0.194520 0.165155 0.020000 128 128 128 255
0.154520 -0.434845 0.020000 121 121 121 255
0.154520 0.165155 0.020000 121 121 121 255
0.154520 -0.434845 -0.020000 119 119 119 255
0.154520 0.165155 -0.020000 121 121 121 255
0.291970 -0.397322 -0.319433 52 52 52 255
3 0 1 2
3 3 4 1
3 5 6 4
3 7 2 6
3 4 2 1
3 0 8 3
3 9 10 11
3 7 11 0
3 3 12 5
3 5 9 7
3 13 14 15
3 8 15 12
3 12 14 9
3 11 13 8
3 16 17 18
3 19 20 17
3 21 22 20
3 23 18 22
3 20 18 17
3 21 24 23
3 25 26 27
3 16 27 19
3 23 25 16
3 19 28 21
3 24 29 25
3 27 30 28
3 28 31 24
3 32 33 34
3 35 36 37
3 38 39 36
3 40 41 39
3 42 37 41
3 38 42 40
3 0 3 1
3 3 5 4
3 5 7 6
3 7 0 2
3 4 6 2
3 0 11 8
3 9 14 10
3 7 9 11
3 3 8 12
3 5 12 9
3 13 10 14
3 8 13 15
3 12 15 14
3 11 10 13
3 16 19 17
3 19 21 20
3 21 23 22
3 23 16 18
3 20 22 18
3 21 28 24
3 25 29 26
3 16 25 27
3 23 24 25
3 19 27 28
3 24 31 29
3 27 26 30
3 28 30 31
3 32 43 33
3 35 38 36
3 38 40 39
3 40 42 41
3 42 35 37
3 38 35 42
