ply
format ascii 1.0
comment Created by Blender 2.78 (sub 0) - www.blender.org, source file: ''
element vertex 56
property float x
property float y
property float z
property uchar red
property uchar green
property uchar blue
element face 31
property list uchar uint vertex_indices
end_header
-0.417219 0.455476 -0.149121 138 88 40
-0.417219 0.495476 -0.149121 138 88 40
0.422781 0.495476 -0.149121 138 88 40
0.422781 0.455476 -0.149121 138 88 40
-0.417219 0.495476 -0.109121 138 88 40
-0.417219 0.455476 -0.109121 138 88 40
0.422781 0.455476 -0.109121 138 88 40
0.422781 0.495476 -0.109121 138 88 40
-0.490000 0.500000 0.490000 133 133 133
0.490000 0.500000 0.490000 133 133 133
0.411042 0.500000 0.411043 133 133 133
-0.411043 0.500000 0.411042 133 133 133
0.490000 -0.500000 -0.490000 133 133 133
0.490000 0.500000 -0.490000 133 133 133
0.490000 -0.500000 0.490000 133 133 133
-0.490000 -0.500000 0.490000 133 133 133
-0.490000 0.500000 -0.490000 133 133 133
-0.490000 -0.500000 -0.490000 133 133 133
0.411042 0.280966 0.411043 132 134 134
-0.411043 0.280966 0.411042 132 133 133
0.411043 0.500000 -0.411042 133 133 133
-0.411043 0.500000 -0.411043 133 133 133
0.411043 0.280966 -0.411042 131 134 134
-0.411043 0.280966 -0.411043 132 134 134
0.411042 0.262329 0.411043 78 174 170
-0.411043 0.262329 0.411042 71 179 174
0.411043 0.262329 -0.411042 90 165 161
-0.411043 0.262329 -0.411043 79 174 170
-0.417219 0.455476 0.128240 138 88 40
-0.417219 0.495476 0.128240 138 88 40
0.422781 0.495476 0.128240 138 88 40
0.422781 0.455476 0.128240 138 88 40
0.422781 0.455476 0.168240 138 88 40
0.422781 0.495476 0.168240 138 88 40
-0.417219 0.495476 0.168240 138 88 40
-0.417219 0.455476 0.168240 138 88 40
-0.155804 0.447542 0.429595 138 88 40
-0.155804 0.487542 0.429595 138 88 40
-0.155994 0.487542 -0.410405 138 88 40
-0.155994 0.447542 -0.410405 138 88 40
-0.115994 0.487542 -0.410414 138 88 40
-0.115994 0.447542 -0.410414 138 88 40
-0.115804 0.487542 0.429586 138 88 40
-0.115804 0.447542 0.429586 138 88 40
-0.155994 0.487542 -0.419820 138 88 40
-0.115994 0.487542 -0.419829 138 88 40
0.121557 0.447542 0.429533 138 88 40
0.121557 0.487542 0.429533 138 88 40
0.121367 0.487542 -0.410468 138 88 40
0.121367 0.447542 -0.410468 138 88 40
0.161367 0.487542 -0.410477 138 88 40
0.161367 0.447542 -0.410477 138 88 40
0.161557 0.487542 0.429523 138 88 40
0.161557 0.447542 0.429523 138 88 40
0.121367 0.487542 -0.419883 138 88 40
0.161367 0.487542 -0.419892 138 88 40
4 0 1 2 3
4 4 5 6 7
4 2 1 4 7
4 8 9 10 11
4 12 13 9 14
4 14 9 8 15
4 15 8 16 17
4 13 12 17 16
4 11 10 18 19
4 9 13 20 10
4 16 8 11 21
4 13 16 21 20
4 10 20 22 18
4 21 11 19 23
4 20 21 23 22
4 19 18 24 25
4 26 27 25 24
4 18 22 26 24
4 23 19 25 27
4 22 23 27 26
4 28 29 30 31
4 32 33 34 35
4 30 29 34 33
4 36 37 38 39
4 39 38 40 41
4 41 40 42 43
4 44 37 42 45
4 46 47 48 49
4 49 48 50 51
4 51 50 52 53
4 54 47 52 55
