ply
format ascii 1.0
comment Created by Blender 2.82 (sub 7) - www.blender.org, source file: 'fisherman.blend'
element vertex 40
property float x
property float y
property float z
property uchar red
property uchar green
property uchar blue
property uchar alpha
element face 60
property list uchar uint vertex_indices
end_header
1.194970 -0.131617 0.384662 176 148 134 255
1.194970 -0.504482 0.394662 177 148 134 255
1.194970 -0.504482 0.384662 177 148 134 255
1.194970 -0.131617 0.394662 177 148 134 255
1.184970 -0.504482 0.394662 177 148 134 255
1.184970 -0.131617 0.394662 177 148 134 255
1.184970 -0.504482 0.384662 176 149 133 255
1.184970 -0.131617 0.384662 176 148 133 255
-0.040203 -0.357434 0.419129 114 79 69 255
-0.038483 -0.365523 0.367399 163 116 88 255
-0.040203 -0.357434 0.359129 114 79 69 255
-0.418987 -0.499287 0.419129 114 79 69 255
-0.027728 -0.416123 0.419129 115 80 70 255
-0.431462 -0.440598 0.419129 114 79 69 255
-0.418987 -0.499287 0.359129 114 79 69 255
-0.027728 -0.416123 0.359129 114 79 69 255
-0.431462 -0.440598 0.359129 114 80 70 255
-0.029448 -0.408033 0.410859 163 116 88 255
0.415307 -0.269067 0.410859 163 116 88 255
-0.038483 -0.365523 0.410859 163 116 88 255
-0.029448 -0.408033 0.367399 163 116 88 255
0.415307 -0.269067 0.367399 163 116 88 255
0.422975 -0.305141 0.373979 177 138 98 255
0.424343 -0.311577 0.367399 163 116 88 255
0.424343 -0.311577 0.410859 154 117 95 255
0.416675 -0.275503 0.404280 177 138 98 255
1.193599 -0.110363 0.373979 177 138 98 255
0.416675 -0.275503 0.373979 174 133 96 255
0.422975 -0.305141 0.404280 177 138 98 255
1.199899 -0.140001 0.404280 180 142 105 255
1.199899 -0.140001 0.373979 177 138 98 255
1.193599 -0.110363 0.404280 177 138 98 255
0.404637 -0.314551 0.375982 138 113 83 255
0.404637 -0.499151 0.395982 138 113 83 255
0.404637 -0.499151 0.375982 138 113 83 255
0.404637 -0.314551 0.395982 138 113 83 255
0.384637 -0.499151 0.395982 138 113 83 255
0.384637 -0.314551 0.395982 138 113 83 255
0.384637 -0.499151 0.375982 138 113 83 255
0.384637 -0.314551 0.375982 141 118 90 255
3 0 1 2
3 3 4 1
3 5 6 4
3 7 2 6
3 3 5 4
3 0 3 1
3 8 9 10
3 8 11 12
3 13 14 11
3 14 10 15
3 11 15 12
3 8 16 13
3 17 18 19
3 15 17 12
3 12 19 8
3 10 20 15
3 21 22 23
3 20 21 23
3 19 21 9
3 20 24 17
3 25 26 27
3 21 25 27
3 23 28 24
3 18 28 25
3 26 29 30
3 22 29 28
3 28 31 25
3 22 26 30
3 32 33 34
3 35 36 33
3 37 38 36
3 39 34 38
3 5 7 6
3 7 0 2
3 8 19 9
3 8 13 11
3 13 16 14
3 14 16 10
3 11 14 15
3 8 10 16
3 17 24 18
3 15 20 17
3 12 17 19
3 10 9 20
3 21 27 22
3 20 9 21
3 19 18 21
3 20 23 24
3 25 31 26
3 21 18 25
3 23 22 28
3 18 24 28
3 26 31 29
3 22 30 29
3 28 29 31
3 22 27 26
3 32 35 33
3 35 37 36
3 37 39 38
3 39 32 34
