ply
format ascii 1.0
comment Created by Blender 2.78 (sub 0) - www.blender.org, source file: 'flaxstage2.blend'
element vertex 48
property float x
property float y
property float z
property uchar red
property uchar green
property uchar blue
element face 54
property list uchar uint vertex_indices
end_header
0.230000 0.020000 -0.130000 0 255 0
0.330000 0.020000 -0.230000 0 255 0
0.230000 0.020000 -0.230000 0 255 0
0.260000 -0.500000 -0.200000 255 0 0
0.300000 0.000000 -0.200000 255 0 0
0.300000 -0.500000 -0.200000 255 0 0
0.300000 0.000000 -0.160000 255 0 0
0.300000 -0.500000 -0.160000 255 0 0
0.260000 0.000000 -0.160000 255 0 0
0.260000 -0.500000 -0.160000 255 0 0
0.260000 0.000000 -0.200000 255 0 0
0.230000 0.000000 -0.130000 0 255 0
0.230000 0.000000 -0.230000 0 255 0
0.330000 0.000000 -0.130000 0 255 0
0.330000 0.000000 -0.230000 0 255 0
0.330000 0.020000 -0.130000 0 255 0
-0.300000 0.020000 -0.200000 0 255 0
-0.200000 0.020000 -0.300000 0 255 0
-0.300000 0.020000 -0.300000 0 255 0
-0.270000 -0.500000 -0.270000 255 0 0
-0.230000 0.000000 -0.270000 255 0 0
-0.230000 -0.500000 -0.270000 255 0 0
-0.230000 0.000000 -0.230000 255 0 0
-0.230000 -0.500000 -0.230000 255 0 0
-0.270000 0.000000 -0.230000 255 0 0
-0.270000 -0.500000 -0.230000 255 0 0
-0.270000 0.000000 -0.270000 255 0 0
-0.300000 0.000000 -0.200000 0 255 0
-0.300000 0.000000 -0.300000 0 255 0
-0.200000 0.000000 -0.200000 0 255 0
-0.200000 0.000000 -0.300000 0 255 0
-0.200000 0.020000 -0.200000 0 255 0
0.050000 0.020000 0.310000 0 255 0
0.150000 0.020000 0.210000 0 255 0
0.050000 0.020000 0.210000 0 255 0
0.080000 -0.500000 0.240000 255 0 0
0.120000 -0.000000 0.240000 255 0 0
0.120000 -0.500000 0.240000 255 0 0
0.120000 -0.000000 0.280000 255 0 0
0.120000 -0.500000 0.280000 255 0 0
0.080000 -0.000000 0.280000 255 0 0
0.080000 -0.500000 0.280000 255 0 0
0.080000 -0.000000 0.240000 255 0 0
0.050000 -0.000000 0.210000 0 255 0
0.150000 -0.000000 0.310000 0 255 0
0.050000 -0.000000 0.310000 0 255 0
0.150000 -0.000000 0.210000 0 255 0
0.150000 0.020000 0.310000 0 255 0
3 0 1 2
3 3 4 5
3 5 6 7
3 7 8 9
3 9 10 3
3 11 2 12
3 13 0 11
3 14 15 13
3 12 1 14
3 16 17 18
3 19 20 21
3 21 22 23
3 23 24 25
3 25 26 19
3 27 18 28
3 29 16 27
3 30 31 29
3 28 17 30
3 32 33 34
3 35 36 37
3 37 38 39
3 39 40 41
3 41 42 35
3 43 32 34
3 44 32 45
3 46 47 44
3 43 33 46
3 0 15 1
3 3 10 4
3 5 4 6
3 7 6 8
3 9 8 10
3 11 0 2
3 13 15 0
3 14 1 15
3 12 2 1
3 16 31 17
3 19 26 20
3 21 20 22
3 23 22 24
3 25 24 26
3 27 16 18
3 29 31 16
3 30 17 31
3 28 18 17
3 32 47 33
3 35 42 36
3 37 36 38
3 39 38 40
3 41 40 42
3 43 45 32
3 44 47 32
3 46 33 47
3 43 34 33
