ply
format ascii 1.0
comment Created by Blender 2.82 (sub 7) - www.blender.org, source file: 'fletcherbench.blend'
element vertex 181
property float x
property float y
property float z
property uchar red
property uchar green
property uchar blue
property uchar alpha
element face 234
property list uchar uint vertex_indices
end_header
0.475000 -0.460483 -0.475000 167 167 167 255
0.475000 -0.500483 0.475000 167 167 167 255
0.475000 -0.500483 -0.475000 167 167 167 255
0.475000 -0.460483 0.475000 167 167 167 255
-0.475000 -0.500483 0.475000 169 169 169 255
-0.475000 -0.460483 0.475000 167 167 167 255
-0.475000 -0.500483 -0.475000 167 167 167 255
-0.475000 -0.460483 -0.475000 167 167 167 255
0.329513 0.015610 -0.423577 138 80 62 255
0.429495 -0.459904 -0.421689 138 80 62 255
0.329513 -0.459904 -0.423577 138 80 62 255
0.429495 0.015610 -0.421689 138 80 62 255
0.427607 -0.459904 -0.321707 138 80 62 255
0.427607 0.015610 -0.321707 138 80 62 255
0.327625 -0.459904 -0.323595 138 80 62 255
0.327625 0.015610 -0.323595 138 80 62 255
0.415614 0.015610 -0.334162 138 80 62 255
0.340080 0.015610 -0.335589 138 80 62 255
0.340080 -0.440335 -0.335589 0 0 0 255
0.417040 0.015610 -0.409696 138 80 62 255
0.341507 0.015610 -0.411122 138 80 62 255
0.417040 -0.440335 -0.409696 0 0 0 255
0.341507 -0.440335 -0.411122 0 0 0 255
0.415614 -0.440335 -0.334162 16 14 14 255
0.403973 0.175864 -0.391530 107 19 20 255
0.427969 0.118421 -0.350508 107 19 20 255
0.407603 0.076291 -0.383032 107 19 20 255
0.424117 0.224080 -0.359525 107 19 20 255
0.419419 0.118551 -0.345324 107 19 20 255
0.395423 0.175994 -0.386346 107 19 20 255
0.399053 0.076422 -0.377848 107 19 20 255
0.415567 0.224210 -0.354341 107 19 20 255
0.398643 -0.316169 -0.358979 177 130 98 255
0.397592 0.181430 -0.411837 177 130 98 255
0.415743 -0.316430 -0.369348 177 130 98 255
0.426090 -0.314601 -0.352330 178 131 100 255
0.407939 0.183260 -0.394820 177 129 97 255
0.408990 -0.314339 -0.341961 177 129 97 255
0.380492 0.181692 -0.401468 177 129 97 255
0.390839 0.183521 -0.384451 178 130 99 255
0.385134 0.174175 -0.403267 107 19 20 255
0.365607 0.109036 -0.433828 107 19 20 255
0.388764 0.074603 -0.394770 107 19 20 255
0.370305 0.214564 -0.448030 107 19 20 255
0.374157 0.108905 -0.439013 107 19 20 255
0.393684 0.174044 -0.408452 107 19 20 255
0.397314 0.074472 -0.399954 107 19 20 255
0.361755 0.214695 -0.442846 107 19 20 255
0.353013 0.212852 -0.312575 107 19 20 255
0.329850 0.145765 -0.289749 107 19 20 255
0.360955 0.113996 -0.325395 107 19 20 255
0.321422 0.250664 -0.276146 107 19 20 255
0.322440 0.146040 -0.296459 107 19 20 255
0.345604 0.213127 -0.319286 107 19 20 255
0.353546 0.114271 -0.332105 107 19 20 255
0.314013 0.250939 -0.282856 107 19 20 255
0.394399 -0.270627 -0.400433 177 130 98 255
0.369507 0.223105 -0.322915 177 130 98 255
0.409217 -0.271177 -0.387013 177 130 98 255
0.356169 0.220140 -0.308310 177 129 97 255
0.395879 -0.274142 -0.372408 178 131 100 255
0.381061 -0.273592 -0.385828 177 129 97 255
0.341351 0.220690 -0.321731 178 130 99 255
0.358867 0.216076 -0.333809 107 19 20 255
0.391808 0.161463 -0.372417 107 19 20 255
0.366809 0.117220 -0.346628 107 19 20 255
0.390789 0.266087 -0.352104 107 19 20 255
0.399217 0.161188 -0.365707 107 19 20 255
0.366276 0.215801 -0.327098 107 19 20 255
0.374218 0.116945 -0.339918 107 19 20 255
0.383380 0.266362 -0.358814 107 19 20 255
0.358181 0.316817 -0.397314 107 19 20 255
0.360347 0.257802 -0.351807 107 19 20 255
0.358749 0.216985 -0.391543 107 19 20 255
0.349754 0.363704 -0.357497 107 19 20 255
0.350357 0.257770 -0.351373 107 19 20 255
0.348191 0.316785 -0.396880 107 19 20 255
0.348759 0.216953 -0.391108 107 19 20 255
0.359744 0.363736 -0.357932 107 19 20 255
0.342286 0.323094 -0.417114 177 129 97 255
0.365108 -0.176001 -0.389123 177 130 98 255
0.345127 -0.176064 -0.388255 177 130 98 255
0.362267 0.323158 -0.417983 177 130 98 255
0.365971 -0.174843 -0.369175 178 131 100 255
0.343150 0.324252 -0.397166 178 130 99 255
0.345990 -0.174906 -0.368307 177 129 97 255
0.363131 0.324316 -0.398035 177 129 97 255
0.347332 0.315633 -0.416715 107 19 20 255
0.345866 0.251746 -0.455117 107 19 20 255
0.347900 0.215802 -0.410944 107 19 20 255
0.345263 0.357681 -0.461242 107 19 20 255
0.355856 0.251778 -0.455551 107 19 20 255
0.357323 0.315665 -0.417150 107 19 20 255
0.357891 0.215833 -0.411378 107 19 20 255
0.355253 0.357713 -0.461676 107 19 20 255
0.395019 -0.460973 -0.141372 175 154 123 255
0.395019 0.131565 0.119970 175 154 123 255
0.395019 -0.468466 -0.122829 175 154 123 255
0.315019 -0.468466 -0.122829 175 154 123 255
0.315019 0.131621 0.119904 175 154 123 255
0.315019 -0.460973 -0.141372 175 154 123 255
0.315019 0.150968 0.105868 175 154 123 255
-0.314565 0.132037 0.120307 180 161 134 255
-0.314565 -0.460973 0.380711 181 162 135 255
-0.314565 -0.468466 0.362168 179 159 130 255
-0.314565 0.150968 0.133471 175 154 123 255
-0.394565 -0.460973 0.380711 175 154 123 255
-0.394565 0.132233 0.119586 175 154 123 255
-0.394565 -0.468466 0.362168 175 154 123 255
-0.314565 -0.460973 -0.141372 175 154 123 255
-0.314565 0.132037 0.120307 175 154 123 255
-0.314565 -0.468466 -0.122829 175 154 123 255
-0.394565 -0.468466 -0.122829 175 155 124 255
-0.394565 -0.460973 -0.141372 177 157 127 255
-0.394565 0.150968 0.105868 176 155 124 255
0.395019 -0.460973 0.380711 178 158 129 255
0.395019 -0.468466 0.362168 176 156 126 255
0.395019 0.150968 0.133471 180 160 132 255
0.315019 -0.460973 0.380711 179 159 131 255
0.315019 -0.468466 0.362168 179 159 131 255
0.400000 0.205096 0.078866 167 139 110 255
0.400000 0.125096 0.158866 167 139 110 255
0.400000 0.125096 0.078866 170 142 114 255
0.400000 0.205096 0.158866 167 139 110 255
-0.400000 0.125096 0.158866 168 140 111 255
-0.400000 0.205096 0.158866 167 139 110 255
-0.400000 0.125096 0.078866 167 139 110 255
-0.400000 0.205096 0.078866 167 139 110 255
0.202836 -0.457317 -0.109696 167 128 95 255
0.202836 0.899985 0.234006 168 129 97 255
0.202836 -0.461949 -0.090240 167 127 94 255
0.162836 -0.461949 -0.090240 167 127 94 255
0.162836 0.899985 0.234006 168 128 96 255
0.162836 -0.457317 -0.109696 167 127 94 255
0.162836 0.904618 0.214550 167 127 94 255
0.207836 0.187054 0.033434 167 117 113 255
0.207836 0.255615 0.090875 167 117 113 255
0.207836 0.177790 0.072347 167 117 113 255
0.157836 0.177790 0.072347 167 117 113 255
0.157836 0.255615 0.090875 167 117 113 255
0.157836 0.187054 0.033434 167 117 113 255
0.157836 0.264879 0.051963 167 117 113 255
0.054282 -0.457317 -0.109696 167 128 95 255
0.054282 0.899985 0.234006 168 129 97 255
0.054282 -0.461949 -0.090240 167 127 94 255
0.014282 -0.461949 -0.090240 167 127 94 255
0.014282 0.899985 0.234006 168 128 96 255
0.014282 -0.457317 -0.109696 167 127 94 255
0.014282 0.904618 0.214550 167 127 94 255
0.059282 0.187054 0.033434 167 117 113 255
0.059282 0.255615 0.090875 167 117 113 255
0.059282 0.177790 0.072347 167 117 113 255
0.009282 0.177790 0.072347 167 117 113 255
0.009282 0.255615 0.090875 167 117 113 255
0.009282 0.187054 0.033434 167 117 113 255
0.009282 0.264879 0.051963 167 117 113 255
-0.119984 -0.457317 -0.109696 167 128 95 255
-0.119984 0.899985 0.234006 168 129 97 255
-0.119984 -0.461949 -0.090240 167 127 94 255
-0.159984 -0.461949 -0.090240 167 127 94 255
-0.159984 0.899985 0.234006 168 128 96 255
-0.159984 -0.457317 -0.109696 167 127 94 255
-0.159984 0.904618 0.214550 167 127 94 255
-0.114984 0.187054 0.033434 167 117 113 255
-0.114984 0.255615 0.090875 167 117 113 255
-0.114984 0.177790 0.072347 167 117 113 255
-0.164984 0.177790 0.072347 167 117 113 255
-0.164984 0.255615 0.090875 167 117 113 255
-0.164984 0.187054 0.033434 167 117 113 255
-0.164984 0.264879 0.051963 167 117 113 255
0.354689 0.223655 -0.336336 177 129 97 255
0.395019 0.150968 0.105868 175 154 123 255
-0.394565 0.150968 0.133471 179 159 131 255
-0.314565 0.150968 0.105868 175 154 123 255
0.315019 0.150968 0.133471 175 155 124 255
0.202836 0.904618 0.214550 167 127 94 255
0.207836 0.264879 0.051963 167 117 113 255
0.054282 0.904618 0.214550 167 127 94 255
0.059282 0.264879 0.051963 167 117 113 255
-0.119984 0.904618 0.214550 167 127 94 255
-0.114984 0.264879 0.051963 167 117 113 255
3 0 1 2
3 3 4 1
3 5 6 4
3 7 2 6
3 3 7 5
3 8 9 10
3 11 12 9
3 13 14 12
3 15 10 14
3 15 16 17
3 16 18 17
3 8 19 11
3 15 20 8
3 13 19 16
3 20 21 19
3 17 22 20
3 19 23 16
3 24 25 26
3 27 28 25
3 28 29 30
3 25 30 26
3 27 29 31
3 32 33 34
3 33 35 34
3 36 37 35
3 37 38 32
3 36 38 39
3 40 41 42
3 41 43 44
3 44 45 46
3 42 44 46
3 40 43 47
3 48 49 50
3 51 52 49
3 52 53 54
3 49 54 50
3 51 53 55
3 56 57 58
3 58 59 60
3 59 61 60
3 62 56 61
3 57 62 59
3 63 64 65
3 64 66 67
3 67 68 69
3 65 67 69
3 63 66 70
3 71 72 73
3 72 74 75
3 75 76 77
3 73 75 77
3 71 74 78
3 79 80 81
3 82 83 80
3 83 84 85
3 85 79 81
3 82 84 86
3 87 88 89
3 90 91 88
3 91 92 93
3 88 93 89
3 90 92 94
3 95 96 97
3 96 98 97
3 99 100 98
3 101 95 100
3 102 103 104
3 105 106 103
3 106 107 108
3 108 102 104
3 109 110 111
3 110 112 111
3 107 113 112
3 114 109 113
3 96 115 116
3 117 118 115
3 118 99 119
3 119 96 116
3 120 121 122
3 123 124 121
3 125 126 124
3 127 122 126
3 124 122 121
3 123 127 125
3 128 129 130
3 129 131 130
3 132 133 131
3 134 128 133
3 129 134 132
3 135 136 137
3 136 138 137
3 139 140 138
3 141 135 140
3 138 135 137
3 136 141 139
3 142 143 144
3 143 145 144
3 146 147 145
3 148 142 147
3 143 148 146
3 149 150 151
3 150 152 151
3 153 154 152
3 155 149 154
3 152 149 151
3 150 155 153
3 156 157 158
3 157 159 158
3 160 161 159
3 162 156 161
3 157 162 160
3 163 164 165
3 164 166 165
3 167 168 166
3 169 163 168
3 166 163 165
3 164 169 167
3 0 3 1
3 3 5 4
3 5 7 6
3 7 0 2
3 3 0 7
3 8 11 9
3 11 13 12
3 13 15 14
3 15 8 10
3 15 13 16
3 16 23 18
3 8 20 19
3 15 17 20
3 13 11 19
3 20 22 21
3 17 18 22
3 19 21 23
3 24 27 25
3 27 31 28
3 28 31 29
3 25 28 30
3 27 24 29
3 32 38 33
3 33 36 35
3 36 39 37
3 37 39 38
3 36 33 38
3 40 47 41
3 41 47 43
3 44 43 45
3 42 41 44
3 40 45 43
3 48 51 49
3 51 55 52
3 52 55 53
3 49 52 54
3 51 48 53
3 56 170 57
3 58 57 59
3 59 62 61
3 62 170 56
3 57 170 62
3 63 70 64
3 64 70 66
3 67 66 68
3 65 64 67
3 63 68 66
3 71 78 72
3 72 78 74
3 75 74 76
3 73 72 75
3 71 76 74
3 79 82 80
3 82 86 83
3 83 86 84
3 85 84 79
3 82 79 84
3 87 90 88
3 90 94 91
3 91 94 92
3 88 91 93
3 90 87 92
3 95 171 96
3 96 99 98
3 99 101 100
3 101 171 95
3 102 105 103
3 105 172 106
3 106 172 107
3 108 107 102
3 109 173 110
3 110 107 112
3 107 114 113
3 114 173 109
3 96 117 115
3 117 174 118
3 118 174 99
3 119 99 96
3 120 123 121
3 123 125 124
3 125 127 126
3 127 120 122
3 124 126 122
3 123 120 127
3 128 175 129
3 129 132 131
3 132 134 133
3 134 175 128
3 129 175 134
3 135 176 136
3 136 139 138
3 139 141 140
3 141 176 135
3 138 140 135
3 136 176 141
3 142 177 143
3 143 146 145
3 146 148 147
3 148 177 142
3 143 177 148
3 149 178 150
3 150 153 152
3 153 155 154
3 155 178 149
3 152 154 149
3 150 178 155
3 156 179 157
3 157 160 159
3 160 162 161
3 162 179 156
3 157 179 162
3 163 180 164
3 164 167 166
3 167 169 168
3 169 180 163
3 166 168 163
3 164 180 169
