ply
format ascii 1.0
comment Created by Blender 2.82 (sub 7) - www.blender.org, source file: 'Furnace.blend'
element vertex 80
property float x
property float y
property float z
property float s
property float t
property uchar red
property uchar green
property uchar blue
property uchar alpha
element face 67
property list uchar uint vertex_indices
end_header
0.384097 0.257490 0.302808 0.750000 0.250000 189 139 99 255
0.421079 0.096694 0.302796 0.750000 0.250000 189 139 99 255
0.421280 0.096736 0.360847 0.750000 0.250000 189 139 99 255
0.384298 0.257532 0.360859 0.750000 0.250000 182 134 90 255
0.477854 0.109747 0.360641 0.750000 0.250000 189 139 99 255
0.440872 0.270543 0.360653 0.750000 0.250000 189 139 99 255
0.477653 0.109705 0.302590 0.750000 0.250000 189 139 99 255
0.440671 0.270501 0.302603 0.750000 0.250000 189 139 99 255
0.463855 0.106550 0.346383 0.750000 0.250000 153 141 141 255
0.463753 0.106529 0.316950 0.750000 0.250000 153 141 141 255
0.435069 0.099932 0.317054 0.750000 0.250000 153 141 141 255
0.556384 -0.296225 0.316920 0.750000 0.250000 153 141 141 255
0.527700 -0.302822 0.317024 0.750000 0.250000 153 141 141 255
0.435171 0.099953 0.346487 0.750000 0.250000 153 141 141 255
0.556486 -0.296204 0.346352 0.750000 0.250000 153 141 141 255
0.559058 -0.297980 0.403160 0.750000 0.250000 154 142 142 255
0.558565 -0.298083 0.260801 0.750000 0.250000 153 141 141 255
0.527802 -0.302801 0.346457 0.750000 0.250000 153 141 141 255
0.526655 -0.305432 0.403277 0.750000 0.250000 153 141 141 255
0.567759 -0.484152 0.403264 0.750000 0.250000 153 141 141 255
0.578361 -0.496991 0.403236 0.750000 0.250000 153 141 141 255
0.526162 -0.305535 0.260919 0.750000 0.250000 153 141 141 255
0.567267 -0.484254 0.260906 0.750000 0.250000 153 141 141 255
0.577868 -0.497093 0.260878 0.750000 0.250000 153 141 141 255
-0.500000 -0.500000 0.500000 0.750000 0.250000 153 121 99 255
-0.271452 0.980651 0.271452 0.750000 0.250000 153 121 99 255
-0.271452 0.980651 -0.271452 0.750000 0.250000 153 121 99 255
-0.500000 -0.500000 -0.500000 0.750000 0.250000 153 121 99 255
0.271452 0.980651 -0.271452 0.750000 0.250000 153 121 99 255
0.500000 -0.500000 -0.500000 0.750000 0.250000 149 118 96 255
0.271452 0.980651 0.271452 0.750000 0.250000 153 121 99 255
0.500000 -0.500000 0.500000 0.750000 0.250000 153 121 99 255
0.468778 -0.301274 0.126606 0.750000 0.250000 153 121 99 255
0.432430 -0.037104 0.088162 0.750000 0.250000 150 119 97 255
-0.230448 0.980651 -0.230448 0.750000 0.250000 91 72 59 255
0.230448 0.980651 -0.230448 0.750000 0.250000 78 62 51 255
0.230448 0.980651 -0.230448 0.250000 0.750000 78 62 51 255
0.445538 -0.444711 -0.445538 0.250000 0.750000 83 66 55 255
0.446959 -0.303913 -0.111404 0.250000 0.750000 173 137 112 255
0.408895 -0.039082 -0.071244 0.250000 0.750000 173 137 112 255
0.230448 0.980651 0.230448 0.750000 0.250000 89 70 58 255
-0.230448 0.980651 0.230448 0.750000 0.250000 80 64 52 255
-0.445538 -0.444711 -0.445537 0.250000 0.750000 79 63 52 255
-0.445537 -0.444711 0.445538 0.250000 0.750000 78 62 51 255
0.445538 -0.444711 0.445537 0.250000 0.750000 78 62 51 255
-0.230448 0.980651 -0.230448 0.250000 0.750000 91 72 59 255
-0.230448 0.980651 0.230448 0.250000 0.750000 80 64 52 255
0.230448 0.980651 0.230448 0.250000 0.750000 89 70 58 255
0.468778 -0.301274 -0.121123 0.750000 0.250000 152 120 98 255
0.432430 -0.037104 -0.082679 0.750000 0.250000 153 121 99 255
0.408895 -0.039082 -0.071244 0.750000 0.250000 173 137 112 255
0.446959 -0.303913 -0.111404 0.750000 0.250000 173 137 112 255
0.446959 -0.303913 0.116886 0.750000 0.250000 173 137 112 255
0.408895 -0.039082 0.076726 0.750000 0.250000 173 137 112 255
0.446959 -0.303913 0.116886 0.250000 0.750000 173 137 112 255
0.408895 -0.039082 0.076726 0.250000 0.750000 173 137 112 255
0.442617 0.268302 -0.300891 0.750000 0.250000 189 139 99 255
0.468564 0.105361 -0.300891 0.750000 0.250000 189 139 99 255
0.468564 0.105361 -0.358942 0.750000 0.250000 189 139 99 255
0.442617 0.268302 -0.358942 0.750000 0.250000 189 139 99 255
0.411235 0.096232 -0.358942 0.750000 0.250000 189 139 99 255
0.385288 0.259173 -0.358942 0.750000 0.250000 189 139 99 255
0.411235 0.096232 -0.300891 0.750000 0.250000 189 139 99 255
0.385288 0.259173 -0.300891 0.750000 0.250000 189 139 99 255
0.425363 0.098503 -0.344633 0.750000 0.250000 153 141 141 255
0.425363 0.098503 -0.315200 0.750000 0.250000 154 141 140 255
0.454430 0.103132 -0.315200 0.750000 0.250000 153 141 141 255
0.490354 -0.309624 -0.315200 0.750000 0.250000 153 141 141 255
0.519420 -0.304995 -0.315200 0.750000 0.250000 153 141 141 255
0.454430 0.103132 -0.344633 0.750000 0.250000 153 141 141 255
0.490354 -0.309624 -0.344633 0.750000 0.250000 153 141 141 255
0.485226 -0.313980 -0.350382 0.750000 0.250000 153 141 141 255
0.485226 -0.313980 -0.309452 0.750000 0.250000 153 141 141 255
0.519420 -0.304995 -0.344633 0.750000 0.250000 153 141 141 255
0.525647 -0.307543 -0.309452 0.750000 0.250000 153 141 141 255
0.532379 -0.500887 -0.326624 0.750000 0.250000 153 141 141 255
0.538882 -0.499851 -0.326624 0.750000 0.250000 153 141 141 255
0.525647 -0.307543 -0.350382 0.750000 0.250000 153 141 141 255
0.532379 -0.500887 -0.333209 0.750000 0.250000 153 141 141 255
0.538882 -0.499852 -0.333209 0.750000 0.250000 153 141 141 255
4 0 1 2 3
4 3 2 4 5
4 5 4 6 7
4 7 6 1 0
4 3 5 7 0
4 6 4 8 9
4 10 9 11 12
4 2 1 10 13
4 1 6 9 10
4 4 2 13 8
4 11 14 15 16
4 8 13 17 14
4 9 8 14 11
4 13 10 12 17
4 15 18 19 20
4 17 12 21 18
4 12 11 16 21
4 14 17 18 15
4 20 19 22 23
4 16 15 20 23
4 18 21 22 19
4 21 16 23 22
4 24 25 26 27
4 27 26 28 29
4 30 31 32 33
4 31 30 25 24
4 28 26 34 35
4 36 37 38 39
4 30 28 35 40
4 26 25 41 34
4 25 30 40 41
4 37 42 43 44
4 45 46 43 42
4 46 47 44 43
4 36 45 42 37
4 31 29 48 32
4 28 30 33 49
4 29 28 49 48
4 50 51 48 49
4 51 52 32 48
4 52 53 33 32
4 37 44 54 38
4 47 36 39 55
4 44 47 55 54
4 53 50 49 33
4 56 57 58 59
4 59 58 60 61
4 61 60 62 63
4 63 62 57 56
4 59 61 63 56
4 62 60 64 65
4 66 65 67 68
4 58 57 66 69
4 57 62 65 66
4 60 58 69 64
4 67 70 71 72
4 64 69 73 70
4 65 64 70 67
4 69 66 68 73
4 74 72 75 76
4 73 68 74 77
4 68 67 72 74
4 70 73 77 71
4 78 79 76 75
4 71 77 79 78
4 72 71 78 75
4 77 74 76 79
