ply
format ascii 1.0
comment Created in Blender version 4.2.3 LTS
element vertex 72
property float x
property float y
property float z
property uchar red
property uchar green
property uchar blue
property uchar alpha
element face 124
property list uchar uint vertex_indices
end_header
-0.49900004 0.5001 -0.49899995 144 72 34 255
-0.4794533 0.5799 -0.4795881 202 100 50 255
0.49899998 0.5001 -0.499 143 71 34 255
0.47961178 0.5799 -0.47958815 202 100 50 255
-0.49900004 0.5001 -0.36925995 143 71 34 255
-0.47936764 0.5799 -0.38872096 202 100 50 255
0.49899998 0.5001 -0.36926 143 71 34 255
0.4796846 0.5799 -0.38872102 202 100 50 255
-0.49899995 0.5001 0.36926 144 72 34 255
-0.47936755 0.5799 0.38872102 202 100 50 255
0.499 0.5001 0.36925995 143 71 34 255
0.47962523 0.5799 0.38872096 202 100 50 255
-0.49899995 0.5001 0.499 143 71 34 255
-0.4794532 0.5799 0.47955254 202 100 50 255
0.499 0.5001 0.49899995 143 71 34 255
0.47958213 0.5799 0.47955257 202 100 50 255
0.49899995 0.5001 -0.49899998 144 72 34 255
0.49899998 0.5001 0.49899998 143 71 34 255
0.36925998 0.5001 -0.49899998 143 71 34 255
0.38872096 0.5799 -0.4796373 202 100 50 255
0.36926 0.5001 0.49899998 143 71 34 255
0.388721 0.5799 0.47956613 202 100 50 255
-0.36925995 0.5001 -0.49899992 144 72 34 255
-0.38872096 0.5799 -0.47963724 202 100 50 255
-0.3692599 0.5001 0.49899998 143 71 34 255
-0.3887209 0.5799 0.47956613 202 100 50 255
-0.49899995 0.5001 -0.49899992 143 71 34 255
-0.4989999 0.5001 0.49899998 143 71 34 255
-0.50000006 -0.49999994 -0.49999997 144 72 34 255
-0.48041412 -0.42000002 -0.4805492 202 100 50 255
0.50000006 -0.49999994 -0.5 143 71 34 255
0.48057294 -0.42000002 -0.48054925 202 100 50 255
-0.50000006 -0.49999994 -0.36999995 143 71 34 255
-0.4803283 -0.42000002 -0.38949996 202 100 50 255
0.50000006 -0.49999994 -0.37 143 71 34 255
0.4806459 -0.42000002 -0.38950002 202 100 50 255
-0.49999997 -0.49999994 0.37 144 72 34 255
-0.4803282 -0.42000002 0.38950002 202 100 50 255
0.5 -0.49999994 0.36999995 143 71 34 255
0.4805864 -0.42000002 0.38949996 202 100 50 255
-0.49999997 -0.49999994 0.5 143 71 34 255
-0.48041403 -0.42000002 0.4805136 202 100 50 255
0.5 -0.49999994 0.49999997 143 71 34 255
0.48054323 -0.42000002 0.4805136 202 100 50 255
0.49999997 -0.49999994 -0.5 144 72 34 255
0.5 -0.49999994 0.50000006 143 71 34 255
0.36999997 -0.49999994 -0.5 143 71 34 255
0.38949996 -0.42000002 -0.4805985 202 100 50 255
0.37 -0.49999994 0.50000006 143 71 34 255
0.3895 -0.42000002 0.4805272 202 100 50 255
-0.36999995 -0.49999994 -0.49999994 144 72 34 255
-0.38949996 -0.42000002 -0.48059845 202 100 50 255
-0.3699999 -0.49999994 0.5 143 71 34 255
-0.3894999 -0.42000002 0.4805272 202 100 50 255
-0.49999997 -0.49999994 -0.49999994 143 71 34 255
-0.4999999 -0.49999994 0.5 143 71 34 255
0.3711004 -0.50206083 -0.3711004 121 126 146 255
0.05208765 -0.31009054 -0.05208765 166 164 179 255
0.3711004 -0.50206083 0.3711004 121 126 146 255
0.05208765 -0.31009054 0.05208765 166 164 179 255
-0.3711004 -0.50206083 -0.3711004 121 126 146 255
-0.05208765 -0.31009054 -0.05208765 166 164 179 255
-0.3711004 -0.50206083 0.3711004 121 126 146 255
-0.05208765 -0.31009054 0.05208765 166 164 179 255
0.05208765 0.32627112 -0.05208765 185 192 199 255
0.05208765 0.32627112 0.05208765 185 192 199 255
-0.05208765 0.32627112 0.05208765 185 192 199 255
-0.05208765 0.32627112 -0.05208765 185 192 199 255
0.45505986 0.49243516 -0.45505986 185 192 199 255
0.45505986 0.49243516 0.45505986 185 192 199 255
-0.45505986 0.49243516 0.45505986 185 192 199 255
-0.45505986 0.49243516 -0.45505986 185 192 199 255
3 1 2 0
3 2 7 6
3 6 5 4
3 5 0 4
3 6 0 2
3 3 5 7
3 9 10 8
3 11 14 10
3 14 13 12
3 13 8 12
3 14 8 10
3 15 9 13
3 16 15 17
3 17 21 20
3 21 18 20
3 19 16 18
3 20 16 17
3 21 3 19
3 22 25 24
3 24 13 27
3 13 26 27
3 1 22 26
3 27 22 24
3 25 1 13
3 29 30 28
3 30 35 34
3 34 33 32
3 33 28 32
3 34 28 30
3 31 33 35
3 37 38 36
3 39 42 38
3 42 41 40
3 41 36 40
3 42 36 38
3 43 37 41
3 44 43 45
3 45 49 48
3 49 46 48
3 47 44 46
3 48 44 45
3 49 31 47
3 50 53 52
3 52 41 55
3 41 54 55
3 29 50 54
3 55 50 52
3 53 29 41
3 57 58 56
3 59 62 58
3 63 60 62
3 61 56 60
3 62 56 58
3 63 67 61
3 64 71 68
3 57 65 59
3 61 64 57
3 59 66 63
3 69 71 70
3 66 69 70
3 67 70 71
3 65 68 69
3 1 3 2
3 2 3 7
3 6 7 5
3 5 1 0
3 6 4 0
3 3 1 5
3 9 11 10
3 11 15 14
3 14 15 13
3 13 9 8
3 14 12 8
3 15 11 9
3 16 3 15
3 17 15 21
3 21 19 18
3 19 3 16
3 20 18 16
3 21 15 3
3 22 23 25
3 24 25 13
3 13 1 26
3 1 23 22
3 27 26 22
3 25 23 1
3 29 31 30
3 30 31 35
3 34 35 33
3 33 29 28
3 34 32 28
3 31 29 33
3 37 39 38
3 39 43 42
3 42 43 41
3 41 37 36
3 42 40 36
3 43 39 37
3 44 31 43
3 45 43 49
3 49 47 46
3 47 31 44
3 48 46 44
3 49 43 31
3 50 51 53
3 52 53 41
3 41 29 54
3 29 51 50
3 55 54 50
3 53 51 29
3 57 59 58
3 59 63 62
3 63 61 60
3 61 57 56
3 62 60 56
3 63 66 67
3 64 67 71
3 57 64 65
3 61 67 64
3 59 65 66
3 69 68 71
3 66 65 69
3 67 66 70
3 65 64 68
