ply
format ascii 1.0
comment Created in Blender version 4.2.3 LTS
element vertex 8
property float x
property float y
property float z
property uchar red
property uchar green
property uchar blue
property uchar alpha
element face 12
property list uchar uint vertex_indices
end_header
0.5 -0.5 0.06500002 144 72 34 255
0.5 -0.42000002 0.04550002 202 100 50 255
-0.5 -0.5 0.064999975 143 71 34 255
-0.5 -0.42000002 0.045499977 202 100 50 255
0.5 -0.5 -0.064999975 143 71 34 255
0.5 -0.42000002 -0.045499977 202 100 50 255
-0.5 -0.5 -0.06500002 143 71 34 255
-0.5 -0.42000002 -0.04550002 202 100 50 255
3 1 2 0
3 2 7 6
3 7 4 6
3 4 1 0
3 6 0 2
3 3 5 7
3 1 3 2
3 2 3 7
3 7 5 4
3 4 5 1
3 6 4 0
3 3 1 5
