ply
format ascii 1.0
comment Created in Blender version 4.2.3 LTS
element vertex 16
property float x
property float y
property float z
property uchar red
property uchar green
property uchar blue
property uchar alpha
element face 24
property list uchar uint vertex_indices
end_header
0.065 -0.5 -0.5 144 72 34 255
0.0455 -0.42000002 -0.5 202 100 50 255
0.065 -0.5 0.5 143 71 34 255
0.0455 -0.42000002 0.5 202 100 50 255
-0.065 -0.5 -0.5 143 71 34 255
-0.0455 -0.42000002 -0.5 202 100 50 255
-0.065 -0.5 0.5 143 71 34 255
-0.0455 -0.42000002 0.5 202 100 50 255
-0.49999997 -0.5 -0.06499997 144 72 34 255
-0.49999997 -0.42000002 -0.04549997 202 100 50 255
0.49999997 -0.5 -0.06500001 143 71 34 255
0.49999997 -0.42000002 -0.045500018 202 100 50 255
-0.49999997 -0.5 0.06500001 143 71 34 255
-0.49999997 -0.42000002 0.045500018 202 100 50 255
0.49999997 -0.5 0.06499997 143 71 34 255
0.49999997 -0.42000002 0.04549997 202 100 50 255
3 1 2 0
3 2 7 6
3 7 4 6
3 4 1 0
3 6 0 2
3 3 5 7
3 9 10 8
3 11 14 10
3 15 12 14
3 13 8 12
3 14 8 10
3 15 9 13
3 1 3 2
3 2 3 7
3 7 5 4
3 4 5 1
3 6 4 0
3 3 1 5
3 9 11 10
3 11 15 14
3 15 13 12
3 13 9 8
3 14 12 8
3 15 11 9
