ply
format ascii 1.0
comment Created by Blender 2.82 (sub 7) - www.blender.org, source file: 'GlassblowersFurnace.blend'
element vertex 62
property float x
property float y
property float z
property uchar red
property uchar green
property uchar blue
property uchar alpha
element face 58
property list uchar uint vertex_indices
end_header
-0.496753 -0.496753 0.000083 92 95 99 255
-0.385011 -0.228180 0.000064 106 109 114 255
-0.192561 -0.228180 -0.333397 106 109 114 255
-0.248449 -0.496753 -0.430159 92 95 99 255
0.192450 -0.228180 -0.333461 106 109 114 255
0.248305 -0.496753 -0.430243 92 95 99 255
0.385011 -0.228180 -0.000064 106 109 114 255
0.496753 -0.496753 -0.000083 92 95 99 255
0.192561 -0.228180 0.333397 106 109 114 255
0.248449 -0.496753 0.430159 92 95 99 255
-0.192561 0.272774 -0.333397 130 134 139 255
-0.093532 0.143923 -0.333414 130 134 139 255
-0.093532 -0.099329 -0.333414 106 109 114 255
-0.192450 -0.228180 0.333461 106 109 114 255
-0.248305 -0.496753 0.430243 92 95 99 255
-0.385011 0.272774 0.000064 125 129 134 255
-0.192450 0.272774 0.333461 130 134 139 255
-0.128279 0.609322 0.222272 130 134 139 255
-0.256633 0.609322 0.000043 130 134 139 255
0.192561 0.272774 0.333397 130 134 139 255
0.192450 0.272774 -0.333461 130 134 139 255
0.385011 0.272774 -0.000064 130 134 139 255
-0.031704 0.858063 0.054933 130 134 139 255
-0.063426 0.858063 0.000011 130 134 139 255
0.256633 0.609322 -0.000043 130 134 139 255
0.128353 0.609322 0.222229 130 134 139 255
-0.128353 0.609322 -0.222229 130 134 139 255
0.128279 0.609322 -0.222272 121 125 130 255
0.031722 0.858063 0.054923 130 134 139 255
0.031722 1.493196 0.054923 130 134 139 255
-0.031704 1.493196 0.054933 130 134 139 255
0.063426 0.858063 -0.000011 130 134 139 255
-0.031722 0.858063 -0.054923 130 134 139 255
0.031704 0.858063 -0.054933 130 134 139 255
-0.063426 1.493196 0.000010 130 134 139 255
-0.027746 1.492440 0.048075 130 134 139 255
-0.055507 1.492440 0.000009 130 134 139 255
0.031704 1.493196 -0.054934 130 134 139 255
0.063426 1.493196 -0.000011 130 134 139 255
-0.031722 1.493196 -0.054923 130 134 139 255
0.027762 1.492440 0.048066 130 134 139 255
0.000000 0.362840 -0.000000 0 0 0 255
0.055507 1.492440 -0.000009 130 134 139 255
-0.027762 1.492440 -0.048066 130 134 139 255
0.027746 1.492440 -0.048075 130 134 139 255
0.000000 0.362840 -0.000000 4 4 4 255
0.000000 0.362840 -0.000000 2 2 3 255
0.000000 0.362840 -0.000000 19 20 21 255
-0.093532 0.143923 -0.342723 163 148 126 255
-0.093532 -0.099329 -0.342723 163 148 126 255
0.093420 -0.099329 -0.333445 106 109 114 255
0.093420 0.143923 -0.333445 130 134 139 255
-0.082299 0.129307 -0.342725 163 148 126 255
-0.082299 -0.084713 -0.342725 163 148 126 255
0.093420 -0.099329 -0.342754 163 148 126 255
0.093420 0.143923 -0.342754 163 148 126 255
0.082187 0.129307 -0.342752 163 148 126 255
0.082187 -0.084713 -0.342752 163 148 126 255
0.082187 -0.084713 0.022282 0 0 0 255
0.082187 0.129307 0.022282 0 0 0 255
-0.082299 -0.084713 0.022310 4 4 4 255
-0.082299 0.129307 0.022310 0 0 0 255
4 0 1 2 3
4 3 2 4 5
4 5 4 6 7
4 7 6 8 9
4 2 10 11 12
4 9 8 13 14
4 14 13 1 0
4 15 16 17 18
4 13 8 19 16
4 2 1 15 10
4 6 4 20 21
4 1 13 16 15
4 8 6 21 19
4 18 17 22 23
4 19 21 24 25
4 20 10 26 27
4 16 19 25 17
4 21 20 27 24
4 10 15 18 26
4 22 28 29 30
4 25 24 31 28
4 27 26 32 33
4 17 25 28 22
4 24 27 33 31
4 26 18 23 32
4 34 30 35 36
4 31 33 37 38
4 32 23 34 39
4 23 22 30 34
4 28 31 38 29
4 33 32 39 37
3 35 40 41
4 29 38 42 40
4 37 39 43 44
4 30 29 40 35
4 38 37 44 42
4 39 34 36 43
3 42 44 41
3 43 36 45
3 36 35 46
3 40 42 41
3 44 43 47
4 12 11 48 49
4 4 2 12 50
4 20 4 50 51
4 10 20 51 11
4 49 48 52 53
4 50 12 49 54
4 51 50 54 55
4 11 51 55 48
4 56 57 58 59
4 54 49 53 57
4 55 54 57 56
4 48 55 56 52
4 58 60 61 59
4 52 56 59 61
4 53 52 61 60
4 57 53 60 58
