ply
format ascii 1.0
comment Created by Blender 3.3.1 - www.blender.org
element vertex 130
property float x
property float y
property float z
property uchar red
property uchar green
property uchar blue
property uchar alpha
element face 178
property list uchar uint vertex_indices
end_header
-0.448470 0.356957 0.280066 98 99 104 255
-0.576065 0.196006 -0.280093 98 99 104 255
-0.576065 0.196006 0.280066 98 99 104 255
-0.448470 0.356957 -0.280093 98 99 104 255
0.301852 -0.499965 -0.280093 98 99 104 255
0.429447 -0.339013 -0.280093 98 99 104 255
0.301852 -0.499965 0.280066 98 99 104 255
0.429447 -0.339013 0.280066 98 99 104 255
2.830122 0.675925 0.046666 98 99 104 255
0.278331 -0.346490 -0.046694 98 99 104 255
0.278331 -0.346490 0.046666 98 99 104 255
2.830122 0.675925 -0.046694 98 99 104 255
0.351491 -0.404488 -0.046694 98 99 104 255
2.903281 0.617927 -0.046694 98 99 104 255
0.351491 -0.404488 0.046666 98 99 104 255
-0.443662 0.318866 0.249459 98 99 104 255
0.660195 2.436080 0.474868 98 99 104 255
-0.437008 0.330713 0.174742 98 99 104 255
0.744823 2.395706 0.475258 98 99 104 255
-0.352379 0.290340 0.175132 98 99 104 255
-0.359033 0.278493 0.249849 98 99 104 255
0.738169 2.383859 0.549975 98 99 104 255
0.748381 2.561705 0.560146 98 99 104 255
0.620787 2.400754 -0.560172 98 99 104 255
0.620787 2.400754 0.560146 98 99 104 255
0.748381 2.561705 -0.560172 98 99 104 255
1.442249 1.749538 -0.560173 98 99 104 255
1.442249 1.749538 0.560146 98 99 104 255
3.029202 0.753579 0.140026 98 99 104 255
1.569843 1.910489 0.560146 98 99 104 255
1.569843 1.910489 -0.560173 98 99 104 255
2.901608 0.592627 0.140026 98 99 104 255
3.029202 0.753579 -0.140053 98 99 104 255
2.901608 0.592627 -0.140053 98 99 104 255
0.653541 2.424232 -0.481755 98 99 104 255
-0.437008 0.330713 -0.247376 98 99 104 255
-0.443662 0.318866 -0.168635 98 99 104 255
0.744823 2.395706 -0.560106 98 99 104 255
-0.352379 0.290340 -0.246987 98 99 104 255
0.738169 2.383859 -0.481365 98 99 104 255
-0.359033 0.278493 -0.168245 98 99 104 255
3.028043 0.754266 -0.144066 98 99 104 255
4.086080 -0.346598 -0.564185 98 99 104 255
2.900448 0.593315 -0.144066 98 99 104 255
4.213675 -0.185646 -0.564185 186 159 123 255
3.917808 -0.213200 -0.206230 186 159 123 255
4.213675 -0.185646 0.556133 98 99 104 255
2.900448 0.593315 0.136014 98 99 104 255
4.086080 -0.346598 0.556133 98 99 104 255
3.917808 -0.213200 0.234166 186 159 123 255
3.028043 0.754266 0.136014 186 159 123 255
4.045403 -0.052248 0.234166 186 159 123 255
4.045403 -0.052248 -0.203815 186 159 123 255
4.086080 -0.346598 0.011248 186 159 123 255
4.213675 -0.185646 0.008704 186 159 123 255
0.746974 2.562304 -0.562079 98 99 104 255
0.238623 2.703197 -1.495678 98 99 104 255
0.619380 2.401352 -0.562080 98 99 104 255
1.127323 1.998679 -1.495678 186 159 123 255
1.524516 1.945905 -2.293342 186 159 123 255
1.254918 2.159631 -1.495678 186 159 123 255
1.396922 1.784954 -0.562080 186 159 123 255
1.524517 1.945905 -0.562080 186 159 123 255
1.396922 1.784954 -2.293342 186 159 123 255
1.319571 2.108376 -3.044311 186 159 123 255
0.192381 2.739856 -2.293341 186 159 123 255
0.319975 2.900808 -2.293341 186 159 123 255
0.366218 2.864149 -1.495678 186 159 123 255
0.800964 2.519503 -3.879176 186 159 123 255
0.487846 2.767728 -3.044311 186 159 123 255
1.191976 1.947425 -3.044311 186 159 123 255
0.360251 2.606777 -3.044311 98 99 104 255
1.524516 1.945905 -3.879176 186 159 123 255
1.465681 1.992548 -4.528804 186 159 123 255
0.673370 2.358552 -3.879176 98 99 104 255
1.396922 1.784954 -3.879176 186 159 123 255
1.384546 1.794765 -4.528804 98 99 104 255
1.338086 1.831596 -4.528804 98 99 104 255
1.512141 1.955716 -4.528804 186 159 123 255
0.240281 2.703891 1.495118 98 99 104 255
0.748631 2.562997 0.561520 98 99 104 255
0.621036 2.402046 0.561520 98 99 104 255
1.526173 1.946599 2.292782 186 159 123 255
1.128980 1.999372 1.495118 186 159 123 255
1.256574 2.160324 1.495118 186 159 123 255
1.398578 1.785647 0.561520 186 159 123 255
0.367875 2.864842 1.495118 186 159 123 255
1.321228 2.109069 3.043751 186 159 123 255
1.398579 1.785647 2.292782 186 159 123 255
0.194037 2.740550 2.292782 186 159 123 255
0.321632 2.901501 2.292782 186 159 123 255
0.802622 2.520195 3.878617 186 159 123 255
0.489503 2.768421 3.043751 186 159 123 255
1.193633 1.948118 3.043751 186 159 123 255
0.361909 2.607470 3.043751 98 99 104 255
1.467337 1.993241 4.528243 186 159 123 255
1.526173 1.946598 3.878617 186 159 123 255
0.675027 2.359244 3.878617 98 99 104 255
1.386203 1.795458 4.528243 98 99 104 255
1.339743 1.832289 4.528243 98 99 104 255
1.513798 1.956409 4.528243 186 159 123 255
1.398579 1.785647 3.878617 186 159 123 255
2.903281 0.617927 0.046666 98 99 104 255
0.653541 2.424232 0.549585 98 99 104 255
0.660195 2.436080 -0.560496 98 99 104 255
1.526173 1.946599 0.561520 186 159 123 255
0.500004 -0.500111 0.524400 140 142 148 255
0.500004 0.299889 0.524400 140 142 148 255
-0.499997 0.299889 0.524400 140 142 148 255
-0.499997 -0.500111 0.524400 140 142 148 255
-0.499996 0.299889 0.284400 140 142 148 255
-0.499996 -0.500111 0.284400 140 142 148 255
0.500004 0.299889 0.284400 140 142 148 255
0.500004 -0.500111 0.284400 140 142 148 255
0.500004 -0.500111 -0.283824 140 142 148 255
0.500004 0.299889 -0.283824 140 142 148 255
-0.499996 0.299889 -0.283824 143 145 151 255
-0.499996 -0.500111 -0.283824 142 144 150 255
-0.499996 0.299889 -0.523824 140 142 148 255
-0.499996 -0.500111 -0.523824 140 142 148 255
0.500004 0.299889 -0.523824 140 142 148 255
0.500004 -0.500111 -0.523824 140 142 148 255
0.081567 -0.505043 0.032065 182 122 53 255
0.168451 -0.395266 0.032065 182 122 53 255
-0.615672 0.225339 0.032065 183 124 56 255
-0.702557 0.115562 0.032065 180 121 53 255
-0.615672 0.225339 -0.107935 187 136 73 255
-0.702557 0.115562 -0.107935 176 119 52 255
0.168451 -0.395266 -0.107935 182 122 53 255
0.081567 -0.505043 -0.107935 182 122 53 255
3 0 1 2
3 3 4 1
3 5 6 4
3 7 2 6
3 1 6 2
3 3 7 5
3 8 9 10
3 11 12 9
3 13 14 12
3 14 8 10
3 15 16 17
3 17 18 19
3 18 20 19
3 21 15 20
3 22 23 24
3 25 26 23
3 27 28 29
3 29 24 27
3 26 24 23
3 25 29 30
3 26 31 27
3 30 28 32
3 30 33 26
3 34 35 36
3 35 37 38
3 38 39 40
3 39 36 40
3 41 42 43
3 44 45 42
3 46 47 48
3 45 49 47
3 50 51 52
3 53 51 49
3 51 48 49
3 45 54 53
3 55 56 57
3 58 59 60
3 60 61 58
3 58 57 56
3 60 55 62
3 63 64 59
3 58 65 63
3 60 66 67
3 67 65 56
3 64 68 69
3 65 70 63
3 66 64 69
3 66 71 65
3 72 73 68
3 69 74 71
3 70 72 64
3 70 74 75
3 73 76 77
3 68 77 74
3 75 78 72
3 75 77 76
3 79 80 81
3 82 83 84
3 85 84 83
3 81 83 79
3 84 80 86
3 87 88 82
3 83 89 79
3 90 84 86
3 89 86 79
3 91 87 92
3 93 89 88
3 90 87 82
3 94 90 89
3 95 96 91
3 97 92 94
3 96 93 87
3 93 97 94
3 98 95 99
3 99 91 97
3 100 101 96
3 101 99 97
3 0 3 1
3 3 5 4
3 5 7 6
3 7 0 2
3 1 4 6
3 3 0 7
3 8 11 9
3 11 13 12
3 13 102 14
3 14 102 8
3 15 103 16
3 17 16 18
3 18 21 20
3 21 103 15
3 22 25 23
3 25 30 26
3 27 31 28
3 29 22 24
3 26 27 24
3 25 22 29
3 26 33 31
3 30 29 28
3 30 32 33
3 34 104 35
3 35 104 37
3 38 37 39
3 39 34 36
3 41 44 42
3 44 52 45
3 46 50 47
3 47 43 45
3 45 53 49
3 43 42 45
3 49 48 47
3 52 44 41
3 41 50 52
3 51 54 52
3 50 46 51
3 53 54 51
3 51 46 48
3 45 52 54
3 55 67 56
3 58 63 59
3 60 62 61
3 58 61 57
3 60 67 55
3 63 70 64
3 58 56 65
3 60 59 66
3 67 66 65
3 64 72 68
3 65 71 70
3 66 59 64
3 66 69 71
3 72 78 73
3 69 68 74
3 70 75 72
3 70 71 74
3 73 78 76
3 68 73 77
3 75 76 78
3 75 74 77
3 79 86 80
3 82 88 83
3 85 105 84
3 81 85 83
3 84 105 80
3 87 93 88
3 83 88 89
3 90 82 84
3 89 90 86
3 91 96 87
3 93 94 89
3 90 92 87
3 94 92 90
3 95 100 96
3 97 91 92
3 96 101 93
3 93 101 97
3 98 100 95
3 99 95 91
3 100 98 101
3 101 98 99
4 106 107 108 109
4 109 108 110 111
4 111 110 112 113
4 113 112 107 106
4 109 111 113 106
4 110 108 107 112
4 114 115 116 117
4 117 116 118 119
4 119 118 120 121
4 121 120 115 114
4 117 119 121 114
4 118 116 115 120
4 122 123 124 125
4 125 124 126 127
4 127 126 128 129
4 129 128 123 122
4 125 127 129 122
4 126 124 123 128
