ply
format ascii 1.0
comment Created by Blender 2.82 (sub 7) - www.blender.org, source file: '1gliderlauncher1x1x1.blend'
element vertex 168
property float x
property float y
property float z
property uchar red
property uchar green
property uchar blue
property uchar alpha
element face 176
property list uchar uint vertex_indices
end_header
0.280066 0.062734 0.607119 87 42 18 255
-0.280093 -0.139493 0.643033 87 42 18 255
0.280066 -0.139493 0.643033 87 42 18 255
-0.280093 0.062734 0.607119 87 42 18 255
-0.280093 -0.335389 -0.460025 87 42 18 255
-0.280093 -0.133161 -0.495939 87 42 18 255
0.280066 -0.335389 -0.460025 87 42 18 255
0.280066 -0.133161 -0.495939 87 42 18 255
0.046666 1.899607 -2.127254 87 42 18 255
-0.046694 -0.211466 -0.366479 87 42 18 255
0.046666 -0.211466 -0.366479 87 42 18 255
-0.046694 1.899607 -2.127254 87 42 18 255
-0.046694 -0.227791 -0.458400 87 42 18 255
-0.046694 1.883283 -2.219176 87 42 18 255
0.046666 -0.227791 -0.458400 87 42 18 255
0.249459 0.031489 0.584808 87 42 18 255
0.474868 2.418953 0.618106 87 42 18 255
0.174742 0.045075 0.584574 87 42 18 255
0.475258 2.423584 0.524455 87 42 18 255
0.175132 0.049707 0.490923 87 42 18 255
0.249849 0.036121 0.491157 87 42 18 255
0.549975 2.409998 0.524689 87 42 18 255
0.560146 2.571383 0.600112 87 42 18 255
-0.560172 2.369155 0.636026 87 42 18 255
0.560146 2.369155 0.636026 87 42 18 255
-0.560172 2.571383 0.600112 87 42 18 255
-0.560173 2.185857 -0.396100 87 42 18 255
0.560145 2.185857 -0.396100 87 42 18 255
0.140026 2.062447 -2.265625 87 42 18 255
0.560145 2.388084 -0.432014 87 42 18 255
-0.560173 2.388084 -0.432014 87 42 18 255
0.140026 1.860220 -2.229711 87 42 18 255
-0.140054 2.062447 -2.265625 87 42 18 255
-0.140054 1.860220 -2.229711 87 42 18 255
-0.481755 2.405367 0.618340 87 42 18 255
-0.247376 0.045075 0.584574 87 42 18 255
-0.168635 0.031489 0.584808 87 42 18 255
-0.560106 2.423584 0.524455 87 42 18 255
-0.246987 0.049707 0.490923 87 42 18 255
-0.481365 2.409998 0.524689 87 42 18 255
-0.168245 0.036121 0.491157 87 42 18 255
-0.144066 2.062502 -2.264278 87 42 18 255
-0.564185 1.595716 -3.718051 87 42 18 255
-0.144066 1.860275 -2.228364 87 42 18 255
-0.564185 1.797944 -3.753965 186 159 123 255
-0.206231 1.633264 -3.506626 186 159 123 255
-0.564185 1.595716 -3.718051 186 159 123 255
0.556133 1.797944 -3.753965 87 42 18 255
0.136014 1.860275 -2.228364 87 42 18 255
0.556133 1.595716 -3.718051 87 42 18 255
0.234166 1.633264 -3.506626 186 159 123 255
0.136014 1.860275 -2.228364 186 159 123 255
0.136014 2.062502 -2.264278 186 159 123 255
0.234166 1.835492 -3.542540 186 159 123 255
-0.203815 1.835492 -3.542540 186 159 123 255
0.011247 1.595716 -3.718051 186 159 123 255
0.556133 1.595716 -3.718051 186 159 123 255
0.008704 1.797944 -3.753965 186 159 123 255
-0.562080 2.571241 0.601634 87 42 18 255
-1.495678 2.453975 1.115950 87 42 18 255
-0.562080 2.369014 0.637548 87 42 18 255
-1.495678 2.255673 -0.000657 186 159 123 255
-2.293342 2.397743 -0.375308 186 159 123 255
-1.495678 2.457901 -0.036571 186 159 123 255
-0.562080 2.195516 -0.339394 186 159 123 255
-0.562080 2.369014 0.637548 186 159 123 255
-1.495678 2.453975 1.115950 186 159 123 255
-0.562080 2.571241 0.601634 186 159 123 255
-0.562080 2.397743 -0.375309 186 159 123 255
-2.293342 2.195516 -0.339394 186 159 123 255
-3.044311 2.443474 -0.117805 186 159 123 255
-2.293341 2.464293 1.174051 186 159 123 255
-2.293341 2.666521 1.138137 186 159 123 255
-1.495678 2.656202 1.080036 186 159 123 255
-1.495678 2.656202 1.080036 87 42 18 255
-2.293341 2.464293 1.174051 87 42 18 255
-3.879176 2.559194 0.533799 186 159 123 255
-3.044311 2.629063 0.927216 186 159 123 255
-3.044311 2.241246 -0.081890 186 159 123 255
-2.293341 2.666521 1.138137 87 42 18 255
-3.044311 2.426835 0.963130 87 42 18 255
-3.879176 2.397743 -0.375308 186 159 123 255
-4.528804 2.410872 -0.301384 186 159 123 255
-3.044311 2.629063 0.927216 87 42 18 255
-3.879176 2.356967 0.569713 87 42 18 255
-3.879176 2.356967 0.569713 186 159 123 255
-3.879176 2.195516 -0.339394 186 159 123 255
-4.528804 2.410872 -0.301384 89 44 20 255
-4.528804 2.198277 -0.323844 89 44 20 255
-4.528804 2.208644 -0.265469 89 44 20 255
-3.879176 2.559194 0.533799 87 42 18 255
-4.528804 2.208644 -0.265469 87 42 18 255
-4.528804 2.400505 -0.359758 186 159 123 255
-4.528804 2.208644 -0.265469 186 159 123 255
-4.528804 2.198277 -0.323844 186 159 123 255
1.495118 2.455372 1.114820 87 42 18 255
0.561520 2.572638 0.600506 87 42 18 255
0.561520 2.370411 0.636420 87 42 18 255
2.292782 2.399140 -0.376437 186 159 123 255
1.495118 2.257070 -0.001786 186 159 123 255
1.495118 2.459297 -0.037700 186 159 123 255
0.561520 2.196913 -0.340523 186 159 123 255
0.561520 2.370411 0.636420 186 159 123 255
1.495118 2.455372 1.114820 186 159 123 255
0.561520 2.572638 0.600506 186 159 123 255
1.495118 2.657599 1.078906 186 159 123 255
3.043751 2.444871 -0.118934 186 159 123 255
2.292782 2.196913 -0.340523 186 159 123 255
2.292782 2.465690 1.172922 186 159 123 255
2.292782 2.667917 1.137008 186 159 123 255
2.292782 2.465690 1.172922 87 42 18 255
1.495118 2.657599 1.078906 87 42 18 255
3.878617 2.560591 0.532669 186 159 123 255
3.043751 2.630459 0.926086 186 159 123 255
3.043751 2.242644 -0.083020 186 159 123 255
3.043751 2.428232 0.962001 87 42 18 255
2.292782 2.667917 1.137008 87 42 18 255
4.528243 2.412268 -0.302513 186 159 123 255
3.878617 2.399140 -0.376438 186 159 123 255
3.878617 2.358364 0.568583 87 42 18 255
3.043751 2.630459 0.926086 87 42 18 255
3.878617 2.358364 0.568583 186 159 123 255
3.043751 2.428232 0.962001 186 159 123 255
4.528243 2.199674 -0.324974 87 42 18 255
4.528243 2.412268 -0.302513 87 42 18 255
4.528243 2.210041 -0.266599 87 42 18 255
3.878617 2.560591 0.532669 87 42 18 255
4.528243 2.401901 -0.360889 186 159 123 255
3.878617 2.196913 -0.340524 186 159 123 255
4.528243 2.210041 -0.266599 186 159 123 255
0.046666 1.883283 -2.219176 87 42 18 255
0.549585 2.405367 0.618340 87 42 18 255
-0.560496 2.418953 0.618106 87 42 18 255
-0.564185 1.797944 -3.753965 87 42 18 255
0.136014 2.062502 -2.264278 87 42 18 255
-0.144066 1.860275 -2.228364 186 159 123 255
-0.144066 2.062502 -2.264278 186 159 123 255
0.556133 1.797944 -3.753965 186 159 123 255
-3.044311 2.426835 0.963130 186 159 123 255
-4.528804 2.400505 -0.359758 89 44 20 255
-4.528804 2.410872 -0.301384 87 42 18 255
0.561520 2.399140 -0.376437 186 159 123 255
4.528243 2.401901 -0.360889 87 42 18 255
4.528243 2.199674 -0.324974 186 159 123 255
0.050000 -0.495649 -0.751593 98 99 104 255
0.050000 -0.397244 -0.769379 108 109 113 255
0.050000 -0.094870 0.903514 113 115 120 255
0.050000 -0.193276 0.921300 126 127 132 255
-0.050000 -0.094870 0.903514 115 117 122 255
-0.050000 -0.193276 0.921300 115 117 122 255
-0.050000 -0.397244 -0.769379 99 100 105 255
-0.050000 -0.495649 -0.751593 98 99 104 255
-0.300000 -0.494578 -0.400000 101 86 89 255
-0.300000 -0.085404 -0.400000 118 104 108 255
-0.300000 0.066796 0.400000 116 101 105 255
-0.300000 -0.494578 0.400000 92 77 80 255
-0.500000 0.066796 0.400000 116 101 105 255
-0.500000 -0.494578 0.400000 89 74 77 255
-0.500000 -0.085404 -0.400000 116 101 105 255
-0.500000 -0.494578 -0.400000 89 74 77 255
0.500000 -0.494578 -0.400000 88 73 76 255
0.500000 -0.085404 -0.400000 117 103 106 255
0.500000 0.066796 0.400000 117 102 106 255
0.500000 -0.494578 0.400000 92 77 80 255
0.300000 0.066796 0.400000 116 102 105 255
0.300000 -0.494578 0.400000 103 88 92 255
0.300000 -0.085404 -0.400000 117 102 106 255
0.300000 -0.494578 -0.400000 88 73 76 255
3 0 1 2
3 3 4 1
3 5 6 4
3 7 2 6
3 1 6 2
3 3 7 5
3 8 9 10
3 11 12 9
3 13 14 12
3 14 8 10
3 15 16 17
3 17 18 19
3 18 20 19
3 21 15 20
3 22 23 24
3 25 26 23
3 27 28 29
3 29 24 27
3 26 24 23
3 25 29 30
3 26 31 27
3 30 28 32
3 30 33 26
3 34 35 36
3 35 37 38
3 38 39 40
3 39 36 40
3 41 42 43
3 44 45 46
3 47 48 49
3 45 50 51
3 52 53 54
3 55 53 50
3 53 56 50
3 45 57 55
3 58 59 60
3 61 62 63
3 63 64 61
3 61 65 66
3 63 67 68
3 69 70 62
3 61 71 69
3 63 72 73
3 74 75 59
3 70 76 77
3 71 78 69
3 72 70 77
3 79 80 75
3 81 82 76
3 83 84 80
3 78 81 70
3 78 85 86
3 87 88 89
3 90 91 84
3 86 92 81
3 86 93 94
3 95 96 97
3 98 99 100
3 101 100 99
3 102 99 103
3 100 104 105
3 106 107 98
3 99 108 103
3 109 100 105
3 110 111 95
3 112 106 113
3 114 108 107
3 109 106 98
3 115 116 110
3 117 118 112
3 119 120 115
3 118 114 106
3 114 121 122
3 123 124 125
3 125 126 119
3 127 128 118
3 128 129 121
3 0 3 1
3 3 5 4
3 5 7 6
3 7 0 2
3 1 4 6
3 3 0 7
3 8 11 9
3 11 13 12
3 13 130 14
3 14 130 8
3 15 131 16
3 17 16 18
3 18 21 20
3 21 131 15
3 22 25 23
3 25 30 26
3 27 31 28
3 29 22 24
3 26 27 24
3 25 22 29
3 26 33 31
3 30 29 28
3 30 32 33
3 34 132 35
3 35 132 37
3 38 37 39
3 39 34 36
3 41 133 42
3 44 54 45
3 47 134 48
3 51 135 45
3 45 55 50
3 135 46 45
3 50 56 51
3 54 44 136
3 136 52 54
3 53 57 54
3 52 137 53
3 55 57 53
3 53 137 56
3 45 54 57
3 58 74 59
3 61 69 62
3 63 68 64
3 61 64 65
3 63 73 67
3 69 78 70
3 61 66 71
3 63 62 72
3 74 79 75
3 70 81 76
3 71 138 78
3 72 62 70
3 79 83 80
3 81 92 82
3 83 90 84
3 78 86 81
3 78 138 85
3 87 139 88
3 90 140 91
3 86 94 92
3 86 85 93
3 95 111 96
3 98 107 99
3 101 141 100
3 102 101 99
3 100 141 104
3 106 114 107
3 99 107 108
3 109 98 100
3 110 116 111
3 112 118 106
3 114 122 108
3 109 113 106
3 115 120 116
3 117 127 118
3 119 126 120
3 118 128 114
3 114 128 121
3 123 142 124
3 125 124 126
3 127 143 128
3 128 143 129
4 144 145 146 147
4 147 146 148 149
4 149 148 150 151
4 151 150 145 144
4 147 149 151 144
4 148 146 145 150
4 152 153 154 155
4 155 154 156 157
4 157 156 158 159
4 159 158 153 152
4 156 154 153 158
4 160 161 162 163
4 163 162 164 165
4 165 164 166 167
4 167 166 161 160
4 164 162 161 166
