ply
format ascii 1.0
comment Created by Blender 2.82 (sub 7) - www.blender.org, source file: '1gliderlauncher1x1x1.blend'
element vertex 160
property float x
property float y
property float z
property uchar red
property uchar green
property uchar blue
property uchar alpha
element face 176
property list uchar uint vertex_indices
end_header
0.280066 0.062734 0.607119 87 42 18 255
-0.280093 -0.139493 0.643033 87 42 18 255
0.280066 -0.139493 0.643033 87 42 18 255
-0.280093 0.062734 0.607119 87 42 18 255
-0.280093 -0.335389 -0.460025 87 42 18 255
-0.280093 -0.133161 -0.495939 87 42 18 255
0.280066 -0.335389 -0.460025 87 42 18 255
0.280066 -0.133161 -0.495939 87 42 18 255
0.046666 1.899607 -2.127254 87 42 18 255
-0.046694 -0.211466 -0.366479 87 42 18 255
0.046666 -0.211466 -0.366479 87 42 18 255
-0.046694 1.899607 -2.127254 87 42 18 255
-0.046694 -0.227791 -0.458400 87 42 18 255
-0.046694 1.883283 -2.219176 87 42 18 255
0.046666 -0.227791 -0.458400 87 42 18 255
0.249459 0.031489 0.584808 87 42 18 255
0.474868 2.418953 0.618106 87 42 18 255
0.174742 0.045075 0.584574 87 42 18 255
0.475258 2.423584 0.524455 87 42 18 255
0.175132 0.049707 0.490923 87 42 18 255
0.249849 0.036121 0.491157 87 42 18 255
0.549975 2.409998 0.524689 87 42 18 255
0.560833 2.572010 0.600309 87 42 18 255
-0.561126 2.369085 0.636787 87 42 18 255
0.560833 2.369783 0.636223 87 42 18 255
-0.561126 2.571312 0.600873 87 42 18 255
-0.560173 2.185857 -0.396100 87 42 18 255
0.560145 2.185857 -0.396100 87 42 18 255
0.138020 2.062475 -2.264952 87 42 18 255
0.560145 2.388084 -0.432014 87 42 18 255
-0.560173 2.388084 -0.432014 87 42 18 255
0.138020 1.860247 -2.229037 87 42 18 255
-0.142060 2.062475 -2.264952 87 42 18 255
-0.142060 1.860247 -2.229037 87 42 18 255
-0.481755 2.405367 0.618340 87 42 18 255
-0.247377 0.045075 0.584574 87 42 18 255
-0.168635 0.031489 0.584808 87 42 18 255
-0.560106 2.423584 0.524455 87 42 18 255
-0.246987 0.049707 0.490923 87 42 18 255
-0.481365 2.409998 0.524689 87 42 18 255
-0.168245 0.036121 0.491157 87 42 18 255
-0.564185 1.595716 -3.718051 87 42 18 255
-0.564185 1.797944 -3.753965 186 159 123 255
-0.206230 1.633264 -3.506626 186 159 123 255
-0.564185 1.595716 -3.718051 186 159 123 255
0.556133 1.797944 -3.753965 87 42 18 255
0.556133 1.595716 -3.718051 87 42 18 255
0.234166 1.633264 -3.506626 186 159 123 255
0.138020 1.860247 -2.229037 186 159 123 255
0.138020 2.062475 -2.264952 186 159 123 255
0.234166 1.835492 -3.542540 186 159 123 255
-0.203815 1.835492 -3.542540 186 159 123 255
0.011248 1.595716 -3.718051 186 159 123 255
0.556133 1.595716 -3.718051 186 159 123 255
0.008704 1.797944 -3.753965 186 159 123 255
-1.495678 2.453975 1.115950 87 42 18 255
-1.495678 2.255673 -0.000657 186 159 123 255
-2.293342 2.397743 -0.375308 186 159 123 255
-1.495678 2.457901 -0.036571 186 159 123 255
-0.555803 2.200899 -0.339394 186 159 123 255
-0.561126 2.369085 0.636787 186 159 123 255
-1.495678 2.453975 1.115950 186 159 123 255
-0.561126 2.571312 0.600873 186 159 123 255
-0.555844 2.390252 -0.375309 186 159 123 255
-2.293342 2.195516 -0.339394 186 159 123 255
-3.044311 2.443474 -0.117805 186 159 123 255
-2.293341 2.464293 1.174051 186 159 123 255
-2.293341 2.666521 1.138137 186 159 123 255
-1.495678 2.656202 1.080035 186 159 123 255
-1.495678 2.656202 1.080035 87 42 18 255
-2.293341 2.464293 1.174051 87 42 18 255
-3.879176 2.559194 0.533799 186 159 123 255
-3.044311 2.629063 0.927216 186 159 123 255
-3.044311 2.241246 -0.081891 186 159 123 255
-2.293341 2.666521 1.138137 87 42 18 255
-3.044311 2.426835 0.963130 87 42 18 255
-3.879176 2.397743 -0.375308 186 159 123 255
-4.528804 2.410872 -0.301384 186 159 123 255
-3.044311 2.629063 0.927216 87 42 18 255
-3.879176 2.356967 0.569713 87 42 18 255
-3.879176 2.356967 0.569713 186 159 123 255
-3.879176 2.195516 -0.339394 186 159 123 255
-4.528804 2.410872 -0.301384 89 44 20 255
-4.528804 2.198277 -0.323844 89 44 20 255
-4.528804 2.208644 -0.265470 89 44 20 255
-3.879176 2.559194 0.533799 87 42 18 255
-4.528804 2.208644 -0.265470 87 42 18 255
-4.528804 2.400505 -0.359759 186 159 123 255
-4.528804 2.208644 -0.265470 186 159 123 255
-4.528804 2.198277 -0.323844 186 159 123 255
1.495118 2.455372 1.114820 87 42 18 255
2.292782 2.399140 -0.376437 186 159 123 255
1.495118 2.257070 -0.001786 186 159 123 255
1.495118 2.459297 -0.037700 186 159 123 255
0.555514 2.204316 -0.340523 186 159 123 255
0.560833 2.369783 0.636223 186 159 123 255
1.495118 2.455372 1.114820 186 159 123 255
0.560833 2.572010 0.600309 186 159 123 255
1.495118 2.657599 1.078906 186 159 123 255
3.043751 2.444871 -0.118934 186 159 123 255
2.292782 2.196913 -0.340523 186 159 123 255
2.292782 2.465690 1.172922 186 159 123 255
2.292782 2.667917 1.137008 186 159 123 255
2.292782 2.465690 1.172922 87 42 18 255
1.495118 2.657599 1.078906 87 42 18 255
3.878617 2.560591 0.532669 186 159 123 255
3.043751 2.630459 0.926086 186 159 123 255
3.043751 2.242644 -0.083020 186 159 123 255
3.043751 2.428232 0.962001 87 42 18 255
2.292782 2.667917 1.137008 87 42 18 255
4.528243 2.412268 -0.302513 186 159 123 255
3.878617 2.399140 -0.376438 186 159 123 255
3.878617 2.358364 0.568583 87 42 18 255
3.043751 2.630459 0.926086 87 42 18 255
3.878617 2.358364 0.568583 186 159 123 255
3.043751 2.428232 0.962001 186 159 123 255
4.528243 2.199674 -0.324974 87 42 18 255
4.528243 2.412268 -0.302513 87 42 18 255
4.528243 2.210041 -0.266599 87 42 18 255
3.878617 2.560591 0.532669 87 42 18 255
4.528243 2.401901 -0.360888 186 159 123 255
3.878617 2.196913 -0.340523 186 159 123 255
4.528243 2.210041 -0.266599 186 159 123 255
0.046666 1.883283 -2.219176 87 42 18 255
0.549585 2.405367 0.618340 87 42 18 255
-0.560496 2.418953 0.618106 87 42 18 255
-0.564185 1.797944 -3.753965 87 42 18 255
-0.142060 1.860247 -2.229037 186 159 123 255
-0.142060 2.062475 -2.264952 186 159 123 255
0.556133 1.797944 -3.753965 186 159 123 255
-3.044311 2.426835 0.963130 186 159 123 255
-4.528804 2.400505 -0.359759 89 44 20 255
-4.528804 2.410872 -0.301384 87 42 18 255
0.555514 2.384842 -0.376437 186 159 123 255
4.528243 2.401901 -0.360888 87 42 18 255
4.528243 2.199674 -0.324974 186 159 123 255
0.050000 -0.495649 -0.751593 98 99 104 255
0.050000 -0.397244 -0.769379 108 109 113 255
0.050000 -0.094870 0.903514 113 115 120 255
0.050000 -0.193276 0.921300 126 127 132 255
-0.050000 -0.094870 0.903514 115 117 122 255
-0.050000 -0.193276 0.921300 115 117 122 255
-0.050000 -0.397244 -0.769379 99 100 105 255
-0.050000 -0.495649 -0.751593 98 99 104 255
-0.300000 -0.494578 -0.400000 101 86 89 255
-0.300000 -0.085404 -0.400000 118 104 108 255
-0.300000 0.066796 0.400000 116 101 105 255
-0.300000 -0.494578 0.400000 92 77 80 255
-0.500000 0.066796 0.400000 116 101 105 255
-0.500000 -0.494578 0.400000 89 74 77 255
-0.500000 -0.085404 -0.400000 116 101 105 255
-0.500000 -0.494578 -0.400000 89 74 77 255
0.500000 -0.494578 -0.400000 88 73 76 255
0.500000 -0.085404 -0.400000 117 103 106 255
0.500000 0.066796 0.400000 117 102 106 255
0.500000 -0.494578 0.400000 92 77 80 255
0.300000 0.066796 0.400000 116 102 105 255
0.300000 -0.494578 0.400000 103 88 92 255
0.300000 -0.085404 -0.400000 117 102 106 255
0.300000 -0.494578 -0.400000 88 73 76 255
3 0 1 2
3 3 4 1
3 5 6 4
3 7 2 6
3 1 6 2
3 3 7 5
3 8 9 10
3 11 12 9
3 13 14 12
3 14 8 10
3 15 16 17
3 17 18 19
3 18 20 19
3 21 15 20
3 22 23 24
3 25 26 23
3 27 28 29
3 29 24 27
3 26 24 23
3 25 29 30
3 26 31 27
3 30 28 32
3 30 33 26
3 34 35 36
3 35 37 38
3 38 39 40
3 39 36 40
3 32 41 33
3 42 43 44
3 45 31 46
3 43 47 48
3 49 50 51
3 52 50 47
3 50 53 47
3 43 54 52
3 25 55 23
3 56 57 58
3 58 59 56
3 56 60 61
3 58 62 63
3 64 65 57
3 56 66 64
3 58 67 68
3 69 70 55
3 65 71 72
3 66 73 64
3 67 65 72
3 74 75 70
3 76 77 71
3 78 79 75
3 73 76 65
3 73 80 81
3 82 83 84
3 85 86 79
3 81 87 76
3 81 88 89
3 90 22 24
3 91 92 93
3 94 93 92
3 95 92 96
3 93 97 98
3 99 100 91
3 92 101 96
3 102 93 98
3 103 104 90
3 105 99 106
3 107 101 100
3 102 99 91
3 108 109 103
3 110 111 105
3 112 113 108
3 111 107 99
3 107 114 115
3 116 117 118
3 118 119 112
3 120 121 111
3 121 122 114
3 0 3 1
3 3 5 4
3 5 7 6
3 7 0 2
3 1 4 6
3 3 0 7
3 8 11 9
3 11 13 12
3 13 123 14
3 14 123 8
3 15 124 16
3 17 16 18
3 18 21 20
3 21 124 15
3 22 25 23
3 25 30 26
3 27 31 28
3 29 22 24
3 26 27 24
3 25 22 29
3 26 33 31
3 30 29 28
3 30 32 33
3 34 125 35
3 35 125 37
3 38 37 39
3 39 34 36
3 32 126 41
3 42 51 43
3 45 28 31
3 48 127 43
3 43 52 47
3 127 44 43
3 47 53 48
3 51 42 128
3 128 49 51
3 50 54 51
3 49 129 50
3 52 54 50
3 50 129 53
3 43 51 54
3 25 69 55
3 56 64 57
3 58 63 59
3 56 59 60
3 58 68 62
3 64 73 65
3 56 61 66
3 58 57 67
3 69 74 70
3 65 76 71
3 66 130 73
3 67 57 65
3 74 78 75
3 76 87 77
3 78 85 79
3 73 81 76
3 73 130 80
3 82 131 83
3 85 132 86
3 81 89 87
3 81 80 88
3 90 104 22
3 91 100 92
3 94 133 93
3 95 94 92
3 93 133 97
3 99 107 100
3 92 100 101
3 102 91 93
3 103 109 104
3 105 111 99
3 107 115 101
3 102 106 99
3 108 113 109
3 110 120 111
3 112 119 113
3 111 121 107
3 107 121 114
3 116 134 117
3 118 117 119
3 120 135 121
3 121 135 122
4 136 137 138 139
4 139 138 140 141
4 141 140 142 143
4 143 142 137 136
4 139 141 143 136
4 140 138 137 142
4 144 145 146 147
4 147 146 148 149
4 149 148 150 151
4 151 150 145 144
4 148 146 145 150
4 152 153 154 155
4 155 154 156 157
4 157 156 158 159
4 159 158 153 152
4 156 154 153 158
