ply
format ascii 1.0
comment Created by Blender 2.82 (sub 7) - www.blender.org, source file: '1glider.blend'
element vertex 136
property float x
property float y
property float z
property uchar red
property uchar green
property uchar blue
property uchar alpha
element face 160
property list uchar uint vertex_indices
end_header
0.280066 -0.536716 0.486138 87 42 18 255
-0.280093 -0.742107 0.486390 87 42 18 255
0.280066 -0.742108 0.486390 87 42 18 255
-0.280093 -0.536716 0.486137 87 42 18 255
-0.280093 -0.743483 -0.633927 87 42 18 255
-0.280093 -0.538091 -0.634180 87 42 18 255
0.280066 -0.743483 -0.633928 87 42 18 255
0.280066 -0.538091 -0.634180 87 42 18 255
0.046666 1.747070 -1.887725 87 42 18 255
-0.046694 -0.637687 -0.520283 87 42 18 255
0.046666 -0.637687 -0.520283 87 42 18 255
-0.046694 1.747070 -1.887725 87 42 18 255
-0.046694 -0.637802 -0.613643 87 42 18 255
-0.046694 1.746956 -1.981085 87 42 18 255
0.046666 -0.637802 -0.613643 87 42 18 255
0.249459 -0.563612 0.458740 87 42 18 255
0.474868 1.781799 0.906111 87 42 18 255
0.174742 -0.550192 0.460868 87 42 18 255
0.475258 1.802622 0.814687 87 42 18 255
0.175132 -0.529368 0.369444 87 42 18 255
0.249849 -0.542788 0.367316 87 42 18 255
0.549975 1.789202 0.812558 87 42 18 255
0.560833 1.935622 0.915162 87 42 18 255
-0.561126 1.729444 0.915849 87 42 18 255
0.560833 1.730230 0.915414 87 42 18 255
-0.561126 1.934836 0.915596 87 42 18 255
-0.560173 1.728359 -0.133164 87 42 18 255
0.560146 1.728359 -0.133164 87 42 18 255
0.138020 1.931374 -1.995049 87 42 18 255
0.560146 1.933750 -0.133416 87 42 18 255
-0.560173 1.933750 -0.133416 87 42 18 255
0.138020 1.725983 -1.994796 87 42 18 255
-0.142060 1.931374 -1.995049 87 42 18 255
-0.142060 1.725983 -1.994796 87 42 18 255
-0.481755 1.768379 0.903982 87 42 18 255
-0.247377 -0.550192 0.460868 87 42 18 255
-0.168635 -0.563612 0.458740 87 42 18 255
-0.560106 1.802622 0.814687 87 42 18 255
-0.246987 -0.529368 0.369444 87 42 18 255
-0.481365 1.789202 0.812558 87 42 18 255
-0.168245 -0.542788 0.367316 87 42 18 255
-0.564185 1.724035 -3.507124 87 42 18 255
-0.564185 1.929427 -3.507376 186 159 123 255
-0.206231 1.724299 -3.292391 186 159 123 255
-0.564185 1.724035 -3.507124 186 159 123 255
0.556133 1.929427 -3.507376 87 42 18 255
0.556133 1.724035 -3.507124 87 42 18 255
0.234166 1.724299 -3.292391 186 159 123 255
0.138020 1.725983 -1.994796 186 159 123 255
0.138020 1.931374 -1.995049 186 159 123 255
0.234166 1.929690 -3.292643 186 159 123 255
-0.203815 1.929690 -3.292643 186 159 123 255
0.011247 1.724035 -3.507124 186 159 123 255
0.556133 1.724035 -3.507124 186 159 123 255
0.008704 1.929427 -3.507376 186 159 123 255
-1.495678 1.729839 1.402473 87 42 18 255
-1.495678 1.728447 0.268395 186 159 123 255
-2.293342 1.933416 -0.075894 186 159 123 255
-1.495678 1.933839 0.268143 186 159 123 255
-0.555803 1.733326 -0.074708 186 159 123 255
-0.561126 1.729444 0.915849 186 159 123 255
-1.495678 1.729839 1.402473 186 159 123 255
-0.561126 1.934836 0.915596 186 159 123 255
-0.555844 1.926038 -0.077195 186 159 123 255
-2.293342 1.728024 -0.075642 186 159 123 255
-3.044311 1.933737 0.185638 186 159 123 255
-2.293341 1.729912 1.461483 186 159 123 255
-2.293341 1.935303 1.461231 186 159 123 255
-1.495678 1.935231 1.402220 186 159 123 255
-1.495678 1.935231 1.402220 87 42 18 255
-2.293341 1.729912 1.461483 87 42 18 255
-3.879176 1.934550 0.847437 186 159 123 255
-3.044311 1.935040 1.247010 186 159 123 255
-3.044311 1.728345 0.185891 186 159 123 255
-2.293341 1.935303 1.461231 87 42 18 255
-3.044311 1.729649 1.247262 87 42 18 255
-3.879176 1.933416 -0.075894 186 159 123 255
-4.528804 1.933508 -0.000813 186 159 123 255
-3.044311 1.935040 1.247010 87 42 18 255
-3.879176 1.729158 0.847689 87 42 18 255
-3.879176 1.729158 0.847689 186 159 123 255
-3.879176 1.728024 -0.075642 186 159 123 255
-4.528804 1.933508 -0.000813 89 44 20 255
-4.528804 1.728044 -0.059849 89 44 20 255
-4.528804 1.728117 -0.000561 89 44 20 255
-3.879176 1.934550 0.847437 87 42 18 255
-4.528804 1.728117 -0.000561 87 42 18 255
-4.528804 1.933435 -0.060101 186 159 123 255
-4.528804 1.728117 -0.000561 186 159 123 255
-4.528804 1.728044 -0.059849 186 159 123 255
1.495118 1.731411 1.401603 87 42 18 255
2.292782 1.934988 -0.076764 186 159 123 255
1.495118 1.730019 0.267526 186 159 123 255
1.495118 1.935410 0.267274 186 159 123 255
0.555514 1.736887 -0.075226 186 159 123 255
0.560833 1.730230 0.915414 186 159 123 255
1.495118 1.731411 1.401603 186 159 123 255
0.560833 1.935622 0.915162 186 159 123 255
1.495118 1.936802 1.401350 186 159 123 255
3.043751 1.935309 0.184769 186 159 123 255
2.292782 1.729596 -0.076512 186 159 123 255
2.292782 1.731483 1.460614 186 159 123 255
2.292782 1.936875 1.460362 186 159 123 255
2.292782 1.731483 1.460614 87 42 18 255
1.495118 1.936802 1.401350 87 42 18 255
3.878618 1.936121 0.846566 186 159 123 255
3.043751 1.936611 1.246140 186 159 123 255
3.043751 1.729917 0.185021 186 159 123 255
3.043751 1.731220 1.246392 87 42 18 255
2.292782 1.936875 1.460362 87 42 18 255
4.528243 1.935080 -0.001683 186 159 123 255
3.878618 1.934988 -0.076764 186 159 123 255
3.878618 1.730730 0.846819 87 42 18 255
3.043751 1.936611 1.246140 87 42 18 255
3.878618 1.730730 0.846819 186 159 123 255
3.043751 1.731220 1.246392 186 159 123 255
4.528243 1.729616 -0.060719 87 42 18 255
4.528243 1.935080 -0.001683 87 42 18 255
4.528243 1.729688 -0.001431 87 42 18 255
3.878618 1.936121 0.846566 87 42 18 255
4.528243 1.935007 -0.060972 186 159 123 255
3.878618 1.729596 -0.076512 186 159 123 255
4.528243 1.729688 -0.001431 186 159 123 255
0.046666 1.746956 -1.981085 87 42 18 255
0.549585 1.768379 0.903982 87 42 18 255
-0.560496 1.781799 0.906111 87 42 18 255
-0.564185 1.929427 -3.507376 87 42 18 255
-0.142060 1.725983 -1.994796 186 159 123 255
-0.142060 1.931374 -1.995049 186 159 123 255
0.556133 1.929427 -3.507376 186 159 123 255
-3.044311 1.729649 1.247262 186 159 123 255
-4.528804 1.933435 -0.060101 89 44 20 255
-4.528804 1.933508 -0.000813 87 42 18 255
0.555514 1.920907 -0.079246 186 159 123 255
4.528243 1.935007 -0.060972 87 42 18 255
4.528243 1.729616 -0.060719 186 159 123 255
3 0 1 2
3 3 4 1
3 5 6 4
3 7 2 6
3 1 6 2
3 3 7 5
3 8 9 10
3 11 12 9
3 13 14 12
3 14 8 10
3 15 16 17
3 17 18 19
3 18 20 19
3 21 15 20
3 22 23 24
3 25 26 23
3 27 28 29
3 29 24 27
3 26 24 23
3 25 29 30
3 26 31 27
3 30 28 32
3 30 33 26
3 34 35 36
3 35 37 38
3 38 39 40
3 39 36 40
3 32 41 33
3 42 43 44
3 45 31 46
3 43 47 48
3 49 50 51
3 52 50 47
3 50 53 47
3 43 54 52
3 25 55 23
3 56 57 58
3 58 59 56
3 56 60 61
3 58 62 63
3 64 65 57
3 56 66 64
3 58 67 68
3 69 70 55
3 65 71 72
3 66 73 64
3 67 65 72
3 74 75 70
3 76 77 71
3 78 79 75
3 73 76 65
3 73 80 81
3 82 83 84
3 85 86 79
3 81 87 76
3 81 88 89
3 90 22 24
3 91 92 93
3 94 93 92
3 95 92 96
3 93 97 98
3 99 100 91
3 92 101 96
3 102 93 98
3 103 104 90
3 105 99 106
3 107 101 100
3 102 99 91
3 108 109 103
3 110 111 105
3 112 113 108
3 111 107 99
3 107 114 115
3 116 117 118
3 118 119 112
3 120 121 111
3 121 122 114
3 0 3 1
3 3 5 4
3 5 7 6
3 7 0 2
3 1 4 6
3 3 0 7
3 8 11 9
3 11 13 12
3 13 123 14
3 14 123 8
3 15 124 16
3 17 16 18
3 18 21 20
3 21 124 15
3 22 25 23
3 25 30 26
3 27 31 28
3 29 22 24
3 26 27 24
3 25 22 29
3 26 33 31
3 30 29 28
3 30 32 33
3 34 125 35
3 35 125 37
3 38 37 39
3 39 34 36
3 32 126 41
3 42 51 43
3 45 28 31
3 48 127 43
3 43 52 47
3 127 44 43
3 47 53 48
3 51 42 128
3 128 49 51
3 50 54 51
3 49 129 50
3 52 54 50
3 50 129 53
3 43 51 54
3 25 69 55
3 56 64 57
3 58 63 59
3 56 59 60
3 58 68 62
3 64 73 65
3 56 61 66
3 58 57 67
3 69 74 70
3 65 76 71
3 66 130 73
3 67 57 65
3 74 78 75
3 76 87 77
3 78 85 79
3 73 81 76
3 73 130 80
3 82 131 83
3 85 132 86
3 81 89 87
3 81 80 88
3 90 104 22
3 91 100 92
3 94 133 93
3 95 94 92
3 93 133 97
3 99 107 100
3 92 100 101
3 102 91 93
3 103 109 104
3 105 111 99
3 107 115 101
3 102 106 99
3 108 113 109
3 110 120 111
3 112 119 113
3 111 121 107
3 107 121 114
3 116 134 117
3 118 117 119
3 120 135 121
3 121 135 122
