ply
format ascii 1.0
comment Created by Blender 2.78 (sub 0) - www.blender.org, source file: 'glider.blend'
element vertex 168
property float x
property float y
property float z
property uchar red
property uchar green
property uchar blue
element face 180
property list uchar uint vertex_indices
end_header
0.280066 -0.543292 0.414549 87 42 18
-0.280093 -0.748684 0.414549 87 42 18
0.280066 -0.748684 0.414549 87 42 18
-0.280093 -0.543292 0.414549 87 42 18
-0.280093 -0.748684 -0.705769 87 42 18
-0.280093 -0.543292 -0.705769 87 42 18
0.280066 -0.748684 -0.705769 87 42 18
0.280066 -0.543292 -0.705769 87 42 18
0.046666 1.743407 -1.956507 87 42 18
-0.046694 -0.643028 -0.591995 87 42 18
0.046666 -0.643028 -0.591995 87 42 18
-0.046694 1.743407 -1.956507 87 42 18
-0.046694 -0.643028 -0.685354 87 42 18
-0.046694 1.743407 -2.049867 87 42 18
0.046666 -0.643028 -0.685354 87 42 18
-0.046694 -0.643028 -0.685354 255 255 255
0.046666 -0.643028 -0.591995 255 255 255
-0.046694 -0.643028 -0.591995 255 255 255
-0.046694 1.743407 -1.956507 255 255 255
0.046666 1.743407 -2.049867 255 255 255
-0.046694 1.743407 -2.049867 255 255 255
0.249459 -0.570154 0.387119 87 42 18
0.474868 1.774705 0.837369 87 42 18
0.174742 -0.556737 0.389264 87 42 18
0.475258 1.795641 0.745971 87 42 18
0.175132 -0.535801 0.297865 87 42 18
0.249849 -0.549218 0.295720 87 42 18
0.549975 1.782224 0.743825 87 42 18
0.174742 -0.556737 0.389264 100 62 41
0.249849 -0.549218 0.295720 100 62 40
0.249459 -0.570154 0.387119 101 62 41
0.475258 1.795641 0.745971 255 255 255
0.549585 1.761288 0.835224 255 255 255
0.549975 1.782224 0.743825 255 255 255
0.560146 1.927933 0.846305 87 42 18
-0.560172 1.722542 0.846305 87 42 18
0.560146 1.722542 0.846305 87 42 18
-0.560172 1.927933 0.846305 87 42 18
-0.560173 1.722542 -0.201970 87 42 18
0.560145 1.722542 -0.201970 87 42 18
0.140026 1.927933 -2.064272 87 42 18
0.560145 1.927933 -0.201970 87 42 18
-0.560173 1.927933 -0.201970 87 42 18
-0.140054 1.927933 -2.064272 87 42 18
0.140026 1.722542 -2.064272 87 42 18
-0.140054 1.722542 -2.064272 87 42 18
-0.481755 1.761288 0.835224 87 42 18
-0.247376 -0.556737 0.389264 87 42 18
-0.168635 -0.570154 0.387119 87 42 18
-0.560106 1.795641 0.745971 87 42 18
-0.246987 -0.535801 0.297865 87 42 18
-0.481365 1.782224 0.743825 87 42 18
-0.168245 -0.549218 0.295720 87 42 18
-0.247376 -0.556737 0.389264 105 69 48
-0.168245 -0.549218 0.295720 104 67 46
-0.168635 -0.570154 0.387119 105 67 47
-0.560106 1.795641 0.745971 255 255 255
-0.481755 1.761288 0.835224 255 255 255
-0.481365 1.782224 0.743825 255 255 255
0.136014 1.927752 -2.062937 87 42 18
-0.144066 1.722360 -2.062937 87 42 18
0.136014 1.722360 -2.062937 87 42 18
-0.144066 1.927752 -2.062937 87 42 18
-0.564185 1.722360 -3.575933 87 42 18
-0.564185 1.927752 -3.575933 186 159 123
-0.206231 1.722360 -3.361200 186 159 123
-0.564185 1.722360 -3.575933 186 159 123
0.556133 1.927752 -3.575933 87 42 18
0.556133 1.722360 -3.575933 87 42 18
0.234166 1.722360 -3.361200 186 159 123
0.136014 1.722360 -2.062937 186 159 123
0.136014 1.927752 -2.062937 186 159 123
0.234166 1.927752 -3.361200 186 159 123
-0.203815 1.927752 -3.361200 186 159 123
0.011247 1.722360 -3.575933 186 159 123
0.556133 1.722360 -3.575933 186 159 123
0.008704 1.927752 -3.575933 186 159 123
-0.562080 1.927528 0.847780 87 42 18
-1.495678 1.722136 1.333667 87 42 18
-0.562080 1.722136 0.847780 87 42 18
-1.495678 1.722136 0.199589 186 159 123
-2.293342 1.927528 -0.144449 186 159 123
-1.495678 1.927528 0.199589 186 159 123
-0.562080 1.722136 -0.144450 186 159 123
-0.562080 1.927528 -0.144450 186 159 123
-0.562080 1.722136 0.847780 186 159 123
-1.495678 1.722136 1.333667 186 159 123
-0.562080 1.927528 0.847780 186 159 123
-2.293342 1.722136 -0.144449 186 159 123
-3.044311 1.927528 0.117084 186 159 123
-2.293341 1.722136 1.392677 186 159 123
-2.293341 1.927528 1.392677 186 159 123
-1.495678 1.927528 1.333667 186 159 123
-1.495678 1.927528 1.333667 87 42 18
-2.293341 1.722136 1.392677 87 42 18
-3.879176 1.927528 0.778883 186 159 123
-3.044311 1.927528 1.178456 186 159 123
-3.044311 1.722136 0.117084 186 159 123
-2.293341 1.927528 1.392677 87 42 18
-3.044311 1.722136 1.178456 87 42 18
-3.879176 1.927528 -0.144449 186 159 123
-4.528804 1.927528 -0.069368 186 159 123
-3.044311 1.927528 1.178456 87 42 18
-3.879176 1.722136 0.778883 87 42 18
-3.879176 1.722136 0.778883 186 159 123
-3.879176 1.722136 -0.144449 186 159 123
-4.528804 1.927528 -0.069368 89 44 20
-4.528804 1.722136 -0.128656 89 44 20
-4.528804 1.722136 -0.069368 89 44 20
-3.879176 1.927528 0.778883 87 42 18
-4.528804 1.722136 -0.069368 87 42 18
-4.528804 1.927528 -0.128656 186 159 123
-4.528804 1.722136 -0.069368 186 159 123
-4.528804 1.722136 -0.128656 186 159 123
1.495118 1.723709 1.332799 87 42 18
0.561520 1.929101 0.846913 87 42 18
0.561520 1.723709 0.846913 87 42 18
2.292782 1.929101 -0.145317 186 159 123
1.495118 1.723709 0.198721 186 159 123
1.495118 1.929101 0.198721 186 159 123
0.561520 1.723709 -0.145317 186 159 123
0.561520 1.723709 0.846913 186 159 123
0.561520 1.929101 -0.145317 186 159 123
1.495118 1.723709 1.332799 186 159 123
0.561520 1.929101 0.846913 186 159 123
1.495118 1.929101 1.332799 186 159 123
3.043751 1.929101 0.116216 186 159 123
2.292782 1.723709 -0.145317 186 159 123
2.292782 1.723709 1.391810 186 159 123
2.292782 1.929101 1.391810 186 159 123
2.292782 1.723709 1.391810 87 42 18
1.495118 1.929101 1.332799 87 42 18
3.878617 1.929101 0.778014 186 159 123
3.043751 1.929101 1.177588 186 159 123
3.043751 1.723709 0.116216 186 159 123
3.043751 1.723709 1.177588 87 42 18
2.292782 1.929101 1.391810 87 42 18
4.528243 1.929101 -0.070236 186 159 123
3.878617 1.929101 -0.145317 186 159 123
3.878617 1.723709 0.778014 87 42 18
3.043751 1.929101 1.177588 87 42 18
3.878617 1.723709 0.778014 186 159 123
3.043751 1.723709 1.177588 186 159 123
4.528243 1.723709 -0.129525 87 42 18
4.528243 1.929101 -0.070236 87 42 18
4.528243 1.723709 -0.070236 87 42 18
3.878617 1.929101 0.778014 87 42 18
4.528243 1.929101 -0.129525 186 159 123
3.878617 1.723709 -0.145317 186 159 123
4.528243 1.723709 -0.070236 186 159 123
0.046666 1.743407 -2.049867 87 42 18
0.046666 -0.643028 -0.685354 255 255 255
0.046666 1.743407 -1.956507 255 255 255
0.549585 1.761288 0.835224 87 42 18
0.175132 -0.535801 0.297865 100 61 40
0.474868 1.774705 0.837369 255 255 255
-0.560496 1.774705 0.837369 87 42 18
-0.246987 -0.535801 0.297865 105 68 47
-0.560496 1.774705 0.837369 255 255 255
-0.564185 1.927752 -3.575933 87 42 18
-0.144066 1.722360 -2.062937 186 159 123
-0.144066 1.927752 -2.062937 186 159 123
0.556133 1.927752 -3.575933 186 159 123
-3.044311 1.722136 1.178456 186 159 123
-4.528804 1.927528 -0.128656 89 44 20
-4.528804 1.927528 -0.069368 87 42 18
4.528243 1.929101 -0.129525 87 42 18
4.528243 1.723709 -0.129525 186 159 123
3 0 1 2
3 3 4 1
3 5 6 4
3 7 2 6
3 1 6 2
3 3 7 5
3 8 9 10
3 11 12 9
3 13 14 12
3 14 8 10
3 15 16 17
3 18 19 20
3 21 22 23
3 23 24 25
3 24 26 25
3 27 21 26
3 28 29 30
3 31 32 33
3 34 35 36
3 37 38 35
3 39 40 41
3 41 36 39
3 38 36 35
3 37 41 42
3 43 44 45
3 38 44 39
3 42 40 43
3 42 45 38
3 46 47 48
3 47 49 50
3 50 51 52
3 51 48 52
3 53 54 55
3 56 57 58
3 59 60 61
3 62 63 60
3 64 65 66
3 67 61 68
3 65 69 70
3 71 72 73
3 74 72 69
3 72 75 69
3 65 76 74
3 77 78 79
3 80 81 82
3 82 83 80
3 84 85 83
3 80 85 86
3 82 87 84
3 88 89 81
3 80 90 88
3 82 91 92
3 93 94 78
3 89 95 96
3 90 97 88
3 91 89 96
3 98 99 94
3 100 101 95
3 102 103 99
3 97 100 89
3 97 104 105
3 106 107 108
3 109 110 103
3 105 111 100
3 105 112 113
3 114 115 116
3 117 118 119
3 120 119 118
3 121 122 120
3 121 118 123
3 119 124 125
3 126 127 117
3 118 128 123
3 129 119 125
3 130 131 114
3 132 126 133
3 134 128 127
3 129 126 117
3 135 136 130
3 137 138 132
3 139 140 135
3 138 134 126
3 134 141 142
3 143 144 145
3 145 146 139
3 147 148 138
3 148 149 141
3 0 3 1
3 3 5 4
3 5 7 6
3 7 0 2
3 1 4 6
3 3 0 7
3 8 11 9
3 11 13 12
3 13 150 14
3 14 150 8
3 15 151 16
3 18 152 19
3 21 153 22
3 23 22 24
3 24 27 26
3 27 153 21
3 28 154 29
3 31 155 32
3 34 37 35
3 37 42 38
3 39 44 40
3 41 34 36
3 38 39 36
3 37 34 41
3 43 40 44
3 38 45 44
3 42 41 40
3 42 43 45
3 46 156 47
3 47 156 49
3 50 49 51
3 51 46 48
3 53 157 54
3 56 158 57
3 59 62 60
3 62 159 63
3 64 73 65
3 67 59 61
3 70 160 65
3 65 74 69
3 160 66 65
3 69 75 70
3 73 64 161
3 161 71 73
3 72 76 73
3 71 162 72
3 74 76 72
3 72 162 75
3 65 73 76
3 77 93 78
3 80 88 81
3 82 84 83
3 84 87 85
3 80 83 85
3 82 92 87
3 88 97 89
3 80 86 90
3 82 81 91
3 93 98 94
3 89 100 95
3 90 163 97
3 91 81 89
3 98 102 99
3 100 111 101
3 102 109 103
3 97 105 100
3 97 163 104
3 106 164 107
3 109 165 110
3 105 113 111
3 105 104 112
3 114 131 115
3 117 127 118
3 120 122 119
3 121 124 122
3 121 120 118
3 119 122 124
3 126 134 127
3 118 127 128
3 129 117 119
3 130 136 131
3 132 138 126
3 134 142 128
3 129 133 126
3 135 140 136
3 137 147 138
3 139 146 140
3 138 148 134
3 134 148 141
3 143 166 144
3 145 144 146
3 147 167 148
3 148 167 149
