ply
format ascii 1.0
comment Created by Blender 3.3.1 - www.blender.org
element vertex 106
property float x
property float y
property float z
property uchar red
property uchar green
property uchar blue
property uchar alpha
element face 87
property list uchar uint vertex_indices
end_header
-1.495678 1.726237 0.268392 186 159 123 255
-2.293342 1.725815 -0.075646 186 159 123 255
-2.293342 1.931206 -0.075898 186 159 123 255
-1.495678 1.931629 0.268140 186 159 123 255
-0.562080 1.931206 -0.075898 186 159 123 255
-0.562080 1.725815 -0.075646 186 159 123 255
-0.562080 1.932424 0.916331 98 99 104 255
-1.495678 1.933021 1.402217 98 99 104 255
-1.495678 1.727629 1.402469 98 99 104 255
-0.562080 1.727033 0.916583 98 99 104 255
-0.280093 -0.744316 0.486386 98 99 104 255
-0.280093 -0.745692 -0.633931 98 99 104 255
0.280066 -0.745692 -0.633931 98 99 104 255
0.280066 -0.744316 0.486386 98 99 104 255
-3.879176 1.932340 0.847434 98 99 104 255
-4.528804 1.931298 -0.000817 98 99 104 255
-4.528804 1.725907 -0.000564 98 99 104 255
-3.879176 1.726948 0.847686 98 99 104 255
-2.293341 1.933094 1.461228 98 99 104 255
-3.044311 1.932830 1.247006 98 99 104 255
-3.044311 1.727439 1.247259 98 99 104 255
-2.293341 1.727702 1.461480 98 99 104 255
-0.280093 -0.540301 -0.634183 98 99 104 255
0.280066 -0.540301 -0.634183 98 99 104 255
0.280066 -0.538925 0.486134 98 99 104 255
-0.280093 -0.538925 0.486134 98 99 104 255
-0.046694 1.744860 -1.887728 98 99 104 255
-0.046694 1.744746 -1.981088 98 99 104 255
-0.046694 -0.640011 -0.613646 98 99 104 255
-0.046694 -0.639897 -0.520287 98 99 104 255
-0.144066 1.929074 -1.994384 186 159 123 255
0.136014 1.929074 -1.994384 186 159 123 255
0.234166 1.927480 -3.292646 186 159 123 255
-0.203815 1.927480 -3.292646 186 159 123 255
0.475258 1.800412 0.814684 98 99 104 255
0.549975 1.786992 0.812555 98 99 104 255
0.249849 -0.544998 0.367312 98 99 104 255
0.175132 -0.547831 0.366575 98 99 104 255
-0.247377 -0.552401 0.460865 98 99 104 255
-0.560496 1.779589 0.906108 98 99 104 255
-0.560106 1.800412 0.814684 98 99 104 255
-0.246987 -0.555752 0.365178 98 99 104 255
0.249459 -0.565821 0.458736 98 99 104 255
0.549585 1.766169 0.903979 98 99 104 255
0.474868 1.779589 0.906108 98 99 104 255
0.174742 -0.552401 0.460865 98 99 104 255
0.046666 1.744746 -1.981088 98 99 104 255
0.046666 -0.640011 -0.613646 98 99 104 255
0.560145 1.931540 -0.133419 98 99 104 255
0.560146 1.932827 0.914856 98 99 104 255
0.560146 1.727436 0.915108 98 99 104 255
0.560145 1.726149 -0.133167 98 99 104 255
-0.560173 1.931540 -0.133419 98 99 104 255
-0.140053 1.929254 -1.995720 98 99 104 255
-0.140053 1.723863 -1.995468 98 99 104 255
-0.560173 1.726149 -0.133167 98 99 104 255
-0.560172 1.727436 0.915108 98 99 104 255
2.292782 1.932777 -0.076767 186 159 123 255
2.292782 1.727387 -0.076515 186 159 123 255
1.495118 1.727809 0.267523 186 159 123 255
1.495118 1.933200 0.267271 186 159 123 255
3.043751 1.933098 0.184766 186 159 123 255
3.043751 1.727708 0.185018 186 159 123 255
0.140026 1.929254 -1.995720 98 99 104 255
2.292782 1.729274 1.460611 98 99 104 255
2.292782 1.934665 1.460359 98 99 104 255
1.495118 1.934592 1.401347 98 99 104 255
1.495118 1.729201 1.401600 98 99 104 255
-3.044311 1.726136 0.185887 186 159 123 255
-0.481365 1.786992 0.812555 98 99 104 255
-0.168245 -0.544998 0.367312 98 99 104 255
0.140026 1.723863 -1.995468 98 99 104 255
0.011248 1.721825 -3.507127 186 159 123 255
0.008704 1.927217 -3.507380 186 159 123 255
0.234166 1.722089 -3.292394 186 159 123 255
0.561520 1.727387 -0.076515 186 159 123 255
0.561520 1.932777 -0.076767 186 159 123 255
0.136014 1.723683 -1.994132 186 159 123 255
-0.144066 1.723683 -1.994132 186 159 123 255
-0.206230 1.722089 -3.292394 186 159 123 255
3.043751 1.729011 1.246389 98 99 104 255
3.043751 1.934402 1.246137 98 99 104 255
-0.481755 1.766169 0.903979 98 99 104 255
-0.168635 -0.565821 0.458736 98 99 104 255
-0.560172 1.932827 0.914856 98 99 104 255
-0.564185 1.927217 -3.507380 98 99 104 255
-0.564185 1.721825 -3.507127 98 99 104 255
0.046666 1.744860 -1.887728 98 99 104 255
0.046666 -0.639897 -0.520287 98 99 104 255
4.528243 1.727479 -0.001434 98 99 104 255
4.528243 1.932869 -0.001686 98 99 104 255
3.878617 1.933911 0.846563 98 99 104 255
3.878617 1.728520 0.846816 98 99 104 255
-3.879176 1.725815 -0.075646 186 159 123 255
-4.528804 1.725834 -0.059852 186 159 123 255
-4.528804 1.931225 -0.060105 186 159 123 255
-3.879176 1.931206 -0.075898 186 159 123 255
-3.044311 1.931527 0.185635 186 159 123 255
3.878617 1.932777 -0.076767 186 159 123 255
3.878617 1.727387 -0.076515 186 159 123 255
0.561520 1.933996 0.915462 186 159 123 255
4.528243 1.932797 -0.060975 186 159 123 255
4.528243 1.727406 -0.060723 186 159 123 255
0.561520 1.728605 0.915714 186 159 123 255
0.556133 1.927217 -3.507380 98 99 104 255
0.556133 1.721825 -3.507127 98 99 104 255
4 0 1 2 3
4 3 4 5 0
4 6 7 8 9
4 10 11 12 13
4 14 15 16 17
4 18 19 20 21
4 22 23 12 11
4 24 25 10 13
4 26 27 28 29
4 30 31 32 33
4 34 35 36 37
4 38 39 40 41
4 42 43 44 45
4 27 46 47 28
4 48 49 50 51
4 52 53 54 55
4 55 51 50 56
4 57 58 59 60
4 61 62 58 57
4 52 48 63 53
4 0 8 21 1
4 64 65 66 67
4 21 20 68 1
4 41 40 69 70
4 55 54 71 51
4 35 43 42 36
4 25 24 23 22
4 72 73 32 74
4 75 76 60 59
4 45 44 34 37
4 77 78 79 74
4 79 33 73 72
4 80 81 65 64
4 69 82 83 70
4 49 84 56 50
4 7 18 21 8
4 30 85 86 78
4 47 46 87 88
4 0 5 9 8
4 89 90 91 92
4 3 2 18 7
4 65 57 60 66
4 93 94 95 96
4 68 20 17 93
4 18 2 97 19
4 65 81 61 57
4 23 24 13 12
3 96 15 14
4 84 52 55 56
4 98 99 62 61
4 60 76 100 66
4 85 33 79 86
4 84 49 48 52
4 68 93 96 97
3 93 16 94
4 51 71 63 48
4 101 102 99 98
4 25 22 11 10
4 3 7 6 4
4 103 75 59 67
4 1 68 97 2
4 82 39 38 83
4 59 58 64 67
4 102 101 90 89
4 62 99 92 80
4 91 98 61 81
4 62 80 64 58
4 67 66 100 103
3 90 98 91
4 104 31 77 105
4 92 91 81 80
4 97 96 14 19
4 15 95 94 16
4 19 14 17 20
4 32 104 105 74
3 99 89 92
3 79 72 74
3 78 86 79
3 74 105 77
3 33 85 30
3 32 73 33
3 31 104 32
3 96 95 15
3 93 17 16
3 90 101 98
3 99 102 89
4 87 26 29 88
