ply
format ascii 1.0
comment Created by Blender 2.82 (sub 7) - www.blender.org, source file: '2steelgliderlauncher.blend'
element vertex 162
property float x
property float y
property float z
property uchar red
property uchar green
property uchar blue
property uchar alpha
element face 178
property list uchar uint vertex_indices
end_header
-0.448470 0.356957 0.280066 98 99 104 255
-0.576065 0.196006 -0.280093 98 99 104 255
-0.576065 0.196006 0.280066 98 99 104 255
-0.448470 0.356957 -0.280093 98 99 104 255
0.301852 -0.499965 -0.280093 98 99 104 255
0.429447 -0.339013 -0.280093 98 99 104 255
0.301852 -0.499965 0.280066 98 99 104 255
0.429447 -0.339013 0.280066 98 99 104 255
2.830122 0.675925 0.046667 98 99 104 255
0.278331 -0.346490 -0.046694 98 99 104 255
0.278331 -0.346490 0.046666 98 99 104 255
2.830122 0.675925 -0.046693 98 99 104 255
0.351491 -0.404488 -0.046693 98 99 104 255
2.903281 0.617927 -0.046693 98 99 104 255
0.351491 -0.404488 0.046666 98 99 104 255
-0.443662 0.318866 0.249459 98 99 104 255
0.660195 2.436080 0.474868 98 99 104 255
-0.437008 0.330713 0.174742 98 99 104 255
0.744823 2.395706 0.475258 98 99 104 255
-0.352379 0.290340 0.175132 98 99 104 255
-0.359033 0.278493 0.249849 98 99 104 255
0.738169 2.383859 0.549975 98 99 104 255
0.748506 2.562351 0.560833 98 99 104 255
0.620083 2.401053 -0.561126 98 99 104 255
0.620911 2.401400 0.560833 98 99 104 255
0.747678 2.562004 -0.561126 98 99 104 255
1.442249 1.749538 -0.560172 98 99 104 255
1.442249 1.749538 0.560146 98 99 104 255
3.029202 0.753579 0.140026 98 99 104 255
1.569843 1.910489 0.560146 98 99 104 255
1.569843 1.910489 -0.560172 98 99 104 255
2.901608 0.592628 0.140026 98 99 104 255
3.029202 0.753579 -0.140053 98 99 104 255
2.901608 0.592628 -0.140053 98 99 104 255
0.653541 2.424232 -0.481755 98 99 104 255
-0.437008 0.330713 -0.247377 98 99 104 255
-0.443662 0.318866 -0.168635 98 99 104 255
0.744823 2.395706 -0.560106 98 99 104 255
-0.352379 0.290340 -0.246987 98 99 104 255
0.738169 2.383859 -0.481365 98 99 104 255
-0.359033 0.278493 -0.168245 98 99 104 255
3.028043 0.754267 -0.144065 98 99 104 255
4.086080 -0.346598 -0.564185 98 99 104 255
2.900448 0.593315 -0.144065 98 99 104 255
4.213675 -0.185646 -0.564184 186 159 123 255
3.917808 -0.213200 -0.206230 186 159 123 255
4.086080 -0.346598 -0.564185 186 159 123 255
4.213675 -0.185646 0.556133 98 99 104 255
2.900448 0.593315 0.136014 98 99 104 255
4.086080 -0.346598 0.556133 98 99 104 255
3.917808 -0.213200 0.234167 186 159 123 255
2.900448 0.593315 0.136014 186 159 123 255
3.028043 0.754267 0.136014 186 159 123 255
4.045403 -0.052248 0.234167 186 159 123 255
4.045403 -0.052248 -0.203815 186 159 123 255
4.086080 -0.346598 0.011248 186 159 123 255
4.086080 -0.346598 0.556133 186 159 123 255
4.213675 -0.185646 0.008704 186 159 123 255
0.238623 2.703197 -1.495678 98 99 104 255
1.127323 1.998679 -1.495678 186 159 123 255
1.524517 1.945905 -2.293342 186 159 123 255
1.254918 2.159631 -1.495678 186 159 123 255
1.396922 1.794517 -0.557325 186 159 123 255
0.620083 2.401053 -0.561126 186 159 123 255
0.238623 2.703197 -1.495678 186 159 123 255
0.747678 2.562004 -0.561126 186 159 123 255
1.524517 1.935787 -0.552368 186 159 123 255
1.396922 1.784954 -2.293342 186 159 123 255
1.319571 2.108376 -3.044311 186 159 123 255
0.192381 2.739856 -2.293341 186 159 123 255
0.319976 2.900808 -2.293341 186 159 123 255
0.366218 2.864149 -1.495678 186 159 123 255
0.366218 2.864149 -1.495678 98 99 104 255
0.192381 2.739856 -2.293341 98 99 104 255
0.800965 2.519503 -3.879176 186 159 123 255
0.487846 2.767728 -3.044311 186 159 123 255
1.191977 1.947425 -3.044311 186 159 123 255
0.319976 2.900808 -2.293341 98 99 104 255
0.360252 2.606777 -3.044311 98 99 104 255
1.524517 1.945906 -3.879176 186 159 123 255
1.465681 1.992548 -4.528803 186 159 123 255
0.487846 2.767728 -3.044311 98 99 104 255
0.673370 2.358552 -3.879176 98 99 104 255
0.673370 2.358552 -3.879176 186 159 123 255
1.396922 1.784954 -3.879176 186 159 123 255
1.465681 1.992548 -4.528803 98 99 104 255
1.384546 1.794765 -4.528804 98 99 104 255
1.338086 1.831596 -4.528804 98 99 104 255
0.800965 2.519503 -3.879176 98 99 104 255
1.512141 1.955716 -4.528803 186 159 123 255
1.338086 1.831596 -4.528804 186 159 123 255
1.384546 1.794765 -4.528804 186 159 123 255
0.240280 2.703891 1.495118 98 99 104 255
1.526173 1.946599 2.292782 186 159 123 255
1.128979 1.999372 1.495118 186 159 123 255
1.256574 2.160324 1.495118 186 159 123 255
1.398578 1.788219 0.557077 186 159 123 255
0.620911 2.401400 0.560833 186 159 123 255
0.240280 2.703891 1.495118 186 159 123 255
0.748506 2.562351 0.560833 186 159 123 255
0.367875 2.864842 1.495118 186 159 123 255
1.321227 2.109069 3.043751 186 159 123 255
1.398578 1.785648 2.292782 186 159 123 255
0.194037 2.740550 2.292782 186 159 123 255
0.321631 2.901501 2.292782 186 159 123 255
0.194037 2.740550 2.292782 98 99 104 255
0.367875 2.864842 1.495118 98 99 104 255
0.802621 2.520195 3.878618 186 159 123 255
0.489503 2.768421 3.043751 186 159 123 255
1.193633 1.948118 3.043751 186 159 123 255
0.361908 2.607470 3.043751 98 99 104 255
0.321631 2.901501 2.292782 98 99 104 255
1.467337 1.993241 4.528244 186 159 123 255
1.526173 1.946598 3.878618 186 159 123 255
0.675027 2.359244 3.878617 98 99 104 255
0.489503 2.768421 3.043751 98 99 104 255
0.675027 2.359244 3.878617 186 159 123 255
0.361908 2.607470 3.043751 186 159 123 255
1.386202 1.795458 4.528243 98 99 104 255
1.467337 1.993241 4.528244 98 99 104 255
1.339742 1.832289 4.528243 98 99 104 255
0.802621 2.520195 3.878618 98 99 104 255
1.513797 1.956409 4.528244 186 159 123 255
1.398578 1.785647 3.878618 186 159 123 255
1.339742 1.832289 4.528243 186 159 123 255
2.903281 0.617927 0.046667 98 99 104 255
0.653541 2.424232 0.549585 98 99 104 255
0.660195 2.436080 -0.560496 98 99 104 255
4.213675 -0.185646 -0.564184 98 99 104 255
3.028043 0.754267 0.136014 98 99 104 255
2.900448 0.593315 -0.144065 186 159 123 255
3.028043 0.754267 -0.144065 186 159 123 255
4.213675 -0.185646 0.556133 186 159 123 255
0.360252 2.606777 -3.044311 186 159 123 255
1.512141 1.955716 -4.528803 98 99 104 255
1.526173 1.936751 0.557517 186 159 123 255
1.513797 1.956409 4.528244 98 99 104 255
1.386202 1.795458 4.528243 186 159 123 255
0.500004 -0.500111 0.524400 140 142 148 255
0.500004 0.299889 0.524400 140 142 148 255
-0.499997 0.299889 0.524400 140 142 148 255
-0.499997 -0.500111 0.524400 140 142 148 255
-0.499997 0.299889 0.284400 140 142 148 255
-0.499997 -0.500111 0.284400 140 142 148 255
0.500004 0.299889 0.284400 140 142 148 255
0.500004 -0.500111 0.284400 140 142 148 255
0.500004 -0.500111 -0.283824 140 142 148 255
0.500004 0.299889 -0.283824 140 142 148 255
-0.499996 0.299889 -0.283824 143 145 151 255
-0.499996 -0.500111 -0.283824 142 144 150 255
-0.499996 0.299889 -0.523824 140 142 148 255
-0.499996 -0.500111 -0.523824 140 142 148 255
0.500004 0.299889 -0.523824 140 142 148 255
0.500004 -0.500111 -0.523824 140 142 148 255
0.081567 -0.505043 0.032065 182 122 53 255
0.168451 -0.395266 0.032065 182 122 53 255
-0.615672 0.225339 0.032065 183 124 56 255
-0.702557 0.115562 0.032065 180 121 53 255
-0.615672 0.225339 -0.107935 187 136 73 255
-0.702557 0.115562 -0.107935 176 119 52 255
0.168451 -0.395266 -0.107935 182 122 53 255
0.081567 -0.505043 -0.107935 182 122 53 255
3 0 1 2
3 3 4 1
3 5 6 4
3 7 2 6
3 1 6 2
3 3 7 5
3 8 9 10
3 11 12 9
3 13 14 12
3 14 8 10
3 15 16 17
3 17 18 19
3 18 20 19
3 21 15 20
3 22 23 24
3 25 26 23
3 27 28 29
3 29 24 27
3 26 24 23
3 25 29 30
3 26 31 27
3 30 28 32
3 30 33 26
3 34 35 36
3 35 37 38
3 38 39 40
3 39 36 40
3 41 42 43
3 44 45 46
3 47 48 49
3 45 50 51
3 52 53 54
3 55 53 50
3 53 56 50
3 45 57 55
3 25 58 23
3 59 60 61
3 61 62 59
3 59 63 64
3 61 65 66
3 67 68 60
3 59 69 67
3 61 70 71
3 72 73 58
3 68 74 75
3 69 76 67
3 70 68 75
3 77 78 73
3 79 80 74
3 81 82 78
3 76 79 68
3 76 83 84
3 85 86 87
3 88 87 82
3 84 89 79
3 84 90 91
3 92 22 24
3 93 94 95
3 96 95 94
3 97 94 98
3 95 99 100
3 101 102 93
3 94 103 98
3 104 95 100
3 105 106 92
3 107 101 108
3 109 103 102
3 104 101 93
3 110 111 105
3 112 113 107
3 114 115 110
3 113 109 101
3 109 116 117
3 118 119 120
3 120 121 114
3 122 123 113
3 123 124 116
3 0 3 1
3 3 5 4
3 5 7 6
3 7 0 2
3 1 4 6
3 3 0 7
3 8 11 9
3 11 13 12
3 13 125 14
3 14 125 8
3 15 126 16
3 17 16 18
3 18 21 20
3 21 126 15
3 22 25 23
3 25 30 26
3 27 31 28
3 29 22 24
3 26 27 24
3 25 22 29
3 26 33 31
3 30 29 28
3 30 32 33
3 34 127 35
3 35 127 37
3 38 37 39
3 39 34 36
3 41 128 42
3 44 54 45
3 47 129 48
3 51 130 45
3 45 55 50
3 130 46 45
3 50 56 51
3 54 44 131
3 131 52 54
3 53 57 54
3 52 132 53
3 55 57 53
3 53 132 56
3 45 54 57
3 25 72 58
3 59 67 60
3 61 66 62
3 59 62 63
3 61 71 65
3 67 76 68
3 59 64 69
3 61 60 70
3 72 77 73
3 68 79 74
3 69 133 76
3 70 60 68
3 77 81 78
3 79 89 80
3 81 88 82
3 76 84 79
3 76 133 83
3 85 134 86
3 88 85 87
3 84 91 89
3 84 83 90
3 92 106 22
3 93 102 94
3 96 135 95
3 97 96 94
3 95 135 99
3 101 109 102
3 94 102 103
3 104 93 95
3 105 111 106
3 107 113 101
3 109 117 103
3 104 108 101
3 110 115 111
3 112 122 113
3 114 121 115
3 113 123 109
3 109 123 116
3 118 136 119
3 120 119 121
3 122 137 123
3 123 137 124
4 138 139 140 141
4 141 140 142 143
4 143 142 144 145
4 145 144 139 138
4 141 143 145 138
4 142 140 139 144
4 146 147 148 149
4 149 148 150 151
4 151 150 152 153
4 153 152 147 146
4 149 151 153 146
4 150 148 147 152
4 154 155 156 157
4 157 156 158 159
4 159 158 160 161
4 161 160 155 154
4 157 159 161 154
4 158 156 155 160
