ply
format ascii 1.0
comment Created by Blender 2.82 (sub 7) - www.blender.org, source file: '2steelglider.blend'
element vertex 134
property float x
property float y
property float z
property uchar red
property uchar green
property uchar blue
property uchar alpha
element face 87
property list uchar uint vertex_indices
end_header
-1.495678 1.726237 0.268392 186 159 123 255
-2.293342 1.725815 -0.075645 186 159 123 255
-2.293342 1.931207 -0.075898 186 159 123 255
-1.495678 1.931629 0.268140 186 159 123 255
-0.555000 1.922810 -0.075898 186 159 123 255
-0.554648 1.735123 -0.075646 186 159 123 255
-0.561126 1.932626 0.915593 98 99 104 255
-1.495677 1.933021 1.402217 98 99 104 255
-1.495678 1.727630 1.402470 98 99 104 255
-0.561126 1.727235 0.915845 98 99 104 255
-0.280093 -0.744316 0.486386 98 99 104 255
-0.280093 -0.745692 -0.633931 98 99 104 255
0.280066 -0.745692 -0.633931 98 99 104 255
0.280066 -0.744316 0.486386 98 99 104 255
-3.879176 1.932340 0.847434 98 99 104 255
-4.528803 1.931299 -0.000816 98 99 104 255
-4.528803 1.725907 -0.000564 98 99 104 255
-3.879176 1.726949 0.847686 98 99 104 255
-2.293341 1.933094 1.461228 98 99 104 255
-3.044311 1.932831 1.247007 98 99 104 255
-3.044311 1.727439 1.247259 98 99 104 255
-2.293341 1.727702 1.461480 98 99 104 255
-0.280093 -0.540301 -0.634183 98 99 104 255
0.280066 -0.540301 -0.634183 98 99 104 255
0.280066 -0.538925 0.486134 98 99 104 255
-0.280093 -0.538925 0.486134 98 99 104 255
-0.046693 1.744860 -1.887728 98 99 104 255
-0.046693 1.744746 -1.981088 98 99 104 255
-0.046694 -0.640011 -0.613646 98 99 104 255
-0.046694 -0.639897 -0.520287 98 99 104 255
-0.142059 1.929164 -1.995052 186 159 123 255
0.138020 1.929164 -1.995052 186 159 123 255
0.234167 1.927480 -3.292646 186 159 123 255
-0.203815 1.927480 -3.292646 186 159 123 255
0.475258 1.800412 0.814684 98 99 104 255
0.549976 1.786992 0.812555 98 99 104 255
0.249849 -0.544998 0.367312 98 99 104 255
0.175132 -0.547831 0.366575 98 99 104 255
-0.247377 -0.552401 0.460865 98 99 104 255
-0.560495 1.779589 0.906108 98 99 104 255
-0.560106 1.800413 0.814684 98 99 104 255
-0.246987 -0.555752 0.365178 98 99 104 255
0.249459 -0.565821 0.458736 98 99 104 255
0.549586 1.766169 0.903979 98 99 104 255
0.474869 1.779589 0.906108 98 99 104 255
0.174742 -0.552401 0.460865 98 99 104 255
0.046666 1.744746 -1.981088 98 99 104 255
0.046666 -0.640011 -0.613646 98 99 104 255
0.560146 1.931540 -0.133419 98 99 104 255
0.560833 1.933411 0.915159 98 99 104 255
0.560833 1.728020 0.915411 98 99 104 255
0.560146 1.726149 -0.133167 98 99 104 255
-0.560172 1.931541 -0.133419 98 99 104 255
-0.142059 1.929164 -1.995052 98 99 104 255
-0.142059 1.723773 -1.994800 98 99 104 255
-0.560172 1.726149 -0.133167 98 99 104 255
2.292782 1.932777 -0.076767 186 159 123 255
2.292782 1.727386 -0.076515 186 159 123 255
1.495118 1.727808 0.267523 186 159 123 255
1.495118 1.933200 0.267270 186 159 123 255
3.043751 1.933098 0.184765 186 159 123 255
3.043751 1.727707 0.185018 186 159 123 255
0.138020 1.929164 -1.995052 98 99 104 255
-1.495678 1.727630 1.402470 186 159 123 255
-2.293341 1.727702 1.461480 186 159 123 255
2.292782 1.729274 1.460611 98 99 104 255
2.292782 1.934664 1.460359 98 99 104 255
1.495119 1.934592 1.401347 98 99 104 255
1.495119 1.729201 1.401599 98 99 104 255
-3.044311 1.727439 1.247259 186 159 123 255
-3.044311 1.726136 0.185887 186 159 123 255
-0.481365 1.786992 0.812555 98 99 104 255
-0.168245 -0.544998 0.367312 98 99 104 255
0.138020 1.723773 -1.994800 98 99 104 255
0.011248 1.721825 -3.507127 186 159 123 255
0.008704 1.927217 -3.507380 186 159 123 255
0.234167 1.722089 -3.292394 186 159 123 255
0.558560 1.734165 -0.076515 186 159 123 255
0.559872 1.930814 -0.076767 186 159 123 255
0.138020 1.723773 -1.994800 186 159 123 255
-0.142059 1.723773 -1.994800 186 159 123 255
-0.206230 1.722089 -3.292394 186 159 123 255
3.043751 1.729010 1.246389 98 99 104 255
3.043751 1.934401 1.246137 98 99 104 255
-0.481754 1.766169 0.903979 98 99 104 255
-0.168635 -0.565821 0.458736 98 99 104 255
-0.564185 1.927217 -3.507380 98 99 104 255
-0.564185 1.721825 -3.507127 98 99 104 255
0.046666 1.744860 -1.887728 98 99 104 255
0.046666 -0.639897 -0.520287 98 99 104 255
-0.561126 1.727235 0.915845 186 159 123 255
4.528244 1.727478 -0.001434 98 99 104 255
4.528244 1.932869 -0.001686 98 99 104 255
3.878618 1.933911 0.846563 98 99 104 255
3.878618 1.728520 0.846815 98 99 104 255
-2.293341 1.933094 1.461228 186 159 123 255
-1.495677 1.933021 1.402217 186 159 123 255
2.292782 1.934664 1.460359 186 159 123 255
1.495119 1.934592 1.401347 186 159 123 255
-3.879176 1.725815 -0.075645 186 159 123 255
-4.528803 1.725835 -0.059852 186 159 123 255
-4.528803 1.931226 -0.060104 186 159 123 255
-3.879176 1.931207 -0.075897 186 159 123 255
-3.879176 1.726949 0.847686 186 159 123 255
-3.044311 1.931528 0.185635 186 159 123 255
-3.044311 1.932831 1.247007 186 159 123 255
3.043751 1.934401 1.246137 186 159 123 255
-4.528803 1.931299 -0.000816 186 159 123 255
-3.879176 1.932340 0.847434 186 159 123 255
3.878618 1.932777 -0.076767 186 159 123 255
3.878618 1.727386 -0.076515 186 159 123 255
0.560833 1.933411 0.915159 186 159 123 255
-0.564185 1.927217 -3.507380 186 159 123 255
-0.564185 1.721825 -3.507127 186 159 123 255
-4.528803 1.725907 -0.000564 186 159 123 255
4.528244 1.932796 -0.060975 186 159 123 255
4.528244 1.727405 -0.060723 186 159 123 255
-0.561126 1.932626 0.915593 186 159 123 255
0.560833 1.728020 0.915411 186 159 123 255
1.495119 1.729201 1.401599 186 159 123 255
2.292782 1.729274 1.460611 186 159 123 255
4.528244 1.727405 -0.060723 98 99 104 255
4.528244 1.932796 -0.060975 98 99 104 255
3.878618 1.728520 0.846815 186 159 123 255
3.043751 1.729010 1.246389 186 159 123 255
3.878618 1.933911 0.846563 186 159 123 255
4.528244 1.932869 -0.001686 186 159 123 255
0.556133 1.927217 -3.507380 98 99 104 255
0.556133 1.721825 -3.507127 98 99 104 255
-4.528803 1.931226 -0.060104 98 99 104 255
-4.528803 1.725835 -0.059852 98 99 104 255
0.556133 1.927217 -3.507380 186 159 123 255
0.556133 1.721825 -3.507127 186 159 123 255
4.528244 1.727478 -0.001434 186 159 123 255
4 0 1 2 3
4 3 4 5 0
4 6 7 8 9
4 10 11 12 13
4 14 15 16 17
4 18 19 20 21
4 22 23 12 11
4 24 25 10 13
4 26 27 28 29
4 30 31 32 33
4 34 35 36 37
4 38 39 40 41
4 42 43 44 45
4 27 46 47 28
4 48 49 50 51
4 52 53 54 55
4 55 51 50 9
4 56 57 58 59
4 60 61 57 56
4 52 48 62 53
4 0 63 64 1
4 65 66 67 68
4 64 69 70 1
4 41 40 71 72
4 55 54 73 51
4 35 43 42 36
4 25 24 23 22
4 74 75 32 76
4 77 78 59 58
4 45 44 34 37
4 79 80 81 76
4 81 33 75 74
4 82 83 66 65
4 71 84 85 72
4 49 6 9 50
4 7 18 21 8
4 53 86 87 54
4 47 46 88 89
4 0 5 90 63
4 91 92 93 94
4 3 2 95 96
4 97 56 59 98
4 99 100 101 102
4 70 69 103 99
4 95 2 104 105
4 97 106 60 56
4 23 24 13 12
3 102 107 108
4 6 52 55 9
4 109 110 61 60
4 59 78 111 98
4 112 33 81 113
4 6 49 48 52
4 70 99 102 104
3 99 114 100
4 51 73 62 48
4 115 116 110 109
4 25 22 11 10
4 3 96 117 4
4 118 77 58 119
4 1 70 104 2
4 84 39 38 85
4 58 57 120 119
4 121 122 92 91
4 61 110 123 124
4 125 109 60 106
4 61 124 120 57
4 68 67 49 50
3 126 109 125
4 127 62 73 128
4 94 93 83 82
4 104 102 108 105
4 15 129 130 16
4 19 14 17 20
4 32 131 132 76
3 110 133 123
3 81 74 76
3 80 113 81
3 76 132 79
3 33 112 30
3 32 75 33
3 31 131 32
3 102 101 107
3 99 103 114
3 126 115 109
3 110 116 133
4 88 26 29 89
