ply
format ascii 1.0
comment Created by Blender 2.83.20 - www.blender.org, source file: ''
element vertex 28
property float x
property float y
property float z
property uchar red
property uchar green
property uchar blue
property uchar alpha
element face 38
property list uchar uint vertex_indices
end_header
-0.096991 1.894529 0.040329 113 77 65 255
-0.196543 -0.600000 0.030876 88 51 36 255
-0.096991 -0.600000 0.040329 88 51 36 255
-0.196543 1.894529 0.030876 106 65 51 255
-0.187089 -0.600000 -0.068677 89 53 38 255
-0.187089 1.894529 -0.068676 105 63 48 255
-0.087537 -0.600000 -0.059223 88 52 36 255
-0.087537 1.894529 -0.059223 106 66 51 255
0.054478 1.700836 -0.497761 89 55 41 255
-0.139611 1.700836 0.488307 92 60 49 255
-0.040059 1.700836 0.497760 88 51 35 255
-0.045074 1.700836 -0.507215 88 51 35 255
-0.139611 1.600836 0.488307 88 51 35 255
-0.045074 1.600836 -0.507215 89 52 37 255
-0.040059 1.600836 0.497760 94 66 59 255
0.054478 1.600836 -0.497761 88 51 35 255
-0.090374 1.609055 0.392927 228 165 85 255
-0.052559 0.462103 -0.005281 255 174 30 255
-0.090374 0.150295 0.392927 255 176 40 255
-0.070464 0.150295 0.394818 255 174 23 255
-0.032649 0.462103 -0.003391 255 175 31 255
-0.070464 1.609055 0.394818 228 165 85 255
0.005052 0.150295 -0.400398 255 174 23 255
-0.014858 1.609055 -0.402288 229 168 92 255
-0.014858 0.150295 -0.402288 255 175 38 255
0.005052 1.609055 -0.400398 228 165 85 255
-0.032649 1.609055 -0.003391 228 165 85 255
-0.052559 1.609055 -0.005281 228 165 85 255
3 0 1 2
3 3 4 1
3 5 6 4
3 7 2 6
3 5 7 6
3 3 7 5
3 8 9 10
3 11 12 9
3 13 14 12
3 15 10 14
3 12 10 9
3 11 15 13
3 3 5 4
3 16 17 18
3 17 19 18
3 20 21 19
3 18 21 16
3 17 22 20
3 23 22 24
3 0 3 1
3 20 25 26
3 17 23 24
3 7 0 2
3 3 0 7
3 8 11 9
3 11 13 12
3 13 15 14
3 15 8 10
3 12 14 10
3 11 8 15
3 16 27 17
3 17 20 19
3 20 26 21
3 18 19 21
3 17 24 22
3 23 25 22
3 20 22 25
3 17 27 23
