ply
format ascii 1.0
comment Created in Blender version 4.2.3 LTS
element vertex 28
property float x
property float y
property float z
property uchar red
property uchar green
property uchar blue
property uchar alpha
element face 38
property list uchar uint vertex_indices
end_header
-0.09274369 -0.5047553 0.049317554 87 51 35 255
-0.09274369 1.8945293 0.049317554 113 76 65 255
-0.19274369 -0.5047553 0.04931757 87 51 35 255
-0.19274369 1.8945293 0.04931757 106 65 51 255
-0.0927437 -0.5047553 -0.05068245 87 52 35 255
-0.0927437 1.8945293 -0.05068245 106 66 51 255
-0.19274369 -0.5047553 -0.050682425 88 52 38 255
-0.19274369 1.8945293 -0.050682425 104 63 47 255
0.007176948 1.7008361 0.49931756 87 51 34 255
0.0071768286 1.7008361 -0.5006825 88 54 41 255
-0.09282305 1.7008361 0.49931756 91 60 49 255
-0.09282318 1.7008361 -0.5006825 87 51 34 255
0.007176948 1.6008362 0.49931756 93 66 59 255
0.0071768286 1.600836 -0.5006825 87 51 34 255
-0.09282305 1.6008362 0.49931756 87 51 34 255
-0.09282318 1.600836 -0.5006825 88 52 37 255
-0.032823063 1.6090552 0.39971134 227 165 84 255
-0.032823123 1.609055 -0.00028865293 227 165 84 255
-0.052823044 1.6090552 0.39971134 227 165 84 255
-0.052823123 1.609055 -0.00028865715 227 165 84 255
-0.032823063 0.15029526 0.39971146 254 174 22 255
-0.032823123 0.4621026 -0.00028859332 254 175 30 255
-0.052823093 0.15029526 0.39971146 254 176 40 255
-0.052823123 0.4621026 -0.00028859157 254 174 29 255
-0.032823183 1.609055 -0.39908165 227 165 84 255
-0.052823164 1.609055 -0.39908162 228 168 91 255
-0.052823186 0.15029526 -0.39908156 254 175 38 255
-0.032823157 0.15029526 -0.39908156 254 174 22 255
3 1 2 0
3 3 6 2
3 7 4 6
3 5 0 4
3 7 5 4
3 3 5 7
3 9 10 8
3 11 14 10
3 15 12 14
3 13 8 12
3 14 8 10
3 11 13 15
3 3 7 6
3 18 23 22
3 23 20 22
3 21 16 20
3 22 16 18
3 23 27 21
3 25 27 26
3 1 3 2
3 21 24 17
3 23 25 26
3 5 1 0
3 3 1 5
3 9 11 10
3 11 15 14
3 15 13 12
3 13 9 8
3 14 12 8
3 11 9 13
3 18 19 23
3 23 21 20
3 21 17 16
3 22 20 16
3 23 26 27
3 25 24 27
3 21 27 24
3 23 19 25
