ply
format ascii 1.0
comment Created by Blender 2.82 (sub 7) - www.blender.org, source file: '3StatueOfAttractionUpdated.blend'
element vertex 28
property float x
property float y
property float z
property uchar red
property uchar green
property uchar blue
property uchar alpha
element face 38
property list uchar uint vertex_indices
end_header
-0.092744 1.894529 0.049318 113 77 65 255
-0.192744 -0.504755 0.049318 88 51 36 255
-0.092744 -0.504755 0.049318 88 51 36 255
-0.192744 1.894529 0.049318 106 65 51 255
-0.192744 -0.504755 -0.050682 89 53 38 255
-0.192744 1.894529 -0.050682 105 63 48 255
-0.092744 -0.504755 -0.050682 88 52 36 255
-0.092744 1.894529 -0.050682 106 66 51 255
0.007177 1.700836 -0.500682 89 55 41 255
-0.092823 1.700836 0.499318 92 60 49 255
0.007177 1.700836 0.499318 88 51 35 255
-0.092823 1.700836 -0.500682 88 51 35 255
-0.092823 1.600836 0.499318 88 51 35 255
-0.092823 1.600836 -0.500682 89 52 37 255
0.007177 1.600836 0.499318 94 66 59 255
0.007177 1.600836 -0.500682 88 51 35 255
-0.052823 1.609055 0.399711 228 165 85 255
-0.052823 0.462103 -0.000289 255 174 30 255
-0.052823 0.150295 0.399711 255 176 40 255
-0.032823 0.150295 0.399711 255 174 23 255
-0.032823 0.462103 -0.000289 255 175 31 255
-0.032823 1.609055 0.399711 228 165 85 255
-0.032823 0.150295 -0.399082 255 174 23 255
-0.052823 1.609055 -0.399082 229 168 92 255
-0.052823 0.150295 -0.399082 255 175 38 255
-0.032823 1.609055 -0.399082 228 165 85 255
-0.032823 1.609055 -0.000289 228 165 85 255
-0.052823 1.609055 -0.000289 228 165 85 255
3 0 1 2
3 3 4 1
3 5 6 4
3 7 2 6
3 5 7 6
3 3 7 5
3 8 9 10
3 11 12 9
3 13 14 12
3 15 10 14
3 12 10 9
3 11 15 13
3 3 5 4
3 16 17 18
3 17 19 18
3 20 21 19
3 18 21 16
3 17 22 20
3 23 22 24
3 0 3 1
3 20 25 26
3 17 23 24
3 7 0 2
3 3 0 7
3 8 11 9
3 11 13 12
3 13 15 14
3 15 8 10
3 12 14 10
3 11 8 15
3 16 27 17
3 17 20 19
3 20 26 21
3 18 19 21
3 17 24 22
3 23 25 22
3 20 22 25
3 17 27 23
