ply
format ascii 1.0
comment Created by Blender 3.3.1 - www.blender.org
element vertex 112
property float x
property float y
property float z
property uchar red
property uchar green
property uchar blue
property uchar alpha
element face 100
property list uchar uint vertex_indices
end_header
-0.104182 -0.236497 -0.309043 71 32 25 255
-0.155481 -0.154444 -0.314679 71 32 25 255
-0.113883 -0.129116 -0.314679 71 32 25 255
-0.104182 -0.236497 -0.285805 71 32 25 255
-0.155481 -0.154444 -0.280414 71 32 25 255
-0.178381 -0.216731 -0.280414 71 32 25 255
-0.362325 0.829686 -0.285106 44 52 57 255
-0.383142 0.823825 -0.272620 43 51 56 255
-0.403959 0.817963 -0.285106 43 51 56 255
-0.484172 1.182626 -0.254126 43 51 56 255
-0.447939 1.192829 -0.275859 43 51 56 255
-0.447939 1.192829 -0.319325 43 51 56 255
-0.361816 0.551382 -0.336509 187 131 87 255
-0.433403 0.629109 -0.361049 187 131 87 255
-0.370228 0.629109 -0.311968 187 131 87 255
-0.361816 0.551382 -0.256509 187 131 87 255
-0.432670 0.629109 -0.231053 187 131 87 255
-0.441816 0.551382 -0.256509 187 131 87 255
-0.433403 0.707691 -0.361049 187 131 87 255
-0.370962 0.707691 -0.281965 187 131 87 255
-0.370228 0.707691 -0.311968 187 131 87 255
-0.333267 0.680274 -0.288934 71 32 25 255
-0.333267 0.680274 -0.306159 71 32 25 255
-0.376521 0.836937 -0.306159 61 64 67 255
-0.376521 0.836937 -0.288934 62 62 65 255
-0.138552 -0.042526 -0.278009 94 98 102 255
-0.121569 -0.144536 -0.278009 94 98 102 255
-0.096832 -0.137571 -0.278009 94 98 102 255
-0.124693 -0.038624 -0.278009 94 98 102 255
-0.328307 0.707691 -0.496326 187 131 87 255
-0.328307 0.629109 -0.496326 187 131 87 255
-0.179743 -0.057707 -0.280414 71 32 25 255
-0.113883 -0.129116 -0.280414 71 32 25 255
-0.129567 -0.043770 -0.280414 71 32 25 255
-0.392324 0.936226 -0.310078 43 51 56 255
-0.392324 0.936226 -0.285106 43 51 56 255
-0.362325 0.829686 -0.310078 43 51 56 255
-0.178381 -0.216731 -0.314679 71 32 25 255
-0.265132 0.629109 -0.447246 187 131 87 255
-0.144349 -0.501182 -0.280414 71 32 25 255
-0.049967 -0.475082 -0.280414 71 32 25 255
-0.278596 0.629109 -0.170012 187 131 87 255
-0.370962 0.629109 -0.281965 187 131 87 255
-0.278596 0.707691 -0.170012 187 131 87 255
-0.079771 -0.129082 -0.284632 94 98 102 255
-0.109446 -0.068173 -0.284632 94 98 102 255
-0.170998 -0.119359 -0.284632 94 98 102 255
-0.164423 -0.142709 -0.284632 94 98 102 255
-0.413141 0.930364 -0.322564 43 51 56 255
-0.383142 0.823825 -0.322564 43 51 56 255
-0.340304 0.629109 -0.119100 187 131 87 255
-0.096832 -0.137571 -0.315701 97 101 105 255
-0.121569 -0.144536 -0.315701 94 98 102 255
-0.138552 -0.042526 -0.315701 94 98 102 255
-0.124693 -0.038624 -0.315701 94 98 102 255
-0.441816 0.551382 -0.336509 187 131 87 255
-0.520405 1.172424 -0.319325 43 51 56 255
-0.460360 0.959178 -0.319325 43 51 56 255
-0.460360 0.959178 -0.275859 43 51 56 255
-0.520405 1.172424 -0.275859 43 51 56 255
-0.144349 -0.501182 -0.314679 71 32 25 255
-0.049967 -0.475082 -0.314679 71 32 25 255
-0.424127 0.969380 -0.341057 43 51 56 255
-0.433958 0.924503 -0.310078 43 51 56 255
-0.441816 -0.403939 -0.256509 187 131 87 255
-0.361816 -0.403939 -0.256509 187 131 87 255
-0.179743 -0.057707 -0.314679 71 32 25 255
-0.129567 -0.043770 -0.314679 71 32 25 255
-0.377607 0.746858 -0.283277 61 64 67 255
-0.377607 0.746858 -0.311735 61 64 67 255
-0.373355 0.731375 -0.311735 61 64 67 255
-0.373355 0.731375 -0.283277 61 64 67 255
-0.361816 -0.403939 -0.336509 187 131 87 255
-0.441816 -0.403939 -0.336509 187 131 87 255
-0.265132 0.707691 -0.447246 187 131 87 255
-0.384062 0.776148 -0.309861 71 32 25 255
-0.359600 0.782881 -0.309861 71 32 25 255
-0.384062 0.776148 -0.285232 71 32 25 255
-0.359600 0.782881 -0.285232 71 32 25 255
-0.194469 0.194069 -0.315254 61 64 67 255
-0.240428 0.181310 -0.315254 61 64 67 255
-0.244612 0.196551 -0.315254 61 64 67 255
-0.198653 0.209310 -0.315254 61 64 67 255
-0.352216 0.675029 -0.306159 71 32 25 255
-0.395470 0.831691 -0.306159 61 64 67 255
-0.340304 0.707691 -0.119100 187 131 87 255
-0.350267 0.754361 -0.283277 61 64 67 255
-0.346015 0.738879 -0.283277 61 64 67 255
-0.413141 0.930364 -0.272620 43 51 56 255
-0.433958 0.924503 -0.285106 43 51 56 255
-0.395470 0.831691 -0.288934 61 64 67 255
-0.352216 0.675029 -0.288934 71 32 25 255
-0.164423 -0.142709 -0.309078 94 98 102 255
-0.079771 -0.129082 -0.309078 94 98 102 255
-0.346015 0.738879 -0.311735 61 64 67 255
-0.244612 0.196551 -0.279209 61 64 67 255
-0.240428 0.181310 -0.279209 61 64 67 255
-0.194469 0.194069 -0.279209 61 64 67 255
-0.198653 0.209310 -0.279209 61 64 67 255
-0.109446 -0.068173 -0.309078 94 98 102 255
-0.170998 -0.119359 -0.309078 94 98 102 255
-0.350267 0.754361 -0.311735 62 62 65 255
-0.432670 0.707691 -0.231053 187 131 87 255
-0.403959 0.817963 -0.310078 43 51 56 255
-0.387894 0.979583 -0.319325 43 51 56 255
-0.424127 0.969380 -0.254126 43 51 56 255
-0.387894 0.979583 -0.275859 43 51 56 255
-0.484172 1.182626 -0.341057 43 51 56 255
-0.314201 -0.499677 -0.208894 187 131 87 255
-0.314201 -0.499677 -0.384123 187 131 87 255
-0.489430 -0.499677 -0.208894 187 131 87 255
-0.489430 -0.499677 -0.384123 187 131 87 255
3 0 1 2
3 3 4 5
3 6 7 8
3 9 10 11
3 12 13 14
3 15 16 17
3 18 19 20
4 21 22 23 24
4 25 26 27 28
4 29 30 13 18
4 31 4 32 33
4 34 35 6 36
4 1 37 5 4
4 38 14 13 30
4 3 5 39 40
4 41 42 19 43
4 44 45 46 47
4 48 34 36 49
4 50 16 42 41
4 51 52 53 54
4 13 55 17 16
4 56 57 58 59
4 60 37 0 61
4 25 53 52 26
4 32 3 0 2
4 62 48 63 57
4 64 65 15 17
3 0 37 1
3 3 32 4
4 40 61 0 3
4 66 67 2 1
4 68 69 70 71
4 72 73 55 12
4 29 74 38 30
4 75 76 67 66
4 77 31 33 78
4 78 33 67 76
4 79 80 81 82
4 22 83 84 23
4 73 64 17 55
4 29 18 20 74
4 43 85 50 41
4 86 68 71 87
4 88 89 8 7
4 90 91 21 24
4 92 93 44 47
4 71 70 94 87
4 54 53 25 28
4 95 96 97 98
4 95 81 80 96
4 75 66 31 77
4 90 84 83 91
4 45 99 100 46
4 86 87 94 101
4 27 51 54 28
4 19 42 14 20
4 102 18 13 16
3 8 103 49
4 100 99 93 92
4 89 63 103 8
4 76 75 77 78
4 59 9 11 56
4 99 45 44 93
4 62 104 34 48
4 57 63 89 58
4 58 89 88 105
4 106 35 34 104
4 105 88 35 106
3 11 107 56
4 36 6 8 49
4 33 32 2 67
4 65 72 12 15
4 9 105 106 10
4 27 26 52 51
4 85 102 16 50
4 82 81 95 98
4 40 39 60 61
4 100 92 47 46
4 66 1 4 31
4 108 109 72 65
3 12 55 13
4 108 65 64 110
4 109 111 73 72
4 101 69 68 86
4 111 110 64 73
4 42 15 12 14
3 15 42 16
3 18 102 19
4 11 104 62 107
4 5 37 60 39
4 70 69 101 94
4 74 20 14 38
4 10 106 104 11
4 43 19 102 85
4 35 88 7 6
4 103 63 48 49
4 59 58 105 9
4 97 79 82 98
4 107 62 57 56
4 96 80 79 97
