ply
format ascii 1.0
comment Created by Blender 2.78 (sub 0) - www.blender.org, source file: 'grindstone.blend'
element vertex 67
property float x
property float y
property float z
property uchar red
property uchar green
property uchar blue
element face 110
property list uchar uint vertex_indices
end_header
-0.500000 0.283847 -0.500000 97 72 51
0.436814 0.283847 -0.436814 97 72 51
0.500000 0.283847 -0.500000 97 72 51
-0.500000 0.283847 0.500000 97 72 51
-0.500000 -0.500000 -0.500000 97 72 51
-0.500000 -0.500000 0.500000 97 72 51
0.500000 -0.500000 -0.500000 97 72 51
0.500000 0.283847 0.500000 97 72 51
0.500000 -0.500000 0.500000 97 72 51
-0.436814 0.283847 -0.436814 97 72 51
0.436814 0.227547 -0.436814 186 137 99
0.436814 0.283847 0.436814 97 72 51
-0.436814 0.283847 0.436814 98 73 52
-0.436814 0.227547 0.436814 186 137 99
-0.436814 0.227547 -0.436814 186 137 99
0.436814 0.227547 0.436814 186 137 99
0.205725 0.391599 0.283156 130 130 130
0.000000 0.147539 0.350000 130 130 130
0.205725 0.147539 0.283156 130 130 130
-0.332870 0.391599 0.108156 130 130 130
-0.313171 0.447539 -0.101755 130 130 130
-0.332870 0.391599 -0.108156 130 130 130
-0.193550 0.447539 -0.266399 130 130 130
-0.205725 0.391599 -0.283156 130 130 130
0.000000 0.447539 -0.329287 130 130 130
0.000000 0.391599 -0.350000 130 130 130
0.193550 0.447539 -0.266399 130 130 130
0.205725 0.391599 -0.283156 130 130 130
0.313171 0.447539 -0.101755 130 130 130
0.332870 0.391599 -0.108156 130 130 130
0.313171 0.447539 0.101755 130 130 130
0.332870 0.391599 0.108156 130 130 130
0.193550 0.447539 0.266399 130 130 130
-0.000000 0.447539 0.329287 130 130 130
0.060689 0.447539 0.083531 130 130 130
-0.000000 0.447539 0.103250 130 130 130
0.098196 0.447539 0.031906 130 130 130
0.332870 0.147539 0.108156 130 130 130
0.332870 0.147539 -0.108156 130 130 130
0.205725 0.147539 -0.283156 130 130 130
0.000000 0.147539 -0.350000 130 130 130
-0.205725 0.147539 -0.283156 130 130 130
0.000000 0.391599 0.350000 130 130 130
-0.205725 0.147539 0.283156 130 130 130
-0.332870 0.147539 -0.108156 130 130 130
-0.332870 0.147539 0.108156 130 130 130
-0.205725 0.391599 0.283156 130 130 130
0.050957 0.263673 0.047530 66 66 66
0.005045 0.263673 -0.049199 66 66 66
-0.055875 0.263673 0.034325 66 66 66
-0.060689 0.447539 -0.083531 130 130 130
0.000000 0.447539 -0.103250 130 130 130
-0.193550 0.447539 0.266399 130 130 130
-0.098196 0.447539 0.031906 130 130 130
-0.313171 0.447539 0.101755 130 130 130
0.060689 0.447539 -0.083531 130 130 130
-0.060689 0.447539 0.083531 130 130 130
0.098196 0.447539 -0.031906 130 130 130
-0.098196 0.447539 -0.031906 130 130 130
0.065874 0.404294 0.047860 66 66 66
-0.025162 0.404294 0.077440 66 66 66
-0.081425 0.404294 0.000000 66 66 66
-0.081425 0.404294 0.000000 67 67 67
-0.025162 0.404294 -0.077440 78 78 78
-0.025162 0.404294 -0.077440 67 67 67
0.065874 0.404294 -0.047860 66 66 66
0.500000 0.283847 -0.500000 109 82 58
3 0 1 2
3 3 4 5
3 0 6 4
3 6 7 8
3 5 7 3
3 9 10 1
3 3 9 0
3 2 11 7
3 7 12 3
3 13 10 14
3 12 14 9
3 1 15 11
3 11 13 12
3 16 17 18
3 19 20 21
3 21 22 23
3 23 24 25
3 25 26 27
3 27 28 29
3 29 30 31
3 31 32 16
3 33 34 35
3 28 36 30
3 31 18 37
3 29 37 38
3 27 38 39
3 25 39 40
3 23 40 41
3 42 43 17
3 21 41 44
3 19 44 45
3 46 45 43
3 47 48 49
3 24 50 51
3 52 53 54
3 30 34 32
3 24 55 26
3 33 56 52
3 28 55 57
3 20 50 22
3 54 58 20
3 59 47 60
3 60 49 61
3 62 48 63
3 64 48 65
3 65 47 59
3 42 52 46
3 46 54 19
3 16 33 42
3 53 60 61
3 58 63 50
3 50 64 51
3 51 65 55
3 55 65 57
3 57 59 36
3 34 60 35
3 60 47 49
3 0 9 1
3 3 0 4
3 0 2 6
3 6 66 7
3 5 8 7
3 9 14 10
3 3 12 9
3 2 1 11
3 7 11 12
3 13 15 10
3 12 13 14
3 1 10 15
3 11 15 13
3 16 42 17
3 19 54 20
3 21 20 22
3 23 22 24
3 25 24 26
3 27 26 28
3 29 28 30
3 31 30 32
3 33 32 34
3 28 57 36
3 31 16 18
3 29 31 37
3 27 29 38
3 25 27 39
3 23 25 40
3 42 46 43
3 21 23 41
3 19 21 44
3 46 19 45
3 24 22 50
3 52 56 53
3 30 36 34
3 24 51 55
3 33 35 56
3 28 26 55
3 20 58 50
3 54 53 58
3 62 49 48
3 65 48 47
3 42 33 52
3 46 52 54
3 16 32 33
3 56 35 60
3 53 56 60
3 58 53 61
3 58 62 63
3 51 64 65
3 57 65 59
3 34 36 59
3 34 59 60
