ply
format ascii 1.0
comment Created by Blender 3.4.1 - www.blender.org
element vertex 144
property float x
property float y
property float z
property uchar red
property uchar green
property uchar blue
property uchar alpha
element face 132
property list uchar uint vertex_indices
end_header
-0.275962 -0.000743 0.275962 156 118 96 255
0.304800 -0.000743 0.304800 184 139 112 255
-0.304800 -0.000743 0.304800 186 143 118 255
0.275962 -0.000743 -0.275962 156 118 96 255
-0.304800 -0.000743 -0.304800 184 139 112 255
0.304800 -0.000743 -0.304800 184 139 112 255
0.275962 -0.000743 0.275962 156 118 96 255
-0.275962 -0.000743 -0.275962 156 118 96 255
-0.304800 0.035517 -0.304800 184 139 112 255
0.273004 0.035517 -0.273004 184 139 112 255
0.304800 0.035517 -0.304800 184 139 112 255
0.304800 0.035517 0.304800 184 139 112 255
-0.273004 0.035517 0.273004 184 139 112 255
-0.304800 0.035517 0.304800 184 139 112 255
-0.273004 0.035517 -0.273004 182 137 110 255
0.273004 0.035517 0.273004 184 139 112 255
0.054642 1.239966 -0.043506 47 24 9 255
0.035051 1.112204 -0.068743 44 20 8 255
-0.055065 1.044661 -0.000471 45 22 8 255
-0.250000 -0.500743 -0.250000 184 139 112 255
-0.250000 -0.500743 0.250000 184 139 112 255
0.250000 -0.500743 -0.250000 184 139 112 255
0.130201 0.181060 -0.177056 86 119 44 255
0.051246 -0.027065 -0.093180 86 119 44 255
0.023662 -0.004581 -0.063699 86 119 44 255
0.106914 0.212247 -0.152145 86 119 44 255
0.250000 -0.500743 0.250000 184 139 112 255
-0.026633 0.744007 0.044013 129 155 44 255
-0.280584 0.618359 0.326363 95 114 32 255
-0.336644 0.807363 0.360050 129 155 43 255
-0.082693 0.933011 0.077701 129 155 43 255
-0.253294 0.010694 0.253294 121 73 50 255
0.253294 0.010694 0.253294 119 71 48 255
0.253294 0.010694 -0.253294 119 71 48 255
-0.253294 0.010694 -0.253294 119 71 48 255
0.388164 0.308520 -0.080408 123 134 49 255
0.050949 0.309111 -0.396372 123 134 49 255
0.425736 0.718818 -0.602980 138 167 59 255
0.571896 0.718562 -0.466031 138 167 59 255
0.313176 0.306776 0.054965 123 134 49 255
0.307008 0.311136 0.048411 123 134 49 255
0.373371 0.761117 0.285284 138 167 59 255
0.379539 0.756758 0.291838 138 167 59 255
0.021872 0.306776 0.329085 123 134 49 255
0.253277 0.756758 0.410651 138 167 59 255
0.382566 0.316660 -0.074419 123 134 49 255
0.566299 0.726702 -0.460042 138 167 59 255
0.011255 0.714400 -0.027301 129 155 43 255
-0.016906 0.525815 0.033053 129 155 43 255
0.000415 0.526423 0.043035 129 155 43 255
0.028575 0.715008 -0.017320 129 155 43 255
-0.039036 0.200301 0.269197 123 134 49 255
-0.045207 0.193116 0.276487 123 134 49 255
-0.293517 0.199144 0.072221 123 134 49 255
-0.287345 0.206329 0.064931 123 134 49 255
-0.418068 0.340139 0.105743 123 134 49 255
-0.411896 0.347324 0.098453 123 134 49 255
0.220483 0.582362 -0.342246 129 155 43 255
0.192322 0.393777 -0.281891 95 114 32 255
0.175002 0.393169 -0.291872 95 114 32 255
0.203162 0.581754 -0.352227 129 155 43 255
-0.042747 0.338362 0.402124 123 134 49 255
0.025207 0.189219 -0.257472 123 134 49 255
0.252035 0.188822 -0.044938 123 134 49 255
-0.078113 -0.022854 0.095749 86 119 44 255
-0.115027 -0.021958 0.065382 86 119 44 255
-0.171206 0.217371 0.140737 86 119 44 255
-0.134292 0.216474 0.171104 86 119 44 255
-0.159684 0.189329 0.201170 86 119 44 255
-0.106667 -0.040196 0.129948 86 119 44 255
-0.322245 0.809181 0.373811 129 155 43 255
-0.068294 0.934830 0.091461 129 155 43 255
0.066682 -0.023309 0.114046 86 119 44 255
0.093664 -0.030365 0.142719 86 119 44 255
0.118191 0.172404 0.168784 86 119 44 255
0.093051 0.188349 0.142069 86 119 44 255
0.084967 -0.027124 -0.061584 86 119 44 255
0.057383 -0.004640 -0.032103 86 119 44 255
0.449638 0.681559 -0.498071 88 120 48 255
0.140635 0.212188 -0.120549 86 119 44 255
0.464429 0.681533 -0.484213 88 120 49 255
-0.143582 -0.039300 0.099581 86 119 44 255
0.294922 0.702427 0.340210 86 119 44 255
0.147322 0.172404 0.141372 86 119 44 255
0.307699 0.702427 0.328187 86 119 44 255
0.459852 0.667880 -0.508998 86 119 44 255
-0.411550 0.766347 0.503245 88 120 48 255
-0.422688 0.754441 0.516432 86 119 44 255
0.420139 0.726958 -0.596991 138 167 59 255
0.045352 0.317251 -0.390383 123 134 49 255
0.019610 0.197360 -0.251483 123 134 49 255
0.246438 0.196963 -0.038949 123 134 49 255
-0.125590 1.104880 0.093037 46 22 8 255
-0.105999 1.232643 0.118274 44 20 8 255
-0.266185 0.620177 0.340123 95 114 32 255
0.006702 1.162035 0.032879 113 136 38 255
0.021776 -0.037966 0.030767 89 107 30 255
-0.026127 -0.037966 -0.005362 90 108 31 255
-0.024015 1.162035 0.009712 125 145 69 255
0.247110 0.761117 0.404097 138 167 59 255
0.015704 0.311136 0.322531 123 134 49 255
-0.072591 1.444683 0.000235 234 158 46 255
-0.069095 1.467483 0.004738 235 188 52 255
0.079460 1.340636 -0.192228 236 189 49 255
0.063378 1.328582 -0.180045 236 148 36 255
-0.048919 0.331177 0.409414 123 134 49 255
-0.047181 1.162035 0.040429 113 136 39 255
-0.016465 1.162035 0.063596 113 136 38 255
0.163922 0.181001 -0.145460 86 119 44 255
0.122794 -0.030365 0.115307 86 119 44 255
-0.375479 0.811177 0.606038 138 167 59 255
-0.535481 0.815061 0.474416 138 167 59 255
-0.427742 0.766740 0.489925 88 120 49 255
0.019278 0.179621 0.231686 123 134 49 255
0.025446 0.175261 0.238240 123 134 49 255
0.474643 0.667854 -0.495139 86 119 44 255
0.283895 0.709421 0.328492 88 120 49 255
-0.369307 0.818362 0.598748 138 167 59 255
-0.529309 0.822246 0.467126 138 167 59 255
0.221393 0.175261 0.053852 123 134 49 255
0.122182 0.188349 0.114657 86 119 44 255
0.095812 -0.023309 0.086634 86 119 44 255
-0.196599 0.190225 0.170803 86 119 44 255
-0.438879 0.754834 0.503113 86 119 44 255
0.215225 0.179621 0.047298 123 134 49 255
0.296672 0.709421 0.316469 88 120 48 255
-0.014353 -0.037966 0.078670 89 107 30 255
-0.062256 -0.037966 0.042541 89 107 30 255
-0.048139 1.036230 0.006024 236 189 49 255
-0.121826 1.099149 0.103724 236 189 49 255
-0.300182 1.056088 0.095388 235 188 51 255
-0.151627 0.929242 -0.101578 236 189 52 255
0.066485 1.240291 -0.038940 223 172 83 255
0.046016 1.106801 -0.065308 236 189 49 255
0.038194 1.071515 -0.245387 236 189 49 255
-0.101357 1.232639 0.130092 236 189 49 255
-0.258916 1.325209 0.148546 236 188 50 255
-0.284101 1.068142 0.083205 236 146 34 255
-0.246331 1.314463 0.131860 236 155 38 255
-0.007202 1.303210 0.058760 236 189 50 255
0.025608 1.082261 -0.228700 235 148 42 255
-0.148131 0.952041 -0.097075 236 145 34 255
-0.015883 1.300186 0.050002 44 20 8 255
-0.012234 0.745826 0.057774 129 155 43 255
3 0 1 2
3 3 4 5
3 6 5 1
3 7 2 4
3 8 9 10
3 11 12 13
3 13 14 8
3 10 15 11
3 16 17 18
3 0 6 1
4 19 20 0 7
4 21 19 7 3
4 10 5 4 8
4 22 23 24 25
4 26 21 3 6
4 8 4 2 13
3 3 7 4
3 6 3 5
3 7 0 2
3 8 14 9
4 27 28 29 30
4 13 2 1 11
4 11 1 5 10
3 11 15 12
3 13 12 14
3 10 9 15
4 21 26 20 19
4 31 12 15 32
4 32 15 9 33
4 33 9 14 34
4 35 36 37 38
4 39 40 41 42
4 43 39 42 44
4 45 35 38 46
4 47 48 49 50
4 51 52 53 54
4 54 53 55 56
4 57 58 59 60
4 51 54 56 61
4 62 36 35 63
4 64 65 66 67
4 68 69 64 67
4 30 29 70 71
4 72 73 74 75
4 23 76 77 24
4 78 25 79 80
4 64 69 81 65
4 82 74 83 84
4 78 85 22 25
4 86 87 68 67
4 88 89 45 46
4 90 62 63 91
4 92 93 16 18
4 28 94 70 29
4 36 89 88 37
4 95 96 97 98
4 88 46 38 37
4 99 100 43 44
4 101 102 103 104
4 52 105 55 53
4 95 98 106 107
4 77 76 108 79
4 74 73 109 83
4 55 105 110 111
4 59 58 49 48
4 86 67 66 112
4 113 114 43 100
4 115 108 22 85
4 116 75 74 82
4 80 79 108 115
4 117 61 56 118
4 118 56 55 111
4 41 40 100 99
4 91 63 35 45
4 105 61 117 110
4 41 99 44 42
4 62 90 89 36
4 78 80 115 85
4 90 91 45 89
4 119 39 43 114
4 120 121 72 75
4 83 109 121 120
4 52 51 61 105
4 65 81 122 66
4 25 24 77 79
4 123 122 68 87
4 119 114 113 124
4 125 84 83 120
4 20 26 6 0
4 112 66 122 123
4 125 120 75 116
4 126 96 95 107
4 127 126 107 106
4 97 127 106 98
4 59 48 47 60
4 86 112 123 87
4 128 129 130 131
4 124 113 100 40
4 132 133 134 103
4 129 135 136 130
4 137 130 136 138
4 133 128 131 134
4 139 132 103 102
3 139 135 129
3 129 128 133
4 93 92 137 138
4 18 17 140 141
4 140 134 131 141
4 138 136 102 101
4 104 103 134 140
4 141 131 130 137
4 34 14 12 31
4 132 139 129 133
3 93 142 16
4 135 139 102 136
4 92 18 141 137
4 93 138 101 142
4 16 104 140 17
4 142 101 104 16
4 49 58 57 50
4 119 124 40 39
4 97 96 126 127
4 143 94 28 27
4 125 116 82 84
4 108 76 23 22
4 122 81 69 68
4 57 60 47 50
4 70 94 143 71
4 109 73 72 121
4 71 143 27 30
4 110 117 118 111
4 34 31 32 33
