ply
format ascii 1.0
comment Created by Blender 3.3.1 - www.blender.org
element vertex 88
property float x
property float y
property float z
property uchar red
property uchar green
property uchar blue
property uchar alpha
element face 76
property list uchar uint vertex_indices
end_header
-0.361816 0.551382 -0.336509 187 131 87 255
-0.433403 0.629109 -0.361049 187 131 87 255
-0.370228 0.629109 -0.311968 187 131 87 255
-0.317370 0.748955 -0.264625 204 197 206 255
-0.317370 0.748955 -0.330700 204 197 206 255
-0.322440 0.775964 -0.330700 204 197 206 255
-0.322439 0.775964 -0.264625 204 197 206 255
-0.361816 0.551382 -0.256509 187 131 87 255
-0.432670 0.629109 -0.231053 187 131 87 255
-0.441816 0.551382 -0.256509 187 131 87 255
-0.433403 0.707691 -0.361049 187 131 87 255
-0.370962 0.707691 -0.281965 187 131 87 255
-0.370228 0.707691 -0.311968 187 131 87 255
-0.376723 0.737814 -0.264625 204 197 206 255
-0.376723 0.737814 -0.330700 204 197 206 255
-0.328307 0.707691 -0.496326 187 131 87 255
-0.265132 0.707691 -0.447246 187 131 87 255
-0.293570 0.294808 -0.330700 204 197 206 255
-0.298640 0.321817 -0.330700 204 197 206 255
-0.235594 0.333651 -0.330700 204 197 206 255
-0.230525 0.306642 -0.330700 204 197 206 255
-0.177903 -0.070305 -0.327697 139 68 38 255
-0.161323 -0.099005 -0.317817 139 68 38 255
-0.245558 -0.114816 -0.327697 139 68 38 255
-0.244874 -0.082876 -0.327697 139 68 38 255
-0.441816 0.551382 -0.336509 187 131 87 255
-0.314201 -0.499677 -0.208894 187 131 87 255
-0.361816 -0.403939 -0.256509 187 131 87 255
-0.441816 -0.403939 -0.256509 187 131 87 255
-0.489430 -0.499677 -0.208894 187 131 87 255
-0.489430 -0.499677 -0.384123 187 131 87 255
-0.441816 -0.403939 -0.336509 187 131 87 255
-0.361816 -0.403939 -0.336509 187 131 87 255
-0.314201 -0.499677 -0.384123 187 131 87 255
-0.298639 0.321817 -0.264625 204 197 206 255
-0.235594 0.333651 -0.264625 204 197 206 255
-0.177903 -0.070305 -0.267628 139 68 38 255
-0.244874 -0.082876 -0.267628 139 68 38 255
-0.245558 -0.114816 -0.267628 139 68 38 255
-0.161323 -0.099005 -0.277079 139 68 38 255
-0.370962 0.629109 -0.281965 187 131 87 255
-0.432670 0.707691 -0.231053 187 131 87 255
-0.237396 0.086796 -0.333623 206 194 180 255
-0.237396 0.086796 -0.327616 206 194 180 255
-0.135822 0.034062 -0.327616 206 194 180 255
-0.135822 0.034062 -0.333623 206 194 180 255
-0.381793 0.764823 -0.330700 204 197 206 255
-0.381793 0.764823 -0.264625 204 197 206 255
-0.293570 0.294808 -0.264625 204 197 206 255
-0.230525 0.306642 -0.264625 204 197 206 255
-0.416462 1.007272 -0.319250 139 68 38 255
-0.416462 1.007272 -0.276075 139 68 38 255
-0.368326 1.016307 -0.276075 139 68 38 255
-0.368326 1.016307 -0.319250 139 68 38 255
-0.340304 0.629109 -0.119100 187 131 87 255
-0.278596 0.629109 -0.170012 187 131 87 255
-0.265132 0.629109 -0.447246 187 131 87 255
-0.328307 0.629109 -0.496326 187 131 87 255
-0.091751 -0.469658 -0.267628 139 68 38 255
-0.246916 -0.498783 -0.267628 139 68 38 255
-0.246916 -0.498783 -0.327697 139 68 38 255
-0.091751 -0.469658 -0.327697 139 68 38 255
-0.174124 0.033622 -0.267628 139 68 38 255
-0.174124 0.033622 -0.327697 139 68 38 255
-0.196597 0.027726 -0.312761 183 177 185 255
-0.399383 1.108083 -0.312760 182 176 184 255
-0.369705 1.113654 -0.312760 182 176 184 255
-0.166919 0.033296 -0.312761 183 177 185 255
-0.241095 0.021052 -0.327697 139 68 38 255
-0.166919 0.033296 -0.282564 182 176 184 255
-0.369705 1.113654 -0.282564 183 177 185 255
-0.215234 -0.031279 -0.333623 206 194 180 255
-0.215234 -0.031279 -0.327616 206 194 180 255
-0.241094 0.021052 -0.267628 139 68 38 255
-0.132758 0.017739 -0.333623 206 194 180 255
-0.196597 0.027726 -0.282564 183 177 185 255
-0.340304 0.707691 -0.119100 187 131 87 255
-0.412316 1.097483 -0.291473 182 176 184 255
-0.394594 1.003066 -0.291473 191 186 193 255
-0.394594 1.003066 -0.303851 182 176 184 255
-0.412316 1.097483 -0.303851 182 176 184 255
-0.406759 1.000782 -0.291473 196 192 198 255
-0.406759 1.000782 -0.303851 182 176 184 255
-0.424481 1.095199 -0.291473 183 177 185 255
-0.424481 1.095199 -0.303851 182 176 184 255
-0.399383 1.108083 -0.282564 182 176 184 255
-0.278596 0.707691 -0.170012 187 131 87 255
-0.132758 0.017739 -0.327616 206 194 180 255
3 0 1 2
4 3 4 5 6
3 7 8 9
3 10 11 12
4 13 14 4 3
4 15 10 12 16
4 17 18 19 20
4 21 22 23 24
3 0 25 1
4 26 27 28 29
4 30 31 32 33
4 29 28 31 30
4 18 34 35 19
4 36 37 38 39
4 40 7 0 2
3 7 40 8
3 10 41 11
4 42 43 44 45
4 46 47 6 5
4 35 34 48 49
4 50 51 52 53
4 14 46 5 4
4 47 46 14 13
4 54 8 40 55
4 16 56 57 15
4 58 59 60 61
4 62 36 21 63
4 64 65 66 67
4 1 25 9 8
4 68 63 21 24
4 69 67 66 70
4 61 60 23 22
4 43 42 71 72
4 38 59 58 39
4 73 37 36 62
4 49 48 17 20
4 71 42 45 74
4 33 32 27 26
4 51 73 62 52
4 36 39 22 21
4 75 64 67 69
4 76 41 8 54
4 77 78 79 80
4 58 61 22 39
4 50 68 73 51
4 53 63 68 50
4 81 82 79 78
4 83 81 78 77
4 79 82 84 80
4 52 62 63 53
4 56 2 1 57
4 83 84 82 81
4 34 18 17 48
4 11 40 2 12
4 57 1 10 15
4 49 20 19 35
4 16 12 2 56
4 68 24 37 73
4 59 38 23 60
4 6 47 13 3
4 28 27 7 9
4 80 84 83 77
4 70 85 75 69
4 27 32 0 7
4 86 55 40 11
4 10 1 8 41
4 32 31 25 0
4 75 85 65 64
4 76 54 55 86
4 66 65 85 70
4 24 23 38 37
4 44 43 72 87
4 76 86 11 41
4 87 72 71 74
4 31 28 9 25
4 87 74 45 44
