ply
format ascii 1.0
comment Created by Blender 2.82 (sub 7) - www.blender.org, source file: 'Handcannonguard.blend'
element vertex 88
property float x
property float y
property float z
property uchar red
property uchar green
property uchar blue
property uchar alpha
element face 85
property list uchar uint vertex_indices
end_header
0.077068 -0.488283 0.277560 149 110 76 255
0.077068 -0.488283 0.315458 148 110 76 255
0.087982 -0.479250 0.310152 148 110 76 255
0.087982 -0.479250 0.282866 148 110 76 255
0.441816 0.551382 0.336509 145 137 150 255
0.370228 0.629109 0.311969 145 137 150 255
0.361816 0.551382 0.336509 146 138 151 255
0.109396 -0.493949 0.258610 148 110 76 255
0.111257 -0.483330 0.269223 148 110 76 255
0.361816 0.551382 0.256509 161 153 165 255
0.432670 0.629109 0.231053 145 137 150 255
0.441816 0.551382 0.256509 146 138 151 255
0.433403 0.707691 0.361049 145 137 150 255
0.370962 0.707691 0.281965 145 137 150 255
0.370228 0.707691 0.311969 145 137 150 255
0.111257 -0.483330 0.323794 148 110 76 255
0.109396 -0.493949 0.334407 148 110 76 255
0.141724 -0.499615 0.315458 149 111 77 255
0.134533 -0.487409 0.310152 148 110 76 255
0.206490 0.242760 0.278291 38 36 39 255
0.285546 0.693791 0.278291 96 91 99 255
0.285546 0.693791 0.314727 96 91 99 255
0.206490 0.242760 0.314727 38 36 39 255
0.141724 -0.499615 0.277560 148 110 76 255
0.134533 -0.487409 0.282866 148 110 76 255
0.185035 0.216749 0.268683 159 150 163 255
0.205618 0.191882 0.282866 132 125 136 255
0.205618 0.191882 0.310152 132 125 136 255
0.185035 0.216749 0.324335 159 150 163 255
0.340304 0.707691 0.119100 145 137 150 255
0.340304 0.629109 0.119100 113 107 117 255
0.278596 0.629109 0.170012 143 135 147 255
0.278596 0.707691 0.170012 145 137 150 255
0.205699 0.055479 0.323794 166 126 95 255
0.228974 0.051399 0.310152 167 124 86 255
0.183180 0.063872 0.282866 160 147 156 255
0.183180 0.063872 0.310152 159 150 163 255
0.361816 -0.403939 0.256509 145 137 150 255
0.361816 -0.403939 0.336509 145 137 150 255
0.228974 0.051399 0.282866 167 124 86 255
0.252168 0.183723 0.310152 132 125 136 255
0.229730 0.055713 0.310152 159 150 163 255
0.229730 0.055713 0.282866 160 148 160 255
0.252168 0.183723 0.282866 132 125 136 255
0.268651 0.231864 0.314727 39 37 40 255
0.237571 0.237312 0.332945 38 36 39 255
0.316627 0.688343 0.332945 96 91 99 255
0.347708 0.682896 0.314727 96 91 99 255
0.206455 0.059792 0.323794 160 149 162 255
0.182424 0.059558 0.310152 167 124 86 255
0.182424 0.059558 0.282866 167 124 86 255
0.205699 0.055479 0.269223 167 124 86 255
0.206455 0.059792 0.269223 159 150 163 255
0.232508 0.208428 0.240857 159 150 163 255
0.228893 0.187803 0.269223 132 125 136 255
0.265132 0.629109 0.447246 146 138 151 255
0.265132 0.707691 0.447246 145 137 150 255
0.228893 0.187803 0.323794 132 125 136 255
0.316337 0.686690 0.337290 151 144 155 255
0.232508 0.208428 0.352161 159 150 163 255
0.279980 0.200107 0.324335 159 150 163 255
0.351124 0.680592 0.316899 140 133 144 255
0.279980 0.200107 0.268683 159 150 163 255
0.314201 -0.499677 0.384123 147 139 152 255
0.314201 -0.499677 0.208894 146 138 151 255
0.317306 0.692217 0.245614 96 91 99 255
0.316337 0.686690 0.255728 159 150 163 255
0.281550 0.692787 0.276118 159 150 163 255
0.273892 0.699826 0.271061 96 91 99 255
0.281550 0.692787 0.316899 159 150 163 255
0.351124 0.680592 0.276118 159 150 163 255
0.268651 0.231864 0.278291 38 36 39 255
0.317306 0.692217 0.347404 96 91 99 255
0.360720 0.684607 0.321956 96 91 99 255
0.273892 0.699826 0.321956 99 94 102 255
0.360720 0.684607 0.271061 96 91 99 255
0.347708 0.682896 0.278291 96 91 99 255
0.316627 0.688343 0.260073 96 91 99 255
0.433403 0.629109 0.361049 145 137 150 255
0.237571 0.237312 0.260073 38 36 39 255
0.441816 -0.403939 0.336509 145 137 150 255
0.441816 -0.403939 0.256509 145 137 150 255
0.328307 0.629109 0.496326 147 139 152 255
0.328307 0.707691 0.496326 145 137 150 255
0.489430 -0.499677 0.208894 150 142 154 255
0.489430 -0.499677 0.384123 149 141 154 255
0.432670 0.707691 0.231053 145 137 150 255
0.370962 0.629109 0.281965 145 137 150 255
4 0 1 2 3
3 4 5 6
4 7 0 3 8
3 9 10 11
3 12 13 14
4 15 16 17 18
4 1 16 15 2
4 19 20 21 22
4 23 7 8 24
4 25 26 27 28
4 29 30 31 32
4 33 15 18 34
4 26 35 36 27
4 37 38 6 9
4 34 18 24 39
4 40 41 42 43
4 44 45 46 47
4 48 33 34 41
4 49 2 15 33
4 35 50 49 36
4 36 49 33 48
4 42 39 51 52
4 53 54 26 25
4 55 56 14 5
4 54 43 42 52
4 54 52 35 26
4 57 48 41 40
4 50 3 2 49
4 58 59 60 61
4 62 43 54 53
4 63 38 37 64
4 60 59 57 40
4 60 40 43 62
4 59 28 27 57
4 65 66 67 68
4 67 25 28 69
4 69 28 59 58
4 66 53 25 67
4 61 60 62 70
4 45 71 19 22
4 46 72 73 47
4 72 74 69 58
4 75 70 66 65
4 73 61 70 75
4 73 72 58 61
4 51 8 3 50
4 76 75 65 77
4 20 68 74 21
4 47 73 75 76
4 77 65 68 20
4 46 21 74 72
4 78 4 11 10
3 45 44 71
3 71 79 19
4 71 76 77 79
4 79 77 20 19
4 22 21 46 45
4 38 80 4 6
4 80 81 11 4
4 44 47 76 71
4 55 5 78 82
4 41 34 39 42
4 83 82 78 12
4 68 67 69 74
3 4 78 5
4 64 37 81 84
4 63 85 80 38
4 84 81 80 85
4 29 86 10 30
4 18 17 23 24
4 87 9 6 5
3 9 87 10
3 12 86 13
4 83 12 14 56
4 13 87 5 14
4 70 62 53 66
4 30 10 87 31
4 81 37 9 11
4 56 55 82 83
4 86 12 78 10
4 27 36 48 57
4 32 13 86 29
4 52 51 50 35
4 31 87 13 32
4 39 24 8 51
