ply
format ascii 1.0
comment Created by Blender 2.82 (sub 7) - www.blender.org, source file: 'GunsmithWorkbench.blend'
element vertex 184
property float x
property float y
property float z
property uchar red
property uchar green
property uchar blue
property uchar alpha
element face 215
property list uchar uint vertex_indices
end_header
-0.410466 0.707513 0.393564 140 140 156 255
0.134895 0.762361 0.227613 140 140 156 255
0.111361 0.777700 0.174596 140 140 156 255
0.110503 0.677773 0.146066 140 140 156 255
0.160155 0.687221 0.182010 98 98 109 255
0.134037 0.662434 0.199083 140 140 156 255
0.145928 0.759536 0.166647 94 94 105 255
0.390757 0.775021 0.105046 140 140 156 255
0.375992 0.784644 0.071785 140 140 156 255
0.160693 0.749913 0.199908 105 105 118 255
0.099164 0.735406 0.133822 140 140 156 255
0.145390 0.696845 0.148748 97 97 108 255
0.138277 0.733002 0.141066 94 94 105 255
0.368340 0.758110 0.046204 123 123 137 255
0.390219 0.712329 0.087148 140 140 156 255
0.358086 -0.486011 -0.363522 148 110 76 255
0.322745 -0.497264 -0.372941 148 110 76 255
0.358086 -0.498053 -0.352552 148 110 76 255
0.322745 -0.495686 -0.413718 149 110 76 255
0.358086 -0.483739 -0.422239 148 110 76 255
0.358086 -0.494897 -0.434107 148 110 76 255
0.393426 -0.495686 -0.413718 148 110 76 255
0.393426 -0.497264 -0.372941 149 111 77 255
0.358086 0.249384 -0.393869 132 125 136 255
0.409982 0.271937 -0.393579 159 150 163 255
0.383530 0.248816 -0.379190 132 125 136 255
0.306189 0.271937 -0.393579 159 150 163 255
0.358086 0.273095 -0.423519 159 150 163 255
0.358086 0.247112 -0.335153 132 125 136 255
0.306189 0.269619 -0.333699 159 150 163 255
0.332642 0.247680 -0.349832 132 125 136 255
0.409982 0.269619 -0.333699 159 150 163 255
0.358086 0.268461 -0.303759 159 150 163 255
0.320057 0.794064 -0.365362 159 150 163 255
0.310626 0.798194 -0.315808 99 94 102 255
0.310626 0.800313 -0.370569 96 91 99 255
0.358086 0.793505 -0.304149 96 91 99 255
0.324109 0.794263 -0.323750 96 91 99 255
0.396114 0.794064 -0.365362 159 150 163 255
0.405545 0.798194 -0.315808 96 91 99 255
0.396114 0.792366 -0.321483 140 133 144 255
0.358086 0.794913 -0.387301 159 150 163 255
0.358085 0.801372 -0.397949 96 91 99 255
0.358086 0.791517 -0.299544 151 144 155 255
0.320057 0.792366 -0.321483 159 150 163 255
0.358086 0.797134 -0.288428 96 91 99 255
0.405545 0.800313 -0.370569 96 91 99 255
0.358086 0.796539 -0.382556 96 91 99 255
0.392062 0.795781 -0.362954 96 91 99 255
0.324109 0.795780 -0.362954 96 91 99 255
0.392062 0.794263 -0.323750 96 91 99 255
0.392062 0.303089 -0.382020 38 36 39 255
0.358086 0.303847 -0.401622 38 36 39 255
0.324109 0.303089 -0.382020 38 36 39 255
-0.337319 -0.486862 -0.403368 148 110 76 255
-0.372660 -0.497821 -0.413127 148 110 76 255
-0.337319 -0.499235 -0.392772 148 110 76 255
-0.372660 -0.494994 -0.453837 149 110 76 255
-0.337319 -0.482791 -0.461987 148 110 76 255
-0.337319 -0.493580 -0.474192 148 110 76 255
-0.301979 -0.494994 -0.453837 148 110 76 255
-0.301979 -0.497821 -0.413127 149 111 77 255
-0.337319 0.249118 -0.411157 132 125 136 255
-0.285423 0.271651 -0.410176 159 150 163 255
-0.311875 0.248100 -0.396502 132 125 136 255
-0.389215 0.271651 -0.410176 159 150 163 255
-0.337319 0.273727 -0.440066 159 150 163 255
-0.337319 0.245047 -0.352538 132 125 136 255
-0.389215 0.267499 -0.350395 159 150 163 255
-0.362763 0.246064 -0.367193 132 125 136 255
-0.285423 0.267499 -0.350395 159 150 163 255
-0.337319 0.265423 -0.320505 159 150 163 255
-0.375348 0.792668 -0.365966 159 150 163 255
-0.384779 0.795277 -0.316309 99 94 102 255
-0.384779 0.799073 -0.370980 96 91 99 255
-0.337319 0.790233 -0.304799 96 91 99 255
-0.371296 0.791592 -0.324368 96 91 99 255
-0.299291 0.789626 -0.322160 140 133 144 255
-0.289859 0.799073 -0.370980 96 91 99 255
-0.289859 0.795277 -0.316309 96 91 99 255
-0.337319 0.794189 -0.387869 159 150 163 255
-0.337319 0.800972 -0.398315 96 91 99 255
-0.337319 0.788105 -0.300257 151 144 155 255
-0.375348 0.789626 -0.322160 159 150 163 255
-0.337319 0.793378 -0.288974 96 91 99 255
-0.299291 0.792668 -0.365966 159 150 163 255
-0.337319 0.795669 -0.383077 96 91 99 255
-0.303342 0.794310 -0.363507 96 91 99 255
-0.371296 0.794310 -0.363507 96 91 99 255
-0.303342 0.791592 -0.324368 96 91 99 255
-0.303342 0.302434 -0.397667 38 36 39 255
-0.337319 0.303793 -0.417237 38 36 39 255
-0.371296 0.302434 -0.397667 38 36 39 255
-0.214160 0.767088 -0.061205 153 98 66 255
-0.416161 0.756562 -0.015434 153 97 65 255
-0.392790 0.740821 0.025106 153 97 65 255
-0.093736 0.778107 -0.148332 197 202 211 255
-0.238704 0.778243 -0.103615 191 196 207 255
-0.219769 0.765490 -0.070770 197 202 211 255
-0.240673 0.740630 -0.117085 197 202 211 255
-0.094913 0.755631 -0.156381 197 202 211 255
-0.221738 0.727877 -0.084239 197 202 211 255
0.392063 0.301572 -0.342816 39 37 40 255
-0.500000 0.558293 0.503555 179 126 93 255
-0.500000 0.551408 0.502019 153 142 126 255
0.500000 0.551408 0.502019 151 139 122 255
0.500000 0.558293 0.503555 179 126 93 255
-0.400000 0.646322 0.438329 158 111 83 255
-0.400000 0.637526 0.477350 160 116 89 255
0.400000 0.637526 0.477350 161 117 91 255
0.400000 0.646322 0.438329 158 111 83 255
0.400000 0.598505 0.468555 159 113 86 255
0.400000 0.607300 0.429534 160 114 87 255
-0.400000 0.607300 0.429534 158 111 83 255
-0.311875 0.246064 -0.367193 132 125 136 255
-0.362763 -0.483809 -0.447333 148 110 76 255
-0.362763 -0.485844 -0.418023 148 110 76 255
0.146234 0.704728 0.239857 140 140 156 255
-0.392223 0.695623 0.434660 140 140 156 255
-0.383434 0.650949 0.444151 140 140 156 255
-0.411131 0.630055 0.371449 140 140 156 255
-0.392888 0.618165 0.412546 140 140 156 255
-0.418186 0.717875 -0.029287 153 97 65 255
-0.242564 0.786218 -0.110473 153 97 65 255
-0.245025 0.739202 -0.127309 153 97 65 255
-0.419920 0.674729 0.361959 138 138 154 255
0.397871 0.738863 0.112728 140 140 156 255
0.167807 0.713755 0.207590 94 94 105 255
0.375454 0.721953 0.053886 140 140 156 255
0.332641 -0.485443 -0.378201 148 110 76 255
0.383530 -0.485443 -0.378201 148 110 76 255
0.383530 -0.484307 -0.407560 148 110 76 255
0.332641 -0.484307 -0.407560 148 110 76 255
-0.311875 0.106462 -0.376888 159 150 163 255
-0.311875 0.101757 -0.377215 167 124 86 255
-0.311875 0.103793 -0.406524 167 124 86 255
-0.311875 0.108497 -0.406198 160 148 160 255
-0.311875 -0.485844 -0.418023 148 110 76 255
-0.311875 -0.483809 -0.447333 148 110 76 255
0.332641 0.107846 -0.355243 159 150 163 255
0.332641 0.108982 -0.384601 160 147 156 255
0.332641 0.104270 -0.384784 167 124 86 255
0.332641 0.103133 -0.355425 167 124 86 255
0.500000 0.736784 -0.296445 179 126 93 255
0.500000 0.729899 -0.297981 151 139 122 255
-0.500000 0.729899 -0.297981 151 139 122 255
-0.500000 0.736784 -0.296445 179 126 93 255
0.358086 0.107278 -0.340564 160 149 162 255
0.383530 0.107846 -0.355243 159 150 163 255
0.383530 0.247680 -0.349832 132 125 136 255
0.383530 0.103133 -0.355425 167 124 86 255
0.383530 0.104270 -0.384784 167 124 86 255
0.383530 0.108982 -0.384601 160 148 160 255
0.358086 0.109550 -0.399280 159 150 163 255
-0.337319 0.104811 -0.421179 167 124 86 255
0.324109 0.301572 -0.342816 38 36 39 255
0.506837 0.779626 -0.299006 179 126 93 255
-0.506837 0.779626 -0.299006 179 126 93 255
-0.337319 0.109515 -0.420853 159 150 163 255
0.358086 0.102565 -0.340746 166 126 95 255
-0.362763 0.108497 -0.406198 160 147 156 255
-0.362763 0.248100 -0.396502 132 125 136 255
0.332641 0.248816 -0.379190 132 125 136 255
-0.303342 0.299716 -0.358528 39 37 40 255
-0.337319 0.105444 -0.362233 160 149 162 255
-0.362763 0.106462 -0.376888 159 150 163 255
-0.362763 0.101757 -0.377215 167 124 86 255
-0.337319 0.100740 -0.362560 166 126 95 255
0.358086 0.300813 -0.323214 38 36 39 255
-0.500000 -0.494019 0.502019 151 139 122 255
0.500000 -0.494019 0.502019 151 139 122 255
-0.500000 -0.494019 -0.297981 151 139 122 255
-0.105051 0.785728 -0.167960 197 202 211 255
-0.106228 0.763252 -0.176008 197 202 211 255
-0.371296 0.299716 -0.358528 38 36 39 255
-0.506837 0.598694 0.511933 179 127 94 255
0.506837 0.598694 0.511933 179 126 93 255
-0.337319 0.298357 -0.338959 38 36 39 255
0.358086 0.104838 -0.399463 167 124 86 255
-0.400000 0.598505 0.468555 162 120 95 255
-0.362763 0.103793 -0.406524 167 124 86 255
0.500000 -0.494019 -0.297981 151 139 122 255
-0.394815 0.702135 0.011252 153 97 65 255
-0.216621 0.720072 -0.078041 153 97 65 255
3 0 1 2
3 3 4 5
3 6 7 8
3 2 9 6
3 10 11 3
3 10 6 12
3 13 8 7
3 11 14 4
3 15 16 17
3 18 19 20
3 19 21 20
3 22 15 17
3 23 24 25
3 23 26 27
3 28 29 30
3 28 31 32
3 33 34 35
3 34 36 37
3 38 39 40
3 41 35 42
3 43 34 44
3 43 39 45
3 41 46 38
3 39 36 45
3 46 47 48
3 34 49 35
3 39 48 50
3 35 47 42
3 51 52 53
3 54 55 56
3 57 58 59
3 58 60 59
3 61 54 56
3 62 63 64
3 62 65 66
3 67 68 69
3 67 70 71
3 72 73 74
3 73 75 76
3 77 78 79
3 80 74 81
3 82 73 83
3 82 79 84
3 80 78 85
3 79 75 84
3 78 86 87
3 74 76 88
3 78 89 79
3 74 86 81
3 90 91 92
3 93 94 95
3 96 97 98
3 99 100 101
4 102 50 48 51
4 103 104 105 106
4 107 108 109 110
4 111 112 110 109
4 112 113 107 110
4 70 114 64 63
4 115 57 55 116
4 117 1 118 119
3 120 121 119
4 122 94 123 124
3 118 0 125
3 0 118 1
4 126 127 4 14
3 3 11 4
3 6 9 7
3 2 1 9
4 127 9 1 117
3 10 12 11
4 125 10 3 120
3 10 2 6
4 125 120 119 118
3 126 14 128
4 2 10 125 0
4 8 13 12 6
4 128 11 12 13
4 121 5 117 119
3 11 128 14
3 15 129 16
4 130 22 21 131
3 18 132 19
3 19 131 21
4 133 134 135 136
4 137 61 60 138
3 22 130 15
4 139 140 141 142
4 143 144 145 146
4 28 147 148 149
4 148 150 151 152
4 25 152 153 23
4 154 135 138 58
4 155 53 49 37
4 103 146 145 104
4 156 143 146 157
4 158 136 135 154
4 147 139 142 159
4 147 159 150 148
3 23 27 24
4 25 149 148 152
4 91 90 87 86
4 142 141 132 129
4 62 158 160 161
4 52 47 49 53
4 43 44 29 32
4 68 65 161 69
4 29 26 162 30
3 23 162 26
3 28 32 29
3 28 149 31
3 33 44 34
4 82 83 68 71
4 41 27 26 33
4 43 32 31 40
4 80 66 65 72
4 44 33 26 29
3 34 45 36
3 38 46 39
3 41 33 35
3 43 45 34
3 43 40 39
3 41 42 46
4 90 163 89 87
3 39 50 36
3 46 42 47
3 34 37 49
3 39 46 48
3 35 49 47
4 164 165 166 167
3 155 168 102
4 168 36 50 102
4 30 139 147 28
4 69 161 160 165
4 64 136 158 62
4 169 170 105 104
4 171 169 104 145
4 69 165 164 67
4 99 97 172 173
4 174 92 88 76
4 142 129 15 159
4 175 103 106 176
4 174 76 75 177
4 153 152 151 178
4 113 179 108 107
4 179 111 109 108
4 77 70 63 85
4 176 106 143 156
4 127 117 5 4
3 54 116 55
4 132 18 16 129
3 57 115 58
3 58 138 60
4 134 167 54 137
4 126 7 9 127
3 61 137 54
4 154 58 115 180
4 151 131 19 178
4 141 178 19 132
4 167 166 116 54
4 150 130 131 151
4 177 75 89 163
4 159 15 130 150
4 158 154 180 160
4 163 90 92 174
4 165 160 180 166
4 140 153 178 141
4 164 167 134 133
3 62 66 63
4 114 67 164 133
4 30 162 140 139
4 168 155 37 36
4 180 115 116 166
4 134 137 138 135
4 80 85 63 66
4 24 31 149 25
3 62 161 65
3 67 71 68
3 67 114 70
3 72 83 73
4 82 71 70 77
4 173 172 96 100
4 41 38 24 27
4 40 31 24 38
4 72 65 68 83
3 73 84 75
3 77 85 78
3 80 72 74
3 82 84 73
3 82 77 79
3 80 81 78
4 181 171 145 144
3 79 89 75
3 78 81 86
3 74 73 76
3 78 87 89
3 74 88 86
4 102 51 53 155
3 174 177 163
4 162 23 153 140
4 114 133 136 64
4 106 105 144 143
4 51 48 47 52
4 91 86 88 92
4 96 98 101 100
3 93 123 94
4 93 95 182 183
4 124 123 93 183
4 126 128 13 7
4 105 170 181 144
3 96 172 97
4 175 157 146 103
3 99 173 100
4 122 182 95 94
4 157 175 176 156
