ply
format ascii 1.0
comment Created by Blender 2.82 (sub 7) - www.blender.org, source file: '2hempstage1.blend'
element vertex 64
property float x
property float y
property float z
property uchar red
property uchar green
property uchar blue
property uchar alpha
element face 40
property list uchar uint vertex_indices
end_header
-0.218173 -0.500000 -0.175818 174 178 99 255
-0.218173 -0.200000 -0.175818 184 211 109 255
-0.257396 -0.200000 -0.183667 185 211 109 255
-0.257396 -0.500000 -0.183667 174 178 100 255
-0.249547 -0.200000 -0.222889 184 211 109 255
-0.249547 -0.500000 -0.222889 174 178 99 255
-0.210324 -0.200000 -0.215040 184 211 109 255
-0.210324 -0.500000 -0.215040 174 178 99 255
-0.144423 -0.194105 -0.136659 165 211 86 255
-0.143287 -0.174961 -0.142337 165 211 86 255
-0.339399 -0.174961 -0.181581 165 211 86 255
-0.340535 -0.194105 -0.175903 165 211 86 255
-0.301836 -0.232873 -0.369292 166 213 87 255
-0.302972 -0.252016 -0.363613 165 211 86 255
-0.105724 -0.232873 -0.330048 165 211 86 255
-0.106860 -0.252016 -0.324369 176 215 111 255
-0.189766 -0.500000 0.159459 174 178 99 255
-0.189766 -0.200000 0.159459 184 211 109 255
-0.177507 -0.200000 0.197534 185 211 109 255
-0.177507 -0.500000 0.197534 174 178 100 255
-0.215582 -0.200000 0.209793 184 211 109 255
-0.215582 -0.500000 0.209793 174 178 99 255
-0.227841 -0.200000 0.171718 184 211 109 255
-0.227841 -0.500000 0.171718 174 178 99 255
-0.191508 -0.194105 0.075976 165 211 86 255
-0.197020 -0.174961 0.077751 165 211 86 255
-0.135726 -0.174961 0.268127 165 211 86 255
-0.130214 -0.194105 0.266352 165 211 86 255
-0.317947 -0.232873 0.326795 166 213 87 255
-0.312434 -0.252016 0.325020 165 211 86 255
-0.379241 -0.232873 0.136418 165 211 86 255
-0.373728 -0.252016 0.134644 176 215 111 255
0.143282 -0.500000 -0.164380 174 178 99 255
0.143282 -0.200000 -0.164380 184 211 109 255
0.117784 -0.200000 -0.195199 185 211 109 255
0.117784 -0.500000 -0.195199 174 178 100 255
0.148603 -0.200000 -0.220698 184 211 109 255
0.148603 -0.500000 -0.220698 174 178 99 255
0.174101 -0.200000 -0.189879 184 211 109 255
0.174101 -0.500000 -0.189879 174 178 99 255
0.175844 -0.194105 -0.087489 165 211 86 255
0.180306 -0.174961 -0.091181 165 211 86 255
0.052813 -0.174961 -0.245277 165 211 86 255
0.048351 -0.194105 -0.241585 165 211 86 255
0.200308 -0.232873 -0.367308 166 213 87 255
0.195846 -0.252016 -0.363616 165 211 86 255
0.327801 -0.232873 -0.213212 165 211 86 255
0.323339 -0.252016 -0.209520 176 215 111 255
0.218358 -0.500000 0.179471 174 178 99 255
0.218358 -0.200000 0.179471 184 211 109 255
0.251324 -0.200000 0.156816 185 211 109 255
0.251324 -0.500000 0.156816 174 178 100 255
0.273979 -0.200000 0.189782 184 211 109 255
0.273979 -0.500000 0.189782 174 178 99 255
0.241013 -0.200000 0.212437 184 211 109 255
0.241013 -0.500000 0.212437 174 178 99 255
0.138874 -0.194105 0.205061 165 211 86 255
0.142154 -0.174961 0.209834 165 211 86 255
0.306984 -0.174961 0.096559 165 211 86 255
0.303704 -0.194105 0.091786 165 211 86 255
0.415406 -0.232873 0.254328 166 213 87 255
0.412126 -0.252016 0.249555 165 211 86 255
0.250576 -0.232873 0.367602 165 211 86 255
0.247296 -0.252016 0.362830 176 215 111 255
4 0 1 2 3
4 3 2 4 5
4 5 4 6 7
4 7 6 1 0
4 8 9 10 11
4 11 10 12 13
4 13 12 14 15
4 15 14 9 8
4 11 13 15 8
4 12 10 9 14
4 16 17 18 19
4 19 18 20 21
4 21 20 22 23
4 23 22 17 16
4 24 25 26 27
4 27 26 28 29
4 29 28 30 31
4 31 30 25 24
4 27 29 31 24
4 28 26 25 30
4 32 33 34 35
4 35 34 36 37
4 37 36 38 39
4 39 38 33 32
4 40 41 42 43
4 43 42 44 45
4 45 44 46 47
4 47 46 41 40
4 43 45 47 40
4 44 42 41 46
4 48 49 50 51
4 51 50 52 53
4 53 52 54 55
4 55 54 49 48
4 56 57 58 59
4 59 58 60 61
4 61 60 62 63
4 63 62 57 56
4 59 61 63 56
4 60 58 57 62
