ply
format ascii 1.0
comment Created by Blender 2.82 (sub 7) - www.blender.org, source file: '2hempstage2.blend'
element vertex 120
property float x
property float y
property float z
property uchar red
property uchar green
property uchar blue
property uchar alpha
element face 84
property list uchar uint vertex_indices
end_header
-0.050750 -0.500000 -0.269154 152 187 107 255
-0.050750 1.900000 -0.269154 175 216 125 255
-0.032051 1.900000 -0.233794 178 217 129 255
-0.032051 -0.500000 -0.233794 152 187 107 255
-0.067411 1.900000 -0.215094 175 216 124 255
-0.067411 -0.500000 -0.215094 161 193 123 255
-0.086110 1.900000 -0.250454 176 216 125 255
-0.086110 -0.500000 -0.250454 156 189 114 255
-0.058597 0.263472 -0.412063 163 212 75 255
-0.064041 0.282500 -0.409184 163 212 75 255
0.076205 0.282500 -0.143984 163 212 75 255
0.081649 0.263472 -0.146863 163 212 75 255
-0.176109 0.190127 -0.010552 163 212 75 255
-0.170666 0.171098 -0.013431 163 212 75 255
-0.316356 0.190127 -0.275751 163 212 75 255
-0.310912 0.171098 -0.278630 163 212 75 255
0.034807 0.856208 -0.385451 163 212 75 255
0.037834 0.875131 -0.379728 163 212 75 255
0.170529 0.778018 -0.128808 163 212 75 255
0.167502 0.759095 -0.134531 163 212 75 255
-0.094671 0.778018 0.011439 163 212 75 255
-0.097698 0.759095 0.005716 163 212 75 255
-0.227366 0.875131 -0.239481 163 212 75 255
-0.230393 0.856208 -0.245205 163 212 75 255
0.068047 1.330592 -0.479037 163 212 75 255
0.071591 1.350186 -0.480911 163 212 75 255
0.211837 1.350186 -0.215711 163 212 75 255
0.208293 1.330592 -0.213837 163 212 75 255
-0.047980 1.410320 -0.078311 163 212 75 255
-0.051524 1.390726 -0.076437 163 212 75 255
-0.188227 1.410320 -0.343510 163 212 75 255
-0.191771 1.390726 -0.341636 163 212 75 255
-0.024009 1.838356 -0.496670 163 212 75 255
-0.026177 1.857811 -0.500769 163 212 75 255
0.110248 1.927365 -0.242795 164 213 80 255
0.112416 1.907910 -0.238696 163 212 75 255
-0.154951 1.927365 -0.102548 163 212 75 255
-0.152784 1.907910 -0.098449 163 212 75 255
-0.291377 1.857811 -0.360522 163 212 75 255
-0.289209 1.838356 -0.356423 163 212 75 255
-0.286230 -0.500000 0.219871 152 187 107 255
-0.286230 1.900000 0.219871 175 216 125 255
-0.258379 1.900000 0.191161 178 217 129 255
-0.258379 -0.500000 0.191161 152 187 107 255
-0.229668 1.900000 0.219012 175 216 124 255
-0.229668 -0.500000 0.219012 161 193 123 255
-0.257519 1.900000 0.247722 176 216 125 255
-0.257519 -0.500000 0.247722 156 189 114 255
-0.419721 0.263472 0.271494 163 212 75 255
-0.415300 0.282500 0.275782 163 212 75 255
-0.206417 0.282500 0.060451 163 212 75 255
-0.210837 0.263472 0.056163 163 212 75 255
-0.001547 0.190127 0.259186 163 212 75 255
-0.005967 0.171098 0.254898 163 212 75 255
-0.210431 0.190127 0.474517 163 212 75 255
-0.214851 0.171098 0.470229 163 212 75 255
-0.423274 0.856208 0.174438 163 212 75 255
-0.418766 0.875131 0.169791 163 212 75 255
-0.221129 0.778018 -0.033946 163 212 75 255
-0.225637 0.759095 -0.029299 163 212 75 255
-0.005798 0.778018 0.174938 163 212 75 255
-0.010306 0.759095 0.179585 163 212 75 255
-0.203434 0.875131 0.378675 163 212 75 255
-0.207942 0.856208 0.383322 163 212 75 255
-0.522550 1.330592 0.171744 163 212 75 255
-0.525428 1.350186 0.168953 163 212 75 255
-0.316544 1.350186 -0.046379 163 212 75 255
-0.313667 1.330592 -0.043588 163 212 75 255
-0.105583 1.410320 0.158265 163 212 75 255
-0.102705 1.390726 0.161057 163 212 75 255
-0.314466 1.410320 0.373597 163 212 75 255
-0.311589 1.390726 0.376388 163 212 75 255
-0.510874 1.838356 0.264743 163 212 75 255
-0.514103 1.857811 0.268071 163 212 75 255
-0.310911 1.927365 0.058607 164 213 80 255
-0.307682 1.907910 0.055279 163 212 75 255
-0.095579 1.927365 0.267491 163 212 75 255
-0.092351 1.907910 0.264162 163 212 75 255
-0.298771 1.857811 0.476955 163 212 75 255
-0.295543 1.838356 0.473627 163 212 75 255
0.263626 -0.500000 0.173737 152 187 107 255
0.263626 1.900000 0.173737 175 216 125 255
0.226010 1.900000 0.160134 178 217 129 255
0.226010 -0.500000 0.160134 152 187 107 255
0.239613 1.900000 0.122518 175 216 124 255
0.239613 -0.500000 0.122518 161 193 123 255
0.277229 1.900000 0.136121 176 216 125 255
0.277229 -0.500000 0.136121 156 189 114 255
0.365517 0.263472 0.274249 163 212 75 255
0.367611 0.282500 0.268458 163 212 75 255
0.085491 0.282500 0.166436 163 212 75 255
0.083397 0.263472 0.172228 163 212 75 255
0.182556 0.190127 -0.101977 163 212 75 255
0.180462 0.171098 -0.096185 163 212 75 255
0.464676 0.190127 0.000045 163 212 75 255
0.462582 0.171098 0.005836 163 212 75 255
0.278483 0.856208 0.317348 163 212 75 255
0.272394 0.875131 0.315147 163 212 75 255
0.005465 0.778018 0.218618 163 212 75 255
0.011553 0.759095 0.220820 163 212 75 255
0.107486 0.778018 -0.063501 163 212 75 255
0.113575 0.759095 -0.061300 163 212 75 255
0.374416 0.875131 0.033027 163 212 75 255
0.380504 0.856208 0.035229 163 212 75 255
0.316797 1.330592 0.408973 163 212 75 255
0.315434 1.350186 0.412743 163 212 75 255
0.033314 1.350186 0.310722 163 212 75 255
0.034678 1.330592 0.306952 163 212 75 255
0.133265 1.410320 0.034327 163 212 75 255
0.134629 1.390726 0.030557 163 212 75 255
0.415385 1.410320 0.136349 163 212 75 255
0.416749 1.390726 0.132579 163 212 75 255
0.396797 1.838356 0.360134 163 212 75 255
0.401157 1.857811 0.361711 163 212 75 255
0.126725 1.927365 0.262469 164 213 80 255
0.122364 1.907910 0.260892 163 212 75 255
0.228746 1.927365 -0.019651 163 212 75 255
0.224386 1.907910 -0.021228 163 212 75 255
0.503179 1.857811 0.079591 163 212 75 255
0.498819 1.838356 0.078014 163 212 75 255
4 0 1 2 3
4 3 2 4 5
4 5 4 6 7
4 7 6 1 0
4 8 9 10 11
4 11 10 12 13
4 13 12 14 15
4 15 14 9 8
4 11 13 15 8
4 12 10 9 14
4 16 17 18 19
4 19 18 20 21
4 21 20 22 23
4 23 22 17 16
4 19 21 23 16
4 20 18 17 22
4 24 25 26 27
4 27 26 28 29
4 29 28 30 31
4 31 30 25 24
4 27 29 31 24
4 28 26 25 30
4 32 33 34 35
4 35 34 36 37
4 37 36 38 39
4 39 38 33 32
4 35 37 39 32
4 36 34 33 38
4 40 41 42 43
4 43 42 44 45
4 45 44 46 47
4 47 46 41 40
4 48 49 50 51
4 51 50 52 53
4 53 52 54 55
4 55 54 49 48
4 51 53 55 48
4 52 50 49 54
4 56 57 58 59
4 59 58 60 61
4 61 60 62 63
4 63 62 57 56
4 59 61 63 56
4 60 58 57 62
4 64 65 66 67
4 67 66 68 69
4 69 68 70 71
4 71 70 65 64
4 67 69 71 64
4 68 66 65 70
4 72 73 74 75
4 75 74 76 77
4 77 76 78 79
4 79 78 73 72
4 75 77 79 72
4 76 74 73 78
4 80 81 82 83
4 83 82 84 85
4 85 84 86 87
4 87 86 81 80
4 88 89 90 91
4 91 90 92 93
4 93 92 94 95
4 95 94 89 88
4 91 93 95 88
4 92 90 89 94
4 96 97 98 99
4 99 98 100 101
4 101 100 102 103
4 103 102 97 96
4 99 101 103 96
4 100 98 97 102
4 104 105 106 107
4 107 106 108 109
4 109 108 110 111
4 111 110 105 104
4 107 109 111 104
4 108 106 105 110
4 112 113 114 115
4 115 114 116 117
4 117 116 118 119
4 119 118 113 112
4 115 117 119 112
4 116 114 113 118
