ply
format ascii 1.0
comment Created by Blender 2.83.20 - www.blender.org, source file: ''
element vertex 104
property float x
property float y
property float z
property uchar red
property uchar green
property uchar blue
property uchar alpha
element face 166
property list uchar uint vertex_indices
end_header
-0.186022 -0.044273 0.100782 141 120 118 255
-0.357782 -0.102329 0.129225 141 120 118 255
-0.158360 -0.102329 0.114024 141 120 118 255
-0.332448 -0.044273 0.111943 141 120 118 255
-0.366537 -0.102329 0.014366 141 120 118 255
-0.338876 -0.044273 0.027608 143 121 119 255
-0.167115 -0.102329 -0.000833 141 120 118 255
-0.192450 -0.044273 0.016448 141 120 118 255
0.199816 0.023402 0.052895 153 129 125 255
-0.077495 -0.100306 0.149016 150 127 123 255
0.293074 -0.100306 0.143337 150 127 123 255
0.010084 0.023402 -0.131110 150 127 123 255
-0.083174 -0.100306 -0.221552 151 128 124 255
0.287394 -0.100306 -0.227231 150 127 123 255
0.196952 0.120350 -0.133974 190 162 157 255
0.196952 0.023402 -0.133974 150 127 123 255
0.010084 0.120350 -0.131110 190 162 157 255
0.192139 0.313311 -0.448019 197 169 164 255
0.012948 0.120350 0.055759 190 162 157 255
0.012948 0.023402 0.055759 151 128 124 255
0.199816 0.120350 0.052895 190 162 157 255
0.201963 0.357049 0.192966 197 168 163 255
0.201963 0.230951 0.192966 191 163 158 255
0.015095 0.230951 0.195830 190 162 157 255
0.005271 0.313311 -0.445155 197 168 163 255
0.015095 0.357049 0.195830 197 168 163 255
0.192139 0.357049 -0.448019 197 168 163 255
0.005271 0.357049 -0.445155 197 168 163 255
0.033450 0.344662 0.195548 197 168 163 255
0.183606 0.243338 0.193247 190 162 157 255
0.034927 0.243338 0.291898 190 162 157 255
0.033450 0.243338 0.195548 190 162 157 255
0.183606 0.344662 0.193247 197 168 163 255
0.034927 0.344662 0.291898 195 166 161 255
0.100397 0.354526 0.484570 197 168 163 255
0.100397 0.371498 0.484570 197 168 163 255
0.185082 0.344662 0.289597 191 163 158 255
0.185082 0.243338 0.289597 192 166 161 255
0.125548 0.354526 0.484185 197 168 163 255
0.125548 0.371498 0.484185 197 168 163 255
0.199572 0.355749 -0.028381 211 154 74 255
0.252689 0.237530 -0.338876 211 154 74 255
0.223891 0.230828 -0.338434 211 154 74 255
0.320892 -0.064057 -0.468195 211 154 74 255
0.292094 -0.070759 -0.467754 211 154 74 255
0.393026 -0.365644 -0.341026 211 154 74 255
0.364228 -0.372346 -0.340585 211 154 74 255
0.426835 -0.490565 -0.031864 211 154 74 255
0.398037 -0.497267 -0.031423 211 154 74 255
0.373717 -0.372346 0.278630 211 154 74 255
0.402515 -0.365644 0.278189 211 154 74 255
0.305514 -0.070759 0.407948 211 154 74 255
0.350504 -0.058377 -0.129116 235 172 81 255
0.366713 -0.126152 -0.100537 230 167 80 255
0.334313 -0.064057 0.407507 211 154 74 255
0.233381 0.230828 0.280781 211 154 74 255
0.262178 0.237530 0.280339 211 154 74 255
0.337309 0.009399 0.039102 236 172 82 255
0.372912 -0.053661 0.010546 255 186 89 255
0.366064 -0.025025 -0.001528 255 186 89 255
0.368846 -0.126152 0.038619 233 170 81 255
0.353520 -0.058377 0.067680 235 171 82 255
0.374312 -0.154226 -0.031059 233 170 81 255
0.228369 0.362451 -0.028823 211 154 74 255
0.329711 0.037472 -0.030376 235 172 81 255
0.335176 0.009399 -0.100054 236 172 82 255
0.381698 -0.094158 -0.031173 255 186 89 255
0.378488 -0.082297 -0.060528 255 186 89 255
0.362853 -0.013163 -0.030884 255 186 89 255
0.379389 -0.082297 -0.001733 255 186 89 255
0.365163 -0.025025 -0.060324 255 186 89 255
0.371638 -0.053661 -0.072603 255 186 89 255
-0.086112 -0.103075 0.135495 155 113 74 255
-0.405036 -0.143075 0.140383 184 139 97 255
-0.086112 -0.143075 0.135495 180 132 87 255
-0.405036 -0.103075 0.140383 180 132 87 255
-0.409924 -0.143075 -0.178541 180 132 87 255
-0.409924 -0.103075 -0.178541 180 132 87 255
-0.090999 -0.143075 -0.183428 180 132 87 255
-0.090999 -0.103075 -0.183428 155 113 74 255
-0.056689 -0.386370 0.015550 155 113 74 255
-0.373850 -0.139418 0.020411 180 132 87 255
-0.084277 -0.415331 0.015973 155 113 74 255
-0.375076 -0.139418 -0.059580 180 132 87 255
-0.057915 -0.386370 -0.064440 155 113 74 255
-0.085503 -0.415331 -0.064017 155 113 74 255
-0.346261 -0.110457 0.019988 180 132 87 255
-0.347487 -0.110457 -0.060002 180 132 87 255
0.308178 -0.100000 0.169978 151 132 126 255
-0.091775 -0.500000 0.176107 138 120 115 255
0.308178 -0.500000 0.169978 138 120 115 255
-0.091775 -0.100000 0.176107 151 132 126 255
-0.097905 -0.500000 -0.223846 139 121 116 255
-0.097905 -0.100000 -0.223846 151 132 126 255
0.302048 -0.500000 -0.229975 138 120 115 255
0.302048 -0.100000 -0.229975 151 132 126 255
-0.196837 -0.044273 -0.054452 197 151 41 255
-0.370884 -0.102329 -0.058760 197 151 41 255
-0.172154 -0.102329 -0.036253 197 151 41 255
-0.333238 -0.044273 -0.155020 197 151 41 255
-0.357921 -0.102329 -0.173219 197 151 41 255
-0.159191 -0.102329 -0.150713 197 151 41 255
-0.342755 -0.044273 -0.070978 197 151 41 255
-0.187319 -0.044273 -0.138495 197 151 41 255
3 0 1 2
3 3 4 1
3 5 6 4
3 7 2 6
3 3 7 5
3 8 9 10
3 9 11 12
3 11 13 12
3 13 8 10
3 11 14 15
3 16 17 14
3 8 18 19
3 15 20 8
3 19 16 11
3 17 21 22
3 20 23 18
3 14 22 20
3 16 23 24
3 25 26 27
3 24 25 27
3 24 26 17
3 23 28 25
3 29 30 31
3 25 32 21
3 21 29 22
3 23 29 31
3 33 34 35
3 31 33 28
3 32 33 36
3 32 37 29
3 38 35 34
3 36 35 39
3 36 38 37
3 37 34 30
3 40 41 42
3 42 43 44
3 44 45 46
3 46 47 48
3 47 49 48
3 50 51 49
3 45 52 53
3 54 55 51
3 56 40 55
3 49 51 55
3 57 58 59
3 54 60 61
3 47 53 62
3 56 61 57
3 41 52 43
3 47 60 50
3 63 57 64
3 63 65 41
3 66 67 68
3 60 66 69
3 52 67 53
3 64 70 65
3 64 59 68
3 61 69 58
3 53 66 62
3 65 71 52
3 72 73 74
3 75 76 73
3 77 78 76
3 73 78 74
3 75 79 77
3 80 81 82
3 83 84 85
3 81 85 82
3 86 84 87
3 88 89 90
3 91 92 89
3 93 94 92
3 95 90 94
3 91 95 93
3 96 97 98
3 97 99 100
3 99 101 100
3 101 96 98
3 102 103 99
3 0 3 1
3 3 5 4
3 5 7 6
3 7 0 2
3 3 0 7
3 8 19 9
3 9 19 11
3 11 15 13
3 13 15 8
3 11 16 14
3 16 24 17
3 8 20 18
3 15 14 20
3 19 18 16
3 17 26 21
3 20 22 23
3 14 17 22
3 16 18 23
3 25 21 26
3 24 23 25
3 24 27 26
3 23 31 28
3 29 37 30
3 25 28 32
3 21 32 29
3 23 22 29
3 33 30 34
3 31 30 33
3 32 28 33
3 32 36 37
3 38 39 35
3 36 33 35
3 36 39 38
3 37 38 34
3 40 63 41
3 42 41 43
3 44 43 45
3 46 45 47
3 47 50 49
3 50 54 51
3 45 43 52
3 54 56 55
3 56 63 40
3 55 40 48
3 40 42 46
3 42 44 46
3 46 48 40
3 48 49 55
3 57 61 58
3 54 50 60
3 47 45 53
3 56 54 61
3 41 65 52
3 47 62 60
3 63 56 57
3 63 64 65
3 71 70 67
3 70 68 67
3 68 59 66
3 59 58 69
3 66 59 69
3 60 62 66
3 52 71 67
3 64 68 70
3 64 57 59
3 61 60 69
3 53 67 66
3 65 70 71
3 72 75 73
3 75 77 76
3 77 79 78
3 73 76 78
3 75 72 79
3 80 86 81
3 83 87 84
3 81 83 85
3 86 80 84
3 88 91 89
3 91 93 92
3 93 95 94
3 95 88 90
3 91 88 95
3 96 102 97
3 97 102 99
3 99 103 101
3 101 103 96
3 102 96 103
