ply
format ascii 1.0
comment Created by Blender 2.82 (sub 7) - www.blender.org, source file: 'goldsmithanvil.blend'
element vertex 104
property float x
property float y
property float z
property uchar red
property uchar green
property uchar blue
property uchar alpha
element face 166
property list uchar uint vertex_indices
end_header
0.097920 -0.044273 0.187544 141 120 118 255
0.123727 -0.102329 0.359720 141 120 118 255
0.111584 -0.102329 0.160089 141 120 118 255
0.106836 -0.044273 0.334124 141 120 118 255
0.008748 -0.102329 0.366714 141 120 118 255
0.022412 -0.044273 0.339259 143 121 119 255
-0.003394 -0.102329 0.167083 141 120 118 255
0.013497 -0.044273 0.192679 141 120 118 255
0.055951 0.023402 -0.198982 153 129 125 255
0.147811 -0.100306 0.079769 150 127 123 255
0.147811 -0.100306 -0.290843 150 127 123 255
-0.130940 0.023402 -0.012092 150 127 123 255
-0.222800 -0.100306 0.079769 151 128 124 255
-0.222800 -0.100306 -0.290842 150 127 123 255
-0.130940 0.120350 -0.198982 190 162 157 255
-0.130940 0.023402 -0.198982 150 127 123 255
-0.130940 0.120350 -0.012092 190 162 157 255
-0.445022 0.313311 -0.198982 197 169 164 255
0.055951 0.120350 -0.012092 190 162 157 255
0.055951 0.023402 -0.012092 151 128 124 255
0.055951 0.120350 -0.198982 190 162 157 255
0.196038 0.357049 -0.198982 197 168 163 255
0.196038 0.230951 -0.198982 191 163 158 255
0.196038 0.230951 -0.012092 190 162 157 255
-0.445022 0.313311 -0.012092 197 168 163 255
0.196038 0.357049 -0.012092 197 168 163 255
-0.445022 0.357049 -0.198982 197 168 163 255
-0.445022 0.357049 -0.012092 197 168 163 255
0.196038 0.344662 -0.030450 197 168 163 255
0.196038 0.243338 -0.180623 190 162 157 255
0.292399 0.243338 -0.030450 190 162 157 255
0.196038 0.243338 -0.030450 190 162 157 255
0.196038 0.344662 -0.180623 197 168 163 255
0.292399 0.344662 -0.030450 195 166 161 255
0.486052 0.354526 -0.092960 197 168 163 255
0.486052 0.371498 -0.092960 197 168 163 255
0.292399 0.344662 -0.180623 191 163 158 255
0.292399 0.243338 -0.180623 192 166 161 255
0.486052 0.354526 -0.118114 197 168 163 255
0.486052 0.371498 -0.118114 197 168 163 255
-0.025320 0.355749 -0.199983 211 154 74 255
-0.334964 0.237530 -0.257852 211 154 74 255
-0.334964 0.230828 -0.229051 211 154 74 255
-0.463223 -0.064057 -0.328029 211 154 74 255
-0.463223 -0.070759 -0.299227 211 154 74 255
-0.334964 -0.365644 -0.398205 211 154 74 255
-0.334964 -0.372346 -0.369404 211 154 74 255
-0.025320 -0.490565 -0.427273 211 154 74 255
-0.025320 -0.497267 -0.398472 211 154 74 255
0.284324 -0.372346 -0.369404 211 154 74 255
0.284324 -0.365644 -0.398205 211 154 74 255
0.412582 -0.070759 -0.299227 211 154 74 255
-0.123730 -0.058377 -0.352441 235 172 81 255
-0.094906 -0.126152 -0.368211 230 167 80 255
0.412582 -0.064057 -0.328029 211 154 74 255
0.284324 0.230828 -0.229051 211 154 74 255
0.284324 0.237530 -0.257852 211 154 74 255
0.044266 0.009399 -0.336670 236 172 82 255
0.016259 -0.053661 -0.372707 255 186 89 255
0.004081 -0.025025 -0.366044 255 186 89 255
0.044266 -0.126152 -0.368211 233 170 81 255
0.073089 -0.058377 -0.352441 235 171 82 255
-0.025320 -0.154226 -0.374744 233 170 81 255
-0.025320 0.362451 -0.228784 211 154 74 255
-0.025320 0.037472 -0.330138 235 172 81 255
-0.094906 0.009399 -0.336670 236 172 82 255
-0.025320 -0.094158 -0.382131 255 186 89 255
-0.054721 -0.082297 -0.379371 255 186 89 255
-0.025320 -0.013163 -0.363284 255 186 89 255
0.004081 -0.082297 -0.379371 255 186 89 255
-0.054721 -0.025025 -0.366044 255 186 89 255
-0.066900 -0.053661 -0.372707 255 186 89 255
0.134160 -0.103075 0.088178 155 113 74 255
0.134160 -0.143075 0.407140 184 139 97 255
0.134160 -0.143075 0.088178 180 132 87 255
0.134160 -0.103075 0.407140 180 132 87 255
-0.184801 -0.143075 0.407140 180 132 87 255
-0.184801 -0.103075 0.407140 180 132 87 255
-0.184801 -0.143075 0.088178 180 132 87 255
-0.184801 -0.103075 0.088178 155 113 74 255
0.014680 -0.386370 0.056921 155 113 74 255
0.014680 -0.139418 0.374119 180 132 87 255
0.014680 -0.415331 0.084512 155 113 74 255
-0.065320 -0.139418 0.374119 180 132 87 255
-0.065320 -0.386370 0.056921 155 113 74 255
-0.065320 -0.415331 0.084512 155 113 74 255
0.014680 -0.110457 0.346527 180 132 87 255
-0.065320 -0.110457 0.346527 180 132 87 255
0.174680 -0.100000 -0.305537 151 132 126 255
0.174680 -0.500000 0.094463 138 120 115 255
0.174680 -0.500000 -0.305537 138 120 115 255
0.174680 -0.100000 0.094463 151 132 126 255
-0.225320 -0.500000 0.094463 139 121 116 255
-0.225320 -0.100000 0.094463 151 132 126 255
-0.225320 -0.500000 -0.305537 138 120 115 255
-0.225320 -0.100000 -0.305537 151 132 126 255
-0.057462 -0.044273 0.195980 197 151 41 255
-0.064436 -0.102329 0.369940 197 151 41 255
-0.038887 -0.102329 0.171578 197 151 41 255
-0.160108 -0.044273 0.330823 197 151 41 255
-0.178683 -0.102329 0.355225 197 151 41 255
-0.153135 -0.102329 0.156863 197 151 41 255
-0.076222 -0.044273 0.341627 197 151 41 255
-0.141349 -0.044273 0.185175 197 151 41 255
3 0 1 2
3 3 4 1
3 5 6 4
3 7 2 6
3 3 7 5
3 8 9 10
3 9 11 12
3 11 13 12
3 13 8 10
3 11 14 15
3 16 17 14
3 8 18 19
3 15 20 8
3 19 16 11
3 17 21 22
3 20 23 18
3 14 22 20
3 16 23 24
3 25 26 27
3 24 25 27
3 24 26 17
3 23 28 25
3 29 30 31
3 25 32 21
3 21 29 22
3 23 29 31
3 33 34 35
3 31 33 28
3 32 33 36
3 32 37 29
3 38 35 34
3 36 35 39
3 36 38 37
3 37 34 30
3 40 41 42
3 42 43 44
3 44 45 46
3 46 47 48
3 47 49 48
3 50 51 49
3 45 52 53
3 54 55 51
3 56 40 55
3 49 51 55
3 57 58 59
3 54 60 61
3 47 53 62
3 56 61 57
3 41 52 43
3 47 60 50
3 63 57 64
3 63 65 41
3 66 67 68
3 60 66 69
3 52 67 53
3 64 70 65
3 64 59 68
3 61 69 58
3 53 66 62
3 65 71 52
3 72 73 74
3 75 76 73
3 77 78 76
3 73 78 74
3 75 79 77
3 80 81 82
3 83 84 85
3 81 85 82
3 86 84 87
3 88 89 90
3 91 92 89
3 93 94 92
3 95 90 94
3 91 95 93
3 96 97 98
3 97 99 100
3 99 101 100
3 101 96 98
3 102 103 99
3 0 3 1
3 3 5 4
3 5 7 6
3 7 0 2
3 3 0 7
3 8 19 9
3 9 19 11
3 11 15 13
3 13 15 8
3 11 16 14
3 16 24 17
3 8 20 18
3 15 14 20
3 19 18 16
3 17 26 21
3 20 22 23
3 14 17 22
3 16 18 23
3 25 21 26
3 24 23 25
3 24 27 26
3 23 31 28
3 29 37 30
3 25 28 32
3 21 32 29
3 23 22 29
3 33 30 34
3 31 30 33
3 32 28 33
3 32 36 37
3 38 39 35
3 36 33 35
3 36 39 38
3 37 38 34
3 40 63 41
3 42 41 43
3 44 43 45
3 46 45 47
3 47 50 49
3 50 54 51
3 45 43 52
3 54 56 55
3 56 63 40
3 55 40 48
3 40 42 46
3 42 44 46
3 46 48 40
3 48 49 55
3 57 61 58
3 54 50 60
3 47 45 53
3 56 54 61
3 41 65 52
3 47 62 60
3 63 56 57
3 63 64 65
3 71 70 67
3 70 68 67
3 68 59 66
3 59 58 69
3 66 59 69
3 60 62 66
3 52 71 67
3 64 68 70
3 64 57 59
3 61 60 69
3 53 67 66
3 65 70 71
3 72 75 73
3 75 77 76
3 77 79 78
3 73 76 78
3 75 72 79
3 80 86 81
3 83 87 84
3 81 83 85
3 86 80 84
3 88 91 89
3 91 93 92
3 93 95 94
3 95 88 90
3 91 88 95
3 96 102 97
3 97 102 99
3 99 103 101
3 101 103 96
3 102 96 103
