ply
format ascii 1.0
comment Created in Blender version 4.1.1
element vertex 72
property float x
property float y
property float z
property uchar red
property uchar green
property uchar blue
property uchar alpha
element face 96
property list uchar uint vertex_indices
end_header
0.5 0.16251542 -0.5 129 120 117 255
0.5 0.20251541 -0.5 172 159 155 255
0.5 0.16251542 0.5 130 121 118 255
0.5 0.20251541 0.5 172 159 155 255
-0.5 0.16251542 -0.5 133 122 120 255
-0.5 0.20251541 -0.5 172 159 155 255
-0.5 0.16251542 0.5 129 120 117 255
-0.5 0.20251541 0.5 172 159 155 255
0.34730446 0.20230083 0.19733731 132 97 71 255
0.34730446 0.24230084 0.19733731 132 97 71 255
0.33923125 0.20230083 0.23651414 136 102 77 255
0.33923125 0.24230084 0.23651414 132 97 71 255
-0.4362319 0.20230083 0.035872832 132 97 71 255
-0.4362319 0.24230084 0.035872832 132 97 71 255
-0.44430512 0.20230083 0.07504965 144 117 97 255
-0.44430512 0.24230084 0.07504965 132 97 71 255
0.35199827 0.20230083 -0.007909477 132 97 72 255
0.35199827 0.24230084 -0.007909477 133 99 74 255
0.3499049 0.20230083 0.03203571 146 120 100 255
0.3499049 0.24230084 0.03203571 132 97 71 255
-0.44690555 0.20230083 -0.049775645 134 100 74 255
-0.44690555 0.24230084 -0.049775645 132 97 71 255
-0.44899887 0.20230083 -0.009830445 136 102 78 255
-0.44899887 0.24230084 -0.009830445 132 97 71 255
0.43907374 0.2392183 0.3823884 132 97 71 255
0.43724728 0.2791766 0.3823884 132 97 71 255
0.4390738 0.2392183 0.4223884 132 97 71 255
0.43724728 0.2791766 0.4223884 132 97 71 255
-0.36009192 0.20268896 0.3823884 133 99 73 255
-0.36191833 0.24264723 0.3823884 142 111 88 255
-0.36009192 0.20268896 0.42238843 132 97 71 255
-0.36191833 0.24264723 0.4223884 132 97 71 255
0.47627395 0.20648187 -0.45000002 132 97 72 255
0.4351784 1.1055429 -0.44999996 134 100 76 255
0.4762739 0.20648187 0.45000005 134 100 76 255
0.43517834 1.1055429 0.45000005 136 102 77 255
0.4363156 0.20465538 -0.45000008 133 98 73 255
0.39522022 1.1037166 -0.45000008 141 109 87 255
0.43631554 0.20465538 0.45000005 133 98 73 255
0.39522016 1.1037166 0.45000005 136 102 78 255
0.43822294 0.23917939 -0.42649022 132 97 71 255
0.43639654 0.27913764 -0.42649022 132 97 71 255
0.43822294 0.23917939 -0.38649026 132 97 71 255
0.43639654 0.27913764 -0.38649026 132 97 71 255
-0.36094266 0.20265006 -0.42649022 137 104 81 255
-0.3627692 0.24260832 -0.42649022 132 97 71 255
-0.36094266 0.20265006 -0.38649026 132 97 71 255
-0.36276913 0.24260832 -0.38649032 132 98 72 255
0.18352063 0.20106532 -0.31347927 96 90 87 255
0.17906716 0.29387167 -0.31347927 123 115 112 255
0.27470195 0.2054408 -0.33079046 95 89 86 255
0.27024847 0.29824716 -0.33079046 123 115 112 255
0.21329692 0.20249419 -0.15628089 93 87 84 255
0.20884345 0.29530054 -0.15628089 123 115 112 255
0.30447823 0.20686968 -0.17359209 97 90 87 255
0.30002475 0.29967603 -0.17359209 123 115 112 255
-0.4521708 0.20205337 -0.12691806 170 142 115 255
-0.4536087 0.23201889 -0.12691806 200 165 129 255
0.21515442 0.23407608 -0.2536129 170 142 115 255
0.21371648 0.2640416 -0.2536129 204 172 141 255
-0.44658774 0.20232128 -0.09744336 170 142 115 255
-0.44802564 0.2322868 -0.09744336 200 165 129 255
0.22073749 0.234344 -0.22413822 170 142 115 255
0.21929954 0.26430953 -0.22413822 202 168 134 255
0.4401267 -0.49842885 -0.4401267 100 76 60 255
0.4401267 0.16652624 -0.4401267 139 106 82 255
0.4401267 -0.49842885 0.4401267 100 76 60 255
0.4401267 0.16652624 0.4401267 138 107 83 255
-0.4401267 -0.49842885 -0.4401267 101 77 61 255
-0.4401267 0.16652624 -0.4401267 139 106 82 255
-0.4401267 -0.49842885 0.4401267 100 76 60 255
-0.4401267 0.16652624 0.4401267 139 106 82 255
3 1 2 0
3 3 6 2
3 7 4 6
3 5 0 4
3 6 0 2
3 3 5 7
3 9 10 8
3 11 14 10
3 15 12 14
3 13 8 12
3 11 13 15
3 17 18 16
3 19 22 18
3 23 20 22
3 21 16 20
3 19 21 23
3 25 26 24
3 26 31 30
3 31 28 30
3 29 24 28
3 30 24 26
3 27 29 31
3 33 34 32
3 34 39 38
3 39 36 38
3 37 32 36
3 39 33 37
3 41 42 40
3 42 47 46
3 47 44 46
3 45 40 44
3 46 40 42
3 47 41 45
3 49 50 48
3 51 54 50
3 54 53 52
3 52 49 48
3 51 53 55
3 57 58 56
3 62 61 60
3 60 57 56
3 58 60 56
3 59 61 63
3 65 66 64
3 67 70 66
3 71 68 70
3 69 64 68
3 70 64 66
3 1 3 2
3 3 7 6
3 7 5 4
3 5 1 0
3 6 4 0
3 3 1 5
3 9 11 10
3 11 15 14
3 15 13 12
3 13 9 8
3 11 9 13
3 17 19 18
3 19 23 22
3 23 21 20
3 21 17 16
3 19 17 21
3 25 27 26
3 26 27 31
3 31 29 28
3 29 25 24
3 30 28 24
3 27 25 29
3 33 35 34
3 34 35 39
3 39 37 36
3 37 33 32
3 39 35 33
3 41 43 42
3 42 43 47
3 47 45 44
3 45 41 40
3 46 44 40
3 47 43 41
3 49 51 50
3 51 55 54
3 54 55 53
3 52 53 49
3 51 49 53
3 57 59 58
3 62 63 61
3 60 61 57
3 58 62 60
3 59 57 61
3 65 67 66
3 67 71 70
3 71 69 68
3 69 65 64
3 70 68 64
