ply
format ascii 1.0
comment Created by Blender 2.82 (sub 7) - www.blender.org, source file: 'AdvancedJobblockCrafter.blend'
element vertex 96
property float x
property float y
property float z
property uchar red
property uchar green
property uchar blue
property uchar alpha
element face 64
property list uchar uint vertex_indices
end_header
-0.450000 -0.499113 -0.450000 154 113 78 255
-0.450000 0.300887 -0.450000 155 116 83 255
0.450000 0.300887 -0.450000 156 116 84 255
0.450000 -0.499113 -0.450000 153 112 77 255
0.450000 0.300887 0.450000 153 112 77 255
0.450000 -0.499113 0.450000 158 118 88 255
-0.450000 -0.499113 0.450000 153 112 77 255
-0.450000 0.300887 0.450000 154 114 81 255
-0.500000 0.327505 0.500000 170 159 145 255
0.500000 0.327505 0.500000 170 160 146 255
0.500000 0.327505 -0.500000 170 159 145 255
-0.500000 0.327505 -0.500000 170 159 145 255
-0.500000 0.227505 -0.500000 170 159 145 255
0.500000 0.227505 -0.500000 171 160 146 255
0.500000 0.227505 0.500000 170 159 146 255
-0.500000 0.227505 0.500000 174 164 151 255
-0.200952 0.324816 -0.378155 204 162 127 255
-0.329006 0.396724 -0.116561 208 166 130 255
-0.382896 0.396724 -0.142941 204 162 127 255
-0.254842 0.324816 -0.404535 204 162 127 255
-0.376573 0.454975 -0.155857 205 163 127 255
-0.248519 0.383067 -0.417452 204 162 127 255
-0.322683 0.454975 -0.129478 204 162 127 255
-0.194629 0.383067 -0.391072 204 162 127 255
-0.315694 0.327234 -0.098266 147 154 158 255
-0.358378 0.351203 -0.011068 147 154 158 255
-0.448194 0.351203 -0.055034 147 154 158 255
-0.405510 0.327234 -0.142232 147 154 158 255
-0.427118 0.545373 -0.098091 147 154 158 255
-0.384433 0.521403 -0.185289 141 148 152 255
-0.337301 0.545373 -0.054125 147 154 158 255
-0.294617 0.521403 -0.141323 147 154 158 255
-0.170723 0.327799 0.266288 170 96 94 255
-0.170723 0.533784 0.266288 170 95 93 255
-0.249043 0.533784 0.456803 170 95 93 255
-0.249043 0.327799 0.456803 171 98 96 255
-0.439558 0.533784 0.378482 170 95 93 255
-0.439558 0.327799 0.378482 170 95 93 255
-0.361237 0.533784 0.187968 170 95 93 255
-0.361237 0.327799 0.187968 170 95 93 255
-0.198426 0.533784 0.277850 170 95 93 255
-0.260605 0.533784 0.429100 170 95 93 255
-0.411854 0.533784 0.366921 170 95 93 255
-0.260605 0.352825 0.429100 105 59 58 255
-0.411854 0.352825 0.366921 105 59 58 255
-0.349676 0.533784 0.215671 170 95 93 255
-0.198426 0.352825 0.277850 105 59 58 255
-0.349676 0.352825 0.215671 105 59 58 255
0.496400 0.329858 0.043362 199 160 123 255
0.495970 0.369847 0.044235 199 160 123 255
0.449121 0.366010 0.196993 199 160 123 255
0.449551 0.326021 0.196120 199 160 123 255
0.270794 0.366069 0.106442 199 160 123 255
0.271223 0.326081 0.105570 199 160 123 255
0.370735 0.369889 -0.019377 199 160 123 255
0.371165 0.329901 -0.020250 199 160 123 255
0.427587 0.336164 0.178884 200 191 196 255
0.427372 0.356159 0.179320 199 189 195 255
0.245862 0.347358 0.493212 199 189 195 255
0.246077 0.327364 0.492776 199 189 195 255
0.192244 0.347376 0.465986 199 189 195 255
0.192459 0.327382 0.465550 199 189 195 255
0.300446 0.356202 0.114824 199 189 195 255
0.300661 0.336208 0.114388 199 189 195 255
0.319076 0.328031 -0.208404 126 101 78 255
0.319076 0.388031 -0.208404 126 101 78 255
0.117168 0.388031 0.356603 127 103 81 255
0.117168 0.328031 0.356603 126 101 78 255
0.060667 0.388031 0.336413 128 103 81 255
0.060667 0.328031 0.336413 131 108 86 255
0.262575 0.388031 -0.228595 126 101 78 255
0.262575 0.328031 -0.228595 126 101 78 255
0.231145 0.328031 -0.400839 126 101 78 255
0.231145 0.388031 -0.400839 126 101 78 255
0.059738 0.388031 0.174157 127 103 81 255
0.059738 0.328031 0.174157 126 101 78 255
0.002239 0.388031 0.157016 128 103 81 255
0.002239 0.328031 0.157016 131 108 86 255
0.173645 0.388031 -0.417979 126 101 78 255
0.173645 0.328031 -0.417979 126 101 78 255
0.075448 0.328031 -0.521361 126 101 78 255
0.075448 0.388031 -0.521361 126 101 78 255
-0.052427 0.388031 0.064854 127 103 81 255
-0.052427 0.328031 0.064854 126 101 78 255
-0.111048 0.388031 0.052067 128 103 81 255
-0.111048 0.328031 0.052067 131 108 86 255
0.016826 0.388031 -0.534148 126 101 78 255
0.016826 0.328031 -0.534148 126 101 78 255
0.037265 0.389075 -0.529443 126 101 78 255
0.037265 0.449075 -0.529443 126 101 78 255
0.220804 0.449075 0.041795 127 103 81 255
0.220804 0.389075 0.041795 126 101 78 255
0.163680 0.449075 0.060149 128 103 81 255
0.163680 0.389075 0.060149 131 108 86 255
-0.019859 0.449075 -0.511089 126 101 78 255
-0.019859 0.389075 -0.511089 126 101 78 255
4 0 1 2 3
4 3 2 4 5
4 6 7 1 0
4 5 4 7 6
4 8 9 10 11
4 12 11 10 13
4 13 10 9 14
4 14 15 12 13
4 15 8 11 12
4 14 9 8 15
4 16 17 18 19
4 19 18 20 21
4 21 20 22 23
4 23 22 17 16
4 19 21 23 16
4 24 25 26 27
4 27 26 28 29
4 29 28 30 31
4 31 30 25 24
4 27 29 31 24
4 28 26 25 30
4 32 33 34 35
4 35 34 36 37
4 37 36 38 39
4 39 38 33 32
4 34 33 40 41
4 42 41 43 44
4 33 38 45 40
4 36 34 41 42
4 38 36 42 45
4 44 43 46 47
4 45 42 44 47
4 41 40 46 43
4 40 45 47 46
4 48 49 50 51
4 51 50 52 53
4 53 52 54 55
4 55 54 49 48
4 52 50 49 54
4 56 57 58 59
4 59 58 60 61
4 61 60 62 63
4 60 58 57 62
4 64 65 66 67
4 67 66 68 69
4 69 68 70 71
4 71 70 65 64
4 68 66 65 70
4 72 73 74 75
4 75 74 76 77
4 77 76 78 79
4 79 78 73 72
4 76 74 73 78
4 80 81 82 83
4 83 82 84 85
4 85 84 86 87
4 87 86 81 80
4 84 82 81 86
4 88 89 90 91
4 91 90 92 93
4 93 92 94 95
4 95 94 89 88
4 91 93 95 88
4 92 90 89 94
