ply
format ascii 1.0
comment Created by Blender 2.83.20 - www.blender.org, source file: ''
element vertex 96
property float x
property float y
property float z
property uchar red
property uchar green
property uchar blue
property uchar alpha
element face 64
property list uchar uint vertex_indices
end_header
-0.450000 -0.499113 0.450000 154 113 78 255
-0.450000 0.300887 0.450000 155 116 83 255
-0.450000 0.300887 -0.450000 156 116 84 255
-0.450000 -0.499113 -0.450000 153 112 77 255
0.450000 0.300887 -0.450000 153 112 77 255
0.450000 -0.499113 -0.450000 158 118 88 255
0.450000 -0.499113 0.450000 153 112 77 255
0.450000 0.300887 0.450000 154 114 81 255
0.500000 0.327505 0.500000 170 159 145 255
0.500000 0.327505 -0.500000 170 160 146 255
-0.500000 0.327505 -0.500000 170 159 145 255
-0.500000 0.327505 0.500000 170 159 145 255
-0.500000 0.227505 0.500000 170 159 145 255
-0.500000 0.227505 -0.500000 171 160 146 255
0.500000 0.227505 -0.500000 170 159 146 255
0.500000 0.227505 0.500000 174 164 151 255
-0.378155 0.324816 0.200952 204 162 127 255
-0.116561 0.396724 0.329006 208 166 130 255
-0.142941 0.396724 0.382896 204 162 127 255
-0.404535 0.324816 0.254842 204 162 127 255
-0.155857 0.454975 0.376573 205 163 127 255
-0.417452 0.383067 0.248519 204 162 127 255
-0.129478 0.454975 0.322683 204 162 127 255
-0.391072 0.383067 0.194629 204 162 127 255
-0.098266 0.327234 0.315694 147 154 158 255
-0.011068 0.351203 0.358378 147 154 158 255
-0.055034 0.351203 0.448194 147 154 158 255
-0.142232 0.327234 0.405510 147 154 158 255
-0.098091 0.545373 0.427118 147 154 158 255
-0.185289 0.521403 0.384433 141 148 152 255
-0.054125 0.545373 0.337301 147 154 158 255
-0.141323 0.521403 0.294617 147 154 158 255
0.266288 0.327799 0.170723 170 96 94 255
0.266288 0.533784 0.170723 170 95 93 255
0.456803 0.533784 0.249043 170 95 93 255
0.456803 0.327799 0.249043 171 98 96 255
0.378482 0.533784 0.439558 170 95 93 255
0.378482 0.327799 0.439558 170 95 93 255
0.187968 0.533784 0.361237 170 95 93 255
0.187968 0.327799 0.361237 170 95 93 255
0.277850 0.533784 0.198426 170 95 93 255
0.429100 0.533784 0.260605 170 95 93 255
0.366921 0.533784 0.411854 170 95 93 255
0.429100 0.352825 0.260605 105 59 58 255
0.366921 0.352825 0.411854 105 59 58 255
0.215671 0.533784 0.349676 170 95 93 255
0.277850 0.352825 0.198426 105 59 58 255
0.215671 0.352825 0.349676 105 59 58 255
0.043362 0.329858 -0.496400 199 160 123 255
0.044235 0.369847 -0.495970 199 160 123 255
0.196993 0.366010 -0.449121 199 160 123 255
0.196120 0.326021 -0.449551 199 160 123 255
0.106442 0.366069 -0.270794 199 160 123 255
0.105570 0.326081 -0.271223 199 160 123 255
-0.019377 0.369889 -0.370735 199 160 123 255
-0.020250 0.329901 -0.371165 199 160 123 255
0.178884 0.336164 -0.427587 200 191 196 255
0.179320 0.356159 -0.427372 199 189 195 255
0.493212 0.347358 -0.245862 199 189 195 255
0.492776 0.327364 -0.246077 199 189 195 255
0.465986 0.347376 -0.192244 199 189 195 255
0.465550 0.327382 -0.192459 199 189 195 255
0.114824 0.356202 -0.300446 199 189 195 255
0.114388 0.336208 -0.300661 199 189 195 255
-0.208404 0.328031 -0.319076 126 101 78 255
-0.208404 0.388031 -0.319076 126 101 78 255
0.356603 0.388031 -0.117168 127 103 81 255
0.356603 0.328031 -0.117168 126 101 78 255
0.336413 0.388031 -0.060667 128 103 81 255
0.336413 0.328031 -0.060667 131 108 86 255
-0.228595 0.388031 -0.262575 126 101 78 255
-0.228595 0.328031 -0.262575 126 101 78 255
-0.400839 0.328031 -0.231145 126 101 78 255
-0.400839 0.388031 -0.231145 126 101 78 255
0.174157 0.388031 -0.059738 127 103 81 255
0.174157 0.328031 -0.059738 126 101 78 255
0.157016 0.388031 -0.002239 128 103 81 255
0.157016 0.328031 -0.002239 131 108 86 255
-0.417979 0.388031 -0.173645 126 101 78 255
-0.417979 0.328031 -0.173645 126 101 78 255
-0.521361 0.328031 -0.075448 126 101 78 255
-0.521361 0.388031 -0.075448 126 101 78 255
0.064854 0.388031 0.052427 127 103 81 255
0.064854 0.328031 0.052427 126 101 78 255
0.052067 0.388031 0.111048 128 103 81 255
0.052067 0.328031 0.111048 131 108 86 255
-0.534148 0.388031 -0.016826 126 101 78 255
-0.534148 0.328031 -0.016826 126 101 78 255
-0.529443 0.389075 -0.037265 126 101 78 255
-0.529443 0.449075 -0.037265 126 101 78 255
0.041795 0.449075 -0.220804 127 103 81 255
0.041795 0.389075 -0.220804 126 101 78 255
0.060149 0.449075 -0.163680 128 103 81 255
0.060149 0.389075 -0.163680 131 108 86 255
-0.511089 0.449075 0.019859 126 101 78 255
-0.511089 0.389075 0.019859 126 101 78 255
4 0 1 2 3
4 3 2 4 5
4 1 0 6 7
4 5 4 7 6
4 8 9 10 11
4 12 11 10 13
4 13 10 9 14
4 14 15 12 13
4 15 8 11 12
4 14 9 8 15
4 16 17 18 19
4 19 18 20 21
4 21 20 22 23
4 23 22 17 16
4 19 21 23 16
4 24 25 26 27
4 27 26 28 29
4 29 28 30 31
4 31 30 25 24
4 27 29 31 24
4 28 26 25 30
4 32 33 34 35
4 35 34 36 37
4 37 36 38 39
4 39 38 33 32
4 34 33 40 41
4 42 41 43 44
4 33 38 45 40
4 36 34 41 42
4 38 36 42 45
4 44 43 46 47
4 45 42 44 47
4 41 40 46 43
4 40 45 47 46
4 48 49 50 51
4 51 50 52 53
4 53 52 54 55
4 55 54 49 48
4 52 50 49 54
4 56 57 58 59
4 59 58 60 61
4 61 60 62 63
4 60 58 57 62
4 64 65 66 67
4 67 66 68 69
4 69 68 70 71
4 71 70 65 64
4 68 66 65 70
4 72 73 74 75
4 75 74 76 77
4 77 76 78 79
4 79 78 73 72
4 76 74 73 78
4 80 81 82 83
4 83 82 84 85
4 85 84 86 87
4 87 86 81 80
4 84 82 81 86
4 88 89 90 91
4 91 90 92 93
4 93 92 94 95
4 95 94 89 88
4 91 93 95 88
4 92 90 89 94
