ply
format ascii 1.0
comment Created by Blender 2.82 (sub 7) - www.blender.org, source file: 'jobblockmakerworkbench.blend'
element vertex 64
property float x
property float y
property float z
property uchar red
property uchar green
property uchar blue
property uchar alpha
element face 80
property list uchar uint vertex_indices
end_header
0.500000 -0.458000 -0.500000 172 159 155 255
0.500000 -0.498000 0.500000 172 159 155 255
0.500000 -0.498000 -0.500000 173 161 157 255
0.500000 -0.458000 0.500000 172 159 155 255
-0.500000 -0.498000 0.500000 174 161 157 255
-0.500000 -0.458000 0.500000 172 159 155 255
-0.500000 -0.498000 -0.500000 172 159 155 255
-0.500000 -0.458000 -0.500000 172 159 155 255
0.347304 -0.418215 0.197337 133 98 72 255
0.339231 -0.458215 0.236514 136 103 78 255
0.347304 -0.458215 0.197337 133 98 72 255
0.339231 -0.418215 0.236514 133 98 72 255
-0.444305 -0.458215 0.075050 145 117 98 255
-0.444305 -0.418215 0.075050 133 98 72 255
-0.436232 -0.458215 0.035873 133 98 72 255
-0.436232 -0.418215 0.035873 133 98 72 255
0.351998 -0.418215 -0.007909 134 100 75 255
0.349905 -0.458215 0.032036 147 120 101 255
0.351998 -0.458215 -0.007909 133 98 73 255
0.349905 -0.418215 0.032036 133 98 72 255
-0.448999 -0.458215 -0.009830 136 103 79 255
-0.448999 -0.418215 -0.009830 133 98 72 255
-0.446906 -0.458215 -0.049776 135 101 75 255
-0.446906 -0.418215 -0.049776 133 98 72 255
0.439074 -0.421297 0.422388 133 98 72 255
-0.361918 -0.417868 0.422388 133 98 72 255
-0.360092 -0.457826 0.422388 133 98 72 255
-0.360092 -0.457826 0.382388 134 100 74 255
-0.361918 -0.417868 0.382388 142 111 89 255
0.439074 -0.421297 0.382388 133 98 72 255
0.437247 -0.381339 0.422388 133 98 72 255
0.435178 0.445027 -0.450000 135 101 77 255
0.476274 -0.454034 0.450000 135 101 77 255
0.476274 -0.454034 -0.450000 133 98 73 255
0.395220 0.443201 0.450000 136 103 79 255
0.436316 -0.455860 0.450000 134 99 74 255
0.436316 -0.455860 -0.450000 134 99 74 255
0.395220 0.443201 -0.450000 141 109 88 255
0.438223 -0.421336 -0.386490 133 98 72 255
-0.362769 -0.417907 -0.386490 133 99 73 255
-0.360943 -0.457865 -0.386490 133 98 72 255
-0.360943 -0.457865 -0.426490 137 105 82 255
-0.362769 -0.417907 -0.426490 133 98 72 255
0.438223 -0.421336 -0.426490 133 98 72 255
0.436397 -0.381378 -0.426490 133 98 72 255
0.179067 -0.366644 -0.313479 124 115 112 255
0.274702 -0.455075 -0.330790 124 115 112 255
0.183521 -0.459450 -0.313479 124 115 112 255
0.270248 -0.362268 -0.330790 124 115 112 255
0.304478 -0.453646 -0.173592 124 115 112 255
0.208843 -0.365215 -0.156281 124 115 112 255
0.213297 -0.458021 -0.156281 124 115 112 255
0.300025 -0.360839 -0.173592 124 115 112 255
-0.453609 -0.428497 -0.126918 201 165 130 255
0.215154 -0.426439 -0.253613 201 165 131 255
-0.452171 -0.458462 -0.126918 202 166 132 255
0.220737 -0.426171 -0.224138 204 170 138 255
-0.448026 -0.428229 -0.097443 201 165 130 255
-0.446588 -0.458194 -0.097443 201 165 130 255
0.213716 -0.396474 -0.253613 205 172 141 255
0.219300 -0.396206 -0.224138 203 168 135 255
0.437247 -0.381339 0.382388 133 98 72 255
0.435178 0.445027 0.450000 136 103 78 255
0.436397 -0.381378 -0.386490 133 98 72 255
3 0 1 2
3 3 4 1
3 5 6 4
3 7 2 6
3 3 7 5
3 8 9 10
3 11 12 9
3 13 14 12
3 15 10 14
3 11 15 13
3 16 17 18
3 19 20 17
3 21 22 20
3 23 18 22
3 19 23 21
3 24 25 26
3 25 27 26
3 28 29 27
3 26 29 24
3 30 28 25
3 31 32 33
3 32 34 35
3 34 36 35
3 37 33 36
3 34 31 37
3 38 39 40
3 39 41 40
3 42 43 41
3 40 43 38
3 39 44 42
3 45 46 47
3 48 49 46
3 49 50 51
3 51 45 47
3 48 50 52
3 53 54 55
3 56 57 58
3 58 53 55
3 54 58 55
3 59 57 60
3 0 3 1
3 3 5 4
3 5 7 6
3 7 0 2
3 3 0 7
3 8 11 9
3 11 13 12
3 13 15 14
3 15 8 10
3 11 8 15
3 16 19 17
3 19 21 20
3 21 23 22
3 23 16 18
3 19 16 23
3 24 30 25
3 25 28 27
3 28 61 29
3 26 27 29
3 30 61 28
3 31 62 32
3 32 62 34
3 34 37 36
3 37 31 33
3 34 62 31
3 38 63 39
3 39 42 41
3 42 44 43
3 40 41 43
3 39 63 44
3 45 48 46
3 48 52 49
3 49 52 50
3 51 50 45
3 48 45 50
3 53 59 54
3 56 60 57
3 58 57 53
3 54 56 58
3 59 53 57
