ply
format ascii 1.0
comment Created in Blender version 4.2.3 LTS
element vertex 96
property float x
property float y
property float z
property uchar red
property uchar green
property uchar blue
property uchar alpha
element face 152
property list uchar uint vertex_indices
end_header
-0.12846915 0.520667 -0.08232546 170 94 67 255
-0.08232545 0.5668107 -0.08232545 170 94 67 255
-0.08232544 0.520667 -0.12846914 170 94 67 255
-0.5 -0.49999997 -0.32040942 125 69 50 255
-0.3204094 -0.49999997 -0.5 125 69 50 255
0.08232546 0.520667 -0.12846915 170 94 67 255
0.08232545 0.5668107 -0.08232545 170 94 67 255
0.12846914 0.520667 -0.08232544 170 94 67 255
0.32040942 -0.49999997 -0.5 125 69 50 255
0.5 -0.49999997 -0.3204094 125 69 50 255
-0.12846914 0.520667 0.08232544 170 94 67 255
-0.08232546 0.520667 0.12846915 170 94 67 255
-0.08232545 0.5668107 0.08232545 170 94 67 255
-0.32040942 -0.49999997 0.5 125 69 50 255
-0.5 -0.49999997 0.3204094 125 69 50 255
0.08232544 0.520667 0.12846914 170 94 67 255
0.12846915 0.520667 0.08232546 170 94 67 255
0.08232545 0.5668107 0.08232545 170 94 67 255
0.5 -0.49999997 0.32040942 125 69 50 255
0.3204094 -0.49999997 0.5 125 69 50 255
0.059777744 0.5668107 -0.05977774 86 49 34 255
0.05977774 0.5668107 0.059777744 86 49 34 255
-0.05977774 0.5668107 -0.059777744 86 49 34 255
-0.059777744 0.5668107 0.05977774 86 49 34 255
0.0451235 0.49228936 -0.045123488 86 49 34 255
0.045123488 0.49228936 0.0451235 86 49 34 255
-0.045123488 0.49228936 -0.0451235 86 49 34 255
-0.0451235 0.49228936 0.045123488 86 49 34 255
-0.06674257 0.28022832 -0.27958903 166 121 82 255
-0.056183606 0.31704852 -0.26806593 166 121 82 255
-0.2879258 0.28022832 -0.076911986 166 121 82 255
-0.27736685 0.31704852 -0.06538889 170 126 92 255
-0.09161794 0.29585758 -0.30673572 166 121 82 255
-0.08105898 0.33267778 -0.29521263 166 121 82 255
-0.31280118 0.29585758 -0.10405868 166 121 82 255
-0.3022422 0.33267778 -0.092535585 166 121 82 255
-0.43042102 -0.5012904 -0.41895908 109 78 53 255
-0.06085728 0.7874164 -0.015650988 166 121 83 255
-0.45529637 -0.4856612 -0.44610584 109 78 53 255
-0.08573265 0.8030457 -0.042797692 168 124 89 255
-0.4009299 -0.5012904 -0.4459827 109 78 53 255
-0.03136618 0.7874164 -0.0426746 166 121 82 255
-0.42580527 -0.4856612 -0.47312942 109 78 53 255
-0.05624154 0.8030457 -0.0698213 168 124 89 255
-0.2415833 -0.32945937 -0.47039428 155 112 77 255
-0.23102434 -0.29263914 -0.45887116 154 111 76 255
-0.4627666 -0.32945937 -0.26771718 154 111 76 255
-0.45220762 -0.29263914 -0.2561941 154 111 76 255
-0.26645866 -0.31383008 -0.49754095 154 111 76 255
-0.2558997 -0.27700984 -0.48601788 154 111 76 255
-0.48764193 -0.31383008 -0.29486388 154 111 76 255
-0.47708297 -0.27700984 -0.2833408 154 111 76 255
-0.15653282 -0.032879528 -0.37757796 166 121 83 255
-0.14597386 0.0039406414 -0.36605483 168 121 83 255
-0.37771606 -0.032879528 -0.17490083 166 121 82 255
-0.3671571 0.0039406414 -0.16337776 168 121 83 255
-0.18140818 -0.017250298 -0.40472463 166 121 82 255
-0.17084922 0.019569872 -0.39320156 168 121 83 255
-0.40259144 -0.017250298 -0.20204756 166 121 82 255
-0.39203247 0.019569872 -0.19052449 168 121 83 255
0.0142098665 0.5625178 -0.19124496 167 121 84 255
0.024768814 0.599338 -0.17972188 166 121 82 255
-0.20697339 0.5625178 0.011432111 168 124 89 255
-0.19641443 0.599338 0.022955194 166 121 83 255
-0.010665491 0.578147 -0.21839166 166 121 82 255
-0.0001065284 0.61496717 -0.20686857 166 121 82 255
-0.23184875 0.578147 -0.015714586 166 121 82 255
-0.22128978 0.61496717 -0.004191503 166 121 82 255
-0.31391773 0.15768568 0.19227846 126 120 114 255
-0.18499005 0.15542297 0.30873927 126 120 114 255
-0.3204698 0.162032 0.19885819 130 123 117 255
-0.19704574 0.16342013 0.3208459 127 121 115 255
-0.25155354 0.35054433 0.12698537 178 169 160 255
-0.12262584 0.34828162 0.24344619 178 169 160 255
-0.25810558 0.35489064 0.13356508 178 169 160 255
-0.13468152 0.35627878 0.2555528 178 169 160 255
-0.14507437 0.44101647 0.13988519 178 169 160 255
-0.15318693 0.44690558 0.14953147 178 169 160 255
-0.24719939 0.15518394 0.24861445 127 121 115 255
-0.20700932 0.1293612 0.2107281 128 121 115 255
-0.22807965 0.15494885 0.20044897 168 121 83 255
-0.43308228 -0.4790131 0.41507939 122 89 62 255
-0.2536425 0.17190602 0.22611986 169 125 91 255
-0.4586451 -0.46205586 0.44075027 122 89 62 255
-0.19963123 0.1552688 0.22856632 168 121 83 255
-0.40463385 -0.47869313 0.4431967 122 89 62 255
-0.2251941 0.17222598 0.25423723 168 124 90 255
-0.43019667 -0.4617359 0.4688676 122 89 62 255
-0.4996537 -0.5066578 0.35471448 122 89 62 255
-0.3431874 -0.504898 0.5093599 122 89 62 255
-0.53502643 -0.48319328 0.3902367 122 89 62 255
-0.37856013 -0.4814335 0.5448821 122 89 62 255
-0.48344383 -0.45652938 0.33774328 122 89 62 255
-0.32697755 -0.4547696 0.49238873 122 89 62 255
-0.51881653 -0.43306482 0.37326548 122 89 62 255
-0.36235029 -0.43130505 0.52791095 122 89 62 255
3 4 9 19
3 15 13 19
3 7 18 9
3 17 23 12
3 2 8 4
3 0 1 2
3 5 6 7
3 10 11 12
3 15 16 17
3 4 0 2
3 16 19 18
3 9 5 7
3 14 11 10
3 17 7 6
3 6 2 1
3 12 15 17
3 1 10 12
3 10 3 14
3 23 26 22
3 1 20 6
3 6 21 17
3 12 22 1
3 27 24 26
3 22 24 20
3 21 27 23
3 20 25 21
3 29 30 28
3 30 35 34
3 35 32 34
3 33 28 32
3 34 28 30
3 31 33 35
3 37 38 36
3 39 42 38
3 42 41 40
3 40 37 36
3 42 36 38
3 39 41 43
3 45 46 44
3 47 50 46
3 51 48 50
3 48 45 44
3 50 44 46
3 47 49 51
3 53 54 52
3 55 58 54
3 59 56 58
3 57 52 56
3 58 52 54
3 55 57 59
3 61 62 60
3 62 67 66
3 67 64 66
3 65 60 64
3 62 64 60
3 67 61 65
3 79 71 78
3 78 74 70
3 77 72 74
3 72 79 68
3 70 72 68
3 71 73 75
3 77 73 76
3 78 75 77
3 79 73 69
3 81 82 80
3 83 86 82
3 87 84 86
3 85 80 84
3 89 90 88
3 90 95 94
3 95 92 94
3 93 88 92
3 94 88 90
3 91 93 95
3 19 13 14
3 14 3 4
3 4 8 9
3 9 18 19
3 19 14 4
3 15 11 13
3 7 16 18
3 17 21 23
3 2 5 8
3 4 3 0
3 16 15 19
3 9 8 5
3 14 13 11
3 17 16 7
3 6 5 2
3 12 11 15
3 1 0 10
3 10 0 3
3 23 27 26
3 1 22 20
3 6 20 21
3 12 23 22
3 27 25 24
3 22 26 24
3 21 25 27
3 20 24 25
3 29 31 30
3 30 31 35
3 35 33 32
3 33 29 28
3 34 32 28
3 31 29 33
3 37 39 38
3 39 43 42
3 42 43 41
3 40 41 37
3 42 40 36
3 39 37 41
3 45 47 46
3 47 51 50
3 51 49 48
3 48 49 45
3 50 48 44
3 47 45 49
3 53 55 54
3 55 59 58
3 59 57 56
3 57 53 52
3 58 56 52
3 55 53 57
3 61 63 62
3 62 63 67
3 67 65 64
3 65 61 60
3 62 66 64
3 67 63 61
3 70 68 79
3 79 69 71
3 78 70 79
3 78 77 74
3 77 76 72
3 72 76 79
3 70 74 72
3 71 69 73
3 77 75 73
3 78 71 75
3 79 76 73
3 81 83 82
3 83 87 86
3 87 85 84
3 85 81 80
3 89 91 90
3 90 91 95
3 95 93 92
3 93 89 88
3 94 92 88
3 91 89 93
