ply
format ascii 1.0
comment Created by Blender 2.83.20 - www.blender.org, source file: ''
element vertex 165
property float x
property float y
property float z
property float s
property float t
property uchar red
property uchar green
property uchar blue
property uchar alpha
element face 170
property list uchar uint vertex_indices
end_header
0.161990 -0.175392 0.161990 -9.0 -9.0 41 46 37 255
0.156578 -0.205079 -0.132264 -9.0 -9.0 58 64 52 255
0.161990 -0.175392 -0.161990 -9.0 -9.0 41 46 37 255
-0.105440 -0.499372 0.105440 -9.0 -9.0 62 68 55 255
-0.133199 -0.203804 0.154794 -9.0 -9.0 61 68 54 255
-0.161990 -0.175392 0.161990 -9.0 -9.0 41 46 37 255
-0.161990 -0.175392 -0.161990 -9.0 -9.0 41 46 37 255
-0.156823 -0.204995 0.132386 -9.0 -9.0 61 68 54 255
-0.105440 -0.499372 -0.105440 -9.0 -9.0 61 68 54 255
-0.105440 -0.499372 0.105440 -9.0 -9.0 62 68 55 255
-0.200620 -0.173631 -0.200620 -9.0 -9.0 61 68 54 255
0.105440 -0.499372 -0.105440 -9.0 -9.0 61 68 54 255
-0.083935 -0.499372 -0.083935 -9.0 -9.0 61 68 54 255
-0.105440 -0.499372 -0.105440 -9.0 -9.0 61 68 54 255
0.105440 -0.499372 0.105440 -9.0 -9.0 61 68 54 255
0.105440 -0.499372 0.105440 -9.0 -9.0 61 68 54 255
0.105440 -0.499372 -0.105440 -9.0 -9.0 61 68 54 255
0.083935 -0.499372 0.083935 -9.0 -9.0 61 68 54 255
-0.083935 -0.499372 0.083935 -9.0 -9.0 61 68 54 255
0.083935 -0.499372 -0.083935 -9.0 -9.0 60 67 53 255
-0.133571 -0.203811 -0.157029 -9.0 -9.0 61 68 54 255
-0.086942 -0.470953 -0.110400 -9.0 -9.0 61 68 54 255
0.133571 -0.203811 -0.157029 -9.0 -9.0 59 66 52 255
0.156578 -0.205079 0.132264 -9.0 -9.0 61 68 54 255
0.110405 -0.469607 -0.086091 -9.0 -9.0 61 68 54 255
0.133199 -0.203804 0.154794 -9.0 -9.0 61 68 54 255
0.086700 -0.470202 0.108295 -9.0 -9.0 61 68 54 255
-0.110607 -0.469768 0.086171 -9.0 -9.0 61 68 54 255
-0.156823 -0.204995 -0.132386 -9.0 -9.0 61 68 54 255
-0.154910 -0.144672 0.154910 -9.0 -9.0 61 68 54 255
-0.154910 -0.144672 -0.154910 -9.0 -9.0 61 68 54 255
0.200620 -0.173631 0.200620 -9.0 -9.0 61 68 54 255
0.200620 -0.173631 -0.200620 -9.0 -9.0 61 68 54 255
-0.200620 -0.173631 0.200620 -9.0 -9.0 61 68 54 255
0.154910 -0.144672 -0.154910 -9.0 -9.0 61 68 54 255
0.154910 -0.144672 0.154910 -9.0 -9.0 61 68 54 255
-0.109015 -0.047845 -0.109015 -9.0 -9.0 41 46 37 255
0.125265 -0.047845 -0.125265 -9.0 -9.0 61 67 54 255
0.109015 -0.047845 -0.109015 -9.0 -9.0 41 46 37 255
0.109015 -0.047845 0.109015 -9.0 -9.0 41 46 37 255
-0.125265 -0.047845 0.125265 -9.0 -9.0 55 62 49 255
-0.109015 -0.047845 0.109015 -9.0 -9.0 41 46 37 255
-0.125265 -0.047845 -0.125265 -9.0 -9.0 61 68 54 255
0.125265 -0.047845 0.125265 -9.0 -9.0 61 68 54 255
-0.140396 -0.029729 0.140396 -9.0 -9.0 61 68 54 255
-0.059705 -0.029729 -0.059705 -9.0 -9.0 61 68 54 255
-0.140396 -0.029729 -0.140396 -9.0 -9.0 61 68 54 255
0.140396 -0.029729 -0.140396 -9.0 -9.0 61 68 54 255
0.059705 -0.029729 0.059705 -9.0 -9.0 61 68 54 255
0.140396 -0.029729 0.140396 -9.0 -9.0 60 67 54 255
0.059705 -0.029729 -0.059705 -9.0 -9.0 61 68 54 255
-0.059705 -0.029729 0.059705 -9.0 -9.0 61 68 54 255
-0.079653 0.066621 -0.079653 -9.0 -9.0 61 68 54 255
-0.031815 0.066621 0.031815 -9.0 -9.0 61 68 54 255
-0.031815 0.066621 -0.031815 -9.0 -9.0 61 68 54 255
0.031815 0.066621 -0.031815 -9.0 -9.0 61 68 54 255
0.000000 0.179848 -0.000000 -9.0 -9.0 61 68 54 255
0.079653 0.066621 0.079653 -9.0 -9.0 61 68 54 255
0.031815 0.066621 0.031815 -9.0 -9.0 61 68 54 255
0.079653 0.066621 -0.079653 -9.0 -9.0 61 68 54 255
-0.079653 0.066621 0.079653 -9.0 -9.0 61 68 54 255
-0.086700 -0.470202 0.108295 -9.0 -9.0 61 68 54 255
-0.110607 -0.469768 -0.086171 -9.0 -9.0 61 68 54 255
0.083935 -0.489018 -0.083935 0.000000 1.000000 255 150 48 255
0.083935 -0.489018 0.083935 0.000000 1.000000 255 150 48 255
-0.083935 -0.489018 0.083935 0.000000 1.000000 255 150 48 255
-0.083935 -0.489018 -0.083935 0.000000 1.000000 255 150 48 255
-0.083935 -0.489018 0.083935 -9.0 -9.0 61 68 54 255
-0.083935 -0.489018 -0.083935 -9.0 -9.0 61 68 54 255
0.083935 -0.489018 -0.083935 -9.0 -9.0 61 68 54 255
0.083935 -0.489018 0.083935 -9.0 -9.0 61 68 54 255
-0.133571 -0.199886 -0.134547 -9.0 -9.0 61 68 54 255
0.133571 -0.199886 -0.134547 -9.0 -9.0 61 68 54 255
-0.027221 0.441381 -0.010000 -9.0 -9.0 92 94 83 255
-0.027221 0.441381 0.010000 -9.0 -9.0 92 94 83 255
0.027221 0.441381 0.010000 -9.0 -9.0 92 94 83 255
0.027221 0.441381 -0.010000 -9.0 -9.0 92 94 83 255
0.086942 -0.470953 -0.110400 -9.0 -9.0 61 68 54 255
0.087926 -0.465683 0.086091 0.000000 1.000000 255 150 48 255
0.087926 -0.465683 -0.086091 0.000000 1.000000 255 150 48 255
0.134099 -0.201156 -0.132264 0.000000 1.000000 255 150 48 255
0.134099 -0.201156 0.132264 0.000000 1.000000 255 150 48 255
-0.088687 -0.465491 -0.086171 -9.0 -9.0 61 68 54 255
-0.134903 -0.200719 -0.132386 -9.0 -9.0 61 68 54 255
0.027221 0.361381 -0.010000 -9.0 -9.0 72 74 65 255
-0.027221 0.361381 -0.010000 -9.0 -9.0 72 74 65 255
0.010000 0.423151 0.027221 -9.0 -9.0 72 74 65 255
-0.010000 0.423151 0.027221 -9.0 -9.0 72 74 65 255
-0.010000 0.423151 -0.027221 -9.0 -9.0 72 74 65 255
0.010000 0.423151 -0.027221 -9.0 -9.0 72 74 65 255
-0.027221 0.361381 0.010000 -9.0 -9.0 72 74 65 255
0.110405 -0.469607 0.086091 -9.0 -9.0 61 68 54 255
-0.086700 -0.466292 0.085892 0.000000 1.000000 255 150 48 255
0.086700 -0.466292 0.085892 0.000000 1.000000 255 150 48 255
0.133199 -0.199893 0.132391 0.000000 1.000000 255 150 48 255
-0.133199 -0.199893 0.132391 0.000000 1.000000 255 150 48 255
0.027221 0.361381 0.010000 -9.0 -9.0 72 74 65 255
0.086942 -0.467029 -0.087917 -9.0 -9.0 61 68 54 255
0.133199 -0.199893 0.132391 -9.0 -9.0 61 68 54 255
-0.133199 -0.199893 0.132391 -9.0 -9.0 61 68 54 255
-0.088687 -0.465491 -0.086171 0.000000 1.000000 255 150 48 255
-0.088687 -0.465491 0.086171 0.000000 1.000000 255 150 48 255
-0.134903 -0.200719 0.132386 0.000000 1.000000 255 150 48 255
-0.134903 -0.200719 -0.132386 0.000000 1.000000 255 150 48 255
-0.086942 -0.467029 -0.087917 -9.0 -9.0 61 68 54 255
0.086700 -0.466292 0.085892 -9.0 -9.0 61 68 54 255
0.010000 0.497904 0.027221 -9.0 -9.0 92 94 83 255
-0.010000 0.497904 0.027221 -9.0 -9.0 92 94 83 255
-0.088687 -0.465491 0.086171 -9.0 -9.0 61 68 54 255
-0.134903 -0.200719 0.132386 -9.0 -9.0 61 68 54 255
0.059705 0.053084 -0.059705 -9.0 -9.0 41 46 37 255
-0.059705 0.053084 -0.059705 -9.0 -9.0 41 46 37 255
0.027221 0.239192 -0.010000 -9.0 -9.0 72 74 65 255
0.027221 0.239192 0.010000 -9.0 -9.0 72 74 65 255
-0.027221 0.239192 0.010000 -9.0 -9.0 72 74 65 255
-0.027221 0.239192 -0.010000 -9.0 -9.0 72 74 65 255
0.086942 -0.467029 -0.087917 0.000000 1.000000 255 150 48 255
-0.086942 -0.467029 -0.087917 0.000000 1.000000 255 150 48 255
-0.133571 -0.199886 -0.134547 0.000000 1.000000 255 150 48 255
0.133571 -0.199886 -0.134547 0.000000 1.000000 255 150 48 255
0.077493 0.460014 -0.077493 -9.0 -9.0 59 60 53 255
-0.077493 0.460014 -0.077493 -9.0 -9.0 59 60 53 255
-0.077493 0.600000 -0.077493 -9.0 -9.0 43 44 38 255
0.077493 0.600000 -0.077493 -9.0 -9.0 43 44 38 255
-0.059705 0.053084 0.059705 -9.0 -9.0 41 46 37 255
0.059705 0.053084 0.059705 -9.0 -9.0 41 46 37 255
-0.077493 0.460014 0.077493 -9.0 -9.0 59 60 53 255
-0.077493 0.600000 0.077493 -9.0 -9.0 43 44 38 255
-0.027221 0.117170 0.010000 -9.0 -9.0 72 74 65 255
0.027221 0.117170 0.010000 -9.0 -9.0 72 74 65 255
0.027221 0.197170 0.010000 -9.0 -9.0 92 94 83 255
-0.027221 0.197170 0.010000 -9.0 -9.0 92 94 83 255
-0.027221 0.117170 -0.010000 -9.0 -9.0 72 74 65 255
-0.027221 0.197170 -0.010000 -9.0 -9.0 92 94 83 255
0.027221 0.117170 -0.010000 -9.0 -9.0 72 74 65 255
0.027221 0.197170 -0.010000 -9.0 -9.0 92 94 83 255
-0.010000 0.178940 0.027221 -9.0 -9.0 72 74 65 255
0.010000 0.178940 0.027221 -9.0 -9.0 72 74 65 255
0.010000 0.258940 0.027221 -9.0 -9.0 92 94 83 255
-0.010000 0.258940 0.027221 -9.0 -9.0 92 94 83 255
-0.010000 0.178940 -0.027221 -9.0 -9.0 72 74 65 255
-0.010000 0.258940 -0.027221 -9.0 -9.0 92 94 83 255
0.010000 0.178940 -0.027221 -9.0 -9.0 72 74 65 255
0.010000 0.258940 -0.027221 -9.0 -9.0 92 94 83 255
0.010000 0.300962 0.027221 -9.0 -9.0 72 74 65 255
-0.010000 0.300962 0.027221 -9.0 -9.0 72 74 65 255
-0.010000 0.300962 -0.027221 -9.0 -9.0 72 74 65 255
0.010000 0.300962 -0.027221 -9.0 -9.0 72 74 65 255
0.077493 0.460014 0.077493 -9.0 -9.0 59 60 53 255
0.077493 0.600000 0.077493 -9.0 -9.0 43 44 38 255
-0.010000 0.380962 0.027221 -9.0 -9.0 92 94 83 255
-0.010000 0.380962 -0.027221 -9.0 -9.0 92 94 83 255
0.010000 0.380962 -0.027221 -9.0 -9.0 92 94 83 255
-0.086700 -0.466292 0.085892 -9.0 -9.0 61 68 54 255
0.010000 0.380962 0.027221 -9.0 -9.0 92 94 83 255
0.027221 0.319192 -0.010000 -9.0 -9.0 92 94 83 255
0.027221 0.319192 0.010000 -9.0 -9.0 92 94 83 255
-0.027221 0.319192 0.010000 -9.0 -9.0 92 94 83 255
-0.027221 0.319192 -0.010000 -9.0 -9.0 92 94 83 255
-0.010000 0.497904 -0.027221 -9.0 -9.0 92 94 83 255
0.010000 0.497904 -0.027221 -9.0 -9.0 92 94 83 255
0.087926 -0.465683 -0.086091 -9.0 -9.0 61 68 54 255
0.134099 -0.201156 -0.132264 -9.0 -9.0 61 68 54 255
0.087926 -0.465683 0.086091 -9.0 -9.0 61 68 54 255
0.134099 -0.201156 0.132264 -9.0 -9.0 61 68 54 255
3 0 1 2
3 3 4 5
3 6 7 5
3 3 8 9
3 5 10 6
3 11 12 8
3 13 11 8
3 14 9 15
3 16 15 11
3 9 17 15
3 8 18 9
3 15 19 11
3 2 20 6
3 13 20 21
3 16 22 2
3 23 0 14
3 16 1 24
3 25 0 5
3 14 25 26
3 3 7 27
3 13 28 6
3 10 29 30
3 31 0 2
3 6 32 2
3 0 33 5
3 31 34 35
3 32 30 34
3 33 35 29
3 36 37 38
3 39 40 41
3 41 42 36
3 38 43 39
3 44 45 46
3 47 48 49
3 46 50 47
3 49 51 44
3 52 53 54
3 55 54 56
3 57 55 58
3 59 54 55
3 60 58 53
3 53 58 56
3 54 53 56
3 58 55 56
3 0 23 1
3 3 61 4
3 6 28 7
4 62 13 3 27
3 3 13 8
3 5 33 10
3 11 19 12
3 13 16 11
3 14 3 9
3 16 14 15
4 63 64 65 66
3 9 18 17
3 8 12 18
3 15 17 19
4 67 18 12 68
4 69 19 17 70
4 68 12 19 69
4 71 20 22 72
4 73 74 75 76
3 2 22 20
3 13 6 20
3 16 77 22
4 78 79 80 81
4 82 83 28 62
4 84 85 73 76
4 86 87 88 89
4 85 90 74 73
4 77 16 13 21
3 14 91 23
3 16 2 1
4 92 93 94 95
4 96 84 76 75
4 72 22 77 97
4 98 25 4 99
4 49 43 37 47
3 5 4 25
3 14 0 25
4 100 101 102 103
4 104 21 20 71
4 105 26 25 98
4 87 86 106 107
4 108 27 7 109
3 3 5 7
3 13 62 28
4 59 110 111 52
4 39 35 34 38
4 109 7 28 83
4 112 113 114 115
4 116 117 118 119
3 10 33 29
3 2 32 31
3 6 10 32
3 0 31 33
4 41 29 35 39
3 31 32 34
3 32 10 30
3 33 31 35
3 36 42 37
4 61 3 14 26
4 36 30 29 41
4 38 34 30 36
4 91 14 16 24
3 39 43 40
3 41 40 42
3 38 37 43
3 44 51 45
4 44 40 43 49
4 46 42 40 44
4 47 37 42 46
4 120 121 122 123
3 47 50 48
3 46 45 50
3 49 48 51
4 60 124 125 57
4 124 51 48 125
4 111 45 51 124
4 121 126 127 122
3 52 60 53
4 52 111 124 60
4 57 125 110 59
3 57 59 55
3 59 52 54
3 60 57 58
4 128 129 130 131
4 132 128 131 133
4 134 132 133 135
4 134 129 128 132
4 133 131 130 135
4 136 137 138 139
4 140 136 139 141
4 142 140 141 143
4 137 142 143 138
4 143 141 139 138
4 144 145 146 147
4 148 120 123 149
4 126 148 149 127
4 125 48 50 110
4 146 145 150 151
4 147 146 151 152
4 99 4 61 153
4 144 147 152 154
4 152 151 150 154
4 113 112 155 156
4 114 113 156 157
4 115 114 157 158
4 112 115 158 155
4 82 62 27 108
4 120 148 126 121
4 153 61 26 105
4 88 87 107 159
4 89 88 159 160
4 137 136 140 142
4 86 89 160 106
4 161 24 1 162
4 163 91 24 161
4 90 96 75 74
4 162 1 23 164
4 97 77 21 104
4 84 96 90 85
4 164 23 91 163
4 129 134 135 130
4 145 144 154 150
4 110 50 45 111
4 158 157 156 155
4 70 17 18 67
4 122 127 149 123
