ply
format ascii 1.0
comment Created by Blender 3.4.1 - www.blender.org
element vertex 133
property float x
property float y
property float z
property float s
property float t
property uchar red
property uchar green
property uchar blue
property uchar alpha
element face 147
property list uchar uint vertex_indices
end_header
0.194521 -0.002338 0.194521 0.000000 -0.000000 41 46 37 255
0.188022 -0.037987 -0.158825 0.000000 -0.000000 58 64 52 255
0.194521 -0.002338 -0.194521 0.000000 -0.000000 41 46 37 255
-0.126614 -0.391379 0.126614 0.000000 -0.000000 62 68 55 255
-0.159948 -0.036456 0.185880 0.000000 -0.000000 61 68 54 255
-0.194521 -0.002338 0.194521 0.000000 -0.000000 41 46 37 255
-0.194521 -0.002338 -0.194521 0.000000 -0.000000 41 46 37 255
-0.188316 -0.037887 0.158972 0.000000 -0.000000 61 68 54 255
-0.126614 -0.391379 -0.126614 0.000000 -0.000000 61 68 54 255
-0.126614 -0.391379 0.126614 0.000000 -0.000000 62 68 55 255
-0.240908 -0.000224 -0.240908 0.000000 -0.000000 61 68 54 255
0.126614 -0.391379 -0.126614 0.000000 -0.000000 61 68 54 255
-0.100790 -0.391379 -0.100790 0.000000 -0.000000 61 68 54 255
-0.126614 -0.391379 -0.126614 0.000000 -0.000000 61 68 54 255
0.126614 -0.391379 0.126614 0.000000 -0.000000 61 68 54 255
0.126614 -0.391379 0.126614 0.000000 -0.000000 61 68 54 255
0.126614 -0.391379 -0.126614 0.000000 -0.000000 61 68 54 255
0.100790 -0.391379 0.100790 0.000000 -0.000000 61 68 54 255
-0.100790 -0.391379 0.100790 0.000000 -0.000000 61 68 54 255
0.100790 -0.391379 -0.100790 0.000000 -0.000000 60 67 53 255
-0.160395 -0.036464 -0.188564 0.000000 -0.000000 61 68 54 255
-0.104402 -0.357254 -0.132571 0.000000 -0.000000 61 68 54 255
0.160395 -0.036464 -0.188564 0.000000 -0.000000 59 66 52 255
0.188022 -0.037987 0.158825 0.000000 -0.000000 61 68 54 255
0.132576 -0.355637 -0.103380 0.000000 -0.000000 61 68 54 255
0.159948 -0.036456 0.185880 0.000000 -0.000000 61 68 54 255
0.104111 -0.356352 0.130042 0.000000 -0.000000 61 68 54 255
-0.132819 -0.355831 0.103475 0.000000 -0.000000 61 68 54 255
-0.188316 -0.037887 -0.158972 0.000000 -0.000000 61 68 54 255
-0.186019 0.034551 0.186019 0.000000 -0.000000 61 68 54 255
-0.186019 0.034551 -0.186019 0.000000 -0.000000 61 68 54 255
0.240908 -0.000224 0.240908 0.000000 -0.000000 61 68 54 255
0.240908 -0.000224 -0.240908 0.000000 -0.000000 61 68 54 255
-0.240908 -0.000224 0.240908 0.000000 -0.000000 61 68 54 255
0.186019 0.034551 -0.186019 0.000000 -0.000000 61 68 54 255
0.186019 0.034551 0.186019 0.000000 -0.000000 61 68 54 255
-0.130907 0.150822 -0.130907 0.000000 -0.000000 41 46 37 255
0.150420 0.150822 -0.150420 0.000000 -0.000000 61 67 54 255
0.130907 0.150822 -0.130907 0.000000 -0.000000 41 46 37 255
0.130907 0.150822 0.130907 0.000000 -0.000000 41 46 37 255
-0.150420 0.150822 0.150420 0.000000 -0.000000 55 62 49 255
-0.130907 0.150822 0.130907 0.000000 -0.000000 41 46 37 255
-0.150420 0.150822 -0.150420 0.000000 -0.000000 61 68 54 255
0.150420 0.150822 0.150420 0.000000 -0.000000 61 68 54 255
-0.168591 0.172577 0.168591 0.000000 -0.000000 61 68 54 255
-0.071694 0.172577 -0.071694 0.000000 -0.000000 61 68 54 255
-0.168591 0.172577 -0.168591 0.000000 -0.000000 61 68 54 255
0.168591 0.172577 -0.168591 0.000000 -0.000000 61 68 54 255
0.071694 0.172577 0.071694 0.000000 -0.000000 61 68 54 255
0.168591 0.172577 0.168591 0.000000 -0.000000 60 67 54 255
0.071694 0.172577 -0.071694 0.000000 -0.000000 61 68 54 255
-0.071694 0.172577 0.071694 0.000000 -0.000000 61 68 54 255
-0.095648 0.288276 -0.095648 0.000000 -0.000000 61 68 54 255
-0.038204 0.288276 0.038204 0.000000 -0.000000 61 68 54 255
-0.038204 0.288276 -0.038204 0.000000 -0.000000 61 68 54 255
0.038204 0.288276 -0.038204 0.000000 -0.000000 61 68 54 255
0.000000 0.424241 0.000000 0.000000 -0.000000 61 68 54 255
0.095648 0.288276 0.095648 0.000000 -0.000000 61 68 54 255
0.038204 0.288276 0.038204 0.000000 -0.000000 61 68 54 255
0.095648 0.288276 -0.095648 0.000000 -0.000000 61 68 54 255
-0.095648 0.288276 0.095648 0.000000 -0.000000 61 68 54 255
-0.104111 -0.356352 0.130042 0.000000 -0.000000 61 68 54 255
-0.132819 -0.355831 -0.103475 0.000000 -0.000000 61 68 54 255
0.100790 -0.378946 -0.100790 0.000000 1.000000 255 150 48 255
0.100790 -0.378946 0.100790 0.000000 1.000000 255 150 48 255
-0.100790 -0.378946 0.100790 0.000000 1.000000 255 150 48 255
-0.100790 -0.378946 -0.100790 0.000000 1.000000 255 150 48 255
-0.100790 -0.378946 0.100790 0.000000 -0.000000 61 68 54 255
-0.100790 -0.378946 -0.100790 0.000000 -0.000000 61 68 54 255
0.100790 -0.378946 -0.100790 0.000000 -0.000000 61 68 54 255
0.100790 -0.378946 0.100790 0.000000 -0.000000 61 68 54 255
-0.160395 -0.031751 -0.161566 0.000000 -0.000000 61 68 54 255
0.160395 -0.031751 -0.161566 0.000000 -0.000000 61 68 54 255
0.500000 0.199895 -0.030000 0.000000 -0.000000 54 60 49 255
0.500000 0.199895 0.030000 0.000000 -0.000000 52 59 47 255
-0.133544 0.199895 0.030000 0.000000 -0.000000 62 69 55 255
-0.133544 0.199895 -0.030000 0.000000 -0.000000 61 68 54 255
0.104402 -0.357254 -0.132571 0.000000 -0.000000 61 68 54 255
0.105584 -0.350925 0.103380 0.000000 1.000000 255 150 48 255
0.105584 -0.350925 -0.103380 0.000000 1.000000 255 150 48 255
0.161029 -0.033276 -0.158825 0.000000 1.000000 255 150 48 255
0.161029 -0.033276 0.158825 0.000000 1.000000 255 150 48 255
0.272285 0.231464 -0.018000 0.000000 -0.000000 61 68 54 255
0.272285 0.231464 0.018000 0.000000 -0.000000 61 68 54 255
0.297635 0.257026 0.018000 0.000000 -0.000000 68 75 62 255
0.297635 0.257026 -0.018000 0.000000 -0.000000 66 73 60 255
-0.133544 0.259895 0.030000 0.000000 -0.000000 61 68 54 255
-0.133544 0.259895 -0.030000 0.000000 -0.000000 61 68 54 255
0.470216 0.035174 -0.018000 0.000000 -0.000000 42 47 38 255
0.495566 0.060735 -0.018000 0.000000 -0.000000 61 68 54 255
0.500000 0.259895 0.030000 0.000000 -0.000000 64 71 57 255
0.132576 -0.355637 0.103380 0.000000 -0.000000 61 68 54 255
-0.104111 -0.351656 0.103140 0.000000 1.000000 255 150 48 255
0.104111 -0.351656 0.103140 0.000000 1.000000 255 150 48 255
0.159948 -0.031760 0.158978 0.000000 1.000000 255 150 48 255
-0.159948 -0.031760 0.158978 0.000000 1.000000 255 150 48 255
0.470216 0.035174 0.018000 0.000000 -0.000000 42 47 38 255
0.495566 0.060735 0.018000 0.000000 -0.000000 61 68 54 255
0.159948 -0.031760 0.158978 0.000000 -0.000000 61 68 54 255
-0.159948 -0.031760 0.158978 0.000000 -0.000000 61 68 54 255
0.503748 -0.055928 0.120000 0.000000 -0.000000 42 47 38 255
0.503748 -0.055928 -0.120000 0.000000 -0.000000 53 59 47 255
0.503748 0.332072 -0.120000 0.000000 -0.000000 62 69 55 255
0.503748 0.332072 0.120000 0.000000 -0.000000 64 71 58 255
-0.106497 -0.350695 -0.103475 0.000000 1.000000 255 150 48 255
-0.106497 -0.350695 0.103475 0.000000 1.000000 255 150 48 255
-0.161994 -0.032751 0.158972 0.000000 1.000000 255 150 48 255
-0.161994 -0.032751 -0.158972 0.000000 1.000000 255 150 48 255
-0.104402 -0.352541 -0.105573 0.000000 -0.000000 61 68 54 255
0.104111 -0.351656 0.103140 0.000000 -0.000000 61 68 54 255
-0.071694 0.272021 0.071694 0.000000 -0.000000 41 46 37 255
0.071694 0.272021 0.071694 0.000000 -0.000000 41 46 37 255
-0.106497 -0.350695 0.103475 0.000000 -0.000000 61 68 54 255
-0.161994 -0.032751 0.158972 0.000000 -0.000000 61 68 54 255
-0.161994 -0.032751 -0.158972 0.000000 -0.000000 61 68 54 255
0.465736 -0.055928 -0.120000 0.000000 -0.000000 42 47 38 255
0.465736 0.332072 -0.120000 0.000000 -0.000000 61 68 54 255
0.104402 -0.352541 -0.105573 0.000000 1.000000 255 150 48 255
-0.104402 -0.352541 -0.105573 0.000000 1.000000 255 150 48 255
-0.160395 -0.031751 -0.161566 0.000000 1.000000 255 150 48 255
0.160395 -0.031751 -0.161566 0.000000 1.000000 255 150 48 255
0.465736 -0.055928 0.120000 0.000000 -0.000000 42 47 38 255
0.465736 0.332072 0.120000 0.000000 -0.000000 61 68 54 255
0.071694 0.272021 -0.071694 0.000000 -0.000000 41 46 37 255
-0.071694 0.272021 -0.071694 0.000000 -0.000000 41 46 37 255
-0.104111 -0.351656 0.103140 0.000000 -0.000000 61 68 54 255
0.105584 -0.350925 0.103380 0.000000 -0.000000 61 68 54 255
0.105584 -0.350925 -0.103380 0.000000 -0.000000 61 68 54 255
0.500000 0.259895 -0.030000 0.000000 -0.000000 61 68 54 255
0.161029 -0.033276 -0.158825 0.000000 -0.000000 61 68 54 255
0.161029 -0.033276 0.158825 0.000000 -0.000000 61 68 54 255
0.104402 -0.352541 -0.105573 0.000000 -0.000000 61 68 54 255
-0.106497 -0.350695 -0.103475 0.000000 -0.000000 61 68 54 255
3 0 1 2
3 3 4 5
3 6 7 5
3 3 8 9
3 5 10 6
3 11 12 8
3 13 11 8
3 14 9 15
3 16 15 11
3 9 17 15
3 8 18 9
3 15 19 11
3 2 20 6
3 13 20 21
3 16 22 2
3 14 23 0
3 16 1 24
3 5 25 0
3 14 25 26
3 3 7 27
3 13 28 6
3 10 29 30
3 2 31 0
3 6 32 2
3 0 33 5
3 31 34 35
3 32 30 34
3 33 35 29
3 36 37 38
3 39 40 41
3 41 42 36
3 38 43 39
3 44 45 46
3 47 48 49
3 46 50 47
3 49 51 44
3 52 53 54
3 55 54 56
3 57 55 58
3 59 54 55
3 60 58 53
3 53 58 56
3 54 53 56
3 58 55 56
3 0 23 1
3 3 61 4
3 6 28 7
4 62 13 3 27
3 3 13 8
3 5 33 10
3 11 19 12
3 13 16 11
3 14 3 9
3 16 14 15
4 63 64 65 66
3 9 18 17
3 8 12 18
3 15 17 19
4 67 18 12 68
4 69 19 17 70
4 68 12 19 69
4 71 20 22 72
4 73 74 75 76
3 2 22 20
3 13 6 20
3 16 77 22
4 78 79 80 81
4 82 83 84 85
4 76 75 86 87
4 88 82 85 89
4 75 74 90 86
4 77 16 13 21
3 14 91 23
3 16 2 1
4 92 93 94 95
4 96 88 89 97
4 85 84 97 89
4 98 25 4 99
4 100 101 102 103
4 47 37 42 46
3 5 4 25
3 14 0 25
4 104 105 106 107
4 108 21 20 71
4 109 26 25 98
4 110 51 48 111
4 112 27 7 113
3 3 5 7
3 13 62 28
4 60 110 111 57
4 38 34 30 36
4 113 7 28 114
4 101 115 116 102
4 117 118 119 120
3 10 33 29
3 2 32 31
3 6 10 32
3 0 31 33
4 61 3 14 26
3 31 32 34
3 32 10 30
3 33 31 35
3 36 42 37
4 41 29 35 39
4 36 30 29 41
4 39 35 34 38
4 44 40 43 49
3 39 43 40
3 41 40 42
3 38 37 43
3 44 51 45
4 91 14 16 24
4 46 42 40 44
4 49 43 37 47
4 101 100 121 115
3 47 50 48
3 46 45 50
3 49 48 51
4 116 122 103 102
4 123 50 45 124
4 125 61 26 109
3 52 60 53
4 52 124 110 60
4 57 111 123 59
4 59 123 124 52
3 57 59 55
3 59 52 54
3 60 57 58
4 126 91 24 127
4 74 73 128 90
4 129 1 23 130
4 131 77 21 108
4 73 76 87 128
4 70 17 18 67
4 121 100 103 122
4 115 121 122 116
4 124 45 51 110
4 111 48 50 123
4 83 96 97 84
4 132 62 27 112
4 127 24 1 129
4 130 23 91 126
4 82 88 96 83
4 99 4 61 125
4 132 114 28 62
4 72 22 77 131
4 87 86 90 128
