ply
format ascii 1.0
comment Created by Blender 2.78 (sub 0) - www.blender.org, source file: ''
element vertex 56
property float x
property float y
property float z
property uchar red
property uchar green
property uchar blue
element face 108
property list uchar uint vertex_indices
end_header
0.000000 -0.015000 -0.000000 255 0 0
0.000000 -0.013515 -0.006508 255 0 0
0.004183 -0.013515 -0.004986 255 0 0
0.000000 -0.003338 -0.014624 255 0 0
0.007538 -0.009352 -0.008984 255 0 0
0.000000 -0.009352 -0.011727 255 0 0
0.000000 0.009352 -0.011727 255 0 0
0.009400 0.003338 -0.011203 255 0 0
0.000000 0.003338 -0.014624 255 0 0
0.000000 0.013515 -0.006508 255 0 0
0.000000 0.015000 0.000000 255 0 0
0.004183 0.013515 -0.004986 255 0 0
0.009400 -0.003338 -0.011203 255 0 0
0.007538 0.009352 -0.008984 255 0 0
0.006409 -0.013515 -0.001130 255 0 0
0.011549 -0.009352 -0.002036 255 0 0
0.011549 0.009352 -0.002036 255 0 0
0.014402 0.003338 -0.002539 255 0 0
0.006409 0.013515 -0.001130 255 0 0
0.014402 -0.003338 -0.002539 255 0 0
0.005636 -0.013515 0.003254 255 0 0
0.010156 -0.009352 0.005864 255 0 0
0.012665 0.003338 0.007312 255 0 0
0.005636 0.013515 0.003254 255 0 0
0.012665 -0.003338 0.007312 255 0 0
0.010156 0.009352 0.005864 255 0 0
0.005002 0.003338 0.013742 255 0 0
0.002226 0.013515 0.006116 255 0 0
0.004011 -0.009352 0.011020 255 0 0
0.002226 -0.013515 0.006116 255 0 0
0.005002 -0.003338 0.013742 255 0 0
0.004011 0.009352 0.011020 255 0 0
-0.002226 -0.013515 0.006116 255 0 0
-0.005002 -0.003338 0.013742 255 0 0
-0.004011 0.009352 0.011020 255 0 0
-0.004011 -0.009352 0.011020 255 0 0
-0.005002 0.003338 0.013742 255 0 0
-0.002226 0.013515 0.006116 255 0 0
-0.005636 -0.013515 0.003254 255 0 0
-0.012665 -0.003338 0.007312 255 0 0
-0.010156 0.009352 0.005864 255 0 0
-0.010156 -0.009352 0.005864 255 0 0
-0.012665 0.003338 0.007312 255 0 0
-0.005636 0.013515 0.003254 255 0 0
-0.011549 0.009352 -0.002036 255 0 0
-0.006409 -0.013515 -0.001130 255 0 0
-0.011549 -0.009352 -0.002036 255 0 0
-0.014402 0.003338 -0.002539 255 0 0
-0.006409 0.013515 -0.001130 255 0 0
-0.014402 -0.003338 -0.002539 255 0 0
-0.004183 -0.013515 -0.004986 255 0 0
-0.009400 -0.003338 -0.011203 255 0 0
-0.007538 -0.009352 -0.008984 255 0 0
-0.009400 0.003338 -0.011203 255 0 0
-0.004183 0.013515 -0.004986 255 0 0
-0.007538 0.009352 -0.008984 255 0 0
3 0 1 2
3 3 4 5
3 6 7 8
3 9 10 11
3 5 2 1
3 8 12 3
3 9 13 6
3 0 2 14
3 12 15 4
3 7 16 17
3 11 10 18
3 2 15 14
3 7 19 12
3 11 16 13
3 0 14 20
3 19 21 15
3 16 22 17
3 18 10 23
3 15 20 14
3 17 24 19
3 18 25 16
3 25 26 22
3 23 10 27
3 20 28 29
3 22 30 24
3 23 31 25
3 0 20 29
3 21 30 28
3 28 32 29
3 26 33 30
3 27 34 31
3 0 29 32
3 30 35 28
3 31 36 26
3 27 10 37
3 35 38 32
3 36 39 33
3 37 40 34
3 0 32 38
3 35 39 41
3 34 42 36
3 37 10 43
3 43 44 40
3 0 38 45
3 39 46 41
3 40 47 42
3 43 10 48
3 41 45 38
3 42 49 39
3 0 45 50
3 46 51 52
3 44 53 47
3 48 10 54
3 46 50 45
3 47 51 49
3 48 55 44
3 52 3 5
3 55 8 53
3 54 10 9
3 52 1 50
3 53 3 51
3 54 6 55
3 0 50 1
3 3 12 4
3 6 13 7
3 5 4 2
3 8 7 12
3 9 11 13
3 12 19 15
3 7 13 16
3 2 4 15
3 7 17 19
3 11 18 16
3 19 24 21
3 16 25 22
3 15 21 20
3 17 22 24
3 18 23 25
3 25 31 26
3 20 21 28
3 22 26 30
3 23 27 31
3 21 24 30
3 28 35 32
3 26 36 33
3 27 37 34
3 30 33 35
3 31 34 36
3 35 41 38
3 36 42 39
3 37 43 40
3 35 33 39
3 34 40 42
3 43 48 44
3 39 49 46
3 40 44 47
3 41 46 45
3 42 47 49
3 46 49 51
3 44 55 53
3 46 52 50
3 47 53 51
3 48 54 55
3 52 51 3
3 55 6 8
3 52 5 1
3 53 8 3
3 54 9 6
