ply
format ascii 1.0
comment Created by Blender 3.3.1 - www.blender.org
element vertex 224
property float x
property float y
property float z
property uchar red
property uchar green
property uchar blue
property uchar alpha
element face 148
property list uchar uint vertex_indices
end_header
-0.400000 -0.030000 -0.500000 145 73 49 255
-0.400000 -0.030000 0.500000 145 73 49 255
-0.400000 0.030000 0.500000 146 74 50 255
-0.400000 0.030000 -0.500000 147 79 58 255
-0.247368 0.196907 0.113454 204 152 68 255
-0.254820 0.196907 0.083072 204 152 68 255
-0.284857 0.196907 0.074334 204 152 68 255
-0.271243 0.086957 -0.288738 204 152 68 255
-0.242550 0.086957 -0.301200 204 152 68 255
-0.238997 0.086957 -0.332281 204 152 68 255
0.215817 0.037031 0.042814 221 161 112 255
0.226819 0.037031 -0.178071 221 161 112 255
0.215817 0.037031 0.042814 221 161 112 255
0.226819 0.147611 -0.178071 221 161 112 255
0.215817 0.147611 0.042814 221 161 112 255
0.226819 0.147611 -0.178071 221 161 112 255
0.226819 0.037031 -0.178071 221 161 112 255
0.215817 0.147611 0.042814 221 161 112 255
0.400000 -0.030000 -0.500000 145 73 49 255
0.400000 0.030000 -0.500000 145 73 49 255
0.400000 -0.030000 0.500000 145 73 49 255
0.400000 0.030000 0.500000 145 73 49 255
-0.113208 -0.504683 -0.392467 160 96 65 255
-0.113208 -0.504683 -0.452467 160 96 65 255
0.233955 -0.008989 -0.452467 160 96 65 255
0.233955 -0.008989 -0.392467 160 96 65 255
0.223260 0.130122 -0.056460 183 180 190 255
0.227677 0.130122 -0.056240 183 180 190 255
0.227677 0.165507 -0.056240 183 180 190 255
0.223260 0.165507 -0.056460 183 180 190 255
-0.240304 -0.511959 -0.452467 160 96 65 255
0.118223 -0.005194 -0.452467 160 96 65 255
0.228777 0.130122 -0.078328 183 180 190 255
0.228777 0.165507 -0.078328 183 180 190 255
-0.273013 0.160956 0.224919 184 128 61 255
-0.266465 0.132835 0.182175 184 128 61 255
-0.190913 0.132835 0.126698 184 128 61 255
-0.148169 0.160956 0.133247 184 128 61 255
0.217836 0.041877 0.046594 183 180 190 255
0.229204 0.041877 -0.181631 183 180 190 255
0.092269 0.041877 -0.188451 183 180 190 255
0.080902 0.041877 0.039773 184 181 191 255
-0.113208 -0.504683 0.398760 160 96 65 255
-0.240304 -0.511959 0.398760 160 96 65 255
0.111960 -0.014047 0.398760 160 96 65 255
0.229865 -0.014829 0.398760 160 96 65 255
0.209646 0.036348 -0.162419 183 180 190 255
0.227316 0.036348 -0.161539 183 180 190 255
0.227316 0.146928 -0.161539 183 180 190 255
0.209646 0.146928 -0.162419 183 180 190 255
0.228197 0.036348 -0.179210 183 180 190 255
0.228197 0.146928 -0.179210 183 180 190 255
-0.101360 -0.019842 0.336864 160 96 65 255
0.243115 -0.511959 0.336864 160 96 65 255
0.118843 -0.510645 0.336864 160 96 65 255
-0.224375 -0.018739 0.336864 160 96 65 255
0.210526 0.036348 -0.180090 183 180 190 255
0.210526 0.146928 -0.180090 183 180 190 255
0.118843 -0.510645 -0.330494 160 96 65 255
0.243115 -0.511959 -0.330494 160 96 65 255
-0.101762 -0.019266 -0.330494 160 96 65 255
-0.225437 -0.017217 -0.330494 160 96 65 255
-0.101762 -0.019266 -0.390494 160 96 65 255
0.243115 -0.511959 -0.390494 160 96 65 255
0.118843 -0.510645 -0.390494 160 96 65 255
-0.225437 -0.017217 -0.390494 160 96 65 255
0.092109 0.036348 -0.168273 183 180 190 255
0.109780 0.036348 -0.167393 183 180 190 255
0.109780 0.146928 -0.167393 183 180 190 255
0.092109 0.146928 -0.168273 183 180 190 255
0.118223 -0.005194 -0.392467 160 96 65 255
-0.240304 -0.511959 -0.392467 160 96 65 255
-0.250000 -0.054468 -0.480000 160 81 54 255
-0.250000 -0.054468 0.480000 160 82 55 255
-0.250000 -0.024149 0.480000 160 81 54 255
-0.250000 -0.024149 -0.480000 165 92 72 255
0.250000 -0.054468 -0.480000 160 81 54 255
0.250000 -0.024149 -0.480000 160 81 54 255
0.250000 -0.054468 0.480000 160 81 54 255
0.250000 -0.024149 0.480000 164 92 69 255
-0.027603 -0.271918 -0.450000 161 83 56 255
-0.027603 -0.271918 0.450000 160 81 54 255
-0.027603 -0.231918 0.450000 160 81 54 255
-0.027603 -0.231918 -0.450000 160 81 54 255
0.032397 -0.271918 0.450000 160 81 54 255
0.032397 -0.271918 -0.450000 160 81 54 255
0.032397 -0.231918 -0.450000 160 81 55 255
0.032397 -0.231918 0.450000 160 81 55 255
0.110660 0.036348 -0.185064 183 180 190 255
0.110660 0.146928 -0.185064 183 180 190 255
-0.240137 0.063613 0.078158 81 126 39 255
-0.229039 0.028136 0.033973 87 129 50 255
-0.343522 0.028136 0.118037 92 132 59 255
-0.301920 0.063613 0.123525 81 126 39 255
-0.141768 0.028136 0.392797 81 126 40 255
-0.027285 0.028136 0.308733 83 127 42 255
-0.072766 0.063613 0.306093 81 126 39 255
-0.134549 0.063613 0.351461 81 126 39 255
0.118843 -0.510645 0.396864 160 96 65 255
0.243115 -0.511959 0.396864 160 96 65 255
-0.101360 -0.019842 0.396864 160 96 65 255
-0.224375 -0.018739 0.396864 160 96 65 255
0.217070 0.036348 0.044191 187 184 193 255
0.217950 0.036348 0.026521 183 180 190 255
0.217950 0.146928 0.026521 183 180 190 255
0.217070 0.146928 0.044191 183 180 190 255
-0.240137 0.104636 0.078158 104 138 76 255
-0.301920 0.104636 0.123525 81 126 39 255
-0.134549 0.104636 0.351461 81 126 39 255
0.200279 0.036348 0.025640 183 180 190 255
0.200279 0.146928 0.025640 183 180 190 255
-0.199278 0.122372 0.242485 160 117 63 255
-0.153485 0.122372 0.208859 160 117 63 255
-0.153485 0.179185 0.208859 160 117 63 255
-0.199278 0.179185 0.242485 160 117 63 255
-0.271598 0.028034 -0.246629 202 195 204 255
-0.249440 0.028034 -0.224547 202 195 204 255
-0.249440 0.059267 -0.224547 202 195 204 255
-0.271598 0.059267 -0.246629 202 195 204 255
0.081863 0.036348 0.037457 183 180 190 255
0.099533 0.036348 0.038337 183 180 190 255
0.099533 0.146928 0.038337 183 180 190 255
0.081863 0.146928 0.037457 183 180 190 255
0.217836 0.028166 0.046594 183 180 190 255
0.229204 0.028166 -0.181631 183 180 190 255
0.100413 0.036348 0.020666 183 180 190 255
0.100413 0.146928 0.020666 183 180 190 255
-0.171529 0.179185 0.184285 160 117 63 255
-0.217322 0.179185 0.217911 160 117 63 255
-0.098386 0.164660 0.307893 187 145 51 255
-0.245669 0.106033 0.107315 179 142 52 255
-0.249524 0.133683 0.102064 187 145 51 255
-0.102241 0.192309 0.302642 187 145 52 255
-0.197594 0.100239 0.211517 202 168 101 255
-0.187271 0.100239 0.225575 202 168 101 255
-0.187271 0.125721 0.225575 202 168 101 255
-0.197594 0.125721 0.211517 202 168 101 255
-0.183536 0.100239 0.201195 202 168 101 255
-0.183536 0.125721 0.201195 203 170 105 255
-0.173213 0.100239 0.215253 202 168 101 255
-0.173213 0.125721 0.215253 202 168 101 255
0.082743 0.036348 0.019786 183 180 190 255
0.082743 0.146928 0.019786 183 180 190 255
-0.219237 0.059267 -0.232695 202 195 204 255
-0.211192 0.059267 -0.262926 202 195 204 255
-0.263553 0.059267 -0.276860 202 194 202 255
0.224360 0.165507 -0.078549 183 180 190 255
-0.171529 0.122372 0.184285 160 117 63 255
-0.217322 0.122372 0.217911 160 117 63 255
-0.125138 0.192309 0.319455 187 145 51 255
-0.121282 0.164660 0.324706 187 145 51 255
-0.364685 0.160956 0.100075 184 128 62 255
-0.321941 0.132835 0.106624 184 128 61 255
-0.134764 0.213576 0.413195 184 128 61 255
-0.128215 0.185455 0.370451 184 128 61 255
-0.052663 0.185455 0.314974 184 128 61 255
-0.009920 0.213576 0.321523 184 128 61 255
-0.246390 0.132835 0.051147 184 128 61 255
-0.239841 0.160956 0.008403 185 131 70 255
-0.183692 0.185455 0.294899 184 128 62 255
-0.226436 0.213576 0.288351 188 136 80 255
-0.211192 0.028034 -0.262926 202 195 204 255
-0.233350 0.028034 -0.285008 202 195 204 255
-0.233350 0.059267 -0.285008 202 191 194 255
-0.221113 0.028034 -0.302996 202 195 204 255
-0.203351 0.028034 -0.277245 202 195 204 255
-0.203351 0.072499 -0.277245 202 195 204 255
-0.221113 0.072499 -0.302996 202 195 204 255
-0.101592 0.213576 0.196679 184 128 61 255
-0.108140 0.185455 0.239422 191 141 92 255
0.111960 -0.014047 0.458760 160 96 65 255
-0.240304 -0.511959 0.458760 162 99 71 255
-0.113208 -0.504683 0.458760 160 96 65 255
0.229865 -0.014829 0.458760 160 96 65 255
0.217836 0.167306 0.046594 183 180 190 255
0.229203 0.167306 -0.181631 183 180 190 255
0.092269 0.167306 -0.188451 183 180 190 255
0.080902 0.167306 0.039773 183 180 190 255
-0.284857 0.160041 0.074334 204 152 69 255
-0.307443 0.160041 0.095979 204 152 68 255
-0.307443 0.196907 0.095979 204 152 68 255
-0.254820 0.160041 0.083072 204 152 68 255
-0.247368 0.160041 0.113454 204 152 68 255
-0.296383 0.028034 -0.307355 204 152 68 255
-0.271243 0.028034 -0.288738 204 152 68 255
-0.296383 0.086957 -0.307355 204 152 68 255
-0.299991 0.196907 0.126361 204 152 68 255
-0.269953 0.196907 0.135099 204 152 68 255
-0.299991 0.160041 0.126361 204 152 68 255
-0.269953 0.160041 0.135099 204 152 68 255
-0.264136 0.028034 -0.350898 204 152 68 255
-0.292829 0.028034 -0.338435 204 152 68 255
-0.292829 0.086957 -0.338435 204 152 68 255
-0.264136 0.086957 -0.350898 204 152 68 255
-0.238997 0.028034 -0.332281 204 152 69 255
-0.242550 0.028034 -0.301200 204 152 68 255
-0.172169 0.072499 -0.279751 202 195 204 255
-0.158749 0.072499 -0.308009 202 195 204 255
-0.207692 0.072499 -0.331254 202 194 202 255
-0.176510 0.028034 -0.333760 202 195 204 255
-0.207692 0.028034 -0.331254 202 195 204 255
-0.176510 0.072499 -0.333760 202 191 194 255
-0.158749 0.028034 -0.308009 202 195 204 255
-0.172169 0.028034 -0.279751 202 195 204 255
-0.219237 0.028034 -0.232695 202 195 204 255
0.080902 0.028166 0.039773 183 180 190 255
-0.263553 0.028034 -0.276860 202 195 204 255
0.094288 0.037031 -0.184672 221 161 112 255
0.083286 0.037031 0.036213 223 166 121 255
0.083286 0.147611 0.036213 221 161 112 255
0.094288 0.147611 -0.184672 221 161 112 255
0.229203 0.139883 -0.181631 183 180 190 255
0.092269 0.139883 -0.188451 183 180 190 255
0.080902 0.139883 0.039773 183 180 190 255
0.217836 0.139883 0.046594 183 180 190 255
-0.268566 0.106033 0.124128 187 145 51 255
-0.272421 0.133683 0.118877 174 140 54 255
0.092269 0.028166 -0.188451 184 181 191 255
-0.072766 0.104636 0.306093 81 126 39 255
0.199399 0.036348 0.043311 183 180 190 255
0.199399 0.146928 0.043311 183 180 190 255
0.092989 0.036348 -0.185944 184 181 191 255
0.092989 0.146928 -0.185944 183 180 190 255
0.224360 0.130122 -0.078549 183 180 190 255
4 0 1 2 3
3 4 5 6
3 7 8 9
3 10 11 12
3 13 14 15
3 16 15 11
3 17 12 14
4 18 0 3 19
4 20 18 19 21
4 20 1 0 18
4 19 3 2 21
4 22 23 24 25
4 26 27 28 29
4 23 30 31 24
4 27 32 33 28
4 34 35 36 37
4 38 39 40 41
4 42 43 44 45
4 46 47 48 49
4 47 50 51 48
4 52 53 54 55
4 50 56 57 51
4 58 59 60 61
4 56 46 49 57
4 62 63 64 65
4 66 67 68 69
4 70 71 22 25
4 72 73 74 75
4 76 72 75 77
4 78 76 77 79
4 78 73 72 76
4 80 81 82 83
4 84 85 86 87
4 84 81 80 85
4 86 83 82 87
4 67 88 89 68
4 90 91 92 93
4 94 95 96 97
4 98 99 100 101
4 92 94 97 93
4 102 103 104 105
4 106 90 93 107
4 107 93 97 108
4 103 109 110 104
4 111 112 113 114
4 115 116 117 118
4 119 120 121 122
4 123 124 39 38
4 120 125 126 121
4 127 128 114 113
4 129 130 131 132
4 133 134 135 136
4 137 133 136 138
4 139 137 138 140
4 141 119 122 142
4 143 144 145 117
4 28 33 146 29
4 147 112 111 148
4 149 150 129 132
4 151 152 35 34
4 153 154 155 156
4 157 152 151 158
4 159 154 153 160
4 161 162 163 144
4 164 165 166 167
4 168 169 159 160
4 170 171 172 173
4 37 36 157 158
4 155 169 168 156
4 172 42 45 173
4 174 175 176 177
4 178 179 180 6
4 181 178 6 5
4 182 181 5 4
4 183 184 7 185
4 95 91 90 96
3 186 187 4
4 188 189 187 186
4 190 191 192 193
4 194 190 193 9
4 158 151 34 37
4 189 182 4 187
4 195 194 9 8
3 9 193 192
4 196 197 198 166
4 184 195 8 7
4 179 188 186 180
4 191 183 185 192
4 199 200 198 201
4 202 199 201 197
4 203 202 197 196
3 197 201 198
3 198 167 166
4 180 186 4 6
4 165 203 196 166
4 168 160 153 156
4 200 164 167 198
4 147 148 128 127
4 204 161 144 143
3 144 163 145
3 145 118 117
4 185 7 9 192
4 205 123 38 41
4 162 206 145 163
4 206 115 118 145
4 207 208 209 210
3 10 16 11
4 16 207 210 13
4 208 10 17 209
3 13 17 14
3 16 13 15
3 17 10 12
4 211 212 176 175
4 12 11 15 14
4 213 214 174 177
4 116 204 143 117
4 130 215 216 131
4 124 217 40 39
4 155 154 159 169
4 212 213 177 176
4 217 205 41 40
4 106 107 108 218
4 213 212 211 214
4 214 211 175 174
4 134 139 140 135
4 125 141 142 126
4 112 147 127 113
4 36 35 152 157
4 148 111 114 128
4 109 219 220 110
4 218 96 90 106
4 108 97 96 218
4 219 102 105 220
4 221 66 69 222
4 88 221 222 89
4 73 78 79 74
4 215 150 149 216
4 64 58 61 65
4 59 63 62 60
4 54 98 101 55
4 99 53 52 100
4 131 216 149 132
4 43 171 170 44
4 32 223 146 33
4 30 71 70 31
4 130 129 150 215
4 26 223 32 27
4 1 20 21 2
