ply
format ascii 1.0
comment Created by Blender 3.3.1 - www.blender.org
element vertex 140
property float x
property float y
property float z
property uchar red
property uchar green
property uchar blue
property uchar alpha
element face 131
property list uchar uint vertex_indices
end_header
0.150000 0.150000 0.500000 69 94 62 255
0.082958 0.150000 -0.432314 69 94 62 255
0.082958 0.150000 0.439121 69 94 62 255
0.065568 0.211079 0.233014 69 94 41 255
0.065568 0.211079 0.363793 69 94 41 255
0.065568 0.079944 0.383502 69 94 41 255
0.065568 0.079944 0.214101 69 94 41 255
-0.150000 -0.150000 0.454910 69 94 62 255
-0.150000 -0.150000 0.500000 69 94 62 255
-0.150000 0.150000 0.500000 69 94 62 255
-0.082958 0.150000 0.439121 69 94 62 255
-0.150000 0.150000 -0.500000 69 94 62 255
0.150000 0.150000 -0.500000 69 94 62 255
-0.082958 0.150000 -0.432314 69 94 62 255
-0.002500 0.330772 -0.394796 157 105 52 255
-0.002500 0.330772 0.018871 160 112 66 255
-0.002500 0.335772 0.018871 161 113 69 255
-0.002500 0.335772 -0.394796 156 103 48 255
0.033215 0.315730 0.412205 156 57 43 255
0.033179 0.353988 0.412205 156 57 43 255
0.033179 0.353988 0.421700 156 57 43 255
0.033215 0.315730 0.421700 156 57 43 255
0.150000 -0.150000 -0.455419 69 94 62 255
0.150000 -0.150000 -0.500000 69 94 62 255
0.150000 -0.150000 0.500000 69 94 62 255
0.150000 -0.150000 0.456678 69 94 62 255
-0.065567 0.211079 0.364565 69 94 41 255
-0.065567 0.211079 0.233587 69 94 41 255
-0.065567 0.079944 0.214101 72 96 45 255
-0.065567 0.079944 0.383502 69 94 41 255
0.000029 0.373087 0.421700 156 57 43 255
-0.033086 0.353928 0.421700 156 57 43 255
-0.033051 0.315669 0.421700 156 57 43 255
-0.033086 0.353928 0.412205 156 57 43 255
0.000029 0.373087 0.412205 156 57 43 255
-0.150000 -0.150000 -0.500000 69 94 62 255
-0.150000 -0.150000 -0.456731 69 94 62 255
0.311890 -0.500818 0.456678 94 82 43 255
0.311890 -0.500818 0.500000 94 82 43 255
0.002500 0.330772 -0.394796 157 104 49 255
0.002500 0.330772 0.018871 156 103 47 255
0.065567 0.211079 0.015174 69 94 41 255
0.065567 0.211079 -0.383319 69 94 41 255
-0.065568 0.211079 -0.382746 69 94 41 255
-0.065568 0.211079 0.015947 69 94 41 255
-0.290434 -0.500818 0.454910 94 82 43 255
-0.033051 0.315669 0.412205 156 57 43 255
-0.290434 -0.500818 0.500000 94 82 43 255
-0.290434 -0.500818 -0.456731 94 82 43 255
0.311890 -0.500818 -0.455419 94 82 43 255
0.065568 0.211079 0.383502 69 94 41 255
-0.065567 0.211079 0.383502 69 94 41 255
0.008543 0.348168 -0.137740 194 123 45 255
0.015224 0.359739 -0.137740 194 123 45 255
-0.015224 0.359739 -0.137740 194 123 45 255
-0.008543 0.348168 -0.137740 194 123 45 255
-0.082958 0.079619 0.439121 122 110 100 255
0.082958 0.079619 0.439121 122 110 100 255
0.082958 0.079619 -0.432314 122 110 100 255
-0.082958 0.079619 -0.432314 122 110 100 255
-0.065568 0.211079 -0.402233 69 94 41 255
0.065567 0.211079 -0.402233 69 94 41 255
0.065567 0.079944 -0.402233 69 94 41 255
-0.065568 0.079944 -0.402233 69 94 41 255
-0.004945 0.352754 0.342406 162 151 145 255
0.018084 0.339487 0.342406 162 151 145 255
0.018084 0.339487 0.247133 162 151 145 255
-0.004945 0.352754 0.247133 162 151 145 255
-0.065567 0.079944 0.034884 69 94 41 255
-0.065568 0.211079 0.034884 69 94 41 255
-0.018212 0.329726 0.247133 162 151 145 255
0.004817 0.316458 0.247133 162 151 145 255
0.004817 0.316458 0.342406 162 151 145 255
-0.018212 0.329726 0.342406 162 151 145 255
0.065567 0.211079 0.034884 69 94 41 255
0.065568 0.079944 0.034884 69 94 41 255
0.000099 0.296570 0.421700 156 57 43 255
0.013378 0.364428 0.383502 70 95 43 255
0.013378 0.364428 0.363793 69 94 42 255
-0.015511 0.364428 0.364565 69 94 41 255
-0.015511 0.364428 0.383502 69 94 41 255
0.002500 0.335772 -0.394796 156 103 47 255
0.002500 0.335772 0.018871 156 103 48 255
0.013378 0.364428 0.233014 69 94 41 255
0.013378 0.364428 0.214101 69 94 41 255
-0.015511 0.364428 0.214101 69 94 41 255
-0.015511 0.364428 0.233587 69 94 41 255
0.005048 0.324627 -0.002507 194 123 45 255
-0.005048 0.324627 -0.002507 194 123 45 255
-0.008543 0.318575 -0.137740 194 123 45 255
0.008543 0.318575 -0.137740 194 123 45 255
-0.065567 0.211079 0.214101 69 94 41 255
0.065568 0.211079 0.214101 69 94 41 255
-0.290434 -0.500818 -0.500000 94 82 43 255
0.311890 -0.500818 -0.500000 94 82 43 255
-0.055437 0.237351 -0.370090 194 123 45 255
0.055437 0.237351 -0.370090 194 123 45 255
0.040411 0.263378 -0.265056 194 123 45 255
-0.040411 0.263378 -0.265056 194 123 45 255
0.110874 0.333371 -0.370090 194 123 45 255
0.055437 0.429392 -0.370090 194 123 45 255
0.040411 0.403365 -0.265056 194 123 45 255
0.080821 0.333371 -0.265056 194 123 45 255
-0.055437 0.429392 -0.370090 194 123 45 255
-0.040411 0.403365 -0.265056 194 123 45 255
-0.017086 0.333371 -0.137740 194 123 45 255
-0.030447 0.333371 -0.137740 194 123 45 255
-0.015224 0.307003 -0.137740 194 123 45 255
-0.110874 0.333371 -0.370090 194 123 45 255
-0.080821 0.333371 -0.265056 194 123 45 255
0.000099 0.296570 0.412205 156 57 43 255
-0.025800 0.288685 -0.265056 194 123 45 255
0.025800 0.288685 -0.265056 194 123 45 255
0.015224 0.307003 -0.137740 194 123 45 255
0.051599 0.333371 -0.265056 194 123 45 255
0.025800 0.378058 -0.265056 194 123 45 255
-0.025800 0.378058 -0.265056 194 123 45 255
-0.051599 0.333371 -0.265056 194 123 45 255
0.030447 0.333371 -0.137740 194 123 45 255
-0.005048 0.342115 -0.002507 194 123 45 255
-0.010097 0.333371 -0.002507 194 123 45 255
0.017086 0.333371 -0.137740 194 123 45 255
0.010097 0.333371 -0.002507 194 123 45 255
0.005048 0.342115 -0.002507 194 123 45 255
0.013378 0.364428 -0.402233 69 94 41 255
-0.015511 0.364428 -0.402233 69 94 41 255
-0.015511 0.364428 0.015947 73 98 48 255
-0.015511 0.364428 0.034884 73 98 49 255
0.013378 0.364428 -0.383319 69 94 41 255
-0.015511 0.364428 -0.382746 69 95 41 255
0.013378 0.364428 0.034884 76 99 52 255
0.013378 0.364428 0.015174 77 100 53 255
-0.002500 0.337286 0.413496 158 107 57 255
0.002500 0.337286 0.413496 158 107 55 255
0.002500 0.337286 0.178207 156 103 48 255
-0.002500 0.337286 0.178207 157 105 52 255
0.002500 0.332286 0.178207 156 104 49 255
-0.002500 0.332286 0.178207 156 103 47 255
0.002500 0.332286 0.413496 156 103 47 255
-0.002500 0.332286 0.413496 156 104 48 255
3 0 1 2
4 3 4 5 6
3 7 8 9
3 0 10 9
3 11 1 12
3 9 13 11
4 14 15 16 17
4 18 19 20 21
3 22 23 12
3 0 24 25
4 26 27 28 29
3 30 31 32
3 33 34 19
3 11 35 36
4 37 25 24 38
3 0 12 1
4 14 39 40 15
4 41 42 43 44
4 45 7 25 37
4 33 46 32 31
4 47 38 24 8
4 48 49 22 36
4 50 51 29 5
4 52 53 54 55
4 56 57 58 59
3 0 2 10
3 11 13 1
3 9 10 13
4 58 1 13 59
4 59 13 10 56
4 57 2 1 58
4 60 61 62 63
4 64 65 66 67
3 43 60 63
4 36 7 9 11
3 68 69 44
4 70 71 72 73
3 41 74 75
4 76 21 30 32
3 62 61 42
4 77 50 4 78
4 77 78 79 80
4 40 39 81 82
4 83 84 85 86
4 87 88 89 90
4 78 4 26 79
4 85 91 27 86
4 84 92 91 85
4 83 86 27 3
4 83 3 92 84
4 93 35 23 94
4 95 96 97 98
4 99 100 101 102
4 101 100 103 104
4 25 22 12 0
4 105 106 107 89
4 96 99 102 97
4 104 103 108 109
3 100 99 96
3 96 95 108
4 46 33 19 110
4 107 111 112 113
4 114 102 101 115
4 55 54 106 105
4 112 111 98 97
4 114 112 97 102
4 116 104 109 117
4 115 101 104 116
4 118 114 115 53
4 106 117 111 107
4 54 116 117 106
4 109 108 95 98
4 118 113 112 114
4 119 55 105 120
4 117 109 98 111
4 52 121 118 53
4 89 107 113 90
4 121 90 113 118
3 88 87 122
3 122 123 119
4 124 61 60 125
4 53 115 116 54
4 120 105 89 88
4 122 87 90 121
4 123 122 121 52
4 123 52 55 119
4 79 26 51 80
4 47 8 7 45
4 16 82 81 17
4 94 23 22 49
4 48 36 35 93
3 27 91 28
4 44 43 63 68
3 29 51 26
4 56 10 2 57
3 4 50 5
4 42 41 75 62
3 6 92 3
4 126 44 69 127
4 128 124 125 129
4 70 73 64 67
4 7 36 22 25
4 130 131 126 127
4 128 129 43 42
4 72 71 66 65
4 77 80 51 50
4 130 127 69 74
4 132 133 134 135
4 131 41 44 126
4 46 110 76 32
4 136 137 135 134
4 138 136 134 133
4 137 139 132 135
4 137 136 138 139
4 30 34 33 31
4 128 42 61 124
4 71 70 67 66
4 125 60 43 129
4 130 74 41 131
4 74 69 68 75
4 64 73 72 65
4 110 18 21 76
4 91 92 6 28
4 19 34 30 20
4 96 108 103 100
3 21 20 30
4 4 3 27 26
4 8 24 0 9
3 19 18 110
4 120 88 122 119
4 23 35 11 12
