ply
format ascii 1.0
comment Created by Blender 2.82 (sub 7) - www.blender.org, source file: 'minerjob.blend'
element vertex 48
property float x
property float y
property float z
property uchar red
property uchar green
property uchar blue
property uchar alpha
element face 72
property list uchar uint vertex_indices
end_header
0.470000 -0.100000 -0.470000 153 115 85 255
0.470000 -0.500000 -0.230000 131 98 72 255
0.470000 -0.500000 -0.470000 131 98 72 255
0.470000 -0.100000 -0.230000 153 115 85 255
0.230000 -0.500000 -0.230000 131 98 72 255
0.230000 -0.100000 -0.230000 153 115 85 255
0.230000 -0.500000 -0.470000 131 98 72 255
0.230000 -0.100000 -0.470000 153 115 85 255
0.458505 -0.100000 -0.241495 153 115 85 255
0.241495 -0.100000 -0.458505 153 115 85 255
0.458505 -0.478345 -0.458505 84 64 47 255
0.458505 -0.100000 -0.458505 153 115 85 255
0.241495 -0.100000 -0.241495 153 115 85 255
0.458505 -0.478345 -0.241495 87 65 48 255
0.241495 -0.478345 -0.458505 83 63 46 255
0.241495 -0.478345 -0.241495 83 63 46 255
0.305549 -0.404486 -0.184208 168 154 166 255
0.485555 -0.363040 -0.081283 168 154 166 255
0.487995 -0.400148 -0.181367 168 154 166 255
0.489796 -0.500230 -0.144216 168 154 166 255
0.487355 -0.463121 -0.044131 168 154 166 255
0.307350 -0.504567 -0.147057 168 154 166 255
0.303108 -0.367377 -0.084124 168 154 166 255
0.304909 -0.467459 -0.046973 168 154 166 255
0.423103 -0.397357 -0.155687 189 153 107 255
0.418250 -0.177271 -0.180099 190 154 109 255
0.421874 -0.378687 -0.105332 189 153 107 255
0.365781 -0.197218 -0.231291 189 153 107 255
0.364553 -0.178547 -0.180936 189 153 107 255
0.369405 -0.398634 -0.156523 189 153 107 255
0.368177 -0.379963 -0.106168 189 154 108 255
0.419478 -0.195941 -0.230455 189 153 107 255
0.240887 -0.120740 -0.231798 168 155 166 255
0.270939 -0.118062 -0.211738 168 154 166 255
0.273674 -0.120233 -0.218302 168 154 166 255
0.283982 -0.312901 -0.157390 169 155 167 255
0.276624 -0.307060 -0.139734 168 154 166 255
0.195787 -0.314263 -0.193696 169 155 167 255
0.238152 -0.118568 -0.225235 169 155 167 255
0.188428 -0.308423 -0.176039 168 154 166 255
0.223678 -0.295353 -0.207425 189 154 108 255
0.253583 -0.278898 -0.139554 189 153 107 255
0.273347 -0.294585 -0.186978 189 153 107 255
0.252173 -0.500072 -0.127830 190 154 109 255
0.232409 -0.484385 -0.080406 189 153 107 255
0.202504 -0.500840 -0.148276 189 153 107 255
0.203913 -0.279666 -0.160001 189 153 107 255
0.182739 -0.485152 -0.100852 189 153 107 255
3 0 1 2
3 3 4 1
3 5 6 4
3 7 2 6
3 3 5 4
3 0 8 3
3 9 10 11
3 7 11 0
3 3 12 5
3 5 9 7
3 13 14 15
3 8 15 12
3 12 14 9
3 11 13 8
3 16 17 18
3 17 19 18
3 20 21 19
3 21 22 16
3 18 21 16
3 17 23 20
3 0 3 1
3 24 25 26
3 25 27 28
3 28 29 30
3 25 30 26
3 31 29 27
3 32 33 34
3 33 35 34
3 36 37 35
3 37 38 32
3 34 37 32
3 33 39 36
3 40 41 42
3 41 43 42
3 44 45 43
3 45 46 40
3 42 45 40
3 41 47 44
3 5 7 6
3 7 0 2
3 0 11 8
3 9 14 10
3 7 9 11
3 3 8 12
3 5 12 9
3 13 10 14
3 8 13 15
3 12 15 14
3 11 10 13
3 16 22 17
3 17 20 19
3 20 23 21
3 21 23 22
3 18 19 21
3 17 22 23
3 24 31 25
3 25 31 27
3 28 27 29
3 25 28 30
3 31 24 29
3 32 38 33
3 33 36 35
3 36 39 37
3 37 39 38
3 34 35 37
3 33 38 39
3 40 46 41
3 41 44 43
3 44 47 45
3 45 47 46
3 42 43 45
3 41 46 47
