ply
format ascii 1.0
comment Created by Blender 2.78 (sub 0) - www.blender.org, source file: 'npcshop.blend'
element vertex 80
property float x
property float y
property float z
property uchar red
property uchar green
property uchar blue
element face 100
property list uchar uint vertex_indices
end_header
-0.425000 0.200000 0.425000 105 67 30
-0.425000 -0.500000 0.325000 105 67 30
-0.425000 -0.500000 0.425000 105 67 30
-0.425000 0.200000 0.325000 105 67 30
-0.325000 -0.500000 0.325000 105 67 30
-0.325000 0.200000 0.425000 105 67 30
-0.325000 -0.500000 0.425000 105 67 30
-0.450000 0.200000 -0.450000 105 67 30
0.450000 0.200000 0.450000 105 67 30
-0.450000 0.200000 0.450000 105 67 30
0.450000 0.300000 0.450000 105 67 30
-0.450000 0.300000 -0.450000 105 67 30
-0.450000 0.300000 0.450000 105 67 30
0.450000 0.200000 -0.450000 105 67 30
0.325000 0.200000 -0.325000 105 67 30
0.325000 -0.500000 -0.425000 105 67 30
0.325000 -0.500000 -0.325000 105 67 30
0.325000 0.200000 -0.425000 105 67 30
0.425000 -0.500000 -0.425000 105 67 30
0.425000 0.200000 -0.425000 105 67 30
0.425000 -0.500000 -0.325000 105 67 30
0.425000 0.200000 -0.325000 105 67 30
-0.425000 0.200000 -0.325000 105 67 30
-0.425000 -0.500000 -0.425000 105 67 30
-0.425000 -0.500000 -0.325000 105 67 30
-0.425000 0.200000 -0.425000 105 67 30
-0.325000 -0.500000 -0.425000 105 67 30
-0.325000 0.200000 -0.425000 105 67 30
-0.325000 -0.500000 -0.325000 105 67 30
-0.325000 0.200000 -0.325000 105 67 30
0.325000 0.200000 0.425000 105 67 30
0.325000 -0.500000 0.325000 105 67 30
0.325000 -0.500000 0.425000 105 67 30
0.325000 0.200000 0.325000 105 67 30
0.425000 -0.500000 0.325000 105 67 30
0.425000 0.200000 0.325000 105 67 30
0.425000 -0.500000 0.425000 105 67 30
0.425000 0.200000 0.425000 105 67 30
0.208638 0.423152 0.245247 171 140 89
0.088554 0.303152 0.405184 171 140 89
0.208638 0.303152 0.245247 171 140 89
0.088554 0.423152 0.405184 171 140 89
-0.039395 0.303152 0.309117 171 140 89
-0.039395 0.423152 0.309117 171 140 89
0.080689 0.303152 0.149180 171 140 89
0.080689 0.423152 0.149180 171 140 89
0.250000 0.307781 -0.460000 196 193 187
0.250000 0.298642 0.447270 196 193 187
0.250000 0.297756 -0.446550 196 193 187
0.250000 0.307781 0.460000 196 193 187
-0.250000 -0.092219 0.460000 196 193 187
0.250000 -0.092219 0.460000 196 193 187
-0.250000 0.307781 0.460000 196 193 187
-0.250000 0.307781 -0.460000 196 193 187
-0.250000 0.298642 0.446139 196 193 187
0.250000 -0.092219 -0.460000 196 193 187
-0.250000 -0.092219 -0.460000 196 193 187
-0.250000 -0.092219 0.449489 196 193 187
0.250000 -0.092219 0.449178 196 193 187
0.250000 -0.092219 -0.447084 196 193 187
-0.250000 0.297756 -0.441544 196 193 187
0.114588 0.423152 -0.165685 171 140 89
-0.036081 0.303152 -0.297210 171 140 89
0.114588 0.303152 -0.165685 171 140 89
-0.036081 0.423152 -0.297210 171 140 89
0.069139 0.303152 -0.417745 171 140 89
0.069139 0.423152 -0.417745 171 140 89
0.219808 0.303152 -0.286220 171 140 89
0.219808 0.423152 -0.286220 171 140 89
-0.046631 0.423152 -0.139526 171 140 89
0.032362 0.303152 0.044213 171 140 89
-0.046631 0.303152 -0.139526 171 140 89
0.032362 0.423152 0.044213 171 140 89
-0.114629 0.303152 0.107408 171 140 89
-0.114629 0.423152 0.107408 171 140 89
-0.193622 0.303152 -0.076331 171 140 89
-0.193622 0.423152 -0.076331 171 140 89
-0.325000 0.200000 0.325000 105 67 30
0.450000 0.300000 -0.450000 105 67 30
-0.250000 -0.092219 -0.444928 196 193 187
3 0 1 2
3 3 4 1
3 4 5 6
3 2 5 0
3 7 8 9
3 10 11 12
3 12 7 9
3 11 13 7
3 13 10 8
3 9 10 12
3 14 15 16
3 17 18 15
3 19 20 18
3 16 21 14
3 22 23 24
3 25 26 23
3 27 28 26
3 24 29 22
3 30 31 32
3 33 34 31
3 35 36 34
3 32 37 30
3 38 39 40
3 41 42 39
3 43 44 42
3 45 40 44
3 41 45 43
3 46 47 48
3 49 50 51
3 52 53 54
3 53 55 56
3 51 57 58
3 49 53 52
3 59 56 55
3 60 59 48
3 57 47 58
3 61 62 63
3 64 65 62
3 66 67 65
3 68 63 67
3 64 68 66
3 69 70 71
3 72 73 70
3 74 75 73
3 76 71 75
3 74 69 76
3 0 3 1
3 3 77 4
3 4 77 5
3 2 6 5
3 7 13 8
3 10 78 11
3 12 11 7
3 11 78 13
3 13 78 10
3 9 8 10
3 14 17 15
3 17 19 18
3 19 21 20
3 16 20 21
3 22 25 23
3 25 27 26
3 27 29 28
3 24 28 29
3 30 33 31
3 33 35 34
3 35 37 36
3 32 36 37
3 38 41 39
3 41 43 42
3 43 45 44
3 45 38 40
3 41 38 45
3 59 55 48
3 49 51 47
3 51 58 47
3 48 55 46
3 49 47 46
3 49 52 50
3 57 50 54
3 53 56 60
3 56 79 60
3 54 50 52
3 53 60 54
3 53 46 55
3 51 50 57
3 49 46 53
3 59 79 56
3 60 79 59
3 57 54 47
3 61 64 62
3 64 66 65
3 66 68 67
3 68 61 63
3 64 61 68
3 69 72 70
3 72 74 73
3 74 76 75
3 76 69 71
3 74 72 69
