ply
format ascii 1.0
comment Created by Blender 2.78 (sub 0) - www.blender.org, source file: 'outlinedblock.blend'
element vertex 16
property float x
property float y
property float z
property uchar red
property uchar green
property uchar blue
element face 32
property list uchar uint vertex_indices
end_header
-0.400000 -0.500000 0.400000 255 0 0
0.490000 -0.500000 0.490000 255 0 0
-0.490000 -0.500000 0.490000 255 0 0
-0.490000 -0.500000 -0.490000 255 0 0
0.400000 -0.500000 -0.400000 255 0 0
-0.400000 -0.500000 -0.400000 255 0 0
0.400000 -0.500000 0.400000 255 0 0
0.490000 -0.500000 -0.490000 255 0 0
0.400000 -0.400000 -0.400000 255 0 0
-0.400000 -0.400000 -0.400000 255 0 0
-0.400000 -0.400000 0.400000 255 0 0
0.490000 -0.400000 -0.490000 255 0 0
-0.490000 -0.400000 -0.490000 255 0 0
-0.490000 -0.400000 0.490000 255 0 0
0.490000 -0.400000 0.490000 255 0 0
0.400000 -0.400000 0.400000 255 0 0
3 0 1 2
3 3 4 5
3 6 7 1
3 2 5 0
3 8 5 4
3 9 0 5
3 10 6 0
3 6 8 4
3 11 3 12
3 9 11 12
3 3 13 12
3 12 10 9
3 13 1 14
3 13 15 10
3 14 8 15
3 7 14 1
3 0 6 1
3 3 7 4
3 6 4 7
3 2 3 5
3 8 9 5
3 9 10 0
3 10 15 6
3 6 15 8
3 11 7 3
3 9 8 11
3 3 2 13
3 12 13 10
3 13 2 1
3 13 14 15
3 14 11 8
3 7 11 14
