ply
format ascii 1.0
comment Created by Blender 2.82 (sub 7) - www.blender.org, source file: 'outpostbanner.blend'
element vertex 64
property float x
property float y
property float z
property uchar red
property uchar green
property uchar blue
property uchar alpha
element face 90
property list uchar uint vertex_indices
end_header
0.080000 3.500000 0.080000 195 153 120 255
-0.080000 3.500000 -0.080000 195 153 120 255
-0.080000 3.500000 0.080000 195 153 120 255
0.080000 -0.500000 -0.080000 165 129 101 255
-0.080000 -0.500000 -0.080000 169 132 103 255
0.080000 3.500000 -0.080000 195 153 120 255
0.080000 -0.500000 0.080000 165 129 101 255
-0.080000 -0.500000 0.080000 165 129 101 255
-0.050000 2.854939 -1.400000 200 161 132 255
0.050000 2.754939 -1.400000 195 153 120 255
-0.050000 2.754939 -1.400000 199 160 131 255
0.050000 2.854939 -1.400000 195 153 120 255
0.050000 2.754939 1.400000 199 160 131 255
0.050000 2.854939 1.400000 197 158 127 255
-0.050000 2.754939 1.400000 195 154 121 255
-0.050000 2.854939 1.400000 195 153 120 255
1.400000 2.854939 -0.050000 195 153 121 255
1.400000 2.754939 0.050000 195 153 120 255
1.400000 2.754939 -0.050000 195 153 120 255
1.400000 2.854939 0.050000 195 153 120 255
-1.400000 2.754939 0.050000 195 153 120 255
-1.400000 2.854939 0.050000 195 153 121 255
-1.400000 2.754939 -0.050000 195 154 121 255
-1.400000 2.854939 -0.050000 196 155 123 255
0.020000 2.753545 -0.480000 60 139 153 255
0.020000 1.153545 -0.480000 60 139 153 255
0.020000 1.518071 -0.880667 60 139 153 255
-0.020000 1.153545 -0.480000 60 139 153 255
-0.020000 2.753545 -1.280000 60 139 153 255
-0.020000 1.153545 -1.280000 60 139 153 255
-0.020000 1.518071 -0.881406 60 139 153 255
0.020000 1.153545 -1.280000 60 139 153 255
0.020000 2.753545 1.280000 60 139 153 255
0.020000 1.153545 1.280000 60 139 153 255
0.020000 1.518071 0.879333 60 139 153 255
-0.020000 1.153545 1.280000 60 139 153 255
-0.020000 2.753545 0.480000 60 139 153 255
-0.020000 1.153545 0.480000 60 139 153 255
-0.020000 1.518071 0.878594 60 139 153 255
0.020000 1.153545 0.480000 62 140 153 255
-1.280000 2.753545 0.020000 129 153 42 255
-1.280000 1.153545 0.020000 129 153 42 255
-0.879333 1.518071 0.020000 129 153 42 255
-1.280000 1.153545 -0.020000 129 153 42 255
-0.480000 2.753545 -0.020000 129 153 42 255
-0.480000 1.153545 -0.020000 129 153 42 255
-0.878594 1.518071 -0.020000 129 153 42 255
-0.480000 1.153545 0.020000 129 153 42 255
0.480000 2.753545 0.020000 129 153 42 255
0.480000 1.153545 0.020000 129 153 42 255
0.880667 1.518071 0.020000 129 153 42 255
0.480000 1.153545 -0.020000 129 153 42 255
1.280000 2.753545 -0.020000 129 153 42 255
1.280000 1.153545 -0.020000 129 153 42 255
0.881406 1.518071 -0.020000 129 153 42 255
1.280000 1.153545 0.020000 129 153 42 255
0.020000 2.753545 -1.280000 60 139 153 255
-0.020000 2.753545 -0.480000 60 139 153 255
0.020000 2.753545 0.480000 60 139 153 255
-0.020000 2.753545 1.280000 60 139 153 255
-0.480000 2.753545 0.020000 129 153 42 255
-1.280000 2.753545 -0.020000 129 153 42 255
1.280000 2.753545 0.020000 129 153 42 255
0.480000 2.753545 -0.020000 129 153 42 255
3 0 1 2
3 1 3 4
3 5 6 3
3 2 4 7
3 0 7 6
3 8 9 10
3 11 12 9
3 13 14 12
3 15 10 14
3 12 10 9
3 11 15 13
3 16 17 18
3 19 20 17
3 21 22 20
3 23 18 22
3 20 18 17
3 19 23 21
3 24 25 26
3 24 27 25
3 28 29 30
3 28 31 29
3 27 26 25
3 30 31 26
3 32 33 34
3 32 35 33
3 36 37 38
3 36 39 37
3 35 34 33
3 38 39 34
3 40 41 42
3 40 43 41
3 44 45 46
3 44 47 45
3 43 42 41
3 46 47 42
3 48 49 50
3 48 51 49
3 52 53 54
3 52 55 53
3 51 50 49
3 54 55 50
3 0 5 1
3 1 5 3
3 5 0 6
3 2 1 4
3 0 2 7
3 8 11 9
3 11 13 12
3 13 15 14
3 15 8 10
3 12 14 10
3 11 8 15
3 16 19 17
3 19 21 20
3 21 23 22
3 23 16 18
3 20 22 18
3 19 16 23
3 26 31 56
3 56 24 26
3 24 57 27
3 30 27 57
3 57 28 30
3 28 56 31
3 27 30 26
3 30 29 31
3 34 39 58
3 58 32 34
3 32 59 35
3 38 35 59
3 59 36 38
3 36 58 39
3 35 38 34
3 38 37 39
3 42 47 60
3 60 40 42
3 40 61 43
3 46 43 61
3 61 44 46
3 44 60 47
3 43 46 42
3 46 45 47
3 50 55 62
3 62 48 50
3 48 63 51
3 54 51 63
3 63 52 54
3 52 62 55
3 51 54 50
3 54 53 55
