ply
format ascii 1.0
comment Created by Blender 2.82 (sub 7) - www.blender.org, source file: '1papermaker.blend'
element vertex 120
property float x
property float y
property float z
property uchar red
property uchar green
property uchar blue
property uchar alpha
element face 86
property list uchar uint vertex_indices
end_header
0.179262 0.022740 -0.130562 211 134 81 255
0.179262 0.041707 -0.130562 211 134 82 255
0.179262 0.041707 0.130562 211 134 81 255
0.179262 0.022740 0.130562 211 134 81 255
0.016059 0.041707 0.130562 211 134 81 255
0.016059 0.022740 0.130562 211 134 81 255
0.016059 0.041707 -0.130562 211 134 81 255
0.016059 0.022740 -0.130562 211 134 81 255
0.026929 0.041707 0.121292 211 134 81 255
0.026929 0.041707 -0.120441 211 136 84 255
0.168392 0.041707 -0.120441 211 134 81 255
0.026929 0.041707 -0.120441 211 136 84 255
0.168392 0.041707 -0.120441 211 134 81 255
0.168392 0.041707 0.121292 211 134 81 255
0.026929 0.041707 0.121292 211 134 81 255
0.028001 0.034977 0.119459 211 172 130 255
0.028001 0.034977 -0.118608 211 176 134 255
0.168392 0.041707 0.121292 211 134 81 255
0.167320 0.034977 0.119459 211 176 134 255
0.167320 0.034977 -0.118608 211 176 134 255
0.328582 -0.359291 -0.328582 169 179 177 255
0.328582 -0.319291 -0.328582 167 177 175 255
0.328582 -0.319291 0.328582 167 177 175 255
0.328582 -0.359291 0.328582 167 177 175 255
-0.328582 -0.319291 0.328582 167 177 175 255
-0.328582 -0.359291 0.328582 167 177 175 255
-0.328582 -0.319291 -0.328582 167 177 175 255
-0.328582 -0.359291 -0.328582 167 177 175 255
-0.324848 0.053253 0.324848 184 133 94 255
0.324848 0.053253 0.324848 184 133 94 255
0.285456 0.053253 0.285456 184 133 94 255
-0.285456 0.053253 0.285456 184 133 94 255
-0.324848 -0.499203 -0.324848 116 85 60 255
-0.324848 0.053253 -0.324848 184 133 94 255
0.324848 0.053253 -0.324848 184 133 94 255
0.324848 -0.499203 -0.324848 116 85 60 255
0.324848 -0.499203 0.324848 116 85 60 255
-0.324848 -0.499203 0.324848 116 85 60 255
0.285456 0.053253 -0.285456 184 133 94 255
-0.285456 0.053253 -0.285456 184 133 94 255
-0.285456 0.031787 -0.285456 210 200 209 255
0.285456 0.031787 -0.285456 211 201 210 255
-0.285456 0.031787 0.285456 211 201 210 255
0.285456 0.031787 0.285456 211 201 210 255
0.328582 -0.135881 -0.328582 167 177 175 255
0.328582 -0.095881 -0.328582 167 177 175 255
0.328582 -0.095881 0.328582 168 178 176 255
0.328582 -0.135881 0.328582 167 177 175 255
-0.328582 -0.095881 0.328582 179 187 186 255
-0.328582 -0.135881 0.328582 167 177 175 255
-0.328582 -0.095881 -0.328582 167 177 175 255
-0.328582 -0.135881 -0.328582 167 177 175 255
-0.014697 0.022740 -0.130562 211 134 81 255
-0.014697 0.041707 -0.130562 211 134 82 255
-0.014697 0.041707 0.130562 211 134 81 255
-0.014697 0.022740 0.130562 211 134 81 255
-0.177899 0.041707 0.130562 211 134 81 255
-0.177899 0.022740 0.130562 211 134 81 255
-0.177899 0.041707 -0.130562 211 134 81 255
-0.177899 0.022740 -0.130562 211 134 81 255
-0.167030 0.041707 0.121292 211 134 81 255
-0.167030 0.041707 -0.120441 211 136 84 255
-0.025566 0.041707 -0.120441 211 134 81 255
-0.167030 0.041707 -0.120441 211 136 84 255
-0.025566 0.041707 -0.120441 211 134 81 255
-0.025566 0.041707 0.121292 211 134 81 255
-0.167030 0.041707 0.121292 211 134 81 255
-0.165957 0.034977 0.119459 211 172 130 255
-0.165957 0.034977 -0.118608 211 176 134 255
-0.025566 0.041707 0.121292 211 134 81 255
-0.026639 0.034977 0.119459 211 176 134 255
-0.026639 0.034977 -0.118608 211 176 134 255
-0.362417 -0.503099 -0.050000 80 52 36 255
-0.362417 1.096901 -0.050000 80 52 37 255
-0.362417 1.096901 0.050000 80 52 37 255
-0.362417 -0.503099 0.050000 86 62 50 255
-0.462417 1.096901 0.050000 78 49 32 255
-0.462417 -0.503099 0.050000 85 61 48 255
-0.462417 1.096901 -0.050000 88 64 52 255
-0.462417 -0.503099 -0.050000 78 49 32 255
0.467510 -0.503099 -0.050000 79 51 35 255
0.467510 1.096901 -0.050000 78 49 32 255
0.467510 1.096901 0.050000 79 51 34 255
0.467510 -0.503099 0.050000 88 65 53 255
0.367510 1.096901 0.050000 78 49 32 255
0.367510 -0.503099 0.050000 84 60 47 255
0.367510 1.096901 -0.050000 89 67 56 255
0.367510 -0.503099 -0.050000 78 49 32 255
0.499764 1.148952 -0.067801 59 38 24 255
-0.500230 1.145513 -0.067801 64 41 26 255
-0.500230 1.145513 0.067801 59 38 24 255
0.499764 1.148952 0.067801 60 39 25 255
-0.499764 1.009912 0.067801 78 49 32 255
0.500230 1.013351 0.067801 64 41 26 255
-0.499764 1.009912 -0.067801 80 51 36 255
0.500230 1.013351 -0.067801 61 39 25 255
0.430552 0.732609 -0.040000 79 50 34 255
-0.430552 0.732609 -0.040000 78 49 32 255
-0.430552 0.732609 0.040000 78 49 32 255
0.430552 0.732609 0.040000 78 49 32 255
-0.430552 0.652609 0.040000 78 49 32 255
0.430552 0.652609 0.040000 78 49 32 255
-0.430552 0.652609 -0.040000 78 49 32 255
0.430552 0.652609 -0.040000 81 54 40 255
0.028530 0.598393 -0.028065 151 148 153 255
0.029788 1.121014 -0.028065 141 138 144 255
0.029788 1.121014 0.028065 162 160 165 255
0.028530 0.598393 0.028065 140 137 143 255
-0.026342 1.121131 0.028065 141 138 144 255
-0.027600 0.598510 0.028065 140 137 143 255
-0.026342 1.121131 -0.028065 141 138 144 255
-0.027600 0.598510 -0.028065 140 137 143 255
-0.108091 0.565046 -0.108556 147 145 150 255
-0.108091 0.565046 0.108556 140 137 143 255
-0.197652 0.390993 -0.197806 126 123 128 255
-0.197652 0.390993 0.197806 111 107 112 255
0.109021 0.564594 -0.108556 140 137 143 255
0.109021 0.564594 0.108556 140 137 143 255
0.197960 0.390169 0.197806 107 104 109 255
0.197960 0.390169 -0.197806 129 126 132 255
4 0 1 2 3
4 3 2 4 5
4 5 4 6 7
4 7 6 1 0
4 6 4 8 9
4 10 9 11 12
4 2 1 10 13
4 1 6 9 10
4 4 2 13 8
4 11 14 15 16
4 8 13 17 14
4 9 8 14 11
4 13 10 12 17
4 15 18 19 16
4 17 12 19 18
4 12 11 16 19
4 14 17 18 15
4 20 21 22 23
4 23 22 24 25
4 25 24 26 27
4 27 26 21 20
4 28 29 30 31
4 32 33 34 35
4 35 34 29 36
4 37 28 33 32
4 36 29 28 37
4 38 39 40 41
4 34 33 39 38
4 29 34 38 30
4 33 28 31 39
4 42 43 41 40
4 31 30 43 42
4 39 31 42 40
4 30 38 41 43
4 44 45 46 47
4 47 46 48 49
4 49 48 50 51
4 51 50 45 44
4 52 53 54 55
4 55 54 56 57
4 57 56 58 59
4 59 58 53 52
4 58 56 60 61
4 62 61 63 64
4 54 53 62 65
4 53 58 61 62
4 56 54 65 60
4 63 66 67 68
4 60 65 69 66
4 61 60 66 63
4 65 62 64 69
4 67 70 71 68
4 69 64 71 70
4 64 63 68 71
4 66 69 70 67
4 72 73 74 75
4 75 74 76 77
4 77 76 78 79
4 79 78 73 72
4 80 81 82 83
4 83 82 84 85
4 85 84 86 87
4 87 86 81 80
4 88 89 90 91
4 91 90 92 93
4 93 92 94 95
4 95 94 89 88
4 91 93 95 88
4 92 90 89 94
4 96 97 98 99
4 99 98 100 101
4 101 100 102 103
4 103 102 97 96
4 104 105 106 107
4 107 106 108 109
4 109 108 110 111
4 111 110 105 104
4 109 111 112 113
4 113 112 114 115
4 111 104 116 112
4 107 109 113 117
4 104 107 117 116
4 118 115 114 119
4 116 117 118 119
4 112 116 119 114
4 117 113 115 118
