ply
format ascii 1.0
comment Created by Blender 2.78 (sub 0) - www.blender.org, source file: 'papyrusstage1.blend'
element vertex 51
property float x
property float y
property float z
property uchar red
property uchar green
property uchar blue
element face 60
property list uchar uint vertex_indices
end_header
0.134279 -0.512678 0.236233 181 189 69
0.134279 -0.187614 0.236233 181 189 69
0.153395 -0.187614 0.200378 181 189 69
0.153395 -0.512678 0.200378 181 189 69
0.189251 -0.187614 0.219494 181 189 69
0.189251 -0.512678 0.219494 181 189 69
0.170135 -0.187614 0.255350 181 189 69
0.170135 -0.512678 0.255350 181 189 69
0.194567 -0.030377 0.335585 181 189 69
0.269486 -0.030377 0.195061 181 189 69
0.211965 -0.097590 0.251118 181 189 69
0.188577 -0.097590 0.179244 181 189 69
0.164210 -0.101169 0.225622 181 189 69
0.128963 -0.030377 0.120142 181 189 69
0.054044 -0.030377 0.260666 181 189 69
0.114193 -0.097590 0.200409 181 189 69
0.137036 -0.097590 0.276573 181 189 69
-0.239060 -0.524474 -0.079281 181 189 69
-0.239060 -0.196558 -0.079281 181 189 69
-0.259511 -0.196558 -0.043758 181 189 69
-0.259511 -0.524474 -0.043758 181 189 69
-0.295034 -0.196558 -0.064209 181 189 69
-0.295034 -0.524474 -0.064209 181 189 69
-0.274583 -0.196558 -0.099732 181 189 69
-0.274583 -0.524474 -0.099732 181 189 69
-0.296583 -0.037940 -0.181431 181 189 69
-0.376733 -0.037940 -0.042209 181 189 69
-0.316897 -0.105744 -0.096839 181 189 69
-0.295676 -0.105744 -0.023605 181 189 69
-0.269586 -0.109354 -0.069565 181 189 69
-0.237511 -0.037940 0.037941 181 189 69
-0.157361 -0.037940 -0.101281 181 189 69
-0.219985 -0.105744 -0.042502 181 189 69
-0.240515 -0.105744 -0.120043 181 189 69
0.237366 -0.501435 -0.252851 181 189 69
0.237366 -0.163811 -0.252851 181 189 69
0.195304 -0.163811 -0.249404 181 189 69
0.195304 -0.501435 -0.249404 181 189 69
0.191857 -0.163811 -0.291466 181 189 69
0.191857 -0.501435 -0.291466 181 189 69
0.233919 -0.163811 -0.294913 181 189 69
0.233919 -0.501435 -0.294913 181 189 69
0.290281 -0.000498 -0.361337 181 189 69
0.125433 -0.000498 -0.347828 181 189 69
0.206720 -0.070308 -0.329076 181 189 69
0.157075 -0.070308 -0.268262 181 189 69
0.211279 -0.074026 -0.273034 181 189 69
0.138941 -0.000498 -0.182980 181 189 69
0.303789 -0.000498 -0.196489 181 189 69
0.217356 -0.070308 -0.215176 181 189 69
0.271055 -0.070308 -0.277924 181 189 69
4 0 1 2 3
4 3 2 4 5
4 5 4 6 7
4 1 0 7 6
3 8 6 4
3 4 9 10
3 4 10 8
4 9 11 12 10
3 13 2 1
3 1 14 15
3 1 15 13
3 14 1 6
3 6 8 16
3 6 16 14
3 9 4 2
3 2 13 11
3 2 11 9
4 16 12 15 14
4 10 12 16 8
4 15 12 11 13
4 17 18 19 20
4 20 19 21 22
4 22 21 23 24
4 24 23 18 17
3 25 23 21
3 21 26 27
3 21 27 25
4 26 28 29 27
3 30 19 18
3 18 31 32
3 18 32 30
3 31 18 23
3 23 25 33
3 23 33 31
3 26 21 19
3 19 30 28
3 19 28 26
4 33 29 32 31
4 27 29 33 25
4 32 29 28 30
4 34 35 36 37
4 37 36 38 39
4 39 38 40 41
4 41 40 35 34
3 42 40 38
3 38 43 44
3 38 44 42
4 43 45 46 44
3 47 36 35
3 35 48 49
3 35 49 47
3 48 35 40
3 40 42 50
3 40 50 48
3 43 38 36
3 36 47 45
3 36 45 43
4 50 46 49 48
4 44 46 50 42
4 49 46 45 47
