ply
format ascii 1.0
comment Created by Blender 2.78 (sub 0) - www.blender.org, source file: 'papyrusstage2.blend'
element vertex 57
property float x
property float y
property float z
property uchar red
property uchar green
property uchar blue
element face 60
property list uchar uint vertex_indices
end_header
0.094121 -0.507208 0.248462 167 255 109
0.094121 0.292792 0.248462 231 255 117
0.141167 0.292792 0.160220 231 255 117
0.141167 -0.507208 0.160220 167 255 109
0.229409 0.292792 0.207265 231 255 117
0.229409 -0.507208 0.207265 167 255 109
0.182363 0.292792 0.295508 231 255 117
0.182363 -0.507208 0.295508 167 255 109
0.242493 0.679761 0.492972 93 189 48
0.426873 0.679761 0.147136 93 189 48
0.285309 0.514346 0.285094 93 189 48
0.227750 0.514346 0.108208 93 189 48
0.167782 0.505537 0.222346 93 189 48
0.081037 0.679761 -0.037244 93 189 48
-0.103343 0.679761 0.308592 93 189 48
0.044688 0.514346 0.160296 119 200 79
0.100906 0.514346 0.347739 93 189 48
0.044688 0.514346 0.160296 93 189 48
0.242493 0.679761 0.492972 93 189 49
-0.198768 -0.507208 -0.090131 167 255 109
-0.198768 0.292792 -0.090131 231 255 117
-0.248661 0.292792 -0.003466 231 255 117
-0.248661 -0.507208 -0.003466 167 255 109
-0.335326 0.292792 -0.053359 231 255 117
-0.335326 -0.507208 -0.053359 167 255 109
-0.285433 0.292792 -0.140024 231 255 117
-0.285433 -0.507208 -0.140024 167 255 109
-0.339104 0.679761 -0.339340 93 189 48
-0.534642 0.679761 0.000312 93 189 48
-0.388663 0.514346 -0.132966 93 189 48
-0.336891 0.514346 0.045700 93 189 48
-0.273240 0.505537 -0.066426 93 189 48
-0.194990 0.679761 0.195850 93 189 48
0.000548 0.679761 -0.143802 93 189 48
-0.152231 0.514346 -0.000402 119 200 79
-0.202319 0.514346 -0.189576 93 189 48
-0.152231 0.514346 -0.000402 93 189 48
-0.339104 0.679761 -0.339340 93 189 49
0.268528 -0.507208 -0.226409 167 255 109
0.268528 0.292792 -0.226409 231 255 117
0.168862 0.292792 -0.218242 231 255 117
0.168862 -0.507208 -0.218242 167 255 109
0.160695 0.292792 -0.317908 231 255 117
0.160695 -0.507208 -0.317908 167 255 109
0.260360 0.292792 -0.326075 231 255 117
0.260360 -0.507208 -0.326075 167 255 109
0.393910 0.679761 -0.483466 93 189 48
0.003303 0.679761 -0.451458 93 189 48
0.195913 0.514346 -0.407025 93 189 48
0.078280 0.514346 -0.262927 93 189 48
0.206715 0.505537 -0.274234 93 189 48
0.035312 0.679761 -0.060851 93 189 48
0.425919 0.679761 -0.092860 93 189 48
0.221116 0.514346 -0.137140 119 200 79
0.348354 0.514346 -0.285820 93 189 48
0.221116 0.514346 -0.137140 93 189 48
0.393910 0.679761 -0.483466 93 189 49
4 0 1 2 3
4 3 2 4 5
4 5 4 6 7
4 1 0 7 6
3 8 6 4
3 4 9 10
3 4 10 8
4 9 11 12 10
3 13 2 1
3 1 14 15
3 1 15 13
3 14 1 6
3 6 8 16
3 6 16 14
3 9 4 2
3 2 13 11
3 2 11 9
4 16 12 17 14
4 10 12 16 18
4 17 12 11 13
4 19 20 21 22
4 22 21 23 24
4 24 23 25 26
4 26 25 20 19
3 27 25 23
3 23 28 29
3 23 29 27
4 28 30 31 29
3 32 21 20
3 20 33 34
3 20 34 32
3 33 20 25
3 25 27 35
3 25 35 33
3 28 23 21
3 21 32 30
3 21 30 28
4 35 31 36 33
4 29 31 35 37
4 36 31 30 32
4 38 39 40 41
4 41 40 42 43
4 43 42 44 45
4 45 44 39 38
3 46 44 42
3 42 47 48
3 42 48 46
4 47 49 50 48
3 51 40 39
3 39 52 53
3 39 53 51
3 52 39 44
3 44 46 54
3 44 54 52
3 47 42 40
3 40 51 49
3 40 49 47
4 54 50 55 52
4 48 50 54 56
4 55 50 49 51
