ply
format ascii 1.0
comment Created by Blender 3.4.1 - www.blender.org
element vertex 120
property float x
property float y
property float z
property uchar red
property uchar green
property uchar blue
property uchar alpha
element face 228
property list uchar uint vertex_indices
end_header
0.000000 -0.238219 0.277601 194 141 94 255
-0.196294 -0.500000 0.196294 194 141 94 255
0.000000 -0.500000 0.277601 194 141 94 255
-0.196294 -0.238219 0.196294 194 141 94 255
-0.277601 -0.500000 -0.000000 194 141 94 255
-0.277601 -0.238219 -0.000000 195 144 97 255
-0.196294 -0.500000 -0.196294 194 141 94 255
-0.196294 -0.238219 -0.196294 194 141 94 255
0.000000 -0.500000 -0.277601 194 141 94 255
0.000000 -0.238219 -0.277601 194 141 94 255
0.196293 -0.500000 -0.196294 195 142 95 255
0.196293 -0.238219 -0.196294 194 141 94 255
0.277601 -0.500000 0.000000 195 143 96 255
-0.187472 -0.217713 -0.187472 136 99 66 255
0.277601 -0.238219 0.000000 194 141 94 255
0.196294 -0.500000 0.196293 194 142 95 255
0.196294 -0.238219 0.196293 194 141 94 255
0.265125 -0.217713 0.000000 136 99 66 255
0.194651 -0.200625 0.194651 194 141 94 255
0.187472 -0.217713 0.187472 136 99 66 255
0.000000 -0.217713 -0.265125 136 99 66 255
-0.265125 -0.217713 -0.000000 136 99 66 255
0.187472 -0.217713 -0.187472 136 99 66 255
0.000000 -0.217713 0.265125 136 99 66 255
-0.187472 -0.217713 0.187472 136 99 66 255
-0.194651 -0.200625 -0.194651 194 141 94 255
0.000000 0.167114 -0.275277 194 141 94 255
0.000000 -0.200625 -0.275277 194 141 94 255
0.194651 -0.200625 -0.194651 194 141 94 255
-0.194651 -0.200625 0.194651 195 142 95 255
0.000000 -0.200625 0.275277 194 141 94 255
0.275277 -0.200625 0.000000 194 141 94 255
-0.275277 -0.200625 -0.000000 191 140 93 255
0.194651 0.167114 0.194651 194 142 96 255
0.000000 0.185573 0.264389 136 99 66 255
0.000000 0.167114 0.275277 194 141 94 255
-0.275277 0.167114 -0.000000 194 141 94 255
0.194651 0.167114 -0.194651 194 141 94 255
-0.194651 0.167114 -0.194651 194 141 94 255
-0.194651 0.167114 0.194651 194 141 94 255
0.275277 0.167114 0.000000 194 141 94 255
0.186951 0.185573 -0.186951 136 99 66 255
0.000000 0.205377 -0.276321 194 141 94 255
0.195389 0.205377 -0.195389 194 141 94 255
0.264389 0.185573 0.000000 136 99 66 255
0.000000 0.185573 -0.264389 136 99 66 255
-0.264389 0.185573 -0.000000 136 99 66 255
0.186951 0.185573 0.186951 136 99 66 255
-0.186951 0.185573 -0.186951 136 99 66 255
-0.186951 0.185573 0.186951 136 99 66 255
0.276321 0.205377 0.000000 194 141 94 255
0.195389 0.391647 0.195389 194 141 94 255
0.195389 0.205377 0.195389 194 141 94 255
-0.195389 0.205377 -0.195389 194 141 94 255
-0.195389 0.205377 0.195389 194 141 94 255
0.000000 0.205377 0.276321 194 141 94 255
-0.276321 0.205377 -0.000000 194 141 94 255
-0.276321 0.391647 -0.000000 194 141 94 255
0.000000 0.391647 0.276321 194 141 94 255
0.276321 0.391647 0.000000 194 141 94 255
0.195389 0.391647 -0.195389 194 141 94 255
-0.195389 0.391647 -0.195389 194 141 94 255
-0.195389 0.391647 0.195389 194 141 94 255
0.000000 0.391647 -0.276321 194 141 94 255
-0.000167 0.134020 0.283535 158 115 77 255
-0.271131 0.318237 0.270963 158 115 77 255
-0.200656 0.134020 0.200489 158 115 77 255
-0.283702 0.134020 -0.000000 158 115 77 255
-0.383367 0.318237 -0.000000 158 115 77 255
-0.200656 0.134020 -0.200489 158 115 77 255
-0.271131 0.318237 -0.270963 158 115 77 255
-0.000167 0.134020 -0.283535 158 115 77 255
-0.000167 0.318237 -0.383200 158 115 77 255
0.200322 0.134020 -0.200489 158 115 77 255
0.270796 0.318237 -0.270964 158 115 77 255
0.283368 0.134020 0.000000 158 115 77 255
0.383033 0.318237 0.000000 158 115 77 255
0.200322 0.134020 0.200489 158 115 77 255
0.270797 0.318237 0.270963 158 115 77 255
0.235067 0.102652 0.235234 194 141 94 255
-0.000167 0.102652 0.332671 194 141 94 255
0.198474 0.065568 0.198641 158 115 77 255
-0.332838 0.102652 -0.000000 194 141 94 255
0.235067 0.102652 -0.235234 194 141 94 255
-0.235401 0.102652 -0.235234 194 141 94 255
0.332504 0.102652 0.000000 194 141 94 255
-0.235401 0.102652 0.235234 194 141 94 255
-0.000167 0.102652 -0.332671 194 141 94 255
-0.198808 0.065568 -0.198641 158 115 77 255
0.198474 0.065568 -0.198641 158 115 77 255
0.280754 0.065568 0.000000 159 116 78 255
-0.000167 0.065568 -0.280921 158 115 77 255
-0.198808 0.065568 0.198641 158 115 77 255
-0.281088 0.065568 -0.000000 158 115 77 255
-0.000167 0.065568 0.280921 158 115 77 255
0.516636 0.500000 -0.500000 158 115 77 255
0.473369 0.444921 0.456733 158 115 77 255
0.473369 0.444921 -0.456733 158 115 77 255
0.516636 0.500000 0.500000 158 115 77 255
-0.440097 0.444921 0.456733 158 115 77 255
-0.483364 0.500000 0.500000 177 130 86 255
-0.440097 0.444921 -0.456733 158 115 77 255
-0.483364 0.500000 -0.500000 158 115 77 255
-0.472357 0.431186 -0.488993 194 141 94 255
0.505629 0.431186 0.488993 194 141 94 255
0.505629 0.410583 -0.488993 194 141 94 255
0.505629 0.431186 -0.488993 194 141 94 255
-0.472357 0.431186 0.488993 194 141 94 255
-0.411711 0.358391 -0.428347 158 115 77 255
-0.472357 0.410583 -0.488993 194 141 94 255
0.505629 0.410583 0.488993 194 141 94 255
-0.472357 0.410583 0.488993 194 141 94 255
-0.411711 0.312242 0.428347 194 141 94 255
-0.411711 0.358391 0.428347 158 115 77 255
0.444983 0.358391 0.428347 158 115 77 255
0.444983 0.358391 -0.428347 158 115 77 255
0.444983 0.312242 -0.428347 193 140 94 255
0.444983 0.312242 0.428347 194 141 94 255
-0.411711 0.312242 -0.428347 194 141 94 255
-0.000167 0.318237 0.383200 158 115 77 255
3 0 1 2
3 3 4 1
3 5 6 4
3 7 8 6
3 9 10 8
3 11 12 10
3 5 13 7
3 14 15 12
3 16 2 15
3 6 10 15
3 17 18 19
3 11 17 14
3 9 13 20
3 16 17 19
3 3 21 5
3 11 20 22
3 16 23 0
3 0 24 3
3 25 26 27
3 20 28 22
3 21 25 13
3 23 29 24
3 19 30 23
3 22 31 17
3 13 27 20
3 24 32 21
3 33 34 35
3 29 36 32
3 31 33 18
3 27 37 28
3 32 38 25
3 30 39 29
3 18 35 30
3 28 40 31
3 41 42 43
3 37 44 40
3 38 45 26
3 39 46 36
3 40 47 33
3 37 45 41
3 36 48 38
3 35 49 39
3 50 51 52
3 46 53 48
3 34 54 49
3 47 55 34
3 44 43 50
3 45 53 42
3 49 56 46
3 47 50 52
3 57 58 59
3 42 60 43
3 56 61 53
3 55 62 54
3 52 58 55
3 43 59 50
3 53 63 42
3 54 57 56
3 64 65 66
3 65 67 66
3 68 69 67
3 70 71 69
3 72 73 71
3 74 75 73
3 76 72 68
3 76 77 75
3 78 64 77
3 64 79 77
3 80 81 79
3 66 80 64
3 69 82 67
3 75 83 73
3 71 84 69
3 77 85 75
3 67 86 66
3 73 87 71
3 88 89 81
3 83 90 89
3 84 91 88
3 82 92 86
3 79 90 85
3 87 89 91
3 82 88 93
3 86 94 80
3 95 96 97
3 98 99 96
3 100 101 99
3 102 97 101
3 97 103 101
3 98 102 100
3 104 105 106
3 99 104 96
3 96 106 97
3 101 107 99
3 105 108 109
3 106 109 103
3 107 110 104
3 103 111 107
3 108 112 113
3 111 114 110
3 109 113 111
3 110 115 105
3 112 116 117
3 114 116 115
3 115 118 108
3 113 117 114
3 0 3 1
3 3 5 4
3 5 7 6
3 7 9 8
3 9 11 10
3 11 14 12
3 5 21 13
3 14 16 15
3 16 0 2
3 15 2 1
3 1 4 6
3 6 8 10
3 10 12 15
3 15 1 6
3 17 31 18
3 11 22 17
3 9 7 13
3 16 14 17
3 3 24 21
3 11 9 20
3 16 19 23
3 0 23 24
3 25 38 26
3 20 27 28
3 21 32 25
3 23 30 29
3 19 18 30
3 22 28 31
3 13 25 27
3 24 29 32
3 33 47 34
3 29 39 36
3 31 40 33
3 27 26 37
3 32 36 38
3 30 35 39
3 18 33 35
3 28 37 40
3 41 45 42
3 37 41 44
3 38 48 45
3 39 49 46
3 40 44 47
3 37 26 45
3 36 46 48
3 35 34 49
3 50 59 51
3 46 56 53
3 34 55 54
3 47 52 55
3 44 41 43
3 45 48 53
3 49 54 56
3 47 44 50
3 57 62 58
3 58 51 59
3 59 60 63
3 63 61 59
3 61 57 59
3 42 63 60
3 56 57 61
3 55 58 62
3 52 51 58
3 43 60 59
3 53 61 63
3 54 62 57
3 64 119 65
3 65 68 67
3 68 70 69
3 70 72 71
3 72 74 73
3 74 76 75
3 68 65 119
3 119 78 76
3 76 74 72
3 72 70 68
3 68 119 76
3 76 78 77
3 78 119 64
3 64 80 79
3 80 94 81
3 66 86 80
3 69 84 82
3 75 85 83
3 71 87 84
3 77 79 85
3 67 82 86
3 73 83 87
3 81 94 92
3 92 93 81
3 93 88 81
3 88 91 89
3 89 90 81
3 83 85 90
3 84 87 91
3 82 93 92
3 79 81 90
3 87 83 89
3 82 84 88
3 86 92 94
3 95 98 96
3 98 100 99
3 100 102 101
3 102 95 97
3 97 106 103
3 98 95 102
3 104 110 105
3 99 107 104
3 96 104 106
3 101 103 107
3 105 115 108
3 106 105 109
3 107 111 110
3 103 109 111
3 108 118 112
3 111 113 114
3 109 108 113
3 110 114 115
3 112 118 116
3 114 117 116
3 115 116 118
3 113 112 117
