ply
format ascii 1.0
comment Created by Blender 2.83.20 - www.blender.org, source file: ''
element vertex 116
property float x
property float y
property float z
property uchar red
property uchar green
property uchar blue
property uchar alpha
element face 220
property list uchar uint vertex_indices
end_header
0.000000 -0.238219 -0.277601 194 141 94 255
0.196294 -0.442676 -0.196294 194 141 94 255
0.000000 -0.442676 -0.277601 194 141 94 255
0.196294 -0.238219 -0.196294 194 141 94 255
0.277601 -0.442676 0.000000 194 141 94 255
0.277601 -0.238219 0.000000 195 144 97 255
0.196294 -0.442676 0.196294 194 141 94 255
0.196294 -0.238219 0.196294 194 141 94 255
0.000000 -0.442676 0.277601 194 141 94 255
0.000000 -0.238219 0.277601 194 141 94 255
-0.196293 -0.442676 0.196294 195 142 95 255
-0.196293 -0.238219 0.196294 194 141 94 255
-0.277601 -0.442676 0.000000 195 143 96 255
0.187472 -0.217713 0.187472 136 99 66 255
-0.277601 -0.238219 0.000000 194 141 94 255
-0.196294 -0.442676 -0.196293 194 142 95 255
-0.196294 -0.238219 -0.196293 194 141 94 255
-0.265125 -0.217713 0.000000 136 99 66 255
-0.194651 -0.200625 -0.194651 194 141 94 255
-0.187472 -0.217713 -0.187472 136 99 66 255
0.000000 -0.217713 0.265125 136 99 66 255
0.265125 -0.217713 0.000000 136 99 66 255
-0.187472 -0.217713 0.187472 136 99 66 255
0.000000 -0.217713 -0.265125 136 99 66 255
0.187472 -0.217713 -0.187472 136 99 66 255
0.194651 -0.200625 0.194651 194 141 94 255
0.000000 0.167114 0.275277 194 141 94 255
0.000000 -0.200625 0.275277 194 141 94 255
-0.194651 -0.200625 0.194651 194 141 94 255
0.194651 -0.200625 -0.194651 195 142 95 255
0.000000 -0.200625 -0.275277 194 141 94 255
-0.275277 -0.200625 0.000000 194 141 94 255
0.275277 -0.200625 0.000000 191 140 93 255
-0.194651 0.167114 -0.194651 194 142 96 255
0.000000 0.185573 -0.264389 136 99 66 255
0.000000 0.167114 -0.275277 194 141 94 255
0.275277 0.167114 -0.000000 194 141 94 255
-0.194651 0.167114 0.194651 194 141 94 255
0.194651 0.167114 0.194651 194 141 94 255
0.194651 0.167114 -0.194651 194 141 94 255
-0.275277 0.167114 -0.000000 194 141 94 255
-0.186951 0.185573 0.186951 136 99 66 255
0.000000 0.205377 0.276321 194 141 94 255
-0.195389 0.205377 0.195389 194 141 94 255
-0.264389 0.185573 -0.000000 136 99 66 255
0.000000 0.185573 0.264389 136 99 66 255
0.264389 0.185573 -0.000000 136 99 66 255
-0.186951 0.185573 -0.186951 136 99 66 255
0.186951 0.185573 0.186951 136 99 66 255
0.186951 0.185573 -0.186951 136 99 66 255
-0.276321 0.205377 -0.000000 194 141 94 255
-0.195389 0.500108 -0.195389 194 141 94 255
-0.195389 0.205377 -0.195389 194 141 94 255
0.195389 0.205377 0.195389 194 141 94 255
0.195389 0.205377 -0.195389 194 141 94 255
0.000000 0.205377 -0.276321 194 141 94 255
0.276321 0.205377 -0.000000 194 141 94 255
0.276321 0.500108 -0.000000 194 141 94 255
0.000000 0.500108 -0.276321 194 141 94 255
-0.276321 0.500108 -0.000000 194 141 94 255
-0.195389 0.500108 0.195389 194 141 94 255
0.195389 0.500108 0.195389 194 141 94 255
0.195389 0.500108 -0.195389 194 141 94 255
0.000000 0.500108 0.276321 194 141 94 255
-0.486988 -0.422426 0.486988 179 130 87 255
-0.500000 -0.500000 -0.500000 136 99 66 255
-0.500000 -0.500000 0.500000 136 99 66 255
-0.486988 -0.422426 -0.486988 179 130 87 255
0.500000 -0.500000 -0.500000 136 99 66 255
0.486987 -0.422426 -0.486988 179 130 87 255
0.500000 -0.500000 0.500000 136 99 66 255
0.486987 -0.422426 0.486988 179 130 87 255
-0.459570 -0.406603 -0.459570 136 99 66 255
0.459569 -0.406603 0.459570 136 99 66 255
-0.484371 -0.386825 0.484371 179 130 87 255
-0.459570 -0.406603 0.459570 136 99 66 255
0.459569 -0.406603 -0.459570 136 99 66 255
0.484371 -0.386825 0.484371 179 130 87 255
0.388821 -0.323535 -0.388821 136 99 66 255
0.388821 -0.323535 0.388821 136 99 66 255
0.484371 -0.386825 -0.484371 179 130 87 255
-0.484371 -0.386825 -0.484371 179 130 87 255
-0.388821 -0.323535 -0.388821 136 99 66 255
-0.388821 -0.323535 0.388821 136 99 66 255
-0.000207 -0.143745 -0.275945 162 117 79 255
0.263418 -0.328322 -0.263626 134 97 65 255
-0.000208 -0.328322 -0.372823 134 97 65 255
0.194915 -0.143745 -0.195122 162 117 79 255
0.372616 -0.328322 0.000000 134 97 65 255
0.194915 -0.143745 0.195122 162 117 79 255
0.263418 -0.328322 0.263626 134 97 65 255
-0.000207 -0.143745 0.275945 162 117 79 255
-0.000208 -0.328322 0.372823 134 97 65 255
-0.195330 -0.143745 0.195122 162 117 79 255
-0.263833 -0.328322 0.263626 134 97 65 255
-0.276152 -0.143745 0.000000 162 117 79 255
-0.373031 -0.328322 0.000000 134 97 65 255
0.304502 -0.121187 0.000000 179 130 87 255
0.215255 -0.121187 0.215462 179 130 87 255
-0.263833 -0.328322 -0.263626 134 97 65 255
-0.195330 -0.143745 -0.195122 161 116 78 255
-0.215670 -0.121187 -0.215462 179 130 87 255
-0.272497 -0.092622 0.000000 136 99 66 255
-0.192746 -0.092622 -0.192538 136 99 66 255
-0.215670 -0.121187 0.215462 179 130 87 255
-0.304917 -0.121187 0.000000 179 130 87 255
-0.000207 -0.121187 0.304710 174 126 85 255
0.275737 -0.143745 0.000000 155 112 75 255
-0.000207 -0.121187 -0.304710 179 130 87 255
0.215255 -0.121187 -0.215462 179 130 87 255
0.192331 -0.092622 0.192538 136 99 66 255
0.272083 -0.092622 0.000000 136 99 66 255
-0.192745 -0.092622 0.192538 136 99 66 255
-0.000207 -0.092622 -0.272290 136 99 66 255
0.192331 -0.092622 -0.192538 136 99 66 255
-0.000207 -0.092622 0.272290 136 99 66 255
3 0 1 2
3 3 4 1
3 5 6 4
3 7 8 6
3 9 10 8
3 11 12 10
3 5 13 7
3 14 15 12
3 16 2 15
3 6 10 15
3 17 18 19
3 11 17 14
3 9 13 20
3 16 17 19
3 3 21 5
3 11 20 22
3 23 0 16
3 0 24 3
3 25 26 27
3 20 28 22
3 21 25 13
3 23 29 24
3 19 30 23
3 22 31 17
3 13 27 20
3 24 32 21
3 33 34 35
3 29 36 32
3 31 33 18
3 27 37 28
3 32 38 25
3 30 39 29
3 18 35 30
3 28 40 31
3 41 42 43
3 37 44 40
3 38 45 26
3 39 46 36
3 40 47 33
3 37 45 41
3 36 48 38
3 35 49 39
3 50 51 52
3 46 53 48
3 34 54 49
3 47 55 34
3 44 43 50
3 45 53 42
3 49 56 46
3 47 50 52
3 57 58 59
3 42 60 43
3 56 61 53
3 55 62 54
3 52 58 55
3 43 59 50
3 53 63 42
3 54 57 56
3 64 65 66
3 67 68 65
3 69 70 68
3 71 66 70
3 68 66 65
3 64 72 67
3 73 74 75
3 71 75 64
3 67 76 69
3 69 73 71
3 77 78 79
3 72 80 76
3 76 77 73
3 75 81 72
3 82 79 78
3 81 83 82
3 74 79 83
3 80 82 78
3 84 85 86
3 87 88 85
3 88 89 90
3 90 91 92
3 92 93 94
3 94 95 96
3 89 97 98
3 95 99 96
3 100 86 99
3 90 94 99
3 101 102 103
3 95 104 105
3 91 98 106
3 95 101 100
3 87 97 107
3 93 106 104
3 100 108 84
3 84 109 87
3 110 111 102
3 106 112 104
3 97 110 98
3 109 113 114
3 108 103 113
3 104 102 105
3 98 115 106
3 97 114 111
3 0 3 1
3 3 5 4
3 5 7 6
3 7 9 8
3 9 11 10
3 11 14 12
3 5 21 13
3 14 16 15
3 16 0 2
3 15 2 1
3 1 4 6
3 6 8 10
3 10 12 15
3 15 1 6
3 17 31 18
3 11 22 17
3 9 7 13
3 16 14 17
3 3 24 21
3 11 9 20
3 16 19 23
3 0 23 24
3 25 38 26
3 20 27 28
3 21 32 25
3 23 30 29
3 19 18 30
3 22 28 31
3 13 25 27
3 24 29 32
3 33 47 34
3 29 39 36
3 31 40 33
3 27 26 37
3 32 36 38
3 30 35 39
3 18 33 35
3 28 37 40
3 41 45 42
3 37 41 44
3 38 48 45
3 39 49 46
3 40 44 47
3 37 26 45
3 36 46 48
3 35 34 49
3 50 59 51
3 46 56 53
3 34 55 54
3 47 52 55
3 44 41 43
3 45 48 53
3 49 54 56
3 47 44 50
3 57 62 58
3 58 51 59
3 59 60 63
3 63 61 59
3 61 57 59
3 42 63 60
3 56 57 61
3 55 58 62
3 52 51 58
3 43 60 59
3 53 61 63
3 54 62 57
3 64 67 65
3 67 69 68
3 69 71 70
3 71 64 66
3 68 70 66
3 64 75 72
3 73 77 74
3 71 73 75
3 67 72 76
3 69 76 73
3 77 80 78
3 72 81 80
3 76 80 77
3 75 74 81
3 82 83 79
3 81 74 83
3 74 77 79
3 80 81 82
3 84 87 85
3 87 107 88
3 88 107 89
3 90 89 91
3 92 91 93
3 94 93 95
3 89 107 97
3 95 100 99
3 100 84 86
3 99 86 85
3 85 88 99
3 88 90 99
3 90 92 94
3 94 96 99
3 101 105 102
3 95 93 104
3 91 89 98
3 95 105 101
3 87 109 97
3 93 91 106
3 100 101 108
3 84 108 109
3 111 114 102
3 114 113 102
3 113 103 102
3 102 112 115
3 115 110 102
3 106 115 112
3 97 111 110
3 109 108 113
3 108 101 103
3 104 112 102
3 98 110 115
3 97 109 114
