ply
format ascii 1.0
comment Created by Blender 3.4.0 - www.blender.org
element vertex 44
property float x
property float y
property float z
property uchar red
property uchar green
property uchar blue
property uchar alpha
element face 35
property list uchar uint vertex_indices
end_header
-0.259002 -0.504065 -0.264066 124 96 77 255
-0.259002 -0.504065 -0.418312 124 96 77 255
-0.297539 -0.455704 -0.379775 124 96 77 255
-0.297539 -0.455704 -0.302603 124 96 77 255
-0.413248 -0.504065 -0.418312 124 96 77 255
-0.374711 -0.455704 -0.379775 124 96 77 255
-0.413248 -0.504065 -0.264066 151 118 95 255
-0.374711 -0.455704 -0.302603 124 96 77 255
-0.297539 0.159630 -0.379775 187 145 116 255
-0.297539 0.159630 -0.302603 187 145 116 255
-0.273861 0.191604 -0.278925 187 145 116 255
-0.398389 0.191604 -0.278925 187 145 116 255
-0.374711 0.159630 -0.302603 187 145 116 255
-0.374711 0.159630 -0.379775 187 145 116 255
-0.398389 0.298400 -0.278925 69 87 36 255
-0.398389 0.298400 -0.403453 69 87 36 255
-0.398389 0.191604 -0.403453 187 145 116 255
-0.273861 0.191604 -0.403453 187 145 116 255
-0.273861 0.298400 -0.403453 69 87 36 255
-0.286345 0.298400 -0.390968 69 87 36 255
-0.286345 0.298400 -0.291409 69 87 36 255
-0.273861 0.298400 -0.278925 69 87 36 255
-0.286345 0.198707 -0.291409 31 39 16 255
-0.385904 0.198707 -0.291409 31 39 16 255
-0.385904 0.298400 -0.291409 69 87 36 255
-0.385904 0.298400 -0.390968 69 87 36 255
-0.385904 0.198707 -0.390968 31 39 16 255
-0.286345 0.198707 -0.390968 31 39 16 255
-0.318664 0.198194 -0.327163 178 146 120 255
-0.318664 0.190868 -0.345773 178 146 120 255
-0.318664 0.470017 -0.455663 178 146 120 255
-0.318664 0.477343 -0.437053 178 147 121 255
-0.338664 0.190868 -0.345773 178 146 120 255
-0.338664 0.470017 -0.455663 178 146 120 255
-0.338664 0.198194 -0.327163 178 146 120 255
-0.338664 0.477343 -0.437053 178 146 121 255
-0.354909 0.188155 -0.349019 178 146 120 255
-0.354909 0.184663 -0.368712 178 146 120 255
-0.354909 0.480056 -0.421087 178 146 120 255
-0.354909 0.483548 -0.401394 178 147 121 255
-0.374909 0.184663 -0.368712 178 146 120 255
-0.374909 0.480056 -0.421087 178 146 120 255
-0.374909 0.188155 -0.349019 178 146 120 255
-0.374909 0.483548 -0.401394 178 146 121 255
4 0 1 2 3
4 1 4 5 2
4 4 6 7 5
4 6 0 3 7
4 2 8 9 3
4 9 10 11 12
4 3 9 12 7
4 5 13 8 2
4 7 12 13 5
4 11 14 15 16
4 13 16 17 8
4 12 11 16 13
4 8 17 10 9
4 18 19 20 21
4 17 18 21 10
4 10 21 14 11
4 16 15 18 17
4 20 22 23 24
4 21 20 24 14
4 15 25 19 18
4 14 24 25 15
4 26 23 22 27
4 25 26 27 19
4 24 23 26 25
4 19 27 22 20
4 28 29 30 31
4 29 32 33 30
4 32 34 35 33
4 34 28 31 35
4 33 35 31 30
4 36 37 38 39
4 37 40 41 38
4 40 42 43 41
4 42 36 39 43
4 41 43 39 38
