ply
format ascii 1.0
comment Created by Blender 2.78 (sub 0) - www.blender.org, source file: 'potatostage2.blend'
element vertex 104
property float x
property float y
property float z
property uchar red
property uchar green
property uchar blue
element face 112
property list uchar uint vertex_indices
end_header
0.199334 0.222195 0.263283 223 210 227
0.033329 0.139190 0.264370 223 210 227
0.199334 0.139190 0.263283 223 210 227
0.033329 0.222195 0.264370 223 210 227
0.032241 0.139190 0.098366 223 210 227
0.032241 0.222195 0.098366 223 210 227
0.198246 0.139190 0.097278 223 210 227
0.032241 0.139190 0.098366 223 210 226
0.198246 0.222195 0.097278 223 210 227
0.198246 0.139190 0.097278 222 210 226
0.156237 0.145055 0.222062 95 196 86
0.073235 -0.506219 0.222606 48 128 33
0.156237 -0.506219 0.222062 48 128 33
0.073235 0.145055 0.222606 95 196 86
0.072691 -0.506219 0.139604 48 128 33
0.072691 0.145055 0.139604 95 196 86
0.155694 -0.506219 0.139060 48 128 33
0.371231 -0.274641 0.258115 48 128 33
0.030871 -0.310278 0.261193 48 128 33
0.359623 -0.356278 0.267618 48 128 33
0.042479 -0.228641 0.251690 48 128 33
0.031924 -0.348813 -0.068578 48 128 33
0.372284 -0.313176 -0.071656 48 128 33
0.360676 -0.394813 -0.062154 48 128 33
0.360676 -0.394813 -0.062154 58 143 44
0.043532 -0.267176 -0.078081 48 128 33
0.166960 -0.161460 0.432469 48 129 34
-0.133852 -0.324097 0.418825 48 128 33
0.187313 -0.239996 0.414930 48 128 33
-0.154205 -0.245561 0.436363 48 128 33
-0.155308 -0.257190 0.094328 48 128 33
0.145504 -0.094553 0.107972 48 128 33
0.165857 -0.173089 0.090433 48 128 33
0.145504 -0.094553 0.107972 54 137 40
-0.175661 -0.178654 0.111867 48 128 33
0.368982 -0.081374 0.425669 48 128 33
0.027257 -0.098656 0.418595 48 128 33
0.353182 -0.161458 0.410619 50 132 36
0.046749 0.042043 0.107229 48 128 33
0.030949 -0.038042 0.092179 48 128 33
0.356874 -0.100844 0.084203 48 128 33
0.372674 -0.020760 0.099254 48 128 33
0.353182 -0.161458 0.410619 48 128 33
0.043056 -0.018571 0.433645 48 128 33
0.046749 0.042043 0.107229 49 130 35
-0.233710 0.139191 -0.256375 223 210 227
-0.067802 0.222195 -0.262146 223 210 227
-0.067802 0.139191 -0.262146 223 210 227
-0.062032 0.222195 -0.096238 223 210 227
-0.062032 0.139191 -0.096238 223 210 227
-0.227940 0.139191 -0.090467 223 210 227
-0.062032 0.139191 -0.096238 223 210 226
-0.227940 0.222195 -0.090467 223 210 227
-0.227940 0.139191 -0.090467 222 210 226
-0.233710 0.222195 -0.256375 223 210 227
-0.189468 0.144277 -0.216387 95 196 86
-0.106514 -0.506219 -0.219272 48 128 33
-0.189468 -0.506219 -0.216387 48 128 33
-0.106514 0.144277 -0.219272 95 196 86
-0.103629 -0.506219 -0.136318 48 128 33
-0.106514 -0.506219 -0.219272 50 131 35
-0.186583 0.144277 -0.133433 104 196 94
-0.186583 -0.506219 -0.133433 48 128 33
-0.186583 0.144277 -0.133433 95 196 86
-0.405394 -0.274641 -0.246360 48 128 33
-0.065256 -0.310278 -0.259039 48 128 33
-0.394058 -0.356278 -0.256186 48 128 33
-0.068340 -0.267176 0.080457 48 128 33
-0.057005 -0.348813 0.070631 48 128 33
-0.385807 -0.394813 0.073483 48 128 33
-0.397143 -0.313176 0.083310 48 128 33
-0.385807 -0.394813 0.073483 58 143 44
-0.076591 -0.228641 -0.249212 48 128 33
-0.206122 -0.161460 -0.426407 48 129 34
0.094955 -0.324097 -0.421255 48 128 33
-0.225972 -0.239995 -0.408301 48 128 33
0.145407 -0.178654 -0.115599 48 128 33
0.125557 -0.257189 -0.097493 48 128 33
-0.175521 -0.094553 -0.102645 48 128 33
-0.195371 -0.173089 -0.084539 48 128 33
-0.225972 -0.239995 -0.408301 49 130 34
0.114805 -0.245561 -0.439361 48 128 33
-0.175521 -0.094553 -0.102645 54 137 40
-0.407872 -0.081374 -0.413911 48 128 33
-0.066083 -0.098656 -0.416480 48 128 33
-0.391654 -0.161458 -0.399313 50 132 36
-0.082301 -0.018571 -0.431078 48 128 33
-0.060565 -0.038042 -0.090090 48 128 33
-0.076783 0.042043 -0.104688 48 128 33
-0.386136 -0.100844 -0.072923 48 128 33
-0.402354 -0.020760 -0.087521 48 128 33
-0.391654 -0.161458 -0.399313 48 128 33
-0.076783 0.042043 -0.104688 49 130 35
0.199334 0.222195 0.263283 214 209 217
0.155694 0.145055 0.139060 104 196 94
0.155694 0.145055 0.139060 95 196 86
-0.154205 -0.245561 0.436363 49 129 34
0.166960 -0.161460 0.432469 54 137 40
0.166960 -0.161460 0.432469 56 139 41
-0.233710 0.222195 -0.256375 214 209 217
-0.103629 0.144277 -0.136318 95 196 86
0.114805 -0.245561 -0.439361 49 129 34
-0.206122 -0.161460 -0.426407 54 137 40
-0.206122 -0.161460 -0.426407 56 139 41
3 0 1 2
3 3 4 1
3 5 6 7
3 8 2 9
3 4 2 1
3 3 8 5
3 10 11 12
3 13 14 11
3 15 16 14
3 16 10 12
3 17 18 19
3 20 21 18
3 21 22 23
3 22 19 24
3 21 19 18
3 20 22 25
3 26 27 28
3 29 30 27
3 30 31 32
3 31 28 32
3 27 32 28
3 29 33 34
3 35 36 37
3 36 38 39
3 38 40 39
3 41 42 40
3 39 37 36
3 43 41 44
3 45 46 47
3 47 48 49
3 48 50 51
3 52 45 53
3 49 45 47
3 48 54 52
3 55 56 57
3 58 59 60
3 59 61 62
3 63 57 62
3 64 65 66
3 65 67 68
3 67 69 68
3 70 66 71
3 68 66 65
3 72 70 67
3 73 74 75
3 74 76 77
3 77 78 79
3 78 80 79
3 74 79 75
3 81 82 76
3 83 84 85
3 86 87 84
3 88 89 87
3 90 91 89
3 87 85 84
3 86 90 92
3 0 3 1
3 3 5 4
3 5 8 6
3 8 93 2
3 4 9 2
3 3 0 8
3 10 13 11
3 13 15 14
3 15 94 16
3 16 95 10
3 17 20 18
3 20 25 21
3 21 25 22
3 22 17 19
3 21 23 19
3 20 17 22
3 26 96 27
3 29 34 30
3 30 34 31
3 31 97 28
3 27 30 32
3 29 98 33
3 35 43 36
3 36 43 38
3 38 41 40
3 41 35 42
3 39 40 37
3 43 35 41
3 45 54 46
3 47 46 48
3 48 52 50
3 52 99 45
3 49 53 45
3 48 46 54
3 55 58 56
3 58 100 59
3 59 100 61
3 63 55 57
3 64 72 65
3 65 72 67
3 67 70 69
3 70 64 66
3 68 69 66
3 72 64 70
3 73 101 74
3 74 81 76
3 77 76 78
3 78 102 80
3 74 77 79
3 81 103 82
3 83 86 84
3 86 88 87
3 88 90 89
3 90 83 91
3 87 89 85
3 86 83 90
