ply
format ascii 1.0
comment Created by Blender 2.78 (sub 0) - www.blender.org, source file: 'potatostage1.blend'
element vertex 96
property float x
property float y
property float z
property uchar red
property uchar green
property uchar blue
element face 112
property list uchar uint vertex_indices
end_header
-0.190208 -0.143816 -0.215797 126 179 73
-0.108381 -0.184754 -0.218643 126 179 73
-0.190208 -0.184754 -0.215797 126 179 73
-0.108381 -0.143816 -0.218643 126 179 73
-0.105534 -0.184754 -0.136816 126 179 73
-0.105534 -0.143816 -0.136816 126 179 73
-0.187362 -0.184754 -0.133970 126 179 73
-0.105534 -0.184754 -0.136816 120 180 73
-0.187362 -0.143816 -0.133970 126 179 73
-0.190208 -0.184754 -0.215797 125 179 73
-0.108381 -0.143816 -0.218643 121 180 73
-0.168387 -0.182932 -0.196074 126 179 73
-0.127474 -0.503075 -0.197497 76 191 75
-0.168387 -0.503075 -0.196074 76 191 75
-0.127474 -0.182932 -0.197497 126 179 73
-0.126050 -0.503075 -0.156584 76 191 75
-0.126050 -0.182932 -0.156584 126 179 73
-0.166964 -0.503075 -0.155161 76 191 75
-0.166964 -0.182932 -0.155161 126 179 73
-0.274883 -0.388859 -0.210857 76 191 75
-0.107124 -0.406436 -0.217111 76 191 75
-0.269292 -0.429123 -0.215704 76 191 75
-0.108646 -0.385177 -0.049669 76 191 75
-0.103055 -0.425441 -0.054515 76 191 75
-0.270814 -0.407865 -0.048262 76 191 75
-0.265223 -0.448129 -0.053108 76 191 75
-0.186391 -0.371772 -0.290728 76 191 75
-0.018317 -0.374517 -0.306047 76 191 75
-0.028107 -0.413251 -0.297117 76 191 75
-0.013014 -0.380252 -0.137435 76 191 75
-0.003224 -0.341517 -0.146365 88 188 75
-0.171298 -0.338773 -0.131046 76 191 75
-0.176601 -0.333037 -0.299658 76 191 75
-0.003224 -0.341517 -0.146365 76 191 75
-0.161508 -0.300038 -0.139976 76 191 75
-0.276106 -0.293538 -0.293495 76 191 75
-0.107533 -0.302062 -0.294762 76 191 75
-0.268107 -0.333036 -0.286295 76 191 75
-0.115532 -0.262563 -0.301962 76 191 75
-0.104811 -0.272167 -0.133784 76 191 75
-0.273384 -0.263643 -0.132517 76 191 75
-0.265385 -0.303141 -0.125317 76 191 75
-0.112810 -0.232668 -0.140984 80 190 75
0.155860 -0.155851 0.220374 126 179 73
0.076237 -0.195663 0.220896 126 179 73
0.155860 -0.195663 0.220374 122 180 74
0.076237 -0.155851 0.220896 126 179 73
0.075716 -0.195663 0.141274 126 179 73
0.075716 -0.155851 0.141274 126 179 73
0.155338 -0.195663 0.140752 126 179 73
0.155338 -0.155851 0.140752 126 179 73
0.155860 -0.195663 0.220374 126 179 73
0.135189 -0.192836 0.200603 126 179 73
0.095378 -0.505226 0.200864 76 191 75
0.135189 -0.505226 0.200603 76 191 75
0.095378 -0.192836 0.200864 126 179 73
0.095117 -0.505226 0.161053 76 191 75
0.095117 -0.192836 0.161053 126 179 73
0.134928 -0.505226 0.160792 76 191 75
0.134928 -0.192836 0.160792 126 179 73
0.238308 -0.394152 0.217896 75 189 74
0.075058 -0.411245 0.219372 77 191 75
0.232740 -0.433308 0.222454 76 191 75
0.075058 -0.411245 0.219372 76 191 75
0.081131 -0.390571 0.056643 76 191 75
0.075563 -0.429728 0.061201 76 191 75
0.238813 -0.412635 0.059725 76 191 75
0.233245 -0.451791 0.064283 76 191 75
0.232740 -0.433308 0.222454 95 186 73
0.075563 -0.429728 0.061201 80 189 75
0.238308 -0.394152 0.217896 76 191 75
0.150094 -0.377535 0.293110 76 191 75
-0.013711 -0.380204 0.303390 76 191 75
-0.003949 -0.417873 0.294978 76 191 75
-0.014240 -0.385781 0.139337 76 191 75
-0.024002 -0.348113 0.147750 76 191 75
0.139803 -0.345443 0.137469 76 191 75
0.139803 -0.345443 0.137469 89 188 75
0.140332 -0.339866 0.301522 76 191 75
0.130041 -0.307775 0.145881 76 191 75
0.237229 -0.301454 0.298261 76 191 75
0.073325 -0.309743 0.294868 76 191 75
0.229651 -0.339865 0.291043 76 191 75
0.080903 -0.271331 0.302087 80 191 75
0.075096 -0.280670 0.138306 76 191 75
0.239000 -0.272381 0.141700 76 191 75
0.231422 -0.310792 0.134481 76 191 75
0.080903 -0.271331 0.302087 76 191 75
0.082674 -0.242258 0.145525 76 191 75
-0.190208 -0.143816 -0.215797 125 179 73
-0.112715 -0.366172 -0.212264 76 191 75
-0.112810 -0.232668 -0.140984 76 191 75
0.080626 -0.372089 0.214814 76 191 75
0.075563 -0.429728 0.061201 74 186 72
0.233245 -0.451791 0.064283 75 190 74
0.082674 -0.242258 0.145525 85 189 75
3 0 1 2
3 3 4 1
3 5 6 7
3 8 9 6
3 7 9 1
3 10 8 5
3 11 12 13
3 14 15 12
3 16 17 15
3 18 13 17
3 19 20 21
3 20 22 23
3 23 24 25
3 24 21 25
3 23 21 20
3 22 19 24
3 26 27 28
3 27 29 28
3 30 31 29
3 31 32 26
3 29 26 28
3 33 32 34
3 35 36 37
3 38 39 36
3 39 40 41
3 41 35 37
3 36 41 37
3 38 40 42
3 43 44 45
3 46 47 44
3 48 49 47
3 50 51 49
3 44 49 51
3 46 50 48
3 52 53 54
3 55 56 53
3 57 58 56
3 59 54 58
3 60 61 62
3 63 64 65
3 65 66 67
3 66 68 67
3 69 62 61
3 64 70 66
3 71 72 73
3 72 74 73
3 75 76 74
3 77 78 71
3 74 71 73
3 75 78 79
3 80 81 82
3 83 84 81
3 84 85 86
3 86 80 82
3 81 86 82
3 87 85 88
3 0 3 1
3 3 5 4
3 5 8 6
3 8 0 9
3 7 6 9
3 10 89 8
3 11 14 12
3 14 16 15
3 16 18 17
3 18 11 13
3 19 90 20
3 20 90 22
3 23 22 24
3 24 19 21
3 23 25 21
3 22 90 19
3 26 32 27
3 27 30 29
3 30 34 31
3 31 34 32
3 29 31 26
3 33 27 32
3 35 38 36
3 38 91 39
3 39 91 40
3 41 40 35
3 36 39 41
3 38 35 40
3 43 46 44
3 46 48 47
3 48 50 49
3 50 43 51
3 44 47 49
3 46 43 50
3 52 55 53
3 55 57 56
3 57 59 58
3 59 52 54
3 60 92 61
3 63 92 64
3 65 64 66
3 66 70 68
3 93 94 62
3 64 92 70
3 71 78 72
3 72 75 74
3 75 79 76
3 77 79 78
3 74 77 71
3 75 72 78
3 80 87 81
3 83 95 84
3 84 95 85
3 86 85 80
3 81 84 86
3 87 80 85
