ply
format ascii 1.0
comment Created by Blender 2.82 (sub 7) - www.blender.org, source file: '1PottersWheel.blend'
element vertex 95
property float x
property float y
property float z
property uchar red
property uchar green
property uchar blue
property uchar alpha
element face 156
property list uchar uint vertex_indices
end_header
0.500000 0.353120 -0.500000 184 144 112 255
0.500000 -0.500987 0.500000 138 108 83 255
0.500000 -0.500987 -0.500000 138 108 83 255
0.500000 0.353120 0.500000 185 148 119 255
-0.500000 -0.500987 0.500000 138 108 83 255
-0.500000 0.353120 0.500000 184 144 112 255
-0.500000 -0.500987 -0.500000 138 108 83 255
0.201002 -0.109648 -0.500000 141 111 85 255
-0.397568 0.353120 0.402754 88 70 55 255
-0.081654 0.040839 -0.500000 138 108 83 255
-0.202189 -0.109648 -0.419546 73 56 43 255
-0.202189 -0.109648 -0.500000 138 108 83 255
0.201002 -0.432200 -0.500000 138 108 83 255
-0.500000 0.353120 -0.500000 184 144 112 255
-0.202189 -0.432200 -0.500000 138 108 83 255
-0.081654 0.040839 -0.419546 65 51 39 255
-0.263863 -0.005573 0.001996 54 42 33 255
0.072009 0.040839 -0.500000 138 108 83 255
0.072009 0.040839 -0.419546 64 48 38 255
-0.202189 -0.432200 -0.419546 83 64 51 255
0.201002 -0.432200 -0.419546 92 72 55 255
0.201002 -0.109648 -0.419546 57 44 34 255
0.263544 -0.420622 0.012474 53 41 32 255
0.263544 0.001304 0.012474 53 41 32 255
-0.263863 -0.424392 0.021392 54 42 33 255
0.397834 0.353120 0.402754 88 70 55 255
-0.397568 0.394561 0.402754 88 70 55 255
-0.397568 0.353120 -0.392648 88 70 55 255
0.397834 0.353120 -0.392648 88 70 55 255
-0.500000 0.353120 -0.500000 183 145 115 255
0.397834 0.353120 -0.392648 92 73 57 255
0.491513 0.394561 0.491562 150 148 160 255
-0.491491 0.394561 0.491562 150 148 160 255
-0.397568 0.394561 -0.392648 88 70 55 255
0.397834 0.394561 0.402754 88 70 55 255
0.397834 0.394561 -0.392648 88 70 55 255
0.491513 0.394561 -0.491443 150 148 160 255
0.491513 0.448685 0.491562 152 148 158 255
-0.491491 0.394561 -0.491443 150 148 160 255
-0.491491 0.448685 -0.491443 150 148 160 255
-0.491491 0.448685 0.491562 150 148 160 255
0.491513 0.448685 -0.491443 150 148 160 255
-0.066668 0.488767 0.289840 189 144 122 255
-0.252089 0.443510 0.157807 189 145 123 255
-0.066668 0.443510 0.289840 189 144 122 255
-0.252089 0.488767 0.157807 189 144 122 255
-0.289840 0.443510 -0.066668 189 144 122 255
-0.289840 0.488767 -0.066668 189 144 122 255
-0.157807 0.443510 -0.252089 189 144 122 255
-0.157807 0.488767 -0.252089 189 144 122 255
0.066668 0.443510 -0.289840 189 144 122 255
0.066668 0.488767 -0.289840 189 144 122 255
0.252089 0.443510 -0.157807 189 144 122 255
0.252089 0.488767 -0.157807 189 144 122 255
0.289840 0.443510 0.066668 193 154 134 255
0.289840 0.488767 0.066668 189 144 122 255
0.157807 0.443510 0.252089 202 169 154 255
0.157807 0.488767 0.252089 189 144 122 255
0.000000 0.368133 -0.000000 187 118 94 255
0.126980 0.551161 0.080416 187 118 94 255
-0.006152 0.551161 0.150176 187 118 94 255
-0.133132 0.551161 0.069760 187 118 94 255
0.000000 0.368133 -0.000000 188 119 95 255
-0.126980 0.551161 -0.080416 193 133 114 255
0.000000 0.368133 -0.000000 187 119 95 255
0.006152 0.551161 -0.150176 189 123 102 255
0.133132 0.651550 -0.069760 187 118 94 255
0.133132 0.551161 -0.069760 187 118 94 255
0.000000 0.368133 -0.000000 188 120 96 255
0.049195 0.736039 0.031155 187 118 94 255
0.126980 0.651550 0.080416 187 118 94 255
-0.006152 0.651550 0.150176 187 118 94 255
-0.126980 0.651550 -0.080416 188 121 98 255
0.006152 0.651550 -0.150176 187 118 94 255
-0.133132 0.651550 0.069760 187 118 94 255
0.002384 0.736039 -0.058181 187 118 94 255
0.107073 0.878110 -0.056105 187 118 94 255
0.051578 0.736039 -0.027026 187 118 94 255
-0.049195 0.736039 -0.031155 188 120 96 255
-0.051578 0.736039 0.027026 187 118 94 255
-0.002384 0.736039 0.058181 187 118 94 255
0.087560 0.878110 0.055452 134 85 67 255
0.102125 0.878110 0.064675 187 118 94 255
-0.102125 0.878110 -0.064675 187 118 94 255
-0.004948 0.878110 0.120780 187 118 94 255
0.004948 0.878110 -0.120780 187 118 94 255
-0.107073 0.878110 0.056105 187 118 94 255
0.091803 0.878110 -0.048104 135 85 67 255
0.004242 0.878110 -0.103555 134 85 67 255
0.000000 0.637768 0.000000 87 55 44 255
-0.087560 0.878110 -0.055452 134 85 67 255
-0.004242 0.878110 0.103555 134 85 67 255
-0.091803 0.878110 0.048104 134 85 67 255
-0.263863 -0.424392 0.021392 53 41 32 255
-0.263863 -0.005573 0.001996 53 41 32 255
3 0 1 2
3 3 4 1
3 5 6 4
3 2 7 0
3 3 8 5
3 9 10 11
3 6 12 2
3 13 9 11
3 6 11 14
3 15 16 10
3 13 17 9
3 17 0 7
3 7 18 17
3 17 15 9
3 11 19 14
3 14 20 12
3 7 20 21
3 19 22 20
3 21 22 23
3 18 16 15
3 10 24 19
3 25 26 8
3 0 27 28
3 5 27 29
3 3 30 25
3 26 31 32
3 8 33 27
3 30 34 25
3 27 35 28
3 36 37 31
3 33 32 38
3 35 31 34
3 33 36 35
3 37 39 40
3 38 41 36
3 31 40 32
3 32 39 38
3 42 43 44
3 45 46 43
3 47 48 46
3 49 50 48
3 51 52 50
3 53 54 52
3 55 51 47
3 55 56 54
3 57 44 56
3 58 59 60
3 58 60 61
3 62 61 63
3 64 63 65
3 65 66 67
3 68 65 67
3 58 67 59
3 66 69 70
3 59 71 60
3 61 72 63
3 67 70 59
3 63 73 65
3 60 74 61
3 75 76 77
3 73 78 75
3 71 79 74
3 73 77 66
3 74 78 72
3 71 69 80
3 76 81 82
3 79 83 78
3 69 84 80
3 77 82 69
3 78 85 75
3 80 86 79
3 87 88 89
3 85 90 88
3 86 91 92
3 85 87 76
3 86 90 83
3 84 81 91
3 90 92 89
3 91 81 89
3 81 87 89
3 88 90 89
3 92 91 89
3 18 21 23
3 93 23 22
3 94 23 93
3 0 3 1
3 3 5 4
3 5 29 6
3 2 12 7
3 3 25 8
3 9 15 10
3 6 14 12
3 6 29 11
3 13 0 17
3 7 21 18
3 17 18 15
3 11 10 19
3 14 19 20
3 7 12 20
3 19 24 22
3 21 20 22
3 18 23 16
3 10 16 24
3 25 34 26
3 0 13 27
3 5 8 27
3 3 0 30
3 26 34 31
3 8 26 33
3 30 35 34
3 27 33 35
3 36 41 37
3 33 26 32
3 35 36 31
3 33 38 36
3 37 41 39
3 38 39 41
3 31 37 40
3 32 40 39
3 42 45 43
3 45 47 46
3 47 49 48
3 49 51 50
3 51 53 52
3 53 55 54
3 47 45 55
3 45 42 55
3 42 57 55
3 55 53 51
3 51 49 47
3 55 57 56
3 57 42 44
3 65 73 66
3 66 77 69
3 59 70 71
3 61 74 72
3 67 66 70
3 63 72 73
3 60 71 74
3 75 85 76
3 73 72 78
3 71 80 79
3 73 75 77
3 74 79 78
3 71 70 69
3 76 87 81
3 79 86 83
3 69 82 84
3 77 76 82
3 78 83 85
3 80 84 86
3 85 83 90
3 86 84 91
3 85 88 87
3 86 92 90
3 84 82 81
