ply
format ascii 1.0
comment Created by Blender 2.78 (sub 0) - www.blender.org, source file: 'pressfinished.blend'
element vertex 137
property float x
property float y
property float z
property uchar red
property uchar green
property uchar blue
element face 142
property list uchar uint vertex_indices
end_header
0.350000 -0.139997 -0.480000 115 63 33
0.350000 -0.239997 0.490000 115 63 33
0.350000 -0.239997 -0.480000 115 63 33
0.350000 -0.139997 0.490000 115 63 33
-0.350000 -0.239997 0.490000 115 63 33
-0.350000 -0.139997 0.490000 115 63 33
-0.350000 -0.239997 -0.480000 115 63 33
-0.350000 -0.139997 -0.480000 115 63 33
0.500000 0.515003 0.000000 115 63 33
0.500000 0.465003 0.300000 115 63 33
0.500000 0.465003 0.000000 115 63 33
0.500000 0.515003 0.300000 115 63 33
-0.500000 0.465003 0.300000 115 63 33
-0.500000 0.515003 0.300000 117 65 36
-0.500000 0.465003 0.000000 115 63 33
-0.500000 0.465003 0.300000 116 64 34
-0.500000 0.515003 0.000000 115 63 33
-0.500000 0.515003 0.300000 115 63 33
0.400000 0.469215 0.100000 115 63 33
0.400000 -0.499997 0.200000 128 71 40
0.400000 -0.499997 0.100000 128 71 40
0.400000 0.469215 0.200000 115 63 33
0.300000 -0.499997 0.200000 115 63 33
0.400000 -0.499997 0.200000 115 63 33
0.300000 0.469215 0.200000 115 63 33
0.300000 -0.499997 0.100000 115 63 33
0.300000 0.469215 0.100000 115 63 33
0.400000 -0.499997 0.100000 115 63 33
-0.300000 0.471492 0.100000 115 63 33
-0.300000 -0.499997 0.200000 128 71 40
-0.300000 -0.499997 0.100000 128 71 40
-0.300000 0.471492 0.200000 115 63 33
-0.400000 -0.499997 0.200000 115 63 33
-0.300000 -0.499997 0.200000 115 63 33
-0.400000 0.471492 0.200000 115 63 33
-0.400000 -0.499997 0.100000 115 63 33
-0.400000 0.471492 0.100000 115 63 33
-0.400000 -0.499997 0.100000 128 71 40
-0.300000 -0.119620 -0.500000 115 63 33
-0.300000 -0.499997 -0.400000 128 71 40
-0.300000 -0.499997 -0.500000 128 71 40
-0.300000 -0.119620 -0.400000 115 63 33
-0.400000 -0.499997 -0.400000 128 71 40
-0.400000 -0.119620 -0.400000 115 63 33
-0.400000 -0.499997 -0.500000 115 63 33
-0.400000 -0.499997 -0.400000 115 63 33
-0.400000 -0.119620 -0.500000 115 63 33
-0.300000 -0.499997 -0.500000 115 63 33
-0.300000 -0.119620 0.400000 115 63 33
-0.300000 -0.499997 0.500000 128 71 40
-0.300000 -0.499997 0.400000 122 67 36
-0.300000 -0.119620 0.500000 115 63 33
-0.400000 -0.499997 0.500000 115 63 33
-0.300000 -0.499997 0.500000 115 63 33
-0.400000 -0.119620 0.500000 115 63 33
-0.400000 -0.499997 0.400000 115 63 33
-0.400000 -0.119620 0.400000 115 63 33
-0.400000 -0.499997 0.400000 124 68 37
0.400000 -0.119620 0.400000 115 63 33
0.400000 -0.499997 0.500000 128 71 40
0.400000 -0.499997 0.400000 127 71 40
0.400000 -0.119620 0.500000 115 63 33
0.300000 -0.499997 0.500000 115 63 33
0.400000 -0.499997 0.500000 115 63 33
0.300000 -0.119620 0.500000 115 63 33
0.300000 -0.499997 0.400000 115 63 33
0.300000 -0.119620 0.400000 115 63 33
0.300000 -0.499997 0.400000 128 71 40
0.400000 -0.119620 -0.500000 115 63 33
0.400000 -0.499997 -0.400000 128 71 40
0.400000 -0.499997 -0.500000 128 71 40
0.400000 -0.119620 -0.400000 115 63 33
0.300000 -0.499997 -0.400000 128 71 40
0.300000 -0.119620 -0.400000 115 63 33
0.300000 -0.499997 -0.500000 115 63 33
0.300000 -0.499997 -0.400000 115 63 33
0.300000 -0.119620 -0.500000 115 63 33
0.400000 -0.499997 -0.500000 115 63 33
0.280000 0.055003 -0.050000 128 71 40
0.280000 0.005003 0.350000 128 71 40
0.280000 0.005003 -0.050000 127 70 39
0.280000 0.055003 0.350000 128 71 40
-0.280000 0.005003 0.350000 128 71 40
0.280000 0.005003 0.350000 115 63 33
-0.280000 0.055003 0.350000 128 71 40
-0.280000 0.005003 -0.050000 115 63 33
-0.280000 0.055003 -0.050000 128 71 40
-0.280000 0.005003 -0.050000 128 71 40
-0.280000 0.005003 0.350000 115 63 33
0.280000 0.005003 -0.050000 115 63 33
-0.280000 0.055003 -0.050000 118 64 34
0.300000 0.295105 0.200000 115 63 33
-0.300000 0.175105 0.200000 115 63 33
0.300000 0.175105 0.200000 115 63 33
-0.300000 0.295105 0.100000 115 63 33
0.300000 0.175105 0.100000 115 63 33
-0.300000 0.175105 0.100000 115 63 33
-0.300000 0.295105 0.200000 115 63 33
0.035000 0.102674 -0.310669 115 63 33
0.035000 0.172674 -0.160669 115 63 33
0.035000 0.102674 -0.160669 115 63 33
0.035000 0.172674 -0.310669 115 63 33
-0.035000 0.172674 -0.160669 115 63 33
-0.035000 0.172674 -0.310669 115 63 33
-0.035000 0.102674 -0.160669 115 63 33
-0.035000 0.102674 -0.310669 115 63 33
0.030000 0.349207 0.120000 145 141 139
0.030000 0.049207 0.180000 145 141 139
0.030000 0.049207 0.120000 145 141 139
0.030000 0.349207 0.180000 145 141 139
-0.030000 0.049207 0.180000 145 141 139
-0.030000 0.349207 0.180000 145 141 139
-0.030000 0.049207 0.120000 145 141 139
-0.030000 0.349207 0.120000 145 141 139
0.030000 0.107674 -0.166936 145 141 139
0.030000 0.167674 0.120000 145 141 139
0.030000 0.107674 0.120000 145 141 139
0.030000 0.167674 -0.166936 146 142 140
-0.030000 0.167674 0.120000 145 141 139
-0.030000 0.167674 -0.166936 145 141 139
-0.030000 0.107674 0.120000 145 141 139
-0.030000 0.107674 -0.166936 145 141 139
-0.030000 0.167674 0.120000 255 255 255
0.030000 0.107674 0.120000 255 255 255
0.030000 0.167674 0.120000 255 255 255
0.200000 -0.131535 0.000000 194 185 162
0.200000 -0.141535 0.300000 194 185 162
0.200000 -0.141535 0.000000 194 185 162
0.200000 -0.131535 0.300000 194 185 162
-0.200000 -0.141535 0.300000 194 185 162
-0.200000 -0.131535 0.300000 194 185 162
-0.200000 -0.141535 0.000000 194 185 162
-0.200000 -0.131535 0.000000 194 185 162
-0.280000 0.055003 -0.050000 115 63 33
0.300000 0.295105 0.100000 115 63 33
0.030000 0.167674 -0.166936 145 141 139
-0.030000 0.107674 0.120000 255 255 255
3 0 1 2
3 3 4 1
3 5 6 4
3 7 2 6
3 4 2 1
3 3 7 5
3 8 9 10
3 11 12 9
3 13 14 15
3 16 10 14
3 12 10 9
3 11 16 17
3 18 19 20
3 21 22 23
3 24 25 22
3 26 27 25
3 28 29 30
3 31 32 33
3 34 35 32
3 36 30 37
3 38 39 40
3 41 42 39
3 43 44 45
3 46 47 44
3 41 46 43
3 48 49 50
3 51 52 53
3 54 55 52
3 56 50 57
3 51 56 54
3 58 59 60
3 61 62 63
3 64 65 62
3 66 60 67
3 61 66 64
3 68 69 70
3 71 72 69
3 73 74 75
3 76 77 74
3 71 76 73
3 78 79 80
3 81 82 83
3 84 85 82
3 86 80 87
3 88 89 83
3 81 90 84
3 91 92 93
3 94 95 96
3 92 95 93
3 91 94 97
3 98 99 100
3 101 102 99
3 103 104 102
3 105 100 104
3 102 100 99
3 101 105 103
3 106 107 108
3 109 110 107
3 111 112 110
3 113 108 112
3 109 113 111
3 114 115 116
3 117 118 115
3 119 120 118
3 121 116 120
3 122 123 124
3 125 126 127
3 128 129 126
3 130 131 129
3 132 127 131
3 128 132 130
3 0 3 1
3 3 5 4
3 5 7 6
3 7 0 2
3 4 6 2
3 3 0 7
3 8 11 9
3 11 17 12
3 13 16 14
3 16 8 10
3 12 14 10
3 11 8 16
3 18 21 19
3 21 24 22
3 24 26 25
3 26 18 27
3 28 31 29
3 31 34 32
3 34 36 35
3 36 28 30
3 38 41 39
3 41 43 42
3 43 46 44
3 46 38 47
3 41 38 46
3 48 51 49
3 51 54 52
3 54 56 55
3 56 48 50
3 51 48 56
3 58 61 59
3 61 64 62
3 64 66 65
3 66 58 60
3 61 58 66
3 68 71 69
3 71 73 72
3 73 76 74
3 76 68 77
3 71 68 76
3 78 81 79
3 81 84 82
3 84 133 85
3 86 78 80
3 88 85 89
3 81 78 90
3 91 97 92
3 94 134 95
3 92 96 95
3 91 134 94
3 98 101 99
3 101 103 102
3 103 105 104
3 105 98 100
3 102 104 100
3 101 98 105
3 106 109 107
3 109 111 110
3 111 113 112
3 113 106 108
3 109 106 113
3 114 135 115
3 117 119 118
3 119 121 120
3 121 114 116
3 122 136 123
3 125 128 126
3 128 130 129
3 130 132 131
3 132 125 127
3 128 125 132
