ply
format ascii 1.0
comment Created by Blender 3.3.1 - www.blender.org
element vertex 104
property float x
property float y
property float z
property uchar red
property uchar green
property uchar blue
property uchar alpha
element face 67
property list uchar uint vertex_indices
end_header
0.284809 1.031004 -0.480876 116 48 34 255
0.284809 1.123013 -0.480876 120 52 38 255
0.284809 1.123013 0.479124 121 53 39 255
0.284809 1.031004 0.479124 116 48 34 255
0.084809 1.123013 0.479124 121 53 39 255
0.084809 1.031004 0.479124 121 53 39 255
0.084809 1.123013 -0.480876 116 48 34 255
0.084809 1.031004 -0.480876 120 52 38 255
0.307298 1.123013 0.499381 121 53 39 255
0.062789 1.123013 0.499381 121 53 39 255
0.307298 1.211382 0.499381 121 53 39 255
0.062789 1.211382 0.499381 116 48 34 255
0.062789 1.123013 -0.501132 116 48 34 255
0.307298 1.123013 -0.501132 121 53 39 255
0.307298 1.211382 -0.501132 121 53 39 255
0.062789 1.211382 -0.501132 121 53 39 255
0.309371 0.033375 -0.081581 221 202 184 255
0.309371 0.099371 -0.081581 221 202 184 255
0.309371 0.099371 0.081581 221 202 184 255
0.309371 0.033375 0.081581 221 202 184 255
0.052670 0.099371 0.081581 221 202 184 255
0.052670 0.033375 0.081581 221 202 184 255
0.052670 0.099371 -0.081581 221 202 184 255
0.052670 0.033375 -0.081581 221 202 184 255
0.458941 -0.500644 -0.275365 153 91 57 255
0.458941 0.050086 -0.275365 153 91 57 255
0.458941 0.050086 0.275365 153 91 57 255
0.458941 -0.500644 0.275365 151 89 56 255
-0.458941 0.050086 0.275365 153 91 57 255
-0.458941 -0.500644 0.275365 153 91 57 255
-0.458941 0.050086 -0.275365 153 91 57 255
-0.458941 -0.500644 -0.275365 141 77 51 255
0.273350 -0.501402 0.279193 133 66 45 255
0.273350 1.150787 0.279193 133 66 45 255
0.273350 1.150787 0.458300 133 66 45 255
0.273350 -0.501402 0.458300 133 66 45 255
0.094244 1.150787 0.458300 133 66 45 255
0.094244 -0.501402 0.458300 133 66 45 255
0.094244 1.150787 0.279193 133 66 45 255
0.094244 -0.501402 0.279193 133 66 45 255
0.273350 -0.504968 -0.458166 133 66 45 255
0.273350 1.147221 -0.458166 133 66 45 255
0.273350 1.147221 -0.279059 133 66 45 255
0.273350 -0.504968 -0.279059 133 66 45 255
0.094244 1.147221 -0.279059 133 66 45 255
0.094244 -0.504968 -0.279059 133 66 45 255
0.094244 1.147221 -0.458166 133 66 45 255
0.094244 -0.504968 -0.458166 133 66 45 255
0.258466 0.714581 -0.300000 121 53 39 255
0.258466 0.864608 -0.300000 121 53 39 255
0.258466 0.864608 0.300000 121 53 39 255
0.258466 0.714581 0.300000 121 53 39 255
0.108438 0.714581 0.300000 124 62 50 255
0.108438 0.864608 0.300000 121 53 39 255
0.108438 0.864608 -0.300000 121 53 39 255
0.108438 0.714581 -0.300000 121 53 39 255
0.258466 0.402141 -0.300000 143 64 47 255
0.258466 0.462141 -0.300000 143 63 46 255
0.258466 0.462141 0.300000 143 63 46 255
0.258466 0.402141 0.300000 143 63 46 255
0.108438 0.402141 0.300000 143 63 46 255
0.108438 0.462141 0.300000 143 63 46 255
0.108438 0.462141 -0.300000 143 63 46 255
0.108438 0.402141 -0.300000 143 63 46 255
0.178644 0.259605 -0.032839 169 164 173 255
0.178644 0.759605 -0.032839 169 164 173 255
0.217471 0.759605 -0.005989 170 165 174 255
0.217471 0.259605 -0.005989 169 164 173 255
0.190621 0.759605 0.032839 169 164 173 255
0.190621 0.259605 0.032839 169 164 173 255
0.151794 0.759605 0.005989 169 164 173 255
0.151794 0.259605 0.005989 169 164 173 255
0.181539 0.565416 0.050301 195 163 129 255
0.181539 0.617545 0.050301 195 163 129 255
-0.120750 0.617545 0.487443 195 163 129 255
-0.120750 0.565416 0.487443 195 163 129 255
-0.163627 0.617545 0.457793 198 168 137 255
-0.163627 0.565416 0.457793 199 170 140 255
0.138662 0.617545 0.020651 195 163 129 255
0.138662 0.565416 0.020651 195 163 129 255
0.171211 0.516480 -0.073594 195 163 129 255
0.171211 0.666480 -0.073594 195 163 129 255
0.258227 0.666480 -0.013422 198 167 136 255
0.258227 0.516480 -0.013422 195 163 130 255
0.198054 0.666480 0.073594 195 164 130 255
0.198054 0.516480 0.073594 198 168 136 255
0.111038 0.666480 0.013422 195 163 130 255
0.111038 0.516480 0.013422 195 163 129 255
0.328288 0.197461 -0.144662 149 79 67 255
0.328288 0.267461 -0.144662 143 63 46 255
0.328288 0.267461 0.144662 143 63 46 255
0.328288 0.197461 0.144662 145 68 52 255
0.038963 0.267461 0.144662 143 63 46 255
0.038963 0.197461 0.144662 143 63 46 255
0.038963 0.267461 -0.144662 143 63 46 255
0.038963 0.197461 -0.144662 143 63 46 255
0.344852 -0.050409 -0.159783 150 111 77 255
0.344852 0.078849 -0.159783 150 111 77 255
0.344852 0.078849 0.159783 150 111 77 255
0.344852 -0.050409 0.159783 150 111 77 255
-0.251953 0.078849 0.159783 150 111 77 255
-0.251953 -0.050409 0.159783 150 111 77 255
-0.251953 0.078849 -0.159783 150 111 77 255
-0.251953 -0.050409 -0.159783 150 111 77 255
4 0 1 2 3
4 3 2 4 5
4 5 4 6 7
4 7 6 1 0
4 3 5 7 0
4 4 2 8 9
4 9 8 10 11
4 6 4 9 12
4 2 1 13 8
4 1 6 12 13
4 11 10 14 15
4 12 9 11 15
4 8 13 14 10
4 13 12 15 14
4 16 17 18 19
4 19 18 20 21
4 21 20 22 23
4 23 22 17 16
4 20 18 17 22
4 24 25 26 27
4 27 26 28 29
4 29 28 30 31
4 31 30 25 24
4 27 29 31 24
4 28 26 25 30
4 32 33 34 35
4 35 34 36 37
4 37 36 38 39
4 39 38 33 32
4 40 41 42 43
4 43 42 44 45
4 45 44 46 47
4 47 46 41 40
4 48 49 50 51
4 52 53 54 55
4 51 52 55 48
4 53 50 49 54
4 56 57 58 59
4 60 61 62 63
4 59 60 63 56
4 61 58 57 62
4 64 65 66 67
4 67 66 68 69
4 69 68 70 71
4 71 70 65 64
4 72 73 74 75
4 75 74 76 77
4 77 76 78 79
4 72 75 77 79
4 74 73 78 76
4 80 81 82 83
4 83 82 84 85
4 85 84 86 87
4 87 86 81 80
4 83 85 87 80
4 84 82 81 86
4 88 89 90 91
4 91 90 92 93
4 93 92 94 95
4 95 94 89 88
4 91 93 95 88
4 92 90 89 94
4 96 97 98 99
4 99 98 100 101
4 101 100 102 103
4 103 102 97 96
4 100 98 97 102
