ply
format ascii 1.0
comment Created in Blender version 4.1.1
element vertex 22
property float x
property float y
property float z
property uchar red
property uchar green
property uchar blue
property uchar alpha
property float s
property float t
element face 12
property list uchar uint vertex_indices
end_header
-0.5 -0.5 0.5 254 254 254 255 0.5 0
0 -0.5 0 254 254 254 255 0 0.5
0 -0.5 0.5 254 254 254 255 0 0
-0.5 0 0.5 254 254 254 255 0.5 0.5
0 0 0 254 254 254 255 1 0
-0.5 5.5879354e-09 0 254 254 254 255 0.5 0
-0.5 -0.5 0 254 254 254 255 0.5 0
-0.5 0 0.5 254 254 254 255 1 0.5
-0.5 5.5879354e-09 0 254 254 254 255 0.5 0.5
0 0 0 254 254 254 255 0.5 1
-0.5 -0.5 0 254 254 254 255 1 0.5
-0.5 5.5879354e-09 0 254 254 254 255 1 1
0 0 0.5 254 254 254 255 0.5 0.5
-0.5 -0.5 0.5 254 254 254 255 0 0
0 -0.5 0.5 254 254 254 255 0.5 0
0 0 0.5 254 254 254 255 0 1
0 -0.5 0 254 254 254 255 0.5 0.5
-0.5 -0.5 0 254 254 254 255 0.5 0.5
0 0 0.5 254 254 254 255 1 0.5
-0.5 -0.5 0.5 254 254 254 255 1 0
-0.5 0 0.5 254 254 254 255 0 0.5
0 -0.5 0.5 254 254 254 255 0 0.5
3 0 1 2
3 3 4 5
3 6 7 8
3 9 10 11
3 12 13 14
3 15 16 9
3 0 17 1
3 3 18 4
3 6 19 7
3 9 16 10
3 12 20 13
3 15 21 16
