ply
format ascii 1.0
comment Created in Blender version 4.1.1
element vertex 26
property float x
property float y
property float z
property uchar red
property uchar green
property uchar blue
property uchar alpha
property float s
property float t
element face 20
property list uchar uint vertex_indices
end_header
0.5 0 0 254 254 254 255 1 1
0.5 -0.5 0.5 254 254 254 255 0.5 0.5
0.5 -0.5 0 254 254 254 255 1 0.5
0.5 0 0.5 254 254 254 255 1 0.5
-0.5 -0.5 0.5 254 254 254 255 0 0
0.5 -0.5 0.5 254 254 254 255 1 0
-0.5 0 0.5 254 254 254 255 1 0.5
-0.5 -0.5 -0.5 254 254 254 255 0 0
-0.5 -0.5 0.5 254 254 254 255 1 0
0 5.5879354e-09 0 254 254 254 255 0.5 1
0.5 -0.5 0 254 254 254 255 0 0.5
0 -0.5 0 254 254 254 255 0.5 0.5
-0.5 -0.5 -0.5 254 254 254 255 1 1
0 -0.5 -0.5 254 254 254 255 0.5 1
-0.5 0 -0.5 254 254 254 255 0 0.5
-0.5 0 -0.5 254 254 254 255 0.5 1
0 -0.5 -0.5 254 254 254 255 0 0.5
-0.5 -0.5 -0.5 254 254 254 255 0.5 0.5
0 1.1175871e-08 -0.5 254 254 254 255 1 1
0 -0.5 -0.5 254 254 254 255 1 0.5
0.5 0 0.5 254 254 254 255 0.5 1
-0.5 0 0.5 254 254 254 255 0 0.5
0.5 0 0 254 254 254 255 0 1
0.5 -0.5 0.5 254 254 254 255 0 0
0.5 0 0.5 254 254 254 255 0 0.5
0 1.1175871e-08 -0.5 254 254 254 255 0 1
3 0 1 2
3 3 4 5
3 6 7 8
3 9 10 11
3 12 13 11
3 6 9 14
3 15 16 17
3 18 11 19
3 0 20 1
3 3 21 4
3 6 14 7
3 9 22 10
3 10 23 11
3 23 8 11
3 8 12 11
3 6 24 9
3 24 22 9
3 9 25 14
3 15 25 16
3 18 9 11
