ply
format ascii 1.0
comment Created in Blender version 4.1.1
element vertex 20
property float x
property float y
property float z
property float s
property float t
element face 12
property list uchar uint vertex_indices
end_header
8.742278e-08 3.774895e-08 -0.5 1 1
-8.742277e-08 -0.50000006 0.49999997 0 0.5
8.7422784e-08 -0.49999997 -0.50000006 1 0.5
-8.742278e-08 -3.774895e-08 0.5 0.5 0.5
-0.50000006 -0.50000006 0.49999988 0 0
-8.742277e-08 -0.50000006 0.49999997 0.5 0
-0.50000006 -3.774895e-08 0.4999999 1 1
-0.4999999 -0.49999997 -0.5000001 0 0.5
-0.50000006 -0.50000006 0.49999988 1 0.5
-0.4999999 3.774895e-08 -0.50000006 1 0.5
8.7422784e-08 -0.49999997 -0.50000006 0.5 0
-0.4999999 -0.49999997 -0.5000001 1 0
8.7422784e-08 -0.49999997 -0.50000006 0 0
-8.742277e-08 -0.50000006 0.49999997 1 0
-8.742278e-08 -3.774895e-08 0.5 0 0
-0.50000006 -3.774895e-08 0.4999999 0 0.5
-8.742278e-08 -3.774895e-08 0.5 0 1
-0.4999999 3.774895e-08 -0.50000006 0 1
8.742278e-08 3.774895e-08 -0.5 0.5 0.5
8.742278e-08 3.774895e-08 -0.5 1 0
3 0 1 2
3 3 4 5
3 6 7 8
3 9 10 11
3 8 12 13
3 14 9 15
3 0 16 1
3 3 15 4
3 6 17 7
3 9 18 10
3 8 7 12
3 14 19 9
