ply
format ascii 1.0
comment Created by Blender 2.78 (sub 0) - www.blender.org, source file: 'quarterblock.blend'
element vertex 8
property float x
property float y
property float z
property uchar red
property uchar green
property uchar blue
element face 12
property list uchar uint vertex_indices
end_header
0.000000 0.000000 -0.500000 255 0 0
0.000000 -0.500000 0.500000 255 0 0
0.000000 -0.500000 -0.500000 255 0 0
0.000000 0.000000 0.500000 255 0 0
-0.500000 -0.500000 0.500000 255 0 0
-0.500000 0.000000 0.500000 255 0 0
-0.500000 -0.500000 -0.500000 255 0 0
-0.500000 0.000000 -0.500000 255 0 0
3 0 1 2
3 3 4 1
3 5 6 4
3 7 2 6
3 4 2 1
3 3 7 5
3 0 3 1
3 3 5 4
3 5 7 6
3 7 0 2
3 4 6 2
3 3 0 7
