ply
format ascii 1.0
comment Created by Blender 2.82 (sub 7) - www.blender.org, source file: 'researcherworkdesk.blend'
element vertex 90
property float x
property float y
property float z
property uchar red
property uchar green
property uchar blue
property uchar alpha
element face 103
property list uchar uint vertex_indices
end_header
0.414133 0.645540 0.322816 133 58 43 255
0.437223 0.446878 0.402815 133 58 43 255
0.437223 0.446878 0.322816 133 58 43 255
0.414133 0.645540 0.402815 133 58 43 255
0.268674 0.427288 0.402815 133 58 43 255
0.245584 0.625950 0.402815 133 58 43 255
0.268674 0.427288 0.322816 133 58 43 255
0.495930 0.699640 0.500000 138 91 56 255
0.495930 0.699640 -0.500000 138 91 56 255
0.455930 0.699640 -0.500000 138 91 56 255
0.245584 0.625950 0.322816 133 58 43 255
-0.501197 0.401939 -0.459674 138 91 56 255
-0.501197 0.401939 -0.499675 138 91 56 255
-0.501197 -0.498061 -0.499675 112 74 46 255
0.458803 -0.498061 -0.459674 127 84 52 255
0.458803 0.688238 -0.459674 143 99 71 255
-0.499488 0.338681 0.460000 172 124 81 255
-0.494971 0.298937 -0.460000 172 124 81 255
-0.494971 0.298937 0.460000 165 119 79 255
0.454371 0.447090 0.460000 172 124 81 255
0.454371 0.447090 -0.460000 172 124 81 255
-0.499488 0.338681 -0.460000 172 124 81 255
0.458888 0.407346 -0.460000 172 124 81 255
0.458888 0.407346 0.460000 172 124 81 255
-0.501197 -0.498061 -0.459674 112 74 46 255
0.458803 -0.498061 -0.499674 112 74 46 255
0.458803 0.688238 -0.499674 138 91 56 255
0.495930 -0.500360 0.500000 112 74 46 255
0.495930 -0.500360 -0.500000 112 74 46 255
0.455930 0.699640 0.500000 138 91 56 255
0.455930 -0.500360 0.500000 112 74 46 255
0.455930 -0.500360 -0.500000 112 74 46 255
0.458803 -0.498061 0.499947 112 74 46 255
-0.501197 0.401939 0.499947 138 91 56 255
-0.501197 -0.498061 0.499947 112 74 46 255
-0.501197 -0.498061 0.459947 130 86 53 255
-0.501197 0.401939 0.459947 138 91 57 255
0.458803 -0.498061 0.459947 130 85 53 255
0.458803 0.688238 0.459947 138 91 56 255
0.418102 0.664902 0.271157 86 112 51 255
0.443501 0.446373 0.322540 86 112 51 255
0.443501 0.446373 0.271157 86 112 51 255
0.418102 0.664902 0.322540 86 112 51 255
0.264705 0.425592 0.322540 86 112 51 255
0.239306 0.644121 0.322540 86 112 51 255
0.264705 0.425592 0.271157 86 112 51 255
0.239306 0.644121 0.271157 86 112 51 255
0.418102 0.664902 -0.448417 60 63 112 255
0.443501 0.446373 -0.348417 60 63 112 255
0.443501 0.446373 -0.448417 66 75 103 255
0.418102 0.664902 -0.348417 60 64 112 255
0.264705 0.425592 -0.348417 60 63 112 255
0.239306 0.644121 -0.348417 60 63 112 255
0.264705 0.425592 -0.448417 66 75 103 255
0.239306 0.644121 -0.448417 60 63 112 255
-0.028772 0.382413 0.073529 225 196 166 255
-0.061795 0.391207 0.237594 223 193 160 255
-0.060478 0.378985 0.237593 228 204 178 255
-0.301740 0.365360 0.190684 223 193 160 255
-0.300423 0.353138 0.190683 223 193 160 255
-0.268717 0.356566 0.026619 223 194 162 255
-0.270034 0.368787 0.026620 223 193 160 255
-0.030089 0.394635 0.073530 223 193 160 255
-0.080505 0.376927 -0.219274 223 193 160 255
-0.034301 0.396600 -0.059388 223 193 160 255
-0.032910 0.384387 -0.059233 223 193 160 255
-0.268323 0.370845 0.011410 223 193 160 255
-0.266932 0.358633 0.011566 223 193 160 255
-0.314528 0.351173 -0.148475 223 193 160 255
-0.315919 0.363385 -0.148631 223 193 160 255
-0.092319 0.468536 0.398594 62 56 76 255
-0.122116 0.377713 0.368771 62 56 76 255
-0.081397 0.382907 0.398594 63 58 77 255
-0.117485 0.465326 0.320515 62 56 76 255
-0.106562 0.379697 0.320515 62 56 76 255
-0.067153 0.471746 0.320515 63 57 77 255
-0.056231 0.386117 0.320515 63 57 77 255
-0.051600 0.473730 0.368771 62 56 76 255
-0.040678 0.388101 0.368771 89 85 98 255
-0.084644 0.406100 -0.343132 63 57 77 255
-0.075366 0.386347 -0.325139 62 56 76 255
-0.082727 0.386201 -0.343734 72 66 84 255
-0.077284 0.406246 -0.324536 67 62 80 255
-0.260338 0.366298 -0.251766 62 56 76 255
-0.269616 0.386051 -0.269758 66 61 79 255
-0.267698 0.366153 -0.270361 63 57 76 255
-0.262255 0.386197 -0.251163 62 56 76 255
0.458803 0.688238 0.499947 138 91 56 255
-0.081896 0.389140 -0.219429 223 193 160 255
-0.133038 0.463342 0.368771 62 56 76 255
3 0 1 2
3 3 4 1
3 5 6 4
3 0 3 1
3 7 8 9
3 3 10 5
3 11 12 13
3 14 15 11
3 16 17 18
3 19 20 21
3 18 22 23
3 19 21 16
3 14 11 24
3 11 13 24
3 12 25 13
3 18 17 22
3 3 0 10
3 12 15 26
3 8 27 28
3 27 29 30
3 29 31 30
3 9 28 31
3 5 10 6
3 7 9 29
3 32 33 34
3 33 35 34
3 36 37 35
3 16 21 17
3 3 5 4
3 33 38 36
3 39 40 41
3 42 43 40
3 44 45 43
3 46 41 45
3 9 8 28
3 42 46 44
3 47 48 49
3 50 51 48
3 52 53 51
3 54 49 53
3 29 9 31
3 50 54 52
3 55 56 57
3 57 58 59
3 58 60 59
3 61 55 60
3 27 7 29
3 58 62 61
3 63 64 65
3 65 66 67
3 66 68 67
3 69 63 68
3 8 7 27
3 64 69 66
3 70 71 72
3 71 73 74
3 74 75 76
3 77 75 73
3 76 77 78
3 77 72 78
3 12 11 15
3 79 80 81
3 82 83 80
3 83 84 85
3 85 79 81
3 12 26 25
3 82 84 86
3 32 87 33
3 33 36 35
3 36 38 37
3 33 87 38
3 39 42 40
3 42 44 43
3 44 46 45
3 46 39 41
3 42 39 46
3 47 50 48
3 50 52 51
3 52 54 53
3 54 47 49
3 50 47 54
3 55 62 56
3 57 56 58
3 58 61 60
3 61 62 55
3 58 56 62
3 63 88 64
3 65 64 66
3 66 69 68
3 69 88 63
3 64 88 69
3 70 89 71
3 71 89 73
3 74 73 75
3 73 89 77
3 89 70 77
3 76 75 77
3 77 70 72
3 79 82 80
3 82 86 83
3 83 86 84
3 85 84 79
3 82 79 84
