ply
format ascii 1.0
comment Created by Blender 2.78 (sub 0) - www.blender.org, source file: 'ricestage2.blend'
element vertex 60
property float x
property float y
property float z
property uchar red
property uchar green
property uchar blue
element face 64
property list uchar uint vertex_indices
end_header
0.254668 -0.115936 -0.105334 103 176 85
0.203046 -0.499997 -0.207136 123 176 111
0.254668 -0.499997 -0.177332 123 176 111
0.140693 -0.115936 -0.302744 103 176 85
0.203046 -0.499997 -0.266745 123 176 111
0.254668 -0.499996 -0.296549 123 176 111
0.368643 -0.115936 -0.302744 103 176 85
0.306291 -0.499997 -0.266745 123 176 111
0.111960 0.019051 -0.154548 79 145 52
0.254668 -0.115936 -0.105334 77 135 56
0.140693 -0.115936 -0.302744 77 135 56
0.306291 -0.499997 -0.207136 123 176 111
0.368643 -0.115936 -0.302744 77 135 56
0.397376 0.019051 -0.154548 79 145 52
0.254668 0.019051 -0.401726 79 145 52
-0.226888 -0.115936 -0.009804 103 176 85
-0.278510 -0.499997 -0.111606 123 176 111
-0.226888 -0.499997 -0.081802 123 176 111
-0.340863 -0.115936 -0.207214 103 176 85
-0.278510 -0.499997 -0.171215 123 176 111
-0.226888 -0.499997 -0.201019 123 176 111
-0.112913 -0.115936 -0.207214 103 176 85
-0.175265 -0.499997 -0.171215 123 176 111
-0.369596 0.019051 -0.059018 79 145 52
-0.226888 -0.115936 -0.009804 77 135 56
-0.340863 -0.115936 -0.207214 77 135 56
-0.175265 -0.499997 -0.111606 123 176 111
-0.112913 -0.115936 -0.207214 77 135 56
-0.084179 0.019051 -0.059018 79 145 52
-0.226888 0.019051 -0.306196 79 145 52
0.207548 -0.115936 0.391728 103 176 85
0.155925 -0.499997 0.289925 123 176 111
0.207548 -0.499997 0.319729 123 176 111
0.093573 -0.115936 0.194317 103 176 85
0.155925 -0.499997 0.230317 123 176 111
0.207548 -0.499997 0.200512 123 176 111
0.321522 -0.115936 0.194317 103 176 85
0.259170 -0.499997 0.230317 123 176 111
0.064839 0.019051 0.342513 79 145 52
0.207548 -0.115936 0.391728 77 135 56
0.093573 -0.115936 0.194317 77 135 56
0.259170 -0.499997 0.289925 123 176 111
0.321522 -0.115936 0.194317 77 135 56
0.350256 0.019051 0.342513 79 145 52
0.207548 0.019051 0.095335 79 145 52
-0.230716 -0.115936 0.440355 103 176 85
-0.282338 -0.499997 0.338552 123 176 111
-0.230716 -0.499997 0.368356 123 176 111
-0.344690 -0.115936 0.242945 103 176 85
-0.282338 -0.499997 0.278944 123 176 111
-0.230716 -0.499997 0.249139 123 176 111
-0.116741 -0.115936 0.242945 103 176 85
-0.179093 -0.499997 0.278944 123 176 111
-0.373424 0.019051 0.391141 79 145 52
-0.230716 -0.115936 0.440355 77 135 56
-0.344690 -0.115936 0.242945 77 135 56
-0.179093 -0.499997 0.338552 123 176 111
-0.116741 -0.115936 0.242945 77 135 56
-0.088007 0.019051 0.391141 79 145 52
-0.230716 0.019051 0.143963 79 145 52
3 0 1 2
3 1 3 4
3 3 5 4
3 5 6 7
3 8 9 10
3 6 11 7
3 11 0 2
3 3 0 6
3 12 0 13
3 6 14 3
3 15 16 17
3 16 18 19
3 18 20 19
3 20 21 22
3 23 24 25
3 21 26 22
3 26 15 17
3 18 15 21
3 27 15 28
3 21 29 18
3 30 31 32
3 31 33 34
3 33 35 34
3 35 36 37
3 38 39 40
3 36 41 37
3 41 30 32
3 33 30 36
3 42 30 43
3 36 44 33
3 45 46 47
3 46 48 49
3 48 50 49
3 50 51 52
3 53 54 55
3 51 56 52
3 56 45 47
3 48 45 51
3 57 45 58
3 51 59 48
3 0 8 1
3 1 8 3
3 3 14 5
3 5 14 6
3 6 13 11
3 11 13 0
3 15 23 16
3 16 23 18
3 18 29 20
3 20 29 21
3 21 28 26
3 26 28 15
3 30 38 31
3 31 38 33
3 33 44 35
3 35 44 36
3 36 43 41
3 41 43 30
3 45 53 46
3 46 53 48
3 48 59 50
3 50 59 51
3 51 58 56
3 56 58 45
