ply
format ascii 1.0
comment Created by Blender 2.78 (sub 0) - www.blender.org, source file: 'ricestage1.blend'
element vertex 67
property float x
property float y
property float z
property uchar red
property uchar green
property uchar blue
element face 64
property list uchar uint vertex_indices
end_header
0.207548 -0.399127 0.295944 110 176 85
0.193496 -0.503669 0.268234 171 184 108
0.207548 -0.503669 0.276346 171 184 108
0.176524 -0.399127 0.242209 115 176 88
0.193496 -0.503669 0.252008 171 184 108
0.207548 -0.503669 0.243895 171 184 108
0.238572 -0.399127 0.242209 115 176 88
0.221599 -0.503669 0.252008 171 184 108
0.168702 -0.362383 0.282548 115 176 88
0.207548 -0.399127 0.295944 115 176 88
0.238572 -0.399127 0.242209 106 176 85
0.221599 -0.503669 0.268234 171 184 108
0.207548 -0.399127 0.295944 112 176 86
0.176524 -0.399127 0.242209 107 176 86
0.207548 -0.399127 0.295944 107 176 85
0.246393 -0.362383 0.282548 115 176 88
0.238572 -0.399127 0.242209 114 176 88
0.207548 -0.362383 0.215266 115 176 88
0.176524 -0.399127 0.242209 103 176 85
0.254668 -0.391213 -0.199727 106 176 85
0.240071 -0.499811 -0.228513 171 184 108
0.254668 -0.499811 -0.220086 171 184 108
0.222440 -0.391213 -0.255547 115 176 88
0.240071 -0.499811 -0.245368 171 184 108
0.254668 -0.499811 -0.253796 171 184 108
0.286896 -0.391213 -0.255547 115 176 88
0.269265 -0.499811 -0.245368 171 184 108
0.214315 -0.353044 -0.213643 115 176 88
0.254668 -0.391213 -0.199727 115 176 88
0.269265 -0.499811 -0.228513 171 184 108
0.286896 -0.391213 -0.255547 113 174 86
0.295021 -0.353044 -0.213643 115 176 88
0.286896 -0.391213 -0.255547 111 176 86
0.254668 -0.353044 -0.283536 115 176 88
0.222440 -0.391213 -0.255547 108 176 85
-0.226888 -0.402850 -0.103270 115 176 88
-0.241848 -0.514153 -0.132773 171 184 108
-0.226888 -0.514153 -0.124136 171 184 108
-0.259918 -0.402850 -0.160481 115 176 88
-0.241848 -0.514153 -0.150048 171 184 108
-0.226888 -0.514153 -0.158685 171 184 108
-0.226888 -0.514153 -0.158685 166 184 106
-0.193857 -0.402850 -0.160481 115 176 88
-0.211927 -0.514153 -0.150048 171 184 108
-0.268245 -0.363730 -0.117533 115 176 88
-0.211927 -0.514153 -0.132773 171 184 108
-0.193857 -0.402850 -0.160481 77 135 56
-0.226888 -0.402850 -0.103270 111 176 87
-0.185530 -0.363730 -0.117533 115 176 88
-0.226888 -0.363730 -0.189166 115 176 88
-0.259918 -0.402850 -0.160481 112 176 87
-0.230716 -0.402566 0.344876 111 176 87
-0.244887 -0.507998 0.316930 171 184 108
-0.230716 -0.507998 0.325111 171 184 108
-0.262004 -0.402566 0.290684 115 176 88
-0.244887 -0.507998 0.300566 171 184 108
-0.230716 -0.507998 0.292384 171 184 108
-0.199428 -0.402566 0.290684 115 176 88
-0.216544 -0.507998 0.300566 171 184 108
-0.269892 -0.365510 0.331366 115 176 88
-0.230716 -0.402566 0.344876 115 176 88
-0.216544 -0.507998 0.316930 171 184 108
-0.230716 -0.402566 0.344876 113 176 87
-0.191540 -0.365510 0.331366 115 176 88
-0.230716 -0.365510 0.263512 115 176 88
0.254668 -0.353044 -0.283536 107 169 80
0.254668 -0.353044 -0.283536 109 170 82
3 0 1 2
3 1 3 4
3 3 5 4
3 5 6 7
3 8 9 3
3 10 11 7
3 11 12 2
3 13 14 10
3 6 9 15
3 16 17 18
3 19 20 21
3 20 22 23
3 22 24 23
3 24 25 26
3 27 28 22
3 25 29 26
3 29 28 21
3 22 28 25
3 30 28 31
3 32 33 34
3 35 36 37
3 36 38 39
3 38 40 39
3 41 42 43
3 44 35 38
3 42 45 43
3 45 35 37
3 38 35 42
3 46 47 48
3 42 49 50
3 51 52 53
3 52 54 55
3 54 56 55
3 56 57 58
3 59 60 54
3 57 61 58
3 61 62 53
3 54 60 57
3 57 60 63
3 57 64 54
3 0 8 1
3 1 8 3
3 3 17 5
3 5 17 6
3 10 15 11
3 11 15 12
3 19 27 20
3 20 27 22
3 22 65 24
3 24 66 25
3 25 31 29
3 29 31 28
3 35 44 36
3 36 44 38
3 38 49 40
3 41 49 42
3 42 48 45
3 45 48 35
3 51 59 52
3 52 59 54
3 54 64 56
3 56 64 57
3 57 63 61
3 61 63 62
