ply
format ascii 1.0
comment Created by Blender 2.82 (sub 7) - www.blender.org, source file: 'ropemakersworkbench.blend'
element vertex 108
property float x
property float y
property float z
property uchar red
property uchar green
property uchar blue
property uchar alpha
element face 148
property list uchar uint vertex_indices
end_header
0.016478 0.411979 -0.449983 155 155 155 255
-0.002398 0.419671 0.450008 139 139 139 255
0.015876 0.411542 0.450016 156 156 156 255
-0.001795 0.420109 -0.449992 133 133 133 255
-0.018574 0.407911 0.449992 156 156 156 255
-0.017972 0.408348 -0.450008 156 156 156 255
-0.016478 0.388021 0.449983 156 156 156 255
-0.015876 0.388458 -0.450016 155 155 155 255
0.001795 0.379891 0.449992 130 130 130 255
0.002398 0.380329 -0.450008 148 148 148 255
0.017972 0.391652 0.450008 156 156 156 255
0.018574 0.392089 -0.449992 129 129 129 255
0.080918 0.458826 -0.368436 150 150 150 255
-0.010515 0.499425 -0.268477 117 117 117 255
0.080851 0.458778 -0.268436 120 120 120 255
-0.010448 0.499473 -0.368477 147 147 147 255
-0.091400 0.440623 -0.268560 123 123 123 255
-0.091333 0.440671 -0.368560 156 156 156 255
-0.080918 0.341174 -0.268601 117 117 117 255
-0.080851 0.341222 -0.368601 151 151 151 255
0.010448 0.300527 -0.268560 117 117 117 255
0.010515 0.300575 -0.368560 146 146 146 255
0.091333 0.359329 -0.268477 117 117 117 255
0.091400 0.359377 -0.368477 154 154 154 255
0.080592 0.446226 -0.275756 156 156 156 255
0.064415 0.434466 -0.195756 152 152 152 255
0.064415 0.434466 -0.275756 154 154 154 255
0.080592 0.446226 -0.195756 155 155 155 255
0.052655 0.450642 -0.195756 117 117 117 255
0.068831 0.462403 -0.275756 156 156 156 255
0.052655 0.450642 -0.275756 156 156 156 255
0.068831 0.462403 -0.195756 156 156 156 255
-0.052422 0.349526 -0.275756 129 129 129 255
-0.068599 0.337766 -0.195756 133 133 133 255
-0.068599 0.337766 -0.275756 153 153 153 255
-0.052422 0.349526 -0.195756 128 128 128 255
-0.080359 0.353943 -0.195756 134 134 134 255
-0.064183 0.365703 -0.275756 147 147 147 255
-0.080359 0.353943 -0.275756 151 151 151 255
-0.064183 0.365703 -0.195756 148 148 148 255
-0.028648 0.456412 -0.275756 127 127 127 255
-0.044825 0.444652 -0.195756 127 127 127 255
-0.044825 0.444652 -0.275756 127 127 127 255
-0.028648 0.456412 -0.195756 127 127 127 255
-0.056585 0.460829 -0.195756 117 117 117 255
-0.040408 0.472589 -0.275756 155 155 155 255
-0.056585 0.460829 -0.275756 127 127 127 255
-0.040408 0.472589 -0.195756 154 154 154 255
0.057302 0.338185 -0.275756 155 155 155 255
0.041125 0.326425 -0.195756 131 131 131 255
0.041125 0.326425 -0.275756 127 127 127 255
0.057302 0.338185 -0.195756 156 156 156 255
0.029365 0.342602 -0.195756 133 133 133 255
0.045542 0.354362 -0.275756 127 127 127 255
0.029365 0.342602 -0.275756 138 138 138 255
0.045542 0.354362 -0.195756 128 128 128 255
0.040459 0.429413 0.319973 138 138 138 255
-0.005258 0.449712 0.369952 117 117 117 255
0.040426 0.429389 0.369973 140 140 140 255
-0.005224 0.449737 0.319952 117 117 117 255
-0.045700 0.420311 0.369911 128 128 128 255
-0.045666 0.420336 0.319911 117 117 117 255
-0.040459 0.370587 0.369890 135 135 135 255
-0.040426 0.370611 0.319890 135 135 135 255
0.005224 0.350263 0.369911 133 133 133 255
0.005258 0.350288 0.319911 130 130 130 255
0.045666 0.379664 0.369952 127 127 127 255
0.045700 0.379689 0.319952 127 127 127 255
0.087014 0.450895 0.424628 152 152 152 255
-0.074755 0.333291 0.444628 117 117 117 255
-0.074755 0.333291 0.424628 125 125 125 255
0.087014 0.450895 0.444628 144 144 144 255
-0.086515 0.349468 0.444628 118 118 118 255
0.075254 0.467072 0.424628 149 149 149 255
-0.086515 0.349468 0.424628 122 122 122 255
0.075254 0.467072 0.444628 138 138 138 255
0.500000 0.440000 -0.410000 117 93 71 255
0.500000 -0.500000 -0.390000 87 69 53 255
0.500000 -0.500000 -0.410000 87 69 53 255
0.500000 0.440000 -0.390000 117 93 71 255
-0.500000 -0.500000 -0.390000 87 69 53 255
-0.500000 0.440000 -0.410000 117 93 71 255
-0.500000 -0.500000 -0.410000 87 69 53 255
-0.500000 0.440000 -0.390000 117 93 71 255
0.500000 0.440000 0.390000 117 93 71 255
0.500000 -0.500000 0.410000 87 69 53 255
0.500000 -0.500000 0.390000 87 69 53 255
0.500000 0.440000 0.410000 117 93 71 255
-0.500000 -0.500000 0.410000 87 69 53 255
-0.500000 0.440000 0.390000 117 93 71 255
-0.500000 -0.500000 0.390000 87 69 53 255
-0.500000 0.440000 0.410000 117 93 71 255
-0.462000 0.438000 -0.400000 117 93 71 255
-0.462000 0.402000 0.400000 120 97 77 255
-0.462000 0.402000 -0.400000 118 94 72 255
-0.498000 0.402000 0.400000 122 99 80 255
-0.498000 0.438000 -0.400000 117 93 71 255
-0.498000 0.402000 -0.400000 117 94 72 255
-0.498000 0.438000 0.400000 126 106 88 255
0.498000 0.438000 -0.400000 120 97 77 255
0.498000 0.402000 0.400000 117 93 71 255
0.498000 0.402000 -0.400000 125 104 86 255
0.462000 0.402000 0.400000 117 93 71 255
0.462000 0.438000 -0.400000 118 95 73 255
0.462000 0.402000 -0.400000 121 98 78 255
0.462000 0.438000 0.400000 122 99 80 255
-0.462000 0.438000 0.400000 118 95 73 255
0.498000 0.438000 0.400000 119 96 74 255
3 0 1 2
3 3 4 1
3 5 6 4
3 7 8 6
3 0 9 5
3 9 10 8
3 11 2 10
3 8 10 1
3 12 13 14
3 15 16 13
3 17 18 16
3 19 20 18
3 21 19 17
3 21 22 20
3 23 14 22
3 18 20 22
3 24 25 26
3 27 28 25
3 28 29 30
3 28 26 25
3 27 29 31
3 32 33 34
3 35 36 33
3 36 37 38
3 36 34 33
3 35 37 39
3 40 41 42
3 43 44 41
3 44 45 46
3 44 42 41
3 43 45 47
3 48 49 50
3 51 52 49
3 52 53 54
3 52 50 49
3 51 53 55
3 56 57 58
3 59 60 57
3 61 62 60
3 63 64 62
3 65 63 61
3 65 66 64
3 67 58 66
3 64 66 57
3 68 69 70
3 71 72 69
3 72 73 74
3 73 70 74
3 72 70 69
3 71 73 75
3 76 77 78
3 79 80 77
3 80 81 82
3 82 76 78
3 83 76 81
3 84 85 86
3 87 88 85
3 88 89 90
3 90 84 86
3 91 84 89
3 92 93 94
3 95 96 97
3 95 94 93
3 98 92 96
3 99 100 101
3 102 103 104
3 102 101 100
3 105 99 103
3 0 3 1
3 3 5 4
3 5 7 6
3 7 9 8
3 5 3 0
3 0 11 9
3 9 7 5
3 9 11 10
3 11 0 2
3 10 2 1
3 1 4 6
3 6 8 1
3 12 15 13
3 15 17 16
3 17 19 18
3 19 21 20
3 17 15 21
3 15 12 21
3 12 23 21
3 21 23 22
3 23 12 14
3 22 14 18
3 14 13 18
3 13 16 18
3 24 27 25
3 27 31 28
3 28 31 29
3 28 30 26
3 27 24 29
3 32 35 33
3 35 39 36
3 36 39 37
3 36 38 34
3 35 32 37
3 40 43 41
3 43 47 44
3 44 47 45
3 44 46 42
3 43 40 45
3 48 51 49
3 51 55 52
3 52 55 53
3 52 54 50
3 51 48 53
3 56 59 57
3 59 61 60
3 61 63 62
3 63 65 64
3 61 59 56
3 56 67 61
3 67 65 61
3 65 67 66
3 67 56 58
3 66 58 57
3 57 60 62
3 62 64 57
3 68 71 69
3 71 75 72
3 72 75 73
3 73 68 70
3 72 74 70
3 71 68 73
3 76 79 77
3 79 83 80
3 80 83 81
3 82 81 76
3 83 79 76
3 84 87 85
3 87 91 88
3 88 91 89
3 90 89 84
3 91 87 84
3 92 106 93
3 95 98 96
3 95 97 94
3 98 106 92
3 99 107 100
3 102 105 103
3 102 104 101
3 105 107 99
