ply
format ascii 1.0
comment Created by Blender 2.82 (sub 7) - www.blender.org, source file: 'SanctifyingAltar.blend'
element vertex 105
property float x
property float y
property float z
property uchar red
property uchar green
property uchar blue
property uchar alpha
element face 62
property list uchar uint vertex_indices
end_header
0.498410 -0.500000 0.000183 70 36 21 255
0.498410 0.500000 0.000183 70 36 21 255
-0.000183 0.500000 0.498410 70 36 21 255
-0.000183 -0.500000 0.498410 70 36 21 255
-0.498410 0.500000 -0.000183 70 36 21 255
-0.498410 -0.500000 -0.000183 70 36 21 255
0.000183 0.500000 -0.498410 70 36 21 255
0.000183 -0.500000 -0.498410 70 36 21 255
-0.412476 -0.499424 -0.078577 133 72 63 255
-0.412476 -0.278953 -0.078577 133 72 63 255
-0.412476 -0.278953 -0.433078 133 72 63 255
-0.412476 -0.499424 -0.433078 133 72 63 255
-0.048837 -0.278953 -0.433078 142 90 84 255
-0.048837 -0.499424 -0.433078 138 82 74 255
-0.051660 -0.499583 0.441362 134 75 67 255
-0.051660 -0.103684 0.441362 133 72 63 255
-0.433078 -0.103684 0.441362 133 72 63 255
-0.433078 -0.499583 0.441362 133 72 63 255
-0.433078 -0.103684 0.059216 133 72 63 255
-0.433078 -0.499583 0.059216 133 72 63 255
0.430050 -0.497369 0.057713 133 72 63 255
0.430050 0.089702 0.057713 133 72 63 255
0.430050 0.089702 0.441362 133 72 63 255
0.430050 -0.497369 0.441362 133 75 66 255
0.049874 0.089702 0.441362 133 72 63 255
0.029273 -0.497369 0.441362 133 82 75 255
0.430050 -0.495029 -0.433633 133 72 63 255
0.430050 0.304971 -0.433633 133 72 63 255
0.436994 0.304971 -0.049025 133 73 64 255
0.430050 -0.495029 -0.052350 133 72 63 255
0.046701 -0.495029 -0.433633 133 72 63 255
0.046701 0.304971 -0.433633 133 72 63 255
0.046701 0.304971 -0.433633 138 81 74 255
0.191211 0.494564 0.193650 174 130 50 255
0.191211 0.536996 0.193650 255 189 67 255
-0.193650 0.536996 0.191211 255 189 67 255
-0.193650 0.494564 0.191211 174 130 50 255
-0.191211 0.536996 -0.193650 255 189 67 255
-0.191211 0.494564 -0.193650 174 130 50 255
0.193650 0.536996 -0.191211 255 189 67 255
0.193650 0.494564 -0.191211 175 131 53 255
0.062599 0.498910 -0.307057 206 169 119 255
0.062599 0.645476 -0.307057 206 169 119 255
0.001414 0.645476 -0.243044 206 169 119 255
0.001414 0.498910 -0.243044 206 169 119 255
-0.062599 0.645476 -0.304229 206 169 119 255
-0.062599 0.498910 -0.304229 206 169 119 255
-0.001414 0.645476 -0.368242 206 169 119 255
-0.001414 0.498910 -0.368242 206 169 119 255
-0.315531 0.498910 -0.062525 206 169 119 255
-0.315531 0.658910 -0.062525 206 169 119 255
-0.256360 0.658910 0.003355 206 169 119 255
-0.256360 0.498910 0.003355 206 169 119 255
-0.322240 0.658910 0.062525 206 169 119 255
-0.322240 0.498910 0.062525 206 169 119 255
-0.381410 0.658910 -0.003355 206 169 119 255
-0.381410 0.498910 -0.003355 206 169 119 255
0.336580 0.498910 -0.056215 206 169 119 255
0.336580 0.696240 -0.056215 206 169 119 255
0.365218 0.696240 0.027577 206 169 119 255
0.365218 0.498910 0.027577 206 169 119 255
0.281426 0.696240 0.056215 206 169 119 255
0.281426 0.498910 0.056215 206 169 119 255
0.252788 0.696240 -0.027577 206 169 119 255
0.252788 0.498910 -0.027577 206 169 119 255
0.057746 0.498910 0.306786 206 169 119 255
0.057746 0.606413 0.306786 206 169 119 255
0.024209 0.606413 0.388740 206 169 119 255
0.024209 0.498910 0.388740 206 169 119 255
-0.057746 0.606413 0.355203 206 169 119 255
-0.057746 0.498910 0.355203 206 169 119 255
-0.024209 0.606413 0.273249 206 169 119 255
-0.024209 0.498910 0.273249 206 169 119 255
-0.262071 -0.279400 -0.298286 206 169 119 255
-0.262071 -0.039612 -0.298286 206 169 119 255
-0.348337 -0.039612 -0.278298 206 169 119 255
-0.348337 -0.279400 -0.278298 206 169 119 255
-0.368325 -0.039612 -0.364563 206 169 119 255
-0.368325 -0.279400 -0.364563 206 169 119 255
-0.282060 -0.039612 -0.384552 206 169 119 255
-0.282060 -0.279400 -0.384552 206 169 119 255
0.322737 0.085545 0.290916 206 169 119 255
0.322737 0.220996 0.290916 206 169 119 255
0.403277 0.220996 0.327721 206 169 119 255
0.403277 0.085545 0.327721 206 169 119 255
0.366471 0.220996 0.408260 206 169 119 255
0.366471 0.085545 0.408260 206 169 119 255
0.285932 0.220996 0.371455 206 169 119 255
0.285932 0.085545 0.371455 206 169 119 255
0.387306 0.304292 -0.307840 206 169 119 255
0.387306 0.423298 -0.307840 206 169 119 255
0.302032 0.423298 -0.283976 206 169 119 255
0.302032 0.304292 -0.283976 206 169 119 255
0.278168 0.423298 -0.369250 206 169 119 255
0.278168 0.304292 -0.369250 206 169 119 255
0.363442 0.423298 -0.393114 206 169 119 255
0.363442 0.304292 -0.393114 206 169 119 255
-0.271825 -0.104280 0.362393 206 169 119 255
-0.271825 0.019617 0.362393 206 169 119 255
-0.353961 0.019617 0.395484 206 169 119 255
-0.353961 -0.104280 0.395484 206 169 119 255
-0.387052 0.019617 0.313349 206 169 119 255
-0.387052 -0.104280 0.313349 206 169 119 255
-0.304917 0.019617 0.280258 206 169 119 255
-0.304917 -0.104280 0.280258 206 169 119 255
4 0 1 2 3
4 3 2 4 5
4 5 4 6 7
4 7 6 1 0
4 4 2 1 6
4 8 9 10 11
4 11 10 12 13
3 9 12 10
4 14 15 16 17
4 17 16 18 19
3 16 15 18
4 20 21 22 23
4 23 22 24 25
3 24 22 21
4 26 27 28 29
4 30 31 27 26
3 32 28 27
4 33 34 35 36
4 36 35 37 38
4 38 37 39 40
4 40 39 34 33
4 37 35 34 39
4 41 42 43 44
4 44 43 45 46
4 46 45 47 48
4 48 47 42 41
4 45 43 42 47
4 49 50 51 52
4 52 51 53 54
4 54 53 55 56
4 56 55 50 49
4 53 51 50 55
4 57 58 59 60
4 60 59 61 62
4 62 61 63 64
4 64 63 58 57
4 61 59 58 63
4 65 66 67 68
4 68 67 69 70
4 70 69 71 72
4 72 71 66 65
4 69 67 66 71
4 73 74 75 76
4 76 75 77 78
4 78 77 79 80
4 80 79 74 73
4 77 75 74 79
4 81 82 83 84
4 84 83 85 86
4 86 85 87 88
4 88 87 82 81
4 85 83 82 87
4 89 90 91 92
4 92 91 93 94
4 94 93 95 96
4 96 95 90 89
4 93 91 90 95
4 97 98 99 100
4 100 99 101 102
4 102 101 103 104
4 104 103 98 97
4 101 99 98 103
