ply
format ascii 1.0
comment Created by Blender 3.3.1 - www.blender.org
element vertex 118
property float x
property float y
property float z
property uchar red
property uchar green
property uchar blue
property uchar alpha
element face 115
property list uchar uint vertex_indices
end_header
0.042341 0.457123 0.063324 194 130 66 255
-0.001090 0.508350 0.063324 195 131 67 255
0.039370 0.454876 0.063324 195 131 66 255
-0.001090 0.508350 -0.063324 195 131 66 255
0.042341 0.457123 -0.063324 195 131 66 255
0.039370 0.454876 -0.063324 195 131 66 255
0.036105 0.459224 0.059599 172 105 67 255
-0.038393 0.459224 0.059599 176 108 63 255
-0.038393 0.333074 0.059599 177 116 87 255
-0.038393 0.459224 -0.059599 170 102 62 255
-0.001170 0.508288 -0.059599 171 103 62 255
0.036105 0.459224 -0.059599 170 102 62 255
0.477971 -0.400101 0.500000 195 131 66 255
-0.522029 -0.500101 0.500000 195 131 66 255
0.477971 -0.500101 0.500000 192 128 68 255
-0.522029 -0.500101 -0.500000 193 128 66 255
0.477971 -0.400101 -0.500000 192 128 66 255
0.477971 -0.500101 -0.500000 195 131 66 255
0.233479 -0.066009 0.340000 195 131 66 255
0.000290 0.209040 0.340000 180 116 75 255
0.217529 -0.078075 0.340000 190 125 65 255
0.000290 0.209040 -0.340000 194 129 66 255
0.233479 -0.066009 -0.340000 189 125 65 255
0.217529 -0.078075 -0.340000 195 131 66 255
0.001114 0.208709 0.320000 172 106 68 255
-0.200000 -0.054726 0.320000 170 102 63 255
-0.200000 -0.404363 0.320000 170 102 62 255
0.200000 -0.054726 -0.320000 170 102 62 255
-0.200000 -0.404363 -0.320000 171 103 64 255
-0.000141 0.208709 -0.320000 170 102 62 255
0.117313 0.257838 0.164640 194 130 66 255
0.004395 0.391026 0.164640 186 122 65 255
0.109589 0.251996 0.164640 195 131 66 255
0.004395 0.391026 -0.164640 195 131 66 255
0.117313 0.257838 -0.164640 192 127 65 255
0.109589 0.251996 -0.164640 183 117 64 255
0.004794 0.390866 0.154955 170 103 63 255
-0.092593 0.263302 0.154955 170 102 62 255
-0.092593 0.093996 0.154955 170 102 62 255
0.101101 0.263302 -0.154955 170 103 63 255
-0.092593 0.093996 -0.154955 170 102 62 255
0.004186 0.390866 -0.154955 173 109 75 255
0.117303 -0.237177 0.471028 195 131 66 255
0.004394 -0.103996 0.471028 193 129 66 255
0.109579 -0.243020 0.471028 194 130 66 255
0.004394 -0.103996 -0.468972 181 115 64 255
0.117303 -0.237177 -0.468972 195 131 66 255
0.109579 -0.243020 -0.468972 181 115 63 255
0.004793 -0.104157 0.443381 170 103 63 255
-0.092593 -0.231721 0.443381 170 102 63 255
-0.092599 -0.401023 0.443381 170 102 62 255
0.101092 -0.231714 -0.441325 170 102 62 255
-0.092599 -0.401022 -0.441325 170 102 62 255
0.004186 -0.104157 -0.441325 170 102 62 255
0.298743 -0.103996 -0.021815 194 130 66 255
0.298743 -0.237190 0.091091 195 131 66 255
0.298743 -0.243032 0.083367 195 130 66 255
-0.301257 -0.243032 0.083367 195 131 66 255
-0.301257 -0.237190 0.091091 195 131 66 255
-0.301257 -0.103996 -0.021815 191 128 65 255
0.298743 -0.091581 -0.021592 193 129 66 255
-0.301257 -0.243027 -0.127009 194 129 66 255
0.298743 -0.237185 -0.134733 195 131 66 255
0.298743 -0.243027 -0.127009 194 130 66 255
-0.301257 -0.237185 -0.134733 195 131 66 255
-0.301257 -0.091581 -0.021592 182 125 62 255
-0.283610 -0.401027 -0.118521 169 102 61 255
0.281096 -0.231721 -0.118521 170 102 62 255
0.281096 -0.401027 -0.118521 170 102 62 255
0.281096 -0.104157 -0.022214 173 105 63 255
0.281096 -0.231721 0.075173 170 102 62 255
-0.283610 -0.401027 0.075173 170 102 62 255
0.281096 -0.401027 0.075173 170 102 62 255
-0.216921 -0.078085 0.340000 195 131 66 255
-0.000170 0.234680 0.340000 195 131 66 255
-0.232873 -0.066021 0.340000 195 131 66 255
-0.100786 0.251991 -0.164640 195 131 66 255
-0.100787 0.251991 0.164640 195 131 66 255
-0.108511 0.257833 0.164640 195 131 66 255
-0.108511 0.257833 -0.164640 195 131 66 255
0.004172 0.403442 0.164640 195 131 66 255
0.004172 -0.091581 -0.468972 188 124 65 255
0.004172 -0.091581 0.471028 195 131 66 255
-0.001176 0.513125 0.063324 195 131 66 255
-0.001176 0.513125 -0.063324 194 130 66 255
-0.092593 -0.231721 -0.441325 170 102 62 255
0.200000 -0.054726 0.320000 170 103 63 255
0.200000 -0.404363 0.320000 170 102 62 255
0.200000 -0.404363 -0.320000 170 102 62 255
0.036105 0.345935 0.059599 170 103 63 255
-0.000936 0.508288 0.059599 170 102 63 255
0.036105 0.345935 -0.059599 170 102 62 255
-0.038393 0.333074 -0.059599 171 104 66 255
-0.522029 -0.400101 0.500000 195 131 66 255
-0.522029 -0.400100 -0.500000 195 131 66 255
0.101101 0.263302 0.154955 170 102 62 255
0.101101 0.093996 0.154955 170 102 62 255
0.101101 0.093996 -0.154955 170 102 62 255
0.004172 0.403442 -0.164640 193 129 66 255
-0.041545 0.454874 -0.063324 195 131 66 255
-0.044516 0.457121 -0.063324 195 131 66 255
-0.100787 -0.243032 -0.468972 195 131 66 255
-0.100787 -0.243032 0.471028 195 131 66 255
-0.216921 -0.078085 -0.340000 193 130 66 255
-0.000170 0.234680 -0.340000 195 131 66 255
-0.041545 0.454874 0.063324 195 132 70 255
-0.200000 -0.054726 -0.320000 170 102 62 255
-0.044516 0.457121 0.063324 195 131 66 255
-0.108511 -0.237190 0.471028 195 131 66 255
-0.108511 -0.237190 -0.468972 195 131 66 255
-0.232873 -0.066021 -0.340000 195 131 66 255
-0.092593 0.263302 -0.154955 170 102 62 255
0.101092 -0.231714 0.443381 173 106 69 255
0.101086 -0.401016 0.443381 171 105 68 255
0.101086 -0.401016 -0.441325 170 102 62 255
-0.283610 -0.231721 -0.118521 170 102 62 255
-0.283610 -0.231721 0.075173 170 102 62 255
-0.283610 -0.104157 -0.021606 142 79 53 255
3 0 1 2
3 3 4 5
3 6 7 8
3 9 10 11
3 12 13 14
3 15 16 17
3 18 19 20
3 21 22 23
3 24 25 26
3 27 28 29
3 30 31 32
3 33 34 35
3 36 37 38
3 39 40 41
3 42 43 44
3 45 46 47
3 48 49 50
3 51 52 53
3 54 55 56
3 55 57 56
3 58 59 57
3 54 57 59
3 60 58 55
3 61 62 63
3 62 54 63
3 59 64 61
3 54 61 63
3 60 64 65
3 66 67 68
3 67 69 70
3 70 71 72
4 73 19 74 75
4 76 77 78 79
4 77 31 80 78
4 47 44 43 45
4 46 81 82 42
4 32 35 34 30
3 0 83 1
3 3 84 4
4 4 84 83 0
4 52 50 49 85
4 86 87 88 27
3 8 89 6
3 6 90 7
4 6 89 91 11
3 91 92 11
3 92 9 11
4 15 13 93 94
3 12 93 13
4 16 94 93 12
3 15 94 16
4 95 96 97 39
4 98 79 78 80
4 84 3 99 100
4 101 45 43 102
4 21 19 73 103
4 23 20 19 21
3 18 74 19
3 21 104 22
4 5 2 1 3
4 3 1 105 99
4 68 67 70 72
3 26 87 86
3 86 24 26
4 92 8 7 9
3 88 28 27
3 28 106 29
4 105 1 83 107
4 101 102 108 109
4 104 21 103 110
4 104 74 18 22
4 33 31 77 76
4 40 38 37 111
3 30 80 31
3 33 98 34
4 2 5 4 0
4 20 23 22 18
4 28 26 25 106
3 38 96 95
3 95 36 38
4 12 14 17 16
3 97 40 39
3 40 111 41
4 98 33 76 79
4 103 73 75 110
4 102 43 82 108
4 44 47 46 42
4 104 110 75 74
4 112 113 114 51
3 42 82 43
3 45 81 46
4 100 107 83 84
4 109 108 82 81
4 34 98 80 30
3 50 113 112
3 112 48 50
4 35 32 31 33
3 114 52 51
3 52 85 53
3 54 60 55
3 55 58 57
3 58 65 59
3 54 56 57
3 60 65 58
3 61 64 62
3 62 60 54
3 59 65 64
3 54 59 61
3 60 62 64
3 66 115 67
4 116 115 66 71
3 70 116 71
4 81 45 101 109
3 116 117 115
4 99 105 107 100
