ply
format ascii 1.0
comment Created by Blender 2.78 (sub 0) - www.blender.org, source file: 'sapling.blend'
element vertex 16
property float x
property float y
property float z
property uchar red
property uchar green
property uchar blue
element face 20
property list uchar uint vertex_indices
end_header
0.075000 -0.499997 -0.075000 255 0 0
0.075000 -0.297375 -0.075000 255 0 0
0.075000 -0.297375 0.075000 255 0 0
0.075000 -0.499997 0.075000 255 0 0
-0.075000 -0.297375 0.075000 255 0 0
-0.075000 -0.297375 -0.075000 255 0 0
-0.075000 -0.499997 -0.075000 255 0 0
-0.075000 -0.499997 0.075000 255 0 0
-0.125000 -0.060730 -0.125000 0 255 0
-0.125000 -0.310730 -0.125000 0 255 0
-0.125000 -0.310730 0.125000 0 255 0
0.125000 -0.060730 -0.125000 0 255 0
0.125000 -0.310730 -0.125000 0 255 0
0.125000 -0.060730 0.125000 0 255 0
0.125000 -0.310730 0.125000 0 255 0
-0.125000 -0.060730 0.125000 0 255 0
3 0 1 2
3 3 2 4
3 4 5 6
3 0 6 5
3 3 0 2
3 7 3 4
3 7 4 6
3 1 0 5
3 8 9 10
3 11 12 9
3 13 14 12
3 15 10 14
3 9 12 14
3 11 8 15
3 15 8 10
3 8 11 9
3 11 13 12
3 13 15 14
3 10 9 14
3 13 11 15
