ply
format ascii 1.0
comment Created by Blender 2.82 (sub 7) - www.blender.org, source file: 'ScribeDesk.blend'
element vertex 208
property float x
property float y
property float z
property uchar red
property uchar green
property uchar blue
property uchar alpha
element face 242
property list uchar uint vertex_indices
end_header
0.500000 0.333755 -0.500000 163 117 87 255
0.500000 0.293755 0.500000 167 122 93 255
0.500000 0.293755 -0.500000 163 117 87 255
0.500000 0.333755 0.500000 163 117 87 255
-0.500000 0.293755 0.500000 163 117 87 255
-0.500000 0.333755 0.500000 163 117 87 255
-0.500000 0.293755 -0.500000 163 117 87 255
-0.500000 0.333755 -0.500000 164 118 88 255
0.480000 0.299131 -0.492700 190 144 120 255
0.480000 -0.500869 -0.452700 176 132 106 255
0.480000 -0.500869 -0.492700 177 133 108 255
0.480000 0.299131 -0.452700 190 144 120 255
-0.480000 -0.500869 -0.452700 170 126 100 255
-0.480000 0.299131 -0.452700 190 144 120 255
-0.480000 -0.500869 -0.492700 170 127 100 255
-0.480000 0.299131 -0.492700 190 144 120 255
0.480000 0.299131 0.448744 173 129 103 255
0.480000 -0.500869 0.488744 190 144 120 255
0.480000 -0.500869 0.448744 190 144 120 255
0.480000 0.299131 0.488744 190 144 120 255
-0.480000 -0.500869 0.488744 190 144 120 255
-0.480000 0.299131 0.488744 190 144 120 255
-0.480000 -0.500869 0.448744 190 144 120 255
-0.480000 0.299131 0.448744 190 144 120 255
-0.072848 0.393265 0.418080 219 178 152 255
-0.104323 0.333265 0.469162 219 178 152 255
-0.072848 0.333265 0.418080 219 178 152 255
-0.104323 0.393265 0.469162 219 178 152 255
-0.274595 0.333265 0.364244 219 178 152 255
-0.274595 0.393265 0.364244 219 178 152 255
-0.243119 0.333265 0.313163 219 178 152 255
-0.243119 0.393265 0.313163 219 178 152 255
-0.044039 0.383265 0.447577 113 71 53 255
-0.065023 0.343265 0.481632 107 63 38 255
-0.044039 0.343265 0.447577 107 62 37 255
-0.065023 0.383265 0.481632 109 67 44 255
-0.303403 0.343265 0.334747 107 62 38 255
-0.303403 0.383265 0.334747 107 62 37 255
-0.282419 0.343265 0.300693 107 62 37 255
-0.282419 0.383265 0.300693 108 64 41 255
0.042456 0.344991 0.211889 219 178 152 255
-0.093936 0.334991 0.433242 219 179 153 255
0.042456 0.334991 0.211889 220 179 153 255
-0.247180 0.344991 0.338817 219 178 152 255
-0.110788 0.334991 0.117464 228 199 183 255
-0.247180 0.334991 0.338817 220 179 153 255
-0.134437 0.393265 0.136781 219 179 154 255
-0.102962 0.393265 0.085700 219 179 153 255
-0.102962 0.333265 0.085700 221 180 154 255
-0.093936 0.344991 0.433242 219 178 152 255
-0.110788 0.344991 0.117464 219 178 152 255
0.096118 0.383265 0.220114 107 62 37 255
0.075135 0.343265 0.254168 108 64 39 255
0.096118 0.343265 0.220114 108 63 38 255
0.075135 0.383265 0.254168 107 62 37 255
-0.163245 0.343265 0.107284 107 62 37 255
-0.163245 0.383265 0.107284 111 68 47 255
-0.142262 0.343265 0.073230 107 62 37 255
-0.142262 0.383265 0.073230 107 62 38 255
0.067310 0.393265 0.190617 219 178 152 255
0.035834 0.333265 0.241698 219 178 152 255
0.067310 0.333265 0.190617 220 179 153 255
0.035834 0.393265 0.241698 219 178 152 255
-0.134437 0.333265 0.136781 219 178 152 255
0.046807 0.393265 -0.255957 219 178 152 255
0.074674 0.333265 -0.202821 219 178 152 255
0.046807 0.333265 -0.255957 219 178 152 255
0.074674 0.393265 -0.202821 219 178 152 255
-0.102447 0.333265 -0.109932 219 178 152 255
-0.102447 0.393265 -0.109932 219 178 152 255
-0.130313 0.333265 -0.163068 219 178 152 255
-0.130313 0.393265 -0.163068 219 178 152 255
0.086876 0.383265 -0.265678 113 71 53 255
0.105454 0.343265 -0.230254 107 63 38 255
0.086876 0.343265 -0.265678 107 62 37 255
0.105454 0.383265 -0.230254 109 67 44 255
-0.142515 0.343265 -0.100210 107 62 38 255
-0.142515 0.383265 -0.100210 107 62 37 255
-0.161093 0.343265 -0.135634 107 62 37 255
-0.161093 0.383265 -0.135634 108 64 41 255
-0.016168 0.383265 -0.462162 107 62 37 255
0.002410 0.343265 -0.426738 108 64 39 255
-0.016168 0.343265 -0.462162 108 63 38 255
0.002410 0.383265 -0.426738 107 62 37 255
-0.245559 0.343265 -0.296694 107 62 37 255
-0.245559 0.383265 -0.296694 111 68 47 255
-0.264137 0.343265 -0.332118 107 62 37 255
-0.264137 0.383265 -0.332118 107 62 38 255
-0.056236 0.393265 -0.452441 219 178 152 255
-0.028370 0.333265 -0.399305 219 178 152 255
-0.056236 0.333265 -0.452441 220 179 153 255
-0.028370 0.393265 -0.399305 219 178 152 255
-0.205490 0.333265 -0.306416 219 178 152 255
-0.205490 0.393265 -0.306416 219 179 154 255
-0.233357 0.333265 -0.359552 221 180 154 255
-0.233357 0.393265 -0.359552 219 179 153 255
-0.042905 0.344991 -0.405489 219 178 152 255
0.040695 0.334991 -0.246081 219 179 153 255
-0.042905 0.334991 -0.405489 220 179 153 255
-0.118714 0.344991 -0.162481 219 178 152 255
-0.202314 0.334991 -0.321890 228 199 183 255
-0.118714 0.334991 -0.162481 220 179 153 255
0.040695 0.344991 -0.246081 219 178 152 255
-0.202314 0.344991 -0.321890 219 178 152 255
0.360046 0.344991 0.016241 219 178 152 255
0.350743 0.334991 0.055144 219 179 153 255
0.360046 0.334991 0.016241 220 179 153 255
0.175679 0.344991 0.013278 219 178 152 255
0.184983 0.334991 -0.025625 228 199 183 255
0.175679 0.334991 0.013278 220 179 153 255
0.350743 0.344991 0.055144 219 178 152 255
0.184983 0.344991 -0.025625 219 178 152 255
0.364144 0.393265 0.042098 219 178 152 255
0.350189 0.333265 0.100453 219 178 152 255
0.364144 0.333265 0.042098 219 178 152 255
0.350189 0.393265 0.100453 219 178 152 255
0.155674 0.333265 0.053935 219 178 152 255
0.155674 0.393265 0.053935 219 178 152 255
0.169629 0.333265 -0.004420 219 178 152 255
0.169629 0.393265 -0.004420 219 178 152 255
0.400722 0.383265 0.061127 113 71 53 255
0.391418 0.343265 0.100030 107 63 38 255
0.400722 0.343265 0.061127 107 62 37 255
0.391418 0.383265 0.100030 109 67 44 255
0.119097 0.343265 0.034905 107 62 38 255
0.119097 0.383265 0.034905 107 62 37 255
0.128401 0.343265 -0.003998 107 62 37 255
0.128401 0.383265 -0.003998 108 64 41 255
0.417772 0.383265 -0.010168 107 62 37 255
0.408468 0.343265 0.028735 108 64 39 255
0.417772 0.343265 -0.010168 108 63 38 255
0.408468 0.383265 0.028735 107 62 37 255
0.136147 0.343265 -0.036390 107 62 37 255
0.136147 0.383265 -0.036390 111 68 47 255
0.145451 0.343265 -0.075293 107 62 37 255
0.145451 0.383265 -0.075293 107 62 38 255
0.381195 0.393265 -0.029198 219 178 152 255
0.367239 0.333265 0.029157 219 178 152 255
0.381195 0.333265 -0.029198 220 179 153 255
0.367239 0.393265 0.029157 219 178 152 255
0.172724 0.333265 -0.017361 219 178 152 255
0.172724 0.393265 -0.017361 219 179 154 255
0.186680 0.333265 -0.075715 221 180 154 255
0.186680 0.393265 -0.075715 219 179 153 255
0.346884 0.344991 -0.409141 219 178 152 255
0.359562 0.334991 -0.371203 219 179 153 255
0.346884 0.334991 -0.409141 220 179 153 255
0.188841 0.344991 -0.314156 219 178 152 255
0.176164 0.334991 -0.352094 228 199 183 255
0.188841 0.334991 -0.314156 220 179 153 255
0.176164 0.344991 -0.352094 219 178 152 255
0.364037 0.393265 -0.389364 219 178 152 255
0.383053 0.333265 -0.332457 219 178 152 255
0.364037 0.333265 -0.389364 219 178 152 255
0.383053 0.393265 -0.332457 219 178 152 255
0.193363 0.333265 -0.269070 219 178 152 255
0.193363 0.393265 -0.269070 219 178 152 255
0.174347 0.333265 -0.325977 219 178 152 255
0.174347 0.393265 -0.325977 219 178 152 255
0.405144 0.383265 -0.392556 113 71 53 255
0.417821 0.343265 -0.354618 107 63 38 255
0.405144 0.343265 -0.392556 107 62 37 255
0.417821 0.383265 -0.354618 109 67 44 255
0.152256 0.343265 -0.265878 107 62 38 255
0.152256 0.383265 -0.265878 107 62 37 255
0.139578 0.343265 -0.303816 107 62 37 255
0.139578 0.383265 -0.303816 108 64 41 255
0.381911 0.383265 -0.462083 107 62 37 255
0.394588 0.343265 -0.424146 108 64 39 255
0.381911 0.343265 -0.462083 108 63 38 255
0.394588 0.383265 -0.424146 107 62 37 255
0.129023 0.343265 -0.335405 107 62 37 255
0.129023 0.383265 -0.335405 111 68 47 255
0.116345 0.343265 -0.373343 107 62 37 255
0.116345 0.383265 -0.373343 107 62 38 255
0.340804 0.393265 -0.458891 219 178 152 255
0.359820 0.333265 -0.401984 219 178 152 255
0.340804 0.333265 -0.458891 220 179 153 255
0.359820 0.393265 -0.401984 219 178 152 255
0.170130 0.333265 -0.338598 219 178 152 255
0.170130 0.393265 -0.338598 219 179 154 255
0.151114 0.333265 -0.395504 221 180 154 255
0.151114 0.393265 -0.395504 219 179 153 255
-0.228836 0.357685 0.102506 204 214 219 255
-0.273130 0.334617 0.209000 204 214 219 255
-0.228836 0.334617 0.102506 218 225 229 255
-0.273130 0.357685 0.209000 204 214 219 255
-0.443521 0.334617 0.138129 205 215 220 255
-0.443521 0.357685 0.138129 204 214 219 255
-0.399226 0.334617 0.031635 204 214 219 255
-0.399226 0.357685 0.031635 204 214 219 255
-0.271423 0.357685 -0.230836 204 214 219 255
-0.229201 0.334617 -0.123504 204 214 219 255
-0.271423 0.334617 -0.230836 218 225 229 255
-0.229201 0.357685 -0.123504 204 214 219 255
-0.400933 0.334617 -0.055949 205 215 220 255
-0.400933 0.357685 -0.055949 204 214 219 255
-0.443155 0.334617 -0.163281 204 214 219 255
-0.443155 0.357685 -0.163281 204 214 219 255
0.357920 0.357685 0.323364 204 214 219 255
0.313626 0.334617 0.429858 204 214 219 255
0.357920 0.334617 0.323364 218 225 229 255
0.313626 0.357685 0.429858 204 214 219 255
0.143235 0.334617 0.358987 205 215 220 255
0.143235 0.357685 0.358987 204 214 219 255
0.187530 0.334617 0.252493 204 214 219 255
0.187530 0.357685 0.252493 204 214 219 255
0.359562 0.344991 -0.371203 219 178 152 255
3 0 1 2
3 3 4 1
3 5 6 4
3 7 2 6
3 4 2 1
3 3 7 5
3 8 9 10
3 11 12 9
3 13 14 12
3 15 10 14
3 3 5 4
3 7 0 2
3 16 17 18
3 19 20 17
3 21 22 20
3 23 18 22
3 0 3 1
3 5 7 6
3 24 25 26
3 27 28 25
3 29 30 28
3 31 26 30
3 11 13 12
3 27 31 29
3 32 33 34
3 35 36 33
3 37 38 36
3 39 34 38
3 3 0 7
3 35 39 37
3 40 41 42
3 15 8 10
3 43 44 45
3 13 15 14
3 46 47 48
3 49 50 43
3 51 52 53
3 54 55 52
3 56 57 55
3 58 53 57
3 4 6 2
3 56 51 58
3 59 60 61
3 62 63 60
3 46 48 63
3 47 61 48
3 8 11 9
3 46 59 47
3 64 65 66
3 67 68 65
3 69 70 68
3 71 66 70
3 56 58 57
3 67 71 69
3 72 73 74
3 75 76 73
3 77 78 76
3 79 74 78
3 54 56 55
3 75 79 77
3 80 81 82
3 83 84 81
3 85 86 84
3 87 82 86
3 51 54 52
3 83 87 85
3 88 89 90
3 91 92 89
3 93 94 92
3 95 90 94
3 49 40 50
3 91 95 93
3 96 97 98
3 43 50 44
3 99 100 101
3 40 49 41
3 62 46 63
3 102 103 99
3 104 105 106
3 24 27 25
3 107 108 109
3 23 16 18
3 21 23 22
3 110 111 107
3 112 113 114
3 115 116 113
3 117 118 116
3 119 114 118
3 19 21 20
3 115 119 117
3 120 121 122
3 123 124 121
3 125 126 124
3 127 122 126
3 29 31 30
3 123 127 125
3 128 129 130
3 131 132 129
3 133 134 132
3 135 130 134
3 27 29 28
3 131 135 133
3 136 137 138
3 139 140 137
3 141 142 140
3 143 138 142
3 16 19 17
3 139 143 141
3 144 145 146
3 35 32 39
3 147 148 149
3 39 32 34
3 31 24 26
3 147 144 150
3 151 152 153
3 154 155 152
3 156 157 155
3 158 153 157
3 37 39 38
3 156 151 158
3 159 160 161
3 162 163 160
3 164 165 163
3 166 161 165
3 32 35 33
3 162 166 164
3 167 168 169
3 170 171 168
3 172 173 171
3 174 169 173
3 27 24 31
3 170 174 172
3 175 176 177
3 178 179 176
3 180 181 179
3 182 177 181
3 35 37 36
3 180 175 182
3 183 184 185
3 186 187 184
3 188 189 187
3 190 185 189
3 59 62 60
3 186 190 188
3 191 192 193
3 194 195 192
3 196 197 195
3 198 193 197
3 56 54 51
3 194 198 196
3 199 200 201
3 202 203 200
3 204 205 203
3 206 201 205
3 58 51 53
3 202 206 204
3 47 59 61
3 46 62 59
3 64 67 65
3 67 69 68
3 69 71 70
3 71 64 66
3 67 64 71
3 72 75 73
3 75 77 76
3 77 79 78
3 79 72 74
3 75 72 79
3 80 83 81
3 83 85 84
3 85 87 86
3 87 80 82
3 83 80 87
3 88 91 89
3 91 93 92
3 93 95 94
3 95 88 90
3 91 88 95
3 96 102 97
3 99 103 100
3 102 96 103
3 104 110 105
3 107 111 108
3 110 104 111
3 112 115 113
3 115 117 116
3 117 119 118
3 119 112 114
3 115 112 119
3 120 123 121
3 123 125 124
3 125 127 126
3 127 120 122
3 123 120 127
3 128 131 129
3 131 133 132
3 133 135 134
3 135 128 130
3 131 128 135
3 136 139 137
3 139 141 140
3 141 143 142
3 143 136 138
3 139 136 143
3 144 207 145
3 147 150 148
3 147 207 144
3 151 154 152
3 154 156 155
3 156 158 157
3 158 151 153
3 156 154 151
3 159 162 160
3 162 164 163
3 164 166 165
3 166 159 161
3 162 159 166
3 167 170 168
3 170 172 171
3 172 174 173
3 174 167 169
3 170 167 174
3 175 178 176
3 178 180 179
3 180 182 181
3 182 175 177
3 180 178 175
3 183 186 184
3 186 188 187
3 188 190 189
3 190 183 185
3 186 183 190
3 191 194 192
3 194 196 195
3 196 198 197
3 198 191 193
3 194 191 198
3 199 202 200
3 202 204 203
3 204 206 205
3 206 199 201
3 202 199 206
