ply
format ascii 1.0
comment Created by Blender 2.82 (sub 7) - www.blender.org, source file: 'scrollshelf0.blend'
element vertex 48
property float x
property float y
property float z
property uchar red
property uchar green
property uchar blue
property uchar alpha
element face 56
property list uchar uint vertex_indices
end_header
0.500000 0.497842 -0.101576 136 77 47 255
0.500000 0.497842 0.498424 136 77 47 255
0.500000 0.457842 0.498424 136 77 47 255
-0.480159 0.479214 0.488424 146 91 62 255
-0.440159 -0.480786 0.488424 146 90 61 255
-0.440159 0.479214 0.488424 146 90 61 255
-0.480159 -0.480786 -0.091576 146 90 61 255
-0.480159 0.479214 -0.091576 146 90 61 255
-0.440159 0.479214 -0.091576 154 106 83 255
-0.440159 -0.480786 -0.091576 146 90 61 255
-0.480159 -0.480786 0.488424 146 90 61 255
0.500000 -0.458724 -0.101576 136 77 47 255
0.500000 -0.498724 0.498424 136 77 47 255
0.500000 -0.498724 -0.101576 136 77 47 255
0.500000 -0.458724 0.498424 136 77 47 255
-0.500000 -0.498724 0.498424 136 77 47 255
-0.500000 -0.458724 0.498424 136 77 47 255
-0.500000 -0.498724 -0.101576 136 77 47 255
-0.500000 -0.458724 -0.101576 136 77 47 255
0.500000 0.457842 -0.101576 136 77 47 255
-0.500000 0.457842 0.498424 136 77 47 255
-0.500000 0.497842 0.498424 136 77 47 255
-0.500000 0.457842 -0.101576 136 77 47 255
-0.500000 0.497842 -0.101576 136 77 47 255
0.439669 0.479214 0.488424 146 90 61 255
0.479669 -0.480786 0.488424 147 92 64 255
0.479669 0.479214 0.488424 146 90 61 255
0.439669 -0.480786 -0.091576 146 90 61 255
0.479669 0.479214 -0.091576 146 90 61 255
0.479669 -0.480786 -0.091576 146 90 61 255
0.439669 -0.480786 0.488424 147 92 64 255
0.439381 0.474462 0.438424 168 109 69 255
-0.444068 -0.479697 0.438424 168 108 68 255
0.460918 0.453577 0.438424 168 108 68 255
-0.444068 -0.479697 -0.041576 177 127 98 255
0.439381 0.474462 -0.041576 168 108 68 255
0.460918 0.453577 -0.041576 168 108 68 255
-0.465605 -0.458812 -0.041576 168 109 70 255
-0.465605 -0.458812 0.438424 168 108 68 255
-0.442431 0.475972 0.448424 168 108 68 255
0.437744 -0.481207 0.448424 168 108 68 255
0.459353 -0.460396 0.448424 168 108 68 255
0.437744 -0.481207 -0.051576 168 108 68 255
-0.442431 0.475972 -0.051576 168 108 68 255
0.459353 -0.460396 -0.051576 168 108 68 255
-0.464040 0.455161 0.448424 168 108 68 255
0.439669 0.479214 -0.091576 146 90 61 255
-0.464040 0.455161 -0.051576 168 108 68 255
3 0 1 2
3 3 4 5
3 6 7 8
3 6 8 9
3 4 8 5
3 3 6 10
3 11 12 13
3 14 15 12
3 16 17 15
3 18 13 17
3 15 13 12
3 14 18 16
3 0 2 19
3 1 20 2
3 21 22 20
3 23 19 22
3 20 19 2
3 1 23 21
3 15 17 13
3 24 25 26
3 14 16 15
3 27 28 29
3 25 28 26
3 24 27 30
3 18 11 13
3 31 32 33
3 3 10 4
3 34 35 36
3 32 36 33
3 31 37 38
3 14 11 18
3 39 40 41
3 11 14 12
3 42 43 44
3 41 43 39
3 45 42 40
3 1 21 20
3 4 9 8
3 16 18 17
3 3 7 6
3 21 23 22
3 23 0 19
3 20 22 19
3 1 0 23
3 24 30 25
3 27 46 28
3 25 29 28
3 24 46 27
3 31 38 32
3 34 37 35
3 32 34 36
3 31 35 37
3 39 45 40
3 42 47 43
3 41 44 43
3 45 47 42
