ply
format ascii 1.0
comment Created by Blender 2.82 (sub 7) - www.blender.org, source file: 'NewBookcaseDEF.blend'
element vertex 108
property float x
property float y
property float z
property uchar red
property uchar green
property uchar blue
property uchar alpha
element face 148
property list uchar uint vertex_indices
end_header
0.500000 0.497842 -0.101576 136 77 47 255
0.500000 0.497842 0.498424 136 77 47 255
0.500000 0.457842 0.498424 136 77 47 255
-0.480159 0.479214 0.488424 146 91 62 255
-0.440159 -0.480786 0.488424 146 90 61 255
-0.440159 0.479214 0.488424 146 90 61 255
-0.480159 -0.480786 -0.091576 146 90 61 255
-0.480159 0.479214 -0.091576 146 90 61 255
-0.440159 0.479214 -0.091576 154 106 83 255
-0.440159 -0.480786 -0.091576 146 90 61 255
-0.480159 -0.480786 0.488424 146 90 61 255
0.500000 -0.458724 -0.101576 136 77 47 255
0.500000 -0.498724 0.498424 136 77 47 255
0.500000 -0.498724 -0.101576 136 77 47 255
0.500000 -0.458724 0.498424 136 77 47 255
-0.500000 -0.498724 0.498424 136 77 47 255
-0.500000 -0.458724 0.498424 136 77 47 255
-0.500000 -0.498724 -0.101576 136 77 47 255
-0.500000 -0.458724 -0.101576 136 77 47 255
0.500000 0.457842 -0.101576 136 77 47 255
-0.500000 0.457842 0.498424 136 77 47 255
-0.500000 0.497842 0.498424 136 77 47 255
-0.500000 0.457842 -0.101576 136 77 47 255
-0.500000 0.497842 -0.101576 136 77 47 255
0.439669 0.479214 0.488424 146 90 61 255
0.479669 -0.480786 0.488424 147 92 64 255
0.479669 0.479214 0.488424 146 90 61 255
0.439669 -0.480786 -0.091576 146 90 61 255
0.479669 0.479214 -0.091576 146 90 61 255
0.479669 -0.480786 -0.091576 146 90 61 255
0.439669 -0.480786 0.488424 147 92 64 255
0.439381 0.474462 0.438424 168 109 69 255
-0.444068 -0.479697 0.438424 168 108 68 255
0.460918 0.453577 0.438424 168 108 68 255
-0.444068 -0.479697 -0.041576 177 127 98 255
0.439381 0.474462 -0.041576 168 108 68 255
0.460918 0.453577 -0.041576 168 108 68 255
-0.465605 -0.458812 -0.041576 168 109 70 255
-0.465605 -0.458812 0.438424 168 108 68 255
-0.442431 0.475972 0.448424 168 108 68 255
0.437744 -0.481207 0.448424 168 108 68 255
0.459353 -0.460396 0.448424 168 108 68 255
0.437744 -0.481207 -0.051576 168 108 68 255
-0.442431 0.475972 -0.051576 168 108 68 255
0.459353 -0.460396 -0.051576 168 108 68 255
-0.464040 0.455161 0.448424 168 108 68 255
-0.001712 0.187320 -0.065374 217 195 160 255
-0.062282 0.153433 0.434626 214 192 155 255
-0.001712 0.187320 0.434626 214 191 153 255
-0.062282 0.153433 -0.065374 215 193 155 255
-0.063220 0.084035 0.434626 215 193 157 255
-0.063220 0.084035 -0.065374 217 195 161 255
-0.003588 0.048523 0.434626 214 191 153 255
-0.003588 0.048523 -0.065374 214 191 154 255
0.056982 0.082409 0.434626 214 191 153 255
0.056982 0.082409 -0.065374 214 191 153 255
0.057921 0.151808 0.434626 216 193 156 255
0.057921 0.151808 -0.065374 214 191 153 255
-0.083922 0.262127 -0.005320 217 195 160 255
-0.145394 0.246686 0.451288 214 192 155 255
-0.083922 0.262127 0.451288 214 191 153 255
-0.145394 0.246686 -0.005320 215 193 155 255
-0.162757 0.185728 0.451288 215 193 157 255
-0.118648 0.140213 -0.005320 214 191 154 255
-0.057176 0.155655 0.451288 214 191 153 255
-0.118648 0.140213 0.451288 214 191 153 255
-0.057176 0.155655 -0.005320 214 191 153 255
-0.039813 0.216612 0.451288 216 193 156 255
-0.039813 0.216612 -0.005320 214 191 153 255
-0.234241 -0.338130 0.403208 214 191 153 255
-0.303646 -0.337935 -0.096792 215 193 155 255
-0.303646 -0.337935 0.403208 214 192 155 255
-0.338517 -0.397944 -0.096792 217 195 161 255
-0.338517 -0.397944 0.403208 215 193 157 255
-0.303983 -0.458148 0.403208 214 191 153 255
-0.234578 -0.458343 -0.096792 214 191 153 255
-0.303983 -0.458148 -0.096792 214 191 154 255
-0.199707 -0.398334 0.403208 216 193 156 255
-0.234578 -0.458343 0.403208 214 191 153 255
-0.234241 -0.338130 -0.096792 217 195 160 255
0.379874 -0.208002 -0.068179 217 195 160 255
0.319303 -0.241889 0.431821 214 192 155 255
0.379874 -0.208002 0.431821 214 191 153 255
0.319303 -0.241889 -0.068179 215 193 155 255
0.318365 -0.311288 0.431821 215 193 157 255
0.318365 -0.311288 -0.068179 217 195 161 255
0.377997 -0.346800 0.431821 214 191 153 255
0.377997 -0.346800 -0.068179 214 191 154 255
0.438567 -0.312913 0.431821 214 191 153 255
0.438567 -0.312913 -0.068179 214 191 153 255
0.439506 -0.243514 -0.068179 214 191 153 255
0.439506 -0.243514 0.431821 216 193 156 255
0.056808 -0.350107 -0.005320 217 195 160 255
0.024995 -0.404926 0.451288 214 192 155 255
0.056808 -0.350107 0.451288 214 191 153 255
0.056564 -0.459887 -0.005320 217 195 161 255
0.056564 -0.459887 0.451288 215 193 157 255
0.119946 -0.460028 0.451288 214 191 153 255
0.151759 -0.405208 -0.005320 214 191 153 255
0.151759 -0.405208 0.451288 214 191 153 255
0.119946 -0.460028 -0.005320 214 191 154 255
0.120190 -0.350248 0.451288 216 193 156 255
0.120190 -0.350248 -0.005320 214 191 153 255
0.439669 0.479214 -0.091576 146 90 61 255
-0.464040 0.455161 -0.051576 168 108 68 255
-0.162757 0.185728 -0.005320 217 195 161 255
-0.199707 -0.398334 -0.096792 214 191 153 255
0.024995 -0.404926 -0.005320 215 193 155 255
3 0 1 2
3 3 4 5
3 6 7 8
3 6 8 9
3 4 8 5
3 3 6 10
3 11 12 13
3 14 15 12
3 16 17 15
3 18 13 17
3 15 13 12
3 14 18 16
3 0 2 19
3 1 20 2
3 21 22 20
3 23 19 22
3 20 19 2
3 1 23 21
3 15 17 13
3 24 25 26
3 14 16 15
3 27 28 29
3 25 28 26
3 24 27 30
3 18 11 13
3 31 32 33
3 3 10 4
3 34 35 36
3 32 36 33
3 31 37 38
3 14 11 18
3 39 40 41
3 11 14 12
3 42 43 44
3 41 43 39
3 45 42 40
3 46 47 48
3 49 50 47
3 51 52 50
3 53 54 52
3 55 53 46
3 55 56 54
3 57 48 56
3 52 54 48
3 58 59 60
3 61 62 59
3 1 21 20
3 63 64 65
3 66 63 58
3 66 67 64
3 68 60 67
3 65 64 60
3 69 70 71
3 71 72 73
3 72 74 73
3 4 9 8
3 75 76 70
3 75 77 78
3 77 79 69
3 74 78 71
3 80 81 82
3 83 84 81
3 85 86 84
3 87 88 86
3 89 87 80
3 16 18 17
3 90 82 91
3 86 88 82
3 92 93 94
3 93 95 96
3 3 7 6
3 97 98 99
3 100 95 92
3 98 101 99
3 102 94 101
3 97 99 101
3 21 23 22
3 23 0 19
3 20 22 19
3 1 0 23
3 24 30 25
3 27 103 28
3 25 29 28
3 24 103 27
3 31 38 32
3 34 37 35
3 32 34 36
3 31 35 37
3 39 45 40
3 42 104 43
3 41 44 43
3 45 104 42
3 46 49 47
3 49 51 50
3 51 53 52
3 53 55 54
3 51 49 53
3 49 46 53
3 46 57 55
3 55 57 56
3 57 46 48
3 56 48 54
3 48 47 52
3 47 50 52
3 58 61 59
3 61 105 62
3 63 66 64
3 105 61 63
3 61 58 63
3 58 68 66
3 66 68 67
3 68 58 60
3 67 60 64
3 60 59 65
3 59 62 65
3 69 79 70
3 71 70 72
3 72 76 74
3 72 70 76
3 70 79 75
3 79 106 75
3 75 106 77
3 77 106 79
3 77 69 78
3 69 71 78
3 71 73 74
3 80 83 81
3 83 85 84
3 85 87 86
3 87 89 88
3 85 83 87
3 83 80 87
3 80 90 89
3 90 80 82
3 91 82 88
3 82 81 86
3 81 84 86
3 92 107 93
3 93 107 95
3 97 100 98
3 95 107 92
3 92 102 100
3 102 98 100
3 98 102 101
3 102 92 94
3 101 94 97
3 94 93 96
3 97 94 96
