ply
format ascii 1.0
comment Created in Blender version 4.2.3 LTS
element vertex 68
property float x
property float y
property float z
property uchar red
property uchar green
property uchar blue
property uchar alpha
element face 132
property list uchar uint vertex_indices
end_header
-0.5 -0.5 0.5 127 120 119 255
-0.5 -0.5 -0.5 128 121 120 255
0.5 -0.5 0.5 127 120 119 255
0.5 -0.5 -0.5 127 120 119 255
-0.080165744 0.31782407 -0.080165744 183 172 170 255
0.080165744 0.31782407 -0.080165744 183 172 170 255
-0.080165744 0.31782407 0.080165744 183 172 170 255
0.080165744 0.31782407 0.080165744 183 172 170 255
-0.4428503 -0.4359085 0.4820093 183 172 170 255
-0.4820093 -0.4359085 0.4428503 182 171 169 255
-0.49166334 -0.47030085 0.49166334 127 120 119 255
-0.4820093 -0.4359085 -0.4428503 183 172 170 255
-0.4428503 -0.4359085 -0.4820093 183 172 170 255
-0.49166334 -0.47030085 -0.49166334 127 120 119 255
0.4820093 -0.4359085 0.4428503 183 172 170 255
0.4428503 -0.4359085 0.4820093 183 172 170 255
0.49166334 -0.47030085 0.49166334 127 120 119 255
0.4428503 -0.4359085 -0.4820093 183 172 170 255
0.4820093 -0.4359085 -0.4428503 183 172 170 255
0.49166334 -0.47030085 -0.49166334 127 120 119 255
-0.24364921 0.103745565 -0.2828082 151 142 140 255
-0.2828082 0.103745565 -0.24364921 151 142 140 255
-0.24309845 0.16387267 -0.24309845 178 166 165 255
0.24309845 0.16387267 -0.24309845 181 170 168 255
0.2828082 0.103745565 -0.24364921 151 142 140 255
0.24364921 0.103745565 -0.2828082 151 142 140 255
-0.2828082 0.103745565 0.24364921 151 142 140 255
-0.24364921 0.103745565 0.2828082 151 142 140 255
-0.24309845 0.16387267 0.24309845 181 170 168 255
0.24309845 0.16387267 0.24309845 181 170 168 255
0.24364921 0.103745565 0.2828082 151 142 140 255
0.2828082 0.103745565 0.24364921 151 142 140 255
0.22736567 0.08571252 -0.2639076 127 120 119 255
-0.22736567 0.08571252 -0.2639076 127 120 119 255
-0.2639076 0.08571252 -0.22736567 127 120 119 255
-0.2639076 0.08571252 0.22736567 127 120 119 255
0.2639076 0.08571252 0.22736567 127 120 119 255
0.2639076 0.08571252 -0.22736567 127 120 119 255
-0.22736567 0.08571252 0.2639076 127 120 119 255
0.22736567 0.08571252 0.2639076 127 120 119 255
-0.4497957 -0.41787544 -0.41325378 127 120 119 255
-0.41325378 -0.41787544 -0.4497957 130 122 121 255
0.4497957 -0.41787544 -0.41325378 127 120 119 255
0.41325378 -0.41787544 -0.4497957 127 120 119 255
0.41325378 -0.41787544 0.4497957 127 120 119 255
0.4497957 -0.41787544 0.41325378 127 120 119 255
-0.41325378 -0.41787544 0.4497957 127 120 119 255
-0.4497957 -0.41787544 0.41325378 127 120 119 255
-0.036805585 0.31782407 -0.036805585 161 150 148 255
0.036805585 0.31782407 -0.036805585 161 150 148 255
-0.036805585 0.31782407 0.036805585 161 150 148 255
0.036805585 0.31782407 0.036805585 161 150 148 255
-0.036805585 0.373412 -0.036805585 183 172 170 255
0.036805585 0.373412 -0.036805585 183 172 170 255
-0.036805585 0.373412 0.036805585 183 172 170 255
0.036805585 0.373412 0.036805585 183 172 170 255
-0.016659824 0.3730763 -0.016659824 156 118 112 255
0.016659824 0.3730763 -0.016659824 154 103 95 255
-0.016659824 0.3730763 0.016659824 156 111 103 255
0.016659824 0.3730763 0.016659824 155 110 102 255
-0.016659824 0.4092006 -0.016659824 148 69 57 255
0.016659824 0.42861322 -0.016659824 148 69 57 255
-0.016659824 0.4092006 0.016659824 148 69 57 255
0.016659824 0.42861322 0.016659824 148 69 57 255
-0.037562367 0.43118984 -0.022375718 148 69 57 255
-0.0041678613 0.45565304 -0.020851832 148 69 57 255
-0.03954172 0.4312205 0.016610773 148 69 57 255
-0.006147216 0.4556837 0.01813466 148 69 57 255
3 19 14 2
3 27 39 30
3 27 46 38
3 0 3 2
3 12 43 17
3 10 11 1
3 29 6 28
3 22 5 23
3 13 17 3
3 31 45 36
3 7 50 6
3 28 4 22
3 23 7 29
3 8 9 10
3 11 12 13
3 14 15 16
3 17 18 19
3 20 21 22
3 23 24 25
3 26 27 28
3 29 30 31
3 23 20 22
3 22 26 28
3 29 24 23
3 28 30 29
3 21 12 11
3 18 25 24
3 15 31 30
3 27 9 8
3 16 8 0
3 41 32 43
3 42 36 45
3 44 38 46
3 47 34 40
3 26 47 9
3 21 40 34
3 18 45 14
3 25 33 20
3 20 41 12
3 15 46 8
3 24 42 18
3 21 35 26
3 25 43 32
3 9 40 11
3 30 44 15
3 31 37 24
3 49 55 51
3 6 48 4
3 5 51 7
3 4 49 5
3 53 59 55
3 48 53 49
3 51 54 50
3 50 52 48
3 57 63 59
3 52 57 53
3 55 58 54
3 54 56 52
3 61 67 63
3 57 60 61
3 59 62 58
3 58 60 56
3 67 64 66
3 60 65 61
3 62 67 66
3 60 66 64
3 2 3 19
3 19 18 14
3 14 16 2
3 27 38 39
3 27 8 46
3 0 1 3
3 12 41 43
3 1 0 10
3 10 9 11
3 11 13 1
3 29 7 6
3 22 4 5
3 3 1 13
3 13 12 17
3 17 19 3
3 31 14 45
3 7 51 50
3 28 6 4
3 23 5 7
3 23 25 20
3 22 21 26
3 29 31 24
3 28 27 30
3 21 20 12
3 18 17 25
3 15 14 31
3 27 26 9
3 0 2 16
3 16 15 8
3 8 10 0
3 41 33 32
3 42 37 36
3 44 39 38
3 47 35 34
3 26 35 47
3 21 11 40
3 18 42 45
3 25 32 33
3 20 33 41
3 15 44 46
3 24 37 42
3 21 34 35
3 25 17 43
3 9 47 40
3 30 39 44
3 31 36 37
3 49 53 55
3 6 50 48
3 5 49 51
3 4 48 49
3 53 57 59
3 48 52 53
3 51 55 54
3 50 54 52
3 57 61 63
3 52 56 57
3 55 59 58
3 54 58 56
3 61 65 67
3 57 56 60
3 59 63 62
3 58 62 60
3 67 65 64
3 60 64 65
3 62 63 67
3 60 62 66
