ply
format ascii 1.0
comment Created in Blender version 4.2.3 LTS
element vertex 68
property float x
property float y
property float z
property uchar red
property uchar green
property uchar blue
property uchar alpha
element face 132
property list uchar uint vertex_indices
end_header
0.4999999 -0.5 -0.50000006 127 120 119 255
0.50000006 -0.5 0.4999999 128 121 120 255
-0.50000006 -0.5 -0.4999999 127 120 119 255
-0.4999999 -0.5 0.50000006 127 120 119 255
-0.22637515 0.31782407 0.08016578 183 172 170 255
-0.38670662 0.31782407 0.0801658 183 172 170 255
-0.22637518 0.31782407 -0.08016571 183 172 170 255
-0.38670662 0.31782407 -0.080165684 183 172 170 255
0.44285023 -0.4359085 -0.48200935 183 172 170 255
0.48200923 -0.4359085 -0.44285035 182 171 169 255
0.49166328 -0.47030085 -0.4916634 127 120 119 255
0.48200935 -0.4359085 0.44285023 183 172 170 255
0.44285035 -0.4359085 0.48200923 183 172 170 255
0.4916634 -0.47030085 0.49166328 127 120 119 255
-0.48200935 -0.4359085 -0.44285023 183 172 170 255
-0.44285035 -0.4359085 -0.48200923 183 172 170 255
-0.4916634 -0.47030085 -0.49166328 127 120 119 255
-0.44285023 -0.4359085 0.48200935 183 172 170 255
-0.48200923 -0.4359085 0.44285035 183 172 170 255
-0.49166328 -0.47030085 0.4916634 127 120 119 255
0.045478847 0.103745565 0.2828082 151 142 140 255
0.08463784 0.103745565 0.2436492 151 142 140 255
0.04492808 0.16387267 0.24309845 178 166 165 255
-0.44126883 0.16387267 0.24309851 181 170 168 255
-0.4809786 0.103745565 0.24364929 151 142 140 255
-0.4418196 0.103745565 0.28280827 151 142 140 255
0.08463777 0.103745565 -0.24364923 151 142 140 255
0.045478765 0.103745565 -0.2828082 151 142 140 255
0.044928007 0.16387267 -0.24309845 181 170 168 255
-0.4412689 0.16387267 -0.2430984 181 170 168 255
-0.44181967 0.103745565 -0.28280815 151 142 140 255
-0.48097867 0.103745565 -0.24364914 151 142 140 255
-0.42553604 0.08571252 0.26390767 127 120 119 255
0.029195303 0.08571252 0.2639076 127 120 119 255
0.06573724 0.08571252 0.22736566 127 120 119 255
0.065737166 0.08571252 -0.22736569 127 120 119 255
-0.46207803 0.08571252 -0.2273656 127 120 119 255
-0.46207798 0.08571252 0.22736575 127 120 119 255
0.029195225 0.08571252 -0.2639076 127 120 119 255
-0.4255361 0.08571252 -0.26390755 127 120 119 255
0.44979575 -0.41787544 0.41325372 127 120 119 255
0.41325384 -0.41787544 0.44979563 130 122 121 255
-0.44979563 -0.41787544 0.41325384 127 120 119 255
-0.41325372 -0.41787544 0.44979575 127 120 119 255
-0.41325384 -0.41787544 -0.44979563 127 120 119 255
-0.44979575 -0.41787544 -0.41325372 127 120 119 255
0.41325372 -0.41787544 -0.44979575 127 120 119 255
0.44979563 -0.41787544 -0.41325384 127 120 119 255
-0.2697353 0.31782407 0.036805626 161 150 148 255
-0.34334648 0.31782407 0.036805637 161 150 148 255
-0.2697353 0.31782407 -0.036805544 161 150 148 255
-0.34334648 0.31782407 -0.036805533 161 150 148 255
-0.2697353 0.373412 0.036805626 183 172 170 255
-0.34334648 0.373412 0.036805637 183 172 170 255
-0.2697353 0.373412 -0.036805544 183 172 170 255
-0.34334648 0.373412 -0.036805533 183 172 170 255
-0.28988105 0.3730763 0.016659867 156 118 112 255
-0.3232007 0.3730763 0.016659873 154 103 95 255
-0.28988105 0.3730763 -0.016659781 154 102 93 255
-0.3232007 0.3730763 -0.016659776 155 116 109 255
-0.28988105 0.4092006 0.016659867 148 69 57 255
-0.3232007 0.42861322 0.016659873 148 69 57 255
-0.28988105 0.4092006 -0.016659781 148 69 57 255
-0.3232007 0.42861322 -0.016659776 148 69 57 255
-0.26897854 0.43118984 0.022375759 148 69 57 255
-0.30237305 0.45565304 0.020851878 148 69 57 255
-0.26699919 0.4312205 -0.016610732 148 69 57 255
-0.30039367 0.4556837 -0.018134614 148 69 57 255
3 19 14 2
3 27 39 30
3 27 46 38
3 0 3 2
3 12 43 17
3 10 11 1
3 29 6 28
3 23 4 5
3 13 17 3
3 31 45 36
3 7 50 6
3 28 4 22
3 29 5 7
3 8 9 10
3 11 12 13
3 14 15 16
3 17 18 19
3 20 21 22
3 23 24 25
3 26 27 28
3 29 30 31
3 23 20 22
3 22 26 28
3 29 24 23
3 28 30 29
3 21 12 11
3 18 25 24
3 30 14 31
3 8 26 9
3 16 8 0
3 43 33 32
3 42 36 45
3 44 38 46
3 47 34 40
3 26 47 9
3 21 40 34
3 18 45 14
3 20 32 33
3 20 41 12
3 15 46 8
3 24 42 18
3 21 35 26
3 25 43 32
3 9 40 11
3 30 44 15
3 31 37 24
3 49 55 51
3 6 48 4
3 5 51 7
3 4 49 5
3 53 59 55
3 48 53 49
3 51 54 50
3 50 52 48
3 57 63 59
3 52 57 53
3 54 59 58
3 54 56 52
3 61 67 63
3 57 60 61
3 59 62 58
3 58 60 56
3 67 64 66
3 60 65 61
3 62 67 66
3 60 66 64
3 2 3 19
3 19 18 14
3 14 16 2
3 27 38 39
3 27 8 46
3 0 1 3
3 12 41 43
3 1 0 10
3 10 9 11
3 11 13 1
3 29 7 6
3 23 22 4
3 3 1 13
3 13 12 17
3 17 19 3
3 31 14 45
3 7 51 50
3 28 6 4
3 29 23 5
3 23 25 20
3 22 21 26
3 29 31 24
3 28 27 30
3 21 20 12
3 18 17 25
3 30 15 14
3 8 27 26
3 0 2 16
3 16 15 8
3 8 10 0
3 43 41 33
3 42 37 36
3 44 39 38
3 47 35 34
3 26 35 47
3 21 11 40
3 18 42 45
3 20 25 32
3 20 33 41
3 15 44 46
3 24 37 42
3 21 34 35
3 25 17 43
3 9 47 40
3 30 39 44
3 31 36 37
3 49 53 55
3 6 50 48
3 5 49 51
3 4 48 49
3 53 57 59
3 48 52 53
3 51 55 54
3 50 54 52
3 57 61 63
3 52 56 57
3 54 55 59
3 54 58 56
3 61 65 67
3 57 56 60
3 59 63 62
3 58 62 60
3 67 65 64
3 60 64 65
3 62 63 67
3 60 62 66
