ply
format ascii 1.0
comment Created by Blender 2.83.20 - www.blender.org, source file: 'SignHanging.blend'
element vertex 124
property float x
property float y
property float z
property uchar red
property uchar green
property uchar blue
property uchar alpha
element face 91
property list uchar uint vertex_indices
end_header
-0.040000 -0.498711 -0.442750 70 42 29 255
-0.040000 0.159949 -0.442750 82 49 34 255
0.040000 0.159949 -0.442750 82 49 34 255
0.040000 -0.498711 -0.442750 70 42 29 255
0.040000 0.159949 0.442750 82 49 34 255
0.040000 -0.498711 0.442750 70 42 29 255
-0.040000 0.159949 0.442750 82 49 34 255
-0.040000 -0.498711 0.442750 70 42 29 255
-0.040000 -0.464408 0.404380 70 42 29 255
-0.040000 -0.464408 -0.409033 70 42 29 255
-0.015099 -0.464408 0.404380 91 54 37 255
-0.015099 -0.464408 -0.409033 93 55 38 255
-0.040000 0.093880 -0.409033 82 49 34 255
-0.040000 0.093880 0.404380 82 49 34 255
-0.015099 0.093880 0.404380 93 55 38 255
-0.015099 0.093880 -0.409033 93 55 38 255
-0.134917 0.060618 -0.500000 57 31 19 255
-0.163596 0.101575 -0.500000 57 31 19 255
0.000000 0.216111 -0.500000 57 31 19 255
-0.000000 0.155176 -0.500000 57 31 19 255
-0.000000 0.155176 0.500000 57 31 19 255
-0.000000 0.216111 0.500000 57 31 19 255
-0.163596 0.101575 0.500000 57 31 19 255
-0.134917 0.060618 0.500000 57 31 19 255
0.134917 0.060618 0.500000 57 31 19 255
0.163596 0.101575 0.500000 57 31 19 255
0.163596 0.101575 -0.500000 57 31 19 255
0.134917 0.060618 -0.500000 57 31 19 255
-0.077493 0.460014 -0.376198 59 60 53 255
-0.077493 0.500014 -0.376198 43 44 38 255
0.077493 0.500014 -0.376198 43 44 38 255
0.077493 0.460014 -0.376198 59 60 53 255
0.077493 0.500014 -0.221212 43 44 38 255
0.077493 0.460014 -0.221212 59 60 53 255
-0.077493 0.500014 -0.221212 43 44 38 255
-0.077493 0.460014 -0.221212 59 60 53 255
-0.010000 0.361381 -0.325926 72 74 65 255
-0.010000 0.441381 -0.325926 92 94 83 255
0.010000 0.441381 -0.325926 92 94 83 255
0.010000 0.361381 -0.325926 72 74 65 255
0.010000 0.441381 -0.271484 92 94 83 255
0.010000 0.361381 -0.271484 72 74 65 255
-0.010000 0.441381 -0.271484 92 94 83 255
-0.010000 0.361381 -0.271484 72 74 65 255
0.027221 0.423151 -0.308705 72 74 65 255
0.027221 0.469890 -0.308705 92 94 83 255
0.027221 0.469890 -0.288705 92 94 83 255
0.027221 0.423151 -0.288705 72 74 65 255
-0.027221 0.469890 -0.288705 92 94 83 255
-0.027221 0.423151 -0.288705 72 74 65 255
-0.027221 0.469890 -0.308705 92 94 83 255
-0.027221 0.423151 -0.308705 72 74 65 255
-0.010000 0.239192 -0.325926 72 74 65 255
-0.010000 0.319192 -0.325926 92 94 83 255
0.010000 0.319192 -0.325926 92 94 83 255
0.010000 0.239192 -0.325926 72 74 65 255
0.010000 0.319192 -0.271484 92 94 83 255
0.010000 0.239192 -0.271484 72 74 65 255
-0.010000 0.319192 -0.271484 92 94 83 255
-0.010000 0.239192 -0.271484 72 74 65 255
0.027221 0.300962 -0.308705 72 74 65 255
0.027221 0.380962 -0.308705 92 94 83 255
0.027221 0.380962 -0.288705 92 94 83 255
0.027221 0.300962 -0.288705 72 74 65 255
-0.027221 0.380962 -0.288705 92 94 83 255
-0.027221 0.300962 -0.288705 72 74 65 255
-0.027221 0.380962 -0.308705 92 94 83 255
-0.027221 0.300962 -0.308705 72 74 65 255
0.027221 0.178940 -0.308705 72 74 65 255
0.027221 0.258940 -0.308705 92 94 83 255
0.027221 0.258940 -0.288705 92 94 83 255
0.027221 0.178940 -0.288705 72 74 65 255
-0.027221 0.258940 -0.288705 92 94 83 255
-0.027221 0.178940 -0.288705 72 74 65 255
-0.027221 0.258940 -0.308705 92 94 83 255
-0.027221 0.178940 -0.308705 72 74 65 255
0.027221 0.178940 0.290613 72 74 65 255
0.027221 0.258940 0.290613 92 94 83 255
0.027221 0.258940 0.310613 92 94 83 255
0.027221 0.178940 0.310613 72 74 65 255
-0.027221 0.258940 0.310613 92 94 83 255
-0.027221 0.178940 0.310613 72 74 65 255
-0.027221 0.258940 0.290613 92 94 83 255
-0.027221 0.178940 0.290613 72 74 65 255
0.027221 0.300962 0.290613 72 74 65 255
0.027221 0.380962 0.290613 92 94 83 255
0.027221 0.380962 0.310613 92 94 83 255
0.027221 0.300962 0.310613 72 74 65 255
-0.027221 0.380962 0.310613 92 94 83 255
-0.027221 0.300962 0.310613 72 74 65 255
-0.027221 0.380962 0.290613 92 94 83 255
-0.027221 0.300962 0.290613 72 74 65 255
-0.077493 0.460014 0.223120 59 60 53 255
-0.077493 0.500014 0.223120 43 44 38 255
0.077493 0.500014 0.223120 43 44 38 255
0.077493 0.460014 0.223120 59 60 53 255
0.077493 0.500014 0.378106 43 44 38 255
0.077493 0.460014 0.378106 59 60 53 255
-0.077493 0.500014 0.378106 43 44 38 255
-0.077493 0.460014 0.378106 59 60 53 255
-0.010000 0.361381 0.273392 72 74 65 255
-0.010000 0.441381 0.273392 92 94 83 255
0.010000 0.441381 0.273392 92 94 83 255
0.010000 0.361381 0.273392 72 74 65 255
0.010000 0.441381 0.327834 92 94 83 255
0.010000 0.361381 0.327834 72 74 65 255
-0.010000 0.441381 0.327834 92 94 83 255
-0.010000 0.361381 0.327834 72 74 65 255
0.027221 0.423151 0.290613 72 74 65 255
0.027221 0.469890 0.290613 92 94 83 255
0.027221 0.469890 0.310613 92 94 83 255
0.027221 0.423151 0.310613 72 74 65 255
-0.027221 0.469890 0.310613 92 94 83 255
-0.027221 0.423151 0.310613 72 74 65 255
-0.027221 0.469890 0.290613 92 94 83 255
-0.027221 0.423151 0.290613 72 74 65 255
-0.010000 0.239192 0.273392 72 74 65 255
-0.010000 0.319192 0.273392 92 94 83 255
0.010000 0.319192 0.273392 92 94 83 255
0.010000 0.239192 0.273392 72 74 65 255
0.010000 0.319192 0.327834 92 94 83 255
0.010000 0.239192 0.327834 72 74 65 255
-0.010000 0.319192 0.327834 92 94 83 255
-0.010000 0.239192 0.327834 72 74 65 255
4 0 1 2 3
4 3 2 4 5
4 5 4 6 7
4 0 7 8 9
4 3 5 7 0
4 9 8 10 11
4 6 1 12 13
4 7 6 13 8
4 1 0 9 12
4 10 14 15 11
4 12 9 11 15
4 13 12 15 14
4 8 13 14 10
4 16 17 18 19
4 20 21 22 23
4 23 22 17 16
4 19 20 23 16
4 21 18 17 22
4 24 25 21 20
4 19 18 26 27
4 27 26 25 24
4 20 19 27 24
4 18 21 25 26
4 28 29 30 31
4 31 30 32 33
4 33 32 34 35
4 35 34 29 28
4 31 33 35 28
4 32 30 29 34
4 36 37 38 39
4 39 38 40 41
4 41 40 42 43
4 43 42 37 36
4 39 41 43 36
4 40 38 37 42
4 44 45 46 47
4 47 46 48 49
4 49 48 50 51
4 51 50 45 44
4 47 49 51 44
4 52 53 54 55
4 55 54 56 57
4 57 56 58 59
4 59 58 53 52
4 55 57 59 52
4 56 54 53 58
4 60 61 62 63
4 63 62 64 65
4 65 64 66 67
4 67 66 61 60
4 63 65 67 60
4 64 62 61 66
4 68 69 70 71
4 71 70 72 73
4 73 72 74 75
4 75 74 69 68
4 72 70 69 74
4 76 77 78 79
4 79 78 80 81
4 81 80 82 83
4 83 82 77 76
4 80 78 77 82
4 84 85 86 87
4 87 86 88 89
4 89 88 90 91
4 91 90 85 84
4 87 89 91 84
4 88 86 85 90
4 92 93 94 95
4 95 94 96 97
4 97 96 98 99
4 99 98 93 92
4 95 97 99 92
4 96 94 93 98
4 100 101 102 103
4 103 102 104 105
4 105 104 106 107
4 107 106 101 100
4 103 105 107 100
4 104 102 101 106
4 108 109 110 111
4 111 110 112 113
4 113 112 114 115
4 115 114 109 108
4 111 113 115 108
4 116 117 118 119
4 119 118 120 121
4 121 120 122 123
4 123 122 117 116
4 119 121 123 116
4 120 118 117 122
