ply
format ascii 1.0
comment Created by Blender 2.83.20 - www.blender.org, source file: 'signground.blend'
element vertex 40
property float x
property float y
property float z
property uchar red
property uchar green
property uchar blue
property uchar alpha
element face 36
property list uchar uint vertex_indices
end_header
-0.091086 -0.500056 -0.128310 82 49 34 255
-0.091086 -0.446444 -0.128310 82 49 34 255
0.091086 -0.446444 -0.128310 82 49 34 255
0.091086 -0.500056 -0.128310 83 50 35 255
0.091086 -0.446444 0.128310 82 49 34 255
0.091086 -0.500056 0.128310 82 49 34 255
-0.091086 -0.446444 0.128310 83 50 34 255
-0.091086 -0.500056 0.128310 82 49 34 255
0.047844 -0.420732 -0.067396 120 72 50 255
0.047844 -0.420732 0.067396 120 72 50 255
-0.047844 -0.420732 0.067396 120 72 50 255
0.047844 0.405423 0.067396 161 97 67 255
-0.047844 0.405423 0.067396 161 97 67 255
-0.047844 -0.420732 -0.067396 120 72 50 255
-0.047844 0.405423 -0.067396 161 97 67 255
-0.090224 0.430146 0.127095 104 62 43 255
-0.090224 0.430146 -0.127095 104 62 43 255
0.047844 0.405423 -0.067396 161 97 67 255
0.090224 0.430146 0.127095 104 62 43 255
0.090224 0.499774 0.127095 104 62 43 255
-0.090224 0.499774 0.127095 104 62 43 255
0.090224 0.430146 -0.127095 104 62 43 255
0.090224 0.499774 -0.127095 104 62 43 255
-0.090224 0.499774 -0.127095 104 62 43 255
-0.080000 -0.313447 -0.442750 70 42 29 255
-0.080000 0.313447 -0.442750 82 49 34 255
-0.000000 0.313447 -0.442750 82 49 34 255
-0.000000 -0.313447 -0.442750 70 42 29 255
0.000000 0.313447 0.442750 82 49 34 255
0.000000 -0.313447 0.442750 70 42 29 255
-0.080000 0.313447 0.442750 82 49 34 255
-0.080000 -0.313447 0.442750 70 42 29 255
-0.080000 -0.279144 0.404380 70 42 29 255
-0.080000 -0.279144 -0.409033 70 42 29 255
-0.050000 -0.279144 0.406707 91 54 37 255
-0.050000 -0.279144 -0.406707 93 55 38 255
-0.080000 0.279144 -0.409033 82 49 34 255
-0.080000 0.279144 0.404380 82 49 34 255
-0.050000 0.279144 0.406707 93 55 38 255
-0.050000 0.279144 -0.406707 93 55 38 255
4 0 1 2 3
4 3 2 4 5
4 5 4 6 7
4 7 6 1 0
4 3 5 7 0
4 4 2 8 9
4 10 9 11 12
4 6 4 9 10
4 2 1 13 8
4 1 6 10 13
4 14 12 15 16
4 8 13 14 17
4 13 10 12 14
4 9 8 17 11
4 15 18 19 20
4 11 17 21 18
4 12 11 18 15
4 17 14 16 21
4 19 22 23 20
4 21 16 23 22
4 16 15 20 23
4 18 21 22 19
4 24 25 26 27
4 27 26 28 29
4 29 28 30 31
4 24 31 32 33
4 27 29 31 24
4 28 26 25 30
4 33 32 34 35
4 30 25 36 37
4 31 30 37 32
4 25 24 33 36
4 34 38 39 35
4 36 33 35 39
4 37 36 39 38
4 32 37 38 34
