ply
format ascii 1.0
comment Created by Blender 2.83.20 - www.blender.org, source file: 'signwall.blend'
element vertex 40
property float x
property float y
property float z
property uchar red
property uchar green
property uchar blue
property uchar alpha
element face 30
property list uchar uint vertex_indices
end_header
0.420008 -0.313447 -0.441586 70 42 29 255
0.420008 0.313447 -0.441586 82 49 34 255
0.500008 0.313447 -0.441586 82 49 34 255
0.500008 -0.313447 -0.441586 70 42 29 255
0.500008 0.313447 0.443913 82 49 34 255
0.500008 -0.313447 0.443913 70 42 29 255
0.420008 0.313447 0.443913 82 49 34 255
0.420008 -0.313447 0.443913 70 42 29 255
0.420008 -0.279144 0.405543 70 42 29 255
0.420008 -0.279144 -0.407870 70 42 29 255
0.450000 -0.279144 0.406706 91 54 37 255
0.450000 -0.279144 -0.406707 93 55 38 255
0.420008 0.279144 -0.407870 82 49 34 255
0.420008 0.279144 0.405543 82 49 34 255
0.450000 0.279144 0.406706 93 55 38 255
0.450000 0.279144 -0.406707 93 55 38 255
0.263375 0.286895 -0.500000 72 43 30 255
0.242808 0.321203 -0.500000 72 43 30 255
0.500112 0.475458 -0.500000 76 50 40 255
0.500001 0.428756 -0.500000 72 43 30 255
0.500112 0.475458 0.500000 77 51 41 255
0.500002 0.428756 0.500000 72 43 30 255
0.242808 0.321203 0.500000 72 43 30 255
0.263376 0.286895 0.500000 72 43 30 255
0.500010 -0.053700 0.451396 147 97 66 255
0.277126 0.313580 0.451396 126 84 57 255
0.328420 0.344707 0.451396 116 77 52 255
0.500017 0.061940 0.451396 147 97 66 255
0.328420 0.344707 0.491396 116 77 52 255
0.500017 0.061940 0.491396 147 97 66 255
0.277126 0.313580 0.491396 116 77 52 255
0.500010 -0.053700 0.491396 147 97 66 255
0.500010 -0.053700 -0.490827 147 97 66 255
0.278133 0.311920 -0.490827 126 84 57 255
0.329427 0.343047 -0.490827 116 77 52 255
0.500017 0.061940 -0.490827 147 97 66 255
0.329427 0.343047 -0.450827 116 77 52 255
0.500017 0.061940 -0.450827 147 97 66 255
0.278133 0.311920 -0.450827 116 77 52 255
0.500010 -0.053700 -0.450827 147 97 66 255
4 0 1 2 3
4 3 2 4 5
4 5 4 6 7
4 0 7 8 9
4 3 5 7 0
4 4 2 1 6
4 9 8 10 11
4 6 1 12 13
4 7 6 13 8
4 1 0 9 12
4 10 14 15 11
4 12 9 11 15
4 13 12 15 14
4 8 13 14 10
4 16 17 18 19
4 19 18 20 21
4 21 20 22 23
4 23 22 17 16
4 19 21 23 16
4 20 18 17 22
4 24 25 26 27
4 27 26 28 29
4 29 28 30 31
4 31 30 25 24
4 27 29 31 24
4 32 33 34 35
4 35 34 36 37
4 37 36 38 39
4 39 38 33 32
4 35 37 39 32
