ply
format ascii 1.0
comment Created by Blender 2.82 (sub 7) - www.blender.org, source file: 'slinger.blend'
element vertex 32
property float x
property float y
property float z
property uchar red
property uchar green
property uchar blue
property uchar alpha
element face 42
property list uchar uint vertex_indices
end_header
0.095405 -0.300000 0.334000 148 148 148 255
-0.031465 -0.400000 0.431489 138 138 138 255
0.095405 -0.400000 0.334000 138 138 138 255
-0.031465 -0.300000 0.431489 138 138 138 255
-0.092395 -0.400000 0.352195 139 139 139 255
-0.092395 -0.300000 0.352195 138 138 138 255
0.034474 -0.400000 0.254706 138 138 138 255
0.034474 -0.300000 0.254706 138 138 138 255
0.169549 -0.400000 0.297923 139 139 139 255
0.114289 -0.500000 0.448077 138 138 138 255
0.169549 -0.500000 0.297923 141 141 141 255
0.114289 -0.400000 0.448077 138 138 138 255
0.020443 -0.500000 0.413539 138 138 138 255
0.020443 -0.400000 0.413539 138 138 138 255
0.075703 -0.500000 0.263385 138 138 138 255
0.075703 -0.400000 0.263385 141 141 141 255
-0.110594 -0.400000 0.315555 138 138 138 255
0.010899 -0.500000 0.419668 138 138 138 255
-0.110594 -0.500000 0.315555 138 138 138 255
0.010899 -0.400000 0.419668 138 138 138 255
-0.054172 -0.500000 0.495601 144 144 144 255
-0.054172 -0.400000 0.495601 138 138 138 255
-0.175664 -0.500000 0.391488 139 139 139 255
-0.175664 -0.400000 0.391488 138 138 138 255
0.060268 -0.400000 0.272848 138 138 138 255
-0.092029 -0.500000 0.321895 138 138 138 255
0.060268 -0.500000 0.272848 138 138 138 255
-0.092029 -0.400000 0.321895 138 138 138 255
-0.122683 -0.500000 0.226709 138 138 138 255
-0.122683 -0.400000 0.226709 138 138 138 255
0.029614 -0.500000 0.177662 138 138 138 255
0.029614 -0.400000 0.177662 138 138 138 255
3 0 1 2
3 3 4 1
3 5 6 4
3 7 2 6
3 4 2 1
3 3 7 5
3 8 9 10
3 11 12 9
3 13 14 12
3 15 10 14
3 5 7 6
3 13 8 15
3 16 17 18
3 19 20 17
3 21 22 20
3 23 18 22
3 3 5 4
3 19 23 21
3 24 25 26
3 27 28 25
3 29 30 28
3 31 26 30
3 0 3 1
3 27 31 29
3 7 0 2
3 4 6 2
3 3 0 7
3 8 11 9
3 11 13 12
3 13 15 14
3 15 8 10
3 13 11 8
3 16 19 17
3 19 21 20
3 21 23 22
3 23 16 18
3 19 16 23
3 24 27 25
3 27 29 28
3 29 31 30
3 31 24 26
3 27 24 31
