ply
format ascii 1.0
comment Created by Blender 2.78 (sub 0) - www.blender.org, source file: ''
element vertex 56
property float x
property float y
property float z
property uchar red
property uchar green
property uchar blue
element face 108
property list uchar uint vertex_indices
end_header
0.000000 -0.030000 -0.000000 255 0 0
0.000000 -0.027029 -0.013017 255 0 0
0.008367 -0.027029 -0.009971 255 0 0
0.000000 -0.006676 -0.029248 255 0 0
0.015077 -0.018705 -0.017968 255 0 0
0.000000 -0.018705 -0.023455 255 0 0
0.000000 0.006676 -0.029248 255 0 0
0.015077 0.018705 -0.017968 255 0 0
0.018800 0.006676 -0.022405 255 0 0
0.000000 0.027029 -0.013017 255 0 0
0.000000 0.030000 0.000000 255 0 0
0.008367 0.027029 -0.009971 255 0 0
0.018800 -0.006676 -0.022405 255 0 0
0.000000 0.018705 -0.023455 255 0 0
0.012819 -0.027029 -0.002260 255 0 0
0.028803 -0.006676 -0.005079 255 0 0
0.023099 -0.018705 -0.004073 255 0 0
0.028803 0.006676 -0.005079 255 0 0
0.012819 0.027029 -0.002260 255 0 0
0.023099 0.018705 -0.004073 255 0 0
0.011273 -0.027029 0.006508 255 0 0
0.025329 -0.006676 0.014624 255 0 0
0.020313 -0.018705 0.011727 255 0 0
0.025329 0.006676 0.014624 255 0 0
0.011273 0.027029 0.006508 255 0 0
0.020313 0.018705 0.011727 255 0 0
0.010003 0.006676 0.027484 255 0 0
0.004452 0.027029 0.012232 255 0 0
0.004452 -0.027029 0.012232 255 0 0
0.010003 -0.006676 0.027484 255 0 0
0.008022 0.018705 0.022040 255 0 0
0.008022 -0.018705 0.022040 255 0 0
-0.008022 -0.018705 0.022040 255 0 0
-0.004452 -0.027029 0.012232 255 0 0
-0.010003 -0.006676 0.027484 255 0 0
-0.008022 0.018705 0.022040 255 0 0
-0.010003 0.006676 0.027484 255 0 0
-0.004452 0.027029 0.012232 255 0 0
-0.020313 -0.018705 0.011727 255 0 0
-0.011273 -0.027029 0.006508 255 0 0
-0.025329 -0.006676 0.014624 255 0 0
-0.020313 0.018705 0.011727 255 0 0
-0.025329 0.006676 0.014624 255 0 0
-0.011273 0.027029 0.006508 255 0 0
-0.012819 0.027029 -0.002260 255 0 0
-0.023099 0.018705 -0.004073 255 0 0
-0.012819 -0.027029 -0.002260 255 0 0
-0.028803 -0.006676 -0.005079 255 0 0
-0.023099 -0.018705 -0.004073 255 0 0
-0.028803 0.006676 -0.005079 255 0 0
-0.008367 -0.027029 -0.009971 255 0 0
-0.018800 -0.006676 -0.022405 255 0 0
-0.015077 -0.018705 -0.017968 255 0 0
-0.018800 0.006676 -0.022405 255 0 0
-0.008367 0.027029 -0.009971 255 0 0
-0.015077 0.018705 -0.017968 255 0 0
3 0 1 2
3 3 4 5
3 6 7 8
3 9 10 11
3 5 2 1
3 6 12 3
3 13 11 7
3 0 2 14
3 4 15 16
3 7 17 8
3 11 10 18
3 2 16 14
3 8 15 12
3 11 19 7
3 0 14 20
3 16 21 22
3 19 23 17
3 18 10 24
3 16 20 14
3 17 21 15
3 18 25 19
3 25 26 23
3 24 10 27
3 22 28 20
3 23 29 21
3 24 30 25
3 0 20 28
3 22 29 31
3 28 32 33
3 26 34 29
3 27 35 30
3 0 28 33
3 29 32 31
3 30 36 26
3 27 10 37
3 33 38 39
3 36 40 34
3 37 41 35
3 0 33 39
3 32 40 38
3 35 42 36
3 37 10 43
3 41 44 45
3 0 39 46
3 38 47 48
3 41 49 42
3 43 10 44
3 38 46 39
3 42 47 40
3 0 46 50
3 48 51 52
3 45 53 49
3 44 10 54
3 48 50 46
3 49 51 47
3 44 55 45
3 51 5 52
3 55 6 53
3 54 10 9
3 50 5 1
3 53 3 51
3 54 13 55
3 0 50 1
3 3 12 4
3 6 13 7
3 5 4 2
3 6 8 12
3 13 9 11
3 4 12 15
3 7 19 17
3 2 4 16
3 8 17 15
3 11 18 19
3 16 15 21
3 19 25 23
3 16 22 20
3 17 23 21
3 18 24 25
3 25 30 26
3 22 31 28
3 23 26 29
3 24 27 30
3 22 21 29
3 28 31 32
3 26 36 34
3 27 37 35
3 29 34 32
3 30 35 36
3 33 32 38
3 36 42 40
3 37 43 41
3 32 34 40
3 35 41 42
3 41 43 44
3 38 40 47
3 41 45 49
3 38 48 46
3 42 49 47
3 48 47 51
3 45 55 53
3 48 52 50
3 49 53 51
3 44 54 55
3 51 3 5
3 55 13 6
3 50 52 5
3 53 6 3
3 54 9 13
