ply
format ascii 1.0
comment Created by Blender 2.78 (sub 0) - www.blender.org, source file: 'spinningwheel.blend'
element vertex 126
property float x
property float y
property float z
property uchar red
property uchar green
property uchar blue
element face 118
property list uchar uint vertex_indices
end_header
-0.440741 -0.031273 -0.038236 145 108 72
-0.038170 0.048019 0.022034 153 121 95
-0.038170 0.048019 -0.019793 153 121 95
-0.440741 -0.031273 0.047763 145 108 72
-0.032631 0.019893 0.022034 153 121 95
-0.435201 -0.059399 -0.038236 147 110 74
-0.032631 0.019893 -0.019793 154 122 96
-0.435201 -0.059399 -0.038236 145 108 72
-0.032631 0.019893 -0.019793 153 121 95
-0.435201 -0.059399 0.047763 145 108 72
-0.363259 0.290259 -0.038236 138 101 64
-0.013548 0.075661 0.022034 153 121 95
-0.013548 0.075661 -0.019793 153 121 95
-0.378252 0.265827 0.047763 145 108 72
-0.028541 0.051228 0.022034 153 121 95
-0.028541 0.051228 0.022034 204 154 112
-0.378252 0.265827 -0.038236 145 108 72
-0.028541 0.051228 -0.019793 204 154 112
-0.378252 0.265827 -0.038236 138 101 64
-0.028541 0.051228 -0.019793 153 121 95
-0.363259 0.290260 0.047763 145 108 72
-0.113988 0.477937 -0.038236 146 109 73
0.010530 0.086982 0.022034 153 121 95
0.010530 0.086982 -0.019793 153 121 95
-0.141302 0.469237 0.047763 145 108 72
-0.016784 0.078283 0.022034 153 121 95
-0.016784 0.078283 0.022034 180 139 104
-0.141302 0.469237 -0.038236 145 108 72
-0.016784 0.078283 -0.019793 204 154 112
-0.016784 0.078283 -0.019793 153 121 95
-0.113987 0.477937 0.047763 145 108 72
0.235558 0.419113 -0.038236 145 108 72
0.021156 0.069282 0.022034 153 121 95
0.021156 0.069282 -0.019794 153 121 95
0.235558 0.419113 0.047763 145 108 72
-0.003285 0.084261 0.022034 153 121 95
-0.003285 0.084261 0.022034 160 126 98
0.211117 0.434093 -0.038236 145 108 72
-0.003285 0.084261 -0.019794 204 154 112
-0.003285 0.084261 -0.019794 153 121 95
0.211117 0.434093 0.047763 145 108 72
0.425724 0.140810 -0.038236 145 108 72
0.025214 0.051690 0.022034 153 121 95
0.025214 0.051690 -0.019794 154 122 96
0.425724 0.140810 0.047763 145 108 72
0.018988 0.079672 0.022034 153 121 95
0.419497 0.168792 -0.038236 145 108 72
0.018988 0.079672 -0.019794 153 121 95
0.025214 0.051690 -0.019794 153 121 95
0.419497 0.168792 -0.038236 153 118 85
0.419497 0.168792 0.047763 145 108 72
0.366742 -0.181682 -0.038236 145 108 72
0.012314 0.025032 0.022034 204 154 112
0.012314 0.025032 -0.019794 204 154 112
0.012314 0.025032 0.022034 153 121 95
0.381184 -0.156920 0.047763 145 108 72
0.026756 0.049794 0.022034 153 121 95
0.381184 -0.156920 -0.038236 138 101 64
0.026756 0.049794 -0.019794 153 121 95
0.012314 0.025032 -0.019794 153 121 95
0.366742 -0.181682 0.047763 138 101 64
0.381184 -0.156920 0.047763 138 101 64
0.102467 -0.375651 -0.038236 145 108 72
-0.019529 0.016098 0.022034 153 121 95
-0.019529 0.016098 -0.019794 153 121 95
0.129837 -0.367128 0.047763 145 108 72
0.007841 0.024621 0.022034 153 121 95
0.129837 -0.367128 -0.038236 145 108 72
0.007841 0.024621 -0.019794 153 121 95
0.102467 -0.375651 0.047763 154 120 86
0.129837 -0.367128 0.047763 157 124 95
-0.255175 -0.318783 -0.038269 145 108 72
-0.039297 0.030139 0.022002 154 122 96
-0.039297 0.030139 -0.019826 202 152 112
-0.255175 -0.318783 0.047730 145 108 72
-0.014920 0.015057 0.022002 153 121 95
-0.039297 0.030139 0.022002 153 121 95
-0.230798 -0.333866 -0.038269 145 108 72
-0.014920 0.015057 -0.019826 153 121 95
-0.039297 0.030139 -0.019826 153 121 95
-0.230798 -0.333866 0.047730 145 108 72
0.105502 -0.499999 -0.382823 120 90 62
0.105503 -0.438518 0.381032 126 97 70
0.105503 -0.499999 0.381032 120 90 62
0.105503 -0.438518 0.381032 120 90 62
-0.118110 -0.499999 0.381032 120 90 62
-0.118110 -0.438517 -0.382823 120 90 62
-0.118110 -0.499999 -0.382823 120 90 62
0.105503 -0.438517 -0.382823 120 90 62
-0.118110 -0.438517 0.381032 120 90 62
0.055517 0.112674 0.132618 133 99 69
0.055517 -0.448535 0.243642 120 90 62
0.055517 -0.448535 0.132618 120 90 62
0.055517 0.112674 0.243642 133 99 69
-0.055508 -0.448535 0.243642 120 90 62
-0.055508 0.112674 0.243642 133 99 69
-0.055508 -0.448535 0.132618 120 90 62
-0.055508 0.112674 0.132618 133 99 69
0.055517 0.116461 -0.243648 136 103 74
0.055517 -0.448535 -0.132623 120 90 62
0.055517 -0.448535 -0.243648 120 90 62
0.055517 0.116461 -0.132623 133 99 69
-0.055508 -0.448535 -0.132623 120 90 62
-0.055508 0.116461 -0.243648 133 99 69
-0.055508 -0.448535 -0.243648 120 90 62
0.055517 0.116461 -0.243648 133 99 69
-0.055508 0.116461 -0.132623 133 99 69
0.043560 0.068697 -0.141495 186 147 84
-0.008842 0.100853 0.144050 186 147 84
0.043560 0.068697 0.144050 186 147 84
-0.052344 0.029962 0.144050 186 147 84
0.000058 -0.002195 -0.141495 186 147 84
0.000058 -0.002195 0.144050 186 147 84
0.000058 -0.002195 -0.141495 188 151 89
-0.008842 0.100853 -0.141495 186 147 84
-0.052344 0.029961 -0.141495 186 147 84
-0.363259 0.290260 0.047763 138 101 64
-0.363259 0.290259 -0.038236 145 108 72
-0.113988 0.477937 -0.038236 145 108 72
0.419497 0.168792 0.047763 152 117 83
0.425724 0.140810 -0.038236 150 114 80
0.366742 -0.181682 0.047763 145 108 72
0.366742 -0.181682 -0.038236 138 101 64
0.102467 -0.375651 0.047763 145 108 72
-0.008842 0.100853 -0.141495 192 155 96
-0.008842 0.100853 0.144050 190 153 93
3 0 1 2
3 3 4 1
3 4 5 6
3 7 2 8
3 3 7 9
3 10 11 12
3 11 13 14
3 15 16 17
3 18 12 19
3 20 16 13
3 21 22 23
3 22 24 25
3 26 27 28
3 27 23 29
3 30 27 24
3 31 32 33
3 34 35 32
3 36 37 38
3 39 31 33
3 40 31 37
3 41 42 43
3 44 45 42
3 45 46 47
3 47 41 48
3 44 49 50
3 51 52 53
3 54 55 56
3 56 57 58
3 57 59 58
3 60 57 61
3 62 63 64
3 63 65 66
3 66 67 68
3 67 64 68
3 69 67 70
3 71 72 73
3 74 75 76
3 75 77 78
3 78 71 79
3 80 71 77
3 81 82 83
3 84 85 83
3 85 86 87
3 87 88 81
3 89 88 86
3 90 91 92
3 93 94 91
3 95 96 94
3 96 90 92
3 93 97 95
3 98 99 100
3 101 102 99
3 102 103 104
3 104 105 100
3 106 105 103
3 107 108 109
3 110 111 112
3 109 113 107
3 110 114 115
3 0 3 1
3 3 9 4
3 4 9 5
3 7 0 2
3 3 0 7
3 10 116 11
3 11 20 13
3 15 13 16
3 18 10 12
3 20 117 16
3 21 30 22
3 22 30 24
3 26 24 27
3 27 118 23
3 30 118 27
3 31 34 32
3 34 40 35
3 36 40 37
3 39 37 31
3 40 34 31
3 41 44 42
3 44 50 45
3 45 119 46
3 47 46 41
3 44 120 49
3 51 121 52
3 54 121 55
3 56 61 57
3 57 122 59
3 60 122 57
3 62 123 63
3 63 123 65
3 66 70 67
3 67 62 64
3 69 62 67
3 71 74 72
3 74 80 75
3 75 80 77
3 78 77 71
3 80 74 71
3 81 88 82
3 84 89 85
3 85 89 86
3 87 86 88
3 89 84 88
3 90 93 91
3 93 95 94
3 95 97 96
3 96 97 90
3 93 90 97
3 98 101 99
3 101 106 102
3 102 106 103
3 104 103 105
3 106 101 105
3 107 124 108
3 110 115 111
3 109 112 113
3 110 125 114
