ply
format ascii 1.0
comment Created by Blender 2.82 (sub 7) - www.blender.org, source file: '1Choppingblock.blend'
element vertex 68
property float x
property float y
property float z
property uchar red
property uchar green
property uchar blue
property uchar alpha
element face 61
property list uchar uint vertex_indices
end_header
-0.500000 -0.500000 -0.000000 116 74 58 255
-0.353553 -0.500000 0.353553 116 74 58 255
-0.353553 0.202292 0.353553 116 74 58 255
-0.500000 0.202292 -0.000000 116 74 58 255
-0.353553 -0.500000 -0.353553 116 74 58 255
-0.353553 0.202292 -0.353553 116 74 58 255
0.000000 -0.500000 -0.500000 116 74 58 255
0.000000 0.202292 -0.500000 116 74 58 255
0.353553 -0.500000 -0.353553 116 74 58 255
0.353553 0.202292 -0.353553 116 74 58 255
-0.029200 0.425590 0.152605 190 155 112 255
0.005299 0.425668 0.129553 190 155 112 255
0.028908 0.499794 0.165140 190 155 112 255
-0.005591 0.499715 0.188192 190 155 112 255
0.000000 -0.500000 0.500000 116 74 58 255
0.000000 0.202292 0.500000 116 74 58 255
0.320490 0.202292 0.320490 116 74 58 255
-0.000000 0.202292 0.453241 116 74 58 255
0.353553 0.202292 0.353553 116 74 58 255
0.500000 -0.500000 0.000000 116 74 58 255
0.500000 0.202292 0.000000 116 74 58 255
0.353553 -0.500000 0.353553 116 74 58 255
-0.441081 0.196376 -0.000000 185 133 87 255
-0.453241 0.202292 -0.000000 116 74 58 255
-0.320490 0.202292 0.320490 119 77 60 255
-0.311891 0.196376 0.311891 180 135 92 255
-0.320490 0.202292 -0.320490 116 74 58 255
0.000000 0.202292 -0.453241 117 74 57 255
0.453241 0.202292 0.000000 118 76 59 255
0.320490 0.202292 -0.320490 116 74 58 255
-0.000000 0.196376 0.441081 190 137 89 255
0.311891 0.196376 0.311891 190 137 89 255
0.441081 0.196376 0.000000 190 137 89 255
-0.130177 0.202531 -0.036774 168 143 136 255
-0.131363 0.202529 -0.035981 168 143 136 255
-0.105344 0.272565 0.047450 131 111 106 255
-0.062285 0.272664 0.018679 131 111 106 255
0.311891 0.196376 -0.311891 188 135 88 255
0.000000 0.196376 -0.441081 189 136 89 255
-0.311891 0.196376 -0.311891 190 137 89 255
-0.043923 0.409575 0.139841 131 111 106 255
-0.000864 0.409674 0.111069 131 111 106 255
-0.341156 0.812157 -0.387626 190 155 112 255
-0.137679 0.542836 -0.084025 190 155 112 255
-0.172177 0.542758 -0.060974 196 166 128 255
-0.375655 0.812078 -0.364575 190 155 112 255
-0.061198 0.458718 0.104829 190 155 112 255
-0.026700 0.458797 0.081778 190 155 112 255
-0.352045 0.886204 -0.328988 190 155 112 255
-0.148568 0.616883 -0.025387 190 155 112 255
-0.114069 0.616962 -0.048438 190 155 112 255
-0.317546 0.886283 -0.352040 190 155 112 255
0.112290 0.450140 0.280553 131 111 106 255
0.036888 0.528204 0.167975 131 111 106 255
-0.006171 0.528105 0.196746 131 111 106 255
0.069231 0.450041 0.309325 131 111 106 255
-0.003090 0.532922 0.117365 190 155 112 255
-0.446621 0.886720 -0.545210 147 119 86 255
-0.481120 0.886641 -0.522158 146 119 85 255
-0.457510 0.960766 -0.486571 148 120 87 255
-0.037589 0.532843 0.140416 190 155 112 255
-0.423011 0.960845 -0.509623 145 118 85 255
0.031479 0.331511 0.252419 131 111 106 255
0.074537 0.331610 0.223648 131 111 106 255
-0.023249 0.091829 0.122874 168 143 136 255
-0.024436 0.091826 0.123668 168 143 136 255
0.026489 0.180755 0.151224 131 111 106 255
-0.016569 0.180656 0.179995 131 111 107 255
4 0 1 2 3
4 4 0 3 5
4 6 4 5 7
4 8 6 7 9
4 10 11 12 13
4 1 14 15 2
4 16 17 15 18
4 19 8 9 20
4 21 19 20 18
4 22 23 24 25
4 26 27 7 5
4 16 18 20 28
4 24 23 3 2
4 28 20 9 29
4 27 29 9 7
4 24 2 15 17
3 22 25 30
3 30 31 32
4 33 34 35 36
3 37 38 22
3 38 39 22
4 31 16 28 32
4 22 39 26 23
4 26 5 3 23
4 37 29 27 38
4 25 24 17 30
4 39 38 27 26
4 30 17 16 31
4 35 40 41 36
4 42 43 44 45
4 46 47 11 10
4 48 49 50 51
4 52 53 54 55
4 11 47 56 12
4 50 56 47 43
4 57 42 45 58
4 59 58 45 48
4 49 44 46 60
4 58 59 61 57
4 42 51 50 43
4 59 48 51 61
4 55 62 63 52
4 34 33 64 65
4 49 60 56 50
4 64 33 36 66
4 61 51 42 57
4 66 36 41 63
4 67 66 63 62
4 45 44 49 48
4 64 66 67 65
4 43 47 46 44
4 13 60 46 10
4 40 35 67 62
4 32 28 29 37
4 65 67 35 34
4 22 30 32 37
4 53 41 40 54
4 56 60 13 12
4 53 52 63 41
4 14 21 18 15
4 55 54 40 62
