ply
format ascii 1.0
comment Created by Blender 2.82 (sub 7) - www.blender.org, source file: 'statisticsboard.blend'
element vertex 85
property float x
property float y
property float z
property uchar red
property uchar green
property uchar blue
property uchar alpha
element face 114
property list uchar uint vertex_indices
end_header
0.027747 0.738286 -0.002517 173 160 146 255
0.027747 0.400244 0.222845 173 160 146 255
0.027747 0.400244 -0.002517 173 160 146 255
0.027747 0.738286 0.222845 174 161 147 255
0.005211 0.400244 0.222845 173 160 146 255
0.005211 0.738286 0.222845 173 160 146 255
0.005211 0.400244 -0.002517 173 160 146 255
0.005211 0.738286 -0.002517 173 160 146 255
0.020000 1.327043 -0.400000 170 129 107 255
0.020000 0.327043 0.400000 170 129 107 255
0.020000 0.327043 -0.400000 171 130 109 255
-0.020000 1.327043 0.400000 170 129 107 255
-0.020000 0.327043 -0.400000 170 129 107 255
-0.020000 0.327043 0.400000 170 129 107 255
0.000774 1.460037 0.500000 99 75 62 255
-0.320636 1.216736 0.500000 99 75 62 255
0.000727 1.400239 0.500000 99 75 62 255
-0.345636 1.260037 0.500000 99 75 62 255
-0.320636 1.216736 -0.500000 99 75 62 255
0.000680 1.460037 -0.500000 99 75 62 255
0.000727 1.400225 -0.500000 99 75 62 255
-0.345636 1.260037 -0.500000 99 75 62 255
0.347090 1.260037 -0.500000 99 75 62 255
0.322090 1.216736 0.500000 99 75 62 255
0.322090 1.216736 -0.500000 99 75 62 255
0.000727 1.400225 -0.500000 99 76 63 255
0.347090 1.260037 0.500000 99 75 62 255
0.050000 1.400000 -0.480000 119 90 75 255
0.050000 -0.500000 -0.380000 122 93 80 255
0.050000 -0.500000 -0.480000 119 90 75 255
-0.050000 1.400000 -0.380000 119 90 75 255
-0.050000 -0.500000 -0.380000 119 90 75 255
-0.050000 -0.500000 -0.480000 120 91 76 255
-0.050000 1.400000 -0.480000 120 91 76 255
0.050000 1.400000 0.380000 119 90 75 255
0.050000 -0.500000 0.480000 119 90 75 255
0.050000 -0.500000 0.380000 119 90 75 255
-0.050000 1.400000 0.480000 119 90 75 255
-0.050000 -0.500000 0.480000 119 90 75 255
-0.050000 -0.500000 0.380000 119 90 75 255
-0.050000 1.400000 0.380000 119 90 75 255
0.004825 1.195601 -0.327881 173 160 146 255
0.004825 0.710217 -0.004292 173 160 146 255
0.004825 0.710217 -0.327881 173 160 146 255
0.004825 1.195601 -0.004292 174 161 147 255
-0.027534 0.710217 -0.004292 173 160 146 255
-0.027534 1.195601 -0.004292 173 160 146 255
-0.027534 0.710217 -0.327881 173 160 146 255
-0.027534 1.195601 -0.327881 173 160 146 255
0.002203 0.851561 0.056792 173 160 146 255
0.002203 0.444850 0.327932 173 160 146 255
0.002203 0.444850 0.056792 173 160 146 255
0.002203 0.851561 0.327932 174 161 147 255
-0.024911 0.444850 0.327932 173 160 146 255
-0.024911 0.851561 0.327932 173 160 146 255
-0.024911 0.444850 0.056792 173 160 146 255
-0.024911 0.851561 0.056792 173 160 146 255
0.002203 1.229744 0.062919 173 160 146 255
0.002203 0.929744 0.334059 173 160 146 255
0.002203 0.929744 0.062919 173 160 146 255
0.002203 1.229744 0.334059 174 161 147 255
-0.024911 0.929744 0.334059 173 160 146 255
-0.024911 1.229744 0.334059 173 160 146 255
-0.024911 0.929744 0.062919 173 160 146 255
-0.024911 1.229744 0.062919 173 160 146 255
0.030152 1.242221 0.045549 173 160 146 255
0.030152 0.832029 0.319010 173 160 146 255
0.030152 0.832029 0.045549 173 160 146 255
0.030152 1.242221 0.319010 174 161 147 255
0.002806 0.832029 0.319010 173 160 146 255
0.002806 1.242221 0.319010 173 160 146 255
0.002806 0.832029 0.045549 173 160 146 255
0.002806 1.242221 0.045549 173 160 146 255
0.030698 1.204851 -0.323842 173 160 146 255
0.030698 0.778280 -0.039462 173 160 146 255
0.030698 0.778280 -0.323842 173 160 146 255
0.030698 1.204851 -0.039462 174 161 147 255
0.002260 0.778280 -0.039462 173 160 146 255
0.002260 1.204851 -0.039462 173 160 146 255
0.002260 0.778280 -0.323842 173 160 146 255
0.002260 1.204851 -0.323842 173 160 146 255
0.020000 1.327043 0.400000 171 132 110 255
-0.020000 1.327043 -0.400000 170 129 107 255
0.050000 1.400000 -0.380000 119 90 75 255
0.050000 1.400000 0.480000 119 91 76 255
3 0 1 2
3 3 4 1
3 5 6 4
3 7 2 6
3 4 2 1
3 3 7 5
3 8 9 10
3 11 12 13
3 13 10 9
3 14 15 16
3 17 18 15
3 18 19 20
3 15 20 16
3 14 21 17
3 22 23 24
3 23 14 16
3 19 24 25
3 16 24 23
3 26 19 14
3 27 28 29
3 28 30 31
3 30 32 31
3 33 29 32
3 34 35 36
3 35 37 38
3 37 39 38
3 40 36 39
3 41 42 43
3 44 45 42
3 46 47 45
3 48 43 47
3 45 43 42
3 44 48 46
3 49 50 51
3 52 53 50
3 54 55 53
3 56 51 55
3 53 51 50
3 52 56 54
3 57 58 59
3 60 61 58
3 62 63 61
3 64 59 63
3 61 59 58
3 60 64 62
3 65 66 67
3 68 69 66
3 70 71 69
3 72 67 71
3 69 67 66
3 68 72 70
3 73 74 75
3 76 77 74
3 78 79 77
3 80 75 79
3 77 75 74
3 76 80 78
3 0 3 1
3 3 5 4
3 5 7 6
3 7 0 2
3 4 6 2
3 3 0 7
3 8 81 9
3 11 82 12
3 13 12 10
3 14 17 15
3 17 21 18
3 18 21 19
3 15 18 20
3 14 19 21
3 22 26 23
3 23 26 14
3 19 22 24
3 16 25 24
3 26 22 19
3 27 83 28
3 28 83 30
3 30 33 32
3 33 27 29
3 34 84 35
3 35 84 37
3 37 40 39
3 40 34 36
3 41 44 42
3 44 46 45
3 46 48 47
3 48 41 43
3 45 47 43
3 44 41 48
3 49 52 50
3 52 54 53
3 54 56 55
3 56 49 51
3 53 55 51
3 52 49 56
3 57 60 58
3 60 62 61
3 62 64 63
3 64 57 59
3 61 63 59
3 60 57 64
3 65 68 66
3 68 70 69
3 70 72 71
3 72 65 67
3 69 71 67
3 68 65 72
3 73 76 74
3 76 78 77
3 78 80 79
3 80 73 75
3 77 79 75
3 76 73 80
