ply
format ascii 1.0
comment Created by Blender 3.3.1 - www.blender.org
element vertex 88
property float x
property float y
property float z
property uchar red
property uchar green
property uchar blue
property uchar alpha
element face 85
property list uchar uint vertex_indices
end_header
-0.500000 0.450000 -0.450000 154 155 160 255
-0.500000 0.359361 0.359361 154 155 160 255
-0.500000 0.450000 0.450000 154 155 160 255
-0.450000 -0.500000 -0.450000 153 154 158 255
-0.500000 -0.450000 -0.450000 154 155 160 255
-0.450000 -0.450000 -0.500000 154 155 160 255
-0.450000 0.500000 -0.450000 154 155 160 255
-0.450000 0.450000 -0.500000 154 155 160 255
0.450000 -0.500000 -0.450000 147 142 145 255
0.450000 -0.450000 -0.500000 154 155 160 255
0.500000 -0.450000 -0.450000 153 154 158 255
0.450000 0.500000 -0.450000 154 155 160 255
0.500000 0.450000 -0.450000 153 154 158 255
0.450000 0.450000 -0.500000 154 155 160 255
-0.450000 -0.500000 0.450000 154 155 160 255
-0.450000 -0.450000 0.500000 154 155 160 255
-0.500000 -0.450000 0.450000 154 155 160 255
-0.450000 0.500000 0.450000 154 155 160 255
-0.450000 0.450000 0.500000 154 155 160 255
0.450000 -0.500000 0.450000 154 155 160 255
0.500000 -0.450000 0.450000 154 155 160 255
0.450000 -0.450000 0.500000 154 155 160 255
0.450000 0.500000 0.450000 154 155 160 255
0.450000 0.450000 0.500000 152 148 151 255
0.500000 0.450000 0.450000 154 155 160 255
-0.500000 -0.359361 -0.359361 154 155 160 255
-0.500000 0.359361 -0.359361 154 155 160 255
-0.500000 -0.359361 0.359361 154 155 160 255
-0.456585 0.114636 0.018781 130 89 43 255
-0.425502 0.114636 0.018781 143 110 49 255
-0.425502 0.139690 0.043835 143 110 49 255
-0.456585 0.139690 0.043835 130 90 45 255
-0.408121 -0.333187 -0.333187 117 125 132 255
-0.408121 -0.333187 0.333187 121 126 131 255
-0.456585 0.139690 -0.041703 131 91 47 255
-0.425502 0.139690 -0.041703 143 110 49 255
-0.425502 0.114636 -0.016650 142 111 60 255
-0.456585 0.114636 -0.016650 130 89 43 255
-0.408121 0.333187 -0.333187 109 119 126 255
-0.408121 0.333187 0.333187 109 119 126 255
-0.425502 0.200174 0.018781 143 110 49 255
-0.425502 0.175121 0.043835 143 110 51 255
-0.425502 0.186416 0.071104 142 112 59 255
-0.425502 0.227443 0.030076 143 110 49 255
-0.456585 0.175121 0.043835 130 89 43 255
-0.456585 0.200174 0.018781 130 89 43 255
-0.463359 -0.125745 -0.044011 127 80 28 255
-0.463359 -0.169419 0.000341 127 80 28 255
-0.463359 -0.125067 0.044016 127 80 28 255
-0.463359 -0.081392 -0.000337 127 80 28 255
-0.454854 -0.001525 0.108359 145 105 40 255
-0.435432 -0.001525 0.108359 145 105 40 255
-0.435432 -0.015153 0.122198 146 107 45 255
-0.454854 -0.015153 0.122198 145 105 40 255
-0.389481 -0.169419 0.000341 127 80 28 255
-0.389481 -0.125067 0.044016 127 80 29 255
-0.425502 0.128395 -0.068972 143 110 49 255
-0.400111 0.128395 -0.068972 143 110 49 255
-0.400111 0.087367 -0.027945 143 110 49 255
-0.425502 0.087367 -0.027945 143 110 49 255
-0.389481 -0.125745 -0.044011 127 80 29 255
-0.389481 -0.081392 -0.000337 127 80 28 255
-0.456585 0.175121 -0.041703 131 93 53 255
-0.454854 -0.236572 -0.123093 145 105 40 255
-0.435432 -0.236572 -0.123093 145 105 40 255
-0.435432 -0.250199 -0.109254 145 105 40 255
-0.454854 -0.250199 -0.109254 145 105 40 255
-0.435432 -0.016698 -0.123519 145 105 40 255
-0.435432 -0.002859 -0.109892 145 105 40 255
-0.435432 -0.234035 0.124874 145 105 40 255
-0.435432 -0.247874 0.111246 145 105 40 255
-0.400111 0.128395 0.071104 143 110 49 255
-0.400111 0.186416 0.071104 143 110 49 255
-0.425502 0.128395 0.071104 143 110 49 255
-0.454854 -0.234035 0.124874 145 105 40 255
-0.454854 -0.002859 -0.109892 145 105 40 255
-0.454854 -0.016698 -0.123519 145 105 40 255
-0.454854 -0.247874 0.111246 145 105 40 255
-0.425502 0.175121 -0.041703 143 110 49 255
-0.425502 0.200174 -0.016650 143 110 49 255
-0.456585 0.200174 -0.016650 130 89 44 255
-0.400111 0.227443 0.030076 143 110 49 255
-0.400111 0.227443 -0.027945 143 110 49 255
-0.425502 0.227443 -0.027945 143 110 49 255
-0.400111 0.186416 -0.068972 143 110 49 255
-0.425502 0.186416 -0.068972 143 110 49 255
-0.425502 0.087367 0.030076 143 110 49 255
-0.400111 0.087367 0.030076 143 110 49 255
3 0 1 2
3 3 4 5
3 0 6 7
3 8 9 10
3 11 12 13
3 14 15 16
3 17 2 18
3 19 20 21
3 22 23 24
3 16 25 4
3 4 26 0
3 2 27 16
3 0 26 1
4 17 22 11 6
4 9 5 7 13
4 20 10 12 24
4 9 8 3 5
4 5 4 0 7
4 7 6 11 13
4 13 12 10 9
4 20 19 8 10
4 12 11 22 24
4 24 23 21 20
4 15 14 19 21
4 23 22 17 18
4 18 2 16 15
4 4 3 14 16
4 2 17 6 0
4 3 8 19 14
4 28 29 30 31
4 32 25 27 33
3 16 27 25
3 4 25 26
3 2 1 27
4 34 35 36 37
4 38 26 25 32
4 39 1 26 38
4 40 41 42 43
4 44 41 40 45
4 46 47 48 49
4 50 51 52 53
4 47 54 55 48
4 56 57 58 59
4 54 60 61 55
4 60 46 49 61
4 37 36 29 28
4 31 45 62 28
4 63 64 65 66
4 67 68 69 70
4 71 72 42 73
4 64 63 50 51
4 74 75 76 77
4 62 78 35 34
4 65 64 51 52
4 45 40 79 80
4 75 68 67 76
4 81 82 83 43
4 48 55 61 49
4 72 81 43 42
4 63 66 53 50
4 82 84 85 83
4 77 70 69 74
4 40 43 83 79
4 86 87 71 73
4 59 58 87 86
4 76 67 70 77
4 35 56 59 36
4 29 86 73 30
4 36 59 86 29
4 79 83 85 78
4 78 85 56 35
4 41 30 73 42
3 31 44 45
3 45 80 62
3 62 34 37
3 37 28 62
4 33 27 1 39
4 68 75 74 69
4 66 65 52 53
4 84 57 56 85
4 31 30 41 44
4 80 79 78 62
4 32 33 39 38
4 46 60 54 47
4 15 21 23 18
