ply
format ascii 1.0
comment Created by Blender 2.82 (sub 7) - www.blender.org, source file: 'stonemasonworkbench.blend'
element vertex 72
property float x
property float y
property float z
property uchar red
property uchar green
property uchar blue
property uchar alpha
element face 107
property list uchar uint vertex_indices
end_header
-0.177347 -0.439392 0.281689 112 99 91 255
0.036844 0.289866 0.027016 158 126 88 255
0.001915 0.310596 0.071112 159 129 92 255
-0.142418 -0.460122 0.237593 110 97 88 255
-0.009989 0.290554 -0.010404 158 126 88 255
-0.189251 -0.459434 0.200172 126 111 98 255
-0.044918 0.311283 0.033691 158 126 88 255
-0.224180 -0.438705 0.244268 98 89 81 255
-0.160305 -0.417811 0.310221 139 132 134 255
-0.053902 -0.443341 0.406507 138 131 133 255
-0.043026 -0.397840 0.393732 138 131 133 255
-0.114672 -0.496849 0.251657 135 128 130 255
-0.199161 -0.449948 0.162684 139 132 134 255
-0.103796 -0.451348 0.238882 133 126 128 255
-0.266546 -0.461912 0.246799 139 132 134 255
-0.255670 -0.416411 0.234023 139 132 134 255
-0.210037 -0.495449 0.175460 139 132 134 255
-0.322046 -0.461312 0.070687 139 132 134 255
-0.311170 -0.415811 0.057912 139 132 134 255
-0.378555 -0.427775 0.142027 135 128 130 255
-0.455119 -0.313671 0.027738 139 132 134 255
-0.482003 -0.353963 0.025384 107 101 103 255
-0.367679 -0.382274 0.129251 134 127 129 255
0.002607 -0.476878 0.335168 139 132 134 255
0.089462 -0.383950 0.492108 98 93 94 255
-0.171181 -0.463312 0.322997 139 132 134 255
0.013483 -0.431377 0.322392 139 132 134 255
-0.425495 -0.387500 -0.045955 105 100 101 255
-0.398610 -0.347208 -0.043601 109 103 105 255
0.144254 -0.374028 0.399057 97 92 93 255
0.087176 -0.340802 0.470088 98 93 94 255
0.146540 -0.417176 0.421077 99 94 95 255
0.391381 -0.060417 -0.096882 210 200 186 255
0.126995 -0.499583 0.204505 177 169 157 255
0.390776 -0.500416 -0.096192 177 169 157 255
-0.203168 -0.059584 -0.086344 211 201 187 255
-0.203773 -0.499583 -0.085655 177 169 157 255
0.060613 -0.060417 -0.387041 210 200 186 255
0.060008 -0.500416 -0.386352 177 169 157 255
0.127600 -0.059584 0.203816 211 201 187 255
0.341863 0.262258 -0.181195 202 210 219 255
0.190634 -0.062258 0.105929 169 176 184 255
0.341863 -0.062258 -0.181195 169 176 184 255
0.190634 0.262258 0.105929 202 210 219 255
-0.096491 -0.062258 -0.045300 169 176 184 255
0.054738 0.262258 -0.332424 201 209 218 255
0.054738 -0.062258 -0.332424 169 176 184 255
-0.096491 0.262258 -0.045300 202 210 219 255
0.228659 0.460000 -0.206895 206 184 187 255
0.216333 0.260000 -0.007275 190 170 172 255
0.228659 0.260000 -0.206895 190 170 172 255
0.216333 0.460000 -0.007275 207 185 188 255
0.016714 0.260000 -0.019600 190 170 172 255
0.029039 0.460000 -0.219220 206 184 187 255
0.029039 0.260000 -0.219220 190 170 172 255
0.016714 0.460000 -0.019600 207 185 188 255
-0.296162 -0.292682 -0.429042 197 202 207 255
-0.191137 -0.501015 -0.249119 197 202 207 255
-0.296162 -0.501015 -0.429042 197 202 207 255
-0.476085 -0.292682 -0.324017 197 202 207 255
-0.251111 -0.431571 -0.214110 197 202 207 255
-0.251111 -0.292682 -0.214110 197 202 207 255
-0.321128 -0.431571 -0.334059 227 232 238 255
-0.191137 -0.292682 -0.249119 198 203 208 255
-0.476085 -0.501015 -0.324017 197 202 207 255
-0.441077 -0.431571 -0.264042 197 202 207 255
-0.441077 -0.292682 -0.264042 197 202 207 255
-0.371060 -0.431571 -0.144093 197 202 207 255
-0.321128 -0.292682 -0.334059 197 202 207 255
-0.371060 -0.501015 -0.144093 180 184 189 255
-0.371060 -0.501015 -0.144093 168 172 177 255
-0.321128 -0.431571 -0.334059 225 230 235 255
3 0 1 2
3 3 4 1
3 5 6 4
3 7 2 6
3 4 2 1
3 8 9 10
3 11 12 13
3 14 8 15
3 12 8 13
3 11 14 16
3 12 17 18
3 19 20 21
3 15 19 14
3 12 22 15
3 14 17 16
3 23 24 9
3 11 9 25
3 8 26 13
3 13 23 11
3 27 20 28
3 18 20 22
3 19 27 17
3 17 28 18
3 24 29 30
3 26 30 29
3 23 29 31
3 9 30 10
3 32 33 34
3 33 35 36
3 36 37 38
3 37 34 38
3 39 37 35
3 40 41 42
3 43 44 41
3 44 45 46
3 46 40 42
3 47 40 45
3 48 49 50
3 51 52 49
3 52 53 54
3 54 48 50
3 55 48 53
3 56 57 58
3 59 56 58
3 60 61 62
3 63 60 57
3 64 65 59
3 64 59 58
3 66 56 59
3 67 62 65
3 61 56 68
3 0 3 1
3 3 5 4
3 5 7 6
3 7 0 2
3 4 6 2
3 8 25 9
3 11 16 12
3 14 25 8
3 12 15 8
3 11 25 14
3 12 16 17
3 19 22 20
3 15 22 19
3 12 18 22
3 14 19 17
3 23 31 24
3 11 23 9
3 8 10 26
3 13 26 23
3 27 21 20
3 18 28 20
3 19 21 27
3 17 27 28
3 24 31 29
3 26 10 30
3 23 26 29
3 9 24 30
3 32 39 33
3 33 39 35
3 36 35 37
3 37 32 34
3 39 32 37
3 40 43 41
3 43 47 44
3 44 47 45
3 46 45 40
3 42 41 46
3 47 43 40
3 48 51 49
3 51 55 52
3 52 55 53
3 54 53 48
3 55 51 48
3 57 60 69
3 56 63 57
3 63 61 60
3 61 63 56
3 70 65 64
3 70 67 65
3 60 67 70
3 67 60 62
3 68 66 71
3 66 68 56
3 62 61 68
3 65 66 59
3 71 66 65
