ply
format ascii 1.0
comment Created by Blender 3.4.1 - www.blender.org
element vertex 32
property float x
property float y
property float z
property uchar red
property uchar green
property uchar blue
property uchar alpha
element face 30
property list uchar uint vertex_indices
end_header
0.500001 -0.500008 -0.400000 111 119 127 255
0.500001 -0.179682 -0.400000 169 168 173 255
0.500001 -0.179682 0.400000 169 168 173 255
0.500001 -0.500008 0.400000 111 119 127 255
-0.161867 -0.179682 0.400000 169 168 173 255
-0.161867 -0.500008 0.400000 111 119 127 255
-0.161867 -0.179682 -0.400000 169 168 173 255
-0.161867 -0.500008 -0.400000 111 119 127 255
-0.178814 -0.179682 0.418077 111 119 127 255
-0.178814 -0.179682 -0.418077 111 119 127 255
0.500000 -0.179682 0.418077 111 119 127 255
0.500000 -0.179682 -0.418077 113 120 127 255
0.500000 -0.162051 -0.418077 111 119 127 255
0.500000 -0.162051 0.418077 111 119 127 255
-0.178814 -0.162051 -0.418077 111 119 127 255
0.167338 -0.162051 -0.399585 111 119 127 255
0.499994 -0.162051 -0.399585 111 119 127 255
-0.178814 -0.162051 0.418077 111 119 127 255
0.167338 -0.162051 0.399585 111 119 127 255
0.167338 0.149421 0.399585 169 168 173 255
0.167338 0.149421 -0.399585 168 167 172 255
0.499994 -0.162051 0.399585 111 119 127 255
0.499994 0.149421 -0.399585 168 167 172 255
0.150010 0.149421 -0.412040 114 120 127 255
0.499997 0.149421 -0.412040 117 121 127 255
0.499994 0.149421 0.399585 164 163 168 255
0.150010 0.149421 0.412689 112 119 127 255
0.150010 0.166590 0.412689 111 119 127 255
0.150010 0.166590 -0.412040 111 119 127 255
0.499997 0.149421 0.412689 111 119 127 255
0.499997 0.166590 0.412689 111 119 127 255
0.499997 0.166590 -0.412040 111 119 127 255
4 0 1 2 3
4 3 2 4 5
4 5 4 6 7
4 7 6 1 0
4 3 5 7 0
4 6 4 8 9
4 10 11 12 13
4 2 1 11 10
4 1 6 9 11
4 4 2 10 8
4 12 14 15 16
4 11 9 14 12
4 8 10 13 17
4 9 8 17 14
4 15 18 19 20
4 17 13 21 18
4 14 17 18 15
4 13 12 16 21
4 22 20 23 24
4 21 16 22 25
4 16 15 20 22
4 18 21 25 19
4 23 26 27 28
4 19 25 29 26
4 20 19 26 23
4 25 22 24 29
4 27 30 31 28
4 29 24 31 30
4 24 23 28 31
4 26 29 30 27
