ply
format ascii 1.0
comment Created by Blender 2.78 (sub 0) - www.blender.org, source file: 'stove.blend'
element vertex 183
property float x
property float y
property float z
property uchar red
property uchar green
property uchar blue
element face 236
property list uchar uint vertex_indices
end_header
0.400000 0.522260 0.400000 69 69 69
-0.363078 0.522260 0.363078 69 69 69
-0.400000 0.522260 0.400000 69 69 69
-0.400000 -0.277740 -0.400000 46 47 46
-0.400000 -0.277740 0.400000 46 47 46
-0.400000 0.522260 -0.400000 69 69 69
0.400000 -0.277740 -0.400000 46 47 46
0.400000 -0.277740 0.400000 45 46 45
-0.400000 0.522260 0.400000 71 71 71
0.496704 -0.281232 -0.496704 45 46 45
-0.496704 -0.304440 -0.496704 45 46 45
-0.496704 -0.281232 -0.496704 45 46 45
0.496704 -0.304440 0.496704 45 46 45
-0.496704 -0.304440 0.496704 45 46 45
-0.496704 -0.281232 0.496704 45 46 45
0.496704 -0.281232 0.496704 45 46 45
0.496704 -0.304440 -0.496704 45 46 45
0.363078 0.522260 -0.363078 69 69 69
0.363078 -0.240833 0.363078 69 69 69
0.363078 0.522260 0.363078 69 69 69
0.400000 0.522260 -0.400000 69 69 69
-0.363078 0.522260 -0.363078 69 69 69
-0.363078 -0.240833 0.363078 69 69 69
0.363078 -0.240833 -0.363078 69 69 69
-0.363078 -0.240833 -0.363078 69 69 69
-0.363078 0.522260 -0.363078 70 70 70
-0.097114 0.540713 0.263836 210 212 207
-0.171494 0.532236 0.292381 210 212 207
-0.097114 0.532236 0.263836 210 212 207
-0.171494 0.540713 0.292381 210 212 207
-0.248446 0.532236 0.271755 210 212 207
-0.248446 0.540713 0.271755 210 212 207
-0.298579 0.532236 0.209837 210 212 207
-0.298579 0.540713 0.209837 210 212 207
-0.302742 0.532236 0.130277 210 212 207
-0.302742 0.540713 0.130277 210 212 207
-0.259346 0.532236 0.063464 210 212 207
-0.259346 0.540713 0.063464 210 212 207
-0.184966 0.532236 0.034920 210 212 207
-0.184966 0.540713 0.034920 210 212 207
-0.108013 0.532236 0.055546 210 212 207
-0.108013 0.540713 0.055546 210 212 207
-0.057881 0.532236 0.117464 210 212 207
-0.173556 0.530680 0.252976 210 212 207
-0.057881 0.540713 0.117464 210 212 207
-0.053718 0.532236 0.197024 210 212 207
-0.053718 0.540713 0.197024 210 212 207
-0.096230 0.508314 0.159360 210 212 207
-0.094721 0.530680 0.131602 210 212 207
-0.264628 0.530680 0.140493 210 212 207
-0.226952 0.530680 0.238663 210 212 207
-0.261739 0.530680 0.195699 210 212 207
-0.121944 0.530680 0.233169 210 212 207
-0.091832 0.530680 0.186808 210 212 207
-0.129507 0.530680 0.088637 210 212 207
-0.234515 0.530680 0.094132 210 212 207
-0.182904 0.530680 0.074325 210 212 207
-0.156971 0.508314 0.084338 210 212 207
-0.247091 0.508314 0.118923 210 212 207
-0.242047 0.508314 0.215320 210 212 207
-0.148810 0.508314 0.240311 210 212 207
0.040577 0.672861 -0.035403 143 68 34
-0.004285 0.510680 -0.117497 143 68 34
0.040577 0.510680 -0.035403 143 68 34
-0.004285 0.672861 -0.117497 143 68 34
0.007675 0.510680 -0.210281 143 68 34
0.007675 0.672861 -0.210281 143 68 34
0.071888 0.510680 -0.278315 143 68 34
0.071888 0.672861 -0.278315 143 68 34
0.163827 0.510680 -0.295612 143 68 34
0.163827 0.672861 -0.295612 143 68 34
0.248374 0.510680 -0.255565 143 68 34
0.248374 0.672861 -0.255565 143 68 34
0.293235 0.510680 -0.173472 143 68 34
0.293235 0.672861 -0.173472 143 68 34
0.281275 0.510680 -0.080688 143 68 34
0.281275 0.672861 -0.080688 143 68 34
0.217062 0.510680 -0.012654 143 68 34
0.011707 0.672861 -0.120506 143 68 34
0.217062 0.672861 -0.012654 143 68 34
0.125123 0.510680 0.004643 143 68 34
0.125123 0.672861 0.004643 143 68 34
0.237204 0.672861 -0.243731 143 68 34
0.277243 0.529021 -0.170463 143 68 34
0.277243 0.672861 -0.170463 143 68 34
0.022382 0.672861 -0.203315 143 68 34
0.079692 0.672861 -0.264035 143 68 34
0.051746 0.672861 -0.047237 143 68 34
0.127204 0.672861 -0.011496 143 68 34
0.209259 0.672861 -0.026934 143 68 34
0.266568 0.672861 -0.087654 143 68 34
0.161746 0.672861 -0.279473 143 68 34
0.161746 0.529021 -0.279473 143 68 34
0.022382 0.529021 -0.203315 143 68 34
0.079692 0.529021 -0.264035 143 68 34
0.051746 0.529021 -0.047237 143 68 34
0.266568 0.529021 -0.087654 143 68 34
0.011707 0.529021 -0.120506 143 68 34
0.209259 0.529021 -0.026934 143 68 34
0.237204 0.529021 -0.243731 143 68 34
0.127204 0.529021 -0.011496 143 68 34
-0.266636 0.507877 -0.384885 145 145 145
-0.266636 0.447877 0.375115 145 145 145
-0.266636 0.447877 -0.384885 145 145 145
-0.326636 0.507877 0.375115 145 145 145
-0.326636 0.447877 -0.384885 145 145 145
-0.326636 0.447877 0.375115 145 145 145
-0.266636 0.507877 0.375115 145 145 145
-0.326636 0.507877 -0.384885 145 145 145
-0.155284 0.507877 -0.384885 145 145 145
-0.155284 0.447877 0.375115 145 145 145
-0.155284 0.447877 -0.384885 145 145 145
-0.215284 0.507877 0.375115 145 145 145
-0.215284 0.447877 -0.384885 145 145 145
-0.215284 0.447877 0.375115 145 145 145
-0.155284 0.507877 0.375115 145 145 145
-0.215284 0.507877 -0.384885 145 145 145
-0.032250 0.507877 -0.384885 145 145 145
-0.032250 0.447877 0.375115 145 145 145
-0.032250 0.447877 -0.384885 145 145 145
-0.092250 0.507877 0.375115 145 145 145
-0.092250 0.447877 -0.384885 145 145 145
-0.092250 0.447877 0.375115 145 145 145
-0.032250 0.507877 0.375115 145 145 145
-0.092250 0.507877 -0.384885 145 145 145
0.084590 0.507877 -0.384885 145 145 145
0.084590 0.447877 0.375115 145 145 145
0.084590 0.447877 -0.384885 145 145 145
0.024590 0.507877 0.375115 145 145 145
0.024590 0.447877 -0.384885 145 145 145
0.024590 0.447877 0.375115 145 145 145
0.084590 0.507877 0.375115 145 145 145
0.024590 0.507877 -0.384885 145 145 145
0.209567 0.507877 -0.384885 145 145 145
0.209567 0.447877 0.375115 145 145 145
0.209567 0.447877 -0.384885 145 145 145
0.149567 0.507877 0.375115 145 145 145
0.149567 0.447877 -0.384885 145 145 145
0.149567 0.447877 0.375115 145 145 145
0.209567 0.507877 0.375115 145 145 145
0.149567 0.507877 -0.384885 145 145 145
0.333293 0.507877 -0.384885 145 145 145
0.333293 0.447877 0.375115 145 145 145
0.333293 0.447877 -0.384885 145 145 145
0.273293 0.507877 0.375115 145 145 145
0.273293 0.447877 -0.384885 145 145 145
0.273293 0.447877 0.375115 145 145 145
0.333293 0.507877 0.375115 145 145 145
0.273293 0.507877 -0.384885 145 145 145
0.455721 -0.300000 -0.385261 128 128 128
0.384689 -0.500000 -0.455650 128 128 128
0.455721 -0.500000 -0.385261 128 128 128
0.384689 -0.300000 -0.455650 128 128 128
0.412845 -0.500000 -0.484062 128 128 128
0.412845 -0.300000 -0.484062 128 128 128
0.483876 -0.500000 -0.413674 128 128 128
0.483876 -0.300000 -0.413674 128 128 128
-0.451883 -0.300000 0.378522 128 128 128
-0.381147 -0.500000 0.449209 128 128 128
-0.451883 -0.500000 0.378522 128 128 128
-0.381147 -0.300000 0.449209 128 128 128
-0.409422 -0.500000 0.477503 128 128 128
-0.409422 -0.300000 0.477503 128 128 128
-0.480157 -0.500000 0.406817 128 128 128
-0.480157 -0.300000 0.406817 128 128 128
0.478440 -0.300000 0.414838 128 128 128
0.407711 -0.500000 0.485530 128 128 128
0.478440 -0.500000 0.414838 128 128 128
0.379434 -0.300000 0.457238 128 128 128
0.379434 -0.500000 0.457238 128 128 128
0.450163 -0.500000 0.386546 128 128 128
0.450163 -0.300000 0.386546 128 128 128
-0.474470 -0.300000 -0.412412 128 128 128
-0.404038 -0.500000 -0.483401 128 128 128
-0.474470 -0.500000 -0.412412 128 128 128
-0.404038 -0.300000 -0.483401 128 128 128
-0.375643 -0.500000 -0.455228 128 128 128
-0.375643 -0.300000 -0.455228 128 128 128
-0.446075 -0.500000 -0.384239 128 128 128
-0.446075 -0.300000 -0.384239 128 128 128
-0.480157 -0.300000 0.406817 127 127 127
0.407711 -0.300000 0.485530 128 128 128
-0.404038 -0.300000 -0.483401 127 127 127
3 0 1 2
3 2 3 4
3 5 6 3
3 6 0 7
3 4 0 8
3 9 10 11
3 10 12 13
3 11 13 14
3 15 16 9
3 14 12 15
3 17 18 19
3 5 17 20
3 2 21 5
3 20 19 0
3 22 23 24
3 19 22 1
3 21 23 17
3 1 24 25
3 26 27 28
3 29 30 27
3 31 32 30
3 33 34 32
3 35 36 34
3 37 38 36
3 39 40 38
3 41 42 40
3 26 43 29
3 44 45 42
3 46 28 45
3 45 47 42
3 48 49 50
3 31 51 33
3 31 43 50
3 46 52 26
3 44 53 46
3 41 48 44
3 39 54 41
3 39 55 56
3 37 49 55
3 35 51 49
3 42 57 40
3 40 57 38
3 38 58 36
3 34 59 32
3 30 60 27
3 28 47 45
3 61 62 63
3 64 65 62
3 66 67 65
3 68 69 67
3 70 71 69
3 72 73 71
3 74 75 73
3 76 77 75
3 61 78 64
3 79 80 77
3 81 63 80
3 82 83 84
3 68 85 86
3 66 78 85
3 81 87 61
3 79 88 81
3 76 89 79
3 76 84 90
3 72 84 74
3 70 82 72
3 68 91 70
3 83 92 93
3 85 94 86
3 88 95 87
3 84 96 90
3 86 92 91
3 87 97 78
3 90 98 89
3 91 99 82
3 78 93 85
3 89 100 88
3 101 102 103
3 104 105 106
3 107 108 104
3 109 110 111
3 112 113 114
3 115 116 112
3 117 118 119
3 120 121 122
3 123 124 120
3 125 126 127
3 128 129 130
3 131 132 128
3 133 134 135
3 136 137 138
3 139 140 136
3 141 142 143
3 144 145 146
3 147 148 144
3 149 150 151
3 152 153 150
3 154 155 153
3 156 151 155
3 157 158 159
3 160 161 158
3 162 163 161
3 164 159 163
3 165 166 167
3 166 168 169
3 168 170 169
3 171 167 170
3 172 173 174
3 175 176 173
3 177 178 176
3 179 174 178
3 0 19 1
3 2 5 3
3 5 20 6
3 6 20 0
3 4 7 0
3 9 16 10
4 14 15 9 11
3 10 16 12
3 11 10 13
3 15 12 16
3 14 13 12
3 17 23 18
3 5 21 17
3 2 1 21
3 20 17 19
3 22 18 23
3 19 18 22
3 21 24 23
3 1 22 24
3 26 29 27
3 29 31 30
3 31 33 32
3 33 35 34
3 35 37 36
3 37 39 38
3 39 41 40
3 41 44 42
3 26 52 43
3 44 46 45
3 46 26 28
3 50 43 52
3 52 53 48
3 48 54 56
3 56 55 49
3 49 51 50
3 50 52 48
3 48 56 49
3 31 50 51
3 31 29 43
3 46 53 52
3 44 48 53
3 41 54 48
3 39 56 54
3 39 37 55
3 37 35 49
3 35 33 51
3 42 47 57
3 38 57 58
3 34 36 58
3 34 58 59
3 28 27 60
3 30 32 59
3 30 59 60
3 28 60 47
3 61 64 62
3 64 66 65
3 66 68 67
3 68 70 69
3 70 72 71
3 72 74 73
3 74 76 75
3 76 79 77
3 61 87 78
3 79 81 80
3 81 61 63
3 82 99 83
3 68 66 85
3 66 64 78
3 81 88 87
3 79 89 88
3 76 90 89
3 76 74 84
3 72 82 84
3 70 91 82
3 68 86 91
3 93 97 95
3 95 100 98
3 98 96 83
3 83 99 92
3 92 94 93
3 93 95 98
3 98 83 93
3 85 93 94
3 88 100 95
3 84 83 96
3 86 94 92
3 87 95 97
3 90 96 98
3 91 92 99
3 78 97 93
3 89 98 100
3 101 107 102
3 104 108 105
3 107 101 108
3 109 115 110
3 112 116 113
3 115 109 116
3 117 123 118
3 120 124 121
3 123 117 124
3 125 131 126
3 128 132 129
3 131 125 132
3 133 139 134
3 136 140 137
3 139 133 140
3 141 147 142
3 144 148 145
3 147 141 148
3 149 152 150
3 152 154 153
3 154 156 155
3 156 149 151
3 157 160 158
3 160 162 161
3 162 180 163
3 164 157 159
3 165 181 166
3 166 181 168
3 168 171 170
3 171 165 167
3 172 182 173
3 175 177 176
3 177 179 178
3 179 172 174
