ply
format ascii 1.0
comment Created by Blender 2.78 (sub 0) - www.blender.org, source file: 'sugarcanestage1.blend'
element vertex 53
property float x
property float y
property float z
property uchar red
property uchar green
property uchar blue
element face 56
property list uchar uint vertex_indices
end_header
-0.308685 -0.122142 0.188687 255 248 83
-0.393993 -0.515126 0.251598 255 206 108
-0.308685 -0.516920 0.236786 255 206 108
-0.393993 -0.120348 0.203499 255 248 83
-0.364261 -0.524906 0.170849 255 206 108
-0.364261 -0.130129 0.122751 255 248 83
0.011060 -0.511429 0.023900 255 206 108
-0.033395 0.039457 0.084335 255 248 83
-0.067202 -0.508245 0.060844 255 206 108
-0.059863 -0.505063 -0.025388 255 206 108
0.044867 0.036274 0.047391 255 248 83
-0.026057 0.042640 -0.001898 255 248 83
0.165373 0.035634 -0.250615 255 248 83
0.196697 -0.510237 -0.325615 255 211 105
0.239665 -0.504876 -0.250615 255 208 107
0.196697 -0.510237 -0.325615 255 206 108
0.208341 0.040996 -0.325615 255 248 83
0.282633 -0.499514 -0.325615 255 206 108
0.122405 0.030273 -0.325615 255 248 83
0.282633 -0.499514 -0.325615 255 212 106
0.308083 0.162892 0.170113 255 248 83
0.357853 -0.503439 0.287470 255 206 108
0.308083 -0.508161 0.216755 255 206 108
0.357853 0.167615 0.240829 255 248 83
0.271590 -0.502928 0.295118 255 206 108
0.271590 0.168125 0.248476 255 248 83
-0.261394 0.276770 -0.010849 255 248 83
-0.260186 -0.504109 -0.110872 255 206 108
-0.290087 -0.504942 -0.029599 255 206 108
-0.231493 0.277603 -0.092122 255 248 83
-0.204800 -0.507656 -0.044390 255 206 108
-0.176107 0.274055 -0.025640 255 248 83
0.112180 0.638588 -0.058782 255 248 83
0.239612 -0.511931 -0.074406 255 206 108
0.240536 -0.506692 0.012033 255 206 108
0.186283 0.643928 -0.103281 255 248 83
0.314640 -0.501351 -0.032466 255 206 108
0.111256 0.633349 -0.145221 255 248 83
-0.148894 0.461923 -0.257138 255 248 83
-0.256495 -0.503591 -0.334194 255 211 106
-0.174120 -0.507014 -0.307685 255 213 104
-0.231268 0.465347 -0.283647 255 248 83
-0.192237 -0.502276 -0.392239 255 208 106
-0.256495 -0.503591 -0.334194 255 206 108
-0.167011 0.466662 -0.341692 255 248 83
-0.192237 -0.502276 -0.392239 255 206 108
-0.174120 -0.507014 -0.307685 255 206 108
-0.017460 0.314759 0.239162 255 248 83
-0.102509 -0.504182 0.336018 255 206 108
-0.017460 -0.505645 0.319753 255 206 108
-0.074127 0.308895 0.173936 255 248 83
-0.074127 -0.511509 0.254527 255 206 108
-0.102509 0.316221 0.255427 255 248 83
3 0 1 2
3 3 4 1
3 3 0 5
3 5 2 4
3 6 7 8
3 7 9 8
3 7 10 11
3 11 6 9
3 12 13 14
3 15 16 17
3 18 12 16
3 19 12 14
3 20 21 22
3 23 24 21
3 23 20 25
3 25 22 24
3 26 27 28
3 29 30 27
3 29 26 31
3 30 26 28
3 32 33 34
3 33 35 36
3 37 32 35
3 35 34 36
3 38 39 40
3 41 42 43
3 41 38 44
3 45 38 46
3 47 48 49
3 48 50 51
3 52 47 50
3 51 47 49
3 0 3 1
3 3 5 4
3 5 0 2
3 6 10 7
3 7 11 9
3 11 10 6
3 12 18 13
3 15 18 16
3 19 16 12
3 20 23 21
3 23 25 24
3 25 20 22
3 26 29 27
3 29 31 30
3 30 31 26
3 32 37 33
3 33 37 35
3 35 32 34
3 38 41 39
3 41 44 42
3 45 44 38
3 47 52 48
3 48 52 50
3 51 50 47
