ply
format ascii 1.0
comment Created by Blender 2.78 (sub 0) - www.blender.org, source file: 'sugarcanestage2.blend'
element vertex 48
property float x
property float y
property float z
property uchar red
property uchar green
property uchar blue
element face 56
property list uchar uint vertex_indices
end_header
-0.052358 -0.505834 -0.048249 255 206 108
0.110857 2.520768 0.156484 205 255 96
-0.130621 -0.502650 -0.011305 255 206 108
0.118196 2.523951 0.070251 205 255 96
-0.123282 -0.499467 -0.097537 255 206 108
0.189119 2.517584 0.119540 205 255 96
-0.347706 2.516305 -0.081053 205 255 96
-0.317974 2.506524 -0.161801 205 255 96
-0.317974 -0.509941 0.319185 255 206 108
-0.129775 2.502847 -0.250615 205 255 96
0.322539 -0.514447 -0.325615 255 206 108
0.365507 -0.509085 -0.250615 255 206 108
-0.086807 2.508209 -0.325615 205 255 96
0.408475 -0.503724 -0.325615 255 206 108
-0.172743 2.497486 -0.325615 205 255 96
-0.262399 -0.501955 0.385121 255 206 108
-0.262399 2.514511 -0.095865 205 255 96
-0.347706 -0.500161 0.399933 255 206 108
0.308083 -0.509701 0.326696 255 206 108
0.357853 2.540844 0.130887 205 255 96
0.357853 -0.504979 0.397411 255 206 108
0.271590 2.541355 0.138535 205 255 96
0.271590 -0.504468 0.405059 255 206 108
0.308083 2.536122 0.060172 205 255 96
-0.347472 -0.503391 -0.067098 255 206 108
-0.174108 2.536566 -0.054623 205 255 96
-0.317572 -0.502558 -0.148371 255 206 108
-0.262185 -0.506106 -0.081889 255 206 108
-0.204009 2.535733 0.026650 205 255 96
-0.118722 2.533019 0.011859 205 255 96
-0.111660 2.521200 -0.141399 205 255 96
0.315271 -0.512129 0.008211 255 206 108
0.316195 -0.506890 0.094650 255 206 108
-0.037557 2.526541 -0.185898 205 255 96
0.390298 -0.501550 0.050151 255 206 108
-0.112584 2.515961 -0.227838 205 255 96
-0.211960 -0.508129 -0.275590 255 206 108
-0.193429 2.520617 -0.099909 205 255 96
-0.294335 -0.504706 -0.302098 255 206 108
-0.129171 2.521932 -0.157954 205 255 96
-0.230077 -0.503391 -0.360143 255 206 108
-0.111054 2.517193 -0.073400 205 255 96
-0.017460 2.562021 0.057501 205 255 96
-0.102509 -0.501048 0.431950 255 206 108
-0.017460 -0.502511 0.415685 255 206 108
-0.074127 2.556156 -0.007725 205 255 96
-0.074127 -0.508375 0.350459 255 206 108
-0.102509 2.563483 0.073766 205 255 96
3 0 1 2
3 2 3 4
3 1 5 3
3 3 0 4
3 6 7 8
3 9 10 11
3 10 12 13
3 14 9 12
3 12 11 13
3 15 16 6
3 15 6 17
3 6 8 17
3 6 16 7
3 8 16 15
3 12 9 11
3 18 19 20
3 20 21 22
3 19 23 21
3 21 18 22
3 10 14 12
3 24 25 26
3 25 27 26
3 25 28 29
3 27 28 24
3 9 14 10
3 30 31 32
3 31 33 34
3 35 30 33
3 33 32 34
3 3 5 0
3 36 37 38
3 38 39 40
3 37 41 39
3 39 36 40
3 2 1 3
3 42 43 44
3 43 45 46
3 47 42 45
3 45 44 46
3 0 5 1
3 8 7 16
3 18 23 19
3 20 19 21
3 21 23 18
3 24 28 25
3 25 29 27
3 27 29 28
3 30 35 31
3 31 35 33
3 33 30 32
3 36 41 37
3 38 37 39
3 39 41 36
3 42 47 43
3 43 47 45
3 45 42 44
