ply
format ascii 1.0
comment Created by Blender 3.3.1 - www.blender.org
element vertex 176
property float x
property float y
property float z
property uchar red
property uchar green
property uchar blue
property uchar alpha
element face 111
property list uchar uint vertex_indices
end_header
0.010386 1.223880 -0.479279 131 85 35 255
0.010386 1.120837 0.351222 131 85 35 255
0.010386 1.223880 0.479279 131 85 36 255
0.010386 0.627695 0.351222 131 85 35 255
0.010386 -0.501524 0.479279 131 85 35 255
0.010386 0.627695 -0.366956 131 85 35 255
0.010386 1.120837 -0.366956 131 85 35 255
-0.002231 0.902717 -0.326737 228 209 194 255
0.173407 0.902717 -0.326737 243 235 229 255
0.173407 0.902717 -0.151099 216 197 181 255
-0.002231 0.902717 -0.151099 228 209 194 255
-0.002231 1.078355 -0.151099 228 209 194 255
-0.002231 1.078355 -0.326737 228 209 194 255
0.173407 1.078355 -0.151099 230 212 198 255
-0.305667 0.650696 0.380291 146 141 131 255
-0.303398 0.657977 0.335238 184 143 53 255
-0.303398 0.657977 0.387512 184 143 53 255
-0.327938 0.620115 0.380291 146 141 131 255
-0.334171 0.615721 0.387512 184 143 53 255
-0.327938 0.620115 0.342459 146 141 131 255
-0.305667 0.650696 0.342459 146 141 131 255
-0.334171 0.615721 0.335238 184 143 53 255
0.173407 1.078355 -0.326737 233 217 204 255
0.489665 -0.501524 -0.479279 141 99 65 255
0.010386 -0.501524 -0.479279 131 85 35 255
0.489665 1.223880 -0.479279 136 91 49 255
0.489665 -0.501524 0.479279 136 91 49 255
0.489665 1.223880 0.479279 136 91 49 255
-0.179103 0.463579 -0.184382 241 200 175 255
-0.367608 0.463579 -0.184382 241 200 175 255
-0.367608 0.473540 -0.185019 241 200 175 255
-0.179103 0.473540 -0.185019 241 200 175 255
0.498140 1.242995 -0.496230 136 91 49 255
0.001910 1.242995 -0.496230 131 85 35 255
-0.373848 0.644616 0.335238 184 143 54 255
-0.373848 0.644616 0.387512 184 143 53 255
0.001911 1.242995 0.496230 131 85 36 255
0.498140 1.242995 0.496230 136 91 49 255
0.057509 1.120837 -0.366956 154 112 69 255
0.057509 0.627695 -0.366956 154 111 67 255
0.057509 1.120837 0.351222 153 110 65 255
0.057509 0.627695 0.351222 153 110 66 255
0.001911 1.270866 0.496230 131 85 36 255
0.498140 1.270866 0.496230 136 91 49 255
-0.343074 0.686872 0.387512 184 143 53 255
-0.343074 0.686872 0.335238 184 143 53 255
0.498140 1.270866 -0.496230 136 91 49 255
0.001910 1.270866 -0.496230 131 85 35 255
0.031852 0.362640 -0.470000 156 105 72 255
-0.470000 0.362640 -0.470000 159 111 81 255
-0.470000 0.462640 -0.470000 156 105 72 255
0.031852 0.462640 -0.470000 156 105 72 255
-0.470000 0.362640 0.470000 157 107 76 255
0.031852 0.362640 0.470000 165 121 96 255
0.031852 0.462640 0.470000 158 110 78 255
-0.470000 0.462640 0.470000 156 105 72 255
-0.140914 0.483912 0.380291 146 141 131 255
-0.140914 0.483912 0.342459 147 142 132 255
-0.118643 0.514493 0.342459 146 141 131 255
-0.118643 0.514493 0.380291 146 141 131 255
-0.003694 1.001310 -0.004279 128 31 42 255
-0.003694 0.970573 -0.042957 127 27 40 255
-0.003694 0.964428 -0.038074 126 22 36 255
-0.003694 0.995166 0.000604 128 35 44 255
-0.163978 0.538408 0.389687 184 147 71 255
-0.114118 0.538408 0.389687 184 147 71 255
-0.114118 0.538408 0.053386 184 147 71 255
-0.163978 0.538408 0.053386 184 147 71 255
-0.003694 0.984458 0.227987 128 31 42 255
-0.003694 0.979541 0.277146 127 27 40 255
-0.003694 0.987350 0.277927 126 22 36 255
-0.003694 0.992267 0.228768 128 35 44 255
-0.004358 0.826367 -0.197168 128 31 42 255
-0.004358 0.771302 -0.249591 127 27 40 255
-0.004358 0.765890 -0.243907 126 22 36 255
-0.004358 0.820955 -0.191484 128 35 44 255
-0.002231 0.902717 0.083767 228 209 194 255
0.173407 0.902717 0.083767 216 197 181 255
0.173407 1.078355 0.083767 230 212 198 255
-0.002231 1.078355 0.083767 228 209 194 255
-0.002231 0.902717 -0.091871 228 209 194 255
-0.002231 1.078355 -0.091871 228 209 194 255
0.173407 0.902717 -0.091871 243 235 229 255
0.173407 1.078355 -0.091871 233 217 204 255
-0.163978 0.464661 0.389687 184 147 71 255
-0.114118 0.464661 0.389687 184 147 71 255
-0.003694 0.776542 0.223869 128 31 42 255
-0.003694 0.744024 0.261061 127 27 40 255
-0.003694 0.749932 0.266227 126 22 36 255
-0.003694 0.782451 0.229035 128 35 44 255
-0.002231 0.902717 0.321236 228 209 194 255
0.173407 0.902717 0.321236 216 197 181 255
0.173407 1.078355 0.321236 230 212 198 255
-0.002231 1.078355 0.321236 228 209 194 255
-0.002231 0.902717 0.145598 228 209 194 255
-0.002231 1.078355 0.145598 228 209 194 255
0.173407 0.902717 0.145598 243 235 229 255
0.173407 1.078355 0.145598 233 217 204 255
0.173407 0.682164 0.145598 243 235 229 255
-0.002231 0.682164 0.145598 228 209 194 255
-0.002231 0.857802 0.145598 228 209 194 255
0.173407 0.857802 0.145598 233 217 204 255
-0.002231 0.682164 0.321236 228 209 194 255
0.173407 0.682164 0.321236 216 197 181 255
0.173407 0.857802 0.321236 230 212 198 255
-0.002231 0.857802 0.321236 228 209 194 255
-0.367608 0.493036 0.119993 241 200 175 255
-0.179103 0.493036 0.119993 241 200 175 255
-0.179103 0.483075 0.120629 241 200 175 255
-0.367608 0.483075 0.120629 241 200 175 255
-0.114118 0.464661 0.053386 184 147 71 255
-0.163978 0.464661 0.053386 184 147 71 255
-0.004358 1.002249 -0.010833 127 27 40 255
-0.004358 0.996293 -0.015945 126 22 36 255
-0.004358 0.946779 0.041750 128 35 44 255
-0.004358 0.952735 0.046861 128 31 42 255
-0.002231 0.682164 0.083767 228 209 194 255
0.173407 0.682164 0.083767 216 197 181 255
0.173407 0.857802 0.083767 230 212 198 255
-0.002231 0.857802 0.083767 228 209 194 255
-0.002231 0.682164 -0.091871 228 209 194 255
-0.002231 0.857802 -0.091871 228 209 194 255
0.173407 0.682164 -0.091871 243 235 229 255
0.173407 0.857802 -0.091871 233 217 204 255
-0.380031 0.510102 0.047765 184 147 71 255
-0.103813 0.510102 0.047765 184 147 71 255
-0.103813 0.510102 0.323983 184 147 71 255
-0.380031 0.510102 0.323983 184 147 71 255
-0.004358 0.980528 0.233794 127 27 40 255
-0.004358 0.982321 0.241435 126 22 36 255
-0.004358 1.056339 0.224069 128 35 44 255
-0.004358 1.054546 0.216427 128 31 42 255
-0.004358 0.776954 0.002152 127 27 40 255
-0.004358 0.777544 -0.005675 126 22 36 255
-0.004358 0.701731 -0.011385 128 35 44 255
-0.004358 0.701141 -0.003559 128 31 42 255
-0.003694 0.763933 0.001602 128 31 42 255
-0.003694 0.813326 0.000558 127 27 40 255
-0.003694 0.813160 -0.007289 126 22 36 255
-0.003694 0.763767 -0.006245 128 35 44 255
-0.002231 0.682164 -0.151099 228 209 194 255
0.173407 0.682164 -0.151099 216 197 181 255
0.173407 0.857802 -0.151099 230 212 198 255
-0.002231 0.857802 -0.151099 228 209 194 255
-0.002231 0.682164 -0.326737 228 209 194 255
-0.002231 0.857802 -0.326737 228 209 194 255
0.173407 0.682164 -0.326737 243 235 229 255
0.173407 0.857802 -0.326737 233 217 204 255
-0.103813 0.460894 0.047765 184 147 71 255
-0.380031 0.460894 0.047765 184 147 71 255
-0.380031 0.477994 0.047765 184 147 71 255
-0.103813 0.477994 0.047765 184 147 71 255
-0.103813 0.460894 0.323983 184 147 71 255
-0.103813 0.477994 0.323983 184 147 71 255
-0.380031 0.460894 0.323983 184 147 71 255
-0.380031 0.477994 0.323983 184 147 71 255
-0.380031 0.597301 0.047765 184 147 71 255
-0.103813 0.597301 0.047765 184 147 71 255
-0.103813 0.597301 0.323983 184 147 71 255
-0.380031 0.597301 0.323983 184 147 71 255
-0.003694 0.952699 -0.245255 127 27 40 255
-0.003694 0.952699 -0.237406 126 22 36 255
-0.003694 1.002103 -0.237406 128 35 44 255
-0.003694 1.002103 -0.245255 128 31 42 255
-0.004358 0.994238 -0.308927 128 31 42 255
-0.004358 0.989278 -0.233062 127 27 40 255
-0.004358 0.997110 -0.232550 126 22 36 255
-0.004358 1.002070 -0.308415 128 35 44 255
-0.003694 0.747457 -0.208741 127 27 40 255
-0.003694 0.754082 -0.204533 126 22 36 255
-0.003694 0.780573 -0.246234 128 35 44 255
-0.003694 0.773948 -0.250442 128 31 42 255
-0.004358 0.774473 0.223421 127 27 40 255
-0.004358 0.766837 0.225235 126 22 36 255
-0.004358 0.784407 0.299204 128 35 44 255
-0.004358 0.792044 0.297391 128 31 42 255
3 0 1 2
3 2 3 4
3 0 5 6
4 7 8 9 10
4 7 10 11 12
4 10 9 13 11
3 14 15 16
3 17 16 18
3 19 15 20
3 17 21 19
4 11 13 22 12
4 23 24 0 25
4 26 23 25 27
4 4 26 27 2
4 28 29 30 31
3 0 6 1
4 32 25 0 33
4 34 21 18 35
3 2 1 3
3 0 24 5
4 36 2 27 37
4 38 6 5 39
4 40 1 6 38
4 41 3 1 40
4 42 36 37 43
4 44 16 15 45
4 33 0 2 36
4 37 27 25 32
4 46 32 33 47
4 47 33 36 42
4 43 37 32 46
4 48 49 50 51
4 52 53 54 55
4 49 52 55 50
4 49 48 53 52
4 55 54 51 50
4 56 57 58 59
4 60 61 62 63
4 64 65 66 67
4 68 69 70 71
4 72 73 74 75
4 76 77 78 79
4 80 76 79 81
4 80 82 77 76
4 79 78 83 81
4 84 85 65 64
4 86 87 88 89
4 3 5 24 4
4 90 91 92 93
4 94 90 93 95
4 94 96 91 90
4 93 92 97 95
4 98 99 100 101
4 102 103 104 105
4 99 102 105 100
4 106 107 31 30
4 29 28 108 109
4 110 111 67 66
4 112 113 114 115
4 108 28 31 107
4 116 117 118 119
4 120 116 119 121
4 120 122 117 116
4 119 118 123 121
4 124 125 126 127
4 128 129 130 131
4 132 133 134 135
4 30 29 109 106
4 136 137 138 139
4 140 141 142 143
4 144 140 143 145
4 144 146 141 140
4 143 142 147 145
4 148 149 150 151
4 152 148 151 153
4 154 152 153 155
4 149 154 155 150
4 155 153 151 150
4 125 124 156 157
4 34 35 44 45
4 146 144 145 147
4 126 125 157 158
4 127 126 158 159
4 124 127 159 156
4 122 120 121 123
4 159 158 157 156
4 96 94 95 97
4 85 110 66 65
4 82 80 81 83
4 111 84 64 67
4 14 17 56 59
4 160 161 162 163
4 164 165 166 167
3 14 20 15
4 42 43 46 47
4 19 57 56 17
4 14 59 58 20
3 17 14 16
3 19 21 15
3 17 18 21
4 109 108 107 106
4 45 15 21 34
4 39 41 40 38
4 57 19 20 58
4 39 5 3 41
4 168 169 170 171
4 44 35 18 16
4 172 173 174 175
4 8 7 12 22
4 105 104 101 100
4 99 98 103 102
