ply
format ascii 1.0
comment Created by Blender 3.3.1 - www.blender.org
element vertex 120
property float x
property float y
property float z
property uchar red
property uchar green
property uchar blue
property uchar alpha
element face 103
property list uchar uint vertex_indices
end_header
0.058153 1.523419 0.070079 172 92 79 255
0.048299 1.512518 0.070079 172 92 79 255
-0.048307 1.512518 0.070079 172 92 79 255
-0.059020 1.523419 0.370079 172 92 79 255
-0.048307 1.512518 0.370079 172 92 79 255
0.058153 1.523419 0.370079 172 92 79 255
0.383301 -0.331050 -0.244905 175 149 121 255
-0.394158 -0.331050 -0.243912 175 149 121 255
-0.394158 -0.200719 -0.243912 175 149 121 255
0.383301 -0.200719 -0.244905 176 150 123 255
-0.048307 1.512518 -0.398543 190 181 160 255
-0.048307 1.158600 -0.398543 190 181 160 255
-0.059020 1.158600 -0.398543 190 181 160 255
-0.059020 1.523419 -0.398543 190 181 160 255
0.048299 1.512518 0.370079 172 92 79 255
0.048299 1.512518 -0.398543 190 181 160 255
0.058153 1.523419 -0.398543 190 181 160 255
0.058153 1.279236 -0.398543 190 181 160 255
0.048299 1.279236 -0.398543 190 181 160 255
0.048299 1.512518 -0.098543 190 181 160 255
0.048299 1.279236 -0.098543 190 181 160 255
0.058153 1.279236 -0.098543 190 181 160 255
0.058153 1.523419 -0.098543 190 181 160 255
0.457625 -0.500904 0.457625 86 140 163 255
0.457625 -0.310018 -0.268503 85 140 163 255
0.457625 -0.310018 0.269369 85 140 163 255
0.457625 0.031294 0.457625 85 140 163 255
-0.497092 0.031294 0.497092 33 93 110 255
-0.457625 0.031294 0.457625 85 140 163 255
-0.457625 0.031294 -0.457625 84 139 162 255
0.497092 0.031294 -0.497092 33 93 110 255
0.457625 0.031294 -0.457625 85 140 163 255
0.457625 -0.146441 -0.268503 85 140 163 255
0.457625 -0.500904 -0.457625 85 140 163 255
-0.457001 -0.310018 -0.268503 85 140 163 255
-0.457625 -0.500904 -0.457625 85 140 163 255
-0.457625 -0.500904 0.457625 85 140 163 255
-0.457001 -0.310018 0.269369 85 140 163 255
0.457625 -0.146441 0.269369 85 140 163 255
-0.457001 -0.146441 0.269369 85 140 163 255
-0.457001 -0.146441 -0.268503 85 140 163 255
-0.048307 1.512518 -0.098543 190 181 160 255
-0.059020 1.523419 -0.098543 190 181 160 255
-0.377931 0.103734 0.041740 191 207 216 255
-0.045202 0.103734 0.394664 191 207 216 255
0.012973 0.103734 0.126561 191 207 216 255
-0.111029 0.103734 0.012844 198 216 157 255
0.185602 0.103734 -0.370919 198 216 157 255
-0.195136 0.103734 -0.248288 198 216 157 255
-0.059020 1.073774 0.370079 172 92 79 255
-0.048307 1.073774 0.370079 172 92 79 255
-0.059020 1.523419 0.070079 172 92 79 255
0.048299 0.945440 0.070079 172 100 84 255
0.048299 0.945440 0.370079 172 96 81 255
-0.059020 1.073774 0.070079 172 92 79 255
-0.048307 1.073774 0.070079 172 92 79 255
-0.393932 -0.331050 -0.043912 178 153 127 255
-0.393932 -0.200719 -0.043912 175 149 121 255
0.497092 0.090863 0.497092 33 93 110 255
0.497092 0.031294 0.497092 33 93 110 255
0.497092 0.090863 -0.497092 33 93 110 255
0.407793 -0.331050 0.045095 146 61 44 255
-0.423854 -0.331050 0.046088 145 59 41 255
-0.423854 -0.231050 0.046088 145 59 41 255
0.407793 -0.231050 0.045095 145 59 41 255
-0.497092 0.031294 -0.497092 33 93 110 255
-0.497092 0.090863 -0.497092 33 93 110 255
-0.497092 0.090863 0.497092 33 93 110 255
-0.423629 -0.331050 0.246088 145 59 41 255
0.408018 -0.331050 0.245095 145 59 41 255
0.408018 -0.231050 0.245095 145 60 42 255
-0.423629 -0.231050 0.246088 145 59 41 255
-0.440000 -0.389571 0.026914 145 109 82 255
0.440000 -0.389571 0.026914 145 109 82 255
0.440000 -0.089571 0.026914 145 109 82 255
-0.440000 -0.089571 0.026914 145 109 83 255
-0.440000 -0.389571 -0.026914 145 109 82 255
-0.440000 -0.089571 -0.026914 145 109 82 255
0.440000 -0.389571 -0.026914 145 109 83 255
0.440000 -0.089571 -0.026914 145 109 82 255
-0.030000 0.065539 -0.430842 151 113 87 255
0.030000 0.065539 -0.430842 151 113 87 255
0.030000 1.500745 -0.430842 151 113 87 255
-0.030000 1.500745 -0.430842 159 126 105 255
-0.030000 0.065539 -0.490841 151 113 87 255
-0.030000 1.500745 -0.490841 158 124 102 255
0.030000 0.065539 -0.490841 153 117 92 255
0.030000 1.500745 -0.490841 164 133 114 255
-0.030000 0.065539 0.488783 156 121 98 255
0.030000 0.065539 0.488783 151 114 89 255
0.030000 1.500745 0.488783 158 125 103 255
-0.030000 1.500745 0.488783 154 119 95 255
-0.030000 0.065539 0.428783 151 113 87 255
-0.030000 1.500745 0.428783 151 113 88 255
0.030000 0.065539 0.428783 161 129 109 255
0.030000 1.500745 0.428783 151 113 87 255
-0.048226 1.511905 0.498495 129 85 63 255
0.048226 1.511905 0.498495 130 86 64 255
0.048226 1.511905 -0.499130 131 89 68 255
-0.048226 1.511905 -0.499130 132 92 72 255
-0.048226 1.415454 0.498495 130 86 64 255
-0.048226 1.415454 -0.499130 129 85 63 255
0.048226 1.415454 0.498495 134 95 77 255
0.048226 1.415454 -0.499130 131 88 68 255
0.058153 0.945440 0.370079 172 92 79 255
0.058153 0.945440 0.070079 172 92 79 255
-0.059020 1.158600 -0.098543 190 181 160 255
-0.048307 1.158600 -0.098543 190 181 160 255
0.185602 0.083734 -0.370919 196 215 162 255
-0.195136 0.083734 -0.248288 198 216 157 255
-0.436106 0.083734 0.309843 194 209 217 255
-0.045202 0.083734 0.394664 191 207 216 255
-0.436106 0.103734 0.309843 191 207 216 255
-0.377931 0.083734 0.041740 194 210 218 255
0.012973 0.083734 0.126561 191 207 216 255
-0.111029 0.083734 0.012844 195 215 167 255
0.269709 0.083734 -0.109787 197 216 159 255
0.269709 0.103734 -0.109787 198 216 157 255
0.383527 -0.200719 -0.044905 175 149 121 255
0.383527 -0.331050 -0.044905 176 150 122 255
3 0 1 2
3 3 4 5
4 6 7 8 9
4 10 11 12 13
3 4 14 5
4 15 16 17 18
4 19 20 21 22
3 23 24 25
3 26 27 28
3 29 30 31
3 26 32 31
4 24 33 31 32
3 34 35 36
3 34 36 37
4 25 38 26 23
3 39 28 40
3 28 29 40
3 41 19 22
3 42 41 22
3 43 44 45
3 46 47 48
3 10 13 16
3 16 15 10
4 49 50 4 3
3 2 51 0
4 36 23 26 28
4 52 53 14 1
4 54 55 50 49
4 7 56 57 8
4 2 1 14 4
4 49 3 51 54
4 42 22 16 13
3 23 33 24
4 58 59 30 60
3 26 59 27
4 61 62 63 64
4 65 29 28 27
4 34 40 29 35
3 29 65 30
4 66 65 27 67
4 60 30 65 66
4 67 27 59 58
4 37 25 24 34
4 68 69 70 71
3 26 38 32
4 39 37 36 28
4 40 32 38 39
4 34 24 32 40
4 72 73 74 75
4 76 72 75 77
4 78 76 77 79
4 73 78 79 74
4 80 81 82 83
4 84 80 83 85
4 86 84 85 87
4 81 86 87 82
4 87 85 83 82
4 88 89 90 91
4 92 88 91 93
4 94 92 93 95
4 89 94 95 90
4 95 93 91 90
4 96 97 98 99
4 100 96 99 101
4 102 100 101 103
4 97 102 103 98
4 97 96 100 102
4 103 101 99 98
4 18 20 19 15
4 21 20 18 17
4 10 15 19 41
4 21 17 16 22
4 104 105 0 5
4 106 42 13 12
4 12 11 107 106
4 108 109 48 47
4 59 26 31 30
4 110 111 44 112
4 113 110 112 43
4 114 113 43 45
4 111 114 45 44
4 115 116 117 46
3 43 112 44
4 109 115 46 48
4 9 8 57 118
4 11 10 41 107
4 39 38 25 37
3 46 117 47
4 116 108 47 117
4 60 66 67 58
4 62 68 71 63
4 33 35 29 31
4 41 42 106 107
4 69 61 64 70
4 56 119 118 57
4 0 51 3 5
4 55 2 4 50
4 64 63 71 70
4 119 6 9 118
4 104 5 14 53
4 54 51 2 55
4 0 105 52 1
4 104 53 52 105
