ply
format ascii 1.0
comment Created by Blender 2.82 (sub 7) - www.blender.org, source file: 'tannersbench.blend'
element vertex 52
property float x
property float y
property float z
property uchar red
property uchar green
property uchar blue
property uchar alpha
element face 78
property list uchar uint vertex_indices
end_header
-0.308425 -0.268394 0.436197 138 85 55 255
-0.408094 -0.498572 0.345401 121 75 48 255
-0.308425 -0.498572 0.402945 121 75 48 255
-0.436892 -0.268394 0.362027 138 85 55 255
-0.408094 -0.498572 0.230312 121 75 48 255
-0.436892 -0.268394 0.213686 138 85 55 255
-0.308425 -0.498572 0.172768 122 76 50 255
-0.308425 -0.268394 0.139516 138 85 55 255
-0.208755 -0.498572 0.230312 121 75 48 255
-0.421973 -0.268394 0.353414 138 85 55 255
-0.421973 -0.268394 0.222299 138 85 55 255
-0.179957 -0.268394 0.213686 138 85 55 255
-0.208755 -0.498572 0.345401 121 75 48 255
-0.179957 -0.268394 0.362027 138 85 55 255
-0.308425 -0.305087 0.159555 168 156 64 255
-0.308425 -0.268394 0.156742 138 85 55 255
-0.194876 -0.268394 0.353414 138 85 55 255
-0.308425 -0.268394 0.418971 138 85 55 255
-0.194876 -0.268394 0.222299 138 85 55 255
-0.419537 -0.305087 0.223706 168 156 64 255
-0.308425 -0.305087 0.416158 168 156 64 255
-0.419537 -0.305087 0.352007 168 155 64 255
-0.197312 -0.305087 0.223706 168 156 64 255
-0.197312 -0.305087 0.352007 168 156 64 255
-0.112487 -0.487546 -0.436746 160 117 81 255
0.446356 0.448829 0.064547 182 133 92 255
-0.100718 -0.499795 -0.426189 183 134 94 255
-0.434587 -0.499795 -0.053990 161 118 81 255
0.112487 0.448829 0.436746 182 134 93 255
-0.446356 -0.487546 -0.064547 160 117 81 255
0.100718 0.461078 0.426189 182 133 92 255
0.344716 -0.496545 0.113865 160 117 81 255
0.134290 0.033070 -0.074891 182 133 92 255
0.357609 -0.486545 0.125431 162 119 84 255
0.157288 -0.486545 0.348750 182 133 92 255
-0.066031 0.033070 0.148428 182 133 92 255
0.144394 -0.496545 0.337184 161 118 81 255
0.121397 0.023070 -0.086456 187 141 104 255
0.342019 0.391652 0.056655 131 44 24 255
-0.055888 -0.322592 -0.300276 131 44 25 255
-0.064637 -0.313487 -0.308123 131 44 24 255
0.102594 0.382547 0.341167 137 61 49 255
-0.312810 -0.313487 -0.031458 131 44 24 255
-0.304062 -0.322592 -0.023610 131 44 24 255
-0.088618 -0.214601 -0.159149 131 44 24 255
-0.172118 -0.214601 -0.066063 131 44 24 255
0.093845 0.391652 0.333320 131 44 24 255
-0.079166 -0.223705 -0.152086 131 45 25 255
-0.164410 -0.223705 -0.057056 131 44 24 255
0.434587 0.461078 0.053990 182 133 92 255
-0.078925 0.023070 0.136863 183 135 96 255
0.350767 0.382547 0.064502 131 45 25 255
3 0 1 2
3 3 4 1
3 5 6 4
3 7 8 6
3 5 9 10
3 11 12 8
3 13 2 12
3 10 14 15
3 11 16 13
3 0 9 3
3 7 10 15
3 13 17 0
3 11 15 18
3 14 19 20
3 17 21 9
3 16 20 17
3 15 22 18
3 9 19 10
3 18 23 16
3 24 25 26
3 25 27 26
3 28 29 27
3 30 24 29
3 26 29 24
3 25 30 28
3 31 32 33
3 32 34 33
3 35 36 34
3 36 37 31
3 34 31 33
3 38 39 40
3 41 42 43
3 44 45 46
3 47 40 39
3 41 38 46
3 47 45 44
3 48 42 45
3 0 3 1
3 3 5 4
3 5 7 6
3 7 11 8
3 5 3 9
3 11 13 12
3 13 0 2
3 10 19 14
3 11 18 16
3 0 17 9
3 7 5 10
3 13 16 17
3 11 7 15
3 19 21 20
3 20 23 22
3 22 14 20
3 17 20 21
3 16 23 20
3 15 14 22
3 9 21 19
3 18 22 23
3 24 49 25
3 25 28 27
3 28 30 29
3 30 49 24
3 26 27 29
3 25 49 30
3 31 37 32
3 32 35 34
3 35 50 36
3 36 50 37
3 34 36 31
3 38 51 39
3 41 46 42
3 45 42 46
3 46 38 44
3 38 40 44
3 47 44 40
3 41 51 38
3 47 48 45
3 48 43 42
