ply
format ascii 1.0
comment Created in Blender version 4.1.1
element vertex 52
property float x
property float y
property float z
property uchar red
property uchar green
property uchar blue
property uchar alpha
element face 88
property list uchar uint vertex_indices
end_header
-0.30842453 -0.4985717 0.40294528 97 60 39 255
-0.30842453 -0.2683941 0.43619746 138 84 54 255
-0.40809435 -0.4985717 0.34540087 97 60 39 255
-0.4368916 -0.2683941 0.36202696 138 84 54 255
-0.40809435 -0.4985717 0.2303121 97 60 39 255
-0.43689156 -0.2683941 0.21368599 138 84 54 255
-0.30842453 -0.4985717 0.17276771 97 60 39 255
-0.3084245 -0.2683941 0.1395155 138 84 54 255
-0.20875472 -0.4985717 0.23031211 97 60 39 255
-0.17995746 -0.2683941 0.21368602 138 84 54 255
-0.20875472 -0.4985717 0.34540087 98 60 39 255
-0.17995746 -0.2683941 0.36202696 138 84 54 255
-0.4219731 -0.2683941 0.35341376 126 77 50 255
-0.30842453 -0.2683941 0.41897106 125 76 50 255
-0.42197308 -0.2683941 0.22229919 125 76 50 255
-0.3084245 -0.2683941 0.1567419 125 76 50 255
-0.19487596 -0.2683941 0.22229922 122 75 49 255
-0.19487596 -0.2683941 0.35341376 125 76 50 255
-0.41953722 -0.3050869 0.35200742 126 90 49 255
-0.30842453 -0.3050869 0.41615835 143 119 54 255
-0.4195372 -0.3050869 0.22370553 134 103 52 255
-0.3084245 -0.3050869 0.1595546 134 103 52 255
-0.19731183 -0.3050869 0.22370556 134 103 52 255
-0.19731183 -0.3050869 0.3520074 126 90 49 255
-0.112487465 -0.4875461 -0.4367458 128 93 65 255
0.43458712 1.0844395 0.053990215 181 132 91 255
-0.10071826 -0.49979478 -0.42618856 128 93 65 255
0.44635624 1.0721909 0.064547405 181 132 91 255
-0.4463563 -0.4875461 -0.06454742 130 94 66 255
0.10071826 1.0844395 0.4261886 181 132 91 255
-0.43458706 -0.49979478 -0.053990245 128 93 65 255
0.112487465 1.0721909 0.43674576 181 133 92 255
0.34471565 -0.49654487 0.11386505 129 94 66 255
0.1213966 0.35578328 -0.0864563 186 141 103 255
0.35760897 -0.48654485 0.1254306 128 93 65 255
0.13428995 0.3926735 -0.0748907 181 132 91 255
0.14439437 -0.49654487 0.33718407 128 93 65 255
-0.0789247 0.35578328 0.13686274 182 134 95 255
0.15728772 -0.48654485 0.34874964 128 93 65 255
-0.06603137 0.3926735 0.14842829 181 132 91 255
-0.102285475 -0.33608466 -0.366343 100 64 51 255
0.34097195 0.9465809 0.032632113 129 81 65 255
-0.09221983 -0.34240538 -0.35741308 111 57 42 255
0.35103756 0.9402602 0.04156214 129 66 46 255
-0.36900288 -0.3344283 -0.062185436 100 64 51 255
0.07425454 0.9482372 0.3367897 129 81 65 255
-0.35893717 -0.34074906 -0.05325538 111 57 42 255
0.08432028 0.9419162 0.34571972 131 72 58 255
-0.14249039 -0.23121536 -0.21565405 111 57 42 255
-0.153256 -0.22489707 -0.22379693 100 64 51 255
-0.22731745 -0.23151645 -0.12025249 116 53 37 255
-0.23634775 -0.22519203 -0.13034686 100 64 51 255
3 1 2 0
3 3 4 2
3 5 6 4
3 7 8 6
3 5 12 14
3 9 10 8
3 11 0 10
3 8 10 2
3 14 21 15
3 9 17 11
3 1 12 3
3 7 14 15
3 11 13 1
3 9 15 16
3 21 20 19
3 13 18 12
3 17 19 13
3 15 22 16
3 12 20 14
3 16 23 17
3 24 27 26
3 27 30 26
3 31 28 30
3 29 24 28
3 26 28 24
3 27 29 31
3 33 34 32
3 35 38 34
3 38 37 36
3 37 32 36
3 38 32 34
3 35 37 39
3 40 43 42
3 50 48 43
3 47 44 46
3 49 51 41
3 48 40 42
3 43 45 47
3 48 51 49
3 50 44 51
3 1 3 2
3 3 5 4
3 5 7 6
3 7 9 8
3 5 3 12
3 9 11 10
3 11 1 0
3 10 0 2
3 2 4 6
3 6 8 2
3 14 20 21
3 9 16 17
3 1 13 12
3 7 5 14
3 11 17 13
3 9 7 15
3 20 18 19
3 19 23 22
3 22 21 19
3 13 19 18
3 17 23 19
3 15 21 22
3 12 18 20
3 16 22 23
3 24 25 27
3 27 31 30
3 31 29 28
3 29 25 24
3 26 30 28
3 27 25 29
3 33 35 34
3 35 39 38
3 38 39 37
3 37 33 32
3 38 36 32
3 35 33 37
3 40 41 43
3 48 42 43
3 43 47 50
3 47 46 50
3 47 45 44
3 51 44 45
3 45 41 51
3 41 40 49
3 48 49 40
3 43 41 45
3 48 50 51
3 50 46 44
