ply
format ascii 1.0
comment Created by Blender 2.78 (sub 0) - www.blender.org, source file: 'tomatostage2.blend'
element vertex 98
property float x
property float y
property float z
property uchar red
property uchar green
property uchar blue
element face 128
property list uchar uint vertex_indices
end_header
0.040210 -0.258870 -0.038857 133 191 90
0.080110 -0.505782 0.008242 133 191 90
0.040210 -0.505782 -0.038857 133 191 90
0.080110 -0.258870 0.008242 133 191 90
0.033010 -0.505782 0.048142 133 191 90
-0.006890 -0.261023 0.001043 133 191 90
-0.006890 -0.505782 0.001043 133 191 90
0.227536 0.064390 -0.204525 133 191 90
0.267436 0.064390 -0.157425 133 191 90
0.195063 0.111860 -0.170041 133 191 90
0.290227 -0.087857 -0.426214 104 191 54
0.468640 -0.105595 -0.189035 104 191 54
0.277121 -0.105595 -0.415112 104 191 54
0.481746 -0.087857 -0.200137 104 191 54
0.225027 0.203582 0.017341 104 191 54
0.238133 0.221320 0.006238 104 191 54
0.033508 0.203582 -0.208736 104 191 54
0.046613 0.221320 -0.219839 104 191 54
-0.006049 0.166275 -0.212490 104 191 54
-0.134643 0.147383 0.054917 104 191 54
0.007889 0.147383 -0.204842 104 191 54
-0.148581 0.166275 0.047269 104 191 54
-0.432764 -0.138788 -0.108664 104 191 54
-0.446702 -0.119896 -0.116312 104 191 54
-0.290232 -0.138788 -0.368424 104 191 54
-0.304170 -0.119896 -0.376072 104 191 54
-0.132287 0.147383 0.127338 104 191 54
0.163840 0.166275 0.146093 104 191 54
0.163993 0.147383 0.130195 104 191 54
0.160714 -0.138788 0.470230 104 191 54
0.160561 -0.119896 0.486128 104 191 54
-0.135567 -0.138788 0.467373 104 191 54
-0.135720 -0.119896 0.483271 104 191 54
-0.049689 -0.100077 0.218175 191 31 19
0.098452 -0.248224 0.219604 191 31 19
-0.049689 -0.248224 0.218175 191 31 19
0.098452 -0.100077 0.219604 191 31 19
0.097023 -0.248224 0.367744 191 31 19
0.097023 -0.100077 0.367744 191 31 19
-0.051117 -0.248224 0.366316 191 31 19
-0.051117 -0.100077 0.366316 191 31 19
0.256695 -0.083809 -0.275540 191 31 19
0.352455 -0.231956 -0.162502 191 31 19
0.256695 -0.231956 -0.275540 191 31 19
0.239417 -0.083809 -0.066742 191 31 19
0.239417 -0.231956 -0.066742 191 31 19
0.143657 -0.083809 -0.179780 191 31 19
0.143657 -0.231956 -0.179780 191 31 19
0.352455 -0.083809 -0.162502 191 31 19
-0.111200 -0.100077 -0.174976 191 31 19
-0.182466 -0.248224 -0.045096 191 31 19
-0.111200 -0.248224 -0.174976 191 31 19
-0.182466 -0.100077 -0.045096 191 31 19
-0.312345 -0.248224 -0.116362 191 31 19
-0.312345 -0.100077 -0.116362 191 31 19
-0.241079 -0.248224 -0.246242 191 31 19
-0.241079 -0.100077 -0.246242 191 31 19
0.011478 0.027004 0.276701 189 255 172
0.041886 -0.106769 0.269586 189 255 172
0.017196 -0.106769 0.269348 189 255 172
0.036168 0.027004 0.276939 187 253 169
0.041648 -0.106769 0.294276 189 255 172
0.035930 0.008772 0.301629 189 255 172
0.016958 -0.106769 0.294038 191 255 174
0.041648 -0.106769 0.294276 189 255 173
0.011240 0.008772 0.301391 189 255 172
0.016958 -0.106769 0.294038 189 255 172
0.249496 0.062667 -0.188541 193 255 178
0.265456 -0.088524 -0.169701 189 255 172
0.249496 -0.088524 -0.188541 189 255 172
0.265456 0.062667 -0.169701 189 255 172
0.246616 -0.088524 -0.153741 189 255 172
0.246616 0.084714 -0.153741 189 255 172
0.230656 -0.088524 -0.172581 189 255 172
0.230656 0.084714 -0.172581 189 255 172
-0.191683 0.027004 -0.148728 189 255 172
-0.203561 -0.108994 -0.127081 189 255 172
-0.191683 -0.108994 -0.148728 189 255 172
-0.225207 0.009582 -0.138959 189 255 172
-0.225207 -0.108994 -0.138959 189 255 172
-0.213330 -0.108994 -0.160606 189 255 172
-0.149179 0.067965 -0.137267 133 191 90
-0.173067 0.068934 -0.094057 133 191 90
0.033010 -0.261217 0.048142 133 191 90
-0.204935 0.035188 -0.110919 133 191 90
-0.181047 0.034220 -0.154128 133 191 90
0.234963 0.111860 -0.122941 133 191 90
-0.132441 0.166275 0.143235 104 191 54
0.265456 0.062667 -0.169701 190 255 174
0.249496 0.062667 -0.188541 189 255 172
-0.203561 0.027004 -0.127081 189 255 172
-0.213330 0.009582 -0.160606 189 255 172
0.058695 0.044684 0.257884 133 191 90
0.026043 0.018567 0.284158 133 191 90
-0.010870 0.038529 0.258128 133 191 90
0.021782 0.064646 0.231853 133 191 90
0.040210 -0.258870 -0.038857 136 192 95
-0.149179 0.067965 -0.137267 133 191 91
3 0 1 2
3 3 4 1
3 4 5 6
3 6 0 2
3 3 7 8
3 0 9 7
3 10 11 12
3 13 14 11
3 15 16 14
3 17 12 16
3 11 16 12
3 13 17 15
3 18 19 20
3 21 22 19
3 23 24 22
3 25 20 24
3 22 20 19
3 23 18 25
3 26 27 28
3 27 29 28
3 30 31 29
3 32 26 31
3 29 26 28
3 27 32 30
3 33 34 35
3 36 37 34
3 38 39 37
3 39 33 35
3 34 39 35
3 38 33 40
3 41 42 43
3 42 44 45
3 45 46 47
3 47 41 43
3 42 47 43
3 48 46 44
3 49 50 51
3 52 53 50
3 54 55 53
3 56 51 55
3 50 55 51
3 52 56 54
3 57 58 59
3 60 61 58
3 62 63 64
3 65 59 66
3 67 68 69
3 70 71 68
3 72 73 71
3 74 69 73
3 75 76 77
3 76 78 79
3 78 80 79
3 80 75 77
3 81 82 83
3 82 84 5
3 84 85 0
3 85 81 3
3 3 8 86
3 83 86 9
3 10 13 11
3 13 15 14
3 15 17 16
3 17 10 12
3 11 14 16
3 13 10 17
3 18 21 19
3 21 23 22
3 23 25 24
3 25 18 20
3 22 24 20
3 23 21 18
3 26 87 27
3 27 30 29
3 30 32 31
3 32 87 26
3 29 31 26
3 27 87 32
3 33 36 34
3 36 38 37
3 38 40 39
3 39 40 33
3 34 37 39
3 38 36 33
3 41 48 42
3 42 48 44
3 45 44 46
3 47 46 41
3 42 45 47
3 48 41 46
3 49 52 50
3 52 54 53
3 54 56 55
3 56 49 51
3 50 53 55
3 52 49 56
3 57 60 58
3 60 62 61
3 62 65 63
3 65 57 59
3 67 88 68
3 70 72 71
3 72 74 73
3 74 89 69
3 75 90 76
3 76 90 78
3 78 91 80
3 80 91 75
3 3 92 83
3 93 83 92
3 83 93 5
3 94 5 93
3 95 5 94
3 5 95 96
3 0 95 3
3 3 95 92
3 83 4 3
3 1 0 3
3 6 5 0
3 4 83 5
3 3 86 83
3 0 5 9
3 9 5 83
3 3 0 7
3 84 0 5
3 82 5 83
3 83 3 97
3 85 3 0
