ply
format ascii 1.0
comment Created by Blender 2.78 (sub 0) - www.blender.org, source file: 'tomatostage1.blend'
element vertex 99
property float x
property float y
property float z
property uchar red
property uchar green
property uchar blue
element face 64
property list uchar uint vertex_indices
end_header
0.043497 -0.363948 0.006564 138 161 73
-0.097546 -0.174272 -0.060304 138 161 73
-0.120322 -0.187661 -0.049541 138 161 73
0.016287 -0.364110 0.029615 138 161 73
-0.123582 -0.201842 -0.074080 138 161 73
-0.006764 -0.363321 0.002405 138 161 73
-0.100805 -0.188453 -0.084843 138 161 73
0.020446 -0.363948 -0.020646 138 161 73
0.043497 -0.506593 0.006564 138 161 73
0.020446 -0.506593 -0.020646 138 161 73
0.016287 -0.506593 0.029615 138 161 73
-0.006764 -0.506593 0.002405 138 161 73
0.125140 -0.167994 -0.112742 138 161 73
0.148191 -0.167994 -0.085532 138 161 73
0.110110 -0.147081 -0.097019 137 163 74
0.133161 -0.147081 -0.069809 138 161 73
0.110110 -0.147081 -0.097019 138 161 73
0.031149 -0.188403 0.152575 138 161 73
0.010900 -0.175014 0.137589 138 161 73
0.031149 -0.188403 0.152575 138 162 74
0.011063 -0.202584 0.167044 138 161 73
-0.009186 -0.189195 0.152058 138 162 73
-0.009186 -0.189195 0.152058 138 161 73
0.157313 -0.275399 -0.238014 143 186 79
0.164885 -0.265151 -0.244428 143 186 79
0.275528 -0.265151 -0.113820 143 186 79
0.267957 -0.275399 -0.107405 143 186 79
0.134789 -0.086535 0.005407 143 186 79
0.127218 -0.096782 0.011821 143 186 79
0.024145 -0.086535 -0.125201 143 186 79
0.016574 -0.096782 -0.118787 143 186 79
0.001774 -0.129249 -0.116538 143 186 79
-0.006279 -0.118335 -0.120956 143 186 79
-0.088622 -0.118335 0.029111 143 186 79
-0.080570 -0.129249 0.033529 143 186 79
-0.260851 -0.283661 -0.065392 143 186 79
-0.252798 -0.294575 -0.060974 143 186 79
-0.178508 -0.283661 -0.215460 143 186 79
-0.170455 -0.294575 -0.211041 143 186 79
-0.079208 -0.129249 0.075368 143 186 79
-0.079297 -0.118335 0.084552 143 186 79
0.091869 -0.118335 0.086203 143 186 79
0.091958 -0.129249 0.077019 143 186 79
0.089975 -0.283661 0.282646 143 186 79
0.090063 -0.294575 0.273462 143 186 79
-0.081191 -0.283661 0.280996 143 186 79
-0.081103 -0.294575 0.271811 143 186 79
-0.031490 -0.357798 0.127846 98 191 89
-0.031490 -0.272211 0.127846 98 191 89
0.054093 -0.272211 0.128671 98 191 89
0.054093 -0.357798 0.128671 98 191 89
0.053268 -0.272211 0.214255 98 191 89
0.053268 -0.357798 0.214254 98 191 89
-0.032315 -0.272211 0.213429 98 191 89
-0.032315 -0.357798 0.213429 98 191 89
0.145513 -0.348399 -0.157381 98 191 89
0.145513 -0.262812 -0.157381 98 191 89
0.200835 -0.262812 -0.092077 98 191 89
0.200835 -0.348399 -0.092077 98 191 89
0.135531 -0.262812 -0.036755 98 191 89
0.135531 -0.348399 -0.036755 98 191 89
0.080209 -0.262812 -0.102059 98 191 89
0.080209 -0.348399 -0.102059 98 191 89
-0.067026 -0.357798 -0.099284 98 191 89
-0.067026 -0.272211 -0.099284 98 191 89
-0.108197 -0.272211 -0.024250 98 191 89
-0.108197 -0.357798 -0.024250 98 191 89
-0.183231 -0.272211 -0.065422 98 191 89
-0.183231 -0.357798 -0.065422 98 191 89
-0.142059 -0.272211 -0.140455 98 191 89
-0.142059 -0.357798 -0.140455 98 191 89
0.003847 -0.273840 0.161657 189 255 172
0.003847 -0.198794 0.161657 189 255 172
0.018111 -0.198794 0.161795 189 255 172
0.018111 -0.273840 0.161795 189 255 172
0.017973 -0.210249 0.176058 189 255 172
0.017973 -0.273840 0.176058 189 255 172
0.017973 -0.273840 0.176058 189 255 173
0.003709 -0.210249 0.175921 189 255 172
0.003709 -0.273840 0.175921 191 255 174
0.003709 -0.273840 0.175921 189 255 172
0.141354 -0.264909 -0.107120 189 255 172
0.141354 -0.179317 -0.107120 193 255 178
0.150574 -0.179317 -0.096236 190 255 174
0.150574 -0.264909 -0.096236 189 255 172
0.150574 -0.179317 -0.096236 189 255 172
0.139690 -0.164451 -0.087016 189 255 172
0.139690 -0.264909 -0.087016 189 255 172
0.130470 -0.164451 -0.097900 189 255 172
0.130470 -0.264909 -0.097900 189 255 172
0.141354 -0.179317 -0.107120 189 255 172
-0.113522 -0.273649 -0.084120 189 255 172
-0.113522 -0.198794 -0.084120 189 255 172
-0.120384 -0.198794 -0.071614 189 255 172
-0.120384 -0.273649 -0.071614 189 255 172
-0.132890 -0.210959 -0.078476 189 255 172
-0.132890 -0.273649 -0.078476 189 255 172
-0.126028 -0.210959 -0.090982 189 255 172
-0.126028 -0.273649 -0.090982 189 255 172
4 0 1 2 3
4 3 2 4 5
4 5 4 6 7
4 1 0 7 6
4 0 8 9 7
4 8 0 3 10
4 10 3 5 11
4 11 5 7 9
4 0 7 12 13
4 7 5 14 12
4 3 0 13 15
4 5 3 15 16
4 17 0 7 18
4 0 19 20 3
4 3 20 21 5
4 5 22 18 7
4 23 24 25 26
4 26 25 27 28
4 28 27 29 30
4 30 29 24 23
4 26 28 30 23
4 27 25 24 29
4 31 32 33 34
4 34 33 35 36
4 36 35 37 38
4 38 37 32 31
4 34 36 38 31
4 35 33 32 37
4 39 40 41 42
4 42 41 43 44
4 44 43 45 46
4 46 45 40 39
4 42 44 46 39
4 43 41 40 45
4 47 48 49 50
4 50 49 51 52
4 52 51 53 54
4 54 53 48 47
4 50 52 54 47
4 51 49 48 53
4 55 56 57 58
4 58 57 59 60
4 60 59 61 62
4 62 61 56 55
4 58 60 62 55
4 59 57 56 61
4 63 64 65 66
4 66 65 67 68
4 68 67 69 70
4 70 69 64 63
4 66 68 70 63
4 67 65 64 69
4 71 72 73 74
4 74 73 75 76
4 77 75 78 79
4 80 78 72 71
4 81 82 83 84
4 84 85 86 87
4 87 86 88 89
4 89 88 90 81
4 91 92 93 94
4 94 93 95 96
4 96 95 97 98
4 98 97 92 91
