ply
format ascii 1.0
comment Created by Blender 2.82 (sub 7) - www.blender.org, source file: 'tooltable.blend'
element vertex 112
property float x
property float y
property float z
property uchar red
property uchar green
property uchar blue
property uchar alpha
element face 174
property list uchar uint vertex_indices
end_header
-0.231181 0.801151 0.187320 204 170 126 255
-0.419033 0.500908 0.178384 204 170 126 255
-0.262694 0.816635 0.190465 204 170 127 255
-0.385234 0.482949 0.210330 204 170 126 255
-0.260408 0.814160 0.225556 206 173 132 255
-0.416747 0.498433 0.213475 204 170 126 255
-0.228895 0.798676 0.222411 204 170 126 255
-0.387520 0.485424 0.175239 204 170 126 255
-0.352566 0.484354 0.102058 118 108 102 255
-0.502010 0.433357 0.108197 119 109 103 255
-0.452455 0.533435 0.112027 118 108 102 255
-0.402122 0.384277 0.098229 118 108 102 255
-0.490580 0.420984 0.283651 118 108 102 255
-0.390692 0.371903 0.273683 123 113 107 255
-0.441025 0.521062 0.287480 118 108 102 255
-0.341136 0.471981 0.277512 154 141 136 255
0.438473 -0.496355 -0.438473 161 147 141 255
0.438473 0.045685 0.438473 160 146 140 255
0.438473 -0.496355 0.438473 161 147 141 255
-0.438473 -0.496355 0.438473 161 147 141 255
-0.438473 0.045685 0.438473 161 147 141 255
-0.438473 -0.496355 -0.438473 161 147 141 255
0.438473 0.045685 -0.438473 161 147 141 255
0.492604 0.045685 0.492604 86 98 74 255
-0.492604 0.045685 0.492604 71 90 60 255
-0.492604 0.045685 -0.492604 68 88 57 255
-0.492604 0.372315 0.492604 67 88 56 255
-0.492604 0.372315 -0.492604 72 91 61 255
-0.438473 0.045685 -0.438473 161 147 141 255
0.492604 0.045685 -0.492604 68 88 57 255
0.492604 0.372315 0.492604 67 88 56 255
0.492604 0.372315 -0.492604 67 88 56 255
0.062803 0.373730 0.009564 199 136 94 255
0.359022 0.573730 0.057043 200 137 95 255
0.359022 0.373730 0.057043 199 136 94 255
0.295717 0.373730 0.452001 199 136 94 255
0.295717 0.573730 0.452001 200 139 99 255
-0.000502 0.373730 0.404523 199 137 95 255
0.062803 0.573730 0.009564 199 136 94 255
-0.000502 0.573730 0.404523 199 136 94 255
0.282413 0.573730 0.426729 199 136 94 255
0.020034 0.573730 0.384674 199 136 94 255
0.338486 0.573730 0.076891 199 136 94 255
0.076107 0.426468 0.034836 199 136 94 255
0.338486 0.426468 0.076891 199 136 94 255
0.076107 0.573730 0.034836 199 136 94 255
0.020034 0.426468 0.384674 199 136 94 255
0.282413 0.426468 0.426729 199 136 94 255
-0.350304 0.373730 0.044573 199 136 94 255
-0.051439 0.573730 0.018506 200 137 95 255
-0.051439 0.373730 0.018506 199 136 94 255
-0.016683 0.573730 0.416993 200 139 99 255
-0.016683 0.373730 0.416993 199 136 94 255
-0.315549 0.373730 0.443060 199 137 95 255
-0.315549 0.573730 0.443060 199 136 94 255
-0.300462 0.573730 0.418809 199 136 94 255
-0.066525 0.573730 0.042756 199 136 94 255
-0.331248 0.426468 0.065845 199 136 94 255
-0.066525 0.426468 0.042756 199 136 94 255
-0.350304 0.573730 0.044572 199 136 94 255
-0.331248 0.573730 0.065845 199 136 94 255
-0.035740 0.573730 0.395720 199 136 94 255
-0.035740 0.426468 0.395720 199 136 94 255
-0.300462 0.426468 0.418809 199 136 94 255
0.004234 0.373730 -0.423303 199 136 94 255
0.304056 0.573730 -0.433630 200 137 95 255
0.304056 0.373730 -0.433630 199 136 94 255
0.317825 0.573730 -0.033867 200 139 99 255
0.317825 0.373730 -0.033867 199 136 94 255
0.018002 0.373730 -0.023540 199 137 95 255
0.018002 0.573730 -0.023540 199 136 94 255
0.034342 0.573730 -0.046965 199 136 94 255
0.287716 0.573730 -0.410205 199 136 94 255
0.022146 0.426468 -0.401058 199 136 94 255
0.287716 0.426468 -0.410205 199 136 94 255
0.004234 0.573730 -0.423303 199 136 94 255
0.022146 0.573730 -0.401058 199 136 94 255
0.299912 0.573730 -0.056111 199 136 94 255
0.299912 0.426468 -0.056111 199 136 94 255
0.034342 0.426468 -0.046965 199 136 94 255
-0.346414 0.373730 -0.439419 199 136 94 255
-0.047284 0.573730 -0.416591 200 137 95 255
-0.047284 0.373730 -0.416591 199 136 94 255
-0.077720 0.573730 -0.017751 200 139 99 255
-0.077720 0.373730 -0.017751 199 136 94 255
-0.376850 0.373730 -0.040578 199 137 95 255
-0.376850 0.573730 -0.040578 199 136 94 255
-0.358025 0.573730 -0.062056 199 136 94 255
-0.066109 0.573730 -0.395113 199 136 94 255
-0.331066 0.426468 -0.415333 199 136 94 255
-0.066109 0.426468 -0.395113 199 136 94 255
-0.346414 0.573730 -0.439419 199 136 94 255
-0.331066 0.573730 -0.415333 199 136 94 255
-0.093068 0.573730 -0.041837 199 136 94 255
-0.093068 0.426468 -0.041837 199 136 94 255
-0.358025 0.426468 -0.062056 199 136 94 255
0.395300 0.372725 0.154494 204 170 126 255
0.417664 0.444668 -0.191682 204 170 126 255
0.430528 0.372723 0.153179 204 170 127 255
0.417934 0.479178 -0.184493 204 170 126 255
0.395570 0.407236 0.161683 204 170 126 255
0.430798 0.407234 0.160369 206 173 132 255
0.382706 0.479180 -0.183178 204 170 126 255
0.344117 0.373196 -0.191546 124 113 108 255
0.451703 0.395994 -0.305026 118 108 102 255
0.455780 0.373189 -0.195713 124 113 107 255
0.340040 0.396000 -0.300859 118 108 102 255
0.453054 0.568545 -0.269079 118 108 102 255
0.345468 0.545746 -0.155599 128 117 112 255
0.457131 0.545740 -0.159766 118 108 102 255
0.341391 0.568551 -0.264912 119 109 103 255
0.382436 0.444670 -0.190368 204 170 126 255
3 0 1 2
3 3 4 5
3 6 2 4
3 5 2 1
3 7 6 3
3 8 9 10
3 11 12 9
3 13 14 12
3 15 10 14
3 12 10 9
3 11 15 13
3 16 17 18
3 17 19 18
3 20 21 19
3 21 22 16
3 20 23 24
3 25 26 27
3 20 25 28
3 22 23 17
3 22 25 29
3 30 27 26
3 29 30 23
3 25 31 29
3 24 30 26
3 32 33 34
3 33 35 34
3 36 37 35
3 37 38 32
3 39 40 41
3 42 43 44
3 33 45 42
3 39 45 38
3 33 40 36
3 44 46 47
3 45 46 43
3 42 47 40
3 40 46 41
3 48 49 50
3 50 51 52
3 51 53 52
3 54 48 53
3 51 55 54
3 56 57 58
3 59 56 49
3 59 55 60
3 51 56 61
3 62 57 63
3 55 57 60
3 61 58 62
3 61 63 55
3 64 65 66
3 66 67 68
3 67 69 68
3 70 64 69
3 67 71 70
3 72 73 74
3 75 72 65
3 75 71 76
3 67 72 77
3 78 73 79
3 71 73 76
3 77 74 78
3 77 79 71
3 80 81 82
3 82 83 84
3 83 85 84
3 86 80 85
3 83 87 86
3 88 89 90
3 91 88 81
3 91 87 92
3 83 88 93
3 94 89 95
3 87 89 92
3 93 90 94
3 93 95 87
3 96 97 98
3 99 100 101
3 101 96 98
3 99 98 97
3 102 96 100
3 103 104 105
3 106 107 104
3 107 108 109
3 109 103 105
3 107 105 104
3 110 103 108
3 0 7 1
3 3 6 4
3 6 0 2
3 5 4 2
3 7 0 6
3 8 11 9
3 11 13 12
3 13 15 14
3 15 8 10
3 12 14 10
3 11 8 15
3 16 22 17
3 17 20 19
3 20 28 21
3 21 28 22
3 20 17 23
3 25 24 26
3 20 24 25
3 22 29 23
3 22 28 25
3 30 31 27
3 29 31 30
3 25 27 31
3 24 23 30
3 32 38 33
3 33 36 35
3 36 39 37
3 37 39 38
3 39 36 40
3 42 45 43
3 33 38 45
3 39 41 45
3 33 42 40
3 44 43 46
3 45 41 46
3 42 44 47
3 40 47 46
3 48 59 49
3 50 49 51
3 51 54 53
3 54 59 48
3 51 61 55
3 56 60 57
3 59 60 56
3 59 54 55
3 51 49 56
3 62 58 57
3 55 63 57
3 61 56 58
3 61 62 63
3 64 75 65
3 66 65 67
3 67 70 69
3 70 75 64
3 67 77 71
3 72 76 73
3 75 76 72
3 75 70 71
3 67 65 72
3 78 74 73
3 71 79 73
3 77 72 74
3 77 78 79
3 80 91 81
3 82 81 83
3 83 86 85
3 86 91 80
3 83 93 87
3 88 92 89
3 91 92 88
3 91 86 87
3 83 81 88
3 94 90 89
3 87 95 89
3 93 88 90
3 93 94 95
3 96 111 97
3 99 102 100
3 101 100 96
3 99 101 98
3 102 111 96
3 103 106 104
3 106 110 107
3 107 110 108
3 109 108 103
3 107 109 105
3 110 106 103
