ply
format ascii 1.0
comment Created by Blender 2.83.20 - www.blender.org, source file: ''
element vertex 16
property float x
property float y
property float z
property float s
property float t
property uchar red
property uchar green
property uchar blue
property uchar alpha
element face 21
property list uchar uint vertex_indices
end_header
0.050000 -0.126460 -0.050000 0.258700 0.758900 0 255 0 255
0.050000 -0.126460 0.050000 0.258700 0.758900 0 255 0 255
-0.050000 -0.126460 0.050000 0.258700 0.758900 0 255 0 255
-0.050000 0.023540 -0.050000 0.258700 0.758900 0 255 0 255
-0.050000 0.023540 0.050000 0.258700 0.758900 0 255 0 255
0.050000 0.023540 0.050000 0.258700 0.758900 0 255 0 255
0.050000 0.023540 -0.050000 0.258700 0.758900 0 255 0 255
-0.050000 -0.126460 -0.050000 0.258700 0.758900 0 255 0 255
0.040000 -0.121660 -0.040000 0.748900 0.745200 255 0 0 255
0.040000 -0.121660 0.040000 0.748900 0.745200 255 0 0 255
0.040000 -0.650000 0.040000 0.748900 0.745200 255 0 0 255
-0.040000 -0.121660 0.040000 0.748900 0.745200 255 0 0 255
-0.040000 -0.650000 0.040000 0.748900 0.745200 255 0 0 255
-0.040000 -0.121660 -0.040000 0.748900 0.745200 255 0 0 255
-0.040000 -0.650000 -0.040000 0.748900 0.745200 255 0 0 255
0.040000 -0.650000 -0.040000 0.748900 0.745200 255 0 0 255
3 0 1 2
3 3 4 5
3 0 6 5
3 1 5 4
3 2 4 3
3 6 0 7
3 7 0 2
3 6 3 5
3 1 0 5
3 2 1 4
3 7 2 3
3 3 6 7
3 8 9 10
3 9 11 12
3 11 13 14
3 15 14 13
3 15 8 10
3 10 9 12
3 12 11 14
3 8 15 13
4 14 15 10 12
