ply
format ascii 1.0
comment Created by Blender 2.78 (sub 0) - www.blender.org, source file: 'torchside.blend'
element vertex 40
property float x
property float y
property float z
property float s
property float t
property uchar red
property uchar green
property uchar blue
element face 52
property list uchar uint vertex_indices
end_header
0.040000 -0.237043 -0.371798 0.736900 0.748300 255 0 0
-0.040000 -0.237043 -0.371798 0.736900 0.748300 255 0 0
-0.040000 -0.209681 -0.446974 0.736900 0.748300 255 0 0
0.040000 -0.209681 -0.446974 0.736900 0.748300 255 0 0
0.040382 0.145707 -0.319562 0.736900 0.748300 255 0 0
0.040382 0.118346 -0.244387 0.736900 0.748300 255 0 0
-0.039618 0.118346 -0.244387 0.736900 0.748300 255 0 0
-0.039618 0.145707 -0.319562 0.736900 0.748300 255 0 0
-0.015000 0.015000 -0.495312 0.744700 0.264700 0 0 255
-0.015000 -0.015000 -0.495312 0.744700 0.264700 0 0 255
-0.015000 -0.015000 -0.375312 0.744700 0.264700 0 0 255
0.015000 0.015000 -0.495312 0.744700 0.264700 0 0 255
0.015000 0.015000 -0.375312 0.744700 0.264700 0 0 255
0.015000 -0.015000 -0.375312 0.744700 0.264700 0 0 255
0.015000 -0.015000 -0.495312 0.744700 0.264700 0 0 255
-0.015000 0.015000 -0.375312 0.744700 0.264700 0 0 255
-0.050000 0.019550 -0.374182 0.744700 0.264700 0 0 255
-0.050000 -0.018037 -0.387863 0.744700 0.264700 0 0 255
-0.050000 -0.052239 -0.293894 0.744700 0.264700 0 0 255
0.050000 0.019550 -0.374182 0.744700 0.264700 0 0 255
0.050000 -0.018037 -0.387863 0.744700 0.264700 0 0 255
0.050000 -0.014652 -0.280213 0.744700 0.264700 0 0 255
0.050000 -0.052239 -0.293894 0.744700 0.264700 0 0 255
-0.050000 -0.014652 -0.280213 0.744700 0.264700 0 0 255
-0.040000 0.040000 -0.500002 0.744700 0.264700 0 0 255
-0.040000 -0.040000 -0.500002 0.744700 0.264700 0 0 255
-0.040000 -0.040000 -0.490002 0.744700 0.264700 0 0 255
0.040000 0.040000 -0.490002 0.744700 0.264700 0 0 255
0.040000 -0.040000 -0.490002 0.744700 0.264700 0 0 255
0.040000 -0.040000 -0.500002 0.744700 0.264700 0 0 255
-0.040000 0.040000 -0.490002 0.744700 0.264700 0 0 255
0.040000 0.040000 -0.500002 0.744700 0.264700 0 0 255
0.050000 0.110549 -0.234643 0.248600 0.746800 0 255 0
-0.050000 0.110549 -0.234643 0.248600 0.746800 0 255 0
-0.050000 0.144752 -0.328613 0.248600 0.746800 0 255 0
0.050000 0.285705 -0.277309 0.248600 0.746800 0 255 0
-0.050000 0.285705 -0.277309 0.248600 0.746800 0 255 0
-0.050000 0.251503 -0.183340 0.248600 0.746800 0 255 0
0.050000 0.251503 -0.183340 0.248600 0.746800 0 255 0
0.050000 0.144751 -0.328612 0.248600 0.746800 0 255 0
3 0 1 2
3 3 4 5
3 5 6 1
3 1 6 7
3 3 2 7
3 3 0 2
3 0 3 5
3 0 5 1
3 2 1 7
3 4 3 7
3 8 9 10
3 11 12 13
3 9 14 13
3 11 8 15
3 16 17 18
3 19 20 17
3 19 21 22
3 21 23 18
3 17 20 22
3 19 16 23
3 24 25 26
3 27 28 29
3 30 26 28
3 25 29 28
3 31 24 30
3 15 8 10
3 14 11 13
3 10 9 13
3 12 11 15
3 23 16 18
3 16 19 17
3 20 19 22
3 22 21 18
3 18 17 22
3 21 19 23
3 30 24 26
3 31 27 29
3 27 30 28
3 26 25 28
3 27 31 30
3 32 33 34
3 35 36 37
3 35 38 32
3 32 38 37
3 33 37 36
3 39 34 36
3 39 32 34
3 38 35 37
3 39 35 32
3 33 32 37
3 34 33 36
3 35 39 36
