ply
format ascii 1.0
comment Created by Blender 2.78 (sub 0) - www.blender.org, source file: 'trader.blend'
element vertex 334
property float x
property float y
property float z
property uchar red
property uchar green
property uchar blue
element face 549
property list uchar uint vertex_indices
end_header
0.249998 0.400000 -0.359734 115 60 21
0.243624 0.024507 -0.336070 115 60 21
0.249998 0.000000 -0.359734 115 60 21
-0.240268 0.000000 -0.077530 115 60 21
-0.216407 0.375289 -0.071103 115 60 21
-0.240268 0.400000 -0.077530 115 60 21
-0.136237 0.400000 -0.463765 115 60 21
-0.234105 0.376304 -0.100411 115 60 21
0.227393 0.376589 -0.365822 115 60 21
0.145967 0.000000 0.026501 115 60 21
-0.116741 0.400000 -0.429895 115 60 21
-0.136237 0.400000 -0.463765 116 61 22
0.127945 0.024609 -0.003911 146 100 58
0.152341 0.024507 0.002838 115 60 21
0.152341 0.375493 0.002838 115 60 21
0.243624 0.375493 -0.336070 115 60 21
0.145967 0.400000 0.026501 115 60 21
0.218713 0.375757 -0.342216 143 92 45
0.220006 0.023959 -0.343206 143 93 47
0.127454 0.375324 -0.005064 143 92 45
0.152341 0.375493 0.002838 116 61 22
0.127454 0.375324 -0.005064 150 113 78
0.122107 0.375289 0.020075 148 77 28
-0.216407 0.024711 -0.071103 115 60 21
0.122107 0.375289 0.020075 115 60 21
0.122107 0.024711 0.020075 115 60 21
-0.209775 0.024204 -0.094455 143 92 45
0.127945 0.024609 -0.003911 148 104 64
-0.216407 0.024711 -0.071103 117 62 23
-0.208649 0.375594 -0.095312 144 94 47
-0.216407 0.375289 -0.071103 116 61 22
-0.209775 0.024204 -0.094455 150 113 78
0.126471 0.400000 -0.007369 116 61 22
-0.208649 0.375594 -0.095312 143 94 48
-0.206398 0.400000 -0.097026 115 60 21
0.126471 0.400000 -0.007369 115 60 21
0.216128 0.400000 -0.340238 115 60 21
-0.118086 0.376027 -0.433212 142 93 49
-0.118086 0.376027 -0.433212 143 92 45
-0.113631 0.376589 -0.457676 115 60 21
-0.136237 0.000000 -0.463765 115 60 21
0.227393 0.023411 -0.365822 115 60 21
-0.136237 0.400000 -0.463765 115 60 22
-0.113631 0.023411 -0.457676 115 60 21
0.220006 0.023959 -0.343206 143 92 45
-0.118758 0.023554 -0.434870 143 92 45
-0.142400 0.376304 -0.440884 115 60 21
-0.208649 0.375594 -0.095312 144 95 49
-0.234105 0.023696 -0.100411 115 60 21
-0.142400 0.023696 -0.440884 115 60 21
-0.208649 0.375594 -0.095312 144 95 50
-0.142400 0.023696 -0.440884 119 65 27
0.472618 0.000000 0.066298 115 60 21
0.471518 -0.375493 0.090780 115 60 21
0.472618 -0.400000 0.066298 115 60 21
0.055064 -0.400000 0.447938 115 60 21
0.079750 -0.024711 0.449047 115 60 21
0.055064 0.000000 0.447938 115 60 21
0.071957 -0.023696 0.072014 115 60 21
0.056128 -0.023696 0.424265 115 60 21
0.449230 -0.023411 0.065247 115 60 21
0.430483 -0.375391 0.440104 146 100 58
0.455761 -0.375493 0.441412 115 60 21
0.455761 -0.024507 0.441412 115 60 21
0.471518 -0.024507 0.090780 115 60 21
0.454661 -0.400000 0.465895 115 60 21
0.454661 0.000000 0.465895 115 60 21
0.445867 -0.024243 0.090172 143 92 45
0.446915 -0.376041 0.088926 143 93 47
0.429754 -0.024676 0.439086 143 92 45
0.455761 -0.024507 0.441412 116 61 22
0.429754 -0.024676 0.439086 150 113 78
0.429975 -0.024711 0.464785 148 77 28
0.079750 -0.375289 0.449047 115 60 21
0.429975 -0.024711 0.464785 115 60 21
0.429975 -0.375289 0.464785 115 60 21
0.081171 -0.375796 0.424813 143 92 45
0.430483 -0.375391 0.440104 148 104 64
0.079750 -0.375289 0.449047 117 62 23
0.082084 -0.024406 0.423733 144 94 47
0.079750 -0.024711 0.449047 116 61 22
0.081171 -0.375796 0.424813 150 113 78
0.428296 0.000000 0.437048 116 61 22
0.082084 -0.024406 0.423733 143 94 48
0.083911 0.000000 0.421572 115 60 21
0.443771 0.000000 0.092663 115 60 21
0.428296 0.000000 0.437048 115 60 21
0.073021 0.000000 0.048341 116 61 22
0.097356 -0.023973 0.074240 142 93 49
0.099387 0.000000 0.077188 115 60 21
0.097356 -0.023973 0.074240 143 92 45
0.096409 -0.023411 0.049392 115 60 21
0.096409 -0.376589 0.049392 115 60 21
0.449230 -0.376589 0.065247 115 60 21
0.073021 0.000000 0.048341 115 60 22
0.073021 -0.400000 0.048341 115 60 21
0.446915 -0.376041 0.088926 143 92 45
0.096340 -0.376446 0.072767 143 92 45
0.082084 -0.024406 0.423733 144 95 49
0.056128 -0.376304 0.424265 115 60 21
0.073021 0.000000 0.048341 115 60 21
0.071957 -0.376304 0.072014 115 60 21
0.082084 -0.024406 0.423733 144 95 50
0.071957 -0.376304 0.072014 119 65 27
0.500000 -0.400000 0.500000 140 104 69
-0.500000 -0.400000 -0.500000 140 104 69
-0.500000 -0.400000 0.500000 140 104 69
-0.500000 -0.500000 -0.500000 140 104 69
-0.500000 -0.500000 0.500000 140 104 69
0.500000 -0.500000 -0.500000 140 104 69
0.500000 -0.500000 0.500000 140 104 69
0.000659 0.000000 0.059904 115 60 21
0.000320 -0.375493 0.084409 115 60 21
0.000659 -0.400000 0.059904 115 60 21
-0.404836 -0.400000 0.454332 115 60 21
-0.380128 -0.024711 0.454674 115 60 21
-0.404836 0.000000 0.454332 115 60 21
-0.399630 -0.023696 0.078064 115 60 21
-0.404509 -0.023696 0.430638 115 60 21
-0.022750 -0.023411 0.059580 115 60 21
-0.399303 0.000000 0.054370 116 61 22
-0.376823 0.000000 0.427083 115 60 21
-0.372054 0.000000 0.082384 115 60 21
-0.029842 -0.375391 0.434839 146 100 58
-0.004536 -0.375493 0.435361 115 60 21
-0.004875 0.000000 0.459866 115 60 21
0.000320 -0.024507 0.084409 115 60 21
-0.004875 -0.400000 0.459866 115 60 21
-0.004536 -0.024507 0.435361 115 60 21
-0.025337 -0.024243 0.084598 143 92 45
-0.024329 -0.376041 0.083320 143 93 47
-0.030603 -0.024676 0.433843 143 92 45
-0.004536 -0.024507 0.435361 116 61 22
-0.029583 -0.024711 0.459524 148 77 28
-0.379569 -0.024406 0.429299 150 113 78
-0.030603 -0.024676 0.433843 150 113 78
-0.380128 -0.375289 0.454674 115 60 21
-0.029583 -0.024711 0.459524 115 60 21
-0.029583 -0.375289 0.459524 115 60 21
-0.379461 -0.375796 0.430407 143 92 45
-0.029842 -0.375391 0.434839 148 104 64
-0.380128 -0.375289 0.454674 117 62 23
-0.379569 -0.024406 0.429299 144 94 47
-0.380128 -0.024711 0.454674 116 61 22
-0.379461 -0.375796 0.430407 150 113 78
-0.032124 0.000000 0.431852 116 61 22
-0.379569 -0.024406 0.429299 143 94 48
-0.027354 0.000000 0.087153 115 60 21
-0.032124 0.000000 0.431852 115 60 21
-0.374175 -0.023973 0.079501 142 93 49
-0.374175 -0.023973 0.079501 143 92 45
-0.375894 -0.023411 0.054694 115 60 21
-0.375894 -0.376589 0.054694 115 60 21
-0.022750 -0.376589 0.059580 115 60 21
-0.399303 0.000000 0.054370 115 60 22
-0.399303 -0.400000 0.054370 115 60 21
-0.024329 -0.376041 0.083320 143 92 45
-0.375236 -0.376446 0.078060 143 92 45
-0.379569 -0.024406 0.429299 144 95 49
-0.404509 -0.376304 0.430638 115 60 21
-0.399303 0.000000 0.054370 115 60 21
-0.399630 -0.376304 0.078064 115 60 21
-0.379569 -0.024406 0.429299 144 95 50
-0.399630 -0.376304 0.078064 119 65 27
0.476375 0.000000 -0.421835 115 60 21
0.474788 -0.375493 -0.397380 115 60 21
0.476375 -0.400000 -0.421835 115 60 21
0.051308 -0.400000 -0.048582 115 60 21
0.075967 -0.024711 -0.046982 115 60 21
0.051308 0.000000 -0.048582 115 60 21
0.077215 0.000000 -0.447742 115 60 21
0.052842 -0.023696 -0.072229 115 60 21
0.453013 -0.376589 -0.423352 115 60 21
0.453013 -0.023411 -0.423352 115 60 21
0.103001 0.000000 -0.418376 115 60 21
0.077215 0.000000 -0.447742 116 61 22
0.426808 -0.375391 -0.048941 146 100 58
0.452055 -0.375493 -0.047131 115 60 21
0.450468 0.000000 -0.022675 115 60 21
0.474788 -0.024507 -0.397380 115 60 21
0.450468 -0.400000 -0.022675 115 60 21
0.452055 -0.024507 -0.047131 115 60 21
0.449154 -0.024243 -0.398498 143 92 45
0.450226 -0.376041 -0.399723 143 93 47
0.426099 -0.024676 -0.049975 143 92 45
0.452055 -0.024507 -0.047131 116 61 22
0.425809 -0.024711 -0.024276 148 77 28
0.078804 -0.024406 -0.072244 150 113 78
0.426099 -0.024676 -0.049975 150 113 78
0.075967 -0.375289 -0.046982 115 60 21
0.425809 -0.024711 -0.024276 115 60 21
0.425809 -0.375289 -0.024276 115 60 21
0.077869 -0.375796 -0.071183 143 92 45
0.426808 -0.375391 -0.048941 148 104 64
0.075967 -0.375289 -0.046982 117 62 23
0.078804 -0.024406 -0.072244 144 94 47
0.075967 -0.024711 -0.046982 116 61 22
0.077869 -0.375796 -0.071183 150 113 78
0.424682 0.000000 -0.052041 116 61 22
0.078804 -0.024406 -0.072244 143 94 48
0.080673 0.000000 -0.074368 115 60 21
0.424682 0.000000 -0.052041 115 60 21
0.447009 0.000000 -0.396049 115 60 21
0.101029 -0.023973 -0.421364 142 93 49
0.101029 -0.023973 -0.421364 143 92 45
0.100577 -0.023411 -0.446226 115 60 21
0.077215 -0.400000 -0.447742 115 60 21
0.077215 0.000000 -0.447742 115 60 22
0.100577 -0.376589 -0.446226 115 60 21
0.450226 -0.376041 -0.399723 143 92 45
0.100043 -0.376446 -0.422857 143 92 45
0.075680 -0.023696 -0.424095 115 60 21
0.078804 -0.024406 -0.072244 144 95 49
0.052842 -0.376304 -0.072229 115 60 21
0.075680 -0.376304 -0.424095 115 60 21
0.078804 -0.024406 -0.072244 144 95 50
0.075680 -0.376304 -0.424095 119 65 27
-0.058863 0.000000 -0.438377 115 60 21
-0.055643 -0.375493 -0.414083 115 60 21
-0.058863 -0.400000 -0.438377 115 60 21
-0.402832 -0.400000 0.010716 115 60 21
-0.378336 -0.024711 0.007469 115 60 21
-0.402832 0.000000 0.010716 115 60 21
-0.455395 0.000000 -0.385815 115 60 21
-0.405946 -0.023696 -0.012775 115 60 21
-0.082071 -0.023411 -0.435301 115 60 21
-0.455395 0.000000 -0.385815 116 61 22
-0.379069 0.000000 -0.020309 115 60 21
-0.424369 0.000000 -0.362052 115 60 21
-0.034636 -0.375391 -0.062985 146 100 58
-0.009521 -0.375493 -0.066141 115 60 21
-0.006301 0.000000 -0.041846 115 60 21
-0.055643 -0.024507 -0.414083 115 60 21
-0.006301 -0.400000 -0.041846 115 60 21
-0.009521 -0.024507 -0.066141 115 60 21
-0.081001 -0.024243 -0.410173 143 92 45
-0.080189 -0.376041 -0.411583 143 93 47
-0.035533 -0.024676 -0.063859 143 92 45
-0.009521 -0.024507 -0.066141 116 61 22
-0.035533 -0.024676 -0.063859 150 113 78
-0.030797 -0.024711 -0.038599 148 77 28
-0.378336 -0.375289 0.007469 115 60 21
-0.030797 -0.024711 -0.038599 115 60 21
-0.030797 -0.375289 -0.038599 115 60 21
-0.381197 -0.375796 -0.016637 143 92 45
-0.034636 -0.375391 -0.062985 148 104 64
-0.378336 -0.375289 0.007469 117 62 23
-0.380488 -0.024406 -0.017861 144 94 47
-0.378336 -0.024711 0.007469 116 61 22
-0.034636 -0.375391 -0.062985 150 113 78
-0.381197 -0.375796 -0.016637 150 113 78
-0.037326 0.000000 -0.065609 116 61 22
-0.380488 -0.024406 -0.017861 143 94 48
-0.082626 0.000000 -0.407352 115 60 21
-0.426887 -0.023973 -0.364596 142 93 49
-0.037326 0.000000 -0.065609 115 60 21
-0.426887 -0.023973 -0.364596 143 92 45
-0.432186 -0.023411 -0.388891 115 60 21
-0.455395 -0.400000 -0.385815 115 60 21
-0.082071 -0.376589 -0.435301 115 60 21
-0.455395 0.000000 -0.385815 115 60 22
-0.432186 -0.376589 -0.388891 115 60 21
-0.080189 -0.376041 -0.411583 143 92 45
-0.428145 -0.376446 -0.365868 143 92 45
-0.452281 -0.023696 -0.362324 115 60 21
-0.380488 -0.024406 -0.017861 144 95 49
-0.405946 -0.376304 -0.012775 115 60 21
-0.452281 -0.376304 -0.362324 115 60 21
-0.380488 -0.024406 -0.017861 144 95 50
-0.452281 -0.376304 -0.362324 119 65 27
0.250670 0.400000 0.078161 115 60 21
0.246430 0.024507 0.102299 115 60 21
0.250670 0.000000 0.078161 115 60 21
-0.212505 0.400000 0.402921 115 60 21
-0.188167 0.024711 0.407196 115 60 21
-0.188167 0.375289 0.407196 115 60 21
-0.143297 0.400000 0.008954 115 60 21
-0.208405 0.376304 0.379582 115 60 21
0.227612 0.376589 0.074110 115 60 21
0.181463 0.000000 0.472128 115 60 21
-0.143297 0.000000 0.008954 115 60 21
-0.120861 0.400000 0.040952 115 60 21
-0.143297 0.400000 0.008954 116 61 22
0.185703 0.024507 0.447991 115 60 21
0.220909 0.024507 0.097815 143 93 47
0.160181 0.024507 0.443508 146 100 58
0.185703 0.375493 0.447991 115 60 21
0.246430 0.375493 0.102299 115 60 21
0.181463 0.400000 0.472128 115 60 21
0.221070 0.375757 0.098396 143 92 45
0.160211 0.375324 0.442338 143 92 45
0.185703 0.375493 0.447991 116 61 22
0.160211 0.375324 0.442338 150 113 78
0.157125 0.375289 0.467853 148 77 28
-0.212505 0.000000 0.402921 115 60 21
0.157125 0.375289 0.467853 115 60 21
0.157125 0.024711 0.467853 115 60 21
-0.183867 0.024711 0.382721 143 92 45
0.161424 0.024711 0.443377 148 104 64
-0.188167 0.024711 0.407196 117 62 23
-0.182596 0.375594 0.382393 144 94 47
-0.188167 0.375289 0.407196 116 61 22
0.161424 0.024711 0.443377 150 113 78
-0.183867 0.024711 0.382721 150 113 78
0.159027 0.400000 0.440130 116 61 22
-0.182596 0.375594 0.382393 143 94 48
-0.180506 0.400000 0.380485 115 60 21
0.159027 0.400000 0.440130 115 60 21
0.218672 0.400000 0.100597 115 60 21
-0.122497 0.376027 0.037768 142 93 49
-0.122497 0.376027 0.037768 143 92 45
-0.120239 0.376589 0.013004 115 60 21
-0.120239 0.023411 0.013004 115 60 21
0.227612 0.023411 0.074110 115 60 21
-0.143297 0.400000 0.008954 115 60 22
0.223631 0.023411 0.096776 143 92 45
-0.124221 0.023411 0.035669 143 92 45
-0.147397 0.376304 0.032293 115 60 21
-0.182596 0.375594 0.382393 144 95 49
-0.208405 0.023696 0.379582 115 60 21
-0.147397 0.023696 0.032293 115 60 21
-0.182596 0.375594 0.382393 144 95 50
-0.122408 0.023696 0.036683 143 92 45
-0.183415 0.023696 0.383972 143 92 45
-0.147397 0.023696 0.032293 119 65 27
-0.208649 0.375594 -0.095312 150 113 78
0.127945 0.024609 -0.003911 150 113 78
0.082084 -0.024406 0.423733 150 113 78
0.430483 -0.375391 0.440104 150 113 78
0.500000 -0.400000 -0.500000 140 104 69
-0.029842 -0.375391 0.434839 150 113 78
0.426808 -0.375391 -0.048941 150 113 78
-0.380488 -0.024406 -0.017861 150 113 78
-0.182596 0.375594 0.382393 150 113 78
3 0 1 2
3 3 4 5
3 6 7 5
3 2 8 0
3 3 2 9
3 5 10 11
3 1 12 13
3 0 14 15
3 9 1 13
3 9 14 16
3 17 12 18
3 13 19 20
3 15 18 1
3 14 17 15
3 4 21 22
3 9 23 3
3 5 24 16
3 16 25 9
3 19 26 27
3 24 27 25
3 28 29 30
3 25 31 23
3 32 33 34
3 0 35 16
3 0 10 36
3 5 35 34
3 19 37 33
3 34 37 10
3 36 19 35
3 10 17 36
3 8 38 39
3 40 41 2
3 0 39 42
3 42 43 40
3 38 44 45
3 39 45 43
3 41 45 44
3 41 17 8
3 46 47 7
3 5 48 3
3 40 46 6
3 3 49 40
3 50 45 26
3 7 26 48
3 51 38 46
3 48 45 51
3 52 53 54
3 55 56 57
3 57 58 59
3 54 60 52
3 53 61 62
3 52 63 64
3 54 62 65
3 65 63 66
3 67 61 68
3 62 69 70
3 64 68 53
3 63 67 64
3 56 71 72
3 65 73 55
3 57 74 66
3 66 75 65
3 69 76 77
3 74 77 75
3 78 79 80
3 75 81 73
3 82 83 84
3 66 85 86
3 87 85 52
3 57 86 84
3 69 88 83
3 84 88 89
3 85 69 86
3 89 67 85
3 60 90 91
3 54 92 93
3 94 60 91
3 94 92 95
3 90 96 97
3 91 97 92
3 92 96 93
3 93 67 60
3 59 90 98
3 57 99 55
3 95 58 100
3 55 101 95
3 102 97 76
3 59 76 99
3 103 90 58
3 99 97 103
3 104 105 106
3 106 107 108
3 105 109 107
3 109 104 110
3 108 104 106
3 111 112 113
3 114 115 116
3 116 117 118
3 113 119 111
3 120 121 122
3 112 123 124
3 125 126 111
3 113 124 127
3 127 128 125
3 129 123 130
3 124 131 132
3 126 130 112
3 128 129 126
3 133 134 135
3 127 136 114
3 116 137 125
3 125 138 127
3 131 139 140
3 137 140 138
3 141 142 143
3 138 144 136
3 145 146 121
3 120 147 111
3 116 148 121
3 146 129 149
3 121 149 122
3 147 131 148
3 122 129 147
3 119 150 151
3 113 152 153
3 111 151 154
3 154 152 155
3 150 156 157
3 151 157 152
3 152 156 153
3 153 129 119
3 117 158 118
3 114 118 159
3 155 117 160
3 114 161 155
3 162 157 139
3 118 139 159
3 163 150 117
3 163 139 157
3 164 165 166
3 167 168 169
3 170 171 169
3 164 172 173
3 169 174 175
3 165 176 177
3 178 179 164
3 166 177 180
3 180 181 178
3 182 176 183
3 177 184 185
3 179 183 165
3 179 184 182
3 186 187 188
3 180 189 167
3 178 168 190
3 178 191 180
3 184 192 193
3 190 193 191
3 194 195 196
3 191 197 189
3 198 199 200
3 164 201 178
3 175 202 164
3 178 200 169
3 184 203 199
3 200 203 174
3 202 184 201
3 174 182 202
3 173 204 205
3 206 172 166
3 207 173 205
3 207 208 206
3 204 209 210
3 205 210 208
3 208 209 172
3 172 182 173
3 211 212 171
3 169 213 167
3 206 211 170
3 167 214 206
3 215 210 192
3 171 192 213
3 216 204 211
3 213 210 216
3 217 218 219
3 220 221 222
3 223 224 222
3 219 225 217
3 226 227 228
3 218 229 230
3 231 232 217
3 219 230 233
3 231 230 234
3 235 229 236
3 230 237 238
3 232 236 218
3 234 235 232
3 221 239 240
3 233 241 220
3 222 242 231
3 231 243 233
3 237 244 245
3 242 245 243
3 246 247 248
3 241 249 250
3 251 252 227
3 226 253 217
3 231 227 222
3 237 254 252
3 227 254 228
3 253 237 255
3 228 235 253
3 225 256 257
3 258 259 219
3 217 257 260
3 260 261 258
3 256 262 263
3 257 263 261
3 261 262 259
3 259 235 225
3 264 265 224
3 222 266 220
3 258 264 223
3 220 267 258
3 268 263 244
3 224 244 266
3 269 256 264
3 266 263 269
3 270 271 272
3 273 274 275
3 276 277 273
3 272 278 270
3 279 280 272
3 273 281 282
3 283 284 285
3 270 286 287
3 272 283 279
3 279 286 288
3 289 285 284
3 283 290 291
3 287 284 271
3 286 289 287
3 275 292 293
3 279 274 294
3 288 275 295
3 288 296 279
3 290 297 298
3 295 298 296
3 299 300 301
3 274 302 303
3 304 305 306
3 270 307 288
3 282 308 270
3 273 307 306
3 290 309 305
3 306 309 281
3 308 290 307
3 281 289 308
3 278 310 311
3 272 312 313
3 270 311 314
3 314 312 280
3 310 315 316
3 311 316 312
3 312 315 313
3 313 289 278
3 317 318 277
3 294 277 319
3 280 317 276
3 280 319 320
3 321 322 323
3 277 323 319
3 324 310 317
3 319 322 324
3 0 15 1
3 3 23 4
3 6 46 7
3 2 41 8
3 3 40 2
3 5 34 10
3 1 18 12
3 0 16 14
3 9 2 1
3 9 13 14
3 17 19 12
3 13 12 19
3 15 17 18
3 14 19 17
3 4 325 21
3 9 25 23
3 5 4 24
3 16 24 25
3 19 29 26
3 24 21 27
3 28 26 29
3 25 326 31
3 32 19 33
3 0 36 35
3 0 11 10
3 5 16 35
3 19 17 37
3 34 33 37
3 36 17 19
3 10 37 17
3 8 17 38
3 40 43 41
3 0 8 39
3 42 39 43
3 38 17 44
3 39 38 45
3 41 43 45
3 41 44 17
3 46 38 47
3 5 7 48
3 40 49 46
3 3 48 49
3 50 38 45
3 7 50 26
3 51 45 38
3 48 26 45
3 52 64 53
3 55 73 56
3 57 100 58
3 54 93 60
3 53 68 61
3 52 66 63
3 54 53 62
3 65 62 63
3 67 69 61
3 62 61 69
3 64 67 68
3 63 69 67
3 56 327 71
3 65 75 73
3 57 56 74
3 66 74 75
3 69 79 76
3 74 71 77
3 78 76 79
3 75 328 81
3 82 69 83
3 66 52 85
3 87 89 85
3 57 66 86
3 69 67 88
3 84 83 88
3 85 67 69
3 89 88 67
3 60 67 90
3 54 95 92
3 94 52 60
3 94 91 92
3 90 67 96
3 91 90 97
3 92 97 96
3 93 96 67
3 59 58 90
3 57 59 99
3 95 101 58
3 55 99 101
3 102 90 97
3 59 102 76
3 103 97 90
3 99 76 97
3 104 329 105
3 106 105 107
3 105 329 109
3 109 329 104
3 108 110 104
3 111 126 112
3 114 136 115
3 116 160 117
3 113 153 119
3 120 116 121
3 112 130 123
3 125 128 126
3 113 112 124
3 127 124 128
3 129 131 123
3 124 123 131
3 126 129 130
3 128 131 129
3 133 115 134
3 127 138 136
3 116 115 137
3 125 137 138
3 131 142 139
3 137 135 140
3 141 139 142
3 138 330 144
3 145 131 146
3 125 111 148
3 120 122 147
3 116 125 148
3 146 131 129
3 121 146 149
3 147 129 131
3 122 149 129
3 119 129 150
3 113 155 152
3 111 119 151
3 154 151 152
3 150 129 156
3 151 150 157
3 152 157 156
3 153 156 129
3 117 150 158
3 114 116 118
3 155 161 117
3 114 159 161
3 162 150 157
3 118 162 139
3 163 157 150
3 163 159 139
3 164 179 165
3 167 189 168
3 170 211 171
3 164 166 172
3 169 200 174
3 165 183 176
3 178 181 179
3 166 165 177
3 180 177 181
3 182 184 176
3 177 176 184
3 179 182 183
3 179 181 184
3 186 168 187
3 180 191 189
3 178 169 168
3 178 190 191
3 184 195 192
3 190 188 193
3 194 192 195
3 191 331 197
3 198 184 199
3 164 202 201
3 175 174 202
3 178 201 200
3 184 182 203
3 200 199 203
3 202 182 184
3 174 203 182
3 173 182 204
3 206 208 172
3 207 164 173
3 207 205 208
3 204 182 209
3 205 204 210
3 208 210 209
3 172 209 182
3 211 204 212
3 169 171 213
3 206 214 211
3 167 213 214
3 215 204 210
3 171 215 192
3 216 210 204
3 213 192 210
3 217 232 218
3 220 241 221
3 223 264 224
3 219 259 225
3 226 222 227
3 218 236 229
3 231 234 232
3 219 218 230
3 231 233 230
3 235 237 229
3 230 229 237
3 232 235 236
3 234 237 235
3 221 332 239
3 233 243 241
3 222 221 242
3 231 242 243
3 237 247 244
3 242 239 245
3 246 244 247
3 241 243 249
3 251 237 252
3 226 228 253
3 231 255 227
3 237 235 254
3 227 252 254
3 253 235 237
3 228 254 235
3 225 235 256
3 258 261 259
3 217 225 257
3 260 257 261
3 256 235 262
3 257 256 263
3 261 263 262
3 259 262 235
3 264 256 265
3 222 224 266
3 258 267 264
3 220 266 267
3 268 256 263
3 224 268 244
3 269 263 256
3 266 244 263
3 270 287 271
3 273 294 274
3 276 317 277
3 272 313 278
3 279 294 280
3 273 306 281
3 283 271 284
3 270 288 286
3 272 271 283
3 279 283 286
3 289 290 285
3 283 285 290
3 287 289 284
3 286 290 289
3 275 333 292
3 279 296 274
3 288 273 275
3 288 295 296
3 290 300 297
3 295 292 298
3 299 297 300
3 274 296 302
3 304 290 305
3 270 308 307
3 282 281 308
3 273 288 307
3 290 289 309
3 306 305 309
3 308 289 290
3 281 309 289
3 278 289 310
3 272 280 312
3 270 278 311
3 314 311 312
3 310 289 315
3 311 310 316
3 312 316 315
3 313 315 289
3 317 310 318
3 294 273 277
3 280 320 317
3 280 294 319
3 321 310 322
3 277 321 323
3 324 322 310
3 319 323 322
