ply
format ascii 1.0
comment Created by Blender 2.82 (sub 7) - www.blender.org, source file: 'trapunloaded.blend'
element vertex 122
property float x
property float y
property float z
property uchar red
property uchar green
property uchar blue
property uchar alpha
element face 228
property list uchar uint vertex_indices
end_header
-0.030457 -0.410714 -0.018412 133 132 135 255
-0.030457 -0.447538 0.018412 104 31 32 255
-0.030457 -0.447538 -0.018412 104 35 33 255
-0.030457 -0.410714 0.018412 94 91 96 255
-0.110457 -0.447538 0.018412 104 38 34 255
-0.110457 -0.410714 0.018412 94 91 96 255
-0.110457 -0.447538 -0.018412 104 38 34 255
-0.110457 -0.410714 -0.018412 93 90 95 255
0.500000 0.500000 -0.500000 88 80 82 255
0.500000 0.377821 0.377821 88 80 82 255
0.500000 0.377821 -0.377821 88 80 82 255
0.500000 -0.500000 0.500000 88 80 82 255
-0.378717 -0.378717 0.500000 88 80 82 255
-0.500000 -0.500000 0.500000 88 80 82 255
-0.500000 -0.500000 -0.500000 88 80 82 255
-0.500000 0.374982 -0.374982 88 80 82 255
-0.500000 0.500000 -0.500000 88 80 82 255
-0.379282 0.379282 -0.500000 88 80 82 255
-0.377258 -0.500000 0.377258 88 80 82 255
0.377258 -0.500000 0.377258 88 80 82 255
0.376791 0.500000 0.376791 88 80 82 255
0.500000 0.500000 0.500000 88 80 82 255
-0.376791 0.500000 -0.376791 88 80 82 255
0.265763 0.396618 -0.265763 93 90 95 255
0.376791 0.500000 -0.376791 88 80 82 255
-0.376791 0.500000 0.376791 88 80 82 255
-0.500000 0.500000 0.500000 88 80 82 255
-0.265763 0.396618 0.265763 93 90 95 255
-0.120631 0.396618 -0.120631 93 90 95 255
-0.265763 0.396618 -0.265763 93 90 95 255
0.265763 0.396618 0.265763 93 90 95 255
0.120631 0.417167 -0.120631 104 30 32 255
0.120631 0.396618 -0.120631 93 90 95 255
0.120631 0.396618 0.120631 93 90 95 255
-0.120631 0.396618 0.120631 93 90 95 255
-0.120631 0.417167 -0.120631 104 31 32 255
-0.103093 0.417167 0.103093 104 30 32 255
-0.103093 0.417167 -0.103093 104 30 32 255
-0.120631 0.417167 0.120631 104 38 34 255
0.120631 0.417167 0.120631 104 31 32 255
-0.367689 0.260754 0.260754 87 79 79 255
-0.500000 0.374982 0.374982 88 80 82 255
-0.500000 -0.374982 -0.374982 88 80 82 255
-0.500000 -0.374982 0.374982 88 80 82 255
-0.367689 -0.260754 -0.260754 88 80 82 255
-0.367689 0.240003 -0.240003 104 31 32 255
-0.367689 0.260754 -0.260754 89 79 81 255
-0.367689 -0.260754 0.260754 88 79 80 255
-0.367689 0.240003 0.240003 104 32 32 255
-0.367689 -0.240003 -0.240003 104 45 36 255
-0.367689 -0.240003 0.240003 104 34 33 255
-0.379282 -0.379282 -0.500000 88 80 82 255
0.263806 -0.263806 -0.378105 90 80 78 255
0.379282 -0.379282 -0.500000 88 80 82 255
0.500000 -0.500000 -0.500000 88 80 82 255
0.379282 0.379282 -0.500000 88 80 82 255
-0.263806 0.263806 -0.378105 90 79 77 255
0.243027 0.243027 -0.378105 104 40 34 255
-0.243027 0.243027 -0.378105 104 33 33 255
0.263806 0.263806 -0.378105 88 80 82 255
-0.263806 -0.263806 -0.378105 88 79 81 255
0.243027 -0.243027 -0.378105 104 32 33 255
-0.243027 -0.243027 -0.378105 103 38 34 255
0.500000 -0.377821 -0.377821 88 80 82 255
0.377550 -0.270851 0.270851 88 80 82 255
0.500000 -0.377821 0.377821 88 80 82 255
0.377550 0.245366 0.245366 104 31 32 255
0.377550 0.270851 0.270851 88 80 82 255
0.377550 -0.270851 -0.270851 88 80 82 255
0.377550 0.270851 -0.270851 88 80 82 255
0.377550 0.245366 -0.245366 104 30 32 255
0.377550 -0.245366 0.245366 104 30 32 255
0.377550 -0.245366 -0.245366 104 30 32 255
-0.271668 0.271668 0.358470 88 78 80 255
-0.378717 0.378717 0.500000 88 80 82 255
0.378717 0.378717 0.500000 88 80 82 255
0.378717 -0.378717 0.500000 88 80 82 255
0.271668 -0.271668 0.358470 88 81 80 255
-0.248339 -0.248339 0.358470 104 32 32 255
-0.271668 -0.271668 0.358470 89 78 80 255
0.271668 0.271668 0.358470 88 80 82 255
0.248339 0.248339 0.358470 104 30 32 255
0.248339 -0.248339 0.358470 104 34 33 255
-0.248339 0.248339 0.358470 104 30 32 255
-0.377258 -0.500000 -0.377258 88 80 82 255
0.272381 -0.411900 -0.272381 88 80 82 255
-0.272381 -0.411900 -0.272381 88 80 82 255
0.377258 -0.500000 -0.377258 88 80 82 255
-0.192280 -0.411900 0.192280 93 90 95 255
-0.272381 -0.411900 0.272381 88 80 82 255
0.272381 -0.411900 0.272381 88 80 82 255
0.192280 -0.411900 0.192280 93 90 95 255
0.181936 -0.419315 -0.172103 93 90 95 255
0.192280 -0.411900 -0.192280 93 90 95 255
-0.006255 -0.411900 -0.192280 93 90 95 255
-0.003500 -0.411900 0.192280 93 90 95 255
-0.192280 -0.411900 -0.192280 93 90 95 255
-0.182905 -0.419337 0.173042 93 90 95 255
0.006700 -0.419315 0.172103 93 90 95 255
0.181936 -0.419315 0.172103 93 90 95 255
0.004234 -0.419315 -0.172103 93 90 95 255
-0.015492 -0.419337 -0.173042 93 90 95 255
-0.182905 -0.419337 -0.173042 93 90 95 255
-0.013013 -0.419337 0.173042 93 90 95 255
0.104133 -0.410714 -0.018412 95 92 97 255
0.104133 -0.447538 0.018412 104 31 32 255
0.104133 -0.447538 -0.018412 103 43 35 255
0.104133 -0.410714 0.018412 93 90 95 255
0.024133 -0.447538 0.018412 104 32 33 255
0.024133 -0.410714 0.018412 105 103 107 255
0.024133 -0.447538 -0.018412 104 33 33 255
0.024133 -0.410714 -0.018412 136 134 136 255
0.103093 0.417167 0.103093 104 30 32 255
-0.103093 0.398292 0.103093 0 0 0 255
0.103093 0.417167 -0.103093 104 30 32 255
-0.103093 -0.030434 -0.103093 0 0 0 255
-0.103093 0.398292 -0.103093 0 0 0 255
0.103093 0.398292 0.103093 27 8 9 255
0.103093 0.398292 -0.103093 100 29 31 255
0.103093 -0.030434 0.103093 3 3 3 255
-0.103093 -0.030434 0.103093 0 0 0 255
0.103093 -0.030434 -0.103093 0 0 0 255
3 0 1 2
3 3 4 1
3 5 6 4
3 7 2 6
3 4 2 1
3 3 5 4
3 8 9 10
3 11 12 13
3 14 15 16
3 8 17 16
3 11 18 19
3 8 20 21
3 22 23 24
3 16 24 8
3 21 25 26
3 26 22 16
3 27 28 29
3 20 27 25
3 25 29 22
3 24 30 20
3 28 31 32
3 23 33 30
3 23 28 32
3 30 34 27
3 35 36 37
3 33 38 34
3 34 35 28
3 32 39 33
3 15 40 41
3 13 42 14
3 16 41 26
3 13 41 43
3 44 45 46
3 41 47 43
3 42 46 15
3 43 44 42
3 48 49 50
3 47 49 44
3 46 48 40
3 47 48 50
3 51 52 53
3 16 51 14
3 54 55 8
3 14 53 54
3 56 57 58
3 53 59 55
3 55 56 17
3 17 60 51
3 58 61 62
3 56 62 60
3 52 62 61
3 52 57 59
3 63 64 65
3 54 65 11
3 21 65 9
3 8 63 54
3 64 66 67
3 65 67 9
3 10 68 63
3 9 69 10
3 70 71 72
3 69 72 68
3 67 70 69
3 68 71 64
3 12 73 74
3 26 75 21
3 11 75 76
3 13 74 26
3 77 78 79
3 76 79 12
3 74 80 75
3 75 77 76
3 81 78 82
3 73 81 80
3 80 82 77
3 73 78 83
3 84 85 86
3 54 19 87
3 14 18 13
3 54 84 14
3 86 88 89
3 18 90 19
3 84 89 18
3 19 85 87
3 91 92 93
3 90 93 85
3 85 93 94
3 89 88 95
3 96 97 88
3 98 92 99
3 95 99 91
3 95 100 98
3 93 100 94
3 101 97 102
3 88 103 95
3 94 102 96
3 94 103 101
3 104 105 106
3 107 108 105
3 109 110 108
3 111 106 110
3 108 106 105
3 0 3 1
3 112 113 36
3 31 112 39
3 35 114 31
3 39 36 38
3 113 115 116
3 36 116 37
3 114 117 112
3 37 118 114
3 119 115 120
3 118 119 117
3 116 121 118
3 117 120 113
3 5 7 6
3 7 0 2
3 4 6 2
3 8 21 9
3 11 76 12
3 14 42 15
3 8 55 17
3 11 13 18
3 8 24 20
3 22 29 23
3 16 22 24
3 21 20 25
3 26 25 22
3 27 34 28
3 20 30 27
3 25 27 29
3 24 23 30
3 28 35 31
3 23 32 33
3 23 29 28
3 30 33 34
3 35 38 36
3 33 39 38
3 34 38 35
3 32 31 39
3 15 46 40
3 13 43 42
3 16 15 41
3 13 26 41
3 44 49 45
3 41 40 47
3 42 44 46
3 43 47 44
3 48 45 49
3 47 50 49
3 46 45 48
3 47 40 48
3 51 60 52
3 16 17 51
3 54 53 55
3 14 51 53
3 56 59 57
3 53 52 59
3 55 59 56
3 17 56 60
3 58 57 61
3 56 58 62
3 52 60 62
3 52 61 57
3 63 68 64
3 54 63 65
3 21 11 65
3 8 10 63
3 64 71 66
3 65 64 67
3 10 69 68
3 9 67 69
3 70 66 71
3 69 70 72
3 67 66 70
3 68 72 71
3 12 79 73
3 26 74 75
3 11 21 75
3 13 12 74
3 77 82 78
3 76 77 79
3 74 73 80
3 75 80 77
3 81 83 78
3 73 83 81
3 80 81 82
3 73 79 78
3 84 87 85
3 54 11 19
3 14 84 18
3 54 87 84
3 86 96 88
3 18 89 90
3 84 86 89
3 19 90 85
3 91 99 92
3 90 91 93
3 96 86 94
3 86 85 94
3 91 90 95
3 90 89 95
3 96 102 97
3 98 100 92
3 95 98 99
3 95 94 100
3 93 92 100
3 101 103 97
3 88 97 103
3 94 101 102
3 94 95 103
3 104 107 105
3 107 109 108
3 109 111 110
3 111 104 106
3 108 110 106
3 112 117 113
3 31 114 112
3 35 37 114
3 39 112 36
3 113 120 115
3 36 113 116
3 114 118 117
3 37 116 118
3 119 121 115
3 118 121 119
3 116 115 121
3 117 119 120
