ply
format ascii 1.0
comment Created by Blender 3.4.0 - www.blender.org
element vertex 64
property float x
property float y
property float z
property uchar red
property uchar green
property uchar blue
property uchar alpha
element face 73
property list uchar uint vertex_indices
end_header
-0.280000 -0.278519 0.450000 177 134 111 255
-0.480000 -0.298519 0.450000 177 134 111 255
-0.280000 -0.298519 0.450000 177 134 111 255
-0.480000 -0.278519 0.450000 177 134 111 255
-0.480000 -0.298519 -0.450000 177 134 111 255
-0.480000 -0.278519 -0.450000 177 133 110 255
-0.280000 -0.298519 -0.450000 177 134 111 255
-0.280000 -0.278519 -0.450000 177 134 111 255
-0.303066 -0.258745 0.310000 122 76 60 255
-0.480000 -0.278745 0.310000 124 78 62 255
-0.280000 -0.278745 0.310000 122 76 60 255
-0.457848 -0.258745 0.310000 122 76 60 255
-0.480000 -0.278745 0.290000 132 88 71 255
-0.303066 -0.258745 0.290000 122 76 60 255
-0.280000 -0.278745 0.290000 122 76 60 255
-0.457848 -0.258745 0.290000 122 76 60 255
-0.303066 -0.258745 -0.290000 122 76 60 255
-0.480000 -0.278745 -0.290000 126 81 65 255
-0.280000 -0.278745 -0.290000 124 78 62 255
-0.457848 -0.258745 -0.290000 122 76 60 255
-0.480000 -0.278745 -0.310000 125 80 64 255
-0.303066 -0.258745 -0.310000 122 76 60 255
-0.280000 -0.278745 -0.310000 122 76 60 255
-0.457848 -0.258745 -0.310000 122 76 60 255
-0.280000 -0.300000 0.450000 177 134 111 255
-0.480000 -0.500000 0.450000 177 134 111 255
-0.280000 -0.500000 0.450000 177 134 111 255
-0.480000 -0.300000 0.450000 177 134 111 255
-0.480000 -0.500000 -0.450000 177 134 111 255
-0.480000 -0.300000 -0.450000 177 134 111 255
-0.280000 -0.500000 -0.450000 177 134 111 255
-0.280000 -0.300000 -0.450000 177 134 111 255
-0.426733 -0.280000 0.480265 124 78 62 255
-0.456733 -0.500000 0.480265 122 76 60 255
-0.426733 -0.500000 0.480265 125 79 63 255
-0.456733 -0.280000 0.480265 122 76 60 255
-0.456733 -0.500000 0.450265 122 76 60 255
-0.426733 -0.280000 0.450265 122 76 60 255
-0.426733 -0.500000 0.450265 122 76 60 255
-0.456733 -0.280000 0.450265 122 76 60 255
-0.311685 -0.280000 0.480265 122 76 60 255
-0.341685 -0.500000 0.480265 122 76 60 255
-0.311685 -0.500000 0.480265 122 76 60 255
-0.341685 -0.280000 0.480265 122 76 60 255
-0.341685 -0.500000 0.450265 122 76 60 255
-0.311685 -0.280000 0.450265 122 76 60 255
-0.311685 -0.500000 0.450265 139 95 78 255
-0.341685 -0.280000 0.450265 122 76 60 255
-0.456733 -0.280000 -0.449926 122 76 60 255
-0.456733 -0.500000 -0.479926 122 76 60 255
-0.456733 -0.500000 -0.449926 122 76 60 255
-0.456733 -0.280000 -0.479926 122 76 60 255
-0.426733 -0.500000 -0.479926 122 76 60 255
-0.426733 -0.280000 -0.479926 130 85 68 255
-0.426733 -0.500000 -0.449926 122 76 60 255
-0.341685 -0.280000 -0.449926 122 76 60 255
-0.341685 -0.500000 -0.479926 122 76 60 255
-0.341685 -0.500000 -0.449926 122 76 60 255
-0.341685 -0.280000 -0.479926 127 81 65 255
-0.311685 -0.500000 -0.479926 122 76 60 255
-0.311685 -0.280000 -0.479926 127 82 66 255
-0.311685 -0.500000 -0.449926 122 76 60 255
-0.426733 -0.280000 -0.449926 122 76 60 255
-0.311685 -0.280000 -0.449926 125 79 63 255
3 0 1 2
3 3 4 1
3 5 6 4
3 7 2 6
3 4 2 1
3 8 9 10
3 11 12 9
3 12 13 14
3 13 10 14
3 11 13 15
3 16 17 18
3 19 20 17
3 20 21 22
3 21 18 22
3 19 21 23
3 24 25 26
3 27 28 25
3 29 30 28
3 31 26 30
3 27 31 29
3 32 33 34
3 35 36 33
3 37 34 38
3 35 37 39
3 40 41 42
3 43 44 41
3 45 42 46
3 43 45 47
3 48 49 50
3 51 52 49
3 53 54 52
3 48 53 51
3 55 56 57
3 58 59 56
3 60 61 59
3 55 60 58
3 0 3 1
3 3 5 4
3 5 7 6
3 7 0 2
3 4 6 2
3 8 11 9
3 11 15 12
3 12 15 13
3 13 8 10
3 11 8 13
3 16 19 17
3 19 23 20
3 20 23 21
3 21 16 18
3 19 16 21
3 24 27 25
3 27 29 28
3 29 31 30
3 31 24 26
3 27 24 31
3 32 35 33
3 35 39 36
3 37 32 34
3 35 32 37
3 40 43 41
3 43 47 44
3 45 40 42
3 43 40 45
3 48 51 49
3 51 53 52
3 53 62 54
3 48 62 53
3 55 58 56
3 58 60 59
3 60 63 61
3 55 63 60
4 0 7 5 3
