ply
format ascii 1.0
comment Created by Blender 2.83.20 - www.blender.org, source file: 'FlowerBoxPartsGreen.blend'
element vertex 192
property float x
property float y
property float z
property uchar red
property uchar green
property uchar blue
property uchar alpha
element face 171
property list uchar uint vertex_indices
end_header
0.343260 0.341289 0.265589 161 194 94 255
0.306330 0.530658 0.318272 161 194 94 255
0.306330 0.525298 0.337540 161 194 94 255
0.343260 0.335929 0.284857 161 194 95 255
0.286674 0.521740 0.336550 161 194 94 255
0.323604 0.332371 0.283867 161 194 94 255
0.286674 0.527100 0.317282 160 194 94 255
0.323604 0.337731 0.264599 160 194 94 255
0.320641 0.559237 0.369489 105 186 45 255
0.258364 0.547964 0.366353 105 186 45 255
0.258364 0.564948 0.305305 105 186 45 255
0.246799 0.607266 0.382851 109 184 45 255
0.246799 0.624250 0.321803 121 176 44 255
0.320641 0.576221 0.308441 106 186 45 255
0.309076 0.618539 0.385987 104 187 45 255
0.309076 0.635523 0.324939 126 171 42 255
0.133814 0.417612 -0.310636 192 135 92 255
0.133814 0.234371 -0.310636 192 135 92 255
0.149980 0.270354 -0.271790 192 135 92 255
0.149980 0.381629 -0.271790 165 116 79 255
0.133810 0.203094 0.348130 165 116 79 255
0.133810 0.448889 0.348130 165 116 79 255
0.133814 0.417612 0.310173 192 136 93 255
0.133814 0.234371 0.310173 192 135 92 255
0.149980 0.381629 0.270701 165 116 79 255
0.149980 0.270354 0.270701 192 135 92 255
0.133810 0.448889 -0.349275 165 116 79 255
0.133810 0.203094 -0.349275 165 116 79 255
0.500141 0.203094 -0.349275 165 116 79 255
0.500141 0.203094 0.348130 165 116 79 255
0.500141 0.448889 0.348130 165 116 79 255
0.500141 0.448889 -0.349275 165 116 79 255
0.500141 0.473214 -0.378936 192 135 92 255
0.500141 0.473214 0.388191 192 135 92 255
0.500141 0.500000 -0.378936 192 135 92 255
0.500141 0.500000 0.388191 192 135 92 255
0.107485 0.473214 -0.378936 192 135 92 255
0.107485 0.473214 0.388191 192 135 92 255
0.107485 0.500000 -0.378936 192 135 92 255
0.128185 0.500000 -0.359478 192 135 92 255
0.479441 0.500000 -0.359478 192 135 92 255
0.107485 0.500000 0.388191 192 135 92 255
0.128185 0.500000 0.366825 192 135 92 255
0.128185 0.475676 0.366825 113 66 38 255
0.128185 0.475676 -0.359478 97 47 15 255
0.479441 0.500000 0.366825 192 135 92 255
0.479441 0.475676 0.366825 98 49 17 255
0.479441 0.475676 -0.359478 102 53 23 255
0.223973 0.433393 0.103224 161 194 94 255
0.181911 0.625649 0.138840 161 194 94 255
0.181911 0.622006 0.158505 161 194 94 255
0.223973 0.429750 0.122890 161 194 95 255
0.162359 0.617870 0.157739 161 194 94 255
0.204420 0.425614 0.122124 161 194 94 255
0.162359 0.621513 0.138074 160 194 94 255
0.204420 0.429257 0.102458 160 194 94 255
0.195137 0.658980 0.187407 89 130 32 255
0.133188 0.645877 0.184979 94 129 32 255
0.133188 0.657419 0.122673 90 130 32 255
0.120016 0.706083 0.196133 102 126 33 255
0.120016 0.717625 0.133826 94 129 33 255
0.195137 0.670523 0.125101 87 131 32 255
0.181965 0.719187 0.198560 87 131 32 255
0.181965 0.730729 0.136254 100 127 34 255
0.347018 0.349989 -0.272318 161 194 94 255
0.306680 0.537846 -0.327839 161 194 94 255
0.306680 0.543514 -0.308659 161 194 94 255
0.347018 0.355657 -0.253138 161 194 95 255
0.287091 0.539646 -0.307516 161 194 94 255
0.327429 0.351789 -0.251995 161 194 94 255
0.287091 0.533977 -0.326695 160 194 94 255
0.327429 0.346120 -0.271174 160 194 94 255
0.320272 0.589460 -0.299628 104 187 45 255
0.258208 0.577204 -0.296006 104 187 45 255
0.258208 0.559244 -0.356773 104 187 45 255
0.245576 0.636033 -0.313392 105 187 45 255
0.245576 0.618073 -0.374160 104 187 45 255
0.320272 0.571501 -0.360396 105 187 45 255
0.307640 0.648289 -0.317015 104 187 45 255
0.307640 0.630329 -0.377782 104 187 45 255
0.241059 0.440618 -0.096624 161 194 94 255
0.181053 0.626088 -0.141347 161 194 94 255
0.181053 0.630776 -0.121904 161 194 94 255
0.241059 0.445306 -0.077181 161 194 95 255
0.161975 0.624943 -0.120498 161 194 94 255
0.221980 0.439473 -0.075774 161 194 94 255
0.161975 0.620255 -0.139941 160 194 94 255
0.221980 0.434785 -0.095217 160 194 94 255
0.190364 0.677338 -0.110827 90 130 32 255
0.129917 0.658856 -0.106371 87 131 32 255
0.129917 0.644002 -0.167971 87 131 32 255
0.111126 0.716937 -0.120376 87 131 32 255
0.111126 0.702083 -0.181977 87 131 32 255
0.190364 0.662484 -0.172428 87 131 32 255
0.171573 0.735419 -0.124833 92 129 32 255
0.171573 0.720565 -0.186434 101 127 33 255
0.213860 0.341343 -0.002515 161 194 94 255
0.164380 0.535125 -0.002515 161 194 94 255
0.164380 0.535125 0.017485 161 194 94 255
0.213860 0.341343 0.017485 161 194 95 255
0.145002 0.530177 0.017485 161 194 94 255
0.194482 0.336395 0.017485 161 194 94 255
0.145002 0.530177 -0.002515 160 194 94 255
0.194482 0.336395 -0.002515 160 194 94 255
0.176011 0.577219 0.039168 116 131 88 255
0.114614 0.561543 0.039168 113 131 88 255
0.114614 0.561543 -0.024198 113 131 88 255
0.099119 0.622227 0.039168 113 131 88 255
0.099119 0.622227 -0.024198 113 131 88 255
0.176011 0.577219 -0.024198 120 132 87 255
0.160516 0.637904 0.039168 113 131 88 255
0.160516 0.637904 -0.024198 113 131 88 255
0.263349 0.362121 0.217591 161 194 94 255
0.219409 0.553851 0.253769 161 194 94 255
0.219409 0.550142 0.273422 161 194 94 255
0.263349 0.358412 0.237244 161 194 95 255
0.199898 0.545824 0.272608 161 194 94 255
0.243838 0.354094 0.236429 161 194 94 255
0.199898 0.549533 0.252954 160 194 94 255
0.243838 0.357803 0.216776 160 194 94 255
0.232234 0.587143 0.302470 169 185 72 255
0.170416 0.573463 0.299889 163 187 71 255
0.170416 0.585213 0.237621 172 184 76 255
0.156656 0.633505 0.311218 163 187 71 255
0.156656 0.645254 0.248951 165 187 71 255
0.232234 0.598893 0.240203 163 187 71 255
0.218474 0.647185 0.313800 163 187 71 255
0.218474 0.658934 0.251532 164 187 71 255
0.259290 0.379830 -0.234035 161 194 94 255
0.215225 0.572295 -0.265903 161 194 94 255
0.215225 0.575562 -0.246172 161 194 94 255
0.259290 0.383097 -0.214303 161 194 95 255
0.195717 0.571215 -0.245452 161 194 94 255
0.239781 0.378750 -0.213584 161 194 94 255
0.195717 0.567948 -0.265184 160 194 94 255
0.239781 0.375483 -0.233315 160 194 94 255
0.228023 0.620297 -0.231601 163 187 71 255
0.166214 0.606524 -0.229320 165 186 71 255
0.166214 0.596172 -0.291836 164 187 71 255
0.152415 0.666795 -0.239300 163 187 71 255
0.152415 0.656444 -0.301816 163 187 71 255
0.228023 0.609946 -0.294116 165 186 71 255
0.214224 0.680569 -0.241581 163 187 71 255
0.214224 0.670218 -0.304096 163 187 71 255
0.387186 0.363306 -0.137784 161 194 94 255
0.387186 0.596137 -0.137784 161 194 94 255
0.375300 0.596137 -0.117763 161 194 94 255
0.375300 0.363306 -0.117763 161 194 95 255
0.355279 0.596137 -0.129648 161 194 94 255
0.355279 0.363306 -0.129648 161 194 94 255
0.367164 0.596137 -0.149669 160 194 94 255
0.367164 0.363306 -0.149669 160 194 94 255
0.384121 0.640267 -0.083172 121 131 87 255
0.320688 0.640267 -0.120827 114 131 88 255
0.358344 0.640267 -0.184261 113 131 88 255
0.320688 0.713180 -0.120827 129 130 86 255
0.358344 0.713180 -0.184261 114 131 88 255
0.421777 0.640267 -0.146605 113 131 88 255
0.384121 0.713180 -0.083172 113 131 88 255
0.421777 0.713180 -0.146605 113 131 88 255
0.305510 0.470698 -0.006154 161 194 94 255
0.305510 0.703529 -0.006154 161 194 94 255
0.305650 0.703529 0.017129 161 194 94 255
0.305650 0.470698 0.017129 161 194 95 255
0.282367 0.703529 0.017269 161 194 94 255
0.282367 0.470698 0.017269 161 194 94 255
0.282227 0.703529 -0.006013 160 194 94 255
0.282227 0.470698 -0.006013 160 194 94 255
0.331044 0.747660 0.042219 87 131 32 255
0.257277 0.747660 0.042664 104 140 46 255
0.256833 0.747660 -0.031103 88 132 33 255
0.257277 0.820572 0.042664 87 131 32 255
0.256833 0.820572 -0.031103 87 131 32 255
0.330600 0.747660 -0.031548 90 130 32 255
0.331044 0.820572 0.042219 101 126 34 255
0.330600 0.820572 -0.031548 87 131 32 255
0.360249 0.360153 0.136114 161 194 94 255
0.360249 0.592984 0.136114 161 194 94 255
0.380787 0.592984 0.125147 161 194 94 255
0.380787 0.360153 0.125147 161 194 95 255
0.391754 0.592984 0.145685 161 194 94 255
0.391754 0.360153 0.145685 161 194 94 255
0.371216 0.592984 0.156652 160 194 94 255
0.371216 0.360153 0.156652 160 194 94 255
0.391163 0.637115 0.090989 113 131 88 255
0.425911 0.637115 0.156061 113 131 88 255
0.360840 0.637115 0.190809 113 131 88 255
0.425911 0.710027 0.156061 113 131 88 255
0.360840 0.710027 0.190809 117 131 88 255
0.326092 0.637115 0.125738 114 131 88 255
0.391163 0.710027 0.090989 121 132 87 255
0.326092 0.710027 0.125738 113 131 88 255
4 0 1 2 3
4 3 2 4 5
4 5 4 6 7
4 7 6 1 0
4 3 5 7 0
4 4 2 8 9
4 10 9 11 12
4 6 4 9 10
4 2 1 13 8
4 1 6 10 13
4 11 14 15 12
4 8 13 15 14
4 13 10 12 15
4 9 8 14 11
4 16 17 18 19
4 20 21 22 23
4 22 16 19 24
4 17 23 25 18
4 18 25 24 19
4 21 26 16 22
4 23 22 24 25
4 27 20 23 17
3 27 28 29
4 26 27 17 16
3 27 29 20
4 30 31 32 33
4 29 28 31 30
4 28 27 26 31
4 20 29 30 21
4 33 32 34 35
4 31 26 36 32
4 21 30 33 37
4 26 21 37 36
4 34 38 39 40
4 32 36 38 34
4 37 33 35 41
4 36 37 41 38
4 39 42 43 44
4 41 35 45 42
4 38 41 42 39
4 35 34 40 45
4 43 46 47 44
4 45 40 47 46
4 40 39 44 47
4 42 45 46 43
4 48 49 50 51
4 51 50 52 53
4 53 52 54 55
4 55 54 49 48
4 51 53 55 48
4 52 50 56 57
4 58 57 59 60
4 54 52 57 58
4 50 49 61 56
4 49 54 58 61
4 59 62 63 60
4 56 61 63 62
4 61 58 60 63
4 57 56 62 59
4 64 65 66 67
4 67 66 68 69
4 69 68 70 71
4 71 70 65 64
4 67 69 71 64
4 68 66 72 73
4 74 73 75 76
4 70 68 73 74
4 66 65 77 72
4 65 70 74 77
4 75 78 79 76
4 72 77 79 78
4 77 74 76 79
4 73 72 78 75
4 80 81 82 83
4 83 82 84 85
4 85 84 86 87
4 87 86 81 80
4 83 85 87 80
4 84 82 88 89
4 90 89 91 92
4 86 84 89 90
4 82 81 93 88
4 81 86 90 93
4 91 94 95 92
4 88 93 95 94
4 93 90 92 95
4 89 88 94 91
4 96 97 98 99
4 99 98 100 101
4 101 100 102 103
4 103 102 97 96
4 99 101 103 96
4 100 98 104 105
4 106 105 107 108
4 102 100 105 106
4 98 97 109 104
4 97 102 106 109
4 107 110 111 108
4 104 109 111 110
4 109 106 108 111
4 105 104 110 107
4 112 113 114 115
4 115 114 116 117
4 117 116 118 119
4 119 118 113 112
4 115 117 119 112
4 116 114 120 121
4 122 121 123 124
4 118 116 121 122
4 114 113 125 120
4 113 118 122 125
4 123 126 127 124
4 120 125 127 126
4 125 122 124 127
4 121 120 126 123
4 128 129 130 131
4 131 130 132 133
4 133 132 134 135
4 135 134 129 128
4 131 133 135 128
4 132 130 136 137
4 138 137 139 140
4 134 132 137 138
4 130 129 141 136
4 129 134 138 141
4 139 142 143 140
4 136 141 143 142
4 141 138 140 143
4 137 136 142 139
4 144 145 146 147
4 147 146 148 149
4 149 148 150 151
4 151 150 145 144
4 147 149 151 144
4 148 146 152 153
4 154 153 155 156
4 150 148 153 154
4 146 145 157 152
4 145 150 154 157
4 155 158 159 156
4 152 157 159 158
4 157 154 156 159
4 153 152 158 155
4 160 161 162 163
4 163 162 164 165
4 165 164 166 167
4 167 166 161 160
4 163 165 167 160
4 164 162 168 169
4 170 169 171 172
4 166 164 169 170
4 162 161 173 168
4 161 166 170 173
4 171 174 175 172
4 168 173 175 174
4 173 170 172 175
4 169 168 174 171
4 176 177 178 179
4 179 178 180 181
4 181 180 182 183
4 183 182 177 176
4 179 181 183 176
4 180 178 184 185
4 186 185 187 188
4 182 180 185 186
4 178 177 189 184
4 177 182 186 189
4 187 190 191 188
4 184 189 191 190
4 189 186 188 191
4 185 184 190 187
