ply
format ascii 1.0
comment Created by Blender 2.83.20 - www.blender.org, source file: 'FlowerBoxPartsBlue.blend'
element vertex 192
property float x
property float y
property float z
property uchar red
property uchar green
property uchar blue
property uchar alpha
element face 171
property list uchar uint vertex_indices
end_header
0.347018 0.382674 -0.272318 161 194 94 255
0.306680 0.570531 -0.327839 161 194 94 255
0.306680 0.576200 -0.308659 161 194 94 255
0.347018 0.388343 -0.253138 161 194 95 255
0.287091 0.572331 -0.307516 161 194 94 255
0.327429 0.384474 -0.251995 161 194 94 255
0.287091 0.566663 -0.326695 160 194 94 255
0.327429 0.378806 -0.271174 160 194 94 255
0.320272 0.622146 -0.299628 28 124 125 255
0.258208 0.609890 -0.296006 30 124 125 255
0.258208 0.591930 -0.356773 53 129 123 255
0.245576 0.668718 -0.313392 27 124 125 255
0.245576 0.650759 -0.374160 34 125 125 255
0.320272 0.604186 -0.360396 33 125 125 255
0.307640 0.680975 -0.317015 27 124 125 255
0.307640 0.663015 -0.377783 27 124 125 255
0.133814 0.417612 -0.310636 192 135 92 255
0.133814 0.234371 -0.310636 192 135 92 255
0.149980 0.270354 -0.271790 192 135 92 255
0.149980 0.381629 -0.271790 165 116 79 255
0.133810 0.203094 0.348130 165 116 79 255
0.133810 0.448889 0.348130 165 116 79 255
0.133814 0.417612 0.310173 192 136 93 255
0.133814 0.234371 0.310173 192 135 92 255
0.149980 0.381629 0.270701 165 116 79 255
0.149980 0.270354 0.270701 192 135 92 255
0.133810 0.448889 -0.349275 165 116 79 255
0.133810 0.203094 -0.349275 165 116 79 255
0.500141 0.203094 -0.349275 165 116 79 255
0.500141 0.203094 0.348130 165 116 79 255
0.500141 0.448889 0.348130 165 116 79 255
0.500141 0.448889 -0.349275 165 116 79 255
0.500141 0.473214 -0.378936 192 135 92 255
0.500141 0.473214 0.388191 192 135 92 255
0.500141 0.500000 -0.378936 192 135 92 255
0.500141 0.500000 0.388191 192 135 92 255
0.107485 0.473214 -0.378936 192 135 92 255
0.107485 0.473214 0.388191 192 135 92 255
0.107485 0.500000 -0.378936 192 135 92 255
0.128185 0.500000 -0.359478 192 135 92 255
0.479440 0.500000 -0.359478 192 135 92 255
0.107485 0.500000 0.388191 192 135 92 255
0.128185 0.500000 0.366825 192 135 92 255
0.128185 0.475676 0.366825 113 66 38 255
0.128185 0.475676 -0.359478 97 47 15 255
0.479440 0.500000 0.366825 192 135 92 255
0.479440 0.475676 0.366825 98 49 17 255
0.479440 0.475676 -0.359478 102 53 23 255
0.343260 0.369791 0.265589 161 194 94 255
0.306330 0.559160 0.318272 161 194 94 255
0.306330 0.553800 0.337540 161 194 94 255
0.343260 0.364430 0.284857 161 194 95 255
0.286674 0.550242 0.336550 161 194 94 255
0.323604 0.360873 0.283867 161 194 94 255
0.286674 0.555602 0.317282 160 194 94 255
0.323604 0.366233 0.264599 160 194 94 255
0.320641 0.587738 0.369489 55 128 123 255
0.258364 0.576466 0.366353 27 124 125 255
0.258364 0.593450 0.305305 31 124 125 255
0.246799 0.635768 0.382851 27 124 125 255
0.246799 0.652752 0.321803 27 124 125 255
0.320641 0.604722 0.308441 27 124 125 255
0.309076 0.647040 0.385987 52 128 123 255
0.309076 0.664024 0.324939 32 125 125 255
0.223973 0.397187 0.103225 161 194 94 255
0.181911 0.589443 0.138840 161 194 94 255
0.181911 0.585800 0.158505 161 194 94 255
0.223973 0.393544 0.122890 161 194 95 255
0.162359 0.581664 0.157739 161 194 94 255
0.204420 0.389408 0.122124 161 194 94 255
0.162359 0.585307 0.138074 160 194 94 255
0.204420 0.393051 0.102458 160 194 94 255
0.195137 0.622775 0.187407 48 128 124 255
0.133188 0.609671 0.184980 27 124 125 255
0.133188 0.621213 0.122673 27 124 125 255
0.120016 0.669877 0.196133 47 127 124 255
0.120016 0.681419 0.133826 27 124 125 255
0.195137 0.634317 0.125101 27 124 125 255
0.181965 0.682981 0.198560 29 124 125 255
0.181965 0.694523 0.136254 35 125 125 255
0.241059 0.397263 -0.096624 161 194 94 255
0.181053 0.582733 -0.141347 161 194 94 255
0.181053 0.587421 -0.121904 161 194 94 255
0.241059 0.401951 -0.077181 161 194 95 255
0.161974 0.581588 -0.120498 161 194 94 255
0.221980 0.396118 -0.075774 161 194 94 255
0.161974 0.576900 -0.139941 160 194 94 255
0.221980 0.391430 -0.095217 160 194 94 255
0.190364 0.633983 -0.110827 27 124 125 255
0.129917 0.615501 -0.106371 31 125 125 255
0.129917 0.600647 -0.167971 28 124 125 255
0.111126 0.673582 -0.120376 27 124 125 255
0.111126 0.658728 -0.181977 27 124 125 255
0.190364 0.619129 -0.172428 39 126 124 255
0.171573 0.692064 -0.124833 27 124 125 255
0.171573 0.677210 -0.186434 50 128 124 255
0.213860 0.450647 -0.002515 161 194 94 255
0.164380 0.644430 -0.002515 161 194 94 255
0.164380 0.644430 0.017485 161 194 94 255
0.213860 0.450647 0.017485 161 194 95 255
0.145002 0.639482 0.017485 161 194 94 255
0.194482 0.445699 0.017485 161 194 94 255
0.145002 0.639482 -0.002515 160 194 94 255
0.194482 0.445699 -0.002515 160 194 94 255
0.176011 0.686524 0.039168 49 125 93 255
0.114614 0.670847 0.039168 56 125 93 255
0.114614 0.670847 -0.024198 49 125 93 255
0.099119 0.731532 0.039168 49 125 93 255
0.099119 0.731532 -0.024198 49 125 93 255
0.176011 0.686524 -0.024198 49 125 93 255
0.160516 0.747208 0.039168 74 123 91 255
0.160516 0.747208 -0.024198 61 124 92 255
0.263349 0.430162 0.217591 161 194 94 255
0.219409 0.621892 0.253769 161 194 94 255
0.219409 0.618184 0.273422 161 194 94 255
0.263349 0.426454 0.237244 161 194 95 255
0.199898 0.613866 0.272608 161 194 94 255
0.243838 0.422136 0.236429 161 194 94 255
0.199898 0.617574 0.252955 160 194 94 255
0.243838 0.425845 0.216776 160 194 94 255
0.232234 0.655185 0.302470 49 125 93 255
0.170416 0.641505 0.299889 74 123 91 255
0.170416 0.653255 0.237621 49 125 93 255
0.156656 0.701546 0.311218 51 125 93 255
0.156656 0.713296 0.248951 49 125 93 255
0.232234 0.666935 0.240203 49 125 93 255
0.218474 0.715227 0.313800 52 125 93 255
0.218474 0.726976 0.251532 53 125 93 255
0.259290 0.435065 -0.234035 161 194 94 255
0.215225 0.627530 -0.265903 161 194 94 255
0.215225 0.630797 -0.246172 161 194 94 255
0.259290 0.438332 -0.214303 161 194 95 255
0.195716 0.626450 -0.245452 161 194 94 255
0.239781 0.433985 -0.213584 161 194 94 255
0.195716 0.623183 -0.265184 160 194 94 255
0.239781 0.430718 -0.233315 160 194 94 255
0.228023 0.675532 -0.231601 49 125 93 255
0.166214 0.661759 -0.229320 51 125 93 255
0.166214 0.651407 -0.291836 49 125 93 255
0.152415 0.722030 -0.239300 49 125 93 255
0.152415 0.711679 -0.301815 55 125 93 255
0.228023 0.665181 -0.294116 49 125 93 255
0.214224 0.735804 -0.241581 49 125 93 255
0.214224 0.725452 -0.304096 64 124 92 255
0.387185 0.416702 -0.166954 161 194 94 255
0.387185 0.649533 -0.166954 161 194 94 255
0.375300 0.649533 -0.146933 161 194 94 255
0.375300 0.416702 -0.146933 161 194 95 255
0.355279 0.649533 -0.158819 161 194 94 255
0.355279 0.416702 -0.158819 161 194 94 255
0.367164 0.649533 -0.178840 160 194 94 255
0.367164 0.416702 -0.178840 160 194 94 255
0.384121 0.693664 -0.112342 65 90 125 255
0.320688 0.693664 -0.149998 64 89 125 255
0.358344 0.693664 -0.213431 65 90 125 255
0.320688 0.766576 -0.149998 72 95 125 255
0.358344 0.766576 -0.213431 79 100 125 255
0.421777 0.693664 -0.175775 64 89 125 255
0.384121 0.766576 -0.112342 64 89 125 255
0.421777 0.766576 -0.175775 64 89 125 255
0.376127 0.450067 -0.006154 161 194 94 255
0.376127 0.682898 -0.006154 161 194 94 255
0.376267 0.682898 0.017129 161 194 94 255
0.376267 0.450067 0.017129 161 194 95 255
0.352984 0.682898 0.017269 161 194 94 255
0.352984 0.450067 0.017269 161 194 94 255
0.352844 0.682898 -0.006013 160 194 94 255
0.352844 0.450067 -0.006013 160 194 94 255
0.401661 0.727029 0.042219 77 85 125 255
0.327895 0.727029 0.042664 64 74 125 255
0.327450 0.727029 -0.031103 64 74 125 255
0.327895 0.799941 0.042664 64 74 125 255
0.327450 0.799941 -0.031103 64 74 125 255
0.401217 0.727029 -0.031548 64 74 125 255
0.401661 0.799941 0.042219 64 74 125 255
0.401217 0.799941 -0.031548 64 74 125 255
0.360249 0.422632 0.160779 161 194 94 255
0.360249 0.655463 0.160779 161 194 94 255
0.380787 0.655463 0.149811 161 194 94 255
0.380787 0.422632 0.149811 161 194 95 255
0.391754 0.655463 0.170349 161 194 94 255
0.391754 0.422632 0.170349 161 194 94 255
0.371216 0.655463 0.181317 160 194 94 255
0.371216 0.422632 0.181317 160 194 94 255
0.391163 0.699594 0.115654 65 90 125 255
0.425911 0.699594 0.180726 64 89 125 255
0.360840 0.699594 0.215474 64 89 125 255
0.425911 0.772506 0.180726 64 89 125 255
0.360840 0.772506 0.215474 65 90 125 255
0.326091 0.699594 0.150403 68 92 125 255
0.391163 0.772506 0.115654 68 92 125 255
0.326091 0.772506 0.150403 64 89 125 255
4 0 1 2 3
4 3 2 4 5
4 5 4 6 7
4 7 6 1 0
4 3 5 7 0
4 4 2 8 9
4 10 9 11 12
4 6 4 9 10
4 2 1 13 8
4 1 6 10 13
4 11 14 15 12
4 8 13 15 14
4 13 10 12 15
4 9 8 14 11
4 16 17 18 19
4 20 21 22 23
4 22 16 19 24
4 17 23 25 18
4 18 25 24 19
4 21 26 16 22
4 23 22 24 25
4 27 20 23 17
3 27 28 29
4 26 27 17 16
3 27 29 20
4 30 31 32 33
4 29 28 31 30
4 28 27 26 31
4 20 29 30 21
4 33 32 34 35
4 31 26 36 32
4 21 30 33 37
4 26 21 37 36
4 34 38 39 40
4 32 36 38 34
4 37 33 35 41
4 36 37 41 38
4 39 42 43 44
4 41 35 45 42
4 38 41 42 39
4 35 34 40 45
4 43 46 47 44
4 45 40 47 46
4 40 39 44 47
4 42 45 46 43
4 48 49 50 51
4 51 50 52 53
4 53 52 54 55
4 55 54 49 48
4 51 53 55 48
4 52 50 56 57
4 58 57 59 60
4 54 52 57 58
4 50 49 61 56
4 49 54 58 61
4 59 62 63 60
4 56 61 63 62
4 61 58 60 63
4 57 56 62 59
4 64 65 66 67
4 67 66 68 69
4 69 68 70 71
4 71 70 65 64
4 67 69 71 64
4 68 66 72 73
4 74 73 75 76
4 70 68 73 74
4 66 65 77 72
4 65 70 74 77
4 75 78 79 76
4 72 77 79 78
4 77 74 76 79
4 73 72 78 75
4 80 81 82 83
4 83 82 84 85
4 85 84 86 87
4 87 86 81 80
4 83 85 87 80
4 84 82 88 89
4 90 89 91 92
4 86 84 89 90
4 82 81 93 88
4 81 86 90 93
4 91 94 95 92
4 88 93 95 94
4 93 90 92 95
4 89 88 94 91
4 96 97 98 99
4 99 98 100 101
4 101 100 102 103
4 103 102 97 96
4 99 101 103 96
4 100 98 104 105
4 106 105 107 108
4 102 100 105 106
4 98 97 109 104
4 97 102 106 109
4 107 110 111 108
4 104 109 111 110
4 109 106 108 111
4 105 104 110 107
4 112 113 114 115
4 115 114 116 117
4 117 116 118 119
4 119 118 113 112
4 115 117 119 112
4 116 114 120 121
4 122 121 123 124
4 118 116 121 122
4 114 113 125 120
4 113 118 122 125
4 123 126 127 124
4 120 125 127 126
4 125 122 124 127
4 121 120 126 123
4 128 129 130 131
4 131 130 132 133
4 133 132 134 135
4 135 134 129 128
4 131 133 135 128
4 132 130 136 137
4 138 137 139 140
4 134 132 137 138
4 130 129 141 136
4 129 134 138 141
4 139 142 143 140
4 136 141 143 142
4 141 138 140 143
4 137 136 142 139
4 144 145 146 147
4 147 146 148 149
4 149 148 150 151
4 151 150 145 144
4 147 149 151 144
4 148 146 152 153
4 154 153 155 156
4 150 148 153 154
4 146 145 157 152
4 145 150 154 157
4 155 158 159 156
4 152 157 159 158
4 157 154 156 159
4 153 152 158 155
4 160 161 162 163
4 163 162 164 165
4 165 164 166 167
4 167 166 161 160
4 163 165 167 160
4 164 162 168 169
4 170 169 171 172
4 166 164 169 170
4 162 161 173 168
4 161 166 170 173
4 171 174 175 172
4 168 173 175 174
4 173 170 172 175
4 169 168 174 171
4 176 177 178 179
4 179 178 180 181
4 181 180 182 183
4 183 182 177 176
4 179 181 183 176
4 180 178 184 185
4 186 185 187 188
4 182 180 185 186
4 178 177 189 184
4 177 182 186 189
4 187 190 191 188
4 184 189 191 190
4 189 186 188 191
4 185 184 190 187
