ply
format ascii 1.0
comment Created by Blender 2.83.20 - www.blender.org, source file: 'FlowerBoxPartsWhite.blend'
element vertex 192
property float x
property float y
property float z
property uchar red
property uchar green
property uchar blue
property uchar alpha
element face 171
property list uchar uint vertex_indices
end_header
0.133814 0.417612 -0.310636 192 135 92 255
0.133814 0.234371 -0.310636 192 135 92 255
0.149980 0.270354 -0.271790 192 135 92 255
0.149980 0.381629 -0.271790 165 116 79 255
0.133810 0.203094 0.348130 165 116 79 255
0.133810 0.448889 0.348130 165 116 79 255
0.133814 0.417612 0.310173 192 136 93 255
0.133814 0.234371 0.310173 192 135 92 255
0.149980 0.381629 0.270701 165 116 79 255
0.149980 0.270354 0.270701 192 135 92 255
0.133810 0.448889 -0.349275 165 116 79 255
0.133810 0.203094 -0.349275 165 116 79 255
0.500141 0.203094 -0.349275 165 116 79 255
0.500141 0.203094 0.348130 165 116 79 255
0.500141 0.448889 0.348130 165 116 79 255
0.500141 0.448889 -0.349275 165 116 79 255
0.500141 0.473214 -0.378936 192 135 92 255
0.500141 0.473214 0.388191 192 135 92 255
0.500141 0.500000 -0.378936 192 135 92 255
0.500141 0.500000 0.388191 192 135 92 255
0.107485 0.473214 -0.378936 192 135 92 255
0.107485 0.473214 0.388191 192 135 92 255
0.107485 0.500000 -0.378936 192 135 92 255
0.128185 0.500000 -0.359478 192 135 92 255
0.479440 0.500000 -0.359478 192 135 92 255
0.107485 0.500000 0.388191 192 135 92 255
0.128185 0.500000 0.366825 192 135 92 255
0.128185 0.475676 0.366825 113 66 38 255
0.128185 0.475676 -0.359478 97 47 15 255
0.479440 0.500000 0.366825 192 135 92 255
0.479440 0.475676 0.366825 98 49 17 255
0.479440 0.475676 -0.359478 102 53 23 255
0.343260 0.327149 0.265589 161 194 94 255
0.306330 0.516518 0.318272 161 194 94 255
0.306330 0.511158 0.337540 161 194 94 255
0.343260 0.321789 0.284857 161 194 95 255
0.286674 0.507600 0.336550 161 194 94 255
0.323604 0.318231 0.283867 161 194 94 255
0.286674 0.512960 0.317282 160 194 94 255
0.323604 0.323591 0.264599 160 194 94 255
0.320641 0.545097 0.369489 202 184 126 255
0.258364 0.533824 0.366353 202 184 126 255
0.258364 0.550808 0.305305 201 184 126 255
0.246799 0.593126 0.382851 202 184 126 255
0.246799 0.610110 0.321803 201 184 126 255
0.320641 0.562081 0.308441 202 184 126 255
0.309076 0.604399 0.385987 201 183 126 255
0.309076 0.621383 0.324939 201 183 126 255
0.223973 0.403503 0.103224 161 194 94 255
0.181911 0.595759 0.138840 161 194 94 255
0.181911 0.592116 0.158505 161 194 94 255
0.223973 0.399860 0.122890 161 194 95 255
0.162359 0.587980 0.157739 161 194 94 255
0.204420 0.395724 0.122124 161 194 94 255
0.162359 0.591623 0.138074 160 194 94 255
0.204420 0.399367 0.102458 160 194 94 255
0.195137 0.629090 0.187407 185 138 120 255
0.133188 0.615987 0.184979 181 137 120 255
0.133188 0.627529 0.122673 183 138 120 255
0.120016 0.676193 0.196133 185 138 120 255
0.120016 0.687735 0.133826 185 138 120 255
0.195137 0.640633 0.125101 184 138 120 255
0.181965 0.689297 0.198560 177 137 120 255
0.181965 0.700839 0.136254 185 138 120 255
0.347018 0.325185 -0.272318 161 194 94 255
0.306680 0.513042 -0.327839 161 194 94 255
0.306680 0.518711 -0.308659 161 194 94 255
0.347018 0.330854 -0.253138 161 194 95 255
0.287091 0.514843 -0.307516 161 194 94 255
0.327429 0.326986 -0.251995 161 194 94 255
0.287091 0.509174 -0.326695 160 194 94 255
0.327429 0.321317 -0.271174 160 194 94 255
0.320272 0.564657 -0.299628 201 184 126 255
0.258208 0.552401 -0.296006 202 184 126 255
0.258208 0.534441 -0.356773 202 184 126 255
0.245576 0.611230 -0.313392 201 184 126 255
0.245576 0.593270 -0.374160 202 184 126 255
0.320272 0.546697 -0.360396 200 183 126 255
0.307640 0.623486 -0.317015 198 182 126 255
0.307640 0.605526 -0.377783 201 184 126 255
0.241059 0.414403 -0.096624 161 194 94 255
0.181053 0.599873 -0.141347 161 194 94 255
0.181053 0.604562 -0.121904 161 194 94 255
0.241059 0.419092 -0.077181 161 194 95 255
0.161974 0.598728 -0.120498 161 194 94 255
0.221980 0.413258 -0.075774 161 194 94 255
0.161974 0.594040 -0.139941 160 194 94 255
0.221980 0.408570 -0.095217 160 194 94 255
0.190364 0.651123 -0.110827 185 138 120 255
0.129917 0.632641 -0.106371 185 138 120 255
0.129917 0.617787 -0.167971 185 138 120 255
0.111126 0.690722 -0.120376 185 138 120 255
0.111126 0.675868 -0.181977 185 138 120 255
0.190364 0.636269 -0.172428 185 138 120 255
0.171573 0.709204 -0.124833 179 137 120 255
0.171573 0.694350 -0.186434 180 137 120 255
0.213860 0.420509 -0.002515 161 194 94 255
0.164380 0.614292 -0.002515 161 194 94 255
0.164380 0.614292 0.017485 161 194 94 255
0.213860 0.420509 0.017485 161 194 95 255
0.145002 0.609344 0.017485 161 194 94 255
0.194482 0.415561 0.017485 161 194 94 255
0.145002 0.609344 -0.002515 160 194 94 255
0.194482 0.415561 -0.002515 160 194 94 255
0.176011 0.656386 0.039168 184 175 176 255
0.114614 0.640709 0.039168 184 175 176 255
0.114614 0.640709 -0.024198 184 175 176 255
0.099119 0.701393 0.039168 182 174 175 255
0.099119 0.701393 -0.024198 180 173 173 255
0.176011 0.656386 -0.024198 184 175 176 255
0.160516 0.717070 0.039168 184 175 176 255
0.160516 0.717070 -0.024198 181 174 174 255
0.263349 0.353927 0.217591 161 194 94 255
0.219409 0.545657 0.253769 161 194 94 255
0.219409 0.541948 0.273422 161 194 94 255
0.263349 0.350219 0.237244 161 194 95 255
0.199898 0.537631 0.272608 161 194 94 255
0.243838 0.345901 0.236429 161 194 94 255
0.199898 0.541339 0.252954 160 194 94 255
0.243838 0.349609 0.216776 160 194 94 255
0.232234 0.578950 0.302470 184 175 176 255
0.170416 0.565270 0.299889 184 175 176 255
0.170416 0.577019 0.237621 180 173 173 255
0.156656 0.625311 0.311218 184 175 176 255
0.156656 0.637061 0.248951 175 170 169 255
0.232234 0.590699 0.240203 184 175 176 255
0.218474 0.638991 0.313800 184 175 176 255
0.218474 0.650741 0.251532 184 175 176 255
0.259290 0.355748 -0.234035 161 194 94 255
0.215225 0.548212 -0.265904 161 194 94 255
0.215225 0.551479 -0.246172 161 194 94 255
0.259290 0.359015 -0.214303 161 194 95 255
0.195716 0.547132 -0.245452 161 194 94 255
0.239781 0.354667 -0.213584 161 194 94 255
0.195716 0.543865 -0.265184 160 194 94 255
0.239781 0.351400 -0.233315 160 194 94 255
0.228023 0.596215 -0.231601 178 172 172 255
0.166214 0.582441 -0.229320 184 175 176 255
0.166214 0.572090 -0.291836 183 174 175 255
0.152415 0.642713 -0.239300 181 173 174 255
0.152415 0.632361 -0.301815 182 174 175 255
0.228023 0.585863 -0.294116 183 175 176 255
0.214224 0.656486 -0.241581 184 175 176 255
0.214224 0.646135 -0.304096 184 175 176 255
0.387185 0.437333 -0.166955 161 194 94 255
0.387185 0.670164 -0.166955 161 194 94 255
0.375300 0.670164 -0.146933 161 194 94 255
0.375300 0.437333 -0.146933 161 194 95 255
0.355279 0.670164 -0.158819 161 194 94 255
0.355279 0.437333 -0.158819 161 194 94 255
0.367164 0.670164 -0.178840 160 194 94 255
0.367164 0.437333 -0.178840 160 194 94 255
0.384121 0.714295 -0.112342 163 186 202 255
0.320688 0.714295 -0.149998 163 186 202 255
0.358344 0.714295 -0.213431 160 183 199 255
0.320688 0.787207 -0.149998 163 186 202 255
0.358344 0.787207 -0.213431 163 186 202 255
0.421777 0.714295 -0.175775 163 186 202 255
0.384121 0.787207 -0.112342 163 186 202 255
0.421777 0.787207 -0.175775 163 186 202 255
0.376127 0.470698 -0.006154 161 194 94 255
0.376127 0.703529 -0.006154 161 194 94 255
0.376267 0.703529 0.017129 161 194 94 255
0.376267 0.470698 0.017129 161 194 95 255
0.352985 0.703529 0.017269 161 194 94 255
0.352985 0.470698 0.017269 161 194 94 255
0.352844 0.703529 -0.006013 160 194 94 255
0.352844 0.470698 -0.006013 160 194 94 255
0.401661 0.747660 0.042219 181 172 174 255
0.327895 0.747660 0.042664 184 175 176 255
0.327450 0.747660 -0.031103 183 174 175 255
0.327895 0.820572 0.042664 184 175 176 255
0.327450 0.820572 -0.031103 184 175 176 255
0.401217 0.747660 -0.031548 184 175 176 255
0.401661 0.820572 0.042219 184 175 176 255
0.401217 0.820572 -0.031548 184 175 176 255
0.360249 0.443263 0.160779 161 194 94 255
0.360249 0.676093 0.160779 161 194 94 255
0.380787 0.676093 0.149811 161 194 94 255
0.380787 0.443263 0.149811 161 194 95 255
0.391754 0.676093 0.170349 161 194 94 255
0.391754 0.443263 0.170349 161 194 94 255
0.371216 0.676093 0.181317 160 194 94 255
0.371216 0.443263 0.181317 160 194 94 255
0.391163 0.720224 0.115654 163 186 202 255
0.425911 0.720224 0.180726 151 173 191 255
0.360840 0.720224 0.215474 161 184 201 255
0.425911 0.793137 0.180726 163 186 202 255
0.360840 0.793137 0.215474 162 185 201 255
0.326091 0.720224 0.150403 163 186 202 255
0.391163 0.793137 0.115654 146 168 186 255
0.326091 0.793137 0.150403 163 186 202 255
4 0 1 2 3
4 4 5 6 7
4 6 0 3 8
4 1 7 9 2
4 2 9 8 3
4 5 10 0 6
4 7 6 8 9
4 11 4 7 1
3 11 12 13
4 10 11 1 0
3 11 13 4
4 14 15 16 17
4 13 12 15 14
4 12 11 10 15
4 4 13 14 5
4 17 16 18 19
4 15 10 20 16
4 5 14 17 21
4 10 5 21 20
4 18 22 23 24
4 16 20 22 18
4 21 17 19 25
4 20 21 25 22
4 23 26 27 28
4 25 19 29 26
4 22 25 26 23
4 19 18 24 29
4 27 30 31 28
4 29 24 31 30
4 24 23 28 31
4 26 29 30 27
4 32 33 34 35
4 35 34 36 37
4 37 36 38 39
4 39 38 33 32
4 35 37 39 32
4 36 34 40 41
4 42 41 43 44
4 38 36 41 42
4 34 33 45 40
4 33 38 42 45
4 43 46 47 44
4 40 45 47 46
4 45 42 44 47
4 41 40 46 43
4 48 49 50 51
4 51 50 52 53
4 53 52 54 55
4 55 54 49 48
4 51 53 55 48
4 52 50 56 57
4 58 57 59 60
4 54 52 57 58
4 50 49 61 56
4 49 54 58 61
4 59 62 63 60
4 56 61 63 62
4 61 58 60 63
4 57 56 62 59
4 64 65 66 67
4 67 66 68 69
4 69 68 70 71
4 71 70 65 64
4 67 69 71 64
4 68 66 72 73
4 74 73 75 76
4 70 68 73 74
4 66 65 77 72
4 65 70 74 77
4 75 78 79 76
4 72 77 79 78
4 77 74 76 79
4 73 72 78 75
4 80 81 82 83
4 83 82 84 85
4 85 84 86 87
4 87 86 81 80
4 83 85 87 80
4 84 82 88 89
4 90 89 91 92
4 86 84 89 90
4 82 81 93 88
4 81 86 90 93
4 91 94 95 92
4 88 93 95 94
4 93 90 92 95
4 89 88 94 91
4 96 97 98 99
4 99 98 100 101
4 101 100 102 103
4 103 102 97 96
4 99 101 103 96
4 100 98 104 105
4 106 105 107 108
4 102 100 105 106
4 98 97 109 104
4 97 102 106 109
4 107 110 111 108
4 104 109 111 110
4 109 106 108 111
4 105 104 110 107
4 112 113 114 115
4 115 114 116 117
4 117 116 118 119
4 119 118 113 112
4 115 117 119 112
4 116 114 120 121
4 122 121 123 124
4 118 116 121 122
4 114 113 125 120
4 113 118 122 125
4 123 126 127 124
4 120 125 127 126
4 125 122 124 127
4 121 120 126 123
4 128 129 130 131
4 131 130 132 133
4 133 132 134 135
4 135 134 129 128
4 131 133 135 128
4 132 130 136 137
4 138 137 139 140
4 134 132 137 138
4 130 129 141 136
4 129 134 138 141
4 139 142 143 140
4 136 141 143 142
4 141 138 140 143
4 137 136 142 139
4 144 145 146 147
4 147 146 148 149
4 149 148 150 151
4 151 150 145 144
4 147 149 151 144
4 148 146 152 153
4 154 153 155 156
4 150 148 153 154
4 146 145 157 152
4 145 150 154 157
4 155 158 159 156
4 152 157 159 158
4 157 154 156 159
4 153 152 158 155
4 160 161 162 163
4 163 162 164 165
4 165 164 166 167
4 167 166 161 160
4 163 165 167 160
4 164 162 168 169
4 170 169 171 172
4 166 164 169 170
4 162 161 173 168
4 161 166 170 173
4 171 174 175 172
4 168 173 175 174
4 173 170 172 175
4 169 168 174 171
4 176 177 178 179
4 179 178 180 181
4 181 180 182 183
4 183 182 177 176
4 179 181 183 176
4 180 178 184 185
4 186 185 187 188
4 182 180 185 186
4 178 177 189 184
4 177 182 186 189
4 187 190 191 188
4 184 189 191 190
4 189 186 188 191
4 185 184 190 187
