ply
format ascii 1.0
comment Created by Blender 2.83.20 - www.blender.org, source file: 'archimedesscrewWIP7PaintedParts.blend'
element vertex 473
property float x
property float y
property float z
property uchar red
property uchar green
property uchar blue
property uchar alpha
element face 1054
property list uchar uint vertex_indices
end_header
-0.205139 -0.131799 0.180000 146 101 72 255
-0.296129 -0.024252 0.180000 146 101 72 255
-0.495134 -0.191237 0.180000 112 78 55 255
0.502314 0.175775 -0.180000 112 78 55 255
0.489975 0.195864 0.156680 89 63 44 255
0.502314 0.175775 0.180000 112 78 55 255
0.288552 0.435911 -0.156680 89 62 44 255
0.065384 0.248651 -0.156680 146 101 72 255
0.148749 0.148784 -0.156680 146 101 72 255
0.270911 0.451551 -0.180000 146 101 72 255
0.489975 0.195864 -0.156680 89 63 44 255
0.288552 0.435911 0.156680 96 67 47 255
0.270911 0.451551 0.180000 146 101 72 255
-0.480173 -0.209126 -0.156680 87 61 43 255
-0.495134 -0.191237 -0.180000 112 78 55 255
-0.278750 -0.449173 -0.156680 87 61 43 255
-0.263730 -0.467013 -0.180000 112 78 55 255
-0.278750 -0.449173 0.156680 87 61 43 255
-0.263730 -0.467013 0.180000 112 78 55 255
-0.480173 -0.209126 0.156680 90 63 45 255
-0.278785 -0.040141 -0.156680 107 75 53 255
-0.205048 -0.131740 -0.180000 146 101 72 255
-0.296510 -0.024571 -0.180000 146 101 72 255
0.149638 0.150009 -0.180000 146 101 72 255
0.048419 0.264859 -0.180000 146 101 72 255
0.049494 0.265760 0.180000 146 101 72 255
0.067942 0.250798 0.156680 146 101 72 255
0.149657 0.150288 0.180000 146 101 72 255
-0.284902 -0.045274 0.156680 87 61 43 255
-0.095391 -0.079711 0.155198 166 127 93 255
-0.052050 -0.034129 0.016675 166 127 93 255
-0.109801 -0.065128 0.085563 166 127 93 255
0.121169 0.245600 -0.110366 166 127 93 255
0.235788 0.206235 -0.015259 166 127 93 255
0.160978 0.195578 -0.074504 166 127 93 255
0.105732 0.166764 -0.144088 166 127 93 255
0.191876 0.161335 -0.016486 166 127 93 255
0.133592 0.130982 -0.086500 166 127 93 255
0.196114 -0.038182 -0.000366 166 127 93 255
0.154952 0.108106 0.006693 166 127 93 255
0.150078 0.014091 0.020068 166 127 93 255
0.103447 0.072254 -0.011765 166 127 93 255
0.236381 0.011063 -0.059898 166 127 93 255
0.152038 0.016926 -0.020198 166 127 93 255
-0.294229 -0.231676 0.011033 166 127 93 255
-0.331407 -0.090136 0.059166 166 127 93 255
-0.340279 -0.174215 0.019466 166 127 93 255
0.296015 0.231692 -0.013409 166 127 93 255
0.427892 0.171760 -0.059898 166 127 93 255
0.344141 0.176928 -0.020799 166 127 93 255
0.281059 0.249515 0.009858 166 127 93 255
0.243126 0.391955 0.059166 166 127 93 255
0.234670 0.307371 0.019035 166 127 93 255
0.071071 -0.083627 0.109634 166 127 93 255
0.052780 0.035405 0.016675 166 127 93 255
0.028858 -0.035910 0.074844 166 127 93 255
-0.344353 -0.269173 0.005803 166 127 93 255
-0.386896 -0.121239 -0.000366 166 127 93 255
-0.388875 -0.213533 -0.014578 166 127 93 255
0.278020 0.155905 -0.144088 166 127 93 255
0.222774 0.127092 -0.074505 166 127 93 255
0.057816 0.029403 -0.006535 166 127 93 255
0.104879 -0.024104 0.013846 166 127 93 255
-0.139303 -0.124611 0.014527 166 127 93 255
-0.151134 -0.107932 0.085768 166 127 93 255
-0.242990 -0.195508 0.014527 166 127 93 255
-0.261853 -0.075794 0.109634 166 127 93 255
-0.283363 -0.144812 0.050490 166 127 93 255
0.454093 0.237767 -0.110366 166 127 93 255
0.423377 0.243944 -0.052140 166 127 93 255
-0.453364 -0.236491 -0.110366 166 127 93 255
-0.339317 -0.275175 -0.017407 166 127 93 255
-0.398790 -0.272340 -0.056126 166 127 93 255
-0.453364 -0.236491 0.109634 166 127 93 255
-0.403350 -0.266928 0.046927 166 127 93 255
-0.230438 -0.210466 0.005167 166 127 93 255
-0.120440 -0.244324 0.109634 166 127 93 255
-0.205485 -0.237633 0.070150 166 127 93 255
-0.139896 0.070561 0.059166 166 127 93 255
-0.011972 0.015340 -0.000366 166 127 93 255
-0.105068 0.026461 0.013573 166 127 93 255
0.201487 0.247113 0.143356 166 127 93 255
0.206214 0.238908 0.070150 166 127 93 255
-0.261853 -0.075794 -0.110366 166 127 93 255
-0.147990 -0.114259 -0.018097 166 127 93 255
-0.222238 -0.125600 -0.075919 166 127 93 255
-0.323382 -0.294165 -0.007711 166 127 93 255
-0.186908 -0.359576 -0.000366 166 127 93 255
-0.277225 -0.346579 0.013573 166 127 93 255
0.231167 0.211742 0.005167 166 127 93 255
0.187637 0.360852 -0.000366 166 127 93 255
0.186148 0.267965 -0.014726 166 127 93 255
-0.120440 -0.244324 -0.110366 166 127 93 255
-0.134682 -0.130118 -0.005899 166 127 93 255
-0.145250 -0.217328 -0.046301 166 127 93 255
-0.104114 -0.069315 -0.013937 166 127 93 255
-0.085779 0.006067 -0.144088 166 127 93 255
-0.107372 -0.062838 -0.086588 166 127 93 255
0.004603 -0.198879 -0.000366 166 127 93 255
-0.087131 -0.184216 0.013994 166 127 93 255
0.036845 0.054395 0.006979 166 127 93 255
-0.003874 0.200155 -0.000366 166 127 93 255
-0.006758 0.108953 -0.014305 166 127 93 255
-0.058911 -0.025953 -0.007711 166 127 93 255
-0.070342 0.084903 -0.110366 166 127 93 255
-0.079695 0.001410 -0.072131 166 127 93 255
0.139277 0.126787 0.017365 166 127 93 255
0.121169 0.245600 0.109634 166 127 93 255
0.099146 0.177207 0.051686 166 127 93 255
-0.296514 -0.326186 -0.144088 166 127 93 255
-0.278179 -0.250804 -0.013937 166 127 93 255
-0.302599 -0.321528 -0.072131 166 127 93 255
-0.070342 0.084903 0.109634 166 127 93 255
-0.049477 0.057443 0.046017 166 127 93 255
0.373775 0.236254 0.143356 166 127 93 255
0.454093 0.237767 0.109634 166 127 93 255
0.401585 0.269972 0.083117 166 127 93 255
-0.280330 -0.248239 0.009858 166 127 93 255
-0.200758 -0.245837 0.143356 166 127 93 255
-0.273165 -0.254207 0.083996 166 127 93 255
0.010727 -0.011711 -0.000366 166 127 93 255
0.140625 -0.069285 0.059166 166 127 93 255
0.049290 -0.055090 0.045727 166 127 93 255
0.104504 0.070995 0.012677 166 127 93 255
0.182264 0.075557 0.143356 166 127 93 255
0.110530 0.066404 0.085563 166 127 93 255
0.000365 0.000638 0.018079 166 127 93 255
0.009976 0.086416 0.143356 166 127 93 255
-0.028129 0.037185 0.074844 166 127 93 255
0.096120 0.080986 -0.155929 166 127 93 255
0.147963 0.116435 -0.015259 166 127 93 255
0.107597 0.064728 -0.085382 166 127 93 255
-0.286902 -0.240408 -0.155929 166 127 93 255
-0.324502 -0.290240 -0.087573 166 127 93 255
0.086509 -0.004792 -0.144088 166 127 93 255
0.079662 0.000788 -0.071321 166 127 93 255
0.044869 -0.149634 -0.059898 166 127 93 255
0.006582 -0.106585 -0.014578 166 127 93 255
-0.181535 -0.074281 0.143356 166 127 93 255
-0.103775 -0.069719 0.012677 166 127 93 255
-0.177816 -0.081304 0.071202 166 127 93 255
0.325936 0.293266 -0.006535 166 127 93 255
0.312680 0.406297 -0.110366 166 127 93 255
0.304090 0.321882 -0.071321 166 127 93 255
-0.162789 -0.196434 0.073773 166 127 93 255
-0.191147 -0.160059 0.015754 166 127 93 255
-0.231159 -0.212187 0.085768 166 127 93 255
-0.203003 -0.145929 -0.000366 166 127 93 255
-0.235651 -0.009787 -0.059898 166 127 93 255
-0.238215 -0.101375 -0.046678 166 127 93 255
-0.037940 -0.050945 0.005803 166 127 93 255
-0.042014 -0.145903 0.019466 166 127 93 255
0.331952 0.286096 0.012992 166 127 93 255
0.312680 0.406297 0.109634 166 127 93 255
0.291448 0.336938 0.049842 166 127 93 255
0.346907 0.268274 0.006979 166 127 93 255
0.395723 0.307329 -0.000366 166 127 93 255
0.405105 0.266951 0.047145 166 127 93 255
0.203732 0.147205 -0.000366 166 127 93 255
0.198778 0.053285 -0.014371 166 127 93 255
0.373025 0.334381 -0.000366 166 127 93 255
0.383387 0.322032 0.014093 166 127 93 255
0.353573 0.308945 0.005043 166 127 93 255
0.262582 0.077070 0.109634 166 127 93 255
0.178545 0.082579 0.071202 166 127 93 255
0.285419 -0.006222 0.180000 112 78 55 255
-0.081984 -0.284067 0.156680 92 64 45 255
-0.080517 -0.282836 -0.156680 99 69 49 255
-0.261999 -0.221469 0.010147 166 127 93 255
-0.208494 -0.135191 0.156680 146 101 72 255
0.153555 0.149909 0.156680 146 101 72 255
0.270696 0.011867 0.156680 87 61 43 255
0.304812 0.269824 0.001134 166 127 93 255
-0.203534 -0.132254 -0.156680 146 101 72 255
0.185571 -0.450277 -0.050715 106 74 54 255
0.287000 -0.450043 -0.050715 106 74 54 255
0.287112 -0.499892 -0.050715 106 74 54 255
0.340046 0.276450 -0.017407 166 127 93 255
0.383387 0.322032 -0.018811 166 127 93 255
0.399519 0.273616 -0.056126 166 127 93 255
-0.356278 -0.282374 -0.016583 134 94 65 255
-0.337512 -0.304739 -0.016583 144 103 74 255
-0.443497 -0.392042 -0.016583 145 103 74 255
-0.393020 -0.308407 -0.000366 166 127 93 255
-0.427163 -0.170484 -0.059898 166 127 93 255
-0.421816 -0.243697 -0.052011 166 127 93 255
-0.382658 -0.320756 0.014093 166 127 93 255
-0.373046 -0.234978 0.143356 166 127 93 255
-0.400855 -0.268696 0.083117 166 127 93 255
0.348001 0.364203 -0.056002 166 127 93 255
-0.473222 -0.471790 -0.016583 109 71 42 255
-0.485406 -0.476009 0.024796 109 71 42 255
-0.473222 -0.471790 0.012612 109 71 42 255
-0.444027 -0.471781 -0.016583 109 71 42 255
-0.431843 -0.475991 0.024796 109 71 42 255
-0.431843 -0.475991 -0.028767 109 71 42 255
-0.485406 -0.476009 -0.028767 109 71 42 255
-0.444027 -0.471781 0.012612 109 71 42 255
0.080120 -0.178106 0.058734 146 96 61 255
0.167581 -0.131469 0.058734 146 96 61 255
0.170107 -0.102598 0.058734 146 96 61 255
0.245614 -0.192585 -0.058734 106 74 54 255
0.201175 -0.272377 -0.034653 146 96 61 255
0.155628 -0.268092 -0.058734 106 74 54 255
0.245614 -0.192585 0.058734 114 79 55 255
0.201175 -0.272377 0.034653 146 96 61 255
0.270481 -0.272217 0.034653 146 96 61 255
0.216743 -0.190059 0.058734 106 74 54 255
0.155628 -0.268092 0.058734 106 74 54 255
0.108991 -0.180632 0.058734 146 96 61 255
0.158154 -0.239221 0.058734 106 74 54 255
-0.190415 0.176187 0.304630 146 96 61 255
-0.118596 0.250307 0.279493 124 70 50 255
-0.131826 0.225350 0.304630 145 95 61 255
-0.217291 0.167493 0.403210 124 70 50 255
-0.217291 0.167493 0.279493 124 70 50 255
-0.118596 0.250307 0.403210 124 70 50 255
-0.131826 0.225350 0.378074 145 95 61 255
-0.190415 0.176187 0.378074 140 94 59 255
0.216743 -0.190059 0.378074 106 74 54 255
0.158154 -0.239221 0.378074 106 74 54 255
0.158154 -0.239221 0.304630 146 96 61 255
0.419070 0.279506 -0.055690 166 127 93 255
0.419312 0.279218 0.054331 166 127 93 255
0.347726 0.364530 0.054694 166 127 93 255
-0.382658 -0.320756 -0.018811 166 127 93 255
-0.418043 -0.278585 -0.056002 166 127 93 255
-0.418318 -0.278257 0.054694 166 127 93 255
-0.311951 -0.405021 0.109634 166 127 93 255
-0.346733 -0.363570 0.054331 166 127 93 255
-0.311951 -0.405021 -0.110366 166 127 93 255
-0.370321 -0.335458 -0.000366 166 127 93 255
-0.346975 -0.363281 -0.055690 166 127 93 255
0.044686 0.045051 -0.013724 166 127 93 255
0.064616 0.069915 -0.001020 166 127 93 255
0.270919 -0.432418 -0.034653 106 74 54 255
0.270919 -0.432418 0.034653 106 74 54 255
-0.070461 -0.060804 0.011549 166 127 93 255
0.310579 0.262951 -0.012281 166 127 93 255
-0.413166 0.042016 -0.132340 128 84 53 255
-0.451733 0.087979 -0.132340 146 96 61 255
-0.221882 0.280846 0.304462 146 96 61 255
-0.221782 -0.172166 0.005618 166 127 93 255
-0.469705 -0.379179 -0.016583 145 103 74 255
-0.469705 -0.379179 0.012612 145 103 74 255
-0.356278 -0.282374 0.012612 130 89 61 255
-0.295286 -0.230416 -0.013409 166 127 93 255
-0.318296 -0.251610 -0.003502 166 127 93 255
0.185683 -0.500126 -0.050715 106 74 54 255
0.185683 -0.500126 0.050715 106 74 54 255
0.167581 -0.131469 0.304630 146 96 61 255
0.108991 -0.180632 0.304630 146 96 61 255
-0.431836 -0.499992 -0.028767 109 71 42 255
-0.291711 0.256183 0.279493 124 70 50 255
0.285404 -0.006199 -0.180000 112 78 55 255
0.170107 -0.102598 -0.058734 146 96 61 255
0.030419 0.013436 0.006969 166 127 93 255
-0.353918 -0.306390 -0.011072 166 127 93 255
-0.193017 0.338997 0.403210 124 70 50 255
-0.291711 0.256183 0.403210 124 71 50 255
-0.249978 -0.187179 -0.007425 166 127 93 255
-0.270622 -0.211193 0.001175 166 127 93 255
0.185571 -0.450277 0.050715 106 74 54 255
0.287112 -0.499892 0.050715 106 74 54 255
-0.332186 -0.351709 -0.047877 166 127 93 255
-0.443497 -0.392042 0.012612 109 71 42 255
-0.063605 -0.299088 -0.180000 112 78 55 255
0.270481 -0.272217 -0.034653 146 96 61 255
-0.154222 -0.106831 0.006693 166 127 93 255
-0.240766 -0.103516 0.045946 166 127 93 255
0.266195 0.008090 -0.156680 87 61 43 255
0.201612 -0.432578 0.034653 107 74 54 255
0.092970 -0.015083 0.051396 166 127 93 255
-0.485399 -0.500010 0.024796 109 71 42 255
-0.431836 -0.499992 0.024796 109 71 42 255
-0.013553 -0.077429 0.070590 166 127 93 255
0.297243 0.327461 -0.144088 166 127 93 255
0.335149 0.349100 -0.085569 166 127 93 255
-0.063605 -0.299088 0.180000 112 78 55 255
0.163339 0.197938 0.075187 166 127 93 255
-0.191147 -0.160059 -0.019558 166 127 93 255
-0.105003 -0.165489 -0.144088 166 127 93 255
-0.160055 -0.194518 -0.075919 166 127 93 255
0.250707 0.188455 -0.007425 166 127 93 255
0.387625 0.122515 -0.000366 166 127 93 255
0.297085 0.135775 0.013639 166 127 93 255
0.382788 0.228103 -0.052128 166 127 93 255
0.087397 0.091382 0.013205 166 127 93 255
0.051615 0.231258 0.059166 166 127 93 255
0.041975 0.148108 0.020261 166 127 93 255
0.325231 0.291516 -0.087573 166 127 93 255
0.271749 0.160787 -0.071934 166 127 93 255
-0.343412 -0.175653 -0.020799 166 127 93 255
-0.149349 -0.012815 0.020068 166 127 93 255
-0.146642 -0.310331 -0.059898 166 127 93 255
-0.230203 -0.305385 -0.020993 166 127 93 255
0.262582 0.077070 -0.110366 166 127 93 255
0.238944 0.102651 -0.046678 166 127 93 255
0.096120 0.080986 0.155198 166 127 93 255
0.040516 0.052611 0.086841 166 127 93 255
-0.044140 0.150909 -0.059898 166 127 93 255
-0.046923 0.059587 -0.046748 166 127 93 255
0.390509 0.213717 -0.014305 166 127 93 255
0.332136 0.091412 0.059166 166 127 93 255
0.241495 0.104791 0.045946 166 127 93 255
0.314298 0.373976 0.051280 166 127 93 255
-0.331223 -0.284820 0.012992 166 127 93 255
-0.337981 -0.344849 0.053295 166 127 93 255
-0.242397 -0.390679 0.059166 166 127 93 255
-0.312701 -0.373699 0.051408 166 127 93 255
-0.334419 -0.347824 -0.085569 166 127 93 255
-0.382059 -0.226828 -0.052128 166 127 93 255
0.287631 0.241683 -0.155929 166 127 93 255
0.299490 0.224960 -0.086295 166 127 93 255
-0.092241 0.016359 0.051396 166 127 93 255
-0.009247 -0.085140 0.143356 166 127 93 255
-0.039786 -0.051336 0.086841 166 127 93 255
-0.296356 -0.134499 0.013639 166 127 93 255
0.081584 0.095716 0.085856 166 127 93 255
-0.195385 0.039458 -0.000366 166 127 93 255
-0.198049 -0.052010 -0.014371 166 127 93 255
0.280304 0.250415 -0.011765 166 127 93 255
0.276154 0.257941 -0.085382 166 127 93 255
-0.234303 -0.205860 -0.018097 166 127 93 255
-0.191617 -0.254137 -0.052418 166 127 93 255
0.244474 0.195883 0.017365 166 127 93 255
0.220412 0.124732 0.075187 166 127 93 255
-0.271020 -0.159511 -0.071934 166 127 93 255
-0.277290 -0.154629 -0.144088 166 127 93 255
-0.298761 -0.223684 -0.086295 166 127 93 255
0.287631 0.241683 0.155198 166 127 93 255
0.232071 0.213259 0.087186 166 127 93 255
-0.274921 -0.257280 -0.086588 166 127 93 255
-0.485399 -0.500010 -0.028767 109 71 42 255
0.333970 0.351757 -0.047659 166 127 93 255
0.089548 0.088818 -0.010590 166 127 93 255
0.001649 0.093768 -0.050574 166 127 93 255
0.273894 0.255483 0.083996 166 127 93 255
0.341776 0.174562 0.020261 166 127 93 255
-0.190676 -0.065982 -0.052418 166 127 93 255
-0.043957 -0.043775 -0.013724 166 127 93 255
0.071071 -0.083627 -0.110366 166 127 93 255
-0.000920 -0.092493 -0.050574 166 127 93 255
-0.249261 -0.190627 -0.087918 166 127 93 255
0.135411 0.131394 -0.005899 166 127 93 255
0.112991 0.160685 -0.070882 166 127 93 255
0.058739 0.030874 -0.085731 166 127 93 255
0.191876 0.161335 0.018826 166 127 93 255
0.151680 0.109411 0.087186 166 127 93 255
0.000365 0.000638 -0.014825 166 127 93 255
0.031157 -0.033488 -0.073738 166 127 93 255
-0.088819 -0.087543 -0.010590 166 127 93 255
-0.039898 -0.143274 -0.019767 166 127 93 255
0.013506 0.079615 0.071399 166 127 93 255
-0.095391 -0.079711 -0.155929 166 127 93 255
-0.133032 -0.129491 -0.087918 166 127 93 255
0.343473 0.269795 0.084999 166 127 93 255
-0.181853 -0.171135 -0.000366 166 127 93 255
-0.050886 -0.229982 0.059166 166 127 93 255
-0.142718 -0.215203 0.045569 166 127 93 255
0.338710 0.346125 0.053295 166 127 93 255
0.121531 0.099320 0.012485 166 127 93 255
0.355602 0.306528 -0.010784 166 127 93 255
0.201612 -0.432578 -0.034653 115 80 56 255
-0.079713 -0.049779 0.001924 166 127 93 255
0.220529 0.175803 -0.009881 166 127 93 255
-0.309039 -0.262642 -0.013115 166 127 93 255
-0.019728 -0.024033 0.010052 166 127 93 255
-0.219606 -0.174758 -0.011363 166 127 93 255
0.296355 0.231287 0.013205 166 127 93 255
0.271887 0.211830 0.002437 166 127 93 255
0.366517 0.293520 -0.007399 166 127 93 255
0.127718 0.091946 -0.001907 166 127 93 255
0.222696 0.173220 0.007102 166 127 93 255
0.319831 0.251926 -0.002655 166 127 93 255
-0.030643 -0.011025 0.006667 166 127 93 255
-0.364835 -0.293380 -0.007701 166 127 93 255
-0.118909 -0.100299 -0.012135 166 127 93 255
0.364500 0.295924 0.008419 166 127 93 255
0.263272 0.222097 0.011403 166 127 93 255
0.017475 0.028863 -0.005474 166 127 93 255
0.302167 0.226954 0.085856 166 127 93 255
-0.255813 -0.228842 -0.004265 166 127 93 255
0.172458 0.135860 0.010631 166 127 93 255
0.070380 0.063046 0.012383 166 127 93 255
0.314077 0.258783 0.010758 166 127 93 255
0.162290 0.147977 0.007494 166 127 93 255
-0.174090 -0.131770 -0.007834 166 127 93 255
0.174633 0.133267 -0.006349 166 127 93 255
-0.264435 -0.218566 -0.013217 166 127 93 255
-0.028626 -0.013429 -0.009151 166 127 93 255
0.182582 0.172411 -0.000366 166 127 93 255
0.212531 0.185335 0.010257 166 127 93 255
-0.073959 -0.056636 -0.011490 166 127 93 255
-0.017700 -0.026450 -0.005775 166 127 93 255
-0.211609 -0.184290 0.008773 166 127 93 255
-0.290719 -0.335663 0.049842 166 127 93 255
-0.185419 -0.266689 -0.014726 166 127 93 255
0.087860 0.185492 0.013994 166 127 93 255
-0.058010 -0.029598 -0.085731 166 127 93 255
0.143447 0.216478 0.045569 166 127 93 255
0.073877 0.058879 -0.010653 166 127 93 255
-0.286902 -0.240408 0.155198 166 127 93 255
-0.342744 -0.268519 0.084999 166 127 93 255
0.210354 0.187929 -0.006739 166 127 93 255
-0.030428 0.034763 -0.073738 166 127 93 255
-0.064694 -0.067677 -0.001866 166 127 93 255
-0.112262 -0.159409 -0.070882 166 127 93 255
-0.233941 -0.306095 0.019035 166 127 93 255
0.084916 0.096911 -0.084728 166 127 93 255
0.028400 0.015843 -0.008860 166 127 93 255
-0.161747 -0.146479 0.006007 166 127 93 255
-0.351890 -0.308807 0.004742 166 127 93 255
-0.362816 -0.295786 0.008129 166 127 93 255
0.257080 0.229476 -0.003004 166 127 93 255
-0.088064 -0.088443 0.011033 166 127 93 255
-0.121345 -0.097396 0.011231 166 127 93 255
-0.112718 -0.107678 0.002272 166 127 93 255
0.119095 0.102222 -0.010879 166 127 93 255
-0.303276 -0.269510 0.000288 166 127 93 255
0.079636 0.052015 0.002770 166 127 93 255
-0.163924 -0.143885 -0.010989 166 127 93 255
-0.209439 -0.186876 -0.008225 166 127 93 255
0.112909 0.109595 0.003533 166 127 93 255
0.164460 0.145391 -0.009505 166 127 93 255
-0.312536 -0.258474 0.009921 166 127 93 255
-0.127525 -0.090031 -0.003169 166 127 93 255
-0.337512 -0.304739 0.012612 109 71 42 255
-0.171923 -0.134353 0.009149 166 127 93 255
0.265708 0.219194 -0.011963 166 127 93 255
-0.152091 -0.014733 -0.020993 166 127 93 255
-0.506645 0.041650 -0.236589 135 79 68 255
-0.544287 0.010065 -0.202835 138 83 66 255
-0.563670 0.020300 -0.179020 136 81 67 255
0.167581 -0.131469 0.378074 146 96 61 255
-0.435976 -0.003372 -0.235762 135 79 68 255
-0.394278 0.031616 -0.156521 135 80 68 255
-0.457556 -0.021480 -0.099779 136 80 68 255
0.040627 0.144549 -0.019767 166 127 93 255
-0.221200 0.203094 0.338435 146 96 61 255
-0.259767 0.249057 0.338435 146 96 61 255
-0.489618 0.056189 -0.098368 116 76 46 255
0.019503 0.026446 0.010340 166 127 93 255
0.080120 -0.178106 -0.058734 146 96 61 255
-0.098930 -0.175306 0.050490 166 127 93 255
-0.084186 -0.095635 -0.084728 166 127 93 255
-0.505968 -0.035602 -0.202835 141 88 64 255
0.287000 -0.450043 0.050715 106 74 54 255
-0.458695 0.108385 -0.156521 135 79 68 255
0.147371 0.311606 -0.059897 166 127 93 255
0.145979 0.218603 -0.046301 166 127 93 255
-0.219504 -0.123684 0.073773 166 127 93 255
0.284606 0.145462 0.051686 166 127 93 255
-0.521972 0.055289 -0.099779 136 80 68 255
-0.193017 0.338997 0.279493 124 70 50 255
-0.499253 -0.056468 -0.179020 136 81 67 255
-0.468326 -0.004017 -0.236589 136 81 67 255
-0.368740 -0.242690 0.070590 166 127 93 255
0.216743 -0.190059 0.304630 146 96 61 255
-0.183315 0.234884 0.304462 146 96 61 255
-0.451051 0.010226 -0.098368 109 71 42 255
-0.500392 0.073397 -0.235762 136 80 68 255
0.108991 -0.180632 0.378074 146 96 61 255
0.046750 -0.057222 -0.046458 166 127 93 255
-0.300920 -0.226282 0.084650 166 127 93 255
0.250159 0.191688 -0.086500 166 127 93 255
-0.081373 -0.093836 0.084650 166 127 93 255
0.190878 0.067871 -0.051222 166 127 93 255
0.278873 0.346774 0.013846 166 127 93 255
0.192874 0.254798 -0.051222 166 127 93 255
0.370245 0.243055 0.071399 166 127 93 255
0.384144 0.321129 -0.001824 166 127 93 255
0.231714 0.305743 -0.020198 166 127 93 255
3 0 1 2
3 3 4 5
3 6 7 8
3 9 10 3
3 5 11 12
3 12 6 9
3 13 2 14
3 15 14 16
3 17 16 18
3 19 18 2
3 20 21 22
3 1 20 22
3 23 7 24
3 7 25 24
3 26 27 25
3 0 28 1
3 29 30 31
3 32 33 34
3 35 36 37
3 38 39 40
3 41 42 43
3 44 45 46
3 47 48 49
3 50 51 52
3 53 54 55
3 56 57 58
3 36 59 60
3 61 38 62
3 63 29 64
3 65 66 67
3 48 68 69
3 70 71 72
3 73 56 74
3 75 76 77
3 78 79 80
3 81 50 82
3 83 84 85
3 86 87 88
3 89 90 91
3 92 93 94
3 95 96 97
3 93 98 99
3 100 101 102
3 103 104 105
3 106 107 108
3 109 110 111
3 112 100 113
3 114 115 116
3 117 118 119
3 120 121 122
3 123 124 125
3 126 127 128
3 129 130 131
3 71 132 133
3 134 41 135
3 136 120 137
3 138 139 140
3 141 142 143
3 76 63 144
3 118 145 146
3 147 148 149
3 98 150 151
3 152 153 154
3 155 156 157
3 42 158 159
3 16 14 21
3 28 19 13
3 160 161 162
3 39 163 164
3 27 165 5
3 166 167 15
3 65 75 168
3 169 166 17
3 170 171 166
3 141 152 172
3 8 173 167
3 174 175 176
3 177 178 179
3 180 181 182
3 21 173 8
3 183 184 185
3 186 187 188
3 178 142 189
3 190 191 192
3 193 194 195
3 190 195 196
3 192 194 197
3 198 199 200
3 201 202 203
3 204 205 206
3 204 199 207
3 208 209 198
3 204 210 208
3 211 212 213
3 211 214 215
3 213 216 217
3 218 216 214
3 219 220 221
3 68 178 222
3 115 156 223
3 160 153 224
3 225 183 226
3 170 11 4
3 183 186 227
3 228 186 229
3 230 231 232
3 100 233 234
3 175 235 236
3 30 150 237
3 2 1 22
3 177 141 238
3 239 240 241
3 147 145 242
3 14 22 21
3 3 10 4
3 243 244 245
3 9 6 10
3 5 4 11
3 12 11 6
3 26 11 170
3 246 44 247
3 174 248 249
3 250 251 211
3 196 195 252
3 253 215 214
3 13 19 2
3 15 13 14
3 17 15 16
3 19 17 18
3 3 254 23
3 204 201 255
3 12 25 27
3 54 61 256
3 86 71 257
3 23 24 9
3 258 259 214
3 260 65 261
3 173 20 13
3 262 249 263
3 20 173 21
3 19 28 169
3 230 86 264
3 1 28 20
3 265 197 193
3 23 8 7
3 182 193 190
3 266 254 165
3 7 26 25
3 26 170 27
3 235 267 206
3 0 169 28
3 66 268 269
3 8 270 10
3 265 244 192
3 171 4 10
3 15 167 173
3 166 171 270
3 266 21 23
3 206 205 271
3 121 123 272
3 170 169 0
3 0 2 18
3 191 273 274
3 150 53 275
3 276 142 277
3 6 11 26
3 27 0 278
3 107 106 279
3 280 281 282
3 283 284 285
3 177 68 286
3 287 288 289
3 276 178 290
3 59 47 291
3 57 260 292
3 139 78 293
3 110 294 295
3 296 283 297
3 54 298 299
3 79 300 301
3 48 156 302
3 158 303 304
3 51 153 305
3 228 306 307
3 231 308 309
3 225 109 310
3 184 246 311
3 312 177 313
3 30 112 314
3 315 126 316
3 45 147 317
3 298 106 318
3 268 319 320
3 321 276 322
3 323 92 324
3 163 325 326
3 260 83 327
3 246 328 329
3 325 330 331
3 132 323 332
3 191 196 333
3 141 160 334
3 300 335 336
3 330 152 337
3 284 155 338
3 148 95 339
3 340 341 342
3 328 280 343
3 344 32 345
3 233 129 346
3 124 347 348
3 349 134 350
3 351 136 352
3 127 287 353
3 84 354 355
3 114 161 356
3 357 358 359
3 152 161 360
3 106 39 361
3 178 160 362
3 363 174 262
3 103 30 364
3 283 33 365
3 202 205 208
3 110 246 366
3 126 120 367
3 280 147 368
3 369 47 370
3 156 178 371
3 39 130 372
3 325 283 373
3 155 177 374
3 79 126 375
3 71 56 376
3 84 93 377
3 155 152 378
3 325 89 379
3 79 349 380
3 369 114 381
3 110 117 382
3 347 158 383
3 287 123 384
3 369 50 385
3 106 344 386
3 84 268 387
3 158 36 388
3 323 260 389
3 103 340 390
3 347 391 392
3 95 351 393
3 120 349 394
3 145 357 395
3 308 117 396
3 294 357 397
3 288 391 398
3 96 349 399
3 107 89 400
3 41 335 401
3 306 402 403
3 33 89 404
3 104 233 405
3 150 340 406
3 281 351 407
3 87 75 408
3 335 35 409
3 61 233 410
3 63 93 411
3 231 186 412
3 56 306 413
3 321 50 414
3 139 415 416
3 415 351 417
3 130 344 418
3 86 306 419
3 123 41 420
3 280 357 421
3 323 75 422
3 287 335 423
3 206 267 201
3 36 391 424
3 44 117 425
3 95 139 426
3 265 182 181
3 265 427 245
3 268 63 428
3 47 321 429
3 190 196 191
3 319 103 430
3 431 432 433
3 263 249 248
3 267 235 363
3 193 197 194
3 190 193 195
3 192 191 194
3 363 235 175
3 25 12 9
3 213 217 434
3 273 333 252
3 435 436 437
3 198 209 199
3 101 344 438
3 439 440 441
3 100 54 442
3 203 443 255
3 201 267 202
3 204 208 205
3 358 415 444
3 354 340 445
3 433 432 446
3 271 205 202
3 271 262 447
3 239 436 448
3 391 449 450
3 145 138 451
3 303 369 452
3 441 453 437
3 221 210 207
3 18 16 266
3 454 212 215
3 455 446 456
3 204 200 199
3 208 210 209
3 204 207 210
3 187 44 457
3 446 432 431
3 434 219 458
3 250 199 209
3 453 433 455
3 239 459 439
3 239 460 437
3 251 221 220
3 448 436 435
3 211 215 212
3 211 218 214
3 453 448 461
3 458 207 199
3 240 448 453
3 447 263 176
3 213 212 216
3 218 217 216
3 461 435 456
3 240 441 440
3 274 252 195
3 211 251 462
3 341 61 463
3 253 259 258
3 210 221 251
3 220 219 434
3 402 65 464
3 33 312 465
3 415 315 466
3 130 296 467
3 443 203 208
3 254 3 5
3 217 218 462
3 244 243 190
3 51 160 468
3 449 321 469
3 155 115 470
3 258 216 212
3 161 156 471
3 191 333 273
3 8 10 6
3 191 274 194
3 206 271 236
3 174 176 248
3 166 15 17
3 15 173 13
3 265 192 197
3 8 167 270
3 166 270 167
3 170 166 169
3 171 10 270
3 6 26 7
3 16 21 266
3 0 18 278
3 21 8 23
3 169 17 19
3 28 13 20
3 27 5 12
3 266 23 254
3 170 0 27
3 27 278 165
3 180 182 243
3 206 201 204
3 363 262 271
3 202 208 203
3 243 245 180
3 265 245 244
3 235 206 236
3 170 4 171
3 182 190 243
3 3 23 9
3 258 214 216
3 265 193 182
3 266 165 278
3 196 252 333
3 262 263 447
3 250 211 213
3 174 249 262
3 253 214 259
3 204 255 200
3 239 241 459
3 271 447 236
3 271 202 363
3 239 448 240
3 221 207 458
3 2 22 14
3 25 9 24
3 267 363 202
3 175 236 447
3 363 175 174
3 441 437 460
3 18 266 278
3 254 5 165
3 273 252 274
3 274 195 194
3 210 251 209
3 443 208 198
3 244 190 192
3 454 215 253
3 253 258 454
3 203 255 201
3 251 220 462
3 211 462 218
3 439 441 460
3 213 434 250
3 453 455 437
3 219 221 458
3 220 434 462
3 250 209 251
3 217 462 434
3 458 199 250
3 453 461 433
3 239 439 460
3 455 456 435
3 240 440 241
3 448 435 461
3 434 458 250
3 239 437 436
3 240 453 441
3 461 456 431
3 431 433 461
3 446 431 456
3 263 248 176
3 435 437 455
3 447 176 175
3 433 446 455
3 258 212 454
3 265 181 427
3 90 141 472
3 141 321 472
3 321 449 472
3 449 90 472
3 30 139 31
3 139 138 31
3 138 29 31
3 33 36 34
3 36 35 34
3 35 32 34
3 36 130 37
3 130 129 37
3 129 35 37
3 39 123 40
3 123 121 40
3 121 38 40
3 42 38 43
3 38 61 43
3 61 41 43
3 45 57 46
3 57 56 46
3 56 44 46
3 48 284 49
3 284 283 49
3 283 47 49
3 51 90 52
3 90 89 52
3 89 50 52
3 54 126 55
3 126 315 55
3 315 53 55
3 57 184 58
3 184 183 58
3 183 56 58
3 59 296 60
3 296 130 60
3 130 36 60
3 38 121 62
3 121 120 62
3 120 61 62
3 29 138 64
3 138 145 64
3 145 63 64
3 66 45 67
3 45 44 67
3 44 65 67
3 68 156 69
3 156 48 69
3 71 225 72
3 225 70 72
3 56 183 74
3 183 73 74
3 76 118 77
3 118 117 77
3 117 75 77
3 79 103 80
3 103 319 80
3 319 78 80
3 50 89 82
3 89 107 82
3 107 81 82
3 84 280 85
3 280 328 85
3 328 83 85
3 87 308 88
3 308 231 88
3 231 86 88
3 90 449 91
3 449 391 91
3 391 89 91
3 93 357 94
3 357 294 94
3 294 92 94
3 96 354 97
3 354 84 97
3 84 95 97
3 98 358 99
3 358 357 99
3 357 93 99
3 101 300 102
3 300 79 102
3 79 100 102
3 104 96 105
3 96 95 105
3 95 103 105
3 107 288 108
3 288 287 108
3 287 106 108
3 110 86 111
3 86 230 111
3 230 109 111
3 100 79 113
3 79 78 113
3 78 112 113
3 115 161 116
3 161 114 116
3 118 402 119
3 402 306 119
3 306 117 119
3 121 53 122
3 53 150 122
3 150 120 122
3 124 298 125
3 298 54 125
3 54 123 125
3 127 112 128
3 112 30 128
3 30 126 128
3 130 41 131
3 41 134 131
3 134 129 131
3 132 109 133
3 109 225 133
3 225 71 133
3 41 61 135
3 61 341 135
3 341 134 135
3 120 150 137
3 150 98 137
3 98 136 137
3 139 268 140
3 268 66 140
3 66 138 140
3 142 276 143
3 276 321 143
3 321 141 143
3 63 145 144
3 145 118 144
3 118 76 144
3 145 65 146
3 65 402 146
3 402 118 146
3 148 83 149
3 83 260 149
3 260 147 149
3 150 415 151
3 415 358 151
3 358 98 151
3 153 51 154
3 51 50 154
3 50 152 154
3 156 115 157
3 115 155 157
3 158 39 159
3 39 38 159
3 38 42 159
3 161 152 162
3 152 141 162
3 141 160 162
3 163 124 164
3 124 123 164
3 123 39 164
3 75 117 168
3 117 44 168
3 44 65 168
3 152 50 172
3 50 321 172
3 321 141 172
3 178 68 179
3 68 177 179
3 184 70 185
3 70 183 185
3 187 73 188
3 73 186 188
3 142 160 189
3 160 178 189
3 178 156 222
3 156 68 222
3 156 161 223
3 161 115 223
3 153 161 224
3 161 160 224
3 183 70 226
3 70 225 226
3 186 73 227
3 73 183 227
3 186 231 229
3 231 228 229
3 231 225 232
3 225 230 232
3 233 335 234
3 335 287 234
3 287 100 234
3 150 415 237
3 415 139 237
3 139 30 237
3 141 321 238
3 321 47 238
3 47 177 238
3 145 65 242
3 65 260 242
3 260 147 242
3 44 56 247
3 56 71 247
3 71 246 247
3 61 120 256
3 120 126 256
3 126 54 256
3 71 225 257
3 225 231 257
3 231 86 257
3 65 44 261
3 44 246 261
3 246 260 261
3 86 231 264
3 231 230 264
3 268 147 269
3 147 45 269
3 45 66 269
3 123 54 272
3 54 53 272
3 53 121 272
3 53 315 275
3 315 415 275
3 415 150 275
3 142 178 277
3 178 276 277
3 106 347 279
3 347 81 279
3 81 107 279
3 281 92 282
3 92 323 282
3 323 280 282
3 284 303 285
3 303 158 285
3 158 283 285
3 68 48 286
3 48 47 286
3 47 177 286
3 288 101 289
3 101 100 289
3 100 287 289
3 178 177 290
3 177 312 290
3 312 276 290
3 47 283 291
3 283 296 291
3 296 59 291
3 260 246 292
3 246 184 292
3 184 57 292
3 78 319 293
3 319 268 293
3 268 139 293
3 294 87 295
3 87 86 295
3 86 110 295
3 283 158 297
3 158 42 297
3 42 296 297
3 298 127 299
3 127 126 299
3 126 54 299
3 300 104 301
3 104 103 301
3 103 79 301
3 156 155 302
3 155 284 302
3 284 48 302
3 303 163 304
3 163 39 304
3 39 158 304
3 153 160 305
3 160 51 305
3 306 186 307
3 186 228 307
3 308 228 309
3 228 231 309
3 109 230 310
3 230 225 310
3 246 71 311
3 71 70 311
3 70 184 311
3 177 47 313
3 47 59 313
3 59 312 313
3 112 78 314
3 78 139 314
3 139 30 314
3 126 30 316
3 30 29 316
3 29 315 316
3 147 260 317
3 260 57 317
3 57 45 317
3 106 287 318
3 287 127 318
3 127 298 318
3 319 148 320
3 148 147 320
3 147 268 320
3 276 312 322
3 312 33 322
3 33 321 322
3 92 294 324
3 294 110 324
3 110 323 324
3 325 347 326
3 347 124 326
3 124 163 326
3 83 328 327
3 328 246 327
3 246 260 327
3 328 132 329
3 132 71 329
3 71 246 329
3 330 81 331
3 81 347 331
3 347 325 331
3 323 110 332
3 110 109 332
3 109 132 332
3 160 142 334
3 142 141 334
3 335 233 336
3 233 104 336
3 104 300 336
3 152 50 337
3 50 81 337
3 81 330 337
3 155 369 338
3 369 303 338
3 303 284 338
3 95 84 339
3 84 83 339
3 83 148 339
3 341 136 342
3 136 351 342
3 351 340 342
3 280 323 343
3 323 132 343
3 132 328 343
3 32 35 345
3 35 335 345
3 335 344 345
3 129 134 346
3 134 349 346
3 349 233 346
3 347 106 348
3 106 298 348
3 298 124 348
3 134 341 350
3 341 340 350
3 340 349 350
3 136 98 352
3 98 93 352
3 93 351 352
3 287 100 353
3 100 112 353
3 112 127 353
3 354 281 355
3 281 280 355
3 280 84 355
3 161 152 356
3 152 330 356
3 330 114 356
3 358 76 359
3 76 75 359
3 75 357 359
3 161 153 360
3 153 152 360
3 39 123 361
3 123 287 361
3 287 106 361
3 160 141 362
3 141 177 362
3 177 178 362
3 30 139 364
3 139 95 364
3 95 103 364
3 33 36 365
3 36 158 365
3 158 283 365
3 246 71 366
3 71 86 366
3 86 110 366
3 120 150 367
3 150 30 367
3 30 126 367
3 147 260 368
3 260 323 368
3 323 280 368
3 47 283 370
3 283 325 370
3 325 369 370
3 178 177 371
3 177 155 371
3 155 156 371
3 130 41 372
3 41 123 372
3 123 39 372
3 283 158 373
3 158 347 373
3 347 325 373
3 177 47 374
3 47 369 374
3 369 155 374
3 126 30 375
3 30 103 375
3 103 79 375
3 56 183 376
3 183 225 376
3 225 71 376
3 93 351 377
3 351 95 377
3 95 84 377
3 152 161 378
3 161 156 378
3 156 155 378
3 89 50 379
3 50 369 379
3 369 325 379
3 349 233 380
3 233 100 380
3 100 79 380
3 114 330 381
3 330 325 381
3 325 369 381
3 117 75 382
3 75 323 382
3 323 110 382
3 158 39 383
3 39 106 383
3 106 347 383
3 123 54 384
3 54 100 384
3 100 287 384
3 50 152 385
3 152 155 385
3 155 369 385
3 344 391 386
3 391 347 386
3 347 106 386
3 268 147 387
3 147 280 387
3 280 84 387
3 36 130 388
3 130 39 388
3 39 158 388
3 260 246 389
3 246 110 389
3 110 323 389
3 340 349 390
3 349 79 390
3 79 103 390
3 391 89 392
3 89 325 392
3 325 347 392
3 351 340 393
3 340 103 393
3 103 95 393
3 349 340 394
3 340 150 394
3 150 120 394
3 357 75 395
3 75 65 395
3 65 145 395
3 117 306 396
3 306 228 396
3 228 308 396
3 357 75 397
3 75 87 397
3 87 294 397
3 391 344 398
3 344 101 398
3 101 288 398
3 349 340 399
3 340 354 399
3 354 96 399
3 89 391 400
3 391 288 400
3 288 107 400
3 335 233 401
3 233 61 401
3 61 41 401
3 402 187 403
3 187 186 403
3 186 306 403
3 89 391 404
3 391 36 404
3 36 33 404
3 233 349 405
3 349 96 405
3 96 104 405
3 340 351 406
3 351 415 406
3 415 150 406
3 351 93 407
3 93 92 407
3 92 281 407
3 75 117 408
3 117 308 408
3 308 87 408
3 35 129 409
3 129 233 409
3 233 335 409
3 233 349 410
3 349 120 410
3 120 61 410
3 93 357 411
3 357 145 411
3 145 63 411
3 186 306 412
3 306 86 412
3 86 231 412
3 306 186 413
3 186 183 413
3 183 56 413
3 50 89 414
3 89 33 414
3 33 321 414
3 415 63 416
3 63 268 416
3 268 139 416
3 351 93 417
3 93 63 417
3 63 415 417
3 344 335 418
3 335 41 418
3 41 130 418
3 306 117 419
3 117 110 419
3 110 86 419
3 41 61 420
3 61 54 420
3 54 123 420
3 357 93 421
3 93 84 421
3 84 280 421
3 75 357 422
3 357 280 422
3 280 323 422
3 335 344 423
3 344 106 423
3 106 287 423
3 391 344 424
3 344 130 424
3 130 36 424
3 117 306 425
3 306 56 425
3 56 44 425
3 139 268 426
3 268 84 426
3 84 95 426
3 63 145 428
3 145 147 428
3 147 268 428
3 321 33 429
3 33 283 429
3 283 47 429
3 103 95 430
3 95 148 430
3 148 319 430
3 344 335 438
3 335 300 438
3 300 101 438
3 54 126 442
3 126 79 442
3 79 100 442
3 415 63 444
3 63 76 444
3 76 358 444
3 340 351 445
3 351 281 445
3 281 354 445
3 449 32 450
3 32 344 450
3 344 391 450
3 138 66 451
3 66 65 451
3 65 145 451
3 369 325 452
3 325 163 452
3 163 303 452
3 44 56 457
3 56 73 457
3 73 187 457
3 61 120 463
3 120 136 463
3 136 341 463
3 65 44 464
3 44 187 464
3 187 402 464
3 312 59 465
3 59 36 465
3 36 33 465
3 315 29 466
3 29 63 466
3 63 415 466
3 296 42 467
3 42 41 467
3 41 130 467
3 160 141 468
3 141 90 468
3 90 51 468
3 321 33 469
3 33 32 469
3 32 449 469
3 115 114 470
3 114 369 470
3 369 155 470
3 156 178 471
3 178 160 471
3 160 161 471
