ply
format ascii 1.0
comment Created by Blender 2.82 (sub 7) - www.blender.org, source file: 'watergatherer.blend'
element vertex 64
property float x
property float y
property float z
property uchar red
property uchar green
property uchar blue
property uchar alpha
element face 108
property list uchar uint vertex_indices
end_header
0.352148 -0.245703 0.479081 178 139 106 255
0.264039 -0.494911 0.416255 178 139 106 255
0.352148 -0.494911 0.452751 178 139 106 255
0.245421 -0.245703 0.434873 178 139 106 255
0.227543 -0.494911 0.328146 178 139 106 255
0.201213 -0.245703 0.328146 178 139 106 255
0.264039 -0.494911 0.240038 178 139 106 255
0.245421 -0.245703 0.221419 178 139 106 255
0.352148 -0.494911 0.203542 178 139 106 255
0.352148 -0.245703 0.177212 178 139 106 255
0.440256 -0.494911 0.240038 178 139 106 255
0.458875 -0.245703 0.221419 178 139 106 255
0.476752 -0.494911 0.328146 178 139 106 255
0.255551 -0.245703 0.231550 138 107 82 255
0.352148 -0.245703 0.191538 143 111 85 255
0.503082 -0.245703 0.328146 178 139 106 255
0.440256 -0.494911 0.416255 178 139 106 255
0.458875 -0.245703 0.434873 178 139 106 255
0.352148 -0.245703 0.464754 139 108 83 255
0.257229 -0.273476 0.423065 58 107 138 255
0.255551 -0.245703 0.424743 155 122 93 255
0.448744 -0.245703 0.424743 141 109 84 255
0.215540 -0.245703 0.328146 140 109 84 255
0.448744 -0.245703 0.231550 139 108 82 255
0.488756 -0.245703 0.328146 138 107 82 255
0.486383 -0.273476 0.328146 58 107 138 255
0.352148 -0.273476 0.193911 58 107 138 255
0.217912 -0.273476 0.328146 58 107 138 255
0.352148 -0.273476 0.462382 58 107 138 255
0.447067 -0.273476 0.233227 58 107 138 255
0.257229 -0.273476 0.233227 58 107 138 255
0.447067 -0.273476 0.423065 58 107 138 255
-0.313337 -0.245703 0.479081 178 139 106 255
-0.401445 -0.494911 0.416255 178 139 106 255
-0.313337 -0.494911 0.452751 178 139 106 255
-0.420064 -0.245703 0.434873 178 139 106 255
-0.437941 -0.494911 0.328146 178 139 106 255
-0.464271 -0.245703 0.328146 178 139 106 255
-0.401445 -0.494911 0.240038 178 139 106 255
-0.420064 -0.245703 0.221419 178 139 106 255
-0.313337 -0.494911 0.203542 178 139 106 255
-0.206610 -0.245703 0.221419 178 139 106 255
-0.225228 -0.494911 0.240038 178 139 106 255
-0.188733 -0.494911 0.328146 178 139 106 255
-0.313337 -0.245703 0.177212 178 139 106 255
-0.409933 -0.245703 0.231550 138 107 82 255
-0.313337 -0.245703 0.191538 143 111 85 255
-0.162402 -0.245703 0.328146 178 139 106 255
-0.225228 -0.494911 0.416255 178 139 106 255
-0.206610 -0.245703 0.434873 178 139 106 255
-0.313337 -0.245703 0.464754 139 108 83 255
-0.392026 -0.481013 0.406836 110 86 66 255
-0.409933 -0.245703 0.424743 155 122 93 255
-0.216740 -0.245703 0.424743 141 109 84 255
-0.449945 -0.245703 0.328146 140 109 84 255
-0.216740 -0.245703 0.231550 139 108 82 255
-0.176729 -0.245703 0.328146 138 107 82 255
-0.392026 -0.481013 0.249457 110 86 66 255
-0.424620 -0.481013 0.328146 110 86 66 255
-0.202053 -0.481013 0.328146 112 88 67 255
-0.313337 -0.481013 0.439430 110 86 66 255
-0.313337 -0.481013 0.216863 110 86 66 255
-0.234647 -0.481013 0.406836 110 86 66 255
-0.234647 -0.481013 0.249457 110 86 66 255
3 0 1 2
3 3 4 1
3 5 6 4
3 7 8 6
3 9 10 8
3 11 12 10
3 9 13 14
3 15 16 12
3 17 2 16
3 3 5 4
3 18 19 20
3 15 21 17
3 5 20 22
3 9 23 11
3 17 18 0
3 3 18 20
3 5 13 7
3 15 23 24
3 25 26 27
3 21 28 18
3 24 29 25
3 14 30 26
3 20 27 22
3 24 31 21
3 14 29 23
3 13 27 30
3 32 33 34
3 35 36 33
3 37 38 36
3 39 40 38
3 40 41 42
3 41 43 42
3 44 45 46
3 47 48 43
3 49 34 48
3 0 3 1
3 50 51 52
3 47 53 49
3 35 54 37
3 44 55 41
3 49 50 32
3 35 50 52
3 37 45 39
3 41 56 47
3 57 58 59
3 53 60 50
3 55 59 56
3 45 61 46
3 52 58 54
3 56 62 53
3 46 63 55
3 54 57 45
3 5 7 6
3 7 9 8
3 9 11 10
3 11 15 12
3 9 7 13
3 15 17 16
3 17 0 2
3 18 28 19
3 15 24 21
3 5 3 20
3 9 14 23
3 17 21 18
3 3 0 18
3 5 22 13
3 15 11 23
3 27 19 28
3 28 31 25
3 25 29 26
3 26 30 27
3 27 28 25
3 21 31 28
3 24 23 29
3 14 13 30
3 20 19 27
3 24 25 31
3 14 26 29
3 13 22 27
3 32 35 33
3 35 37 36
3 37 39 38
3 39 44 40
3 40 44 41
3 41 47 43
3 44 39 45
3 47 49 48
3 49 32 34
3 50 60 51
3 47 56 53
3 35 52 54
3 44 46 55
3 49 53 50
3 35 32 50
3 37 54 45
3 41 55 56
3 58 51 59
3 51 60 59
3 60 62 59
3 59 63 61
3 61 57 59
3 53 62 60
3 55 63 59
3 45 57 61
3 52 51 58
3 56 59 62
3 46 61 63
3 54 58 57
