ply
format ascii 1.0
comment Created by Blender 2.78 (sub 0) - www.blender.org, source file: 'waterpump.blend'
element vertex 246
property float x
property float y
property float z
property uchar red
property uchar green
property uchar blue
element face 440
property list uchar uint vertex_indices
end_header
-0.066124 0.450932 -0.020000 166 101 57
0.101682 0.438163 -0.014142 166 101 57
-0.066124 0.436790 -0.014142 166 101 57
0.099163 0.432875 -0.000000 166 101 57
-0.066124 0.430932 0.000000 166 101 57
-0.066124 0.436790 0.014142 166 101 57
0.101682 0.438163 0.014142 166 101 57
-0.066124 0.450932 0.020000 166 101 57
0.113841 0.463701 0.014142 166 101 57
-0.066124 0.465074 0.014142 166 101 57
0.116360 0.468989 -0.000000 166 101 57
-0.066124 0.470932 0.000000 166 101 57
0.113841 0.463701 -0.014142 166 101 57
0.190117 0.430394 -0.000000 166 101 57
0.185149 0.427289 -0.014142 166 101 57
-0.066124 0.465074 -0.014142 166 101 57
-0.075906 0.450932 0.008409 166 101 57
-0.075906 0.456878 0.005946 166 101 57
-0.075906 0.456878 -0.005946 166 101 57
-0.075906 0.450932 -0.008409 166 101 57
-0.075906 0.442523 0.000000 166 101 57
-0.075906 0.444986 0.005946 166 101 57
-0.075906 0.459341 0.000000 166 101 57
-0.075906 0.444986 -0.005946 166 101 57
0.156198 0.409192 -0.000000 166 101 57
0.197937 0.303564 0.014142 166 101 57
0.161165 0.412297 0.014142 166 101 57
0.161165 0.412297 -0.014142 166 101 57
0.107761 0.450932 0.020000 166 101 57
0.185149 0.427289 0.014142 166 101 57
0.107761 0.450932 -0.020000 166 101 57
0.173157 0.419793 -0.020000 166 101 57
0.173157 0.419793 0.020000 166 101 57
0.224706 0.312697 -0.014142 166 101 57
0.275345 0.177989 -0.000000 166 101 57
0.270900 0.174175 -0.014142 166 101 57
0.211322 0.308130 -0.020000 166 101 57
0.197937 0.303564 -0.014142 166 101 57
0.230251 0.314588 -0.000000 166 101 57
0.211322 0.308130 0.020000 166 101 57
0.192393 0.301672 -0.000000 166 101 57
0.224706 0.312697 0.014142 166 101 57
0.249434 0.155756 0.014142 166 101 57
0.308810 0.108276 0.020000 166 101 57
0.260167 0.164966 0.020000 166 101 57
0.270900 0.174175 0.014142 166 101 57
0.260167 0.164966 -0.020000 166 101 57
0.249434 0.155756 -0.014142 166 101 57
0.244989 0.151942 -0.000000 166 101 57
0.308810 0.108276 -0.020000 166 101 57
0.384907 0.091221 -0.014142 166 101 57
0.382214 0.077338 -0.020000 166 101 57
0.303317 0.095244 -0.014142 166 101 57
0.301042 0.089846 -0.000000 166 101 57
0.316578 0.126706 -0.000000 166 101 57
0.314303 0.121308 -0.014142 166 101 57
0.314303 0.121308 0.014142 166 101 57
0.303317 0.095244 0.014142 166 101 57
0.382214 0.077338 0.020000 166 101 57
0.452894 0.078037 0.014142 166 101 57
0.384907 0.091221 0.014142 166 101 57
0.386022 0.096972 -0.000000 166 101 57
0.379522 0.063454 -0.014142 166 101 57
0.378407 0.057703 -0.000000 166 101 57
0.379522 0.063454 0.014142 166 101 57
0.452894 0.078037 -0.014142 166 101 57
0.465043 0.072830 -0.000000 166 101 57
0.464411 0.069568 -0.008021 166 101 57
0.447509 0.050270 0.014142 166 101 57
0.450201 0.064153 -0.020000 166 101 57
0.447509 0.050270 -0.014142 166 101 57
0.454009 0.083787 -0.000000 166 101 57
0.450201 0.064153 0.020000 166 101 57
0.446394 0.044519 -0.000000 166 101 57
0.461357 0.053819 0.008021 166 101 57
0.460724 0.050558 -0.000000 166 101 57
0.464411 0.069568 0.008021 166 101 57
0.462884 0.061694 -0.011343 166 101 57
0.461357 0.053819 -0.008021 166 101 57
0.462884 0.061694 0.011343 166 101 57
-0.018340 0.219057 -0.025380 166 101 57
-0.184045 0.202050 -0.017946 166 101 57
-0.189774 0.219057 -0.025380 166 101 57
-0.018340 0.201111 -0.017946 166 101 57
-0.181672 0.195005 0.000000 166 101 57
-0.018340 0.201111 0.017946 166 101 57
-0.184045 0.202050 0.017946 166 101 57
-0.018340 0.219057 0.025380 166 101 57
-0.189774 0.219057 0.025380 166 101 57
-0.195502 0.236064 0.017946 166 101 57
-0.018340 0.237003 0.017946 166 101 57
-0.197875 0.243109 0.000000 166 101 57
-0.018340 0.237003 -0.017946 166 101 57
-0.195502 0.236064 -0.017946 166 101 57
-0.227037 0.187137 0.025380 166 101 57
-0.212012 0.177323 0.017946 166 101 57
-0.242062 0.196951 -0.017946 166 101 57
-0.263483 0.157054 0.000000 166 101 57
-0.248285 0.201016 0.000000 166 101 57
-0.212012 0.177323 -0.017946 166 101 57
-0.242062 0.196951 0.017946 166 101 57
-0.227037 0.187137 -0.025380 166 101 57
-0.205789 0.173257 0.000000 166 101 57
-0.246114 0.155973 0.019509 166 101 57
-0.256062 0.156626 0.017946 166 101 57
-0.238146 0.155594 0.025380 166 101 57
-0.220229 0.154561 0.017946 166 101 57
-0.212808 0.154133 0.000000 166 101 57
-0.238146 0.155594 -0.025380 166 101 57
-0.256062 0.156626 -0.017946 166 101 57
-0.220229 0.154561 -0.017946 166 101 57
-0.231573 0.155215 -0.019753 166 101 57
-0.223186 0.167289 0.000000 166 101 57
-0.238146 0.168151 -0.018621 166 101 57
-0.221336 0.154679 0.007885 166 101 57
-0.257285 0.156508 -0.006583 166 101 57
-0.253106 0.169013 0.000000 166 101 57
-0.068507 -0.480172 -0.146561 121 62 37
0.052897 -0.500000 -0.146536 120 61 37
-0.068507 -0.500000 -0.146561 120 61 37
0.052897 -0.480172 -0.146536 120 61 37
0.138726 -0.500000 -0.060672 120 61 37
0.138726 -0.480172 -0.060672 120 61 37
0.138701 -0.500000 0.060733 120 61 37
0.138701 -0.480172 0.060733 120 61 37
0.052837 -0.500000 0.146561 121 62 38
-0.068568 -0.480172 0.146536 120 61 37
-0.068568 -0.500000 0.146536 123 64 38
-0.154396 -0.500000 0.060672 120 61 37
0.022050 -0.480172 0.072191 120 61 37
0.052837 -0.480172 0.146561 120 61 37
-0.154396 -0.480172 0.060672 120 61 37
-0.154371 -0.500000 -0.060732 120 61 37
-0.154371 -0.480172 -0.060732 120 61 37
-0.080014 -0.480172 -0.029915 120 61 37
-0.037720 -0.180188 -0.072191 166 101 57
-0.037720 -0.480172 -0.072191 120 61 37
0.022079 -0.480172 -0.072179 120 61 37
0.064356 -0.480172 -0.029885 120 61 37
-0.037750 -0.480172 0.072179 120 61 37
-0.068507 -0.480172 -0.146561 120 61 37
0.064343 -0.480172 0.029915 120 61 37
-0.080026 -0.480172 0.029885 120 61 37
0.022050 -0.180188 0.072191 166 101 57
-0.046538 -0.180188 0.093383 166 101 57
-0.037750 -0.180188 0.072179 166 101 57
-0.080026 -0.180188 0.029885 166 101 57
0.064343 -0.180188 0.029915 166 101 57
0.064356 -0.180188 -0.029885 166 101 57
-0.080014 -0.180188 -0.029915 166 101 57
0.022079 -0.180188 -0.072179 166 101 57
-0.101234 -0.180188 0.038664 166 101 57
-0.101218 -0.161591 -0.038703 120 61 37
-0.101218 -0.180188 -0.038703 166 101 57
0.085563 -0.180188 -0.038664 166 101 57
0.085547 -0.180188 0.038703 166 101 57
0.030868 -0.180188 -0.093383 166 101 57
-0.046500 -0.180188 -0.093399 166 101 57
0.030829 -0.180188 0.093399 166 101 57
-0.101234 -0.161591 0.038664 120 61 37
-0.028813 -0.161591 0.050615 120 61 37
-0.058459 -0.161591 0.020957 120 61 37
-0.046538 -0.161591 0.093383 120 61 37
0.085547 -0.161591 0.038703 121 62 38
0.030868 -0.161591 -0.093383 120 61 37
-0.046500 -0.161591 -0.093399 120 61 37
0.030829 -0.161591 0.093399 120 61 37
0.085563 -0.161591 -0.038664 120 61 37
0.013142 -0.161591 -0.050615 121 62 37
-0.028792 0.065454 -0.050624 166 101 57
0.013142 0.065454 -0.050615 166 101 57
0.013122 -0.161591 0.050624 120 61 37
0.042788 -0.161591 -0.020957 120 61 37
-0.058450 -0.161591 -0.020978 120 61 37
0.042780 -0.161591 0.020978 120 61 37
-0.028792 -0.161591 -0.050624 120 61 37
-0.058450 0.065454 -0.020978 166 101 57
-0.071906 0.065235 0.026524 166 101 57
-0.071895 0.065235 -0.026550 166 101 57
-0.058450 0.065454 -0.020978 164 99 56
-0.058459 0.065454 0.020957 166 101 57
0.013122 0.065454 0.050624 166 101 57
0.042789 0.065454 -0.020957 166 101 57
-0.058450 -0.161591 -0.020978 121 62 37
-0.028813 0.065454 0.050615 166 101 57
0.042780 0.065454 0.020978 166 101 57
0.018715 0.065235 -0.064060 166 101 57
0.056236 0.080109 -0.026524 122 62 38
0.056236 0.065235 -0.026524 166 101 57
-0.034385 0.065235 0.064060 166 101 57
0.056225 0.065235 0.026550 166 101 57
-0.034359 0.065235 -0.064071 166 101 57
0.018688 0.065235 0.064071 166 101 57
-0.071895 0.080109 -0.026550 120 61 37
-0.021473 0.080109 -0.032943 120 61 37
-0.034359 0.080109 -0.064071 120 61 37
-0.034385 0.080109 0.064060 121 62 37
0.056225 0.080109 0.026550 121 62 37
0.018715 0.080109 -0.064060 120 61 37
-0.071906 0.080109 0.026524 120 61 37
0.018688 0.080109 0.064071 120 61 37
0.025107 0.080109 -0.013637 120 61 37
0.025102 0.353593 0.013651 166 101 57
0.025102 0.080109 0.013651 120 61 37
-0.021486 0.080109 0.032937 120 61 37
-0.040778 0.080109 0.013637 120 61 37
0.005802 0.080109 0.032942 120 61 37
0.005816 0.080109 -0.032937 120 61 37
-0.040772 0.080109 -0.013651 120 61 37
-0.040772 0.353593 -0.013651 166 101 57
-0.072028 0.375330 0.026574 135 73 43
-0.072017 0.375330 -0.026600 120 61 37
0.005816 0.353593 -0.032937 166 101 57
-0.021473 0.353593 -0.032943 166 101 57
-0.040778 0.353593 0.013637 166 101 57
0.005802 0.353593 0.032942 166 101 57
0.025107 0.353593 -0.013637 166 101 57
-0.040778 0.080109 0.013637 135 73 44
-0.021486 0.353593 0.032937 166 101 57
-0.034436 0.375330 0.064181 120 61 37
0.056357 0.375330 -0.026574 120 61 37
0.056346 0.375330 0.026600 120 61 37
0.018765 0.375330 -0.064181 120 61 37
-0.034409 0.375330 -0.064192 120 61 37
0.018739 0.375330 0.064192 120 61 37
-0.012702 0.375330 -0.011755 120 61 37
-0.002964 0.438049 -0.011753 166 101 57
-0.002964 0.375330 -0.011753 120 61 37
-0.019588 0.375330 -0.004871 120 61 37
-0.012701 0.438049 -0.011755 166 101 57
-0.019590 0.375330 0.004866 120 61 37
-0.012706 0.438049 0.011753 166 101 57
-0.019590 0.438049 0.004866 166 101 57
0.003918 0.375330 0.004871 120 61 37
-0.002969 0.438049 0.011755 166 101 57
-0.002969 0.375330 0.011755 120 61 37
0.003920 0.438049 -0.004866 166 101 57
0.003920 0.375330 -0.004866 120 61 37
-0.019588 0.438049 -0.004871 166 101 57
-0.012706 0.375330 0.011753 120 61 37
0.003918 0.438049 0.004871 166 101 57
-0.018340 0.193677 0.000000 166 101 57
-0.018340 0.244437 0.000000 166 101 57
-0.238146 0.168151 0.018621 166 101 57
0.138701 -0.480172 0.060733 121 62 37
-0.072028 0.375330 0.026574 120 61 37
3 0 1 2
3 2 3 4
3 3 5 4
3 6 7 5
3 7 8 9
3 9 10 11
3 12 13 14
3 10 15 11
3 12 0 15
3 9 16 7
3 16 17 18
3 0 18 15
3 2 19 0
3 5 20 4
3 11 17 9
3 5 16 21
3 11 18 22
3 4 23 2
3 24 25 26
3 3 27 24
3 28 29 8
3 30 14 31
3 1 31 27
3 3 26 6
3 8 13 10
3 6 32 28
3 33 34 35
3 27 36 37
3 31 33 36
3 29 38 13
3 26 39 32
3 24 37 40
3 14 38 33
3 32 41 29
3 42 43 44
3 39 45 41
3 40 42 25
3 37 46 47
3 36 35 46
3 41 34 38
3 25 44 39
3 40 47 48
3 49 50 51
3 48 52 53
3 35 54 55
3 44 56 45
3 48 57 42
3 47 49 52
3 46 55 49
3 45 54 34
3 58 59 60
3 56 61 54
3 57 58 43
3 53 62 63
3 55 61 50
3 43 60 56
3 53 64 57
3 52 51 62
3 65 66 67
3 63 68 64
3 62 69 70
3 51 65 69
3 60 71 61
3 64 72 58
3 63 70 73
3 50 71 65
3 66 74 75
3 72 76 59
3 73 74 68
3 70 77 78
3 69 67 77
3 59 66 71
3 68 79 72
3 73 78 75
3 80 81 82
3 83 84 81
3 84 85 86
3 86 87 88
3 87 89 88
3 90 91 89
3 91 92 93
3 93 80 82
3 86 94 95
3 96 97 98
3 93 98 91
3 84 99 81
3 88 100 94
3 82 96 93
3 81 101 82
3 84 95 102
3 89 98 100
3 97 103 104
3 94 104 105
3 102 106 107
3 99 108 101
3 101 109 96
3 100 97 104
3 95 105 106
3 102 110 99
3 111 112 113
3 106 103 114
3 107 111 110
3 104 103 105
3 110 111 108
3 109 111 115
3 115 113 116
3 115 116 103
3 103 112 114
3 117 118 119
3 120 121 118
3 122 123 121
3 124 125 123
3 125 126 127
3 126 128 127
3 124 129 130
3 131 132 128
3 133 119 132
3 134 135 136
3 131 134 133
3 122 137 138
3 126 129 139
3 133 136 140
3 120 136 137
3 122 141 124
3 131 139 142
3 143 144 145
3 139 146 142
3 129 147 143
3 137 148 138
3 142 149 134
3 129 145 139
3 138 147 141
3 136 150 137
3 151 152 153
3 147 154 155
3 135 156 150
3 135 153 157
3 145 151 146
3 143 155 158
3 150 154 148
3 149 151 153
3 159 160 161
3 158 162 144
3 154 163 155
3 157 164 156
3 153 165 157
3 144 159 151
3 155 166 158
3 156 167 154
3 168 169 170
3 163 171 166
3 167 168 172
3 159 173 152
3 162 171 160
3 167 174 163
3 164 175 168
3 152 175 165
3 176 177 178
3 175 179 169
3 160 180 161
3 174 181 171
3 168 182 172
3 161 176 183
3 171 184 160
3 172 185 174
3 186 187 188
3 181 189 184
3 185 188 190
3 169 186 170
3 169 178 191
3 184 177 180
3 181 190 192
3 170 188 182
3 193 194 195
3 177 193 178
3 192 196 189
3 188 197 190
3 191 198 186
3 178 195 191
3 189 199 177
3 190 200 192
3 201 202 203
3 199 204 205
3 197 206 200
3 187 207 201
3 199 208 193
3 196 206 204
3 187 203 197
3 198 194 207
3 209 210 211
3 194 212 207
3 208 213 194
3 204 214 205
3 203 215 206
3 207 216 201
3 217 209 208
3 206 218 204
3 215 219 218
3 202 220 221
3 213 222 212
3 213 211 223
3 218 210 214
3 215 221 224
3 212 220 216
3 225 226 227
3 228 229 225
3 230 231 232
3 233 234 235
3 227 236 237
3 228 232 238
3 235 231 239
3 237 240 233
3 0 30 1
3 2 1 3
3 3 6 5
3 6 28 7
3 7 28 8
3 9 8 10
3 12 10 13
3 10 12 15
3 12 30 0
3 9 17 16
3 18 19 23
3 23 20 21
3 21 16 18
3 17 22 18
3 18 23 21
3 0 19 18
3 2 23 19
3 5 21 20
3 11 22 17
3 5 7 16
3 11 15 18
3 4 20 23
3 24 40 25
3 3 1 27
3 28 32 29
3 30 12 14
3 1 30 31
3 3 24 26
3 8 29 13
3 6 26 32
3 33 38 34
3 27 31 36
3 31 14 33
3 29 41 38
3 26 25 39
3 24 27 37
3 14 13 38
3 32 39 41
3 42 57 43
3 39 44 45
3 40 48 42
3 37 36 46
3 36 33 35
3 41 45 34
3 25 42 44
3 40 37 47
3 49 55 50
3 48 47 52
3 35 34 54
3 44 43 56
3 48 53 57
3 47 46 49
3 46 35 55
3 45 56 54
3 58 72 59
3 56 60 61
3 57 64 58
3 53 52 62
3 55 54 61
3 43 58 60
3 53 63 64
3 52 49 51
3 65 71 66
3 63 73 68
3 62 51 69
3 51 50 65
3 60 59 71
3 64 68 72
3 63 62 70
3 50 61 71
3 75 78 66
3 77 67 78
3 66 76 74
3 79 74 76
3 78 67 66
3 72 79 76
3 73 75 74
3 70 69 77
3 69 65 67
3 59 76 66
3 68 74 79
3 73 70 78
3 80 83 81
3 83 241 84
3 84 241 85
3 86 85 87
3 87 90 89
3 90 242 91
3 91 242 92
3 93 92 80
3 86 88 94
3 96 109 97
3 93 96 98
3 84 102 99
3 88 89 100
3 82 101 96
3 81 99 101
3 84 86 95
3 89 91 98
3 97 115 103
3 94 100 104
3 102 95 106
3 99 110 108
3 101 108 109
3 100 98 97
3 95 94 105
3 102 107 110
3 106 105 103
3 107 114 111
3 97 109 115
3 107 106 114
3 109 108 111
3 116 113 112
3 112 243 116
3 115 111 113
3 103 243 112
3 111 114 112
3 103 116 243
3 117 120 118
3 120 122 121
3 122 244 123
3 124 130 125
3 125 130 126
3 126 131 128
3 124 141 129
3 131 133 132
3 133 117 119
3 134 149 135
3 131 142 134
3 122 120 137
3 126 130 129
3 133 134 136
3 120 117 136
3 122 138 141
3 131 126 139
3 143 158 144
3 139 145 146
3 129 141 147
3 137 150 148
3 142 146 149
3 129 143 145
3 138 148 147
3 136 135 150
3 151 159 152
3 147 148 154
3 135 157 156
3 135 149 153
3 145 144 151
3 143 147 155
3 150 156 154
3 149 146 151
3 159 162 160
3 158 166 162
3 154 167 163
3 157 165 164
3 153 152 165
3 144 162 159
3 155 163 166
3 156 164 167
3 168 175 169
3 163 174 171
3 167 164 168
3 159 161 173
3 162 166 171
3 167 172 174
3 164 165 175
3 152 173 175
3 176 180 177
3 175 173 179
3 160 184 180
3 174 185 181
3 168 170 182
3 161 180 176
3 171 181 184
3 172 182 185
3 186 198 187
3 181 192 189
3 185 182 188
3 169 191 186
3 169 176 178
3 184 189 177
3 181 185 190
3 170 186 188
3 193 208 194
3 177 199 193
3 192 200 196
3 188 187 197
3 191 195 198
3 178 193 195
3 189 196 199
3 190 197 200
3 201 216 202
3 199 196 204
3 197 203 206
3 187 198 207
3 199 205 208
3 196 200 206
3 187 201 203
3 198 195 194
3 209 214 210
3 194 213 212
3 208 209 213
3 204 218 214
3 203 202 215
3 207 212 216
3 217 214 209
3 206 215 218
3 215 224 219
3 202 216 220
3 213 223 222
3 213 209 211
3 218 219 210
3 215 202 221
3 212 222 220
3 225 229 226
3 220 222 223
3 223 211 245
3 245 219 224
3 224 221 220
3 220 223 245
3 245 224 220
3 228 238 229
3 230 239 231
3 233 240 234
3 227 226 236
3 228 230 232
3 235 234 231
3 237 236 240
