ply
format ascii 1.0
comment Created by Blender 2.78 (sub 0) - www.blender.org, source file: 'wheatstage2.blend'
element vertex 60
property float x
property float y
property float z
property uchar red
property uchar green
property uchar blue
element face 60
property list uchar uint vertex_indices
end_header
-0.036408 -0.000000 0.225935 255 0 0
-0.008217 -0.000000 0.236196 255 0 0
-0.036408 -0.500000 0.225935 255 0 0
-0.008217 -0.500000 0.236196 255 0 0
0.138404 -0.193102 0.347027 255 0 0
0.165081 -0.193102 0.273731 255 0 0
0.136802 -0.177884 0.346444 255 0 0
0.163480 -0.177884 0.273148 255 0 0
-0.046668 -0.000000 0.254126 255 0 0
-0.046668 -0.500000 0.254126 255 0 0
-0.040208 -0.244110 0.282018 255 0 0
-0.013530 -0.244110 0.208722 255 0 0
-0.018478 -0.000000 0.264387 255 0 0
-0.018478 -0.500000 0.264387 255 0 0
-0.166700 0.018961 0.152973 255 0 0
-0.193377 0.018961 0.226269 255 0 0
-0.165099 0.046616 0.153556 255 0 0
-0.191776 0.046616 0.226852 255 0 0
0.010065 -0.000292 0.217310 255 0 0
-0.016613 -0.000292 0.290606 255 0 0
-0.196405 0.000000 -0.172436 255 0 0
-0.222386 0.000000 -0.187436 255 0 0
-0.196405 -0.500000 -0.172436 255 0 0
-0.222386 -0.500000 -0.187436 255 0 0
-0.347534 -0.191744 -0.322044 255 0 0
-0.386534 -0.191744 -0.254494 255 0 0
-0.346058 -0.177884 -0.321191 255 0 0
-0.385058 -0.177884 -0.253641 255 0 0
-0.181405 0.000000 -0.198416 255 0 0
-0.181405 -0.500000 -0.198416 255 0 0
-0.182925 -0.244110 -0.227006 255 0 0
-0.221925 -0.244110 -0.159456 255 0 0
-0.207386 0.000000 -0.213416 255 0 0
-0.207386 -0.500000 -0.213416 255 0 0
-0.080762 0.025663 -0.077956 255 0 0
-0.041763 0.025663 -0.145507 255 0 0
-0.082238 0.046616 -0.078808 255 0 0
-0.043238 0.046616 -0.146358 255 0 0
-0.248238 -0.002537 -0.174648 255 0 0
-0.209238 -0.002537 -0.242198 255 0 0
0.320852 0.000000 -0.129148 255 0 0
0.320852 0.000000 -0.099148 255 0 0
0.320852 -0.500000 -0.129148 255 0 0
0.320852 -0.500000 -0.099148 255 0 0
0.266852 -0.194078 0.076537 255 0 0
0.344852 -0.194078 0.076537 255 0 0
0.266852 -0.177884 0.074833 255 0 0
0.344852 -0.177884 0.074833 255 0 0
0.290852 0.000000 -0.129148 255 0 0
0.290852 -0.500000 -0.129148 255 0 0
0.266852 -0.244110 -0.113537 255 0 0
0.344852 -0.244110 -0.113537 255 0 0
0.290852 0.000000 -0.099148 255 0 0
0.290852 -0.500000 -0.099148 255 0 0
0.344852 0.032983 -0.276537 255 0 0
0.266852 0.032983 -0.276537 255 0 0
0.344852 0.046616 -0.274833 255 0 0
0.266852 0.046616 -0.274833 255 0 0
0.344852 -0.002660 -0.075721 255 0 0
0.266852 -0.002660 -0.075721 255 0 0
3 0 1 2
3 3 2 1
3 4 5 6
3 7 6 5
3 8 0 9
3 2 9 0
3 6 7 10
3 11 10 7
3 12 8 13
3 9 13 8
3 1 12 3
3 13 3 12
3 14 15 16
3 17 16 15
3 16 17 18
3 19 18 17
3 20 21 22
3 23 22 21
3 24 25 26
3 27 26 25
3 28 20 29
3 22 29 20
3 26 27 30
3 31 30 27
3 32 28 33
3 29 33 28
3 21 32 23
3 33 23 32
3 34 35 36
3 37 36 35
3 36 37 38
3 39 38 37
3 40 41 42
3 43 42 41
3 44 45 46
3 47 46 45
3 48 40 49
3 42 49 40
3 46 47 50
3 51 50 47
3 7 5 11
3 31 27 25
3 52 48 53
3 49 53 48
3 26 30 24
3 6 10 4
3 41 52 43
3 53 43 52
3 50 44 46
3 47 45 51
3 54 55 56
3 57 56 55
3 56 57 58
3 59 58 57
3 57 55 59
3 16 18 14
3 39 37 35
3 58 54 56
3 36 38 34
3 17 15 19
