ply
format ascii 1.0
comment Created by Blender 2.78 (sub 0) - www.blender.org, source file: 'wheatstage1.blend'
element vertex 42
property float x
property float y
property float z
property uchar red
property uchar green
property uchar blue
element face 42
property list uchar uint vertex_indices
end_header
-0.120192 -0.300000 0.211162 255 0 0
-0.092001 -0.300000 0.221423 255 0 0
-0.120192 -0.500000 0.211162 255 0 0
-0.092001 -0.500000 0.221423 255 0 0
-0.000371 -0.278513 0.312239 255 0 0
0.026307 -0.278513 0.238943 255 0 0
-0.004303 -0.264384 0.310808 255 0 0
0.022375 -0.264384 0.237512 255 0 0
-0.178173 -0.300000 -0.165838 255 0 0
-0.163173 -0.300000 -0.191819 255 0 0
-0.178173 -0.500000 -0.165838 255 0 0
-0.163173 -0.500000 -0.191819 255 0 0
0.257657 -0.300000 -0.142343 255 0 0
0.257657 -0.300000 -0.172342 255 0 0
0.257657 -0.500000 -0.142343 255 0 0
0.257657 -0.500000 -0.172342 255 0 0
-0.102262 -0.300000 0.249613 255 0 0
-0.130453 -0.300000 0.239353 255 0 0
-0.102262 -0.500000 0.249613 255 0 0
-0.130453 -0.500000 0.239353 255 0 0
-0.151202 -0.299857 0.257341 255 0 0
-0.137192 -0.300000 -0.176819 255 0 0
-0.152192 -0.300000 -0.150838 255 0 0
-0.137192 -0.500000 -0.176819 255 0 0
-0.152192 -0.500000 -0.150838 255 0 0
-0.249017 -0.264384 -0.269094 255 0 0
-0.288017 -0.264384 -0.201544 255 0 0
-0.108415 -0.300592 -0.187917 255 0 0
-0.147415 -0.300592 -0.120367 255 0 0
-0.291480 -0.277881 -0.203543 255 0 0
-0.252480 -0.277881 -0.271093 255 0 0
0.287657 -0.300000 -0.172342 255 0 0
0.287657 -0.300000 -0.142343 255 0 0
0.287657 -0.500000 -0.172342 255 0 0
0.287657 -0.500000 -0.142343 255 0 0
0.233657 -0.277783 -0.025393 255 0 0
0.311658 -0.277783 -0.025393 255 0 0
0.233657 -0.264384 -0.029362 255 0 0
0.311658 -0.264384 -0.029362 255 0 0
-0.124524 -0.299857 0.184045 255 0 0
0.233657 -0.300996 -0.187558 255 0 0
0.311658 -0.300996 -0.187558 255 0 0
3 0 1 2
3 3 2 1
3 4 5 6
3 7 6 5
3 8 9 10
3 11 10 9
3 12 13 14
3 15 14 13
3 16 17 18
3 19 18 17
3 6 20 4
3 21 22 23
3 24 23 22
3 25 26 27
3 28 27 26
3 26 29 28
3 27 30 25
3 31 32 33
3 34 33 32
3 35 36 37
3 38 37 36
3 17 0 19
3 2 19 0
3 6 7 20
3 39 20 7
3 22 8 24
3 10 24 8
3 30 29 25
3 26 25 29
3 32 12 34
3 14 34 12
3 1 16 3
3 18 3 16
3 37 40 35
3 39 7 5
3 9 21 11
3 23 11 21
3 38 36 41
3 13 31 15
3 33 15 31
3 37 38 40
3 41 40 38
