ply
format ascii 1.0
comment Created by Blender 2.78 (sub 0) - www.blender.org, source file: 'wheatstage3.blend'
element vertex 84
property float x
property float y
property float z
property uchar red
property uchar green
property uchar blue
element face 90
property list uchar uint vertex_indices
end_header
-0.036408 0.200000 0.225935 255 0 0
-0.008217 0.200000 0.236196 255 0 0
-0.036408 -0.500000 0.225935 255 0 0
-0.008217 -0.500000 0.236196 255 0 0
0.138404 -0.190088 0.347027 255 0 0
0.165081 -0.190088 0.273731 255 0 0
0.136802 -0.177884 0.346444 255 0 0
0.163480 -0.177884 0.273148 255 0 0
-0.046668 0.200000 0.254126 255 0 0
-0.046668 -0.500000 0.254126 255 0 0
-0.040208 -0.244110 0.282018 255 0 0
-0.013530 -0.244110 0.208722 255 0 0
-0.018478 0.200000 0.264387 255 0 0
-0.018478 -0.500000 0.264387 255 0 0
-0.166700 0.033991 0.152973 255 0 0
-0.193377 0.033991 0.226269 255 0 0
-0.165099 0.046616 0.153556 255 0 0
-0.191776 0.046616 0.226852 255 0 0
-0.010171 -0.000110 0.209944 255 0 0
-0.036849 -0.000110 0.283240 255 0 0
-0.043324 0.318500 0.212776 255 0 0
-0.043324 0.178500 0.212776 255 0 0
-0.060425 0.318500 0.259761 255 0 0
-0.060425 0.178500 0.259761 255 0 0
0.003660 0.318500 0.229877 255 0 0
-0.013441 0.318500 0.276862 255 0 0
0.003660 0.178500 0.229877 255 0 0
-0.013441 0.178500 0.276862 255 0 0
-0.146405 0.200000 -0.172436 255 0 0
-0.172386 0.200000 -0.187436 255 0 0
-0.146405 -0.500000 -0.172436 255 0 0
-0.172386 -0.500000 -0.187436 255 0 0
-0.297534 -0.189927 -0.322044 255 0 0
-0.336534 -0.189927 -0.254494 255 0 0
-0.296058 -0.177884 -0.321191 255 0 0
-0.335058 -0.177884 -0.253642 255 0 0
-0.131405 0.200000 -0.198416 255 0 0
-0.131405 -0.500000 -0.198416 255 0 0
-0.132925 -0.244110 -0.227006 255 0 0
-0.171925 -0.244110 -0.159456 255 0 0
-0.157386 0.200000 -0.213416 255 0 0
-0.157386 -0.500000 -0.213416 255 0 0
-0.030762 0.030866 -0.077956 255 0 0
0.008238 0.030867 -0.145507 255 0 0
-0.032238 0.046616 -0.078808 255 0 0
0.006762 0.046616 -0.146358 255 0 0
-0.175020 -0.000110 -0.161243 255 0 0
-0.136020 -0.000110 -0.228793 255 0 0
-0.141879 0.318500 -0.158275 255 0 0
-0.141879 0.178500 -0.158275 255 0 0
-0.116879 0.318500 -0.201577 255 0 0
-0.116879 0.178500 -0.201577 255 0 0
-0.185180 0.318500 -0.183275 255 0 0
-0.160180 0.318500 -0.226577 255 0 0
-0.185180 0.178500 -0.183275 255 0 0
-0.160180 0.178500 -0.226577 255 0 0
0.320852 0.200000 -0.129148 255 0 0
0.320852 0.200000 -0.099148 255 0 0
0.320852 -0.500000 -0.129148 255 0 0
0.320852 -0.500000 -0.099148 255 0 0
0.266852 -0.192530 0.076537 255 0 0
0.344852 -0.192530 0.076537 255 0 0
0.266852 -0.177884 0.074833 255 0 0
0.344852 -0.177884 0.074833 255 0 0
0.290852 0.200000 -0.129148 255 0 0
0.290852 -0.500000 -0.129148 255 0 0
0.266852 -0.244110 -0.113537 255 0 0
0.344852 -0.244110 -0.113537 255 0 0
0.290852 0.200000 -0.099148 255 0 0
0.290852 -0.500000 -0.099148 255 0 0
0.344852 0.035154 -0.276537 255 0 0
0.266852 0.035154 -0.276537 255 0 0
0.344852 0.046616 -0.274833 255 0 0
0.266852 0.046616 -0.274833 255 0 0
0.344852 -0.000110 -0.109963 255 0 0
0.266852 -0.000110 -0.109963 255 0 0
0.330852 0.318500 -0.140148 255 0 0
0.330852 0.178500 -0.140148 255 0 0
0.280852 0.318500 -0.140148 255 0 0
0.280852 0.178500 -0.140148 255 0 0
0.330852 0.318500 -0.090148 255 0 0
0.280852 0.318500 -0.090148 255 0 0
0.330852 0.178500 -0.090148 255 0 0
0.280852 0.178500 -0.090148 255 0 0
3 0 1 2
3 3 2 1
3 4 5 6
3 7 6 5
3 8 0 9
3 2 9 0
3 6 7 10
3 11 10 7
3 12 8 13
3 9 13 8
3 1 12 3
3 13 3 12
3 14 15 16
3 17 16 15
3 16 17 18
3 19 18 17
3 20 21 22
3 23 22 21
3 24 20 25
3 22 25 20
3 26 24 27
3 25 27 24
3 26 21 24
3 20 24 21
3 27 25 23
3 22 23 25
3 28 29 30
3 31 30 29
3 32 33 34
3 35 34 33
3 36 28 37
3 30 37 28
3 34 35 38
3 39 38 35
3 40 36 41
3 37 41 36
3 29 40 31
3 41 31 40
3 17 15 19
3 16 18 14
3 42 43 44
3 45 44 43
3 44 45 46
3 47 46 45
3 35 33 39
3 34 38 32
3 45 43 47
3 44 46 42
3 7 5 11
3 10 4 6
3 48 49 50
3 51 50 49
3 52 48 53
3 50 53 48
3 54 52 55
3 53 55 52
3 54 49 52
3 48 52 49
3 55 53 51
3 50 51 53
3 56 57 58
3 59 58 57
3 60 61 62
3 63 62 61
3 64 56 65
3 58 65 56
3 62 63 66
3 67 66 63
3 62 66 60
3 68 64 69
3 65 69 64
3 57 68 59
3 69 59 68
3 63 61 67
3 70 71 72
3 73 72 71
3 72 73 74
3 75 74 73
3 72 74 70
3 73 71 75
3 76 77 78
3 79 78 77
3 80 76 81
3 78 81 76
3 82 80 83
3 81 83 80
3 82 77 80
3 76 80 77
3 83 81 79
3 78 79 81
