ply
format ascii 1.0
comment Created by Blender 2.82 (sub 7) - www.blender.org, source file: '2pottedpoisonplantwithflower.blend'
element vertex 72
property float x
property float y
property float z
property uchar red
property uchar green
property uchar blue
property uchar alpha
element face 97
property list uchar uint vertex_indices
end_header
-0.446920 -0.500523 -0.446920 116 87 59 255
-0.446920 0.393317 -0.446920 170 127 88 255
0.446920 0.393317 -0.446920 170 127 87 255
0.446920 -0.500523 -0.446920 116 87 59 255
0.446920 0.393317 0.446920 170 127 87 255
0.446920 -0.500523 0.446920 116 87 59 255
-0.446920 0.393317 0.446920 170 127 87 255
-0.446920 -0.500523 0.446920 116 87 59 255
0.378483 0.393317 -0.378483 170 127 87 255
0.378483 0.393317 0.378483 170 127 87 255
-0.378483 0.393317 0.378483 171 128 88 255
0.378483 0.296884 0.378483 68 36 18 255
-0.378483 0.296884 0.378483 71 41 25 255
-0.378483 0.393317 -0.378483 171 128 89 255
0.378483 0.296884 -0.378483 66 34 16 255
-0.378483 0.296884 -0.378483 75 44 25 255
-0.050882 0.239149 -0.050882 135 102 70 255
-0.050882 1.379660 -0.050882 134 101 69 255
0.050882 1.379660 -0.050882 134 101 69 255
0.050882 0.239149 -0.050882 134 101 69 255
0.050882 1.379660 0.050882 134 101 69 255
0.050882 0.239149 0.050882 134 101 69 255
-0.050882 1.379660 0.050882 134 101 69 255
-0.050882 0.239149 0.050882 134 101 69 255
0.000000 1.177531 0.315024 120 141 78 255
-0.313439 1.888401 0.507161 154 180 100 255
-0.507160 1.447374 0.000981 120 141 78 255
0.313439 1.888401 0.507161 155 181 101 255
0.000000 1.174798 -0.311863 120 141 78 255
0.507160 1.447374 0.000981 120 141 78 255
-0.000000 2.597590 0.311863 155 181 101 255
-0.507160 2.325013 -0.000981 162 185 116 255
-0.313439 1.883987 -0.507161 154 180 100 255
0.313439 1.883987 -0.507161 155 180 101 255
0.507160 2.325013 -0.000981 154 180 100 255
-0.000000 2.594857 -0.315024 162 186 117 255
0.387726 0.857939 -0.000000 121 82 111 255
0.335154 1.023775 0.072360 121 82 111 255
0.302662 1.023775 -0.027639 121 82 111 255
0.440298 1.023775 0.072360 133 93 121 255
0.387726 1.023775 -0.089443 121 82 111 255
0.472790 1.023775 -0.027639 142 102 130 255
0.387726 1.292104 0.109254 194 132 178 255
0.283820 1.292104 0.033760 194 132 178 255
0.323509 1.292104 -0.088388 194 132 178 255
0.451943 1.292104 -0.088388 194 132 178 255
0.491632 1.292104 0.033760 194 132 178 255
0.387726 1.457939 -0.000000 193 133 177 255
-0.289698 0.811778 -0.075739 121 82 111 255
-0.342270 0.977614 -0.003379 121 82 111 255
-0.374762 0.977614 -0.103378 121 82 111 255
-0.237126 0.977614 -0.003379 133 93 121 255
-0.289698 0.977614 -0.165182 121 82 111 255
-0.204634 0.977614 -0.103378 142 102 130 255
-0.289698 1.245943 0.033515 194 132 178 255
-0.393603 1.245943 -0.041979 194 132 178 255
-0.353914 1.245943 -0.164127 194 132 178 255
-0.225481 1.245943 -0.164127 194 132 178 255
-0.185792 1.245943 -0.041979 194 132 178 255
-0.289698 1.411778 -0.075739 193 133 177 255
0.020392 0.787563 0.226560 121 82 111 255
-0.023525 0.926097 0.287007 121 82 111 255
-0.050668 0.926097 0.203471 121 82 111 255
0.064309 0.926097 0.287007 133 93 121 255
0.020392 0.926097 0.151842 121 82 111 255
0.091451 0.926097 0.203471 142 102 130 255
0.020392 1.150251 0.317827 194 132 178 255
-0.066408 1.150251 0.254762 194 132 178 255
-0.033253 1.150251 0.152723 194 132 178 255
0.074036 1.150251 0.152723 194 132 178 255
0.107191 1.150251 0.254762 194 132 178 255
0.020392 1.288785 0.226560 193 133 177 255
4 0 1 2 3
4 3 2 4 5
4 5 4 6 7
4 7 6 1 0
4 4 2 8 9
4 10 9 11 12
4 6 4 9 10
4 2 1 13 8
4 1 6 10 13
4 11 14 15 12
4 8 13 15 14
4 13 10 12 15
4 9 8 14 11
4 16 17 18 19
4 19 18 20 21
4 21 20 22 23
4 23 22 17 16
3 24 25 26
3 25 24 27
3 24 26 28
3 24 28 29
3 24 29 27
3 25 27 30
3 26 25 31
3 28 26 32
3 29 28 33
3 27 29 34
3 25 30 31
3 26 31 32
3 28 32 33
3 29 33 34
3 27 34 30
3 31 30 35
3 32 31 35
3 33 32 35
3 34 33 35
3 30 34 35
3 36 37 38
3 37 36 39
3 36 38 40
3 36 40 41
3 36 41 39
3 37 39 42
3 38 37 43
3 40 38 44
3 41 40 45
3 39 41 46
3 37 42 43
3 38 43 44
3 40 44 45
3 41 45 46
3 39 46 42
3 43 42 47
3 44 43 47
3 45 44 47
3 46 45 47
3 42 46 47
3 48 49 50
3 49 48 51
3 48 50 52
3 48 52 53
3 48 53 51
3 49 51 54
3 50 49 55
3 52 50 56
3 53 52 57
3 51 53 58
3 49 54 55
3 50 55 56
3 52 56 57
3 53 57 58
3 51 58 54
3 55 54 59
3 56 55 59
3 57 56 59
3 58 57 59
3 54 58 59
3 60 61 62
3 61 60 63
3 60 62 64
3 60 64 65
3 60 65 63
3 61 63 66
3 62 61 67
3 64 62 68
3 65 64 69
3 63 65 70
3 61 66 67
3 62 67 68
3 64 68 69
3 65 69 70
3 63 70 66
3 67 66 71
3 68 67 71
3 69 68 71
3 70 69 71
3 66 70 71
