ply
format ascii 1.0
comment Created by Blender 2.82 (sub 7) - www.blender.org, source file: '2pottedpoisonplant.blend'
element vertex 36
property float x
property float y
property float z
property uchar red
property uchar green
property uchar blue
property uchar alpha
element face 37
property list uchar uint vertex_indices
end_header
0.446920 -0.500523 -0.446920 116 87 59 255
0.446920 0.393317 -0.446920 170 127 88 255
0.446920 0.393317 0.446920 170 127 87 255
0.446920 -0.500523 0.446920 116 87 59 255
-0.446920 0.393317 0.446920 170 127 87 255
-0.446920 -0.500523 0.446920 116 87 59 255
-0.446920 0.393317 -0.446920 170 127 87 255
-0.446920 -0.500523 -0.446920 116 87 59 255
0.378483 0.393317 0.378483 170 127 87 255
-0.378483 0.393317 0.378483 170 127 87 255
-0.378483 0.393317 -0.378483 171 128 88 255
-0.378483 0.296884 0.378483 68 36 18 255
-0.378483 0.296884 -0.378483 71 41 25 255
0.378483 0.393317 -0.378483 171 128 89 255
0.378483 0.296884 0.378483 66 34 16 255
0.378483 0.296884 -0.378483 75 44 25 255
0.050882 0.239149 -0.050882 135 102 70 255
0.050882 1.379660 -0.050882 134 101 69 255
0.050882 1.379660 0.050882 134 101 69 255
0.050882 0.239149 0.050882 134 101 69 255
-0.050882 1.379660 0.050882 134 101 69 255
-0.050882 0.239149 0.050882 134 101 69 255
-0.050882 1.379660 -0.050882 134 101 69 255
-0.050882 0.239149 -0.050882 134 101 69 255
-0.315024 1.177531 -0.000000 120 141 78 255
-0.507161 1.888401 -0.313439 154 180 100 255
-0.000981 1.447374 -0.507160 120 141 78 255
-0.507161 1.888401 0.313439 155 181 101 255
0.311863 1.174798 0.000000 120 141 78 255
-0.000981 1.447374 0.507160 120 141 78 255
-0.311863 2.597590 -0.000000 155 181 101 255
0.000981 2.325013 -0.507160 162 185 116 255
0.507161 1.883987 -0.313439 154 180 100 255
0.507161 1.883987 0.313439 155 180 101 255
0.000981 2.325013 0.507160 154 180 100 255
0.315024 2.594857 0.000000 162 186 117 255
4 0 1 2 3
4 3 2 4 5
4 5 4 6 7
4 7 6 1 0
4 4 2 8 9
4 10 9 11 12
4 6 4 9 10
4 2 1 13 8
4 1 6 10 13
4 11 14 15 12
4 8 13 15 14
4 13 10 12 15
4 9 8 14 11
4 16 17 18 19
4 19 18 20 21
4 21 20 22 23
4 23 22 17 16
3 24 25 26
3 25 24 27
3 24 26 28
3 24 28 29
3 24 29 27
3 25 27 30
3 26 25 31
3 28 26 32
3 29 28 33
3 27 29 34
3 25 30 31
3 26 31 32
3 28 32 33
3 29 33 34
3 27 34 30
3 31 30 35
3 32 31 35
3 33 32 35
3 34 33 35
3 30 34 35
