ply
format ascii 1.0
comment Created by Blender 2.82 (sub 7) - www.blender.org, source file: '2poisongatherer.blend'
element vertex 40
property float x
property float y
property float z
property uchar red
property uchar green
property uchar blue
property uchar alpha
element face 36
property list uchar uint vertex_indices
end_header
-0.113015 -0.501562 -0.460780 144 102 70 255
-0.099126 -0.241863 -0.479602 190 134 92 255
-0.044733 -0.241863 -0.307864 190 134 92 255
-0.066926 -0.501562 -0.315258 144 102 70 255
-0.191258 -0.241863 -0.203064 190 134 92 255
-0.191084 -0.501562 -0.226455 144 102 70 255
-0.336207 -0.241863 -0.310032 190 134 92 255
-0.313907 -0.501562 -0.317094 144 102 70 255
-0.191088 -0.241863 -0.225912 190 134 92 255
-0.314425 -0.241863 -0.316930 190 134 92 255
-0.279266 -0.241863 -0.480941 190 134 92 255
-0.265658 -0.501562 -0.461915 144 102 70 255
-0.120395 -0.262495 -0.450780 145 95 135 255
-0.258428 -0.262495 -0.451807 144 94 136 255
-0.302059 -0.262495 -0.320847 144 94 136 255
-0.112693 -0.241863 -0.461217 190 134 92 255
-0.265974 -0.241863 -0.462357 190 134 92 255
-0.066411 -0.241863 -0.315086 190 134 92 255
-0.190991 -0.262495 -0.238883 144 94 136 255
-0.078717 -0.262495 -0.319186 144 94 136 255
-0.232749 -0.501562 -0.115725 144 102 70 255
-0.209358 -0.241863 -0.115555 190 134 92 255
-0.316297 -0.241863 0.029415 190 134 92 255
-0.323364 -0.501562 0.007116 144 102 70 255
-0.487218 -0.241863 -0.027492 190 134 92 255
-0.468194 -0.501562 -0.041104 144 102 70 255
-0.485913 -0.241863 -0.207633 190 134 92 255
-0.467089 -0.501562 -0.193747 144 102 70 255
-0.468636 -0.241863 -0.040788 190 134 92 255
-0.467526 -0.241863 -0.194069 190 134 92 255
-0.314186 -0.241863 -0.262059 190 134 92 255
-0.321576 -0.501562 -0.239865 144 102 70 255
-0.232205 -0.241863 -0.115721 190 134 92 255
-0.321404 -0.241863 -0.240380 190 134 92 255
-0.325502 -0.262495 -0.228073 144 94 136 255
-0.245176 -0.262495 -0.115815 145 95 135 255
-0.323200 -0.241863 0.007634 190 134 92 255
-0.457088 -0.262495 -0.186369 144 94 136 255
-0.458087 -0.262495 -0.048336 144 94 136 255
-0.327119 -0.262495 -0.004731 144 94 136 255
4 0 1 2 3
4 3 2 4 5
4 5 4 6 7
4 6 4 8 9
4 7 6 10 11
4 11 10 1 0
3 12 13 14
4 15 16 13 12
4 10 6 9 16
4 4 2 17 8
4 1 10 16 15
4 2 1 15 17
3 12 14 18
4 9 8 18 14
4 17 15 12 19
4 16 9 14 13
4 8 17 19 18
4 20 21 22 23
4 23 22 24 25
4 25 24 26 27
4 26 24 28 29
4 27 26 30 31
4 31 30 21 20
3 18 19 12
4 32 33 34 35
4 30 26 29 33
4 24 22 36 28
4 21 30 33 32
4 22 21 32 36
3 34 37 38
4 29 28 38 37
4 36 32 35 39
4 33 29 37 34
4 28 36 39 38
3 38 39 35
3 35 34 38
