ply
format ascii 1.0
comment Created by Blender 3.4.1 - www.blender.org
element vertex 40
property float x
property float y
property float z
property uchar red
property uchar green
property uchar blue
property uchar alpha
element face 30
property list uchar uint vertex_indices
end_header
0.254715 -0.040000 -0.500000 203 143 103 255
0.254715 0.040000 -0.500000 206 144 104 255
0.254715 0.040000 0.500000 206 144 104 255
0.254715 -0.040000 0.500000 189 138 99 255
-0.145285 0.040000 0.500000 206 144 104 255
-0.145285 -0.040000 0.500000 206 144 104 255
-0.145285 0.040000 -0.500000 206 144 104 255
-0.145285 -0.040000 -0.500000 194 139 100 255
0.500292 0.274530 -0.340000 153 98 64 255
0.500023 0.500022 -0.340000 153 98 64 255
0.500023 0.500022 -0.260000 153 99 64 255
0.500292 0.274530 -0.260000 154 99 65 255
-0.499989 -0.499991 -0.260000 153 98 64 255
-0.272406 -0.500143 -0.260000 153 98 64 255
-0.499989 -0.499991 -0.340000 153 98 64 255
-0.272406 -0.500143 -0.340000 153 98 64 255
0.500292 0.274530 0.260000 153 98 64 255
0.500023 0.500022 0.260000 153 98 64 255
0.500023 0.500022 0.340000 153 98 64 255
0.500292 0.274530 0.340000 154 99 65 255
-0.499989 -0.499991 0.340000 153 98 64 255
-0.272406 -0.500143 0.340000 153 98 64 255
-0.499989 -0.499991 0.260000 153 98 64 255
-0.272406 -0.500143 0.260000 153 98 64 255
-0.097340 -0.370000 -0.500000 189 140 102 255
-0.097340 -0.290000 -0.500000 206 145 106 255
-0.097340 -0.290000 0.500000 206 144 104 255
-0.097340 -0.370000 0.500000 201 142 102 255
-0.497340 -0.290000 0.500000 206 144 104 255
-0.497340 -0.370000 0.500000 187 137 98 255
-0.497340 -0.290000 -0.500000 206 144 104 255
-0.497340 -0.370000 -0.500000 206 144 104 255
0.500042 0.290000 -0.500000 206 144 104 255
0.500042 0.370000 -0.500000 204 143 103 255
0.500042 0.370000 0.500000 206 144 104 255
0.500042 0.290000 0.500000 202 143 103 255
0.200042 0.370000 0.500000 206 144 104 255
0.200042 0.290000 0.500000 192 138 99 255
0.200042 0.370000 -0.500000 203 142 103 255
0.200042 0.290000 -0.500000 188 139 100 255
4 0 1 2 3
4 3 2 4 5
4 5 4 6 7
4 7 6 1 0
4 3 5 7 0
4 4 2 1 6
4 8 9 10 11
4 11 10 12 13
4 13 12 14 15
4 15 14 9 8
4 11 13 15 8
4 12 10 9 14
4 16 17 18 19
4 19 18 20 21
4 21 20 22 23
4 23 22 17 16
4 19 21 23 16
4 20 18 17 22
4 24 25 26 27
4 27 26 28 29
4 29 28 30 31
4 31 30 25 24
4 27 29 31 24
4 28 26 25 30
4 32 33 34 35
4 35 34 36 37
4 37 36 38 39
4 39 38 33 32
4 35 37 39 32
4 36 34 33 38
