ply
format ascii 1.0
comment Created by Blender 3.3.1 - www.blender.org
element vertex 176
property float x
property float y
property float z
property uchar red
property uchar green
property uchar blue
property uchar alpha
element face 117
property list uchar uint vertex_indices
end_header
-0.287534 0.125997 -0.086784 216 161 115 255
-0.287534 0.194043 -0.086784 216 161 115 255
0.097596 0.194043 0.021267 216 161 115 255
0.097596 0.125997 0.021267 217 163 118 255
0.079215 0.194043 0.086784 217 162 117 255
0.079215 0.125997 0.086784 216 161 115 255
-0.305915 0.194043 -0.021267 216 161 115 255
-0.305915 0.125997 -0.021267 216 161 115 255
-0.450000 -0.500495 -0.455937 175 103 69 255
-0.425578 -0.192455 -0.455937 182 109 71 255
0.409899 -0.192455 -0.455937 186 112 73 255
0.450000 -0.500495 -0.455937 175 103 69 255
0.409899 -0.192455 -0.415937 175 103 69 255
0.450000 -0.500495 -0.415937 175 103 69 255
-0.425578 -0.192455 -0.415937 190 116 74 255
-0.450000 -0.500495 -0.415937 190 116 76 255
-0.301919 -0.186558 -0.455937 181 108 71 255
0.295988 -0.186558 -0.455937 186 112 73 255
0.295988 -0.186558 -0.415937 175 103 69 255
0.267101 0.095910 -0.455937 190 115 73 255
0.267101 0.095910 -0.415937 190 115 73 255
-0.301919 -0.186558 -0.415937 190 115 73 255
-0.284884 0.095910 -0.415937 190 115 73 255
-0.284884 0.095910 -0.455937 190 115 73 255
-0.450000 -0.500495 0.408477 181 108 71 255
-0.425578 -0.192455 0.408477 190 115 73 255
0.409899 -0.192455 0.408477 190 115 73 255
0.450000 -0.500495 0.408477 190 115 73 255
0.409899 -0.192455 0.448477 176 104 69 255
0.450000 -0.500495 0.448477 175 103 69 255
-0.425578 -0.192455 0.448477 177 105 70 255
-0.450000 -0.500495 0.448477 175 103 69 255
-0.301919 -0.186558 0.408477 190 115 73 255
0.295988 -0.186558 0.408477 190 115 73 255
0.295988 -0.186558 0.448477 176 104 69 255
0.267101 0.095910 0.408477 190 115 73 255
0.267101 0.095910 0.448477 190 115 73 255
-0.301919 -0.186558 0.448477 177 104 70 255
-0.284884 0.095910 0.448477 190 115 73 255
-0.284884 0.095910 0.408477 190 115 73 255
0.263844 0.000043 -0.419402 190 115 73 255
0.263844 0.095827 -0.419402 190 115 73 255
0.263844 0.095827 0.419402 190 115 73 255
0.263844 0.000043 0.419402 190 115 73 255
-0.277909 0.000043 0.419402 190 115 73 255
-0.277909 0.095827 0.419402 190 115 73 255
-0.277909 0.095827 -0.419402 190 115 73 255
-0.277909 0.000043 -0.419402 190 115 73 255
-0.427576 0.091764 -0.500000 170 103 65 255
-0.427576 0.126021 -0.500000 170 103 65 255
0.405936 0.126021 -0.500000 170 103 65 255
0.405936 0.091764 -0.500000 170 103 65 255
0.405936 0.126021 0.500000 170 103 65 255
0.405936 0.091764 0.500000 170 103 65 255
-0.427576 0.126021 0.500000 170 103 65 255
-0.427576 0.091764 0.500000 170 103 65 255
0.346854 0.120628 -0.460000 170 103 65 255
0.346854 0.680628 -0.460000 170 103 65 255
0.386854 0.680628 -0.460000 170 103 65 255
0.386854 0.120628 -0.460000 170 103 65 255
0.386854 0.680628 0.460000 170 103 65 255
0.386854 0.120628 0.460000 170 103 65 255
0.346854 0.680628 0.460000 170 103 65 255
0.346854 0.120628 0.460000 170 103 65 255
-0.001436 0.118851 0.491277 145 74 46 255
-0.001436 0.613063 0.491277 145 74 46 255
-0.001436 0.613063 0.451277 145 74 46 255
-0.001436 0.118851 0.451277 145 74 46 255
0.398564 0.758851 0.451277 145 74 46 255
0.398564 0.118851 0.451277 145 74 46 255
0.398564 0.758851 0.491277 145 74 46 255
0.398564 0.118851 0.491277 145 74 46 255
-0.001436 0.118851 -0.451277 145 74 46 255
-0.001436 0.613063 -0.451277 145 74 46 255
-0.001436 0.613063 -0.491277 145 74 46 255
-0.001436 0.118851 -0.491277 146 76 49 255
0.398564 0.758851 -0.491277 145 74 46 255
0.398564 0.118851 -0.491277 145 74 46 255
0.398564 0.758851 -0.451277 145 74 46 255
0.398564 0.118851 -0.451277 145 75 47 255
0.275053 0.476319 -0.290088 168 161 163 255
0.275053 0.536319 -0.290088 168 161 163 255
0.335053 0.536319 -0.290088 168 161 163 255
0.335053 0.476319 -0.290088 168 161 163 255
0.335053 0.536319 -0.170088 168 161 163 255
0.335053 0.476319 -0.170088 168 161 163 255
0.275053 0.536319 -0.170088 168 161 163 255
0.275053 0.476319 -0.170088 168 161 163 255
0.281076 0.322816 -0.253246 189 159 118 255
0.281076 0.482816 -0.253246 189 159 118 255
0.329031 0.482816 -0.253246 189 159 118 255
0.329031 0.322816 -0.253246 190 161 120 255
0.329031 0.482816 -0.205291 189 159 118 255
0.329031 0.322816 -0.205291 190 161 121 255
0.281076 0.482816 -0.205291 189 159 118 255
0.281076 0.322816 -0.205291 189 159 118 255
0.351160 0.446390 -0.285817 190 138 101 255
0.252392 0.446390 -0.285817 190 138 101 255
0.252392 0.475993 -0.285817 190 138 101 255
0.351160 0.475993 -0.285817 190 138 101 255
0.252392 0.475993 -0.256215 190 138 101 255
0.351160 0.475993 -0.256215 190 138 101 255
0.252392 0.446390 -0.256215 190 138 101 255
0.351160 0.446390 -0.256215 190 138 101 255
0.288893 0.230381 0.163812 189 159 118 255
0.288893 0.487328 0.120900 189 159 118 255
0.318893 0.487328 0.120900 189 159 118 255
0.318893 0.230381 0.163812 190 161 120 255
0.318893 0.494238 0.168354 189 159 118 255
0.318893 0.237291 0.211266 190 161 121 255
0.288892 0.494238 0.168354 189 159 118 255
0.288893 0.237291 0.211266 189 159 118 255
0.286037 0.476444 0.108917 168 161 163 255
0.286037 0.529451 0.101198 168 161 163 255
0.321748 0.529451 0.101198 168 161 163 255
0.321748 0.476444 0.108917 168 161 163 255
0.321748 0.581255 0.254706 168 161 163 255
0.321748 0.475988 0.270035 168 161 163 255
0.286037 0.581255 0.254706 168 161 163 255
0.286037 0.475988 0.270035 168 161 163 255
-0.189790 0.171067 -0.387483 189 159 118 255
-0.247767 0.171067 -0.296993 189 159 118 255
-0.188188 0.173671 -0.223215 189 159 118 255
-0.101872 0.173671 -0.357936 190 161 120 255
-0.190554 0.125798 -0.224731 189 159 118 255
-0.104238 0.125798 -0.359452 190 161 121 255
-0.249357 0.138911 -0.298011 189 159 118 255
-0.191380 0.138911 -0.388501 189 159 118 255
-0.114974 0.143662 -0.347606 168 161 163 255
-0.113987 0.163628 -0.346974 168 161 163 255
0.119620 0.146047 -0.156443 168 161 163 255
0.118634 0.126081 -0.157075 168 161 163 255
0.080121 0.146047 -0.094792 168 161 163 255
0.079134 0.126081 -0.095425 168 161 163 255
-0.178723 0.163628 -0.245934 168 161 163 255
-0.179710 0.143662 -0.246566 168 161 163 255
0.351160 0.446390 -0.203085 190 138 101 255
0.252392 0.446390 -0.203085 190 138 101 255
0.252392 0.475993 -0.203085 190 138 101 255
0.351160 0.475993 -0.203085 190 138 101 255
0.252392 0.475993 -0.173482 190 138 101 255
0.351160 0.475993 -0.173482 190 138 101 255
0.252392 0.446390 -0.173482 190 138 101 255
0.351160 0.446390 -0.173482 190 138 101 255
0.351160 0.446390 0.091945 190 138 101 255
0.252392 0.446390 0.091945 190 138 101 255
0.252392 0.475993 0.091945 190 138 101 255
0.351160 0.475993 0.091945 190 138 101 255
0.252392 0.475993 0.121547 190 138 101 255
0.351160 0.475993 0.121547 190 138 101 255
0.252392 0.446390 0.121547 190 138 101 255
0.351160 0.446390 0.121547 190 138 101 255
0.351160 0.446390 0.178262 190 138 101 255
0.252392 0.446390 0.178262 190 138 101 255
0.252392 0.475993 0.178262 190 138 101 255
0.351160 0.475993 0.178262 190 138 101 255
0.252392 0.475993 0.207865 190 138 101 255
0.351160 0.475993 0.207865 190 138 101 255
0.252392 0.446390 0.207865 190 138 101 255
0.351160 0.446390 0.207865 190 138 101 255
-0.289687 0.125997 0.051647 216 161 115 255
-0.289687 0.194042 0.051647 216 161 115 255
0.105796 0.194042 0.111592 216 161 115 255
0.105796 0.125997 0.111592 217 163 118 255
0.095598 0.194042 0.178869 217 162 117 255
0.095598 0.125997 0.178869 216 161 115 255
-0.299885 0.194042 0.118924 216 161 115 255
-0.299885 0.125997 0.118924 216 161 115 255
-0.217275 0.124966 0.397480 216 161 115 255
-0.222233 0.190870 0.413674 216 161 115 255
-0.104253 0.290417 0.044660 216 161 115 255
-0.099295 0.224513 0.028467 217 163 118 255
-0.039424 0.290215 0.065333 217 162 117 255
-0.034465 0.224311 0.049139 216 161 115 255
-0.157404 0.190668 0.434346 216 161 115 255
-0.152445 0.124764 0.418153 216 161 115 255
4 0 1 2 3
4 3 2 4 5
4 5 4 6 7
4 7 6 1 0
4 4 2 1 6
4 8 9 10 11
4 11 10 12 13
4 13 12 14 15
4 15 14 9 8
4 10 9 16 17
4 18 17 19 20
4 9 14 21 16
4 12 10 17 18
4 14 12 18 21
4 21 18 20 22
4 17 16 23 19
4 16 21 22 23
4 24 25 26 27
4 27 26 28 29
4 29 28 30 31
4 31 30 25 24
4 26 25 32 33
4 34 33 35 36
4 25 30 37 32
4 28 26 33 34
4 30 28 34 37
4 37 34 36 38
4 33 32 39 35
4 32 37 38 39
4 40 41 42 43
4 44 45 46 47
4 40 43 44 47
4 48 49 50 51
4 51 50 52 53
4 53 52 54 55
4 55 54 49 48
4 51 53 55 48
4 52 50 49 54
4 56 57 58 59
4 59 58 60 61
4 61 60 62 63
4 63 62 57 56
4 60 58 57 62
4 64 65 66 67
4 67 66 68 69
4 69 68 70 71
4 71 70 65 64
4 68 66 65 70
4 72 73 74 75
4 75 74 76 77
4 77 76 78 79
4 79 78 73 72
4 76 74 73 78
4 80 81 82 83
4 83 82 84 85
4 85 84 86 87
4 87 86 81 80
4 83 85 87 80
4 84 82 81 86
4 88 89 90 91
4 91 90 92 93
4 93 92 94 95
4 95 94 89 88
4 91 93 95 88
4 96 97 98 99
4 99 98 100 101
4 101 100 102 103
4 103 102 97 96
4 100 98 97 102
4 104 105 106 107
4 107 106 108 109
4 109 108 110 111
4 111 110 105 104
4 107 109 111 104
4 112 113 114 115
4 115 114 116 117
4 117 116 118 119
4 119 118 113 112
4 115 117 119 112
4 116 114 113 118
4 120 121 122 123
4 123 122 124 125
4 125 124 126 127
4 127 126 121 120
4 123 125 127 120
4 124 122 121 126
4 128 129 130 131
4 131 130 132 133
4 133 132 134 135
4 131 133 135 128
4 132 130 129 134
4 136 137 138 139
4 139 138 140 141
4 141 140 142 143
4 143 142 137 136
4 140 138 137 142
4 144 145 146 147
4 147 146 148 149
4 149 148 150 151
4 151 150 145 144
4 148 146 145 150
4 152 153 154 155
4 155 154 156 157
4 157 156 158 159
4 159 158 153 152
4 156 154 153 158
4 160 161 162 163
4 163 162 164 165
4 165 164 166 167
4 167 166 161 160
4 164 162 161 166
4 168 169 170 171
4 171 170 172 173
4 173 172 174 175
4 175 174 169 168
4 171 173 175 168
4 172 170 169 174
