ply
format ascii 1.0
comment Created by Blender 2.78 (sub 0) - www.blender.org, source file: 'writerdesk.blend'
element vertex 58
property float x
property float y
property float z
property uchar red
property uchar green
property uchar blue
element face 68
property list uchar uint vertex_indices
end_header
0.399993 0.050000 -0.500317 110 72 41
-0.400007 0.050000 0.499683 110 72 41
-0.400007 0.050000 -0.500317 110 72 41
0.399993 0.175534 -0.500317 110 72 41
-0.205301 0.500000 0.499683 110 72 41
0.399993 0.175534 0.499683 110 72 41
0.399993 0.050000 0.499683 110 72 41
-0.400007 0.500000 0.499683 110 72 41
-0.400007 0.500000 -0.500317 110 72 41
-0.215071 0.500000 -0.500317 110 72 41
-0.288140 0.098266 0.385034 110 72 41
-0.288140 -0.500000 0.485034 110 72 41
-0.288140 -0.500000 0.385034 110 72 41
-0.288140 0.098266 0.485034 110 72 41
-0.388140 -0.500000 0.485034 110 72 41
-0.388140 0.098266 0.485034 110 72 41
-0.388140 -0.500000 0.385034 110 72 41
-0.388140 0.098266 0.385034 110 72 41
0.385522 0.098266 0.385034 110 72 41
0.385522 -0.500000 0.485034 110 72 41
0.385522 -0.500000 0.385034 110 72 41
0.385522 0.098266 0.485034 110 72 41
0.285522 -0.500000 0.485034 110 72 41
0.285522 0.098266 0.385034 110 72 41
0.285522 -0.500000 0.385034 110 72 41
-0.288140 0.098266 -0.485093 110 72 41
-0.288140 -0.500000 -0.385093 110 72 41
-0.288140 -0.500000 -0.485093 110 72 41
-0.288140 0.098266 -0.385093 110 72 41
-0.388140 -0.500000 -0.385093 110 72 41
-0.388140 0.098266 -0.385093 110 72 41
-0.388140 -0.500000 -0.485093 110 72 41
-0.388140 0.098266 -0.485093 110 72 41
0.385522 0.098266 -0.485093 110 72 41
0.385522 -0.500000 -0.385093 110 72 41
0.385522 -0.500000 -0.485093 110 72 41
0.385522 0.098266 -0.385093 110 72 41
0.285522 -0.500000 -0.385093 110 72 41
0.285522 0.098266 -0.385093 110 72 41
0.285522 -0.500000 -0.485093 110 72 41
0.285522 0.098266 -0.485093 110 72 41
0.355750 0.243957 -0.400317 99 65 37
0.338481 0.254046 0.399683 99 65 37
0.355750 0.243957 0.399683 99 65 37
0.332185 0.203621 0.399683 99 65 37
0.332184 0.203621 -0.400317 99 65 37
0.314916 0.213710 0.399683 99 65 37
0.314916 0.213710 -0.400317 99 65 37
0.338481 0.254046 -0.400317 99 65 37
-0.034015 0.420256 -0.150317 204 192 173
0.318630 0.231467 0.149683 204 192 173
0.318631 0.231467 -0.150317 204 192 173
0.308761 0.213031 0.149683 204 192 173
0.308761 0.213031 -0.150317 204 192 173
-0.043884 0.401820 0.149683 204 192 173
-0.034015 0.420256 0.149683 204 192 173
-0.043884 0.401820 -0.150317 204 192 173
0.285522 0.098266 0.485034 110 72 41
3 0 1 2
3 3 4 5
3 3 6 0
3 4 7 1
3 1 8 2
3 2 8 9
3 9 7 4
3 10 11 12
3 13 14 11
3 15 16 14
3 12 17 10
3 18 19 20
3 21 22 19
3 22 23 24
3 18 24 23
3 25 26 27
3 28 29 26
3 30 31 29
3 25 31 32
3 33 34 35
3 36 37 34
3 38 39 37
3 35 40 33
3 41 42 43
3 41 44 45
3 44 42 46
3 42 47 46
3 45 48 41
3 49 50 51
3 51 52 53
3 50 54 52
3 55 56 54
3 53 49 51
3 0 6 1
3 3 9 4
3 3 5 6
3 1 6 5
3 5 4 1
3 1 7 8
3 9 3 2
3 0 2 3
3 9 8 7
3 10 13 11
3 13 15 14
3 15 17 16
3 12 16 17
3 18 21 19
3 21 57 22
3 22 57 23
3 18 20 24
3 25 28 26
3 28 30 29
3 30 32 31
3 25 27 31
3 33 36 34
3 36 38 37
3 38 40 39
3 35 39 40
3 41 48 42
3 41 43 44
3 44 43 42
3 42 48 47
3 45 47 48
3 49 55 50
3 51 50 52
3 50 55 54
3 55 49 56
3 53 56 49
