ply
format ascii 1.0
comment Created by Blender 3.4.1 - www.blender.org
element vertex 24
property float x
property float y
property float z
property uchar red
property uchar green
property uchar blue
property uchar alpha
element face 21
property list uchar uint vertex_indices
end_header
-0.100000 0.402495 0.100000 199 147 99 255
0.100000 0.402495 0.100000 199 147 99 255
0.133672 0.404857 0.133672 171 117 81 255
-0.133672 0.404857 0.133672 170 116 81 255
-0.100000 -0.500000 -0.100000 182 133 88 255
-0.100000 0.402495 -0.100000 199 147 99 255
0.100000 0.402495 -0.100000 199 147 99 255
0.100000 -0.500000 -0.100000 182 133 88 255
0.100000 -0.500000 0.100000 182 133 88 255
-0.100000 -0.500000 0.100000 182 133 88 255
0.133672 0.404857 -0.133672 170 116 81 255
0.133672 0.446859 -0.133672 170 116 81 255
0.133672 0.446859 0.133672 170 116 81 255
-0.133672 0.404857 -0.133672 170 116 81 255
-0.133672 0.446859 0.133672 170 116 81 255
0.175385 0.452737 0.175385 160 96 67 255
-0.175385 0.452737 0.175385 160 96 67 255
-0.133672 0.446859 -0.133672 170 116 81 255
0.175385 0.452737 -0.175385 160 96 67 255
0.175385 0.499994 -0.175385 160 96 67 255
0.175385 0.499994 0.175385 160 96 67 255
-0.175385 0.452737 -0.175385 160 97 67 255
-0.175385 0.499994 0.175385 161 97 68 255
-0.175385 0.499994 -0.175385 162 98 68 255
4 0 1 2 3
4 4 5 6 7
4 7 6 1 8
4 9 0 5 4
4 8 1 0 9
4 2 10 11 12
4 6 5 13 10
4 1 6 10 2
4 5 0 3 13
4 14 12 15 16
4 10 13 17 11
4 3 2 12 14
4 13 3 14 17
4 15 18 19 20
4 17 14 16 21
4 12 11 18 15
4 11 17 21 18
4 22 20 19 23
4 18 21 23 19
4 16 15 20 22
4 21 16 22 23
