ply
format ascii 1.0
comment Created by Blender 3.4.1 - www.blender.org
element vertex 72
property float x
property float y
property float z
property uchar red
property uchar green
property uchar blue
property uchar alpha
element face 49
property list uchar uint vertex_indices
end_header
0.030000 -0.309583 0.060008 199 147 99 255
0.030000 -0.209583 0.060008 199 147 99 255
0.030000 -0.209583 0.500008 199 147 99 255
0.030000 -0.309583 0.500008 199 147 99 255
-0.030000 -0.309583 0.500008 199 147 99 255
-0.030000 -0.209583 0.500008 199 147 99 255
-0.030000 -0.209583 0.060008 199 147 99 255
-0.030000 -0.309583 0.060008 199 147 99 255
0.030000 0.151250 0.060008 182 133 88 255
0.030000 0.251250 0.060008 182 133 88 255
0.030000 0.251250 0.500008 182 133 88 255
0.030000 0.151250 0.500008 182 133 88 255
-0.030000 0.151250 0.500008 182 133 88 255
-0.030000 0.251250 0.500008 182 133 88 255
-0.030000 0.251250 0.060008 182 133 88 255
-0.030000 0.151250 0.060008 182 133 88 255
0.020000 -0.247182 0.284130 199 147 99 255
0.020000 -0.247182 0.164130 200 148 100 255
0.020000 0.192818 0.164130 194 142 96 255
0.020000 0.192818 0.284130 189 139 92 255
-0.020000 0.192818 0.284130 182 133 88 255
-0.020000 0.192818 0.164130 182 133 88 255
-0.020000 -0.247182 0.164130 199 148 100 255
-0.020000 -0.247182 0.284130 200 149 101 255
0.020000 -0.247182 0.465169 200 148 100 255
0.020000 -0.247182 0.345169 199 147 99 255
0.020000 0.192818 0.345169 188 137 92 255
0.020000 0.192818 0.465169 185 136 91 255
-0.020000 0.192818 0.465169 182 133 88 255
-0.020000 0.192818 0.345169 182 133 88 255
-0.020000 -0.247182 0.345169 200 148 100 255
-0.020000 -0.247182 0.465169 201 149 104 255
-0.100000 0.402495 0.100000 199 147 99 255
0.100000 0.402495 0.100000 199 147 99 255
0.133672 0.404857 0.133672 171 117 81 255
-0.133672 0.404857 0.133672 170 116 81 255
-0.100000 -0.397700 -0.100000 183 134 89 255
-0.100000 0.402495 -0.100000 199 147 99 255
0.100000 0.402495 -0.100000 199 147 99 255
0.100000 -0.397700 -0.100000 182 133 88 255
0.100000 -0.397700 0.100000 182 133 88 255
0.132608 -0.429139 0.132608 158 112 79 255
0.132608 -0.429139 -0.132608 158 112 79 255
-0.100000 -0.397700 0.100000 182 133 88 255
0.133672 0.404857 -0.133672 170 116 81 255
0.133672 0.446859 -0.133672 170 116 81 255
0.133672 0.446859 0.133672 170 116 81 255
-0.133672 0.404857 -0.133672 170 116 81 255
-0.133672 0.446859 0.133672 170 116 81 255
0.175385 0.452737 0.175385 160 96 67 255
-0.175385 0.452737 0.175385 160 96 67 255
-0.133672 0.446859 -0.133672 170 116 81 255
0.175385 0.452737 -0.175385 160 96 67 255
0.175385 0.499994 -0.175385 160 96 67 255
0.175385 0.499994 0.175385 160 96 67 255
-0.175385 0.452737 -0.175385 160 97 67 255
-0.175385 0.499994 0.175385 161 97 68 255
-0.175385 0.499994 -0.175385 162 98 68 255
-0.132608 -0.429139 -0.132608 158 112 79 255
0.132608 -0.500027 -0.132608 161 114 80 255
-0.132608 -0.500027 -0.132608 158 112 79 255
-0.132608 -0.429139 0.132608 159 113 79 255
0.132608 -0.500027 0.132608 158 112 79 255
-0.132608 -0.500027 0.132608 159 113 79 255
0.050000 0.249647 0.060008 160 96 67 255
0.050000 0.309648 0.060008 160 96 67 255
0.050000 0.309648 0.500008 160 96 67 255
0.050000 0.249647 0.500008 160 96 67 255
-0.050000 0.249647 0.500008 160 96 67 255
-0.050000 0.309648 0.500008 160 96 67 255
-0.050000 0.309648 0.060008 160 96 67 255
-0.050000 0.249647 0.060008 160 96 67 255
4 0 1 2 3
4 4 5 6 7
4 3 4 7 0
4 5 2 1 6
4 8 9 10 11
4 12 13 14 15
4 11 12 15 8
4 16 17 18 19
4 20 21 22 23
4 19 20 23 16
4 21 18 17 22
4 24 25 26 27
4 28 29 30 31
4 27 28 31 24
4 29 26 25 30
4 32 33 34 35
4 36 37 38 39
4 39 38 33 40
4 39 40 41 42
4 43 32 37 36
4 40 33 32 43
4 34 44 45 46
4 38 37 47 44
4 33 38 44 34
4 37 32 35 47
4 48 46 49 50
4 44 47 51 45
4 35 34 46 48
4 47 35 48 51
4 49 52 53 54
4 51 48 50 55
4 46 45 52 49
4 45 51 55 52
4 56 54 53 57
4 52 55 57 53
4 50 49 54 56
4 55 50 56 57
4 58 42 59 60
4 43 36 58 61
4 40 43 61 41
4 36 39 42 58
4 62 63 60 59
4 42 41 62 59
4 61 58 60 63
4 41 61 63 62
4 64 65 66 67
4 68 69 70 71
4 67 68 71 64
4 69 66 65 70
