ply
format ascii 1.0
comment Created by Blender 3.4.1 - www.blender.org
element vertex 32
property float x
property float y
property float z
property uchar red
property uchar green
property uchar blue
property uchar alpha
element face 30
property list uchar uint vertex_indices
end_header
-0.100000 0.402495 0.100000 199 147 99 255
0.100000 0.402495 0.100000 199 147 99 255
0.133672 0.404857 0.133672 171 117 81 255
-0.133672 0.404857 0.133672 170 116 81 255
-0.100000 -0.397700 -0.100000 183 134 89 255
-0.100000 0.402495 -0.100000 199 147 99 255
0.100000 0.402495 -0.100000 199 147 99 255
0.100000 -0.397700 -0.100000 182 133 88 255
0.100000 -0.397700 0.100000 182 133 88 255
0.132608 -0.429139 0.132608 158 112 79 255
0.132608 -0.429139 -0.132608 158 112 79 255
-0.100000 -0.397700 0.100000 182 133 88 255
0.133672 0.404857 -0.133672 170 116 81 255
0.133672 0.446859 -0.133672 170 116 81 255
0.133672 0.446859 0.133672 170 116 81 255
-0.133672 0.404857 -0.133672 170 116 81 255
-0.133672 0.446859 0.133672 170 116 81 255
0.175385 0.452737 0.175385 160 96 67 255
-0.175385 0.452737 0.175385 160 96 67 255
-0.133672 0.446859 -0.133672 170 116 81 255
0.175385 0.452737 -0.175385 160 96 67 255
0.175385 0.499994 -0.175385 160 96 67 255
0.175385 0.499994 0.175385 160 96 67 255
-0.175385 0.452737 -0.175385 160 97 67 255
-0.175385 0.499994 0.175385 161 97 68 255
-0.175385 0.499994 -0.175385 162 98 68 255
-0.132608 -0.429139 -0.132608 158 112 79 255
0.132608 -0.500027 -0.132608 161 114 80 255
-0.132608 -0.500027 -0.132608 158 112 79 255
-0.132608 -0.429139 0.132608 159 113 79 255
0.132608 -0.500027 0.132608 158 112 79 255
-0.132608 -0.500027 0.132608 159 113 79 255
4 0 1 2 3
4 4 5 6 7
4 7 6 1 8
4 7 8 9 10
4 11 0 5 4
4 8 1 0 11
4 2 12 13 14
4 6 5 15 12
4 1 6 12 2
4 5 0 3 15
4 16 14 17 18
4 12 15 19 13
4 3 2 14 16
4 15 3 16 19
4 17 20 21 22
4 19 16 18 23
4 14 13 20 17
4 13 19 23 20
4 24 22 21 25
4 20 23 25 21
4 18 17 22 24
4 23 18 24 25
4 26 10 27 28
4 11 4 26 29
4 8 11 29 9
4 4 7 10 26
4 30 31 28 27
4 10 9 30 27
4 29 26 28 31
4 9 29 31 30
