ply
format ascii 1.0
comment Created by Blender 3.4.1 - www.blender.org
element vertex 8
property float x
property float y
property float z
property uchar red
property uchar green
property uchar blue
property uchar alpha
element face 4
property list uchar uint vertex_indices
end_header
-0.100000 -0.500000 -0.100000 183 133 88 255
-0.100000 0.500005 -0.100000 184 134 89 255
0.100000 0.500005 -0.100000 184 134 89 255
0.100000 -0.500000 -0.100000 183 133 88 255
0.100000 0.500005 0.100000 183 133 88 255
0.100000 -0.500000 0.100000 183 133 88 255
-0.100000 -0.500000 0.100000 183 133 88 255
-0.100000 0.500005 0.100000 183 133 88 255
4 0 1 2 3
4 3 2 4 5
4 6 7 1 0
4 5 4 7 6
