ply
format ascii 1.0
comment Created by Blender 3.4.1 - www.blender.org
element vertex 16
property float x
property float y
property float z
property uchar red
property uchar green
property uchar blue
property uchar alpha
element face 13
property list uchar uint vertex_indices
end_header
-0.100000 -0.397700 -0.100000 183 134 89 255
-0.100000 0.500000 -0.100000 182 133 88 255
0.100000 0.500000 -0.100000 182 133 88 255
0.100000 -0.397700 -0.100000 182 133 88 255
0.100000 0.500000 0.100000 182 133 88 255
0.100000 -0.397700 0.100000 182 133 88 255
0.132608 -0.429139 0.132608 158 112 79 255
0.132608 -0.429139 -0.132608 158 112 79 255
-0.100000 -0.397700 0.100000 182 133 88 255
-0.100000 0.500000 0.100000 182 133 88 255
-0.132608 -0.429139 -0.132608 158 112 79 255
0.132608 -0.500027 -0.132608 161 114 80 255
-0.132608 -0.500027 -0.132608 158 112 79 255
-0.132608 -0.429139 0.132608 159 113 79 255
0.132608 -0.500027 0.132608 158 112 79 255
-0.132608 -0.500027 0.132608 159 113 79 255
4 0 1 2 3
4 3 2 4 5
4 3 5 6 7
4 8 9 1 0
4 5 4 9 8
4 10 7 11 12
4 8 0 10 13
4 5 8 13 6
4 0 3 7 10
4 14 15 12 11
4 7 6 14 11
4 13 10 12 15
4 6 13 15 14
