ply
format ascii 1.0
comment Created by Blender 3.4.1 - www.blender.org
element vertex 192
property float x
property float y
property float z
property uchar red
property uchar green
property uchar blue
property uchar alpha
element face 106
property list uchar uint vertex_indices
end_header
-0.100000 0.402495 0.100000 199 147 99 255
0.100000 0.402495 0.100000 199 147 99 255
0.133672 0.404857 0.133672 171 117 81 255
-0.133672 0.404857 0.133672 170 116 81 255
-0.100000 -0.397700 -0.100000 183 134 89 255
-0.100000 0.402495 -0.100000 199 147 99 255
0.100000 0.402495 -0.100000 199 147 99 255
0.100000 -0.397700 -0.100000 182 133 88 255
0.100000 -0.397700 0.100000 182 133 88 255
0.132608 -0.429139 0.132608 158 112 79 255
0.132608 -0.429139 -0.132608 158 112 79 255
-0.100000 -0.397700 0.100000 182 133 88 255
0.133672 0.404857 -0.133672 170 116 81 255
0.133672 0.446859 -0.133672 170 116 81 255
0.133672 0.446859 0.133672 170 116 81 255
-0.133672 0.404857 -0.133672 170 116 81 255
-0.133672 0.446859 0.133672 170 116 81 255
0.175385 0.452737 0.175385 160 96 67 255
-0.175385 0.452737 0.175385 160 96 67 255
-0.133672 0.446859 -0.133672 170 116 81 255
0.175385 0.452737 -0.175385 160 96 67 255
0.175385 0.499994 -0.175385 160 96 67 255
0.175385 0.499994 0.175385 160 96 67 255
-0.175385 0.452737 -0.175385 160 97 67 255
-0.175385 0.499994 0.175385 161 97 68 255
-0.175385 0.499994 -0.175385 162 98 68 255
-0.132608 -0.429139 -0.132608 158 112 79 255
0.132608 -0.500027 -0.132608 161 114 80 255
-0.132608 -0.500027 -0.132608 158 112 79 255
-0.132608 -0.429139 0.132608 159 113 79 255
0.132608 -0.500027 0.132608 158 112 79 255
-0.132608 -0.500027 0.132608 159 113 79 255
0.030000 -0.309583 0.060008 199 147 99 255
0.030000 -0.209583 0.060008 199 147 99 255
0.030000 -0.209583 0.500008 199 147 99 255
0.030000 -0.309583 0.500008 199 147 99 255
-0.030000 -0.309583 0.500008 199 147 99 255
-0.030000 -0.209583 0.500008 199 147 99 255
-0.030000 -0.209583 0.060008 199 147 99 255
-0.030000 -0.309583 0.060008 199 147 99 255
0.030000 0.151250 0.060008 182 133 88 255
0.030000 0.251250 0.060008 182 133 88 255
0.030000 0.251250 0.500008 182 133 88 255
0.030000 0.151250 0.500008 182 133 88 255
-0.030000 0.151250 0.500008 182 133 88 255
-0.030000 0.251250 0.500008 182 133 88 255
-0.030000 0.251250 0.060008 182 133 88 255
-0.030000 0.151250 0.060008 182 133 88 255
0.020000 -0.247182 0.284130 199 147 99 255
0.020000 -0.247182 0.164130 200 148 100 255
0.020000 0.192818 0.164130 194 142 96 255
0.020000 0.192818 0.284130 189 139 92 255
-0.020000 0.192818 0.284130 182 133 88 255
-0.020000 0.192818 0.164130 182 133 88 255
-0.020000 -0.247182 0.164130 199 148 100 255
-0.020000 -0.247182 0.284130 200 149 101 255
0.020000 -0.247182 0.465170 200 148 100 255
0.020000 -0.247182 0.345170 199 147 99 255
0.020000 0.192818 0.345170 188 137 92 255
0.020000 0.192818 0.465170 185 136 91 255
-0.020000 0.192818 0.465170 182 133 88 255
-0.020000 0.192818 0.345170 182 133 88 255
-0.020000 -0.247182 0.345170 200 148 100 255
-0.020000 -0.247182 0.465170 201 149 104 255
0.050000 0.249647 0.060008 160 96 67 255
0.050000 0.309648 0.060008 160 96 67 255
0.050000 0.309648 0.500008 160 96 67 255
0.050000 0.249647 0.500008 160 96 67 255
-0.050000 0.249647 0.500008 160 96 67 255
-0.050000 0.309648 0.500008 160 96 67 255
-0.050000 0.309648 0.060008 160 96 67 255
-0.050000 0.249647 0.060008 160 96 67 255
-0.030000 -0.309583 -0.060008 199 147 99 255
-0.030000 -0.209583 -0.060008 199 147 99 255
-0.030000 -0.209583 -0.500008 199 147 99 255
-0.030000 -0.309583 -0.500008 199 147 99 255
0.030000 -0.309583 -0.500008 199 147 99 255
0.030000 -0.209583 -0.500008 199 147 99 255
0.030000 -0.209583 -0.060008 199 147 99 255
0.030000 -0.309583 -0.060008 199 147 99 255
-0.030000 0.151250 -0.060008 182 133 88 255
-0.030000 0.251250 -0.060008 182 133 88 255
-0.030000 0.251250 -0.500008 182 133 88 255
-0.030000 0.151250 -0.500008 182 133 88 255
0.030000 0.151250 -0.500008 182 133 88 255
0.030000 0.251250 -0.500008 182 133 88 255
0.030000 0.251250 -0.060008 182 133 88 255
0.030000 0.151250 -0.060008 182 133 88 255
-0.020000 -0.247182 -0.284130 199 147 99 255
-0.020000 -0.247182 -0.164130 200 148 100 255
-0.020000 0.192818 -0.164130 194 142 96 255
-0.020000 0.192818 -0.284130 189 139 92 255
0.020000 0.192818 -0.284130 182 133 88 255
0.020000 0.192818 -0.164130 182 133 88 255
0.020000 -0.247182 -0.164130 199 148 100 255
0.020000 -0.247182 -0.284130 200 149 101 255
-0.020000 -0.247182 -0.465170 200 148 100 255
-0.020000 -0.247182 -0.345170 199 147 99 255
-0.020000 0.192818 -0.345170 188 137 92 255
-0.020000 0.192818 -0.465170 185 136 91 255
0.020000 0.192818 -0.465170 182 133 88 255
0.020000 0.192818 -0.345170 182 133 88 255
0.020000 -0.247182 -0.345170 200 148 100 255
0.020000 -0.247182 -0.465170 201 149 104 255
-0.050000 0.249647 -0.060008 160 96 67 255
-0.050000 0.309648 -0.060008 160 96 67 255
-0.050000 0.309648 -0.500008 160 96 67 255
-0.050000 0.249647 -0.500008 160 96 67 255
0.050000 0.249647 -0.500008 160 96 67 255
0.050000 0.309648 -0.500008 160 96 67 255
0.050000 0.309648 -0.060008 160 96 67 255
0.050000 0.249647 -0.060008 160 96 67 255
-0.060008 -0.309583 0.030000 199 147 99 255
-0.060008 -0.209583 0.030000 199 147 99 255
-0.500008 -0.209583 0.030000 199 147 99 255
-0.500008 -0.309583 0.030000 199 147 99 255
-0.500008 -0.309583 -0.030000 199 147 99 255
-0.500008 -0.209583 -0.030000 199 147 99 255
-0.060008 -0.209583 -0.030000 199 147 99 255
-0.060008 -0.309583 -0.030000 199 147 99 255
-0.060008 0.151250 0.030000 182 133 88 255
-0.060008 0.251250 0.030000 182 133 88 255
-0.500008 0.251250 0.030000 182 133 88 255
-0.500008 0.151250 0.030000 182 133 88 255
-0.500008 0.151250 -0.030000 182 133 88 255
-0.500008 0.251250 -0.030000 182 133 88 255
-0.060008 0.251250 -0.030000 182 133 88 255
-0.060008 0.151250 -0.030000 182 133 88 255
-0.284130 -0.247182 0.020000 199 147 99 255
-0.164130 -0.247182 0.020000 200 148 100 255
-0.164130 0.192818 0.020000 194 142 96 255
-0.284130 0.192818 0.020000 189 139 92 255
-0.284130 0.192818 -0.020000 182 133 88 255
-0.164130 0.192818 -0.020000 182 133 88 255
-0.164130 -0.247182 -0.020000 199 148 100 255
-0.284130 -0.247182 -0.020000 200 149 101 255
-0.465170 -0.247182 0.020000 200 148 100 255
-0.345170 -0.247182 0.020000 199 147 99 255
-0.345170 0.192818 0.020000 188 137 92 255
-0.465170 0.192818 0.020000 185 136 91 255
-0.465170 0.192818 -0.020000 182 133 88 255
-0.345170 0.192818 -0.020000 182 133 88 255
-0.345170 -0.247182 -0.020000 200 148 100 255
-0.465170 -0.247182 -0.020000 201 149 104 255
-0.060008 0.249648 0.050000 160 96 67 255
-0.060008 0.309648 0.050000 160 96 67 255
-0.500008 0.309648 0.050000 160 96 67 255
-0.500008 0.249648 0.050000 160 96 67 255
-0.500008 0.249648 -0.050000 160 96 67 255
-0.500008 0.309648 -0.050000 160 96 67 255
-0.060008 0.309648 -0.050000 160 96 67 255
-0.060008 0.249648 -0.050000 160 96 67 255
0.060008 -0.309583 -0.030000 199 147 99 255
0.060008 -0.209583 -0.030000 199 147 99 255
0.500008 -0.209583 -0.030000 199 147 99 255
0.500008 -0.309583 -0.030000 199 147 99 255
0.500008 -0.309583 0.030000 199 147 99 255
0.500008 -0.209583 0.030000 199 147 99 255
0.060008 -0.209583 0.030000 199 147 99 255
0.060008 -0.309583 0.030000 199 147 99 255
0.060008 0.151250 -0.030000 182 133 88 255
0.060008 0.251250 -0.030000 182 133 88 255
0.500008 0.251250 -0.030000 182 133 88 255
0.500008 0.151250 -0.030000 182 133 88 255
0.500008 0.151250 0.030000 182 133 88 255
0.500008 0.251250 0.030000 182 133 88 255
0.060008 0.251250 0.030000 182 133 88 255
0.060008 0.151250 0.030000 182 133 88 255
0.284130 -0.247182 -0.020000 199 147 99 255
0.164130 -0.247182 -0.020000 200 148 100 255
0.164130 0.192818 -0.020000 194 142 96 255
0.284130 0.192818 -0.020000 189 139 92 255
0.284130 0.192818 0.020000 182 133 88 255
0.164130 0.192818 0.020000 182 133 88 255
0.164130 -0.247182 0.020000 199 148 100 255
0.284130 -0.247182 0.020000 200 149 101 255
0.465170 -0.247182 -0.020000 200 148 100 255
0.345170 -0.247182 -0.020000 199 147 99 255
0.345170 0.192818 -0.020000 188 137 92 255
0.465170 0.192818 -0.020000 185 136 91 255
0.465170 0.192818 0.020000 182 133 88 255
0.345170 0.192818 0.020000 182 133 88 255
0.345170 -0.247182 0.020000 200 148 100 255
0.465170 -0.247182 0.020000 201 149 104 255
0.060008 0.249648 -0.050000 160 96 67 255
0.060008 0.309648 -0.050000 160 96 67 255
0.500008 0.309648 -0.050000 160 96 67 255
0.500008 0.249648 -0.050000 160 96 67 255
0.500008 0.249648 0.050000 160 96 67 255
0.500008 0.309648 0.050000 160 96 67 255
0.060008 0.309648 0.050000 160 96 67 255
0.060008 0.249648 0.050000 160 96 67 255
4 0 1 2 3
4 4 5 6 7
4 7 6 1 8
4 7 8 9 10
4 11 0 5 4
4 8 1 0 11
4 2 12 13 14
4 6 5 15 12
4 1 6 12 2
4 5 0 3 15
4 16 14 17 18
4 12 15 19 13
4 3 2 14 16
4 15 3 16 19
4 17 20 21 22
4 19 16 18 23
4 14 13 20 17
4 13 19 23 20
4 24 22 21 25
4 20 23 25 21
4 18 17 22 24
4 23 18 24 25
4 26 10 27 28
4 11 4 26 29
4 8 11 29 9
4 4 7 10 26
4 30 31 28 27
4 10 9 30 27
4 29 26 28 31
4 9 29 31 30
4 32 33 34 35
4 36 37 38 39
4 35 36 39 32
4 37 34 33 38
4 40 41 42 43
4 44 45 46 47
4 43 44 47 40
4 48 49 50 51
4 52 53 54 55
4 51 52 55 48
4 53 50 49 54
4 56 57 58 59
4 60 61 62 63
4 59 60 63 56
4 61 58 57 62
4 64 65 66 67
4 68 69 70 71
4 67 68 71 64
4 69 66 65 70
4 72 73 74 75
4 76 77 78 79
4 75 76 79 72
4 77 74 73 78
4 80 81 82 83
4 84 85 86 87
4 83 84 87 80
4 88 89 90 91
4 92 93 94 95
4 91 92 95 88
4 93 90 89 94
4 96 97 98 99
4 100 101 102 103
4 99 100 103 96
4 101 98 97 102
4 104 105 106 107
4 108 109 110 111
4 107 108 111 104
4 109 106 105 110
4 112 113 114 115
4 116 117 118 119
4 115 116 119 112
4 117 114 113 118
4 120 121 122 123
4 124 125 126 127
4 123 124 127 120
4 128 129 130 131
4 132 133 134 135
4 131 132 135 128
4 133 130 129 134
4 136 137 138 139
4 140 141 142 143
4 139 140 143 136
4 141 138 137 142
4 144 145 146 147
4 148 149 150 151
4 147 148 151 144
4 149 146 145 150
4 152 153 154 155
4 156 157 158 159
4 155 156 159 152
4 157 154 153 158
4 160 161 162 163
4 164 165 166 167
4 163 164 167 160
4 168 169 170 171
4 172 173 174 175
4 171 172 175 168
4 173 170 169 174
4 176 177 178 179
4 180 181 182 183
4 179 180 183 176
4 181 178 177 182
4 184 185 186 187
4 188 189 190 191
4 187 188 191 184
4 189 186 185 190
