ply
format ascii 1.0
comment Created by Blender 3.4.1 - www.blender.org
element vertex 100
property float x
property float y
property float z
property uchar red
property uchar green
property uchar blue
property uchar alpha
element face 85
property list uchar uint vertex_indices
end_header
-0.283069 1.500010 -0.499939 182 176 163 255
-0.283069 1.500010 -0.399939 182 176 163 255
-0.283069 1.405647 -0.399939 182 176 163 255
-0.383069 1.405938 -0.399939 182 176 163 255
-0.383069 1.500010 -0.499939 182 176 163 255
-0.383069 -0.499989 -0.499939 182 176 163 255
-0.283069 1.405599 0.400447 182 176 163 255
-0.283069 1.500010 0.500445 183 177 164 255
-0.283069 -0.499989 0.500445 182 176 163 255
-0.383069 1.500010 0.500445 182 176 163 255
-0.383069 1.500010 0.400447 182 176 163 255
-0.383069 1.406056 0.400447 182 176 163 255
-0.283069 -0.499989 0.400445 185 179 167 255
-0.283069 1.500010 0.400447 182 176 163 255
-0.284611 -0.183525 -0.379060 105 86 96 255
-0.273713 -0.183525 -0.485810 105 86 96 255
-0.273713 -0.076220 -0.485810 105 86 96 255
-0.284611 -0.076220 -0.379060 105 86 96 255
-0.391361 -0.183525 -0.389959 105 86 96 255
-0.391361 -0.076220 -0.389959 105 86 96 255
-0.380462 -0.183525 -0.496709 105 86 96 255
-0.380462 -0.076220 -0.496709 105 86 96 255
0.216246 -0.169756 -0.421946 105 86 96 255
-0.281169 -0.169756 -0.472730 105 86 96 255
-0.281169 -0.089990 -0.472730 105 86 96 255
0.216246 -0.089990 -0.421946 105 86 96 255
-0.383069 -0.499989 0.500445 182 176 163 255
-0.383069 -0.499989 0.400445 182 176 163 255
-0.383069 1.500010 -0.399939 182 176 163 255
-0.283069 -0.499989 -0.499939 184 178 166 255
-0.283069 -0.499989 -0.399939 183 177 164 255
-0.383069 -0.499989 -0.399939 182 176 163 255
-0.289270 -0.089990 -0.393377 105 86 96 255
0.208144 -0.089990 -0.342592 105 86 96 255
-0.273713 1.032628 -0.485810 105 86 96 255
-0.380462 1.032628 -0.496709 105 86 96 255
-0.380462 1.139933 -0.496709 105 86 96 255
-0.273713 1.139933 -0.485810 105 86 96 255
-0.284611 1.032628 -0.379060 105 86 96 255
-0.284611 1.139933 -0.379060 105 86 96 255
-0.391361 1.032628 -0.389959 105 86 96 255
-0.391361 1.139933 -0.389959 105 86 96 255
0.216246 1.046397 -0.421946 105 86 96 255
-0.281169 1.046397 -0.472730 105 86 96 255
-0.281169 1.126163 -0.472730 105 86 96 255
0.216246 1.126163 -0.421946 105 86 96 255
0.208144 1.046397 -0.342592 105 86 96 255
0.208144 1.126163 -0.342592 105 86 96 255
-0.289270 1.046397 -0.393377 105 86 96 255
-0.289270 1.126163 -0.393377 105 86 96 255
-0.273713 0.448201 -0.485810 105 86 96 255
-0.380462 0.448201 -0.496709 105 86 96 255
-0.380462 0.555506 -0.496709 103 85 95 255
-0.273713 0.555506 -0.485810 105 86 96 255
-0.284611 0.448201 -0.379060 105 86 96 255
-0.284611 0.555506 -0.379060 105 86 96 255
-0.391361 0.448201 -0.389959 104 85 95 255
-0.391361 0.555506 -0.389959 104 85 95 255
0.216246 0.461970 -0.421946 105 86 96 255
-0.281169 0.461970 -0.472730 105 86 96 255
-0.281169 0.541737 -0.472730 105 86 96 255
0.216246 0.541737 -0.421946 105 86 96 255
0.208144 0.461970 -0.342592 97 78 88 255
0.208144 0.541737 -0.342592 104 85 95 255
-0.289270 0.461970 -0.393377 105 86 96 255
-0.289270 0.541737 -0.393377 105 86 96 255
0.503510 -0.495335 -0.381565 199 111 77 255
-0.292353 -0.495335 -0.462819 199 111 77 255
-0.292353 1.404665 -0.462819 199 111 77 255
0.503510 1.404665 -0.381565 199 111 77 255
0.497416 -0.495335 -0.321875 199 111 77 255
0.497416 1.404665 -0.321875 199 111 77 255
-0.298447 -0.495335 -0.403130 199 111 77 255
-0.298447 1.404665 -0.403130 199 111 77 255
0.477459 0.271271 -0.434709 105 86 96 255
0.392291 0.271271 -0.443404 105 86 96 255
0.392291 0.356881 -0.443404 105 86 96 255
0.477459 0.356881 -0.434709 105 86 96 255
0.461208 0.271271 -0.275536 105 86 96 255
0.461208 0.356881 -0.275536 105 86 96 255
0.376041 0.271271 -0.284231 105 86 96 255
0.376041 0.356881 -0.284231 105 86 96 255
0.447679 0.287270 -0.286117 105 86 96 255
0.268610 0.287270 -0.304399 105 86 96 255
0.268610 0.340854 -0.304399 105 86 96 255
0.447679 0.340854 -0.286117 105 86 96 255
0.442237 0.287270 -0.232810 105 86 96 255
0.442237 0.340854 -0.232810 105 86 96 255
0.263168 0.287270 -0.251093 105 86 96 255
0.263168 0.340854 -0.251093 105 86 96 255
0.467442 0.287270 -0.479690 105 86 96 255
0.288373 0.287270 -0.497972 105 86 96 255
0.288373 0.340854 -0.497972 105 86 96 255
0.467442 0.340854 -0.479690 105 86 96 255
0.462000 0.287270 -0.426383 108 90 99 255
0.462000 0.340854 -0.426383 105 86 96 255
0.282931 0.287270 -0.444665 105 86 96 255
0.282931 0.340854 -0.444665 105 86 96 255
-0.289270 -0.169756 -0.393377 105 86 96 255
0.208144 -0.169756 -0.342592 105 86 96 255
3 0 1 2
3 3 4 5
3 6 7 8
3 9 10 11
3 8 12 6
3 6 13 7
4 14 15 16 17
4 18 14 17 19
4 20 18 19 21
4 20 15 14 18
4 19 17 16 21
4 22 23 24 25
4 26 8 7 9
4 12 8 26 27
4 10 13 1 28
4 29 30 31 5
4 32 33 25 24
4 34 35 36 37
4 38 34 37 39
4 40 38 39 41
4 35 40 41 36
4 35 34 38 40
4 41 39 37 36
4 42 43 44 45
4 46 42 45 47
4 48 46 47 49
4 43 48 49 44
4 43 42 46 48
4 49 47 45 44
4 50 51 52 53
4 54 50 53 55
4 56 54 55 57
4 51 56 57 52
4 51 50 54 56
4 57 55 53 52
4 58 59 60 61
4 62 58 61 63
4 64 62 63 65
4 59 64 65 60
4 59 58 62 64
4 65 63 61 60
4 66 67 68 69
4 70 66 69 71
4 72 70 71 73
4 67 72 73 68
4 67 66 70 72
4 73 71 69 68
4 74 75 76 77
4 78 74 77 79
4 80 78 79 81
4 75 80 81 76
4 75 74 78 80
4 81 79 77 76
4 82 83 84 85
4 86 82 85 87
4 88 86 87 89
4 83 88 89 84
4 83 82 86 88
4 89 87 85 84
4 90 91 92 93
4 94 90 93 95
4 96 94 95 97
4 91 96 97 92
4 91 90 94 96
4 97 95 93 92
4 29 5 4 0
3 30 29 2
3 29 0 2
4 13 6 11 10
3 5 31 3
3 3 28 4
4 23 98 32 24
4 4 28 1 0
4 13 10 9 7
4 31 30 2 3
4 11 10 28 3
4 6 11 3 2
4 23 22 99 98
4 98 99 33 32
3 27 26 11
3 26 9 11
4 13 6 2 1
4 99 22 25 33
4 6 12 27 11
4 15 20 21 16
