ply
format ascii 1.0
comment Created by Blender 2.83.20 - www.blender.org, source file: '5DoorOpenedWhite.blend'
element vertex 104
property float x
property float y
property float z
property uchar red
property uchar green
property uchar blue
property uchar alpha
element face 85
property list uchar uint vertex_indices
end_header
-0.283069 1.500010 -0.499939 182 176 163 255
-0.283069 1.500010 -0.399939 182 176 163 255
-0.283069 1.405647 -0.399939 182 176 163 255
-0.383069 1.405938 -0.399939 182 176 163 255
-0.383069 1.500010 -0.499939 182 176 163 255
-0.383069 -0.499989 -0.499939 182 176 163 255
-0.283069 1.405599 0.400447 182 176 163 255
-0.283069 1.500010 0.500445 183 177 164 255
-0.283069 -0.499989 0.500445 182 176 163 255
-0.383069 1.500010 0.500445 182 176 163 255
-0.383069 1.500010 0.400447 182 176 163 255
-0.383069 1.406056 0.400447 182 176 163 255
-0.283069 -0.499989 -0.399939 183 177 164 255
-0.283069 -0.499989 -0.499939 184 178 166 255
-0.383069 -0.499989 -0.399939 182 176 163 255
-0.383069 1.500010 -0.399939 182 176 163 255
-0.283069 -0.499989 0.400445 185 179 167 255
-0.283069 1.500010 0.400447 182 176 163 255
-0.383069 -0.499989 0.400445 182 176 163 255
-0.383069 -0.499989 0.500445 182 176 163 255
0.268610 0.287270 -0.304399 105 86 96 255
0.263168 0.287270 -0.251093 105 86 96 255
0.263168 0.340854 -0.251093 105 86 96 255
0.268610 0.340854 -0.304399 105 86 96 255
0.462000 0.287270 -0.426383 108 90 99 255
0.467442 0.287270 -0.479690 105 86 96 255
0.467442 0.340854 -0.479690 105 86 96 255
0.462000 0.340854 -0.426383 105 86 96 255
0.442237 0.340854 -0.232810 105 86 96 255
0.447679 0.340854 -0.286117 105 86 96 255
-0.273713 -0.183525 -0.485810 105 86 96 255
-0.380462 -0.183525 -0.496709 105 86 96 255
-0.380462 -0.076220 -0.496709 105 86 96 255
-0.273713 -0.076220 -0.485810 105 86 96 255
-0.284611 -0.183525 -0.379060 105 86 96 255
-0.284611 -0.076220 -0.379060 105 86 96 255
-0.391361 -0.183525 -0.389959 105 86 96 255
-0.391361 -0.076220 -0.389959 105 86 96 255
0.216246 -0.169756 -0.421946 105 86 96 255
-0.281169 -0.169756 -0.472730 105 86 96 255
-0.281169 -0.089990 -0.472730 105 86 96 255
0.216246 -0.089990 -0.421946 105 86 96 255
0.208144 -0.169756 -0.342592 105 86 96 255
0.208144 -0.089990 -0.342592 105 86 96 255
-0.289270 -0.169756 -0.393377 105 86 96 255
-0.289270 -0.089990 -0.393377 105 86 96 255
-0.273713 1.032628 -0.485810 105 86 96 255
-0.380462 1.032628 -0.496709 105 86 96 255
-0.380462 1.139933 -0.496709 105 86 96 255
-0.273713 1.139933 -0.485810 105 86 96 255
-0.284611 1.032628 -0.379060 105 86 96 255
-0.284611 1.139933 -0.379060 105 86 96 255
-0.391361 1.032628 -0.389959 105 86 96 255
-0.391361 1.139933 -0.389959 105 86 96 255
0.442237 0.287270 -0.232810 105 86 96 255
0.447679 0.287270 -0.286117 105 86 96 255
-0.391361 0.555506 -0.389959 104 85 95 255
-0.284611 0.555506 -0.379060 105 86 96 255
-0.273713 0.555506 -0.485810 105 86 96 255
-0.380462 0.555506 -0.496709 103 85 95 255
0.208144 1.046397 -0.342592 105 86 96 255
0.216246 1.046397 -0.421946 105 86 96 255
0.216246 1.126163 -0.421946 105 86 96 255
0.208144 1.126163 -0.342592 105 86 96 255
-0.281169 0.461970 -0.472730 105 86 96 255
-0.289270 0.461970 -0.393377 105 86 96 255
-0.289270 0.541737 -0.393377 105 86 96 255
-0.281169 0.541737 -0.472730 105 86 96 255
0.208144 0.461970 -0.342592 97 78 88 255
0.208144 0.541737 -0.342592 104 85 95 255
-0.380462 0.448201 -0.496709 105 86 96 255
-0.273713 0.448201 -0.485810 105 86 96 255
-0.284611 0.448201 -0.379060 105 86 96 255
-0.391361 0.448201 -0.389959 104 85 95 255
-0.281169 1.046397 -0.472730 105 86 96 255
-0.289270 1.046397 -0.393377 105 86 96 255
-0.298447 -0.495335 -0.403130 187 180 174 255
0.497416 -0.495335 -0.321875 187 180 174 255
0.497416 1.404665 -0.321875 187 180 174 255
-0.298447 1.404665 -0.403130 187 180 174 255
0.376041 0.356881 -0.284231 105 86 96 255
0.461208 0.356881 -0.275536 105 86 96 255
0.477459 0.356881 -0.434709 105 86 96 255
0.392291 0.356881 -0.443404 105 86 96 255
0.216246 0.461970 -0.421946 105 86 96 255
0.216246 0.541737 -0.421946 105 86 96 255
0.503510 -0.495335 -0.381565 187 180 174 255
-0.292353 -0.495335 -0.462819 187 180 174 255
-0.292353 1.404665 -0.462819 187 180 174 255
0.503510 1.404665 -0.381565 187 180 174 255
-0.292353 -0.495335 -0.462819 199 111 77 255
-0.298447 -0.495335 -0.403130 199 111 77 255
-0.298447 1.404665 -0.403130 199 111 77 255
-0.292353 1.404665 -0.462819 199 111 77 255
-0.289270 1.126163 -0.393377 105 86 96 255
-0.281169 1.126163 -0.472730 105 86 96 255
0.288373 0.287270 -0.497972 105 86 96 255
0.282931 0.287270 -0.444665 105 86 96 255
0.461208 0.271271 -0.275536 105 86 96 255
0.477459 0.271271 -0.434709 105 86 96 255
0.376041 0.271271 -0.284231 105 86 96 255
0.392291 0.271271 -0.443404 105 86 96 255
0.288373 0.340854 -0.497972 105 86 96 255
0.282931 0.340854 -0.444665 105 86 96 255
3 0 1 2
3 3 4 5
3 6 7 8
3 9 10 11
3 12 13 2
3 13 0 2
3 5 14 3
3 3 15 4
3 8 16 6
3 6 17 7
3 18 19 11
3 19 9 11
4 18 11 6 16
4 0 4 15 1
4 17 10 9 7
4 20 21 22 23
4 11 10 17 6
4 6 11 3 2
4 2 3 14 12
4 18 16 8 19
4 24 25 26 27
4 15 3 11 10
4 22 28 29 23
4 30 31 32 33
4 34 30 33 35
4 36 34 35 37
4 31 36 37 32
4 31 30 34 36
4 37 35 33 32
4 38 39 40 41
4 42 38 41 43
4 44 42 43 45
4 39 44 45 40
4 39 38 42 44
4 45 43 41 40
4 46 47 48 49
4 50 46 49 51
4 52 50 51 53
4 47 52 53 48
4 54 55 29 28
4 53 51 49 48
4 56 57 58 59
4 60 61 62 63
4 64 65 66 67
4 5 13 12 14
4 65 68 69 66
4 70 71 72 73
4 74 61 60 75
4 72 71 58 57
4 73 72 57 56
4 70 73 56 59
4 76 77 78 79
4 47 46 50 52
4 80 81 82 83
4 68 84 85 69
4 86 87 88 89
4 90 91 92 93
4 74 75 94 95
4 67 66 69 85
4 95 94 63 62
4 64 84 68 65
4 84 64 67 85
4 77 86 89 78
4 71 70 59 58
4 79 78 89 88
4 96 25 24 97
4 98 99 82 81
4 100 98 81 80
4 101 100 80 83
4 100 101 99 98
4 10 17 1 15
4 99 101 83 82
4 61 74 95 62
4 55 20 23 29
4 25 96 102 26
4 96 97 103 102
4 87 86 77 76
4 21 20 55 54
4 0 13 5 4
4 21 54 28 22
4 9 19 8 7
4 97 24 27 103
4 103 27 26 102
4 2 1 17 6
4 75 60 63 94
