ply
format ascii 1.0
comment Created by Blender 2.83.20 - www.blender.org, source file: '5DoorOpenedBlue.blend'
element vertex 104
property float x
property float y
property float z
property uchar red
property uchar green
property uchar blue
property uchar alpha
element face 81
property list uchar uint vertex_indices
end_header
-0.283069 1.500010 -0.499939 182 176 163 255
-0.283069 1.500010 -0.399939 182 176 163 255
-0.283069 1.405647 -0.399939 182 176 163 255
-0.383069 1.500010 0.500445 182 176 163 255
-0.383069 1.500010 0.400447 182 176 163 255
-0.383069 1.406056 0.400447 182 176 163 255
-0.283069 1.405599 0.400447 182 176 163 255
-0.283069 1.500010 0.500445 183 177 164 255
-0.283069 -0.499989 0.500445 182 176 163 255
-0.283069 -0.499989 0.400445 185 179 167 255
-0.283069 1.500010 0.400447 182 176 163 255
-0.283069 -0.499989 -0.499939 184 178 166 255
-0.283069 -0.499989 -0.399939 183 177 164 255
-0.383069 1.405938 -0.399939 182 176 163 255
-0.383069 1.500010 -0.399939 182 176 163 255
-0.383069 1.500010 -0.499939 182 176 163 255
-0.383069 -0.499989 -0.399939 182 176 163 255
-0.383069 -0.499989 -0.499939 182 176 163 255
-0.383069 -0.499989 0.500445 182 176 163 255
-0.383069 -0.499989 0.400445 182 176 163 255
-0.380462 -0.183525 -0.496709 105 86 96 255
-0.380462 -0.076220 -0.496709 105 86 96 255
-0.273713 -0.076220 -0.485810 105 86 96 255
-0.273713 -0.183525 -0.485810 105 86 96 255
-0.284611 -0.076220 -0.379060 105 86 96 255
-0.284611 -0.183525 -0.379060 105 86 96 255
-0.391361 -0.076220 -0.389959 105 86 96 255
-0.391361 -0.183525 -0.389959 105 86 96 255
-0.281169 -0.169756 -0.472730 105 86 96 255
-0.281169 -0.089990 -0.472730 105 86 96 255
0.216246 -0.089990 -0.421946 105 86 96 255
0.216246 -0.169756 -0.421946 105 86 96 255
0.208144 -0.089990 -0.342592 105 86 96 255
0.208144 -0.169756 -0.342592 105 86 96 255
-0.289270 -0.089990 -0.393377 105 86 96 255
-0.289270 -0.169756 -0.393377 105 86 96 255
-0.380462 1.032628 -0.496709 105 86 96 255
-0.380462 1.139933 -0.496709 105 86 96 255
-0.273713 1.139933 -0.485810 105 86 96 255
-0.273713 1.032628 -0.485810 105 86 96 255
-0.284611 1.139933 -0.379060 105 86 96 255
-0.284611 1.032628 -0.379060 105 86 96 255
-0.391361 1.139933 -0.389959 105 86 96 255
-0.391361 1.032628 -0.389959 105 86 96 255
-0.281169 1.046397 -0.472730 105 86 96 255
-0.281169 1.126163 -0.472730 105 86 96 255
0.216246 1.126163 -0.421946 105 86 96 255
0.216246 1.046397 -0.421946 105 86 96 255
0.208144 1.126163 -0.342592 105 86 96 255
0.208144 1.046397 -0.342592 105 86 96 255
-0.289270 1.126163 -0.393377 105 86 96 255
-0.289270 1.046397 -0.393377 105 86 96 255
-0.380462 0.448201 -0.496709 105 86 96 255
-0.380462 0.555506 -0.496709 103 85 95 255
-0.273713 0.555506 -0.485810 105 86 96 255
-0.273713 0.448201 -0.485810 105 86 96 255
-0.284611 0.555506 -0.379060 105 86 96 255
-0.284611 0.448201 -0.379060 105 86 96 255
-0.391361 0.555506 -0.389959 104 85 95 255
-0.391361 0.448201 -0.389959 104 85 95 255
-0.281169 0.461970 -0.472730 105 86 96 255
-0.281169 0.541737 -0.472730 105 86 96 255
0.216246 0.541737 -0.421946 105 86 96 255
0.216246 0.461970 -0.421946 105 86 96 255
0.208144 0.541737 -0.342592 104 85 95 255
0.208144 0.461970 -0.342592 97 78 88 255
-0.289270 0.541737 -0.393377 105 86 96 255
-0.289270 0.461970 -0.393377 105 86 96 255
-0.292353 -0.495335 -0.462819 81 104 134 255
-0.292353 1.404665 -0.462819 81 104 134 255
0.503510 1.404665 -0.381565 81 104 134 255
0.503510 -0.495335 -0.381565 81 104 134 255
0.497416 1.404665 -0.321875 81 104 134 255
0.497416 -0.495335 -0.321875 81 104 134 255
-0.298447 1.404665 -0.403130 81 104 134 255
-0.298447 -0.495335 -0.403130 81 104 134 255
-0.298447 -0.495335 -0.403130 199 111 77 255
-0.298447 1.404665 -0.403130 199 111 77 255
-0.292353 1.404665 -0.462819 199 111 77 255
-0.292353 -0.495335 -0.462819 199 111 77 255
0.392291 0.271271 -0.443404 105 86 96 255
0.392291 0.356881 -0.443404 105 86 96 255
0.477459 0.356881 -0.434709 105 86 96 255
0.477459 0.271271 -0.434709 105 86 96 255
0.461208 0.356881 -0.275536 105 86 96 255
0.461208 0.271271 -0.275536 105 86 96 255
0.376041 0.356881 -0.284231 105 86 96 255
0.376041 0.271271 -0.284231 105 86 96 255
0.268610 0.287270 -0.304399 105 86 96 255
0.268610 0.340854 -0.304399 105 86 96 255
0.447679 0.340854 -0.286117 105 86 96 255
0.447679 0.287270 -0.286117 105 86 96 255
0.442237 0.340854 -0.232810 105 86 96 255
0.442237 0.287270 -0.232810 105 86 96 255
0.263168 0.340854 -0.251093 105 86 96 255
0.263168 0.287270 -0.251093 105 86 96 255
0.288373 0.287270 -0.497972 105 86 96 255
0.288373 0.340854 -0.497972 105 86 96 255
0.467442 0.340854 -0.479690 105 86 96 255
0.467442 0.287270 -0.479690 105 86 96 255
0.462000 0.340854 -0.426383 105 86 96 255
0.462000 0.287270 -0.426383 108 90 99 255
0.282931 0.340854 -0.444665 105 86 96 255
0.282931 0.287270 -0.444665 105 86 96 255
3 0 1 2
3 3 4 5
4 6 7 8 9
4 10 6 5 4
4 11 0 2 12
3 13 14 15
4 11 12 16 17
4 10 1 14 4
4 11 17 15 0
4 16 12 2 13
4 5 4 14 13
4 5 13 2 6
4 10 4 3 7
3 6 10 7
4 9 8 18 19
4 13 15 17 16
4 18 3 5 19
4 15 14 1 0
4 6 2 1 10
4 6 9 19 5
4 18 8 7 3
4 20 21 22 23
4 23 22 24 25
4 25 24 26 27
4 27 26 21 20
4 23 25 27 20
4 24 22 21 26
4 28 29 30 31
4 31 30 32 33
4 33 32 34 35
4 35 34 29 28
4 31 33 35 28
4 32 30 29 34
4 36 37 38 39
4 39 38 40 41
4 41 40 42 43
4 43 42 37 36
4 39 41 43 36
4 40 38 37 42
4 44 45 46 47
4 47 46 48 49
4 49 48 50 51
4 51 50 45 44
4 47 49 51 44
4 48 46 45 50
4 52 53 54 55
4 55 54 56 57
4 57 56 58 59
4 59 58 53 52
4 55 57 59 52
4 56 54 53 58
4 60 61 62 63
4 63 62 64 65
4 65 64 66 67
4 67 66 61 60
4 63 65 67 60
4 64 62 61 66
4 68 69 70 71
4 71 70 72 73
4 73 72 74 75
4 76 77 78 79
4 71 73 75 68
4 72 70 69 74
4 80 81 82 83
4 83 82 84 85
4 85 84 86 87
4 87 86 81 80
4 83 85 87 80
4 84 82 81 86
4 88 89 90 91
4 91 90 92 93
4 93 92 94 95
4 95 94 89 88
4 91 93 95 88
4 92 90 89 94
4 96 97 98 99
4 99 98 100 101
4 101 100 102 103
4 103 102 97 96
4 99 101 103 96
4 100 98 97 102
