ply
format ascii 1.0
comment Created by Blender 2.83.20 - www.blender.org, source file: '5DoorClosedRed.blend'
element vertex 108
property float x
property float y
property float z
property uchar red
property uchar green
property uchar blue
property uchar alpha
element face 85
property list uchar uint vertex_indices
end_header
-0.283069 1.500010 -0.499939 182 176 163 255
-0.283069 1.500010 -0.399939 182 176 163 255
-0.283069 1.405647 -0.399939 182 176 163 255
-0.383069 1.405938 -0.399939 182 176 163 255
-0.383069 1.500010 -0.499939 182 176 163 255
-0.383069 -0.499989 -0.499939 182 176 163 255
-0.283069 1.405599 0.400447 182 176 163 255
-0.283069 1.500010 0.500445 183 177 164 255
-0.283069 -0.499989 0.500445 182 176 163 255
-0.383069 1.500010 0.500445 182 176 163 255
-0.383069 1.500010 0.400447 182 176 163 255
-0.383069 1.406056 0.400447 182 176 163 255
-0.386189 -0.183525 -0.384232 105 86 96 255
-0.278885 -0.183525 -0.384232 105 86 96 255
-0.278885 -0.076220 -0.384232 105 86 96 255
-0.386189 -0.076220 -0.384232 105 86 96 255
-0.386189 -0.183525 -0.491537 105 86 96 255
-0.386189 -0.076220 -0.491537 105 86 96 255
-0.278885 -0.183525 -0.491537 105 86 96 255
-0.278885 -0.076220 -0.491537 105 86 96 255
-0.292654 -0.169756 0.109679 105 86 96 255
-0.292654 -0.169756 -0.390321 105 86 96 255
-0.292654 -0.089990 -0.390321 105 86 96 255
-0.292654 -0.089990 0.109679 105 86 96 255
-0.303649 -0.495335 -0.400441 199 111 77 255
-0.303649 -0.495335 0.399559 199 111 77 255
-0.363649 -0.495335 0.399559 199 111 77 255
-0.363649 -0.495335 -0.400441 199 111 77 255
-0.372420 -0.169756 -0.390321 105 86 96 255
-0.372420 -0.089990 -0.390321 105 86 96 255
-0.363649 1.404665 -0.400441 199 111 77 255
-0.303649 1.404665 -0.400441 199 111 77 255
-0.283069 1.500010 0.400447 182 176 163 255
-0.372420 -0.089990 0.109679 105 86 96 255
-0.278885 1.032628 -0.384232 105 86 96 255
-0.278885 1.032628 -0.491537 105 86 96 255
-0.278885 1.139933 -0.491537 105 86 96 255
-0.278885 1.139933 -0.384232 105 86 96 255
-0.386189 1.032628 -0.384232 105 86 96 255
-0.386189 1.139933 -0.384232 105 86 96 255
-0.386189 1.032628 -0.491537 105 86 96 255
-0.386189 1.139933 -0.491537 105 86 96 255
-0.292654 1.046397 0.109679 105 86 96 255
-0.292654 1.046397 -0.390321 105 86 96 255
-0.292654 1.126163 -0.390321 105 86 96 255
-0.292654 1.126163 0.109679 105 86 96 255
-0.372420 1.046397 0.109679 105 86 96 255
-0.372420 1.126163 0.109679 105 86 96 255
-0.372420 1.046397 -0.390321 105 86 96 255
-0.372420 1.126163 -0.390321 105 86 96 255
-0.278885 0.448201 -0.384232 105 86 96 255
-0.278885 0.448201 -0.491537 105 86 96 255
-0.278885 0.555506 -0.491537 103 85 95 255
-0.278885 0.555506 -0.384232 105 86 96 255
-0.386189 0.448201 -0.384232 105 86 96 255
-0.386189 0.555506 -0.384232 105 86 96 255
-0.386189 0.448201 -0.491537 104 85 95 255
-0.386189 0.555506 -0.491537 104 85 95 255
-0.292654 0.461970 0.109679 105 86 96 255
-0.292654 0.461970 -0.390321 105 86 96 255
-0.292654 0.541737 -0.390321 105 86 96 255
-0.292654 0.541737 0.109679 105 86 96 255
-0.372420 0.461970 0.109679 97 78 88 255
-0.372420 0.541737 0.109679 104 85 95 255
-0.372420 0.461970 -0.390321 105 86 96 255
-0.372420 0.541737 -0.390321 105 86 96 255
-0.363649 -0.495335 -0.400441 153 79 75 255
-0.363649 -0.495335 0.399559 153 79 75 255
-0.363649 1.404665 0.399559 153 79 75 255
-0.363649 1.404665 -0.400441 153 79 75 255
-0.283069 -0.499989 -0.399939 183 177 164 255
-0.283069 -0.499989 -0.499939 184 178 166 255
-0.283069 -0.499989 0.400445 185 179 167 255
-0.383069 -0.499989 0.400445 182 176 163 255
-0.383069 -0.499989 -0.399939 182 176 163 255
-0.383069 1.500010 -0.399939 182 176 163 255
-0.303649 1.404665 0.399559 199 111 77 255
-0.363649 1.404665 0.399559 199 111 77 255
-0.383069 -0.499989 0.500445 182 176 163 255
-0.303649 -0.495335 0.399559 153 79 75 255
-0.303649 -0.495335 -0.400441 153 79 75 255
-0.303649 1.404665 -0.400441 153 79 75 255
-0.303649 1.404665 0.399559 153 79 75 255
-0.372420 -0.169756 0.109679 105 86 96 255
-0.253426 0.271271 0.282635 105 86 96 255
-0.253426 0.356881 0.282635 105 86 96 255
-0.253426 0.356881 0.368245 105 86 96 255
-0.253426 0.271271 0.368245 105 86 96 255
-0.413426 0.356881 0.368245 105 86 96 255
-0.413426 0.271271 0.368245 105 86 96 255
-0.413426 0.356881 0.282635 105 86 96 255
-0.413426 0.271271 0.282635 105 86 96 255
-0.404274 0.287270 0.173712 105 86 96 255
-0.404274 0.340854 0.173712 105 86 96 255
-0.404274 0.340854 0.353712 105 86 96 255
-0.404274 0.287270 0.353712 105 86 96 255
-0.457858 0.340854 0.353712 105 86 96 255
-0.457858 0.287270 0.353712 105 86 96 255
-0.457858 0.340854 0.173712 105 86 96 255
-0.457858 0.287270 0.173712 105 86 96 255
-0.209695 0.287270 0.173712 105 86 96 255
-0.209695 0.340854 0.173712 105 86 96 255
-0.209695 0.340854 0.353712 105 86 96 255
-0.209695 0.287270 0.353712 105 86 96 255
-0.263279 0.340854 0.353712 105 86 96 255
-0.263279 0.287270 0.353712 108 90 99 255
-0.263279 0.340854 0.173712 105 86 96 255
-0.263279 0.287270 0.173712 105 86 96 255
3 0 1 2
3 3 4 5
3 6 7 8
3 9 10 11
4 12 13 14 15
4 16 12 15 17
4 18 16 17 19
4 18 13 12 16
4 17 15 14 19
4 20 21 22 23
4 24 25 26 27
4 21 28 29 22
4 24 27 30 31
4 32 10 9 7
4 29 33 23 22
4 34 35 36 37
4 38 34 37 39
4 40 38 39 41
4 35 40 41 36
4 35 34 38 40
4 41 39 37 36
4 42 43 44 45
4 46 42 45 47
4 48 46 47 49
4 43 48 49 44
4 43 42 46 48
4 49 47 45 44
4 50 51 52 53
4 54 50 53 55
4 56 54 55 57
4 51 56 57 52
4 51 50 54 56
4 57 55 53 52
4 58 59 60 61
4 62 58 61 63
4 64 62 63 65
4 59 64 65 60
4 59 58 62 64
4 65 63 61 60
4 66 67 68 69
3 70 71 2
3 71 0 2
4 6 72 73 11
3 5 74 3
3 3 75 4
4 71 70 74 5
4 4 75 1 0
4 26 25 76 77
4 74 70 2 3
4 11 10 75 3
4 11 3 2 6
4 78 8 7 9
3 8 72 6
3 6 32 7
4 30 77 76 31
3 73 78 11
3 78 9 11
4 32 6 11 10
4 32 1 75 10
4 32 6 2 1
4 72 8 78 73
4 79 80 81 82
4 71 5 4 0
4 21 20 83 28
4 28 83 33 29
4 83 20 23 33
4 13 18 19 14
4 84 85 86 87
4 87 86 88 89
4 89 88 90 91
4 91 90 85 84
4 87 89 91 84
4 88 86 85 90
4 92 93 94 95
4 95 94 96 97
4 97 96 98 99
4 99 98 93 92
4 95 97 99 92
4 96 94 93 98
4 100 101 102 103
4 103 102 104 105
4 105 104 106 107
4 107 106 101 100
4 103 105 107 100
4 104 102 101 106
