ply
format ascii 1.0
comment Created in Blender version 4.2.2 LTS
element vertex 32
property float x
property float y
property float z
property uchar red
property uchar green
property uchar blue
property uchar alpha
element face 60
property list uchar uint vertex_indices
end_header
-0.099999994 0.402495 0.10000003 80 103 133 255
0.10000001 0.402495 0.10000001 80 103 133 255
0.13367201 0.404857 0.133672 80 103 133 255
-0.13367198 0.404857 0.13367203 80 103 133 255
-0.10000001 -0.3977 -0.10000001 80 103 133 255
-0.10000001 0.402495 -0.09999997 80 103 133 255
0.099999994 0.402495 -0.099999994 80 103 133 255
0.099999994 -0.3977 -0.10000003 80 103 133 255
0.10000001 -0.3977 0.09999997 80 103 133 255
0.13260801 -0.429139 0.13260797 80 103 133 255
0.13260798 -0.429139 -0.13260803 80 103 133 255
-0.099999994 -0.3977 0.099999994 80 103 133 255
0.13367198 0.404857 -0.133672 80 103 133 255
0.13367198 0.446859 -0.13367198 67 86 112 255
0.13367201 0.446859 0.13367201 67 86 112 255
-0.13367201 0.404857 -0.13367197 80 103 133 255
-0.13367198 0.446859 0.13367203 67 86 112 255
0.17538501 0.452737 0.175385 80 103 133 255
-0.17538498 0.452737 0.17538503 80 103 133 255
-0.13367201 0.446859 -0.13367197 67 86 112 255
0.17538498 0.452737 -0.175385 80 103 133 255
0.17538498 0.499994 -0.175385 80 103 133 255
0.17538501 0.499994 0.175385 80 103 133 255
-0.17538501 0.452737 -0.17538497 80 103 133 255
-0.17538498 0.499994 0.17538503 80 103 133 255
-0.17538501 0.499994 -0.17538497 80 103 133 255
-0.13260801 -0.429139 -0.132608 80 103 133 255
0.13260798 -0.500027 -0.13260803 67 86 112 255
-0.13260801 -0.500027 -0.13260801 67 86 112 255
-0.13260798 -0.429139 0.132608 80 103 133 255
0.13260801 -0.500027 0.13260797 67 86 112 255
-0.13260798 -0.500027 0.13260798 67 86 112 255
3 1 3 0
3 5 7 4
3 6 8 7
3 8 10 7
3 0 4 11
3 1 11 8
3 12 14 2
3 5 12 6
3 6 2 1
3 0 15 5
3 14 18 16
3 15 13 12
3 2 16 3
3 3 19 15
3 20 22 17
3 16 23 19
3 13 17 14
3 19 20 13
3 22 25 24
3 23 21 20
3 17 24 18
3 18 25 23
3 10 28 26
3 4 29 11
3 11 9 8
3 7 26 4
3 31 27 30
3 9 27 10
3 26 31 29
3 29 30 9
3 1 2 3
3 5 6 7
3 6 1 8
3 8 9 10
3 0 5 4
3 1 0 11
3 12 13 14
3 5 15 12
3 6 12 2
3 0 3 15
3 14 17 18
3 15 19 13
3 2 14 16
3 3 16 19
3 20 21 22
3 16 18 23
3 13 20 17
3 19 23 20
3 22 21 25
3 23 25 21
3 17 22 24
3 18 24 25
3 10 27 28
3 4 26 29
3 11 29 9
3 7 10 26
3 31 28 27
3 9 30 27
3 26 28 31
3 29 31 30
