ply
format ascii 1.0
comment Created in Blender version 4.2.2 LTS
element vertex 72
property float x
property float y
property float z
property uchar red
property uchar green
property uchar blue
property uchar alpha
element face 98
property list uchar uint vertex_indices
end_header
0.030000005 -0.309583 0.060007986 80 103 133 255
0.030000005 -0.209583 0.06000799 80 103 133 255
0.030000042 -0.20958301 0.500008 80 103 133 255
0.030000042 -0.30958304 0.500008 80 103 133 255
-0.029999956 -0.30958304 0.500008 80 103 133 255
-0.029999956 -0.20958301 0.500008 80 103 133 255
-0.029999994 -0.209583 0.060007993 80 103 133 255
-0.029999994 -0.309583 0.06000799 80 103 133 255
0.030000005 0.15125 0.060008004 80 103 133 255
0.030000005 0.25125 0.060008008 67 86 112 255
0.030000042 0.25124997 0.500008 67 86 112 255
0.030000042 0.15124999 0.500008 80 103 133 255
-0.029999956 0.15124999 0.500008 80 103 133 255
-0.029999956 0.25124997 0.500008 67 86 112 255
-0.029999994 0.25125 0.060008015 67 86 112 255
-0.029999994 0.15125 0.060008008 80 103 133 255
0.020000024 -0.24718201 0.28413 80 103 133 255
0.020000014 -0.247182 0.16412999 80 103 133 255
0.020000014 0.192818 0.16413 80 103 133 255
0.020000024 0.19281799 0.28413 80 103 133 255
-0.019999975 0.19281799 0.28413 80 103 133 255
-0.019999985 0.192818 0.16413002 80 103 133 255
-0.019999985 -0.247182 0.16412999 80 103 133 255
-0.019999975 -0.24718201 0.28413 80 103 133 255
0.02000004 -0.24718201 0.465169 80 103 133 255
0.02000003 -0.24718201 0.345169 80 103 133 255
0.02000003 0.19281799 0.345169 80 103 133 255
0.02000004 0.19281799 0.465169 80 103 133 255
-0.019999959 0.19281799 0.465169 80 103 133 255
-0.01999997 0.19281799 0.345169 80 103 133 255
-0.01999997 -0.24718201 0.345169 80 103 133 255
-0.019999959 -0.24718201 0.465169 80 103 133 255
-0.099999994 0.402495 0.10000003 80 103 133 255
0.10000001 0.402495 0.10000001 80 103 133 255
0.13367201 0.404857 0.133672 80 103 133 255
-0.13367198 0.404857 0.13367203 80 103 133 255
-0.10000001 -0.3977 -0.10000001 80 103 133 255
-0.10000001 0.402495 -0.09999997 80 103 133 255
0.099999994 0.402495 -0.099999994 80 103 133 255
0.099999994 -0.3977 -0.10000003 80 103 133 255
0.10000001 -0.3977 0.09999997 80 103 133 255
0.13260801 -0.429139 0.13260797 80 103 133 255
0.13260798 -0.429139 -0.13260803 80 103 133 255
-0.099999994 -0.3977 0.099999994 80 103 133 255
0.13367198 0.404857 -0.133672 80 103 133 255
0.13367198 0.446859 -0.13367198 67 86 112 255
0.13367201 0.446859 0.13367201 67 86 112 255
-0.13367201 0.404857 -0.13367197 80 103 133 255
-0.13367198 0.446859 0.13367203 67 86 112 255
0.17538501 0.452737 0.175385 80 103 133 255
-0.17538498 0.452737 0.17538503 80 103 133 255
-0.13367201 0.446859 -0.13367197 67 86 112 255
0.17538498 0.452737 -0.175385 80 103 133 255
0.17538498 0.499994 -0.175385 80 103 133 255
0.17538501 0.499994 0.175385 80 103 133 255
-0.17538501 0.452737 -0.17538497 80 103 133 255
-0.17538498 0.499994 0.17538503 80 103 133 255
-0.17538501 0.499994 -0.17538497 80 103 133 255
-0.13260801 -0.429139 -0.132608 80 103 133 255
0.13260798 -0.500027 -0.13260803 67 86 112 255
-0.13260801 -0.500027 -0.13260801 67 86 112 255
-0.13260798 -0.429139 0.132608 80 103 133 255
0.13260801 -0.500027 0.13260797 67 86 112 255
-0.13260798 -0.500027 0.13260798 67 86 112 255
0.050000004 0.249647 0.060008008 80 103 133 255
0.050000004 0.309648 0.060008008 80 103 133 255
0.050000045 0.30964798 0.500008 80 103 133 255
0.050000045 0.24964699 0.500008 80 103 133 255
-0.049999956 0.24964699 0.500008 80 103 133 255
-0.049999956 0.30964798 0.500008 80 103 133 255
-0.049999997 0.309648 0.06000802 80 103 133 255
-0.049999997 0.249647 0.060008015 80 103 133 255
3 1 3 0
3 5 7 4
3 4 0 3
3 2 6 5
3 9 11 8
3 13 15 12
3 12 8 11
3 17 19 16
3 21 23 20
3 20 16 19
3 18 22 21
3 25 27 24
3 29 31 28
3 28 24 27
3 26 30 29
3 33 35 32
3 37 39 36
3 38 40 39
3 40 42 39
3 32 36 43
3 33 43 40
3 44 46 34
3 37 44 38
3 38 34 33
3 32 47 37
3 46 50 48
3 47 45 44
3 34 48 35
3 35 51 47
3 52 54 49
3 48 55 51
3 45 49 46
3 51 52 45
3 54 57 56
3 55 53 52
3 49 56 50
3 50 57 55
3 42 60 58
3 36 61 43
3 43 41 40
3 39 58 36
3 63 59 62
3 41 59 42
3 58 63 61
3 61 62 41
3 65 67 64
3 69 71 68
3 68 64 67
3 66 70 69
3 1 2 3
3 5 6 7
3 4 7 0
3 2 1 6
3 9 10 11
3 13 14 15
3 12 15 8
3 17 18 19
3 21 22 23
3 20 23 16
3 18 17 22
3 25 26 27
3 29 30 31
3 28 31 24
3 26 25 30
3 33 34 35
3 37 38 39
3 38 33 40
3 40 41 42
3 32 37 36
3 33 32 43
3 44 45 46
3 37 47 44
3 38 44 34
3 32 35 47
3 46 49 50
3 47 51 45
3 34 46 48
3 35 48 51
3 52 53 54
3 48 50 55
3 45 52 49
3 51 55 52
3 54 53 57
3 55 57 53
3 49 54 56
3 50 56 57
3 42 59 60
3 36 58 61
3 43 61 41
3 39 42 58
3 63 60 59
3 41 62 59
3 58 60 63
3 61 63 62
3 65 66 67
3 69 70 71
3 68 71 64
3 66 65 70
