ply
format ascii 1.0
comment Created in Blender version 4.2.2 LTS
element vertex 24
property float x
property float y
property float z
property uchar red
property uchar green
property uchar blue
property uchar alpha
element face 42
property list uchar uint vertex_indices
end_header
-0.099999994 0.402495 0.10000003 72 99 55 255
0.10000001 0.402495 0.10000001 72 99 55 255
0.13367201 0.404857 0.133672 72 99 55 255
-0.13367198 0.404857 0.13367203 72 99 55 255
-0.10000001 -0.5 -0.10000002 72 99 55 255
-0.10000001 0.402495 -0.09999997 72 99 55 255
0.099999994 0.402495 -0.099999994 72 99 55 255
0.099999994 -0.5 -0.10000003 72 99 55 255
0.10000001 -0.5 0.09999997 72 99 55 255
-0.099999994 -0.5 0.09999999 72 99 55 255
0.13367198 0.404857 -0.133672 72 99 55 255
0.13367198 0.446859 -0.13367198 67 90 51 255
0.13367201 0.446859 0.13367201 67 90 51 255
-0.13367201 0.404857 -0.13367197 72 99 55 255
-0.13367198 0.446859 0.13367203 67 90 51 255
0.17538501 0.452737 0.175385 72 99 55 255
-0.17538498 0.452737 0.17538503 72 99 55 255
-0.13367201 0.446859 -0.13367197 67 90 51 255
0.17538498 0.452737 -0.175385 72 99 55 255
0.17538498 0.499994 -0.175385 72 99 55 255
0.17538501 0.499994 0.175385 72 99 55 255
-0.17538501 0.452737 -0.17538497 72 99 55 255
-0.17538498 0.499994 0.17538503 72 99 55 255
-0.17538501 0.499994 -0.17538497 72 99 55 255
3 1 3 0
3 5 7 4
3 6 8 7
3 0 4 9
3 1 9 8
3 10 12 2
3 5 10 6
3 6 2 1
3 0 13 5
3 12 16 14
3 13 11 10
3 2 14 3
3 3 17 13
3 18 20 15
3 14 21 17
3 11 15 12
3 17 18 11
3 20 23 22
3 21 19 18
3 15 22 16
3 16 23 21
3 1 2 3
3 5 6 7
3 6 1 8
3 0 5 4
3 1 0 9
3 10 11 12
3 5 13 10
3 6 10 2
3 0 3 13
3 12 15 16
3 13 17 11
3 2 12 14
3 3 14 17
3 18 19 20
3 14 16 21
3 11 18 15
3 17 21 18
3 20 19 23
3 21 23 19
3 15 20 22
3 16 22 23
