ply
format ascii 1.0
comment Created in Blender version 4.2.2 LTS
element vertex 8
property float x
property float y
property float z
property uchar red
property uchar green
property uchar blue
property uchar alpha
element face 8
property list uchar uint vertex_indices
end_header
-0.10000001 -0.5 -0.10000002 72 99 55 255
-0.10000001 0.500005 -0.09999997 72 99 55 255
0.099999994 0.500005 -0.09999999 72 99 55 255
0.099999994 -0.5 -0.10000003 72 99 55 255
0.10000001 0.500005 0.10000002 72 99 55 255
0.10000001 -0.5 0.09999997 72 99 55 255
-0.099999994 -0.5 0.09999999 72 99 55 255
-0.099999994 0.500005 0.10000003 72 99 55 255
3 1 3 0
3 2 5 3
3 7 0 6
3 4 6 5
3 1 2 3
3 2 4 5
3 7 1 0
3 4 7 6
