ply
format ascii 1.0
comment Created in Blender version 4.2.2 LTS
element vertex 16
property float x
property float y
property float z
property uchar red
property uchar green
property uchar blue
property uchar alpha
element face 26
property list uchar uint vertex_indices
end_header
-0.10000001 -0.3977 -0.10000001 72 99 55 255
-0.10000001 0.5 -0.09999997 72 99 55 255
0.099999994 0.5 -0.09999999 72 99 55 255
0.099999994 -0.3977 -0.10000003 72 99 55 255
0.10000001 0.5 0.10000002 72 99 55 255
0.10000001 -0.3977 0.09999997 72 99 55 255
0.13260801 -0.429139 0.13260797 72 99 55 255
0.13260798 -0.429139 -0.13260803 72 99 55 255
-0.099999994 -0.3977 0.099999994 72 99 55 255
-0.099999994 0.5 0.10000003 72 99 55 255
-0.13260801 -0.429139 -0.132608 72 99 55 255
0.13260798 -0.500027 -0.13260803 67 90 51 255
-0.13260801 -0.500027 -0.13260801 67 90 51 255
-0.13260798 -0.429139 0.132608 72 99 55 255
0.13260801 -0.500027 0.13260797 67 90 51 255
-0.13260798 -0.500027 0.13260798 67 90 51 255
3 1 3 0
3 2 5 3
3 5 7 3
3 9 0 8
3 4 8 5
3 7 12 10
3 0 13 8
3 8 6 5
3 3 10 0
3 15 11 14
3 6 11 7
3 10 15 13
3 13 14 6
3 1 2 3
3 2 4 5
3 5 6 7
3 9 1 0
3 4 9 8
3 7 11 12
3 0 10 13
3 8 13 6
3 3 7 10
3 15 12 11
3 6 14 11
3 10 12 15
3 13 15 14
