ply
format ascii 1.0
comment Created by Blender 2.83.20 - www.blender.org, source file: 'TopMiddleRoof90degreecorner.blend'
element vertex 216
property float x
property float y
property float z
property uchar red
property uchar green
property uchar blue
property uchar alpha
element face 153
property list uchar uint vertex_indices
end_header
-0.166662 -0.271997 0.277816 194 108 88 255
-0.161945 -0.207898 0.325767 194 108 88 255
-0.181408 -0.271997 0.277899 194 108 88 255
-0.166651 -0.207898 0.325684 194 108 88 255
-0.181467 0.019475 0.021298 194 108 88 255
0.000175 -0.044624 0.034084 194 108 88 255
-0.181457 -0.044624 0.067498 194 108 88 255
-0.181527 -0.271997 -0.236971 194 108 88 255
0.047112 -0.044624 0.198884 194 108 88 255
0.047112 -0.044624 0.020975 194 108 88 255
-0.000756 0.019475 0.020975 194 108 88 255
-0.000756 0.019475 0.198884 194 108 88 255
-0.257357 -0.271997 0.137069 194 108 88 255
-0.305225 -0.207898 0.137069 194 108 88 255
-0.199564 -0.308480 0.140471 187 107 88 255
-0.488008 -0.523886 0.347902 187 108 89 255
-0.517998 -0.459787 0.354522 187 107 88 255
-0.247432 -0.244381 0.140471 187 107 88 255
-0.181478 -0.044624 -0.026570 194 108 88 255
0.275502 -0.207898 -0.234267 194 108 88 255
0.305381 -0.207898 0.198884 194 108 88 255
0.257513 -0.271997 0.198884 194 108 88 255
0.257513 -0.271997 -0.234267 194 108 88 255
0.000164 0.019475 0.019547 194 108 88 255
-0.181468 0.019475 0.019630 194 108 88 255
-0.046956 -0.044624 0.019366 194 108 88 255
-0.046956 -0.044624 0.198884 194 108 88 255
-0.407721 -0.541022 -0.416883 188 123 86 255
-0.327648 -0.481120 -0.416883 187 119 80 255
-0.327648 -0.481120 0.421236 187 119 80 255
-0.407721 -0.541022 0.421236 188 122 85 255
-0.047508 -0.050392 0.140070 186 97 83 255
0.240936 -0.265799 0.140070 187 98 84 255
0.240936 -0.265799 0.558176 187 98 84 255
-0.047508 -0.050392 0.558176 187 98 84 255
-0.090354 -0.028177 0.006815 170 109 73 255
0.049646 -0.028177 0.006783 170 108 72 255
0.049623 -0.127172 -0.092212 170 108 72 255
-0.090377 -0.127172 -0.092180 171 109 72 255
0.444100 -0.541022 -0.387485 188 122 85 255
0.444086 -0.460949 -0.447388 187 119 80 255
0.444105 -0.401046 -0.367315 187 119 80 255
0.444119 -0.481120 -0.307412 187 119 80 255
-0.499995 -0.499998 0.495160 225 209 200 255
-0.000835 -0.038746 0.495160 223 206 197 255
-0.000835 -0.038746 0.535160 223 206 197 255
-0.499995 -0.499998 0.535160 223 206 197 255
-0.524506 -0.268560 0.261401 194 95 90 255
-0.524573 -0.053154 -0.027043 194 95 90 255
-0.160415 -0.053154 -0.027127 194 75 72 255
-0.160348 -0.268560 0.261317 195 98 93 255
0.113828 -0.274310 0.487909 187 119 80 255
0.173730 -0.194237 0.487909 187 119 80 255
0.173730 -0.194237 -0.141289 187 119 80 255
0.113828 -0.274310 -0.141289 187 119 80 255
-0.257357 -0.271997 0.198884 194 108 88 255
0.119997 -0.459787 -0.515560 187 107 88 255
0.535775 -0.459787 -0.515656 187 107 88 255
0.494882 -0.523886 -0.467788 187 107 88 255
0.120008 -0.523886 -0.467692 187 108 89 255
0.288804 -0.201700 0.140070 187 98 84 255
0.288804 -0.201700 0.558176 187 98 84 255
-0.517998 -0.459787 0.562870 187 107 88 255
-0.488008 -0.523886 0.556250 187 107 88 255
-0.199564 -0.308480 0.556250 187 107 88 255
-0.247432 -0.244381 0.556250 190 116 99 255
0.488164 -0.525497 -0.455120 187 87 82 255
0.536033 -0.461399 -0.500060 187 87 82 255
0.536033 -0.461399 -0.140060 187 87 82 255
0.488165 -0.525497 -0.140060 187 88 83 255
0.047664 -0.050392 0.555848 187 98 84 255
0.047664 -0.050392 0.140070 186 97 83 255
-0.000204 0.013706 0.140070 187 98 84 255
-0.000204 0.013706 0.555848 187 98 84 255
-0.520457 -0.310091 -0.179100 187 87 82 255
-0.520524 -0.525497 -0.467544 187 87 82 255
-0.160524 -0.525497 -0.467627 187 88 83 255
-0.160457 -0.310091 -0.179183 187 87 82 255
-0.113671 -0.274310 -0.219587 187 119 80 255
-0.113671 -0.274310 0.487909 187 119 80 255
-0.193745 -0.334213 0.487909 188 122 85 255
-0.193745 -0.334213 -0.219587 188 123 86 255
-0.524562 0.010945 0.020825 194 95 90 255
-0.160404 0.010945 0.020741 194 95 90 255
0.000912 0.019475 0.198884 194 108 88 255
0.000912 0.019475 0.019366 194 108 88 255
-0.467624 -0.460949 -0.416883 187 119 80 255
-0.467624 -0.460949 0.421236 187 119 80 255
-0.387550 -0.401046 0.421236 187 119 80 255
-0.387550 -0.401046 -0.416883 187 119 80 255
0.500151 -0.499998 0.495160 225 209 200 255
-0.000514 -0.038746 0.495160 223 206 197 255
-0.000514 -0.038746 0.535160 223 206 197 255
0.500151 -0.499998 0.535160 223 206 197 255
-0.173574 -0.194237 -0.219587 187 119 80 255
-0.173574 -0.194237 0.487909 187 119 80 255
0.467780 -0.460949 0.451604 187 119 80 255
0.387707 -0.401046 0.451604 187 119 80 255
0.327804 -0.481120 0.451604 187 119 80 255
0.407878 -0.541022 0.451604 188 122 85 255
-0.520470 -0.204461 -0.268184 194 95 90 255
-0.520404 0.010945 0.020260 194 95 90 255
-0.160404 0.010945 0.020177 194 95 90 255
-0.160470 -0.204461 -0.268267 194 95 90 255
-0.253647 -0.254140 -0.219587 187 119 80 255
-0.253647 -0.254140 0.487909 187 119 80 255
0.512506 -0.516089 -0.165184 187 88 74 255
0.560374 -0.451990 -0.165184 187 88 74 255
0.560374 -0.451990 0.194816 187 88 74 255
0.512506 -0.516089 0.194816 187 88 74 255
0.247588 -0.244381 0.140471 187 107 88 255
0.247588 -0.244381 0.556250 190 116 99 255
0.536033 -0.459787 0.556250 187 107 88 255
0.536033 -0.459787 0.140472 187 107 88 255
-0.181538 -0.207898 -0.284839 194 108 88 255
0.278131 -0.207898 -0.258217 194 108 88 255
0.265333 -0.271997 -0.237054 194 108 88 255
0.252408 -0.308480 -0.179344 187 107 88 255
0.120074 -0.308480 -0.179248 187 107 88 255
-0.520365 -0.310091 0.220184 187 87 82 255
-0.520298 -0.525497 0.508628 187 87 82 255
-0.520288 -0.461399 0.556497 187 87 82 255
-0.520354 -0.245993 0.268052 187 87 82 255
-0.450184 -0.541022 0.428341 188 123 86 255
0.467652 -0.541022 0.428113 188 122 85 255
0.467666 -0.460949 0.488016 187 119 80 255
-0.450170 -0.460949 0.488244 187 119 80 255
0.327804 -0.481120 -0.390068 187 119 80 255
0.387707 -0.401046 -0.390068 187 119 80 255
0.467780 -0.460949 -0.390068 187 119 80 255
0.407878 -0.541022 -0.390068 188 123 86 255
-0.240780 -0.265799 0.140070 187 98 84 255
-0.288648 -0.201700 0.140070 187 98 84 255
0.193901 -0.334213 -0.141289 188 123 86 255
0.193901 -0.334213 0.487909 188 122 85 255
-0.520325 -0.274310 0.134292 187 119 80 255
-0.520306 -0.334213 0.214365 188 123 86 255
-0.520292 -0.254140 0.274267 187 119 80 255
-0.520311 -0.194237 0.194194 187 119 80 255
-0.160393 -0.053154 0.068045 194 75 72 255
-0.520393 -0.053154 0.068128 194 95 90 255
-0.240780 -0.265799 0.555848 187 98 84 255
0.224062 -0.300683 -0.165184 187 88 74 255
0.224062 -0.300683 0.194816 187 88 74 255
-0.160459 -0.268560 -0.220399 195 98 93 255
-0.520391 -0.194237 -0.153110 187 119 80 255
-0.520410 -0.254140 -0.233183 187 119 80 255
-0.520396 -0.334213 -0.173281 188 123 86 255
-0.520377 -0.274310 -0.093208 187 119 80 255
0.199720 -0.308480 0.556250 187 107 88 255
0.488165 -0.523886 0.556250 187 107 88 255
-0.160365 -0.310091 0.220101 187 87 82 255
-0.160354 -0.245993 0.267969 187 87 82 255
-0.450203 -0.481120 0.348268 187 119 80 255
-0.450189 -0.401046 0.408171 187 119 80 255
-0.185587 -0.300683 -0.203519 187 88 74 255
-0.185653 -0.516089 -0.491963 187 88 74 255
0.174347 -0.516089 -0.492046 187 88 74 255
0.174413 -0.300683 -0.203602 187 88 74 255
0.247588 -0.245993 -0.140060 187 87 82 255
0.199720 -0.310091 -0.140060 187 87 82 255
0.000284 -0.044624 -0.026653 194 108 88 255
0.199720 -0.310091 -0.212953 187 87 82 255
0.252397 -0.244381 -0.227212 190 116 99 255
-0.288648 -0.201700 0.555848 187 98 84 255
0.253803 -0.254140 -0.141289 187 119 80 255
0.253803 -0.254140 0.487909 187 119 80 255
-0.524495 -0.204461 0.309269 194 95 90 255
-0.185598 -0.236584 -0.251387 187 88 74 255
-0.185664 -0.451990 -0.539831 187 88 74 255
0.000360 0.013706 0.140070 187 98 84 255
0.174402 -0.236584 -0.251470 187 88 74 255
0.151563 -0.334213 -0.173509 188 122 85 255
0.151550 -0.254140 -0.233411 187 119 80 255
0.151568 -0.194237 -0.153338 187 119 80 255
0.151582 -0.274310 -0.093436 187 119 80 255
0.174336 -0.451990 -0.539914 187 88 74 255
0.199720 -0.308480 0.140471 187 107 88 255
-0.160337 -0.204461 0.309185 194 95 90 255
0.000360 0.013706 0.558176 187 98 84 255
-0.520459 -0.268560 -0.220316 194 95 90 255
0.237139 -0.334213 0.214137 188 122 85 255
0.237120 -0.274310 0.134064 187 119 80 255
0.237134 -0.194237 0.193966 187 119 80 255
0.237153 -0.254140 0.274039 187 119 80 255
-0.160535 -0.461399 -0.515495 187 87 82 255
-0.160468 -0.245993 -0.227051 187 87 82 255
0.120063 -0.244381 -0.227116 187 107 88 255
-0.520535 -0.461399 -0.515412 187 87 82 255
-0.373799 -0.525498 0.508545 187 88 83 255
-0.475730 -0.500148 0.418872 165 114 90 255
-0.158286 -0.200491 0.414667 131 91 72 255
-0.158286 -0.199443 0.494660 131 91 72 255
-0.475730 -0.499101 0.498865 165 114 90 255
-0.373788 -0.461399 0.556413 187 87 82 255
-0.302498 -0.214466 0.180874 194 108 88 255
0.421571 -0.401046 0.407943 187 119 80 255
0.000295 0.019475 0.021215 194 108 88 255
0.271930 -0.236584 -0.165184 187 88 74 255
0.271930 -0.236584 0.194816 187 88 74 255
0.421557 -0.481120 0.348040 187 119 80 255
-0.467825 -0.401046 -0.367087 187 119 80 255
-0.467812 -0.481120 -0.307184 187 119 80 255
0.488164 -0.523886 0.140472 187 108 89 255
-0.247432 -0.245993 -0.140060 187 87 82 255
-0.199564 -0.310091 -0.140060 187 87 82 255
-0.199564 -0.310091 -0.210585 187 87 82 255
-0.247432 -0.245993 -0.210585 187 87 82 255
0.230074 -0.244381 0.267808 190 116 99 255
0.230063 -0.308480 0.219940 187 107 88 255
0.120167 -0.308480 0.220036 187 107 88 255
0.120178 -0.244381 0.267904 187 107 88 255
0.247588 -0.245993 -0.212953 187 87 82 255
-0.520468 -0.245993 -0.226968 187 87 82 255
-0.467844 -0.460949 -0.447160 187 119 80 255
-0.467830 -0.541022 -0.387257 188 123 86 255
3 0 1 2
3 3 4 1
3 5 6 7
4 8 9 10 11
4 10 9 12 13
4 14 15 16 17
4 4 18 2 1
4 19 20 21 22
4 5 23 24 6
4 25 22 21 26
4 27 28 29 30
4 31 32 33 34
4 35 36 37 38
4 39 40 41 42
4 43 44 45 46
4 47 48 49 50
4 51 52 53 54
4 12 9 8 55
4 56 57 58 59
4 32 60 61 33
4 62 63 64 65
4 66 67 68 69
4 70 71 72 73
4 74 75 76 77
4 78 79 80 81
4 49 48 82 83
4 26 84 85 25
4 86 87 88 89
4 90 91 92 93
4 20 84 26 21
4 79 78 94 95
4 96 97 98 99
4 100 101 102 103
4 27 30 87 86
4 16 15 63 62
4 104 105 95 94
4 106 107 108 109
4 110 111 112 113
4 114 115 116 7
4 59 58 117 118
4 85 84 20 19
4 6 24 114 7
4 119 120 121 122
4 123 124 125 126
4 127 128 129 130
4 72 71 131 132
4 54 133 134 51
4 29 28 89 88
4 135 136 137 138
4 94 78 81 104
4 139 102 101 140
4 71 70 141 131
4 142 106 109 143
4 127 130 99 98
4 144 103 102 139
4 145 146 147 148
4 112 111 149 150
4 151 119 122 152
4 153 123 126 154
4 155 156 157 158
4 69 68 159 160
4 18 161 0 2
4 16 62 65 17
4 162 66 69 160
4 58 57 163 117
4 131 141 164 132
4 133 165 166 134
4 82 48 47 167
4 168 169 156 155
4 31 170 60 32
4 158 171 168 155
4 132 164 73 72
4 53 52 166 165
4 172 173 174 175
4 169 176 157 156
4 149 111 110 177
4 47 50 178 167
4 60 170 179 61
4 179 170 31 34
4 180 144 139 140
4 64 14 17 65
4 28 27 86 89
4 129 96 99 130
4 80 79 95 105
4 181 182 183 184
4 76 185 186 77
4 146 145 174 173
4 117 163 187 118
4 188 185 76 75
4 25 85 19 22
4 119 151 189 120
4 190 191 192 193
4 120 189 194 121
4 138 137 184 183
3 0 3 1
4 55 8 11 195
4 126 125 196 154
3 3 197 4
4 3 0 161 197
4 178 50 49 83
4 183 182 135 138
4 198 199 108 107
4 124 200 196 125
4 135 182 181 136
4 136 181 184 137
4 146 173 172 147
4 42 41 201 202
4 143 199 198 142
4 12 55 195 13
4 123 153 200 124
4 168 171 176 169
4 140 101 100 180
4 53 165 133 54
4 187 56 59 118
4 203 150 149 177
4 98 97 128 127
4 61 179 34 33
4 82 167 178 83
4 134 166 52 51
4 203 113 112 150
4 81 80 105 104
4 204 205 206 207
4 208 209 210 211
4 114 24 23 115
4 13 195 11 10
4 180 100 103 144
4 115 23 5 116
4 212 159 68 67
4 77 186 213 74
4 129 128 97 96
4 213 188 75 74
4 159 212 162 160
4 213 186 185 188
4 176 171 158 157
4 122 121 194 152
4 56 187 163 57
4 15 14 64 63
4 198 107 106 142
3 5 7 116
4 212 67 66 162
4 194 189 151 152
4 109 108 199 143
4 175 174 145 148
4 202 201 214 215
4 197 161 18 4
4 147 172 175 148
4 214 40 39 215
4 87 30 29 88
4 215 39 42 202
4 110 113 203 177
4 214 201 41 40
4 196 200 153 154
4 141 70 73 164
