ply
format ascii 1.0
comment Created by Blender 2.83.20 - www.blender.org, source file: 'PyramidRoof.blend'
element vertex 178
property float x
property float y
property float z
property uchar red
property uchar green
property uchar blue
property uchar alpha
element face 121
property list uchar uint vertex_indices
end_header
-0.293502 -0.230865 0.308441 194 103 100 255
-0.008340 0.019475 0.014723 194 103 100 255
-0.291936 -0.230864 -0.261054 194 103 100 255
-0.185403 -0.451990 0.580585 187 88 74 255
0.174597 -0.451990 0.580585 187 88 74 255
0.174597 -0.236584 0.292141 187 88 74 255
-0.185403 -0.236584 0.292141 187 88 74 255
0.407878 -0.541022 -0.419890 188 123 86 255
0.407878 -0.541022 0.462000 188 122 85 255
0.327804 -0.481120 0.462000 187 119 80 255
0.327804 -0.481120 -0.419890 187 119 80 255
-0.238638 -0.310091 -0.179354 187 87 82 255
-0.476745 -0.525498 -0.467798 187 87 82 255
-0.160552 -0.525497 -0.467798 187 88 83 255
-0.160552 -0.310091 -0.179354 187 87 82 255
-0.001990 0.019475 0.014723 194 108 88 255
0.293711 -0.230864 -0.261978 194 108 88 255
0.257513 -0.271997 -0.237132 194 108 88 255
-0.046956 -0.044624 0.014723 194 108 88 255
-0.488008 -0.523886 0.140471 187 108 89 255
-0.199564 -0.308480 0.140471 187 107 88 255
-0.199564 -0.308480 0.257898 187 107 88 255
-0.488008 -0.523886 0.509740 187 107 88 255
-0.238638 -0.245993 -0.227222 187 87 82 255
-0.520552 -0.461399 -0.515666 187 87 82 255
0.235691 -0.308480 0.219931 187 107 88 255
0.120252 -0.308480 0.219931 187 107 88 255
0.120252 -0.244381 0.267799 187 107 88 255
0.235691 -0.244381 0.267799 190 116 99 255
0.247588 -0.245993 -0.221480 187 87 82 255
0.536033 -0.461399 -0.500060 187 87 82 255
0.496470 -0.525497 -0.454145 187 87 82 255
0.199720 -0.310091 -0.221480 187 87 82 255
-0.488008 -0.525497 -0.473101 187 87 82 255
-0.488008 -0.525497 -0.140060 187 88 83 255
-0.535876 -0.461399 -0.140060 187 87 82 255
-0.525740 -0.461399 -0.509406 187 87 82 255
-0.185403 -0.300683 0.244273 187 88 74 255
-0.185403 -0.516089 0.532717 187 88 74 255
0.488164 -0.523886 0.140472 187 108 89 255
0.491484 -0.523886 0.504084 187 107 88 255
0.199720 -0.308480 0.257898 187 107 88 255
0.199720 -0.308480 0.140471 187 107 88 255
0.119980 -0.459787 -0.515666 187 107 88 255
0.119980 -0.244381 -0.227222 187 107 88 255
0.235418 -0.244381 -0.227222 190 116 99 255
0.535758 -0.459787 -0.515666 187 107 88 255
0.387707 -0.401046 0.462000 187 119 80 255
0.387707 -0.401046 -0.419890 187 119 80 255
-0.467624 -0.460949 -0.419890 187 119 80 255
-0.467624 -0.460949 0.462000 187 119 80 255
-0.387550 -0.401046 0.462000 187 119 80 255
-0.387550 -0.401046 -0.419890 187 119 80 255
-0.560218 -0.451990 -0.165184 187 88 74 255
-0.560218 -0.451990 0.194816 187 88 74 255
-0.271774 -0.236584 0.194816 187 88 74 255
-0.271774 -0.236584 -0.165184 187 88 74 255
-0.247432 -0.245993 -0.140060 187 87 82 255
-0.199564 -0.310091 -0.140060 187 87 82 255
-0.199564 -0.310091 -0.221480 187 87 82 255
-0.247432 -0.245993 -0.221480 187 87 82 255
-0.512350 -0.516089 -0.165184 187 88 74 255
-0.512350 -0.516089 0.194816 187 88 74 255
-0.407721 -0.541022 -0.419890 188 123 86 255
-0.407721 -0.541022 0.462000 188 122 85 255
0.498994 -0.523886 -0.463721 187 107 88 255
0.119980 -0.523886 -0.467798 187 108 89 255
0.539361 -0.459787 0.556250 187 107 88 255
0.247588 -0.244381 0.257898 190 116 99 255
0.293711 -0.230864 0.310590 194 108 88 255
0.257513 -0.271997 0.275843 194 108 88 255
0.235418 -0.308480 -0.179354 187 107 88 255
0.119980 -0.308480 -0.179354 187 107 88 255
-0.280818 -0.230865 0.313968 192 120 103 255
0.281487 -0.230864 0.313968 192 120 103 255
-0.003740 0.019616 0.018622 192 120 103 255
-0.006040 0.019616 0.018622 192 120 103 255
-0.008033 0.019475 0.017218 194 103 100 255
0.174597 -0.300683 0.244273 187 88 74 255
0.174597 -0.516089 0.532717 187 88 74 255
-0.327648 -0.481120 -0.419890 187 119 80 255
-0.327648 -0.481120 0.462000 187 119 80 255
-0.160280 -0.525498 0.508375 187 88 83 255
-0.160280 -0.310091 0.219931 187 87 82 255
-0.160280 -0.245993 0.267799 187 87 82 255
-0.160279 -0.461399 0.556243 187 87 82 255
-0.247432 -0.244381 0.257898 190 116 99 255
-0.247432 -0.244381 0.140471 187 107 88 255
-0.185676 -0.300683 -0.203696 187 88 74 255
-0.185676 -0.516089 -0.492140 187 88 74 255
0.174324 -0.516089 -0.492140 187 88 74 255
0.174324 -0.300683 -0.203696 187 88 74 255
0.512506 -0.516089 -0.165184 187 88 74 255
0.560374 -0.451990 -0.165184 187 88 74 255
0.560374 -0.451990 0.194816 187 88 74 255
0.512506 -0.516089 0.194816 187 88 74 255
-0.428352 -0.401046 0.407918 187 119 80 255
-0.428352 -0.460949 0.487991 187 119 80 255
0.437818 -0.460949 0.487990 187 119 80 255
0.437818 -0.401046 0.407917 187 119 80 255
-0.160552 -0.245993 -0.227222 187 87 82 255
-0.160552 -0.461399 -0.515666 187 87 82 255
0.255507 -0.271997 0.277724 192 120 103 255
0.004525 -0.044624 -0.026745 192 120 103 255
0.536033 -0.461399 -0.140060 187 87 82 255
0.488165 -0.525497 -0.140060 187 88 83 255
0.437546 -0.481120 -0.307438 187 119 80 255
0.437545 -0.401046 -0.367341 187 119 80 255
-0.428625 -0.401046 -0.367340 187 119 80 255
-0.428625 -0.481120 -0.307438 187 119 80 255
0.248125 -0.271997 -0.237147 194 90 83 255
0.280611 -0.230864 -0.273246 194 90 83 255
-0.003435 0.019475 0.013985 194 90 83 255
0.004252 -0.044624 0.067322 194 90 83 255
-0.005734 0.019475 0.013985 194 90 83 255
-0.277073 -0.230864 -0.273246 194 90 83 255
-0.254655 -0.271997 -0.237147 194 90 83 255
-0.005734 -0.044624 0.067322 194 90 83 255
0.437818 -0.541022 0.428088 188 122 85 255
0.437818 -0.481120 0.348015 187 119 80 255
0.120252 -0.523886 0.508375 187 108 89 255
0.489845 -0.523886 0.508375 187 107 88 255
-0.005461 -0.044624 -0.026745 192 120 103 255
-0.251858 -0.271997 0.277724 192 120 103 255
-0.428352 -0.541022 0.428088 188 123 86 255
0.467780 -0.460949 -0.419890 187 119 80 255
0.467780 -0.460949 0.462000 187 119 80 255
0.224062 -0.300683 0.194816 187 88 74 255
0.271930 -0.236584 0.194816 187 88 74 255
0.271930 -0.236584 -0.165184 187 88 74 255
0.224062 -0.300683 -0.165184 187 88 74 255
-0.003435 0.019475 0.013985 194 108 88 255
-0.005734 0.019475 0.013985 194 108 88 255
-0.005734 -0.044624 0.067322 194 108 88 255
0.004252 -0.044624 0.067322 194 108 88 255
-0.257357 -0.271997 0.275591 194 103 100 255
0.047112 -0.044624 0.017218 194 103 100 255
-0.254655 -0.271997 -0.237147 194 108 88 255
0.248125 -0.271997 -0.237147 194 108 88 255
0.047112 -0.044624 0.014723 194 103 100 255
-0.255729 -0.271997 -0.237227 194 103 100 255
-0.255729 -0.271997 -0.237227 194 108 88 255
0.047112 -0.044624 0.014723 194 108 88 255
0.047112 -0.044624 0.017218 194 108 88 255
-0.257357 -0.271997 0.275591 194 108 88 255
-0.185676 -0.451990 -0.540008 187 88 74 255
0.174324 -0.451990 -0.540008 187 88 74 255
0.437545 -0.541022 -0.387511 188 122 85 255
0.437545 -0.460949 -0.447414 187 119 80 255
0.247588 -0.244381 0.140471 187 107 88 255
0.536033 -0.459787 0.140472 187 107 88 255
-0.535876 -0.459787 0.140471 187 107 88 255
-0.428625 -0.460949 -0.447414 187 119 80 255
-0.185676 -0.236584 -0.251564 187 88 74 255
0.120252 -0.459787 0.556243 187 107 88 255
0.533768 -0.459787 0.556243 187 107 88 255
-0.238365 -0.245993 0.267799 187 87 82 255
-0.238365 -0.310091 0.219931 187 87 82 255
-0.479027 -0.525498 0.508375 187 87 82 255
-0.520280 -0.461399 0.556243 187 87 82 255
-0.223906 -0.300683 -0.165184 187 88 74 255
-0.535876 -0.459787 0.556250 187 107 88 255
-0.223906 -0.300683 0.194816 187 88 74 255
0.174324 -0.236584 -0.251564 187 88 74 255
-0.008033 0.019475 0.017218 194 108 88 255
-0.008340 0.019475 0.014723 194 108 88 255
-0.001990 0.019475 0.017218 194 108 88 255
-0.046956 -0.044624 0.017218 194 108 88 255
-0.428625 -0.541022 -0.387511 188 123 86 255
-0.428352 -0.481120 0.348015 187 119 80 255
0.247588 -0.245993 -0.140060 187 87 82 255
0.199720 -0.310091 -0.140060 187 87 82 255
-0.003740 0.019616 0.018622 194 108 88 255
0.004525 -0.044624 -0.026745 194 108 88 255
-0.005461 -0.044624 -0.026745 194 108 88 255
-0.006040 0.019616 0.018622 194 108 88 255
-0.251858 -0.271997 0.277724 194 108 88 255
0.255507 -0.271997 0.277724 194 108 88 255
3 0 1 2
4 3 4 5 6
4 7 8 9 10
4 11 12 13 14
4 15 16 17 18
4 19 20 21 22
4 23 24 12 11
4 25 26 27 28
4 29 30 31 32
4 33 34 35 36
4 37 38 3 6
4 39 40 41 42
4 43 44 45 46
4 9 47 48 10
4 49 50 51 52
4 53 54 55 56
4 57 58 59 60
4 61 62 54 53
4 63 64 50 49
4 43 46 65 66
4 40 67 68 41
4 16 69 70 17
4 66 65 71 72
4 73 74 75 76
3 0 77 1
4 5 78 37 6
4 79 78 5 4
4 80 81 64 63
4 82 83 84 85
4 86 21 20 87
4 88 89 90 91
4 92 93 94 95
4 96 97 98 99
4 23 100 101 24
4 102 103 75 74
4 65 46 45 71
4 31 30 104 105
4 106 107 108 109
4 110 111 112 113
4 114 115 116 117
4 118 119 99 98
4 120 26 25 121
4 76 122 123 73
4 124 118 98 97
4 44 43 66 72
4 7 125 126 8
4 3 38 79 4
4 81 80 52 51
4 127 128 129 130
4 131 132 133 134
4 135 136 77 0
4 133 137 138 134
4 1 139 140 2
4 141 142 143 144
4 37 78 79 38
4 89 145 146 90
4 147 148 107 106
4 149 150 39 42
4 20 19 151 87
4 152 108 107 148
4 14 100 23 11
4 88 153 145 89
4 12 24 101 13
4 154 155 28 27
4 150 67 40 39
4 156 157 158 159
4 160 61 53 56
4 22 21 86 161
4 151 19 22 161
4 13 101 100 14
4 60 59 33 36
4 151 161 86 87
4 162 160 56 55
4 90 146 163 91
4 126 47 9 8
4 71 45 44 72
4 34 58 57 35
4 145 153 163 146
4 164 143 142 165
4 70 69 166 167
4 2 140 135 0
4 60 36 35 57
4 17 70 167 18
4 115 114 112 111
4 129 93 92 130
4 109 108 152 168
4 96 169 124 97
4 119 169 96 99
4 129 128 94 93
4 50 64 81 51
4 27 26 120 154
4 91 163 153 88
4 154 120 121 155
4 121 25 28 155
4 157 83 82 158
4 156 159 85 84
4 105 104 170 171
4 59 58 34 33
4 158 82 85 159
4 168 152 148 147
4 29 170 104 30
4 150 149 68 67
4 95 94 128 127
4 125 48 47 126
4 84 83 157 156
4 169 119 118 124
4 130 92 95 127
4 62 162 55 54
4 172 173 174 175
4 115 111 110 116
4 123 102 74 73
4 32 31 105 171
4 176 174 173 177
4 16 15 166 69
4 80 63 49 52
4 10 48 125 7
4 170 29 32 171
4 109 168 147 106
4 167 166 15 18
4 41 68 149 42
4 160 162 62 61
