ply
format ascii 1.0
comment Created by Blender 2.83.20 - www.blender.org, source file: 'RoofCornerInsideTest1.blend'
element vertex 216
property float x
property float y
property float z
property uchar red
property uchar green
property uchar blue
property uchar alpha
element face 162
property list uchar uint vertex_indices
end_header
0.157742 0.456864 0.538363 194 107 82 255
-0.202255 0.456864 0.536864 194 107 82 255
-0.200987 0.229491 0.232398 199 120 100 255
0.159010 0.229491 0.233897 194 107 83 255
0.496486 -0.541022 -0.404355 188 123 86 255
0.496153 -0.481119 -0.324282 187 119 80 255
-0.503839 -0.481119 -0.328446 187 119 80 255
-0.503505 -0.541022 -0.408518 188 122 85 255
0.133755 0.229852 0.257516 187 92 87 255
0.132554 0.445258 0.545958 187 92 87 255
0.132753 0.509357 0.498091 187 93 88 255
0.133954 0.293951 0.209649 187 92 87 255
0.494192 -0.022896 0.146631 187 119 80 255
-0.505800 -0.022896 0.142467 187 119 80 255
-0.505466 -0.082798 0.062395 188 122 85 255
0.494525 -0.082798 0.066558 188 123 86 255
-0.147564 0.448019 0.537751 187 85 69 255
-0.146363 0.232613 0.249309 187 85 69 255
-0.146164 0.296712 0.201442 187 85 69 255
-0.147365 0.512118 0.489883 187 85 69 255
-0.257357 -0.271997 -0.161116 194 108 88 255
-0.257357 -0.271997 0.198884 194 108 88 255
-0.305225 -0.207898 0.198884 194 108 88 255
-0.305225 -0.207898 -0.161116 194 108 88 255
-0.173574 -0.194237 -0.500000 187 119 80 255
-0.253647 -0.254140 -0.500000 187 119 80 255
-0.253647 -0.254140 0.500000 187 119 80 255
-0.173574 -0.194237 0.500000 187 119 80 255
0.083366 0.057177 -0.500000 187 119 80 255
0.143268 -0.022896 -0.500000 187 119 80 255
0.063195 -0.082798 -0.500000 188 123 86 255
0.003293 -0.002725 -0.500000 187 119 80 255
-0.145475 -0.050392 0.048362 186 97 83 255
-0.144274 -0.265799 -0.240080 187 98 84 255
-0.144074 -0.201700 -0.287947 187 98 84 255
-0.145275 0.013706 0.000495 187 98 84 255
0.536398 0.456864 0.194816 194 107 82 255
0.536398 0.456864 -0.165184 194 107 82 255
0.488530 0.520963 -0.165184 194 107 82 255
0.488530 0.520963 0.194816 194 107 82 255
-0.039442 0.042580 -0.500078 194 93 73 255
-0.039442 0.042580 -0.140078 194 93 73 255
0.249002 0.257986 -0.140078 195 95 75 255
0.249002 0.257986 -0.500078 194 93 73 255
-0.535877 -0.461399 -0.140060 187 87 82 255
-0.488008 -0.525497 -0.140060 187 88 83 255
-0.199564 -0.310091 -0.140060 187 87 82 255
-0.247432 -0.245993 -0.140060 187 87 82 255
0.492550 0.445258 0.547457 187 92 87 255
0.492750 0.509357 0.499590 187 92 87 255
-0.467624 -0.460949 0.500000 187 119 80 255
-0.407721 -0.541022 0.500000 188 122 85 255
-0.327648 -0.481120 0.500000 187 119 80 255
-0.387551 -0.401046 0.500000 187 119 80 255
0.493830 0.257986 0.252364 194 93 73 255
0.495031 0.042580 -0.036078 194 93 73 255
0.135034 0.042580 -0.037577 194 93 73 255
0.133833 0.257986 0.250865 195 95 75 255
0.281220 0.208589 -0.171031 194 99 72 255
-0.007225 -0.006817 -0.171031 194 111 91 255
-0.055093 0.057281 -0.171031 194 111 91 255
0.233352 0.272687 -0.171031 194 111 91 255
0.008426 -0.021519 -0.500078 195 96 78 255
0.008426 -0.021519 -0.140078 194 93 73 255
0.164651 0.208589 0.283211 194 99 72 255
-0.195346 0.208589 0.281712 194 99 72 255
-0.194145 -0.006817 -0.006730 194 111 91 255
0.165852 -0.006817 -0.005231 194 111 91 255
-0.505472 -0.050392 0.046863 187 98 84 255
-0.505272 0.013706 -0.001004 187 98 84 255
0.393302 0.220230 -0.500000 187 119 80 255
0.313229 0.160328 -0.500000 188 123 86 255
0.253326 0.240401 -0.500000 187 119 80 255
0.333399 0.300303 -0.500000 187 119 80 255
-0.000204 0.010945 -0.140053 194 95 90 255
0.047664 -0.053154 -0.140053 194 75 72 255
0.047664 -0.053154 -0.500053 194 95 90 255
-0.000204 0.010945 -0.500053 194 95 90 255
0.159209 0.293589 0.186029 194 107 82 255
-0.200788 0.293589 0.184530 194 107 82 255
-0.202056 0.520963 0.488997 194 107 82 255
0.157941 0.520963 0.490496 194 107 82 255
0.296870 0.193888 -0.500078 194 93 73 255
0.296870 0.193888 -0.140078 194 93 73 255
0.313229 0.160328 0.500000 188 122 85 255
0.253326 0.240401 0.500000 187 119 80 255
-0.393971 -0.615940 -0.070000 170 108 72 255
-0.492966 -0.516945 -0.070000 172 113 80 255
0.507034 0.483055 -0.070000 170 109 73 255
0.606029 0.384060 -0.070000 171 109 72 255
-0.506841 0.220230 0.392498 187 119 80 255
0.493151 0.220230 0.396662 187 119 80 255
0.493400 0.300303 0.336760 187 119 80 255
-0.506591 0.300303 0.332596 187 119 80 255
0.047112 -0.044624 0.198884 194 108 88 255
-0.000756 0.019475 0.198884 194 108 88 255
-0.535877 -0.461399 -0.500060 187 87 82 255
-0.247432 -0.245993 -0.500060 187 87 82 255
-0.507561 0.448019 0.536252 187 85 69 255
-0.506360 0.232613 0.247810 187 85 69 255
0.207786 0.293950 -0.140028 187 92 87 255
0.255654 0.229852 -0.140028 187 92 87 255
0.544098 0.445258 -0.140028 187 92 87 255
0.496230 0.509357 -0.140028 187 93 88 255
-0.507362 0.512118 0.488385 187 85 69 255
0.537058 0.448019 0.140122 187 85 69 255
0.537057 0.448019 0.500122 187 85 69 255
0.248613 0.232613 0.500122 187 85 69 255
0.248613 0.232613 0.140122 187 85 69 255
0.164850 0.272687 0.235344 194 111 91 255
0.166051 0.057281 -0.053098 194 111 91 255
0.155712 -0.044624 0.049064 194 108 88 255
-0.204285 -0.044624 0.047565 194 108 88 255
-0.203018 -0.271997 -0.256901 194 108 88 255
0.156979 -0.271997 -0.255403 194 108 88 255
0.494831 -0.021519 0.011789 195 96 78 255
0.134834 -0.021519 0.010291 194 93 73 255
-0.145462 -0.028305 0.013220 200 121 106 255
-0.505459 -0.028305 0.011721 196 107 90 255
-0.505260 0.035793 -0.036147 194 101 81 255
-0.145263 0.035793 -0.034648 195 102 82 255
-0.327648 -0.481120 -0.500000 187 119 80 255
-0.387551 -0.401046 -0.500000 187 119 80 255
-0.393971 -0.615940 0.070000 170 108 72 255
-0.492966 -0.516945 0.070000 174 116 85 255
-0.488008 -0.525497 -0.500060 187 87 82 255
-0.199564 -0.310091 -0.500060 187 87 82 255
0.062681 0.483055 0.508603 170 109 73 255
-0.077318 0.483055 0.508020 170 108 72 255
-0.077730 0.384060 0.607014 170 108 72 255
0.062269 0.384060 0.607597 171 109 72 255
0.495262 -0.274310 -0.110307 187 119 80 255
-0.504730 -0.274310 -0.114471 187 119 80 255
-0.504396 -0.334213 -0.194543 188 122 85 255
0.495595 -0.334213 -0.190380 188 123 86 255
-0.506161 0.296712 0.199943 187 85 69 255
0.207786 0.293950 -0.500028 187 92 87 255
0.496230 0.509357 -0.500028 187 92 87 255
-0.113672 -0.274310 0.500000 187 119 80 255
-0.113672 -0.274311 -0.500000 187 119 80 255
0.184061 0.293589 -0.165184 194 107 82 255
0.184061 0.293589 0.194816 194 107 82 255
-0.240780 -0.268560 -0.140053 195 98 93 255
-0.240780 -0.268560 -0.500053 194 95 90 255
-0.143646 -0.523886 -0.487307 187 108 89 255
-0.503643 -0.523886 -0.488806 187 107 88 255
-0.503443 -0.459787 -0.536674 187 107 88 255
-0.143446 -0.459787 -0.535175 187 107 88 255
0.489189 0.512118 0.500122 187 85 69 255
0.489189 0.512118 0.140122 187 85 69 255
-0.506507 0.160328 0.312426 188 122 85 255
-0.506258 0.240401 0.252524 187 119 80 255
-0.503256 -0.460949 -0.468420 187 119 80 255
0.496735 -0.460949 -0.464256 187 119 80 255
0.493484 0.160328 0.316589 188 123 86 255
0.231929 0.229491 -0.165184 194 107 83 255
0.231929 0.229491 0.194816 199 120 100 255
0.496402 -0.401046 -0.384184 187 119 80 255
0.155911 0.019475 0.001196 194 108 88 255
0.157179 -0.207898 -0.303270 194 108 88 255
-0.202818 -0.207898 -0.304769 194 108 88 255
-0.204086 0.019475 -0.000303 194 108 88 255
0.393302 0.220230 0.500000 187 119 80 255
0.544098 0.445258 -0.500028 187 92 87 255
0.143268 -0.022896 0.500000 187 119 80 255
0.063195 -0.082798 0.500000 188 122 85 255
0.133633 0.193888 0.298732 194 93 73 255
0.493734 0.240401 0.256687 187 119 80 255
0.493751 0.229852 0.259015 187 92 87 255
0.495844 -0.254140 -0.250281 187 119 80 255
-0.504147 -0.254140 -0.254445 187 119 80 255
-0.504480 -0.194237 -0.174373 187 119 80 255
0.495511 -0.194237 -0.170209 187 119 80 255
0.200745 0.296712 0.500122 187 85 69 255
-0.000756 0.019475 -0.161116 194 108 88 255
-0.146663 0.187101 0.301662 194 101 81 255
-0.146464 0.251200 0.253794 194 101 81 255
0.200745 0.296712 0.140122 187 85 69 255
-0.055093 0.057281 0.188969 194 111 91 255
0.233352 0.272687 0.188969 194 111 91 255
-0.506660 0.187101 0.300163 194 101 81 255
0.333399 0.300303 0.500000 187 119 80 255
-0.193745 -0.334213 -0.500000 188 123 86 255
-0.195147 0.272687 0.233845 194 111 91 255
-0.288648 -0.204461 -0.140053 194 95 90 255
-0.288648 -0.204461 -0.500053 194 95 90 255
-0.505550 0.057177 0.082565 187 119 80 255
-0.505217 -0.002725 0.002493 187 119 80 255
-0.503589 -0.401046 -0.388348 187 119 80 255
-0.506461 0.251200 0.252295 194 101 81 255
-0.193945 0.057281 -0.054597 194 111 91 255
-0.144847 -0.308480 -0.198866 187 107 88 255
-0.144647 -0.244381 -0.246733 187 107 88 255
-0.073566 -0.615940 -0.392977 170 108 72 255
0.066432 -0.615940 -0.392394 170 108 72 255
0.281220 0.208589 0.188969 194 99 72 255
-0.407721 -0.541022 -0.500000 188 123 86 255
-0.467624 -0.460949 -0.500000 187 119 80 255
0.083366 0.057177 0.500000 187 119 80 255
-0.504844 -0.308480 -0.200364 187 107 88 255
-0.504644 -0.244381 -0.248232 190 116 99 255
0.493630 0.193888 0.300231 194 93 73 255
-0.504271 -0.265799 -0.241579 187 98 84 255
0.003293 -0.002725 0.500000 187 119 80 255
0.493951 0.293951 0.211148 187 92 87 255
0.494441 0.057177 0.086729 187 119 80 255
0.507034 0.483055 0.070000 170 108 72 255
0.606029 0.384060 0.070000 170 108 72 255
0.066845 -0.516945 -0.491388 172 113 80 255
0.494775 -0.002725 0.006656 187 119 80 255
-0.073154 -0.516945 -0.491971 174 116 85 255
0.047112 -0.044624 -0.161116 194 108 88 255
0.255654 0.229852 -0.500028 187 92 87 255
-0.193745 -0.334213 0.500000 188 122 85 255
-0.504071 -0.201700 -0.289446 187 98 84 255
-0.007225 -0.006817 0.188969 194 111 91 255
4 0 1 2 3
4 4 5 6 7
4 8 9 10 11
4 12 13 14 15
4 16 17 18 19
4 20 21 22 23
4 24 25 26 27
4 28 29 30 31
4 32 33 34 35
4 36 37 38 39
4 40 41 42 43
4 44 45 46 47
4 9 48 49 10
4 50 51 52 53
4 54 55 56 57
4 58 59 60 61
4 62 63 41 40
4 64 65 66 67
4 68 32 35 69
4 70 71 72 73
4 74 75 76 77
4 78 79 80 81
4 82 83 63 62
4 71 84 85 72
4 86 87 88 89
4 90 91 92 93
4 21 94 95 22
4 96 44 47 97
4 17 16 98 99
4 100 101 102 103
4 104 98 16 19
4 105 106 107 108
4 109 64 67 110
4 83 82 43 42
4 111 112 113 114
4 55 115 116 56
4 117 118 119 120
4 52 121 122 53
4 87 86 123 124
4 125 126 46 45
4 127 128 129 130
4 131 132 133 134
4 17 99 135 18
4 136 100 103 137
4 138 139 24 27
4 140 141 39 38
4 76 75 142 143
4 144 145 146 147
4 148 106 105 149
4 150 90 93 151
4 4 7 152 153
4 91 90 150 154
4 155 156 141 140
4 5 4 153 157
4 158 159 160 161
4 70 162 84 71
4 102 163 137 103
4 29 164 165 30
4 116 166 57 56
4 91 154 167 92
4 48 9 8 168
4 169 170 171 172
4 107 106 148 173
4 23 22 95 174
4 133 132 171 170
4 175 117 120 176
4 108 107 173 177
4 177 173 148 149
4 97 126 125 96
4 37 155 140 38
4 99 98 104 135
4 61 60 178 179
4 175 180 118 117
4 73 72 85 181
4 24 139 182 25
4 65 64 109 183
4 143 142 184 185
4 92 167 151 93
4 14 13 186 187
4 153 152 188 157
4 180 175 176 189
4 110 190 183 109
4 191 144 147 192
4 129 193 194 130
4 119 118 180 189
4 179 195 58 61
4 196 51 50 197
4 43 82 62 40
4 111 114 159 158
4 164 29 28 198
4 199 191 192 200
4 6 5 157 188
4 201 115 55 54
4 32 68 202 33
4 63 83 42 41
4 30 165 203 31
4 48 168 204 49
4 134 133 170 169
4 191 199 145 144
4 13 12 205 186
4 147 146 200 192
4 88 87 124 206
4 165 164 198 203
4 207 123 86 89
4 88 206 207 89
4 194 208 127 130
4 18 135 104 19
4 132 131 172 171
4 141 156 36 39
4 184 142 75 74
4 46 126 97 47
4 209 187 186 205
4 204 11 10 49
4 15 14 187 209
4 67 66 190 110
4 194 193 210 208
4 210 193 129 128
4 211 94 21 20
4 212 101 100 136
4 168 8 11 204
4 57 166 201 54
4 112 111 158 161
4 213 138 27 26
4 163 102 101 212
4 34 214 69 35
4 121 196 197 122
4 2 1 80 79
4 154 150 151 167
4 208 210 128 127
4 201 166 116 115
4 139 138 213 182
4 162 70 73 181
4 31 203 198 28
4 145 199 200 146
4 125 45 44 96
4 114 113 160 159
4 131 134 169 172
4 3 2 79 78
4 163 212 136 137
4 190 66 65 183
4 59 215 178 60
4 58 195 215 59
4 206 124 123 207
4 197 50 53 122
4 0 3 78 81
4 113 112 161 160
4 105 108 177 149
4 1 0 81 80
4 95 94 211 174
4 7 6 188 152
4 202 68 69 214
4 33 202 214 34
4 155 37 36 156
4 76 143 185 77
4 182 213 26 25
4 205 12 15 209
4 120 119 189 176
4 215 195 179 178
4 211 20 23 174
4 84 162 181 85
4 121 52 51 196
4 185 184 74 77
