ply
format ascii 1.0
comment Created by Blender 2.83.20 - www.blender.org, source file: 'rooftiledv.blend'
element vertex 150
property float x
property float y
property float z
property float s
property float t
property uchar red
property uchar green
property uchar blue
property uchar alpha
element face 112
property list uchar uint vertex_indices
end_header
-0.070000 -0.615940 0.393970 -9.000003 -9.000005 170 108 72 255
-0.070000 -0.247905 -0.001073 -8.999998 -8.999992 171 109 72 255
0.070000 -0.247905 -0.001073 -8.999999 -8.999995 170 108 72 255
0.070000 -0.615940 0.393971 -9.000004 -9.000009 170 108 72 255
0.070000 -0.111530 -0.001073 -8.999999 -8.999988 170 108 72 255
0.070000 -0.538137 0.458681 -9.000005 -9.000005 174 116 85 255
-0.070000 -0.111530 -0.001073 -8.999998 -8.999985 170 109 73 255
-0.070000 -0.538137 0.458681 -9.000004 -9.000002 172 113 80 255
-0.140053 -0.053154 -0.000078 -8.999998 -8.999980 194 75 72 255
-0.140053 0.010945 0.000204 -8.999998 -8.999976 194 95 90 255
-0.140053 -0.204461 0.288648 -9.000002 -8.999987 194 95 90 255
-0.140053 -0.268560 0.240780 -9.000001 -8.999990 195 98 93 255
-0.504211 -0.204461 0.288648 -9.000000 -8.999982 194 95 90 255
-0.504211 -0.268560 0.240780 -8.999999 -8.999985 194 95 90 255
-0.502132 0.010945 -0.000078 -8.999996 -8.999972 194 95 90 255
-0.502132 -0.076028 -0.000078 -8.999996 -8.999977 194 95 90 255
-0.500060 -0.310091 0.199564 -8.999999 -8.999987 187 87 82 255
-0.500060 -0.245993 0.247432 -8.999999 -8.999984 187 87 82 255
-0.140060 -0.245993 0.247432 -9.000001 -8.999989 187 87 82 255
-0.140060 -0.310091 0.199564 -9.000000 -8.999992 187 87 82 255
-0.140060 -0.461399 0.535876 -9.000004 -8.999996 187 87 82 255
-0.140060 -0.525497 0.488008 -9.000004 -8.999999 187 88 83 255
-0.500060 -0.461399 0.535876 -9.000002 -8.999990 187 87 82 255
-0.500060 -0.525497 0.488008 -9.000002 -8.999993 187 87 82 255
0.140471 -0.308480 0.199564 -9.000002 -8.999998 187 107 88 255
0.140471 -0.244381 0.247432 -9.000003 -8.999994 187 107 88 255
0.556250 -0.244381 0.247432 -9.000007 -9.000008 190 116 99 255
0.556250 -0.308480 0.199564 -9.000006 -9.000012 187 107 88 255
0.556250 -0.459787 0.535876 -9.000010 -9.000015 187 107 88 255
0.556250 -0.523886 0.488008 -9.000010 -9.000019 187 107 88 255
0.140472 -0.459787 0.535876 -9.000006 -9.000003 187 107 88 255
0.140471 -0.523886 0.488008 -9.000006 -9.000006 187 108 89 255
0.557012 -0.071513 -0.000078 -9.000003 -8.999999 187 98 84 255
0.557012 0.013706 -0.000078 -9.000003 -8.999991 187 98 84 255
0.555848 -0.201700 0.288648 -9.000008 -9.000004 187 98 84 255
0.555848 -0.265799 0.240780 -9.000007 -9.000010 187 98 84 255
0.140070 -0.201700 0.288648 -9.000004 -8.999991 187 98 84 255
0.140070 -0.265799 0.240780 -9.000003 -8.999996 187 98 84 255
0.140070 0.013706 -0.000078 -8.999999 -8.999980 187 98 84 255
0.140070 -0.050392 -0.000078 -8.999999 -8.999985 186 97 83 255
-0.165184 -0.300683 0.223906 -9.000001 -8.999991 187 88 74 255
-0.165184 -0.236584 0.271774 -9.000001 -8.999988 187 88 74 255
0.194816 -0.236584 0.271774 -9.000004 -8.999995 187 88 74 255
0.194816 -0.300683 0.223906 -9.000003 -8.999999 187 88 74 255
0.194816 -0.451990 0.560218 -9.000007 -9.000003 187 88 74 255
0.194816 -0.516089 0.512350 -9.000006 -9.000007 187 88 74 255
-0.165184 -0.451990 0.560218 -9.000004 -8.999995 187 88 74 255
-0.165184 -0.516089 0.512350 -9.000004 -8.999998 187 88 74 255
0.198884 -0.044624 -0.000078 -8.999999 -8.999986 194 108 88 255
0.198884 0.019475 -0.000078 -8.999999 -8.999981 194 108 88 255
0.198884 -0.207898 0.305225 -9.000004 -8.999993 194 108 88 255
0.198884 -0.271997 0.257357 -9.000003 -8.999997 194 108 88 255
-0.161116 -0.207898 0.305225 -9.000002 -8.999987 194 108 88 255
-0.161116 -0.271997 0.257357 -9.000001 -8.999990 194 108 88 255
-0.161116 0.019475 -0.000078 -8.999997 -8.999975 194 108 88 255
-0.161116 -0.044624 -0.000078 -8.999997 -8.999979 194 108 88 255
-0.500000 -0.274310 0.113671 -8.999998 -8.999986 187 119 80 255
-0.500000 -0.194237 0.173574 -8.999998 -8.999982 187 119 80 255
0.487909 -0.194237 0.173574 -9.000005 -9.000003 187 119 80 255
0.487909 -0.274310 0.113671 -9.000004 -9.000009 187 119 80 255
0.487909 -0.334213 0.193745 -9.000005 -9.000011 188 122 85 255
0.487909 -0.254140 0.253647 -9.000006 -9.000006 187 119 80 255
-0.500000 -0.254140 0.253647 -8.999999 -8.999984 187 119 80 255
-0.500000 -0.334213 0.193745 -8.999999 -8.999988 188 123 86 255
-0.500000 -0.481120 0.327648 -9.000000 -8.999992 187 119 80 255
-0.500000 -0.401046 0.387551 -9.000001 -8.999990 187 119 80 255
0.487909 -0.401046 0.387550 -9.000008 -9.000012 187 119 80 255
0.487909 -0.481120 0.327648 -9.000007 -9.000017 187 119 80 255
0.487909 -0.541022 0.407721 -9.000008 -9.000019 188 122 85 255
0.487909 -0.460949 0.467624 -9.000009 -9.000013 187 119 80 255
-0.500000 -0.460949 0.467624 -9.000002 -8.999991 187 119 80 255
-0.500000 -0.541022 0.407721 -9.000001 -8.999994 188 123 86 255
0.418872 -0.500148 -0.271776 -8.999996 -9.000026 154 107 85 255
0.408512 -0.266964 0.001288 -9.000001 -9.000007 154 107 85 255
0.500000 -0.250000 -0.000000 -9.000002 -9.000010 154 107 85 255
0.500000 -0.500000 -0.250000 -8.999997 -9.000030 154 107 85 255
0.500000 -0.500000 -0.250000 0.750000 0.000000 255 255 255 255
0.500000 -0.250000 -0.000000 0.500000 0.250000 255 255 255 255
0.500000 -0.500000 0.250000 0.250000 0.000000 255 255 255 255
0.500000 -0.500000 0.250000 -9.000006 -9.000020 154 107 85 255
0.418872 -0.500148 0.261680 -9.000005 -9.000016 154 107 85 255
0.495160 -0.739998 0.500053 -9.000008 -9.000026 223 206 197 255
0.495161 -0.278745 -0.000078 -9.000002 -9.000011 227 212 204 255
0.535161 -0.278745 -0.000078 -9.000002 -9.000013 223 206 197 255
0.535160 -0.739998 0.500053 -9.000009 -9.000028 224 208 199 255
0.535160 -0.038746 0.000674 -9.000002 -8.999995 223 206 197 255
0.535160 -0.499998 0.499995 -9.000010 -9.000017 223 206 197 255
0.495160 -0.038746 0.000674 -9.000002 -8.999993 223 206 197 255
0.495160 -0.499998 0.499995 -9.000009 -9.000015 225 209 200 255
-0.070000 -0.615940 -0.394127 -8.999993 -9.000013 170 108 72 255
0.070000 -0.615940 -0.394127 -8.999993 -9.000018 170 108 72 255
0.070000 -0.528901 -0.464438 -8.999992 -9.000015 174 116 85 255
-0.070000 -0.528901 -0.464438 -8.999991 -9.000010 172 113 80 255
-0.140053 0.010945 -0.000360 -8.999998 -8.999976 194 95 90 255
-0.140053 -0.268560 -0.240936 -8.999994 -8.999993 195 98 93 255
-0.140053 -0.204461 -0.288804 -8.999993 -8.999990 194 95 90 255
-0.500053 -0.268560 -0.240936 -8.999994 -8.999987 194 95 90 255
-0.500053 -0.204461 -0.288804 -8.999993 -8.999985 194 95 90 255
-0.500060 -0.310091 -0.199720 -8.999994 -8.999989 187 87 82 255
-0.140060 -0.310091 -0.199720 -8.999995 -8.999995 187 87 82 255
-0.140060 -0.245993 -0.247588 -8.999994 -8.999992 187 87 82 255
-0.500060 -0.245993 -0.247588 -8.999993 -8.999986 187 87 82 255
-0.140060 -0.525497 -0.488165 -8.999991 -9.000009 187 88 83 255
-0.140060 -0.461399 -0.536033 -8.999990 -9.000006 187 87 82 255
-0.500060 -0.525497 -0.488164 -8.999991 -9.000000 187 87 82 255
-0.500060 -0.461399 -0.536033 -8.999990 -8.999997 187 87 82 255
0.140471 -0.308480 -0.199720 -8.999996 -9.000003 187 107 88 255
0.556250 -0.308480 -0.199720 -8.999998 -9.000021 187 107 88 255
0.556250 -0.244381 -0.247588 -8.999996 -9.000017 190 116 99 255
0.140471 -0.244381 -0.247588 -8.999995 -9.000000 187 107 88 255
0.556250 -0.523886 -0.488165 -8.999991 -9.000041 187 107 88 255
0.556250 -0.459787 -0.536033 -8.999990 -9.000039 187 107 88 255
0.140472 -0.523886 -0.488164 -8.999991 -9.000018 187 108 89 255
0.140471 -0.459787 -0.536033 -8.999990 -9.000015 187 107 88 255
0.558176 -0.265799 -0.240936 -8.999997 -9.000019 187 98 84 255
0.558176 -0.201700 -0.288804 -8.999995 -9.000015 187 98 84 255
0.140070 -0.265799 -0.240936 -8.999995 -9.000001 187 98 84 255
0.140070 -0.201700 -0.288804 -8.999994 -8.999997 187 98 84 255
-0.165184 -0.300683 -0.224062 -8.999994 -8.999994 187 88 74 255
0.194816 -0.300683 -0.224062 -8.999996 -9.000004 187 88 74 255
0.194816 -0.236584 -0.271930 -8.999994 -9.000001 187 88 74 255
-0.165184 -0.236584 -0.271930 -8.999994 -8.999991 187 88 74 255
0.194816 -0.516089 -0.512506 -8.999991 -9.000020 187 88 74 255
0.194816 -0.451990 -0.560374 -8.999990 -9.000018 187 88 74 255
-0.165184 -0.516089 -0.512506 -8.999991 -9.000008 187 88 74 255
-0.165184 -0.451990 -0.560374 -8.999990 -9.000005 187 88 74 255
0.198884 -0.271997 -0.257513 -8.999995 -9.000003 194 108 88 255
0.198884 -0.207898 -0.305381 -8.999994 -9.000000 194 108 88 255
-0.161116 -0.271997 -0.257513 -8.999994 -8.999993 194 108 88 255
-0.161116 -0.207898 -0.305381 -8.999993 -8.999990 194 108 88 255
-0.500000 -0.274310 -0.113828 -8.999995 -8.999987 187 119 80 255
0.487909 -0.274310 -0.113828 -8.999999 -9.000012 187 119 80 255
0.487909 -0.194237 -0.173730 -8.999998 -9.000009 187 119 80 255
-0.500000 -0.194237 -0.173730 -8.999994 -8.999983 187 119 80 255
0.487909 -0.334213 -0.193901 -8.999998 -9.000018 188 122 85 255
-0.500000 -0.334213 -0.193901 -8.999994 -8.999990 188 123 86 255
-0.500000 -0.254140 -0.253803 -8.999993 -8.999987 187 119 80 255
0.487909 -0.254140 -0.253803 -8.999996 -9.000014 187 119 80 255
-0.500000 -0.481120 -0.327804 -8.999993 -8.999996 187 119 80 255
0.487909 -0.481120 -0.327804 -8.999995 -9.000030 187 119 80 255
0.487909 -0.401046 -0.387707 -8.999993 -9.000027 187 119 80 255
-0.500000 -0.401046 -0.387707 -8.999992 -8.999993 187 119 80 255
0.487909 -0.541022 -0.407878 -8.999993 -9.000035 188 122 85 255
-0.500000 -0.541022 -0.407878 -8.999992 -9.000000 188 123 86 255
-0.500000 -0.460949 -0.467780 -8.999991 -8.999997 187 119 80 255
0.487909 -0.460949 -0.467780 -8.999992 -9.000032 187 119 80 255
0.495160 -0.739998 -0.500209 -8.999992 -9.000047 223 206 197 255
0.535160 -0.739998 -0.500209 -8.999992 -9.000050 224 208 199 255
0.535160 -0.499998 -0.500151 -8.999991 -9.000038 223 206 197 255
0.495160 -0.499998 -0.500151 -8.999991 -9.000035 225 209 200 255
4 0 1 2 3
4 3 2 4 5
4 5 4 6 7
4 1 0 7 6
4 7 0 3 5
4 8 9 10 11
4 11 10 12 13
4 13 12 14 15
4 8 11 13 15
4 10 9 14 12
4 16 17 18 19
4 19 18 20 21
4 21 20 22 23
4 23 22 17 16
4 19 21 23 16
4 20 18 17 22
4 24 25 26 27
4 27 26 28 29
4 29 28 30 31
4 31 30 25 24
4 27 29 31 24
4 28 26 25 30
4 32 33 34 35
4 35 34 36 37
4 37 36 38 39
4 32 35 37 39
4 34 33 38 36
4 40 41 42 43
4 43 42 44 45
4 45 44 46 47
4 47 46 41 40
4 43 45 47 40
4 44 42 41 46
4 48 49 50 51
4 51 50 52 53
4 53 52 54 55
4 48 51 53 55
4 50 49 54 52
4 56 57 58 59
4 60 61 62 63
4 63 62 57 56
4 59 60 63 56
4 61 58 57 62
4 64 65 66 67
4 68 69 70 71
4 71 70 65 64
4 67 68 71 64
4 69 66 65 70
4 72 73 74 75
3 76 77 78
4 79 74 73 80
3 80 73 72
4 75 79 80 72
4 81 82 83 84
4 84 83 85 86
4 86 85 87 88
4 88 87 82 81
4 84 86 88 81
4 89 90 2 1
4 90 91 4 2
4 91 92 6 4
4 92 89 1 6
4 90 89 92 91
4 15 8 93 14
4 8 94 95 93
4 94 96 97 95
4 96 15 14 97
4 8 15 96 94
4 95 97 14 93
4 98 99 100 101
4 99 102 103 100
4 102 104 105 103
4 104 98 101 105
4 99 98 104 102
4 103 105 101 100
4 106 107 108 109
4 107 110 111 108
4 110 112 113 111
4 112 106 109 113
4 107 106 112 110
4 111 113 109 108
4 32 114 115 33
4 114 116 117 115
4 116 39 38 117
4 32 39 116 114
4 115 117 38 33
4 118 119 120 121
4 119 122 123 120
4 122 124 125 123
4 124 118 121 125
4 119 118 124 122
4 123 125 121 120
4 48 126 127 49
4 126 128 129 127
4 128 55 54 129
4 48 55 128 126
4 127 129 54 49
4 130 131 132 133
4 134 135 136 137
4 135 130 133 136
4 131 130 135 134
4 137 136 133 132
4 138 139 140 141
4 142 143 144 145
4 143 138 141 144
4 139 138 143 142
4 145 144 141 140
4 146 147 83 82
4 147 148 85 83
4 148 149 87 85
4 149 146 82 87
4 147 146 149 148
