ply
format ascii 1.0
comment Created by Blender 2.83.20 - www.blender.org, source file: 'TopMiddleRoofFourCrossing.blend'
element vertex 236
property float x
property float y
property float z
property uchar red
property uchar green
property uchar blue
property uchar alpha
element face 175
property list uchar uint vertex_indices
end_header
-0.488008 -0.525498 -0.451073 187 88 83 255
-0.199564 -0.310092 -0.560302 187 87 82 255
-0.199564 -0.310092 -0.140060 187 87 82 255
-0.535876 -0.461399 -0.451073 187 87 82 255
-0.247432 -0.245993 -0.560302 187 87 82 255
-0.535876 -0.461399 -0.560301 187 87 82 255
0.556250 -0.308480 -0.198908 187 107 88 255
0.451236 -0.523886 -0.487352 187 108 89 255
0.556250 -0.523887 -0.487352 187 107 88 255
0.451236 -0.459788 -0.535220 187 107 88 255
0.556250 -0.244381 -0.246776 190 116 99 255
0.556250 -0.459788 -0.535220 187 107 88 255
0.000912 0.019475 0.198884 194 108 88 255
0.305381 -0.207899 0.198884 194 108 88 255
0.305381 -0.207898 -0.161116 194 108 88 255
0.000912 0.019475 -0.161116 194 108 88 255
0.387707 -0.401047 -0.500000 187 119 80 255
0.327804 -0.481120 -0.500000 187 119 80 255
0.327804 -0.481120 0.487909 187 119 80 255
0.387707 -0.401047 0.487909 187 119 80 255
0.536033 -0.461399 -0.407799 187 87 82 255
0.488164 -0.525498 -0.407799 187 88 83 255
0.488164 -0.525498 -0.560301 187 87 82 255
0.536033 -0.461399 -0.560301 187 87 82 255
0.487909 -0.401047 -0.386894 187 119 80 255
0.487909 -0.460949 -0.466968 187 119 80 255
-0.500000 -0.460949 -0.466967 187 119 80 255
-0.500000 -0.401047 -0.386894 187 119 80 255
0.047664 -0.050393 0.140070 186 97 83 255
0.047664 -0.050393 0.555848 187 98 84 255
-0.240780 -0.265799 0.555848 187 98 84 255
-0.240780 -0.265799 0.140070 187 98 84 255
-0.564452 -0.268560 0.241593 194 95 90 255
-0.564452 -0.053154 -0.046852 194 95 90 255
-0.140053 -0.053154 -0.046852 194 75 72 255
-0.140053 -0.268560 0.241592 195 98 93 255
-0.327648 -0.481120 -0.500000 187 119 80 255
-0.407721 -0.541022 -0.500000 188 123 86 255
-0.467624 -0.460949 -0.500000 187 119 80 255
-0.387550 -0.401047 -0.500000 187 119 80 255
0.288804 -0.204462 -0.140053 194 95 90 255
0.000360 0.010945 -0.140053 194 95 90 255
-0.047508 -0.053154 -0.140053 194 75 72 255
0.240936 -0.268560 -0.140053 195 98 93 255
0.556250 -0.523886 0.488821 187 107 88 255
0.556250 -0.308480 0.200376 187 107 88 255
0.556250 -0.244381 0.248244 190 116 99 255
0.556250 -0.459788 0.536689 187 107 88 255
0.487909 -0.194238 -0.172918 187 119 80 255
0.487909 -0.274311 -0.113015 187 119 80 255
0.487909 -0.334213 -0.193089 188 122 85 255
0.487909 -0.254140 -0.252991 187 119 80 255
0.247588 -0.245993 -0.560302 187 87 82 255
0.247588 -0.245993 -0.140060 187 87 82 255
-0.560301 -0.245993 0.248244 187 87 82 255
-0.560301 -0.461399 0.536689 187 87 82 255
-0.412209 -0.461399 0.536689 187 87 82 255
-0.140060 -0.245993 0.248244 187 87 82 255
-0.500000 -0.541022 0.408534 188 123 86 255
0.487909 -0.541022 0.408534 188 122 85 255
0.487909 -0.460949 0.468436 187 119 80 255
-0.500000 -0.460949 0.468436 187 119 80 255
0.199720 -0.310092 -0.140060 187 87 82 255
0.140471 -0.244381 -0.246776 187 107 88 255
0.140471 -0.308480 -0.198908 187 107 88 255
0.199720 -0.310092 -0.560301 187 87 82 255
0.488164 -0.523886 0.405663 187 108 89 255
0.488165 -0.523886 0.556250 187 107 88 255
0.199720 -0.308480 0.556250 187 107 88 255
0.199720 -0.308480 0.140471 187 107 88 255
-0.467624 -0.460949 0.487909 187 119 80 255
-0.407721 -0.541022 0.487909 188 122 85 255
-0.327648 -0.481120 0.487909 187 119 80 255
-0.387550 -0.401047 0.487909 187 119 80 255
-0.140053 -0.204462 -0.287992 194 95 90 255
-0.140053 0.010945 0.000452 194 95 90 255
-0.140053 -0.053154 0.048320 194 75 72 255
-0.140053 -0.268560 -0.240124 195 98 93 255
0.487909 -0.334213 0.194557 188 122 85 255
0.487909 -0.274311 0.114484 187 119 80 255
0.487909 -0.194238 0.174386 187 119 80 255
0.487909 -0.254140 0.254459 187 119 80 255
-0.113671 -0.274311 0.487909 187 119 80 255
-0.113671 -0.274311 -0.500000 187 119 80 255
-0.173574 -0.194238 -0.500000 187 119 80 255
-0.173574 -0.194238 0.487909 187 119 80 255
-0.161116 -0.044624 -0.046300 194 108 88 255
0.198884 -0.044624 -0.046300 194 108 88 255
0.198884 -0.271997 0.258169 194 108 88 255
-0.161116 -0.271997 0.258169 194 108 88 255
-0.560294 0.010945 0.000452 194 95 90 255
-0.560294 -0.053154 0.048321 194 95 90 255
0.247588 -0.244381 0.140471 187 107 88 255
0.247588 -0.244381 0.556250 190 116 99 255
0.000360 0.013706 0.140070 187 98 84 255
-0.047508 -0.050393 0.140070 186 97 83 255
-0.047508 -0.050393 0.558176 187 98 84 255
0.000360 0.013706 0.558176 187 98 84 255
-0.240780 -0.268560 -0.564452 194 95 90 255
-0.240780 -0.268560 -0.140053 195 98 93 255
-0.288648 -0.204462 -0.140053 194 95 90 255
-0.288648 -0.204462 -0.564452 194 95 90 255
0.558176 0.013706 0.000452 187 98 84 255
0.558176 -0.201700 -0.287992 187 98 84 255
0.140070 -0.201700 -0.287992 187 98 84 255
0.140070 0.013706 0.000452 187 98 84 255
-0.500000 -0.254140 -0.252991 187 119 80 255
-0.500000 -0.194238 -0.172918 187 119 80 255
-0.193745 -0.334213 -0.500000 188 123 86 255
-0.253647 -0.254140 -0.500000 187 119 80 255
-0.560294 -0.204462 -0.287992 194 95 90 255
-0.560294 -0.268560 -0.240124 194 95 90 255
-0.161116 0.019475 0.001568 194 108 88 255
0.198884 0.019475 0.001568 194 108 88 255
-0.000204 0.013706 0.140070 187 98 84 255
-0.288648 -0.201700 0.140070 187 98 84 255
-0.500000 -0.481120 0.328461 187 119 80 255
0.487909 -0.481120 0.328460 187 119 80 255
0.467780 -0.460949 -0.500000 187 119 80 255
0.407878 -0.541022 -0.500000 188 123 86 255
-0.500000 -0.334213 0.194557 188 123 86 255
-0.500000 -0.254140 0.254459 187 119 80 255
0.487909 -0.481120 -0.326992 187 119 80 255
0.487909 -0.541022 -0.407065 188 122 85 255
0.173730 -0.194238 -0.500000 187 119 80 255
0.113828 -0.274311 -0.500000 187 119 80 255
0.113828 -0.274311 0.487909 187 119 80 255
0.173730 -0.194238 0.487909 187 119 80 255
0.257513 -0.271997 0.198884 194 108 88 255
0.257513 -0.271997 -0.161116 194 108 88 255
0.198884 -0.207899 0.306037 194 108 88 255
-0.161116 -0.207899 0.306038 194 108 88 255
-0.412209 -0.525498 0.488821 187 88 83 255
-0.140060 -0.310092 0.200376 187 87 82 255
0.288804 -0.201700 0.558176 187 98 84 255
0.240936 -0.265799 0.558176 187 98 84 255
0.240936 -0.265799 0.140070 187 98 84 255
0.288804 -0.201700 0.140070 187 98 84 255
-0.500000 -0.274311 0.114484 187 119 80 255
-0.500000 -0.334213 -0.193088 188 123 86 255
0.047664 -0.053154 -0.140053 194 75 72 255
0.047664 -0.053154 -0.564452 194 95 90 255
-0.000204 0.010945 -0.564452 194 95 90 255
-0.000204 0.010945 -0.140053 194 95 90 255
-0.140053 -0.204462 0.289461 194 95 90 255
-0.564452 -0.204462 0.289461 194 95 90 255
0.558176 -0.050393 0.048320 187 98 84 255
0.558176 -0.265799 -0.240124 187 98 84 255
-0.488008 -0.523886 0.413954 187 108 89 255
-0.488008 -0.523886 0.556250 187 107 88 255
-0.535876 -0.459788 0.556250 187 107 88 255
-0.535876 -0.459788 0.413954 187 107 88 255
-0.488008 -0.525498 -0.560301 187 87 82 255
-0.247432 -0.245993 -0.140060 187 87 82 255
-0.199564 -0.308480 0.556250 187 107 88 255
-0.199564 -0.308480 0.140471 187 107 88 255
-0.247432 -0.244381 0.140471 187 107 88 255
-0.247432 -0.244381 0.556250 190 116 99 255
0.140472 -0.308480 0.200376 187 107 88 255
0.140472 -0.244381 0.248244 187 107 88 255
-0.419463 -0.525498 -0.487352 187 88 83 255
-0.140060 -0.310092 -0.198908 187 87 82 255
-0.560302 -0.310092 -0.198908 187 87 82 255
-0.560302 -0.525498 -0.487352 187 87 82 255
0.140070 -0.265799 0.241592 187 98 84 255
0.555848 -0.265799 0.241592 187 98 84 255
0.555848 -0.201700 0.289460 187 98 84 255
0.140070 -0.201700 0.289460 187 98 84 255
0.000360 0.010945 -0.560294 194 95 90 255
-0.047508 -0.053154 -0.560294 194 95 90 255
-0.046956 -0.044624 0.198884 194 108 88 255
-0.046956 -0.044624 -0.161116 194 108 88 255
-0.070000 -0.028177 -0.012893 170 109 73 255
0.070000 -0.028177 -0.012893 170 108 72 255
0.070000 -0.127172 -0.111888 170 108 72 255
-0.070000 -0.127172 -0.111888 171 109 72 255
0.140070 -0.265799 -0.240124 187 98 84 255
0.140070 -0.050393 0.048320 186 97 83 255
-0.000204 0.013706 0.555848 187 98 84 255
0.467780 -0.460949 0.487909 187 119 80 255
0.396388 -0.523886 0.488821 187 108 89 255
0.396388 -0.459788 0.536689 187 107 88 255
0.555848 -0.050393 -0.046852 187 98 84 255
0.140070 -0.050393 -0.046852 186 97 83 255
0.140070 0.013706 0.001016 187 98 84 255
0.555848 0.013706 0.001016 187 98 84 255
0.047112 -0.044624 -0.161116 194 108 88 255
0.047112 -0.044624 0.198884 194 108 88 255
-0.257357 -0.271997 0.198884 194 108 88 255
-0.257357 -0.271997 -0.161116 194 108 88 255
-0.305225 -0.207899 -0.161116 194 108 88 255
-0.000756 0.019475 -0.161116 194 108 88 255
-0.253647 -0.254140 0.487909 187 119 80 255
0.240936 -0.268560 -0.560294 194 95 90 255
0.070000 -0.135129 0.111367 170 108 72 255
0.070000 -0.036134 0.012373 170 108 72 255
-0.070000 -0.036134 0.012373 170 109 73 255
-0.070000 -0.135129 0.111368 171 109 72 255
0.198884 0.019475 -0.000100 194 108 88 255
0.198884 -0.044624 0.047768 194 108 88 255
0.198884 -0.271997 -0.256701 194 108 88 255
0.198884 -0.207899 -0.304569 194 108 88 255
-0.305225 -0.207899 0.198884 194 108 88 255
-0.223906 -0.300683 0.194816 187 88 74 255
-0.223906 -0.300683 -0.165184 187 88 74 255
-0.271774 -0.236584 -0.165184 187 88 74 255
-0.271774 -0.236584 0.194816 187 88 74 255
-0.000756 0.019475 0.198884 194 108 88 255
0.487909 -0.401047 0.388363 187 119 80 255
-0.500000 -0.401047 0.388363 187 119 80 255
-0.193745 -0.334213 0.487909 188 122 85 255
-0.560302 -0.245993 -0.246776 187 87 82 255
-0.140060 -0.245993 -0.246776 187 87 82 255
-0.419463 -0.461399 -0.535220 187 87 82 255
-0.560302 -0.461399 -0.535220 187 87 82 255
-0.500000 -0.481120 -0.326992 187 119 80 255
-0.500000 -0.541022 -0.407065 188 123 86 255
-0.140053 0.010945 0.001016 194 95 90 255
0.536033 -0.459788 0.556250 187 107 88 255
-0.161116 -0.207898 -0.304569 194 108 88 255
-0.161116 0.019475 -0.000100 194 108 88 255
-0.560302 -0.310091 0.200376 187 87 82 255
-0.500000 -0.274311 -0.113015 187 119 80 255
0.253803 -0.254140 0.487909 187 119 80 255
0.253803 -0.254140 -0.500000 187 119 80 255
0.536033 -0.459788 0.405663 187 107 88 255
-0.500000 -0.194238 0.174386 187 119 80 255
0.407878 -0.541022 0.487909 188 122 85 255
-0.560301 -0.525498 0.488821 187 87 82 255
-0.564452 0.010945 0.001016 194 95 90 255
-0.288648 -0.201700 0.555848 187 98 84 255
0.288804 -0.204462 -0.560294 194 95 90 255
0.193901 -0.334213 0.487909 188 122 85 255
0.193901 -0.334213 -0.500000 188 123 86 255
-0.161116 -0.271997 -0.256701 194 108 88 255
-0.161116 -0.044624 0.047768 194 108 88 255
3 0 1 2
3 3 4 5
3 6 7 8
3 9 10 11
4 12 13 14 15
4 16 17 18 19
4 20 21 22 23
4 24 25 26 27
4 28 29 30 31
4 32 33 34 35
4 36 37 38 39
4 40 41 42 43
4 44 45 46 47
4 48 49 50 51
4 52 53 20 23
4 54 55 56 57
4 58 59 60 61
4 53 62 21 20
4 11 8 7 9
4 63 9 7 64
4 21 62 65 22
4 66 67 68 69
4 70 71 72 73
4 74 75 76 77
4 78 79 80 81
4 10 63 64 6
4 82 83 84 85
4 86 87 88 89
4 52 65 62 53
4 90 91 76 75
4 92 69 68 93
4 94 95 96 97
4 98 99 100 101
4 102 103 104 105
4 48 51 106 107
4 84 83 108 109
4 110 111 91 90
4 87 86 112 113
4 114 28 31 115
4 116 117 59 58
4 118 119 17 16
4 120 78 81 121
4 24 122 123 25
4 124 125 126 127
4 13 128 129 14
4 89 88 130 131
4 132 133 57 56
4 134 135 136 137
4 36 72 71 37
4 120 138 79 78
4 51 50 139 106
4 140 141 142 143
4 32 35 144 145
4 102 146 147 103
4 148 149 150 151
4 112 86 89 131
3 0 152 1
3 3 153 4
4 97 134 137 94
4 1 152 5 4
4 154 155 156 157
4 45 158 159 46
4 160 161 162 163
4 148 155 154 149
4 164 165 166 167
4 168 169 42 41
4 128 170 171 129
4 172 173 174 175
4 176 147 146 177
4 29 28 114 178
4 19 179 118 16
4 159 158 180 181
4 2 1 4 153
4 182 183 184 185
4 90 75 74 110
4 38 70 73 39
4 186 187 188 189
4 186 189 190 191
4 152 0 3 5
4 109 192 85 84
4 193 43 42 169
4 131 130 113 112
4 194 195 196 197
4 98 141 140 99
4 198 199 200 201
4 189 188 202 190
4 203 204 205 206
4 190 202 207 191
4 187 186 191 207
4 77 76 91 111
4 184 183 164 167
4 14 129 171 15
4 11 10 6 8
4 61 60 208 209
4 105 177 146 102
4 210 82 85 192
4 88 87 113 130
4 104 176 177 105
4 116 58 61 209
4 52 23 22 65
4 211 212 213 214
4 27 215 122 24
4 26 25 123 216
4 180 158 45 44
4 123 122 215 216
3 6 64 7
3 9 63 10
4 188 187 207 202
4 35 34 217 144
4 150 149 154 157
4 218 93 68 67
4 198 201 219 220
4 164 183 182 165
4 83 82 210 108
4 57 133 221 54
4 15 171 170 12
4 50 49 222 139
4 99 140 143 100
4 127 223 224 124
4 0 2 153 3
4 225 66 69 92
4 141 98 101 142
4 138 120 121 226
4 227 18 17 119
4 214 213 160 163
4 221 228 55 54
4 79 138 226 80
4 26 216 215 27
4 107 106 139 222
4 218 67 66 225
4 107 222 49 48
4 12 170 128 13
4 229 33 32 145
4 59 117 208 60
4 165 182 185 166
4 108 210 192 109
4 155 148 151 156
4 31 30 230 115
4 231 193 169 168
4 34 33 229 217
4 223 232 233 224
4 118 179 227 119
4 151 150 157 156
4 221 133 132 228
4 212 211 162 161
4 181 180 44 47
4 211 214 163 162
4 101 100 143 142
4 181 47 46 159
4 93 218 225 92
4 104 103 147 176
4 232 126 125 233
4 234 200 199 235
4 124 224 233 125
4 145 144 217 229
4 115 230 178 114
4 127 126 232 223
4 117 116 209 208
4 97 96 135 134
4 41 40 231 168
4 167 166 185 184
4 135 96 95 136
4 179 19 18 227
4 230 30 29 178
4 74 77 111 110
4 40 43 193 231
4 201 200 234 219
4 228 132 56 55
4 72 36 39 73
4 220 219 234 235
4 121 81 80 226
4 137 136 95 94
4 37 71 70 38
4 212 161 160 213
4 220 235 199 198
