ply
format ascii 1.0
comment Created by Blender 2.83.20 - www.blender.org, source file: 'TopMiddleRoofThreeCrossing.blend'
element vertex 216
property float x
property float y
property float z
property uchar red
property uchar green
property uchar blue
property uchar alpha
element face 154
property list uchar uint vertex_indices
end_header
0.242752 -0.334213 -0.193089 188 122 85 255
0.242752 -0.274311 -0.113015 187 119 80 255
0.242752 -0.194238 -0.172918 187 119 80 255
0.242752 -0.254140 -0.252991 187 119 80 255
-0.011560 -0.036134 -0.070000 170 109 73 255
0.493122 -0.516946 -0.070000 172 113 80 255
0.394127 -0.615940 -0.070000 170 108 72 255
-0.110555 -0.135129 -0.070000 171 109 72 255
0.305381 -0.207899 0.198884 194 108 88 255
0.000912 0.019475 0.198884 194 108 88 255
-0.046956 -0.044624 0.198884 194 108 88 255
0.257513 -0.271997 0.198884 194 108 88 255
0.070000 -0.036134 0.012373 170 108 72 255
0.070000 -0.135129 0.111367 170 108 72 255
0.070000 -0.615940 -0.393315 170 108 72 255
0.070000 -0.516945 -0.492309 174 116 85 255
-0.500000 -0.401047 -0.386894 187 119 80 255
-0.500000 -0.481120 -0.326992 187 119 80 255
0.431861 -0.481120 -0.326992 187 119 80 255
0.431861 -0.401047 -0.386894 187 119 80 255
-0.140053 -0.053154 -0.046852 194 75 72 255
-0.564452 -0.053154 -0.046852 194 95 90 255
-0.564452 0.010945 0.001016 194 95 90 255
-0.140053 0.010945 0.001016 194 95 90 255
-0.070000 -0.516945 0.493778 172 113 80 255
-0.070000 -0.615940 0.394783 170 108 72 255
0.023607 -0.615940 0.394783 170 108 72 255
0.023607 -0.516945 0.493778 174 116 85 255
0.536033 -0.459788 0.556250 187 107 88 255
0.247588 -0.244381 0.556250 190 116 99 255
0.199720 -0.308480 0.556250 187 107 88 255
0.488165 -0.523886 0.556250 187 107 88 255
0.000360 0.010945 -0.560294 194 95 90 255
0.288804 -0.204462 -0.560294 194 95 90 255
0.240936 -0.268560 -0.560294 194 95 90 255
-0.047508 -0.053154 -0.560294 194 95 90 255
-0.070000 -0.615940 -0.393314 170 108 72 255
-0.070000 -0.516945 -0.492309 172 113 80 255
0.240936 -0.268560 -0.140053 195 98 93 255
-0.047508 -0.053154 -0.140053 194 75 72 255
0.013706 -0.028177 -0.070000 170 109 73 255
0.013706 -0.028177 0.070000 170 108 72 255
0.112701 -0.127172 0.070000 170 108 72 255
0.112701 -0.127172 -0.070000 171 109 72 255
-0.199564 -0.310092 -0.560302 187 87 82 255
-0.488008 -0.525498 -0.560301 187 87 82 255
-0.535876 -0.461399 -0.560301 187 87 82 255
-0.247432 -0.245993 -0.560302 187 87 82 255
-0.179102 -0.207898 -0.304569 194 108 88 255
-0.179102 -0.271997 -0.256701 194 108 88 255
-0.179102 -0.044624 0.047768 194 108 88 255
-0.179102 0.019475 -0.000100 194 108 88 255
0.431861 -0.541022 -0.407065 188 122 85 255
0.431861 -0.460949 -0.466968 187 119 80 255
0.247588 -0.245993 -0.560302 187 87 82 255
0.536033 -0.461399 -0.560301 187 87 82 255
0.488165 -0.525498 -0.560301 187 87 82 255
0.199720 -0.310092 -0.560301 187 87 82 255
-0.419463 -0.525498 -0.487352 187 88 83 255
-0.140060 -0.310092 -0.198908 187 87 82 255
-0.560302 -0.310091 -0.198908 187 87 82 255
-0.560302 -0.525498 -0.487352 187 87 82 255
-0.564452 -0.268560 0.241592 194 95 90 255
-0.564452 -0.204462 0.289461 194 95 90 255
-0.393970 -0.615940 0.070000 170 108 72 255
-0.393970 -0.615940 -0.070000 170 108 72 255
0.000692 0.019475 -0.000100 194 108 88 255
0.000692 -0.207899 -0.304569 194 108 88 255
-0.327648 -0.481120 0.487909 187 119 80 255
-0.327648 -0.481120 -0.500000 187 119 80 255
-0.387551 -0.401047 -0.500000 187 119 80 255
-0.387550 -0.401047 0.487909 187 119 80 255
0.047112 -0.044624 -0.193506 194 108 88 255
-0.257357 -0.271997 -0.193506 194 108 88 255
-0.305225 -0.207899 -0.193506 194 108 88 255
-0.000756 0.019475 -0.193506 194 108 88 255
0.407878 -0.541022 0.487909 188 122 85 255
0.327805 -0.481120 0.487909 187 119 80 255
0.327804 -0.481120 -0.500000 187 119 80 255
0.407878 -0.541022 -0.500000 188 123 86 255
-0.140060 -0.245993 -0.246776 187 87 82 255
-0.560302 -0.245993 -0.246776 187 87 82 255
0.288804 -0.201700 0.140070 187 98 84 255
0.240936 -0.265799 0.140070 187 98 84 255
-0.047508 -0.050393 0.140070 186 97 83 255
0.000360 0.013706 0.140070 187 98 84 255
-0.500000 -0.541022 -0.407065 188 123 86 255
-0.500000 -0.460949 -0.466967 187 119 80 255
0.493122 -0.516945 0.070000 174 116 85 255
0.394127 -0.615941 0.070000 170 108 72 255
-0.407721 -0.541022 -0.500000 188 123 86 255
-0.467624 -0.460949 -0.500000 187 119 80 255
-0.257357 -0.271997 0.198884 194 108 88 255
0.047112 -0.044624 0.198884 194 108 88 255
-0.000756 0.019475 0.198884 194 108 88 255
-0.305225 -0.207899 0.198884 194 108 88 255
-0.500000 -0.541022 0.408534 188 123 86 255
0.431861 -0.541022 0.408534 188 122 85 255
0.431861 -0.460949 0.468436 187 119 80 255
-0.500000 -0.460949 0.468436 187 119 80 255
-0.240780 -0.268560 -0.564452 194 95 90 255
-0.240780 -0.268560 -0.140053 195 98 93 255
-0.288648 -0.204462 -0.140053 194 95 90 255
-0.288648 -0.204462 -0.564452 194 95 90 255
-0.070000 -0.028177 -0.012893 170 109 73 255
-0.070000 -0.127172 -0.111888 171 109 72 255
0.000360 0.013706 0.558176 187 98 84 255
0.288804 -0.201700 0.558176 187 98 84 255
-0.492965 -0.516945 0.070000 174 116 85 255
0.000360 0.010945 -0.140053 194 95 90 255
0.288804 -0.204462 -0.140053 194 95 90 255
-0.110555 -0.135129 0.070000 170 108 72 255
-0.011560 -0.036134 0.070000 170 108 72 255
0.247588 -0.244381 0.140471 187 107 88 255
0.199720 -0.308480 0.140471 187 107 88 255
0.240936 -0.265799 0.558176 187 98 84 255
-0.179102 -0.044624 -0.046300 194 108 88 255
-0.179102 -0.271997 0.258169 194 108 88 255
-0.179102 -0.207899 0.306038 194 108 88 255
-0.179102 0.019475 0.001568 194 108 88 255
0.047664 -0.053154 -0.564452 194 95 90 255
-0.000204 0.010945 -0.564452 194 95 90 255
-0.140053 -0.268560 0.241592 195 98 93 255
0.000692 -0.044624 -0.046300 194 108 88 255
0.000692 -0.271997 0.258169 194 108 88 255
0.271930 -0.236584 -0.165184 187 88 74 255
0.560374 -0.451990 -0.165184 187 88 74 255
0.512506 -0.516089 -0.165184 187 88 74 255
0.224062 -0.300683 -0.165184 187 88 74 255
-0.140053 -0.204462 0.289460 194 95 90 255
-0.535876 -0.461399 -0.413493 187 87 82 255
-0.247432 -0.245993 -0.140060 187 87 82 255
-0.560302 -0.310091 0.200376 187 87 82 255
-0.140060 -0.310092 0.200376 187 87 82 255
-0.412209 -0.525498 0.488821 187 88 83 255
-0.560301 -0.525498 0.488821 187 87 82 255
0.000692 -0.207899 0.306037 194 108 88 255
0.047664 -0.050393 0.140070 186 97 83 255
0.047664 -0.050393 0.555848 187 98 84 255
-0.240780 -0.265799 0.555848 187 98 84 255
-0.240780 -0.265799 0.140070 187 98 84 255
-0.560294 -0.268560 -0.240124 194 95 90 255
-0.140053 -0.268560 -0.240124 195 98 93 255
-0.140053 -0.053154 0.048320 194 75 72 255
-0.560294 -0.053154 0.048321 194 95 90 255
-0.407721 -0.541022 0.487909 188 122 85 255
-0.046956 -0.044624 -0.193277 194 108 88 255
0.257513 -0.271997 -0.193277 194 108 88 255
-0.560294 0.010945 0.000452 194 95 90 255
-0.140053 0.010945 0.000452 194 95 90 255
0.047664 -0.053154 -0.140053 194 75 72 255
0.536033 -0.459788 0.140471 187 107 88 255
-0.070000 -0.036134 0.012373 170 109 73 255
0.431861 -0.481120 0.328460 187 119 80 255
-0.500000 -0.481120 0.328461 187 119 80 255
-0.500000 -0.401047 0.388363 187 119 80 255
0.431861 -0.401047 0.388363 187 119 80 255
0.305381 -0.207898 -0.193277 194 108 88 255
0.000912 0.019475 -0.193277 194 108 88 255
0.000692 -0.044624 0.047768 194 108 88 255
-0.419463 -0.461399 -0.535220 187 87 82 255
-0.070000 -0.135129 0.111368 171 109 72 255
-0.488008 -0.523886 0.376435 187 108 89 255
-0.199564 -0.308480 0.140471 187 107 88 255
-0.199564 -0.308480 0.556250 187 107 88 255
-0.488008 -0.523886 0.556250 187 107 88 255
0.560374 -0.451990 0.194816 187 88 74 255
0.512506 -0.516089 0.194816 187 88 74 255
-0.467624 -0.460949 0.487909 187 119 80 255
-0.535876 -0.459788 0.376435 187 107 88 255
-0.247432 -0.244381 0.140471 187 107 88 255
0.247588 -0.245993 -0.140060 187 87 82 255
0.199720 -0.310092 -0.140060 187 87 82 255
0.488165 -0.525498 -0.140060 187 88 83 255
0.536033 -0.461399 -0.140060 187 87 82 255
-0.560302 -0.461399 -0.535220 187 87 82 255
-0.000204 0.013706 0.140070 187 98 84 255
-0.288648 -0.201700 0.140070 187 98 84 255
-0.288648 -0.201700 0.555848 187 98 84 255
-0.000204 0.013706 0.555848 187 98 84 255
0.224062 -0.300683 0.194816 187 88 74 255
-0.247432 -0.244381 0.556250 190 116 99 255
-0.535876 -0.459788 0.556250 187 107 88 255
0.023607 -0.028177 -0.012893 170 108 72 255
0.023607 -0.127172 -0.111888 170 108 72 255
-0.560302 -0.245993 0.248244 187 87 82 255
-0.140060 -0.245993 0.248244 187 87 82 255
0.387707 -0.401047 0.487909 187 119 80 255
0.467780 -0.460949 0.487909 187 119 80 255
-0.140053 -0.204462 -0.287992 194 95 90 255
-0.560294 -0.204462 -0.287992 194 95 90 255
-0.412209 -0.461399 0.536689 187 87 82 255
-0.560301 -0.461399 0.536689 187 87 82 255
-0.492965 -0.516945 -0.070000 172 113 80 255
-0.000204 0.010945 -0.140053 194 95 90 255
0.000692 -0.271997 -0.256701 194 108 88 255
0.488165 -0.523886 0.140472 187 108 89 255
0.467780 -0.460949 -0.500000 187 119 80 255
0.387707 -0.401047 -0.500000 187 119 80 255
-0.047508 -0.050393 0.558176 187 98 84 255
-0.488008 -0.525498 -0.413493 187 88 83 255
-0.199564 -0.310092 -0.140060 187 87 82 255
0.000692 0.019475 0.001568 194 108 88 255
0.239603 -0.334213 0.194557 188 122 85 255
0.239603 -0.274311 0.114484 187 119 80 255
0.239603 -0.194238 0.174386 187 119 80 255
0.239603 -0.254140 0.254459 187 119 80 255
0.271930 -0.236584 0.194816 187 88 74 255
0.253803 -0.254140 -0.500000 187 119 80 255
0.253803 -0.254140 0.487909 187 119 80 255
0.173730 -0.194238 0.487909 187 119 80 255
0.173730 -0.194238 -0.500000 187 119 80 255
-0.173574 -0.194238 -0.500000 187 119 80 255
-0.253647 -0.254140 -0.500000 187 119 80 255
-0.253647 -0.254140 0.487909 187 119 80 255
-0.173574 -0.194238 0.487909 187 119 80 255
4 0 1 2 3
4 4 5 6 7
4 8 9 10 11
4 12 13 14 15
4 16 17 18 19
4 20 21 22 23
4 24 25 26 27
4 28 29 30 31
4 32 33 34 35
4 15 14 36 37
4 34 38 39 35
4 40 41 42 43
4 44 45 46 47
4 48 49 50 51
4 19 18 52 53
4 54 55 56 57
4 58 59 60 61
4 22 21 62 63
4 64 65 43 42
4 66 67 48 51
4 68 69 70 71
4 72 73 74 75
4 76 77 78 79
4 80 81 60 59
4 82 83 84 85
4 53 52 86 87
4 88 89 6 5
4 70 69 90 91
4 92 93 94 95
4 96 97 98 99
4 100 101 102 103
4 25 24 104 105
4 106 107 82 85
4 41 108 64 42
4 109 110 33 32
4 7 111 112 4
4 29 113 114 30
4 107 115 83 82
4 19 53 87 16
4 116 117 118 119
4 120 100 103 121
4 21 20 122 62
4 116 123 124 117
4 52 18 17 86
4 125 126 127 128
4 122 20 23 129
4 47 46 130 131
4 132 133 134 135
4 117 124 136 118
4 137 138 139 140
4 141 142 143 144
4 69 68 145 90
4 11 10 146 147
4 148 144 143 149
4 120 150 101 100
4 29 28 151 113
4 12 15 37 152
4 109 39 38 110
4 153 154 155 156
4 9 8 157 158
4 51 50 159 66
4 80 59 58 160
4 152 37 36 161
4 32 35 39 109
4 162 163 164 165
4 166 167 127 126
4 168 145 68 71
4 163 162 169 170
4 161 36 14 13
4 171 172 173 174
4 160 58 61 175
4 176 177 178 179
4 167 180 128 127
4 157 147 146 158
4 8 11 147 157
4 165 164 181 182
4 183 27 26 184
4 26 25 105 184
4 154 153 97 96
4 133 132 185 186
4 70 91 168 71
4 81 175 61 60
4 174 173 56 55
4 63 62 122 129
4 187 77 76 188
4 189 142 141 190
4 135 134 191 192
4 193 108 41 40
4 102 101 150 194
4 67 195 49 48
4 63 129 23 22
4 90 145 168 91
4 4 112 88 5
4 113 151 196 114
4 197 79 78 198
4 140 139 178 177
4 7 6 89 111
4 149 189 190 148
4 115 199 84 83
4 87 86 17 16
4 138 137 176 179
4 132 135 192 185
4 24 27 183 104
4 149 143 142 189
4 74 95 94 75
4 200 201 131 130
4 139 138 179 178
4 169 162 165 182
4 65 64 108 193
4 134 133 186 191
4 188 76 79 197
4 65 193 40 43
4 202 123 116 119
4 112 111 89 88
4 45 200 130 46
4 72 93 92 73
4 203 204 205 206
4 66 159 195 67
4 150 120 121 194
4 56 173 172 57
4 104 183 184 105
4 31 30 114 196
4 98 97 153 156
4 49 195 159 50
4 176 137 140 177
4 154 96 99 155
4 81 80 160 175
4 44 201 200 45
4 106 85 84 199
4 28 31 196 151
4 164 163 170 181
4 190 141 144 148
4 169 182 181 170
4 185 192 191 186
4 110 38 34 33
4 125 207 166 126
4 125 128 180 207
4 103 102 194 121
4 118 136 202 119
4 131 201 44 47
4 198 78 77 187
4 207 180 167 166
4 106 199 115 107
4 208 209 210 211
4 94 93 72 75
4 99 98 156 155
4 73 92 95 74
4 54 57 172 171
4 161 13 12 152
4 158 146 10 9
4 212 213 214 215
4 171 174 55 54
4 187 188 197 198
4 124 123 202 136
