ply
format ascii 1.0
comment Created by Blender 2.83.20 - www.blender.org, source file: 'rooftileddiagonalboth.blend'
element vertex 170
property float x
property float y
property float z
property float s
property float t
property uchar red
property uchar green
property uchar blue
property uchar alpha
element face 120
property list uchar uint vertex_indices
end_header
-0.500000 -0.500000 -0.500000 1.000000 0.000000 255 255 255 255
-0.500000 0.450000 -0.500000 1.000000 0.950000 255 255 255 255
0.500000 -0.500000 -0.500000 0.000000 0.000000 255 255 255 255
-0.500000 0.454259 -0.414547 -8.953559 -8.998271 171 109 72 255
-0.499152 -0.500148 -0.418872 -8.952875 -9.009844 171 109 72 255
0.475730 -0.500148 -0.418872 -8.974738 -9.006209 171 109 72 255
-0.499381 0.260004 -0.535160 -9.007437 -8.995277 223 206 197 255
0.499995 -0.499998 -0.535160 -9.007437 -8.995277 223 206 197 255
0.500053 -0.739998 -0.535160 -9.007437 -8.995277 224 208 199 255
0.499995 -0.499998 -0.495160 -9.007437 -8.995277 225 209 200 255
-0.499381 0.260004 -0.495160 -9.007437 -8.995277 227 212 204 255
0.500053 -0.739998 -0.495160 -9.007437 -8.995277 223 206 197 255
-0.499381 0.260004 0.494314 -9.007437 -8.995277 223 206 197 255
0.499995 -0.499998 0.494314 -9.007437 -8.995277 223 206 197 255
0.500053 -0.739998 0.494314 -9.007437 -8.995277 224 208 199 255
0.499995 -0.499998 0.534314 -9.007437 -8.995277 225 209 200 255
-0.499381 0.260004 0.534314 -9.007437 -8.995277 227 212 204 255
0.500053 -0.739998 0.534314 -9.007437 -8.995277 223 206 197 255
-0.499152 -0.499101 0.412995 -8.982085 -9.010065 171 109 72 255
-0.500000 0.450000 0.417322 -9.001512 -9.006106 171 109 72 255
0.475730 -0.499101 0.412995 -8.981163 -8.997521 171 109 72 255
-0.500000 0.450000 0.500000 0.000000 0.950000 255 255 255 255
-0.500000 -0.500000 0.500000 0.000000 0.000000 255 255 255 255
0.500000 -0.500000 0.500000 1.000000 0.000000 255 255 255 255
-0.253326 0.240401 0.500000 -8.976981 -9.016623 187 119 80 255
-0.253326 0.240401 -0.487909 -8.970784 -9.012219 187 119 80 255
-0.333399 0.300303 -0.487909 -8.970784 -9.016676 187 119 80 255
-0.333399 0.300303 0.500000 -8.978531 -9.013256 187 119 80 255
-0.008426 -0.021519 0.558097 -9.007437 -8.995277 195 96 78 255
-0.008426 -0.021519 0.161731 -9.007437 -8.995277 194 93 73 255
0.039442 0.042580 0.161731 -9.007437 -8.995277 194 93 73 255
0.039442 0.042580 0.558097 -9.007437 -8.995277 194 93 73 255
0.055093 0.057281 0.171031 -9.007437 -8.995277 194 111 91 255
0.055093 0.057281 -0.188969 -9.007437 -8.995277 194 111 91 255
-0.233352 0.272687 -0.188969 -9.007437 -8.995277 194 111 91 255
-0.233352 0.272687 0.171031 -9.007437 -8.995277 194 111 91 255
0.240780 -0.265799 -0.183088 -9.007437 -8.995277 187 98 84 255
0.240780 -0.265799 -0.555848 -9.007437 -8.995277 187 98 84 255
0.288648 -0.201700 -0.555848 -9.007437 -8.995277 187 98 84 255
0.288648 -0.201700 -0.183088 -9.007437 -8.995277 187 98 84 255
-0.253098 0.251200 -0.179580 -9.007437 -8.995277 194 101 81 255
-0.300966 0.187101 -0.179580 -9.007437 -8.995277 194 101 81 255
-0.012522 -0.028305 -0.179580 -9.007437 -8.995277 200 121 106 255
0.035346 0.035793 -0.179580 -9.007437 -8.995277 195 102 82 255
-0.231929 0.229491 0.165184 -9.007437 -8.995277 194 107 83 255
-0.536399 0.456864 0.165184 -9.007437 -8.995277 194 107 82 255
-0.536399 0.456864 -0.194816 -9.007437 -8.995277 194 107 82 255
-0.231929 0.229491 -0.194816 -9.007437 -8.995277 199 120 100 255
0.007225 -0.006817 0.171031 -9.007437 -8.995277 194 111 91 255
0.007225 -0.006817 -0.188969 -9.007437 -8.995277 194 111 91 255
0.387551 -0.401046 0.500000 -8.949780 -9.076591 187 119 80 255
0.467624 -0.460949 0.500000 -8.950081 -9.074210 187 119 80 255
0.467624 -0.460949 -0.487909 -8.950055 -8.997552 187 119 80 255
0.387551 -0.401046 -0.487909 -8.949511 -8.996961 187 119 80 255
0.240780 -0.268560 0.558072 -9.007437 -8.995277 194 95 90 255
-0.047664 -0.053154 0.558072 -9.007437 -8.995277 194 95 90 255
-0.047664 -0.053154 0.153030 -9.007437 -8.995277 194 75 72 255
0.240780 -0.268560 0.153030 -9.007437 -8.995277 195 98 93 255
0.253647 -0.254140 0.500000 -8.999892 -9.016458 187 119 80 255
0.253647 -0.254140 -0.487909 -9.007323 -9.014331 187 119 80 255
0.173574 -0.194237 -0.487909 -9.003858 -9.016774 187 119 80 255
0.173574 -0.194237 0.500000 -8.999892 -9.012422 187 119 80 255
-0.537058 0.448019 -0.181466 -9.007437 -8.995277 187 85 69 255
-0.248613 0.232613 -0.181466 -9.007437 -8.995277 187 85 69 255
-0.200745 0.296712 -0.181466 -9.007437 -8.995277 187 85 69 255
-0.489190 0.512118 -0.181466 -9.007437 -8.995277 187 85 69 255
0.488009 -0.523886 -0.184464 -9.007437 -8.995277 187 108 89 255
0.488009 -0.523886 -0.556250 -9.007437 -8.995277 187 107 88 255
0.535877 -0.459787 -0.556250 -9.007437 -8.995277 187 107 88 255
0.535877 -0.459787 -0.184464 -9.007437 -8.995277 187 107 88 255
0.113672 -0.274310 -0.487909 -8.999995 -9.014537 187 119 80 255
0.113672 -0.274310 0.500000 -9.007427 -9.012409 187 119 80 255
-0.544098 0.445258 0.558047 -9.007437 -8.995277 187 92 87 255
-0.544098 0.445258 0.156541 -9.007437 -8.995277 187 92 87 255
-0.255654 0.229852 0.156541 -9.007437 -8.995277 187 92 87 255
-0.255654 0.229852 0.558047 -9.007437 -8.995277 187 92 87 255
0.441435 -0.568476 0.070000 -9.007437 -8.995277 172 113 80 255
0.441435 -0.568476 -0.070000 -9.007437 -8.995277 174 116 85 255
-0.558565 0.431524 -0.070000 -9.007437 -8.995277 170 108 72 255
-0.558565 0.431524 0.070000 -9.007437 -8.995277 170 109 73 255
0.199564 -0.308480 -0.556250 -9.007437 -8.995277 187 107 88 255
0.199564 -0.308480 -0.184464 -9.007437 -8.995277 187 107 88 255
0.247432 -0.244381 -0.184464 -9.007437 -8.995277 187 107 88 255
0.247432 -0.244381 -0.556250 -9.007437 -8.995277 190 116 99 255
-0.313229 0.160328 0.500000 -8.971941 -9.015106 188 123 86 255
-0.313229 0.160328 -0.487909 -8.978971 -9.012003 188 122 85 255
-0.296870 0.193888 0.161731 -9.007437 -8.995277 194 93 73 255
-0.249002 0.257986 0.161731 -9.007437 -8.995277 195 95 75 255
0.488009 -0.525497 0.140060 -9.007437 -8.995277 187 88 83 255
0.199564 -0.310091 0.140060 -9.007437 -8.995277 187 87 82 255
0.247432 -0.245993 0.140060 -9.007437 -8.995277 187 87 82 255
0.535877 -0.461399 0.140060 -9.007437 -8.995277 187 87 82 255
-0.253098 0.251200 -0.555982 -9.007437 -8.995277 194 101 81 255
-0.300966 0.187101 -0.555982 -9.007437 -8.995277 194 101 81 255
-0.393302 0.220230 -0.487909 -8.977165 -9.015127 187 119 80 255
-0.393302 0.220230 0.500000 -8.972753 -9.011996 187 119 80 255
0.199564 -0.310091 0.558079 -9.007437 -8.995277 187 87 82 255
0.488009 -0.525497 0.558079 -9.007437 -8.995277 187 87 82 255
0.535877 -0.461399 0.558079 -9.007437 -8.995277 187 87 82 255
0.247432 -0.245993 0.558079 -9.007437 -8.995277 187 87 82 255
-0.281220 0.208589 -0.188969 -9.007437 -8.995277 194 99 72 255
-0.207786 0.293951 0.558047 -9.007437 -8.995277 187 92 87 255
-0.207786 0.293951 0.156541 -9.007437 -8.995277 187 92 87 255
-0.496230 0.509357 0.156541 -9.007437 -8.995277 187 93 88 255
-0.496230 0.509357 0.558047 -9.007437 -8.995277 187 92 87 255
0.000204 0.010945 0.153030 -9.007437 -8.995277 194 95 90 255
0.288648 -0.204461 0.153030 -9.007437 -8.995277 194 95 90 255
-0.047664 -0.050392 -0.183089 -9.007437 -8.995277 186 97 83 255
-0.047664 -0.050392 -0.555848 -9.007437 -8.995277 187 98 84 255
-0.012522 -0.028305 -0.555982 -9.007437 -8.995277 196 107 90 255
0.035346 0.035793 -0.555982 -9.007437 -8.995277 194 101 81 255
0.223906 -0.300683 0.165184 -9.007437 -8.995277 187 88 74 255
0.512350 -0.516089 0.165184 -9.007437 -8.995277 187 88 74 255
0.560218 -0.451990 0.165184 -9.007437 -8.995277 187 88 74 255
0.271774 -0.236584 0.165184 -9.007437 -8.995277 187 88 74 255
0.000204 0.010945 0.558072 -9.007437 -8.995277 194 95 90 255
-0.047112 -0.044624 0.161116 -9.007437 -8.995277 194 108 88 255
-0.047112 -0.044624 -0.198884 -9.007437 -8.995277 194 108 88 255
0.257357 -0.271997 -0.198884 -9.007437 -8.995277 194 108 88 255
0.257357 -0.271997 0.161116 -9.007437 -8.995277 194 108 88 255
-0.296870 0.193888 0.558097 -9.007437 -8.995277 194 93 73 255
-0.249002 0.257986 0.558097 -9.007437 -8.995277 194 93 73 255
0.288648 -0.204461 0.558072 -9.007437 -8.995277 194 95 90 255
-0.606029 0.384060 -0.070000 -9.007437 -8.995277 170 108 72 255
-0.606029 0.384060 0.070000 -9.007437 -8.995277 171 109 72 255
0.000204 0.013706 -0.555848 -9.007437 -8.995277 187 98 84 255
-0.281220 0.208589 0.171031 -9.007437 -8.995277 194 99 72 255
0.000204 0.013706 -0.183089 -9.007437 -8.995277 187 98 84 255
0.512350 -0.516089 -0.194816 -9.007437 -8.995277 187 88 74 255
0.223906 -0.300683 -0.194816 -9.007437 -8.995277 187 88 74 255
0.271774 -0.236584 -0.194816 -9.007437 -8.995277 187 88 74 255
0.560218 -0.451990 -0.194816 -9.007437 -8.995277 187 88 74 255
0.393971 -0.615940 -0.070000 -9.007437 -8.995277 170 108 72 255
0.393971 -0.615940 0.070000 -9.007437 -8.995277 170 108 72 255
-0.488530 0.520963 0.165184 -9.007437 -8.995277 194 107 82 255
-0.184061 0.293589 0.165184 -9.007437 -8.995277 194 107 82 255
0.407722 -0.541022 0.500000 -8.949806 -9.073399 188 123 86 255
0.327648 -0.481120 0.500000 -8.949511 -9.074186 187 119 80 255
0.327648 -0.481120 -0.487909 -8.950047 -8.995283 187 119 80 255
0.407722 -0.541022 -0.487909 -8.950588 -8.996938 188 122 85 255
-0.200745 0.296712 -0.555900 -9.007437 -8.995277 187 85 69 255
-0.489189 0.512118 -0.555900 -9.007437 -8.995277 187 85 69 255
0.000756 0.019475 0.161116 -9.007437 -8.995277 194 108 88 255
0.000756 0.019475 -0.198884 -9.007437 -8.995277 194 108 88 255
-0.083366 0.057177 -0.487909 -8.948425 -9.074323 187 119 80 255
-0.143269 -0.022896 -0.487909 -8.948695 -9.076703 187 119 80 255
-0.143269 -0.022896 0.500000 -8.948963 -8.995283 187 119 80 255
-0.083366 0.057177 0.500000 -8.949491 -8.996935 187 119 80 255
-0.063195 -0.082798 -0.487909 -8.948982 -9.074324 188 122 85 255
-0.063195 -0.082798 0.500000 -8.948425 -8.996934 188 123 86 255
-0.003293 -0.002725 0.500000 -8.948956 -8.997532 187 119 80 255
-0.003293 -0.002725 -0.487909 -8.948706 -9.073528 187 119 80 255
-0.184061 0.293589 -0.194816 -9.007437 -8.995277 194 107 82 255
-0.488530 0.520963 -0.194816 -9.007437 -8.995277 194 107 82 255
-0.500013 0.500003 0.534314 -9.007437 -8.995277 223 206 197 255
-0.500013 0.500003 0.494314 -9.007437 -8.995277 223 206 197 255
0.305225 -0.207898 0.161116 -9.007437 -8.995277 194 108 88 255
0.305225 -0.207898 -0.198884 -9.007437 -8.995277 194 108 88 255
-0.248613 0.232613 -0.555900 -9.007437 -8.995277 187 85 69 255
-0.537058 0.448019 -0.555900 -9.007437 -8.995277 187 85 69 255
-0.500013 0.500003 -0.495160 -9.007437 -8.995277 223 206 197 255
-0.500013 0.500003 -0.535160 -9.007437 -8.995277 223 206 197 255
0.193745 -0.334213 -0.487909 -9.003461 -9.012094 188 122 85 255
0.193745 -0.334213 0.500000 -9.007427 -9.016446 188 123 86 255
-0.500000 -0.500000 0.500000 -8.978991 -9.012082 171 109 72 255
-0.500000 0.450000 0.500000 -9.007427 -9.006701 171 109 72 255
-0.500000 -0.500000 -0.500000 -8.950608 -9.011985 171 109 72 255
0.500000 -0.500000 -0.500000 -8.978971 -9.006618 171 109 72 255
0.500000 -0.500000 0.500000 -8.978991 -8.995283 171 109 72 255
-0.500000 0.450000 -0.500000 -8.950608 -8.995283 171 109 72 255
3 0 1 2
3 3 4 5
3 6 7 8
3 9 10 11
3 12 13 14
3 15 16 17
3 18 19 20
3 21 22 23
4 24 25 26 27
4 28 29 30 31
4 32 33 34 35
4 36 37 38 39
4 40 41 42 43
4 44 45 46 47
4 48 49 33 32
4 50 51 52 53
4 54 55 56 57
4 58 59 60 61
4 62 63 64 65
4 66 67 68 69
4 70 71 61 60
4 72 73 74 75
4 76 77 78 79
4 80 81 82 83
4 84 85 25 24
4 29 86 87 30
4 88 89 90 91
4 92 93 41 40
4 94 95 27 26
4 96 97 98 99
4 14 17 16 12
4 49 100 34 33
4 17 14 13 15
4 101 102 103 104
4 57 56 105 106
4 36 107 108 37
4 42 109 110 43
4 111 112 113 114
4 56 55 115 105
4 116 117 118 119
4 86 120 121 87
4 122 106 105 115
4 79 78 123 124
4 37 108 125 38
4 126 100 49 48
4 107 36 39 127
4 74 73 103 102
4 128 129 130 131
4 39 38 125 127
4 120 28 31 121
4 72 75 101 104
4 42 41 93 109
4 123 132 133 124
4 77 132 123 78
4 28 120 86 29
4 81 80 67 66
4 134 45 44 135
4 136 137 138 139
4 64 140 141 65
4 98 91 90 99
4 43 110 92 40
4 112 128 131 113
4 117 116 142 143
4 144 145 146 147
4 146 145 148 149
4 150 151 144 147
4 113 131 130 114
4 108 107 127 125
4 84 95 94 85
4 82 81 66 69
4 73 72 104 103
4 135 152 153 134
4 154 155 12 16
4 55 54 122 115
4 100 126 35 34
4 156 157 143 142
4 158 159 141 140
4 31 30 87 121
4 63 62 159 158
4 110 109 93 92
4 96 89 88 97
4 76 133 132 77
4 97 88 91 98
4 124 133 76 79
4 160 9 7 161
4 129 111 114 130
4 138 137 50 53
4 111 129 128 112
4 149 148 151 150
4 82 69 68 83
4 135 44 47 152
4 71 70 162 163
4 90 89 96 99
4 67 80 83 68
4 126 48 32 35
4 54 57 106 122
4 116 119 156 142
4 156 119 118 157
4 136 139 52 51
4 163 162 59 58
4 19 18 164 165
4 4 166 167 5
4 168 20 19 165
3 6 161 7
4 15 13 155 154
3 9 160 10
4 8 11 10 6
4 141 159 62 65
4 9 11 8 7
3 12 155 13
4 101 75 74 102
3 15 154 16
4 47 46 153 152
4 160 161 6 10
4 169 166 4 3
4 5 167 169 3
4 164 18 20 168
4 46 45 134 153
4 63 158 140 64
4 118 117 143 157
