ply
format ascii 1.0
comment Created by Blender 2.83.20 - www.blender.org, source file: 'roofdiagonal.blend'
element vertex 152
property float x
property float y
property float z
property float s
property float t
property uchar red
property uchar green
property uchar blue
property uchar alpha
element face 114
property list uchar uint vertex_indices
end_header
-0.070000 -0.615940 0.393971 -10.000000 -9.999999 170 108 72 255
-0.070000 0.384060 -0.606029 -10.000000 -9.999999 171 109 72 255
0.070000 0.384060 -0.606029 -10.000000 -9.999999 170 108 72 255
0.070000 -0.615940 0.393971 -10.000000 -9.999999 170 108 72 255
0.070000 0.434109 -0.555980 -10.000000 -9.999999 170 108 72 255
0.070000 -0.565891 0.444020 -10.000000 -9.999999 174 116 85 255
-0.070000 0.434109 -0.555980 -10.000000 -9.999999 170 109 73 255
-0.070000 -0.565891 0.444020 -10.000000 -9.999999 172 113 80 255
-0.536243 0.445258 -0.544098 -10.000000 -9.999999 187 92 87 255
-0.536243 0.509357 -0.496230 -10.000000 -9.999999 187 92 87 255
-0.164527 0.509357 -0.496230 -10.000000 -9.999999 187 93 88 255
-0.164527 0.445258 -0.544098 -10.000000 -9.999999 187 92 87 255
-0.164527 0.293951 -0.207786 -10.000000 -9.999999 187 92 87 255
-0.164527 0.229852 -0.255654 -10.000000 -9.999999 187 92 87 255
-0.536243 0.293951 -0.207786 -10.000000 -9.999999 187 92 87 255
-0.536243 0.229852 -0.255654 -10.000000 -9.999999 187 92 87 255
-0.536293 0.193888 -0.296870 -10.000000 -9.999999 194 93 73 255
-0.536293 0.257986 -0.249002 -10.000000 -9.999999 194 93 73 255
-0.169694 0.257986 -0.249002 -10.000000 -9.999999 195 95 75 255
-0.169694 0.193888 -0.296870 -10.000000 -9.999999 194 93 73 255
-0.169694 0.042580 0.039442 -10.000000 -9.999999 194 93 73 255
-0.169694 -0.021519 -0.008426 -10.000000 -9.999999 194 93 73 255
-0.536293 0.042580 0.039442 -10.000000 -9.999999 194 93 73 255
-0.536293 -0.021519 -0.008426 -10.000000 -9.999999 195 96 78 255
-0.536268 -0.053154 -0.047664 -10.000000 -9.999999 194 95 90 255
-0.536268 0.010945 0.000204 -10.000000 -9.999999 194 95 90 255
-0.155803 0.010945 0.000204 -10.000000 -9.999999 194 95 90 255
-0.155803 -0.053154 -0.047664 -10.000000 -9.999999 194 75 72 255
-0.155803 -0.204461 0.288648 -10.000000 -9.999999 194 95 90 255
-0.155803 -0.268560 0.240780 -10.000000 -9.999999 195 98 93 255
-0.536268 -0.204461 0.288648 -10.000000 -9.999999 194 95 90 255
-0.536268 -0.268560 0.240780 -10.000000 -9.999999 194 95 90 255
-0.536276 -0.310091 0.199564 -10.000000 -9.999999 187 87 82 255
-0.536276 -0.245993 0.247432 -10.000000 -9.999999 187 87 82 255
-0.160832 -0.245993 0.247432 -10.000000 -9.999999 187 87 82 255
-0.160832 -0.310091 0.199564 -10.000000 -9.999999 187 87 82 255
-0.160832 -0.461399 0.535877 -10.000000 -9.999999 187 87 82 255
-0.160832 -0.525497 0.488008 -10.000000 -9.999999 187 88 83 255
-0.536276 -0.461399 0.535877 -10.000000 -9.999999 187 87 82 255
-0.536276 -0.525497 0.488008 -10.000000 -9.999999 187 87 82 255
0.191517 -0.308480 0.199564 -10.000000 -9.999999 187 107 88 255
0.191517 -0.244381 0.247432 -10.000000 -9.999999 187 107 88 255
0.500472 -0.244381 0.247432 -10.000000 -9.999999 190 116 99 255
0.500472 -0.308480 0.199564 -10.000000 -9.999999 187 107 88 255
0.500472 -0.459787 0.535877 -10.000000 -9.999999 187 107 88 255
0.500472 -0.523886 0.488008 -10.000000 -9.999999 187 107 88 255
0.191518 -0.459787 0.535877 -10.000000 -9.999999 187 107 88 255
0.191517 -0.523886 0.488008 -10.000000 -9.999999 187 108 89 255
0.184319 -0.050392 -0.047664 -10.000000 -9.999999 186 97 83 255
0.184319 0.013706 0.000204 -10.000000 -9.999999 187 98 84 255
0.500070 0.013706 0.000204 -10.000000 -9.999999 187 98 84 255
0.500070 -0.050392 -0.047664 -10.000000 -9.999999 187 98 84 255
0.500070 -0.201700 0.288648 -10.000000 -9.999999 187 98 84 255
0.500070 -0.265799 0.240780 -10.000000 -9.999999 187 98 84 255
0.184319 -0.201700 0.288648 -10.000000 -9.999999 187 98 84 255
0.184319 -0.265799 0.240780 -10.000000 -9.999999 187 98 84 255
0.179960 0.187101 -0.300966 -10.000000 -9.999999 194 101 81 255
0.179960 0.251200 -0.253098 -10.000000 -9.999999 194 101 81 255
0.500204 0.251200 -0.253098 -10.000000 -9.999999 194 101 81 255
0.500204 0.187101 -0.300966 -10.000000 -9.999999 194 101 81 255
0.500204 0.035793 0.035346 -10.000000 -9.999999 194 101 81 255
0.500204 -0.028305 -0.012522 -10.000000 -9.999999 196 107 90 255
0.179960 0.035793 0.035346 -10.000000 -9.999999 195 102 82 255
0.179960 -0.028305 -0.012522 -10.000000 -9.999999 200 121 106 255
0.182997 0.448019 -0.537058 -10.000000 -9.999999 187 85 69 255
0.182997 0.512118 -0.489189 -10.000000 -9.999999 187 85 69 255
0.500122 0.512118 -0.489189 -10.000000 -9.999999 187 85 69 255
0.500122 0.448019 -0.537057 -10.000000 -9.999999 187 85 69 255
0.500122 0.296712 -0.200745 -10.000000 -9.999999 187 85 69 255
0.500122 0.232613 -0.248613 -10.000000 -9.999999 187 85 69 255
0.182997 0.296712 -0.200745 -10.000000 -9.999999 187 85 69 255
0.182997 0.232613 -0.248613 -10.000000 -9.999999 187 85 69 255
-0.165184 -0.300683 0.223906 -10.000000 -9.999999 187 88 74 255
-0.165184 -0.236584 0.271774 -10.000000 -9.999999 187 88 74 255
0.194816 -0.236584 0.271774 -10.000000 -9.999999 187 88 74 255
0.194816 -0.300683 0.223906 -10.000000 -9.999999 187 88 74 255
0.194816 -0.451990 0.560218 -10.000000 -9.999999 187 88 74 255
0.194816 -0.516089 0.512350 -10.000000 -9.999999 187 88 74 255
-0.165184 -0.451990 0.560218 -10.000000 -9.999999 187 88 74 255
-0.165184 -0.516089 0.512350 -10.000000 -9.999999 187 88 74 255
-0.161116 -0.044624 -0.047112 -10.000000 -9.999999 194 108 88 255
-0.161116 0.019475 0.000756 -10.000000 -9.999999 194 108 88 255
0.198884 0.019475 0.000756 -10.000000 -9.999999 194 108 88 255
0.198884 -0.044624 -0.047112 -10.000000 -9.999999 194 108 88 255
0.198884 -0.207898 0.305225 -10.000000 -9.999999 194 108 88 255
0.198884 -0.271997 0.257357 -10.000000 -9.999999 194 108 88 255
-0.161116 -0.207898 0.305225 -10.000000 -9.999999 194 108 88 255
-0.161116 -0.271997 0.257357 -10.000000 -9.999999 194 108 88 255
-0.171031 0.208589 -0.281220 -10.000000 -9.999999 194 99 72 255
-0.171031 0.272687 -0.233352 -10.000000 -9.999999 194 111 91 255
0.188969 0.272687 -0.233352 -10.000000 -9.999999 194 111 91 255
0.188969 0.208589 -0.281220 -10.000000 -9.999999 194 99 72 255
0.188969 0.057281 0.055093 -10.000000 -9.999999 194 111 91 255
0.188969 -0.006817 0.007225 -10.000000 -9.999999 194 111 91 255
-0.171031 0.057281 0.055093 -10.000000 -9.999999 194 111 91 255
-0.171031 -0.006817 0.007225 -10.000000 -9.999999 194 111 91 255
-0.165184 0.456864 -0.536398 -10.000000 -9.999999 194 107 82 255
-0.165184 0.520963 -0.488530 -10.000000 -9.999999 194 107 82 255
0.194816 0.520963 -0.488530 -10.000000 -9.999999 194 107 82 255
0.194816 0.456864 -0.536398 -10.000000 -9.999999 194 107 82 255
0.194816 0.293589 -0.184061 -10.000000 -9.999999 194 107 82 255
0.194816 0.229491 -0.231929 -10.000000 -9.999999 199 120 100 255
-0.165184 0.293589 -0.184061 -10.000000 -9.999999 194 107 82 255
-0.165184 0.229491 -0.231929 -10.000000 -9.999999 194 107 83 255
-0.414353 0.220230 -0.393302 -10.000000 -9.999999 187 119 80 255
-0.414353 0.300303 -0.333399 -10.000000 -9.999999 187 119 80 255
0.499344 0.300303 -0.333399 -10.000000 -9.999999 187 119 80 255
0.499344 0.220230 -0.393302 -10.000000 -9.999999 187 119 80 255
0.499344 0.240401 -0.253326 -10.000000 -9.999999 187 119 80 255
0.499344 0.160328 -0.313229 -10.000000 -9.999999 188 122 85 255
-0.414353 0.240401 -0.253326 -10.000000 -9.999999 187 119 80 255
-0.414353 0.160328 -0.313229 -10.000000 -9.999999 188 123 86 255
-0.414353 -0.022896 -0.143268 -10.000000 -9.999999 187 119 80 255
-0.414353 0.057177 -0.083366 -10.000000 -9.999999 187 119 80 255
0.499344 0.057177 -0.083366 -10.000000 -9.999999 187 119 80 255
0.499344 -0.022896 -0.143269 -10.000000 -9.999999 187 119 80 255
0.499344 -0.002725 -0.003293 -10.000000 -9.999999 187 119 80 255
0.499344 -0.082798 -0.063195 -10.000000 -9.999999 188 122 85 255
-0.414353 -0.002725 -0.003293 -10.000000 -9.999999 187 119 80 255
-0.414353 -0.082798 -0.063195 -10.000000 -9.999999 188 123 86 255
-0.414353 -0.274310 0.113672 -10.000000 -9.999999 187 119 80 255
-0.414353 -0.194237 0.173574 -10.000000 -9.999999 187 119 80 255
0.499344 -0.194237 0.173574 -10.000000 -9.999999 187 119 80 255
0.499344 -0.274310 0.113672 -10.000000 -9.999999 187 119 80 255
0.499344 -0.254140 0.253647 -10.000000 -9.999999 187 119 80 255
0.499344 -0.334213 0.193745 -10.000000 -9.999999 188 122 85 255
-0.414353 -0.254140 0.253647 -10.000000 -9.999999 187 119 80 255
-0.414353 -0.334213 0.193745 -10.000000 -9.999999 188 123 86 255
-0.414353 -0.481120 0.327648 -10.000000 -9.999999 187 119 80 255
-0.414353 -0.401046 0.387551 -10.000000 -9.999999 187 119 80 255
0.499344 -0.401046 0.387551 -10.000000 -9.999999 187 119 80 255
0.499344 -0.481120 0.327648 -10.000000 -9.999999 187 119 80 255
0.499344 -0.460949 0.467624 -10.000000 -9.999999 187 119 80 255
0.499344 -0.541022 0.407721 -10.000000 -9.999999 188 122 85 255
-0.414353 -0.460949 0.467624 -10.000000 -9.999999 187 119 80 255
-0.414353 -0.541022 0.407722 -10.000000 -9.999999 188 123 86 255
-0.500000 0.455000 -0.500000 0.000000 0.000000 255 255 255 255
-0.411283 0.454259 -0.499152 0.000000 0.000000 255 255 255 255
-0.415609 -0.500148 -0.499152 0.000000 0.000000 255 255 255 255
-0.500000 -0.500000 -0.500000 0.000000 0.000000 255 255 255 255
-0.415609 -0.500148 0.498821 0.000000 0.000000 255 255 255 255
-0.500000 -0.500000 0.500000 0.000000 0.000000 255 255 255 255
-0.500000 -0.500000 0.500000 1.000000 0.000000 255 255 255 255
-0.500000 0.455000 -0.500000 0.000000 0.950000 255 255 255 255
-0.529247 -0.739998 0.500053 -10.000000 -9.999999 223 206 197 255
-0.529247 0.260004 -0.499381 -10.000000 -9.999999 227 212 204 255
-0.489247 0.260004 -0.499381 -10.000000 -9.999999 223 206 197 255
-0.489247 -0.739998 0.500053 -10.000000 -9.999999 224 208 199 255
-0.489247 0.500003 -0.500013 -10.000000 -9.999999 223 206 197 255
-0.489247 -0.499998 0.499995 -10.000000 -9.999999 223 206 197 255
-0.529247 0.500003 -0.500013 -10.000000 -9.999999 223 206 197 255
-0.529247 -0.499998 0.499995 -10.000000 -9.999999 225 209 200 255
4 0 1 2 3
4 3 2 4 5
4 5 4 6 7
4 1 0 7 6
4 7 0 3 5
4 4 2 1 6
4 8 9 10 11
4 11 10 12 13
4 13 12 14 15
4 15 14 9 8
4 11 13 15 8
4 12 10 9 14
4 16 17 18 19
4 19 18 20 21
4 21 20 22 23
4 23 22 17 16
4 19 21 23 16
4 20 18 17 22
4 24 25 26 27
4 27 26 28 29
4 29 28 30 31
4 31 30 25 24
4 27 29 31 24
4 28 26 25 30
4 32 33 34 35
4 35 34 36 37
4 37 36 38 39
4 39 38 33 32
4 35 37 39 32
4 36 34 33 38
4 40 41 42 43
4 43 42 44 45
4 45 44 46 47
4 47 46 41 40
4 43 45 47 40
4 44 42 41 46
4 48 49 50 51
4 51 50 52 53
4 53 52 54 55
4 55 54 49 48
4 51 53 55 48
4 52 50 49 54
4 56 57 58 59
4 59 58 60 61
4 61 60 62 63
4 63 62 57 56
4 59 61 63 56
4 60 58 57 62
4 64 65 66 67
4 67 66 68 69
4 69 68 70 71
4 71 70 65 64
4 67 69 71 64
4 68 66 65 70
4 72 73 74 75
4 75 74 76 77
4 77 76 78 79
4 79 78 73 72
4 75 77 79 72
4 76 74 73 78
4 80 81 82 83
4 83 82 84 85
4 85 84 86 87
4 87 86 81 80
4 83 85 87 80
4 84 82 81 86
4 88 89 90 91
4 91 90 92 93
4 93 92 94 95
4 95 94 89 88
4 91 93 95 88
4 92 90 89 94
4 96 97 98 99
4 99 98 100 101
4 101 100 102 103
4 103 102 97 96
4 99 101 103 96
4 100 98 97 102
4 104 105 106 107
4 107 106 108 109
4 109 108 110 111
4 111 110 105 104
4 107 109 111 104
4 108 106 105 110
4 112 113 114 115
4 115 114 116 117
4 117 116 118 119
4 119 118 113 112
4 115 117 119 112
4 116 114 113 118
4 120 121 122 123
4 123 122 124 125
4 125 124 126 127
4 127 126 121 120
4 123 125 127 120
4 124 122 121 126
4 128 129 130 131
4 131 130 132 133
4 133 132 134 135
4 135 134 129 128
4 131 133 135 128
4 132 130 129 134
3 136 137 138
3 139 136 138
3 138 137 140
4 140 137 136 141
3 142 143 139
4 138 140 141 139
4 144 145 146 147
4 147 146 148 149
4 149 148 150 151
4 151 150 145 144
4 147 149 151 144
4 148 146 145 150
