ply
format ascii 1.0
comment Created by Blender 2.83.20 - www.blender.org, source file: 'rooftiledvboth.blend'
element vertex 172
property float x
property float y
property float z
property float s
property float t
property uchar red
property uchar green
property uchar blue
property uchar alpha
element face 131
property list uchar uint vertex_indices
end_header
-0.000064 -0.278745 -0.535161 -9.000005 -9.000003 223 206 197 255
-0.500209 -0.739998 -0.535160 -9.000001 -8.999999 224 208 199 255
-0.500151 -0.499998 -0.535160 -9.000001 -9.000002 223 206 197 255
-0.500151 -0.499998 -0.495160 -9.000001 -9.000002 225 209 200 255
-0.500209 -0.739998 -0.495160 -9.000001 -8.999999 223 206 197 255
-0.000064 -0.278745 -0.495161 -9.000005 -9.000003 227 212 204 255
-0.000091 -0.278744 -0.535161 -9.000005 -9.000003 223 206 197 255
0.499995 -0.499998 -0.535160 -9.000010 -9.000000 223 206 197 255
0.500053 -0.739998 -0.535160 -9.000010 -8.999997 224 208 199 255
0.499995 -0.499998 -0.495160 -9.000010 -8.999999 225 209 200 255
-0.000091 -0.278744 -0.495161 -9.000005 -9.000003 227 212 204 255
0.500053 -0.739998 -0.495160 -9.000010 -8.999996 223 206 197 255
-0.000078 -0.278744 0.497406 -8.999996 -9.000001 223 206 197 255
-0.500209 -0.739998 0.497406 -8.999992 -8.999996 224 208 199 255
-0.500151 -0.499998 0.497406 -8.999992 -8.999999 223 206 197 255
-0.500151 -0.499998 0.537406 -8.999991 -8.999999 225 209 200 255
-0.500209 -0.739998 0.537406 -8.999991 -8.999996 223 206 197 255
-0.000078 -0.278744 0.537406 -8.999996 -9.000001 227 212 204 255
0.499995 -0.499998 0.497406 -9.000001 -8.999997 223 206 197 255
0.500053 -0.739998 0.497406 -9.000001 -8.999994 224 208 199 255
0.499995 -0.499998 0.537406 -9.000000 -8.999997 225 209 200 255
0.500053 -0.739998 0.537406 -9.000000 -8.999994 223 206 197 255
-0.250000 -0.500000 -0.500000 0.750000 0.000000 255 255 255 255
0.000000 -0.250000 -0.500000 0.500000 0.250000 255 255 255 255
0.250000 -0.500000 -0.500000 0.250000 0.000000 255 255 255 255
0.013517 -0.265742 -0.473848 -9.000005 -9.000003 171 109 72 255
-0.245087 -0.500148 -0.477026 -9.000003 -9.000001 171 109 72 255
0.252932 -0.500148 -0.477026 -9.000007 -9.000000 171 109 72 255
-0.250689 -0.499101 0.471326 -8.999994 -8.999999 171 109 72 255
-0.005328 -0.262789 0.481687 -8.999996 -9.000001 171 109 72 255
0.243147 -0.499101 0.471326 -8.999998 -8.999998 171 109 72 255
0.000000 -0.250000 0.500000 0.500000 0.250000 255 255 255 255
-0.250000 -0.500000 0.500000 0.250000 0.000000 255 255 255 255
0.250000 -0.500000 0.500000 0.750000 0.000000 255 255 255 255
-0.000078 -0.050392 -0.184346 -9.000002 -9.000005 186 97 83 255
-0.000078 0.013706 -0.184346 -9.000002 -9.000006 187 98 84 255
-0.288804 -0.201700 -0.184346 -9.000000 -9.000004 187 98 84 255
-0.240936 -0.265799 -0.184346 -9.000000 -9.000003 187 98 84 255
-0.394127 -0.615940 0.070000 -8.999997 -8.999999 170 108 72 255
-0.001073 -0.263537 0.070000 -9.000000 -9.000002 171 109 72 255
0.000228 -0.146637 0.070000 -9.000000 -9.000004 170 109 73 255
-0.449604 -0.552821 0.070000 -8.999996 -9.000000 172 113 80 255
-0.288804 -0.204461 0.560294 -8.999993 -9.000002 194 95 90 255
-0.000078 0.010945 0.562373 -8.999995 -9.000004 194 95 90 255
-0.000078 0.010945 0.140053 -8.999999 -9.000005 194 95 90 255
-0.288804 -0.204461 0.140053 -8.999997 -9.000003 194 95 90 255
-0.250000 -0.500000 0.500000 -8.999994 -8.999999 171 109 72 255
0.000000 -0.250000 0.500000 -8.999996 -9.000001 171 109 72 255
-0.560374 -0.451990 -0.194816 -8.999998 -9.000002 187 88 74 255
-0.271930 -0.236584 -0.194816 -9.000000 -9.000004 187 88 74 255
-0.224062 -0.300683 -0.194816 -9.000000 -9.000003 187 88 74 255
-0.512506 -0.516089 -0.194816 -8.999998 -9.000001 187 88 74 255
-0.305381 -0.207898 0.161116 -8.999996 -9.000003 194 108 88 255
-0.000078 0.019475 0.161116 -8.999999 -9.000005 194 108 88 255
-0.000078 0.019475 -0.198884 -9.000002 -9.000006 194 108 88 255
-0.305381 -0.207898 -0.198884 -9.000000 -9.000004 194 108 88 255
-0.488165 -0.525497 0.140060 -8.999995 -9.000000 187 88 83 255
-0.536033 -0.461399 0.140060 -8.999995 -9.000001 187 87 82 255
-0.247588 -0.245993 0.140060 -8.999997 -9.000003 187 87 82 255
-0.199720 -0.310091 0.140060 -8.999998 -9.000002 187 87 82 255
-0.199720 -0.308480 -0.556250 -9.000004 -9.000004 187 107 88 255
-0.247588 -0.244381 -0.556250 -9.000003 -9.000004 190 116 99 255
-0.247588 -0.244381 -0.184747 -9.000000 -9.000004 187 107 88 255
-0.199720 -0.308480 -0.184747 -9.000001 -9.000003 187 107 88 255
0.223906 -0.300683 0.165184 -9.000001 -9.000001 187 88 74 255
0.223906 -0.300683 -0.194816 -9.000004 -9.000002 187 88 74 255
0.512350 -0.516089 -0.194816 -9.000007 -8.999998 187 88 74 255
0.512350 -0.516089 0.165184 -9.000004 -8.999997 187 88 74 255
0.535876 -0.459787 -0.556250 -9.000010 -9.000000 187 107 88 255
0.488008 -0.523886 -0.556250 -9.000010 -8.999999 187 107 88 255
0.199564 -0.308480 -0.556250 -9.000007 -9.000003 187 107 88 255
0.247432 -0.244381 -0.556250 -9.000008 -9.000003 190 116 99 255
-0.253803 -0.254140 0.500000 -8.999994 -9.000002 187 119 80 255
-0.253803 -0.254140 -0.501301 -9.000003 -9.000004 187 119 80 255
-0.193901 -0.334213 -0.501301 -9.000003 -9.000003 188 122 85 255
-0.193901 -0.334213 0.500000 -8.999994 -9.000000 188 123 86 255
-0.240936 -0.268560 0.560294 -8.999993 -9.000001 194 95 90 255
-0.240936 -0.268560 0.140053 -8.999997 -9.000002 195 98 93 255
-0.488164 -0.523886 -0.184748 -8.999998 -9.000001 187 108 89 255
-0.536033 -0.459787 -0.184747 -8.999998 -9.000002 187 107 88 255
-0.536033 -0.459787 -0.556250 -9.000001 -9.000002 187 107 88 255
-0.488165 -0.523886 -0.556250 -9.000001 -9.000002 187 107 88 255
-0.250000 -0.500000 -0.500000 -9.000003 -9.000001 171 109 72 255
0.250000 -0.500000 -0.500000 -9.000007 -9.000000 171 109 72 255
-0.257513 -0.271997 0.161116 -8.999997 -9.000002 194 108 88 255
-0.257513 -0.271997 -0.198884 -9.000000 -9.000003 194 108 88 255
-0.327804 -0.481120 -0.501100 -9.000002 -9.000002 187 119 80 255
-0.387707 -0.401046 -0.501100 -9.000002 -9.000003 187 119 80 255
-0.387707 -0.401046 0.500000 -8.999993 -9.000000 187 119 80 255
-0.327804 -0.481120 0.500000 -8.999993 -8.999999 187 119 80 255
0.000000 -0.250000 -0.500000 -9.000005 -9.000004 171 109 72 255
-0.247588 -0.245993 0.560302 -8.999993 -9.000002 187 87 82 255
-0.536033 -0.461399 0.560301 -8.999991 -9.000000 187 87 82 255
-0.488164 -0.525497 0.560301 -8.999991 -8.999999 187 87 82 255
-0.199720 -0.310091 0.560301 -8.999994 -9.000001 187 87 82 255
-0.000078 -0.053154 0.562373 -8.999995 -9.000003 194 95 90 255
0.240780 -0.268560 0.564452 -8.999998 -9.000000 194 95 90 255
0.288648 -0.204461 0.564452 -8.999998 -9.000001 194 95 90 255
-0.000078 -0.044624 0.161116 -8.999999 -9.000004 194 108 88 255
-0.407878 -0.541022 0.500000 -8.999992 -8.999999 188 123 86 255
-0.407878 -0.541022 -0.501100 -9.000002 -9.000001 188 122 85 255
0.113671 -0.274310 -0.499161 -9.000006 -9.000003 187 119 80 255
0.113671 -0.274310 0.500000 -8.999997 -9.000000 187 119 80 255
0.173574 -0.194237 0.500000 -8.999998 -9.000001 187 119 80 255
0.173574 -0.194237 -0.499161 -9.000007 -9.000004 187 119 80 255
0.560218 -0.451990 0.165184 -9.000004 -8.999998 187 88 74 255
0.271774 -0.236584 0.165184 -9.000002 -9.000002 187 88 74 255
-0.113828 -0.274310 -0.501301 -9.000004 -9.000004 187 119 80 255
-0.173730 -0.194237 -0.501301 -9.000004 -9.000005 187 119 80 255
-0.173730 -0.194237 0.500000 -8.999994 -9.000002 187 119 80 255
-0.113828 -0.274310 0.500000 -8.999995 -9.000001 187 119 80 255
-0.467780 -0.460949 0.500000 -8.999992 -9.000000 187 119 80 255
-0.467780 -0.460949 -0.501100 -9.000001 -9.000002 187 119 80 255
0.327648 -0.481120 -0.502909 -9.000008 -9.000000 187 119 80 255
0.327648 -0.481120 0.500000 -8.999999 -8.999997 187 119 80 255
0.387550 -0.401046 0.500000 -9.000000 -8.999998 187 119 80 255
0.387550 -0.401046 -0.502909 -9.000009 -9.000001 187 119 80 255
-0.000078 -0.044624 -0.198884 -9.000002 -9.000005 194 108 88 255
0.257357 -0.271997 -0.198884 -9.000005 -9.000002 194 108 88 255
0.257357 -0.271997 0.161116 -9.000001 -9.000001 194 108 88 255
0.199564 -0.308480 -0.184747 -9.000004 -9.000002 187 107 88 255
0.488008 -0.523886 -0.184748 -9.000007 -8.999998 187 108 89 255
-0.000078 -0.053154 0.140053 -8.999999 -9.000004 194 75 72 255
0.000228 -0.146637 -0.070000 -9.000001 -9.000004 170 108 72 255
-0.001073 -0.263537 -0.070000 -9.000001 -9.000002 170 108 72 255
-0.224062 -0.300683 0.165184 -8.999997 -9.000002 187 88 74 255
-0.271930 -0.236584 0.165184 -8.999997 -9.000003 187 88 74 255
-0.560374 -0.451990 0.165184 -8.999994 -9.000001 187 88 74 255
-0.512506 -0.516089 0.165184 -8.999995 -9.000000 187 88 74 255
0.393971 -0.615940 0.070000 -9.000004 -8.999997 170 108 72 255
0.393971 -0.615940 -0.070000 -9.000005 -8.999997 170 108 72 255
0.447711 -0.540848 -0.070000 -9.000005 -8.999998 174 116 85 255
0.447711 -0.540848 0.070000 -9.000004 -8.999998 172 113 80 255
-0.394127 -0.615940 -0.070000 -8.999998 -8.999999 170 108 72 255
0.199564 -0.310091 0.560302 -8.999997 -9.000000 187 87 82 255
0.488008 -0.525497 0.560301 -9.000000 -8.999996 187 87 82 255
0.535876 -0.461399 0.560301 -9.000000 -8.999997 187 87 82 255
0.247432 -0.245993 0.560302 -8.999998 -9.000000 187 87 82 255
0.488008 -0.525498 0.140060 -9.000004 -8.999997 187 88 83 255
0.535876 -0.461399 0.140060 -9.000004 -8.999998 187 87 82 255
-0.449604 -0.552821 -0.070000 -8.999997 -9.000000 174 116 85 255
-0.240936 -0.265799 -0.558176 -9.000004 -9.000004 187 98 84 255
-0.288804 -0.201700 -0.558176 -9.000003 -9.000005 187 98 84 255
-0.000078 0.013706 -0.557012 -9.000006 -9.000007 187 98 84 255
-0.000078 -0.050392 -0.557012 -9.000006 -9.000006 187 98 84 255
0.305225 -0.207898 -0.198884 -9.000005 -9.000003 194 108 88 255
0.535876 -0.459787 -0.184747 -9.000007 -8.999999 187 107 88 255
0.247432 -0.244381 -0.184747 -9.000004 -9.000002 187 107 88 255
0.467624 -0.460949 0.500000 -9.000000 -8.999997 187 119 80 255
0.467624 -0.460949 -0.502909 -9.000009 -9.000000 187 119 80 255
0.305225 -0.207898 0.161116 -9.000002 -9.000002 194 108 88 255
0.247432 -0.245993 0.140060 -9.000002 -9.000002 187 87 82 255
0.199564 -0.310091 0.140060 -9.000001 -9.000001 187 87 82 255
0.193745 -0.334213 0.500000 -8.999998 -9.000000 188 123 86 255
0.193745 -0.334213 -0.499161 -9.000007 -9.000002 188 122 85 255
0.253647 -0.254140 -0.499161 -9.000007 -9.000003 187 119 80 255
0.253647 -0.254140 0.500000 -8.999998 -9.000000 187 119 80 255
0.240780 -0.268560 0.140053 -9.000002 -9.000001 195 98 93 255
0.288648 -0.204461 0.140053 -9.000002 -9.000002 194 95 90 255
0.271774 -0.236584 -0.194816 -9.000005 -9.000002 187 88 74 255
0.407721 -0.541022 0.500000 -9.000000 -8.999997 188 123 86 255
0.407721 -0.541022 -0.502909 -9.000009 -8.999999 188 122 85 255
0.560218 -0.451990 -0.194816 -9.000007 -8.999999 187 88 74 255
0.288648 -0.201700 -0.555848 -9.000008 -9.000004 187 98 84 255
0.240780 -0.265799 -0.555848 -9.000008 -9.000003 187 98 84 255
0.240780 -0.265799 -0.184346 -9.000004 -9.000002 187 98 84 255
0.000675 -0.038746 -0.535160 -9.000005 -9.000006 223 206 197 255
0.000675 -0.038746 -0.495160 -9.000005 -9.000006 223 206 197 255
0.288648 -0.201700 -0.184346 -9.000005 -9.000003 187 98 84 255
0.000675 -0.038746 0.537406 -8.999996 -9.000004 223 206 197 255
0.000675 -0.038746 0.497406 -8.999996 -9.000004 223 206 197 255
0.250000 -0.500000 0.500000 -8.999998 -8.999997 171 109 72 255
3 0 1 2
3 3 4 5
3 6 7 8
3 9 10 11
3 12 13 14
3 15 16 17
3 12 18 19
3 20 17 21
3 22 23 24
3 25 26 27
3 28 29 30
3 31 32 33
4 34 35 36 37
4 38 39 40 41
4 42 43 44 45
4 29 28 46 47
4 48 49 50 51
4 52 53 54 55
4 56 57 58 59
4 60 61 62 63
4 64 65 66 67
4 68 69 70 71
4 72 73 74 75
4 76 42 45 77
4 78 79 80 81
4 26 82 83 27
4 11 8 7 9
4 84 52 55 85
4 86 87 88 89
4 27 83 90 25
4 91 92 93 94
4 95 96 97 43
4 98 53 52 84
4 89 99 100 86
4 101 102 103 104
4 64 67 105 106
4 43 42 76 95
4 107 108 109 110
4 62 79 78 63
4 111 112 100 99
4 113 114 115 116
4 98 84 85 117
4 98 117 118 119
4 120 70 69 121
4 45 44 122 77
4 40 123 124 39
4 8 11 10 6
4 125 126 127 128
4 129 130 131 132
4 133 124 39 38
4 134 135 136 137
4 13 12 17 16
4 135 138 139 136
4 128 127 48 51
4 93 92 57 56
4 38 41 140 133
4 80 61 60 81
4 141 142 143 144
4 35 143 142 36
4 41 40 123 140
4 129 132 40 39
4 118 117 54 145
4 123 124 133 140
4 120 121 146 147
4 93 56 59 94
4 148 149 116 115
4 121 69 68 146
4 150 145 54 53
4 151 152 134 137
4 153 154 155 156
4 96 157 158 97
4 59 58 91 94
4 50 49 126 125
4 119 118 145 150
4 76 77 122 95
4 65 64 106 159
4 157 122 44 158
4 102 101 154 153
4 160 161 149 148
4 16 15 14 13
4 139 138 152 151
4 106 105 162 159
4 37 141 144 34
4 163 164 144 143
4 67 66 162 105
4 1 0 5 4
4 72 109 108 73
4 111 88 87 112
4 34 144 164 165
4 92 91 58 57
4 9 7 166 167
4 125 128 51 50
4 168 163 143 35
4 15 169 170 14
4 130 129 39 124
4 97 158 44 43
4 85 55 54 117
4 21 19 18 20
4 156 155 104 103
4 162 66 65 159
4 98 119 150 53
4 132 131 123 40
4 126 49 48 127
4 135 134 152 138
4 62 61 80 79
4 95 122 157 96
4 37 36 142 141
3 0 2 166
4 110 75 74 107
3 3 5 167
4 136 139 151 137
4 19 21 17 12
3 6 166 7
4 20 18 170 169
3 9 167 10
4 78 81 60 63
4 35 34 165 168
3 12 14 170
4 3 167 166 2
3 15 17 169
4 165 164 163 168
3 12 170 18
4 4 3 2 1
3 20 169 17
4 146 68 71 147
4 171 30 29 47
4 46 28 30 171
4 90 82 26 25
4 123 131 130 124
4 114 113 161 160
4 70 120 147 71
