ply
format ascii 1.0
comment Created by Blender 2.83.20 - www.blender.org, source file: 'RoofCornerOutsideTest1.blend'
element vertex 192
property float x
property float y
property float z
property uchar red
property uchar green
property uchar blue
property uchar alpha
element face 149
property list uchar uint vertex_indices
end_header
-0.528969 -0.456232 -0.140060 187 87 82 255
-0.240525 -0.240825 -0.221145 187 87 82 255
-0.528969 -0.456232 -0.529242 187 87 82 255
0.499016 0.419561 0.499676 187 85 69 255
0.496096 0.517285 0.500122 187 85 69 255
0.499571 0.419976 0.500122 187 85 69 255
0.255520 0.237780 0.500122 187 85 69 255
0.207652 0.301879 0.500122 187 85 69 255
0.496096 0.517285 0.500296 187 85 69 255
0.207652 0.301879 0.214015 187 85 69 255
0.501140 0.299118 0.211464 187 92 87 255
0.500175 0.450425 0.499802 187 92 87 255
0.501003 0.235019 0.259332 187 92 87 255
0.400209 0.225397 0.251845 187 119 80 255
0.400209 0.225397 0.500000 187 119 80 255
0.320136 0.165495 0.500000 188 122 85 255
0.320136 0.165495 0.251845 188 123 86 255
0.260233 0.245568 0.251845 187 119 80 255
0.340306 0.305470 0.251845 187 119 80 255
0.150176 -0.017729 0.006014 187 119 80 255
0.070102 -0.077631 0.006014 188 123 86 255
0.010200 0.002442 0.006014 187 119 80 255
0.090273 0.062344 0.006014 187 119 80 255
0.501298 -0.017729 0.146947 187 119 80 255
0.010260 -0.017729 0.145538 187 119 80 255
0.010489 -0.077631 0.065465 188 122 85 255
0.501527 -0.077631 0.066874 188 123 86 255
0.070102 -0.077631 0.500000 188 122 85 255
0.150176 -0.017729 0.500000 187 119 80 255
0.090273 0.062344 0.500000 187 119 80 255
0.010200 0.002442 0.500000 187 119 80 255
-0.186838 -0.329046 0.500000 188 122 85 255
-0.106765 -0.269143 0.500000 187 119 80 255
-0.166667 -0.189070 0.500000 187 119 80 255
-0.246740 -0.248973 0.500000 187 119 80 255
0.500810 0.165495 0.316906 188 123 86 255
0.295656 0.165495 0.316318 188 122 85 255
0.295828 0.245568 0.256416 187 119 80 255
0.500982 0.245568 0.257004 187 119 80 255
-0.068177 -0.057715 -0.036858 170 108 72 255
-0.066875 -0.511778 -0.490920 174 116 85 255
-0.067159 -0.610773 -0.391925 170 108 72 255
-0.068461 -0.156710 0.062136 170 108 72 255
-0.192657 -0.304924 -0.221145 187 87 82 255
-0.495380 -0.520330 -0.484995 187 87 82 255
0.006151 0.024642 0.022268 194 108 88 255
0.054019 -0.039457 0.022268 194 108 88 255
-0.250450 -0.266830 -0.233823 194 108 88 255
-0.298318 -0.202731 -0.283649 194 108 88 255
0.208956 0.299118 0.210626 187 92 87 255
0.499776 0.514524 0.499906 187 93 88 255
0.500313 0.514524 0.499907 187 92 87 255
-0.240525 -0.240825 -0.140060 187 87 82 255
-0.553311 -0.446823 -0.165184 187 88 74 255
-0.553311 -0.446823 0.194816 187 88 74 255
-0.264867 -0.231417 0.194816 187 88 74 255
-0.264867 -0.231417 -0.165184 187 88 74 255
-0.240525 -0.239214 0.140471 187 107 88 255
-0.192657 -0.303313 0.140471 187 107 88 255
-0.481101 -0.518719 0.140471 187 108 89 255
-0.528969 -0.454620 0.140471 187 107 88 255
-0.216999 -0.295516 -0.165184 187 88 74 255
-0.216999 -0.295516 0.194816 187 88 74 255
-0.505443 -0.510922 0.194816 187 88 74 255
-0.505443 -0.510922 -0.165184 187 88 74 255
-0.421486 -0.535855 -0.406693 188 122 85 255
-0.421715 -0.475952 -0.326620 187 119 80 255
-0.421543 -0.395879 -0.386522 187 119 80 255
-0.421314 -0.455782 -0.466595 187 119 80 255
-0.528969 -0.454620 0.500471 187 107 88 255
-0.240525 -0.239214 0.500471 190 116 99 255
0.054571 -0.045225 0.500070 187 98 84 255
0.054571 -0.045225 0.140070 186 97 83 255
0.006703 0.018873 0.140070 187 98 84 255
0.006703 0.018873 0.500070 187 98 84 255
-0.320741 -0.475952 0.500000 187 119 80 255
-0.320741 -0.475952 -0.416760 187 119 80 255
-0.380644 -0.395879 -0.416760 187 119 80 255
-0.380644 -0.395879 0.500000 187 119 80 255
0.502479 -0.240825 -0.243752 187 87 82 255
0.503306 -0.456232 -0.532195 187 87 82 255
0.143308 -0.456232 -0.533228 187 87 82 255
0.142480 -0.240825 -0.244785 187 87 82 255
0.502264 -0.329046 -0.190065 188 123 86 255
-0.231848 -0.329046 -0.192171 188 122 85 255
-0.231676 -0.248973 -0.252073 187 119 80 255
0.502436 -0.248973 -0.249967 187 119 80 255
-0.281741 -0.196533 0.140070 187 98 84 255
-0.281741 -0.196533 0.500070 187 98 84 255
0.307873 0.192268 0.500204 194 101 81 255
0.307873 0.192268 0.269980 194 101 81 255
0.260005 0.256367 0.269980 194 101 81 255
0.260005 0.256367 0.500204 194 101 81 255
-0.400814 -0.535855 -0.416760 188 123 86 255
-0.400814 -0.535855 0.500000 188 122 85 255
-0.460717 -0.455782 0.500000 187 119 80 255
-0.460717 -0.455782 -0.416760 187 119 80 255
0.142591 -0.199294 -0.286001 194 95 90 255
0.142454 -0.263393 -0.238133 195 98 93 255
0.141626 -0.047987 0.050310 194 75 72 255
0.141763 0.016112 0.002442 194 95 90 255
0.020117 -0.039457 0.049410 194 108 88 255
0.162691 -0.039457 0.049819 194 108 88 255
0.162829 0.024642 0.001951 194 108 88 255
0.020254 0.037432 0.021556 194 108 88 255
-0.238033 -0.239214 -0.223461 190 116 99 255
-0.238171 -0.303313 -0.198008 187 107 88 255
-0.138188 -0.303313 -0.197721 187 107 88 255
-0.138050 -0.239214 -0.245589 187 107 88 255
-0.137360 -0.518719 -0.486165 187 108 89 255
-0.497359 -0.518719 -0.487197 187 107 88 255
0.240678 0.237780 0.248288 187 85 69 255
0.501763 -0.016352 0.012105 195 96 78 255
0.500935 0.199055 0.300548 194 93 73 255
0.251130 0.199055 0.299832 194 93 73 255
0.001623 -0.016352 0.010639 194 93 73 255
-0.028439 0.040961 -0.011398 195 102 82 255
-0.028439 0.040961 0.500204 194 101 81 255
-0.298318 -0.202731 0.198884 194 108 88 255
0.006151 0.024642 0.198884 194 108 88 255
-0.137223 -0.454620 -0.534033 187 107 88 255
-0.233873 -0.260632 0.500070 187 98 84 255
-0.233873 -0.260632 0.140070 187 98 84 255
0.503050 -0.455782 -0.463943 187 119 80 255
0.502820 -0.395879 -0.383870 187 119 80 255
-0.192657 -0.303313 0.500471 187 107 88 255
-0.481101 -0.518719 0.500471 187 107 88 255
-0.528561 -0.454620 -0.535065 187 107 88 255
0.501900 0.047747 -0.035763 194 93 73 255
-0.030189 0.047747 -0.032092 194 93 73 255
0.251267 0.263153 0.251964 195 95 75 255
0.501072 0.263153 0.252680 194 93 73 255
-0.186838 -0.329046 -0.241737 188 123 86 255
-0.246740 -0.248973 -0.241737 187 119 80 255
0.260233 0.245568 0.500000 187 119 80 255
0.500580 0.225397 0.396979 187 119 80 255
0.500752 0.305470 0.337077 187 119 80 255
0.501625 -0.047987 0.051343 194 95 90 255
0.502452 -0.263393 -0.237100 194 95 90 255
0.295598 0.305470 0.336489 187 119 80 255
0.340306 0.305470 0.500000 187 119 80 255
-0.192657 -0.304924 -0.140060 187 87 82 255
-0.166667 -0.189070 -0.241737 187 119 80 255
0.054019 -0.039457 0.198884 194 108 88 255
0.501762 0.016112 0.003475 194 95 90 255
0.163565 -0.266830 -0.254649 194 108 88 255
0.163702 -0.202731 -0.302517 194 108 88 255
0.502341 -0.304924 -0.195884 187 87 82 255
0.503169 -0.520330 -0.484327 187 87 82 255
-0.232078 -0.269143 -0.112098 187 119 80 255
-0.231906 -0.189070 -0.172000 187 119 80 255
-0.486059 -0.511778 -0.070000 172 113 80 255
-0.387064 -0.610773 -0.070000 170 108 72 255
-0.387064 -0.610773 0.070000 170 108 72 255
-0.486059 -0.511778 0.070000 174 116 85 255
0.049125 -0.174584 0.070000 170 108 72 255
-0.049870 -0.075589 0.070000 170 108 72 255
0.072841 -0.610773 -0.391524 170 108 72 255
0.073125 -0.511778 -0.490518 172 113 80 255
0.071822 -0.057715 -0.036457 170 109 73 255
0.071538 -0.156710 0.062538 171 109 72 255
0.168364 -0.510922 -0.509630 187 88 74 255
-0.191635 -0.510922 -0.510662 187 88 74 255
-0.191497 -0.446823 -0.558530 187 88 74 255
0.168501 -0.446823 -0.557497 187 88 74 255
-0.192462 -0.295515 -0.222219 187 88 74 255
-0.192325 -0.231417 -0.270087 187 88 74 255
0.142343 -0.304924 -0.196917 187 87 82 255
0.143170 -0.520330 -0.485360 187 88 83 255
0.499638 0.450425 0.499796 187 92 87 255
0.295426 0.225397 0.396391 187 119 80 255
-0.250450 -0.266830 0.198884 194 108 88 255
0.049125 -0.174584 -0.070000 171 109 72 255
0.502649 -0.475952 -0.323968 187 119 80 255
0.167536 -0.295515 -0.221186 187 88 74 255
-0.481101 -0.520330 -0.140060 187 88 83 255
0.502878 -0.535855 -0.404041 188 123 86 255
0.501699 0.002442 0.006972 187 119 80 255
0.010661 0.002442 0.005563 187 119 80 255
0.167674 -0.231417 -0.269054 187 88 74 255
0.502589 -0.199294 -0.284968 194 95 90 255
-0.106765 -0.269143 -0.241737 187 119 80 255
-0.049870 -0.075589 -0.070000 170 109 73 255
0.010431 0.062344 0.085636 187 119 80 255
0.255789 0.235019 0.258494 187 92 87 255
0.501469 0.062344 0.087045 187 119 80 255
0.019429 -0.023138 0.500204 196 107 90 255
-0.258128 -0.266830 -0.255859 194 108 88 255
-0.310422 -0.202731 -0.303727 194 108 88 255
0.019429 -0.023138 0.010766 200 121 106 255
0.502207 -0.189070 -0.169894 187 119 80 255
0.502035 -0.269143 -0.109992 187 119 80 255
3 0 1 2
3 3 4 5
3 6 3 5
3 7 8 9
3 10 11 12
4 13 14 15 16
4 13 16 17 18
4 19 20 21 22
4 23 24 25 26
4 27 28 29 30
4 31 32 33 34
4 35 36 37 38
4 39 40 41 42
4 1 43 44 2
4 45 46 47 48
4 10 49 50 51
3 0 52 1
4 53 54 55 56
4 57 58 59 60
4 61 62 63 64
4 65 66 67 68
4 60 69 70 57
4 71 72 73 74
4 75 76 77 78
4 79 80 81 82
4 64 63 54 53
4 83 84 85 86
4 87 88 74 73
4 89 90 91 92
4 93 94 95 96
4 97 98 99 100
4 101 102 103 104
4 105 106 107 108
4 109 107 106 110
4 3 111 9 8
3 3 8 4
4 112 113 114 115
4 91 116 117 92
4 45 48 118 119
3 6 111 3
3 7 4 8
4 76 75 94 93
4 107 109 120 108
4 72 71 121 122
4 123 68 67 124
4 58 125 126 59
4 59 126 69 60
4 125 58 57 70
4 94 75 78 95
4 110 106 105 127
4 120 127 105 108
4 7 6 5 4
4 128 129 130 131
4 132 31 34 133
4 16 15 134 17
4 135 35 38 136
4 19 28 27 20
4 137 99 98 138
4 62 61 56 55
4 136 38 37 139
4 14 13 18 140
4 141 43 1 52
4 134 15 14 140
4 133 34 33 142
4 143 46 45 119
4 122 121 88 87
4 99 137 144 100
4 21 30 29 22
4 103 102 145 146
4 96 95 78 77
4 72 122 87 73
4 147 148 80 79
4 84 149 150 85
4 151 152 153 154
4 154 153 155 156
4 157 158 159 160
4 161 162 163 164
4 158 157 41 40
4 162 165 166 163
4 147 167 168 148
4 130 114 113 131
4 50 169 11 51
4 37 36 170 139
4 171 143 119 118
4 41 157 160 42
4 63 62 55 54
4 153 152 172 155
4 148 168 81 80
4 113 112 128 131
4 66 173 124 67
4 159 39 42 160
4 161 174 165 162
4 175 141 52 0
4 176 65 68 123
4 77 76 93 96
4 177 26 25 178
4 164 163 166 179
4 167 147 79 82
4 137 138 180 144
4 81 168 167 82
4 181 132 133 142
4 182 156 155 172
4 180 97 100 144
4 181 32 31 132
4 28 19 22 29
4 121 71 74 88
4 20 27 30 21
4 120 109 110 127
4 46 143 171 47
4 25 24 183 178
4 12 11 169 184
4 44 175 0 2
4 177 178 183 185
4 126 125 70 69
4 17 134 140 18
4 117 186 89 92
4 172 152 151 182
4 173 66 65 176
4 128 112 115 129
4 146 145 187 188
4 91 90 189 116
4 61 64 53 56
4 145 102 101 187
4 49 184 169 50
4 179 174 161 164
4 24 23 185 183
4 165 174 179 166
4 23 26 177 185
4 86 85 150 190
4 182 151 154 156
4 124 173 176 123
4 138 98 97 180
4 150 149 191 190
4 191 149 84 83
4 135 170 36 35
4 170 135 136 139
4 158 40 39 159
4 47 171 118 48
4 10 12 184 49
4 191 83 86 190
4 90 89 186 189
4 43 141 175 44
4 189 186 117 116
4 187 101 104 188
4 115 114 130 129
3 10 51 11
4 111 6 7 9
4 146 188 104 103
4 32 181 142 33
