ply
format ascii 1.0
comment Created by Blender 3.4.1 - www.blender.org
element vertex 144
property float x
property float y
property float z
property uchar red
property uchar green
property uchar blue
property uchar alpha
element face 108
property list uchar uint vertex_indices
end_header
-0.072399 -0.615940 0.396636 170 108 72 255
-0.072399 -0.127172 -0.110035 171 109 72 255
0.067601 -0.127172 -0.110035 170 108 72 255
0.067601 -0.615940 0.396637 170 108 72 255
0.067601 -0.028177 -0.011040 170 108 72 255
0.067601 -0.516945 0.495631 174 116 85 255
-0.072399 -0.028177 -0.011040 170 109 73 255
-0.072399 -0.516945 0.495631 172 113 80 255
-0.502424 -0.053154 -0.044998 194 95 90 255
-0.502424 0.010945 0.002870 194 95 90 255
-0.142452 0.010945 0.002870 194 95 90 255
-0.142452 -0.053154 -0.044998 194 75 72 255
-0.142452 -0.204461 0.291314 194 95 90 255
-0.142452 -0.268560 0.243446 195 98 93 255
-0.502424 -0.204461 0.291314 194 95 90 255
-0.502424 -0.268560 0.243446 194 95 90 255
-0.502436 -0.310091 0.202230 187 87 82 255
-0.502436 -0.245993 0.250098 187 87 82 255
-0.142459 -0.245993 0.250098 187 87 82 255
-0.142459 -0.310091 0.202230 187 87 82 255
-0.142459 -0.461399 0.538542 187 87 82 255
-0.142459 -0.525497 0.490674 187 88 83 255
-0.502436 -0.461399 0.538542 187 87 82 255
-0.502436 -0.525497 0.490674 187 87 82 255
0.138072 -0.308480 0.202230 187 107 88 255
0.138072 -0.244381 0.250098 187 107 88 255
0.497872 -0.244381 0.250098 190 116 99 255
0.497872 -0.308480 0.202230 187 107 88 255
0.497872 -0.459787 0.538542 187 107 88 255
0.497872 -0.523886 0.490674 187 107 88 255
0.138072 -0.459787 0.538542 187 107 88 255
0.138072 -0.523886 0.490674 187 108 89 255
0.137671 -0.050392 -0.044998 186 97 83 255
0.137671 0.013706 0.002870 187 98 84 255
0.497471 0.013706 0.002870 187 98 84 255
0.497471 -0.050392 -0.044998 187 98 84 255
0.497471 -0.201700 0.291314 187 98 84 255
0.497471 -0.265799 0.243446 187 98 84 255
0.137671 -0.201700 0.291314 187 98 84 255
0.137671 -0.265799 0.243446 187 98 84 255
-0.167583 -0.300683 0.226572 187 88 74 255
-0.167583 -0.236584 0.274440 187 88 74 255
0.192417 -0.236584 0.274440 187 88 74 255
0.192417 -0.300683 0.226572 187 88 74 255
0.192417 -0.451990 0.562884 187 88 74 255
0.192417 -0.516089 0.515016 187 88 74 255
-0.167583 -0.451990 0.562884 187 88 74 255
-0.167583 -0.516089 0.515016 187 88 74 255
-0.163516 -0.044624 -0.044446 194 108 88 255
-0.163516 0.019475 0.003422 194 108 88 255
0.196485 0.019475 0.003422 194 108 88 255
0.196485 -0.044624 -0.044446 194 108 88 255
0.196485 -0.207898 0.307891 194 108 88 255
0.196485 -0.271997 0.260023 194 108 88 255
-0.163515 -0.207898 0.307891 194 108 88 255
-0.163515 -0.271997 0.260023 194 108 88 255
-0.501440 -0.274310 0.116337 187 119 80 255
-0.501440 -0.194237 0.176240 187 119 80 255
0.485510 -0.194237 0.176240 187 119 80 255
0.485510 -0.274310 0.116337 187 119 80 255
0.485510 -0.254140 0.256313 187 119 80 255
0.485510 -0.334213 0.196411 188 122 85 255
-0.501440 -0.254140 0.256313 187 119 80 255
-0.501440 -0.334213 0.196411 188 123 86 255
-0.501440 -0.481120 0.330314 187 119 80 255
-0.501440 -0.401046 0.390216 187 119 80 255
0.485510 -0.401046 0.390216 187 119 80 255
0.485510 -0.481120 0.330314 187 119 80 255
0.485510 -0.460949 0.470290 187 119 80 255
0.485510 -0.541022 0.410387 188 122 85 255
-0.501440 -0.460949 0.470290 187 119 80 255
-0.501440 -0.541022 0.410387 188 123 86 255
-0.072399 -0.615940 -0.391461 170 108 72 255
0.067601 -0.615940 -0.391461 170 108 72 255
0.067601 -0.135129 0.113221 170 108 72 255
-0.072399 -0.135129 0.113221 171 109 72 255
0.067601 -0.516945 -0.490456 174 116 85 255
0.067601 -0.036134 0.014226 170 108 72 255
-0.072399 -0.516945 -0.490456 172 113 80 255
-0.072399 -0.036134 0.014226 170 109 73 255
-0.501966 -0.053154 0.050174 194 95 90 255
-0.142452 -0.053154 0.050174 194 75 72 255
-0.142452 0.010945 0.002306 194 95 90 255
-0.501966 0.010945 0.002306 194 95 90 255
-0.142452 -0.268560 -0.238270 195 98 93 255
-0.142452 -0.204461 -0.286138 194 95 90 255
-0.501966 -0.268560 -0.238270 194 95 90 255
-0.501966 -0.204461 -0.286138 194 95 90 255
-0.501973 -0.310091 -0.197054 187 87 82 255
-0.142459 -0.310091 -0.197054 187 87 82 255
-0.142459 -0.245993 -0.244922 187 87 82 255
-0.501974 -0.245993 -0.244922 187 87 82 255
-0.142459 -0.525497 -0.485499 187 88 83 255
-0.142459 -0.461399 -0.533367 187 87 82 255
-0.501973 -0.525497 -0.485498 187 87 82 255
-0.501973 -0.461399 -0.533367 187 87 82 255
0.138072 -0.308480 -0.197054 187 107 88 255
0.495559 -0.308480 -0.197054 187 107 88 255
0.495559 -0.244381 -0.244922 190 116 99 255
0.138072 -0.244381 -0.244922 187 107 88 255
0.495559 -0.523886 -0.485499 187 107 88 255
0.495559 -0.459787 -0.533367 187 107 88 255
0.138072 -0.523886 -0.485498 187 108 89 255
0.138072 -0.459787 -0.533367 187 107 88 255
0.137671 -0.050392 0.050174 186 97 83 255
0.498747 -0.050392 0.050174 187 98 84 255
0.498747 0.013706 0.002306 187 98 84 255
0.137671 0.013706 0.002306 187 98 84 255
0.498747 -0.265799 -0.238270 187 98 84 255
0.498747 -0.201700 -0.286138 187 98 84 255
0.137671 -0.265799 -0.238270 187 98 84 255
0.137671 -0.201700 -0.286138 187 98 84 255
-0.167583 -0.300683 -0.221396 187 88 74 255
0.192417 -0.300683 -0.221396 187 88 74 255
0.192417 -0.236584 -0.269264 187 88 74 255
-0.167583 -0.236584 -0.269264 187 88 74 255
0.192417 -0.516089 -0.509840 187 88 74 255
0.192417 -0.451990 -0.557708 187 88 74 255
-0.167583 -0.516089 -0.509840 187 88 74 255
-0.167583 -0.451990 -0.557708 187 88 74 255
-0.163516 -0.044624 0.049622 194 108 88 255
0.196485 -0.044624 0.049622 194 108 88 255
0.196485 0.019475 0.001754 194 108 88 255
-0.163516 0.019475 0.001754 194 108 88 255
0.196485 -0.271997 -0.254847 194 108 88 255
0.196485 -0.207898 -0.302715 194 108 88 255
-0.163516 -0.271997 -0.254847 194 108 88 255
-0.163516 -0.207898 -0.302715 194 108 88 255
-0.501440 -0.274310 -0.111162 187 119 80 255
0.485510 -0.274310 -0.111162 187 119 80 255
0.485510 -0.194237 -0.171064 187 119 80 255
-0.501440 -0.194237 -0.171064 187 119 80 255
0.485510 -0.334213 -0.191235 188 122 85 255
0.485510 -0.254140 -0.251137 187 119 80 255
-0.501440 -0.334213 -0.191235 188 123 86 255
-0.501440 -0.254140 -0.251137 187 119 80 255
-0.501440 -0.481120 -0.325138 187 119 80 255
0.485510 -0.481120 -0.325138 187 119 80 255
0.485510 -0.401046 -0.385041 187 119 80 255
-0.501440 -0.401046 -0.385041 187 119 80 255
0.485510 -0.541022 -0.405212 188 122 85 255
0.485510 -0.460949 -0.465114 187 119 80 255
-0.501440 -0.541022 -0.405212 188 123 86 255
-0.501440 -0.460949 -0.465114 187 119 80 255
4 0 1 2 3
4 3 2 4 5
4 5 4 6 7
4 7 6 1 0
4 3 5 7 0
4 4 2 1 6
4 8 9 10 11
4 11 10 12 13
4 13 12 14 15
4 15 14 9 8
4 11 13 15 8
4 12 10 9 14
4 16 17 18 19
4 19 18 20 21
4 21 20 22 23
4 23 22 17 16
4 19 21 23 16
4 20 18 17 22
4 24 25 26 27
4 27 26 28 29
4 29 28 30 31
4 31 30 25 24
4 27 29 31 24
4 28 26 25 30
4 32 33 34 35
4 35 34 36 37
4 37 36 38 39
4 39 38 33 32
4 35 37 39 32
4 36 34 33 38
4 40 41 42 43
4 43 42 44 45
4 45 44 46 47
4 47 46 41 40
4 43 45 47 40
4 44 42 41 46
4 48 49 50 51
4 51 50 52 53
4 53 52 54 55
4 55 54 49 48
4 51 53 55 48
4 52 50 49 54
4 56 57 58 59
4 59 58 60 61
4 61 60 62 63
4 63 62 57 56
4 59 61 63 56
4 60 58 57 62
4 64 65 66 67
4 67 66 68 69
4 69 68 70 71
4 71 70 65 64
4 67 69 71 64
4 68 66 65 70
4 72 73 74 75
4 73 76 77 74
4 76 78 79 77
4 78 72 75 79
4 73 72 78 76
4 77 79 75 74
4 80 81 82 83
4 81 84 85 82
4 84 86 87 85
4 86 80 83 87
4 81 80 86 84
4 85 87 83 82
4 88 89 90 91
4 89 92 93 90
4 92 94 95 93
4 94 88 91 95
4 89 88 94 92
4 93 95 91 90
4 96 97 98 99
4 97 100 101 98
4 100 102 103 101
4 102 96 99 103
4 97 96 102 100
4 101 103 99 98
4 104 105 106 107
4 105 108 109 106
4 108 110 111 109
4 110 104 107 111
4 105 104 110 108
4 109 111 107 106
4 112 113 114 115
4 113 116 117 114
4 116 118 119 117
4 118 112 115 119
4 113 112 118 116
4 117 119 115 114
4 120 121 122 123
4 121 124 125 122
4 124 126 127 125
4 126 120 123 127
4 121 120 126 124
4 125 127 123 122
4 128 129 130 131
4 129 132 133 130
4 132 134 135 133
4 134 128 131 135
4 129 128 134 132
4 133 135 131 130
4 136 137 138 139
4 137 140 141 138
4 140 142 143 141
4 142 136 139 143
4 137 136 142 140
4 141 143 139 138
