ply
format ascii 1.0
comment Created by Blender 2.83.20 - www.blender.org, source file: 'roofdiagonal.blend'
element vertex 152
property float x
property float y
property float z
property float s
property float t
property uchar red
property uchar green
property uchar blue
property uchar alpha
element face 114
property list uchar uint vertex_indices
end_header
0.393971 -0.615940 -0.070000 -10.000000 -9.999999 170 108 72 255
0.393971 -0.615940 0.070000 -10.000000 -9.999999 170 108 72 255
-0.606029 0.384060 0.070000 -10.000000 -9.999999 170 108 72 255
-0.606029 0.384060 -0.070000 -10.000000 -9.999999 171 109 72 255
0.444020 -0.565891 0.070000 -10.000000 -9.999999 174 116 85 255
-0.555980 0.434109 0.070000 -10.000000 -9.999999 170 108 72 255
0.444020 -0.565891 -0.070000 -10.000000 -9.999999 172 113 80 255
-0.555980 0.434109 -0.070000 -10.000000 -9.999999 170 109 73 255
-0.544098 0.445258 -0.536243 -10.000000 -9.999999 187 92 87 255
-0.544098 0.445258 -0.164526 -10.000000 -9.999999 187 92 87 255
-0.496230 0.509357 -0.164526 -10.000000 -9.999999 187 93 88 255
-0.496230 0.509357 -0.536243 -10.000000 -9.999999 187 92 87 255
-0.255654 0.229852 -0.164527 -10.000000 -9.999999 187 92 87 255
-0.207786 0.293951 -0.164527 -10.000000 -9.999999 187 92 87 255
-0.255654 0.229852 -0.536243 -10.000000 -9.999999 187 92 87 255
-0.207786 0.293951 -0.536243 -10.000000 -9.999999 187 92 87 255
-0.296870 0.193888 -0.536293 -10.000000 -9.999999 194 93 73 255
-0.296870 0.193888 -0.169694 -10.000000 -9.999999 194 93 73 255
-0.249002 0.257986 -0.169694 -10.000000 -9.999999 195 95 75 255
-0.249002 0.257986 -0.536293 -10.000000 -9.999999 194 93 73 255
-0.008426 -0.021519 -0.169694 -10.000000 -9.999999 194 93 73 255
0.039442 0.042580 -0.169694 -10.000000 -9.999999 194 93 73 255
-0.008426 -0.021519 -0.536293 -10.000000 -9.999999 195 96 78 255
0.039442 0.042580 -0.536293 -10.000000 -9.999999 194 93 73 255
-0.047664 -0.053154 -0.536268 -10.000000 -9.999999 194 95 90 255
-0.047664 -0.053154 -0.155803 -10.000000 -9.999999 194 75 72 255
0.000204 0.010945 -0.155803 -10.000000 -9.999999 194 95 90 255
0.000204 0.010945 -0.536268 -10.000000 -9.999999 194 95 90 255
0.240780 -0.268560 -0.155803 -10.000000 -9.999999 195 98 93 255
0.288648 -0.204461 -0.155803 -10.000000 -9.999999 194 95 90 255
0.240780 -0.268560 -0.536268 -10.000000 -9.999999 194 95 90 255
0.288648 -0.204461 -0.536268 -10.000000 -9.999999 194 95 90 255
0.199564 -0.310091 -0.536276 -10.000000 -9.999999 187 87 82 255
0.199564 -0.310091 -0.160832 -10.000000 -9.999999 187 87 82 255
0.247432 -0.245993 -0.160832 -10.000000 -9.999999 187 87 82 255
0.247432 -0.245993 -0.536276 -10.000000 -9.999999 187 87 82 255
0.488008 -0.525497 -0.160832 -10.000000 -9.999999 187 88 83 255
0.535877 -0.461399 -0.160832 -10.000000 -9.999999 187 87 82 255
0.488008 -0.525497 -0.536276 -10.000000 -9.999999 187 87 82 255
0.535877 -0.461399 -0.536276 -10.000000 -9.999999 187 87 82 255
0.199564 -0.308480 0.191517 -10.000000 -9.999999 187 107 88 255
0.199564 -0.308480 0.500472 -10.000000 -9.999999 187 107 88 255
0.247432 -0.244381 0.500472 -10.000000 -9.999999 190 116 99 255
0.247432 -0.244381 0.191517 -10.000000 -9.999999 187 107 88 255
0.488008 -0.523886 0.500472 -10.000000 -9.999999 187 107 88 255
0.535877 -0.459787 0.500472 -10.000000 -9.999999 187 107 88 255
0.488008 -0.523886 0.191517 -10.000000 -9.999999 187 108 89 255
0.535877 -0.459787 0.191518 -10.000000 -9.999999 187 107 88 255
-0.047664 -0.050392 0.184319 -10.000000 -9.999999 186 97 83 255
-0.047664 -0.050392 0.500070 -10.000000 -9.999999 187 98 84 255
0.000204 0.013706 0.500070 -10.000000 -9.999999 187 98 84 255
0.000204 0.013706 0.184319 -10.000000 -9.999999 187 98 84 255
0.240780 -0.265799 0.500070 -10.000000 -9.999999 187 98 84 255
0.288648 -0.201700 0.500070 -10.000000 -9.999999 187 98 84 255
0.240780 -0.265799 0.184319 -10.000000 -9.999999 187 98 84 255
0.288648 -0.201700 0.184319 -10.000000 -9.999999 187 98 84 255
-0.300966 0.187101 0.179960 -10.000000 -9.999999 194 101 81 255
-0.300966 0.187101 0.500204 -10.000000 -9.999999 194 101 81 255
-0.253098 0.251200 0.500204 -10.000000 -9.999999 194 101 81 255
-0.253098 0.251200 0.179960 -10.000000 -9.999999 194 101 81 255
-0.012522 -0.028305 0.500204 -10.000000 -9.999999 196 107 90 255
0.035346 0.035793 0.500204 -10.000000 -9.999999 194 101 81 255
-0.012522 -0.028305 0.179960 -10.000000 -9.999999 200 121 106 255
0.035346 0.035793 0.179960 -10.000000 -9.999999 195 102 82 255
-0.537058 0.448019 0.182997 -10.000000 -9.999999 187 85 69 255
-0.537057 0.448019 0.500122 -10.000000 -9.999999 187 85 69 255
-0.489189 0.512118 0.500122 -10.000000 -9.999999 187 85 69 255
-0.489189 0.512118 0.182997 -10.000000 -9.999999 187 85 69 255
-0.248613 0.232613 0.500122 -10.000000 -9.999999 187 85 69 255
-0.200745 0.296712 0.500122 -10.000000 -9.999999 187 85 69 255
-0.248613 0.232613 0.182997 -10.000000 -9.999999 187 85 69 255
-0.200745 0.296712 0.182997 -10.000000 -9.999999 187 85 69 255
0.223906 -0.300683 -0.165184 -10.000000 -9.999999 187 88 74 255
0.223906 -0.300683 0.194816 -10.000000 -9.999999 187 88 74 255
0.271774 -0.236584 0.194816 -10.000000 -9.999999 187 88 74 255
0.271774 -0.236584 -0.165184 -10.000000 -9.999999 187 88 74 255
0.512350 -0.516089 0.194816 -10.000000 -9.999999 187 88 74 255
0.560218 -0.451990 0.194816 -10.000000 -9.999999 187 88 74 255
0.512350 -0.516089 -0.165184 -10.000000 -9.999999 187 88 74 255
0.560218 -0.451990 -0.165184 -10.000000 -9.999999 187 88 74 255
-0.047112 -0.044624 -0.161116 -10.000000 -9.999999 194 108 88 255
-0.047112 -0.044624 0.198884 -10.000000 -9.999999 194 108 88 255
0.000756 0.019475 0.198884 -10.000000 -9.999999 194 108 88 255
0.000756 0.019475 -0.161116 -10.000000 -9.999999 194 108 88 255
0.257357 -0.271997 0.198884 -10.000000 -9.999999 194 108 88 255
0.305225 -0.207898 0.198884 -10.000000 -9.999999 194 108 88 255
0.257357 -0.271997 -0.161116 -10.000000 -9.999999 194 108 88 255
0.305225 -0.207898 -0.161116 -10.000000 -9.999999 194 108 88 255
-0.281220 0.208589 -0.171031 -10.000000 -9.999999 194 99 72 255
-0.281220 0.208589 0.188969 -10.000000 -9.999999 194 99 72 255
-0.233352 0.272687 0.188969 -10.000000 -9.999999 194 111 91 255
-0.233352 0.272687 -0.171031 -10.000000 -9.999999 194 111 91 255
0.007225 -0.006817 0.188969 -10.000000 -9.999999 194 111 91 255
0.055093 0.057281 0.188969 -10.000000 -9.999999 194 111 91 255
0.007225 -0.006817 -0.171031 -10.000000 -9.999999 194 111 91 255
0.055093 0.057281 -0.171031 -10.000000 -9.999999 194 111 91 255
-0.536398 0.456864 -0.165184 -10.000000 -9.999999 194 107 82 255
-0.536398 0.456864 0.194816 -10.000000 -9.999999 194 107 82 255
-0.488530 0.520963 0.194816 -10.000000 -9.999999 194 107 82 255
-0.488530 0.520963 -0.165184 -10.000000 -9.999999 194 107 82 255
-0.231929 0.229491 0.194816 -10.000000 -9.999999 199 120 100 255
-0.184061 0.293589 0.194816 -10.000000 -9.999999 194 107 82 255
-0.231929 0.229491 -0.165184 -10.000000 -9.999999 194 107 83 255
-0.184061 0.293589 -0.165184 -10.000000 -9.999999 194 107 82 255
-0.393302 0.220230 -0.414353 -10.000000 -9.999999 187 119 80 255
-0.393302 0.220230 0.499344 -10.000000 -9.999999 187 119 80 255
-0.333399 0.300303 0.499344 -10.000000 -9.999999 187 119 80 255
-0.333399 0.300303 -0.414353 -10.000000 -9.999999 187 119 80 255
-0.313229 0.160328 0.499344 -10.000000 -9.999999 188 122 85 255
-0.253326 0.240401 0.499344 -10.000000 -9.999999 187 119 80 255
-0.313229 0.160328 -0.414353 -10.000000 -9.999999 188 123 86 255
-0.253326 0.240401 -0.414353 -10.000000 -9.999999 187 119 80 255
-0.143268 -0.022896 -0.414353 -10.000000 -9.999999 187 119 80 255
-0.143269 -0.022896 0.499344 -10.000000 -9.999999 187 119 80 255
-0.083366 0.057177 0.499344 -10.000000 -9.999999 187 119 80 255
-0.083366 0.057177 -0.414353 -10.000000 -9.999999 187 119 80 255
-0.063195 -0.082798 0.499344 -10.000000 -9.999999 188 122 85 255
-0.003293 -0.002725 0.499344 -10.000000 -9.999999 187 119 80 255
-0.063195 -0.082798 -0.414353 -10.000000 -9.999999 188 123 86 255
-0.003293 -0.002725 -0.414353 -10.000000 -9.999999 187 119 80 255
0.113672 -0.274310 -0.414353 -10.000000 -9.999999 187 119 80 255
0.113672 -0.274310 0.499344 -10.000000 -9.999999 187 119 80 255
0.173574 -0.194237 0.499344 -10.000000 -9.999999 187 119 80 255
0.173574 -0.194237 -0.414353 -10.000000 -9.999999 187 119 80 255
0.193745 -0.334213 0.499344 -10.000000 -9.999999 188 122 85 255
0.253647 -0.254140 0.499344 -10.000000 -9.999999 187 119 80 255
0.193745 -0.334213 -0.414353 -10.000000 -9.999999 188 123 86 255
0.253647 -0.254140 -0.414353 -10.000000 -9.999999 187 119 80 255
0.327648 -0.481120 -0.414353 -10.000000 -9.999999 187 119 80 255
0.327648 -0.481120 0.499344 -10.000000 -9.999999 187 119 80 255
0.387551 -0.401046 0.499344 -10.000000 -9.999999 187 119 80 255
0.387551 -0.401046 -0.414353 -10.000000 -9.999999 187 119 80 255
0.407721 -0.541022 0.499344 -10.000000 -9.999999 188 122 85 255
0.467624 -0.460949 0.499344 -10.000000 -9.999999 187 119 80 255
0.407722 -0.541022 -0.414353 -10.000000 -9.999999 188 123 86 255
0.467624 -0.460949 -0.414353 -10.000000 -9.999999 187 119 80 255
-0.500000 0.455000 -0.500000 0.000000 0.000000 255 255 255 255
-0.499152 -0.500148 -0.415609 0.000000 0.000000 255 255 255 255
-0.499152 0.454259 -0.411283 0.000000 0.000000 255 255 255 255
-0.500000 -0.500000 -0.500000 0.000000 0.000000 255 255 255 255
0.498821 -0.500148 -0.415609 0.000000 0.000000 255 255 255 255
0.500000 -0.500000 -0.500000 0.000000 0.000000 255 255 255 255
-0.500000 -0.500000 -0.500000 1.000000 0.000000 255 255 255 255
-0.500000 0.455000 -0.500000 1.000000 0.950000 255 255 255 255
0.500053 -0.739998 -0.529247 -10.000000 -9.999999 223 206 197 255
0.500053 -0.739998 -0.489247 -10.000000 -9.999999 224 208 199 255
-0.499381 0.260004 -0.489247 -10.000000 -9.999999 223 206 197 255
-0.499381 0.260004 -0.529247 -10.000000 -9.999999 227 212 204 255
0.499995 -0.499998 -0.489247 -10.000000 -9.999999 223 206 197 255
-0.500013 0.500003 -0.489247 -10.000000 -9.999999 223 206 197 255
0.499995 -0.499998 -0.529247 -10.000000 -9.999999 225 209 200 255
-0.500013 0.500003 -0.529247 -10.000000 -9.999999 223 206 197 255
4 0 1 2 3
4 1 4 5 2
4 4 6 7 5
4 3 7 6 0
4 6 4 1 0
4 5 7 3 2
4 8 9 10 11
4 9 12 13 10
4 12 14 15 13
4 14 8 11 15
4 9 8 14 12
4 13 15 11 10
4 16 17 18 19
4 17 20 21 18
4 20 22 23 21
4 22 16 19 23
4 17 16 22 20
4 21 23 19 18
4 24 25 26 27
4 25 28 29 26
4 28 30 31 29
4 30 24 27 31
4 25 24 30 28
4 29 31 27 26
4 32 33 34 35
4 33 36 37 34
4 36 38 39 37
4 38 32 35 39
4 33 32 38 36
4 37 39 35 34
4 40 41 42 43
4 41 44 45 42
4 44 46 47 45
4 46 40 43 47
4 41 40 46 44
4 45 47 43 42
4 48 49 50 51
4 49 52 53 50
4 52 54 55 53
4 54 48 51 55
4 49 48 54 52
4 53 55 51 50
4 56 57 58 59
4 57 60 61 58
4 60 62 63 61
4 62 56 59 63
4 57 56 62 60
4 61 63 59 58
4 64 65 66 67
4 65 68 69 66
4 68 70 71 69
4 70 64 67 71
4 65 64 70 68
4 69 71 67 66
4 72 73 74 75
4 73 76 77 74
4 76 78 79 77
4 78 72 75 79
4 73 72 78 76
4 77 79 75 74
4 80 81 82 83
4 81 84 85 82
4 84 86 87 85
4 86 80 83 87
4 81 80 86 84
4 85 87 83 82
4 88 89 90 91
4 89 92 93 90
4 92 94 95 93
4 94 88 91 95
4 89 88 94 92
4 93 95 91 90
4 96 97 98 99
4 97 100 101 98
4 100 102 103 101
4 102 96 99 103
4 97 96 102 100
4 101 103 99 98
4 104 105 106 107
4 105 108 109 106
4 108 110 111 109
4 110 104 107 111
4 105 104 110 108
4 109 111 107 106
4 112 113 114 115
4 113 116 117 114
4 116 118 119 117
4 118 112 115 119
4 113 112 118 116
4 117 119 115 114
4 120 121 122 123
4 121 124 125 122
4 124 126 127 125
4 126 120 123 127
4 121 120 126 124
4 125 127 123 122
4 128 129 130 131
4 129 132 133 130
4 132 134 135 133
4 134 128 131 135
4 129 128 134 132
4 133 135 131 130
3 136 137 138
3 139 137 136
3 137 140 138
4 140 141 136 138
3 141 142 143
4 137 139 141 140
4 144 145 146 147
4 145 148 149 146
4 148 150 151 149
4 150 144 147 151
4 145 144 150 148
4 149 151 147 146
