ply
format ascii 1.0
comment Created by Blender 3.4.1 - www.blender.org
element vertex 136
property float x
property float y
property float z
property uchar red
property uchar green
property uchar blue
property uchar alpha
element face 102
property list uchar uint vertex_indices
end_header
-0.393971 -0.615940 -0.070000 170 108 72 255
0.606029 0.384060 -0.070000 171 109 72 255
0.606029 0.384060 0.070000 170 108 72 255
-0.393971 -0.615940 0.070000 170 108 72 255
0.507034 0.483055 0.070000 170 108 72 255
-0.492966 -0.516945 0.070000 174 116 85 255
0.507034 0.483055 -0.070000 170 109 73 255
-0.492966 -0.516945 -0.070000 172 113 80 255
0.544098 0.445258 -0.500028 187 92 87 255
0.496230 0.509357 -0.500028 187 92 87 255
0.496230 0.509357 -0.140028 187 93 88 255
0.544098 0.445258 -0.140028 187 92 87 255
0.207786 0.293951 -0.140028 187 92 87 255
0.255654 0.229852 -0.140028 187 92 87 255
0.207786 0.293951 -0.500028 187 92 87 255
0.255654 0.229852 -0.500028 187 92 87 255
0.296870 0.193888 -0.500078 194 93 73 255
0.249002 0.257986 -0.500078 194 93 73 255
0.249002 0.257986 -0.140078 195 95 75 255
0.296870 0.193888 -0.140078 194 93 73 255
-0.039442 0.042580 -0.140078 194 93 73 255
0.008426 -0.021519 -0.140078 194 93 73 255
-0.039442 0.042580 -0.500078 194 93 73 255
0.008426 -0.021519 -0.500078 195 96 78 255
0.047664 -0.053154 -0.500053 194 95 90 255
-0.000204 0.010945 -0.500053 194 95 90 255
-0.000204 0.010945 -0.140053 194 95 90 255
0.047664 -0.053154 -0.140053 194 75 72 255
-0.288648 -0.204461 -0.140053 194 95 90 255
-0.240780 -0.268560 -0.140053 195 98 93 255
-0.288648 -0.204461 -0.500053 194 95 90 255
-0.240780 -0.268560 -0.500053 194 95 90 255
-0.199564 -0.310091 -0.500060 187 87 82 255
-0.247432 -0.245993 -0.500060 187 87 82 255
-0.247432 -0.245993 -0.140060 187 87 82 255
-0.199564 -0.310091 -0.140060 187 87 82 255
-0.535877 -0.461399 -0.140060 187 87 82 255
-0.488008 -0.525497 -0.140060 187 88 83 255
-0.535877 -0.461399 -0.500060 187 87 82 255
-0.488008 -0.525497 -0.500060 187 87 82 255
-0.199564 -0.308480 0.140471 187 107 88 255
-0.247432 -0.244381 0.140471 187 107 88 255
-0.247432 -0.244381 0.500472 190 116 99 255
-0.199564 -0.308480 0.500472 187 107 88 255
-0.535877 -0.459787 0.500472 187 107 88 255
-0.488008 -0.523886 0.500472 187 107 88 255
-0.535877 -0.459787 0.140471 187 107 88 255
-0.488008 -0.523886 0.140471 187 108 89 255
0.047664 -0.050392 0.140070 186 97 83 255
-0.000204 0.013706 0.140070 187 98 84 255
-0.000204 0.013706 0.500070 187 98 84 255
0.047664 -0.050392 0.500070 187 98 84 255
-0.288648 -0.201700 0.500070 187 98 84 255
-0.240780 -0.265799 0.500070 187 98 84 255
-0.288648 -0.201700 0.140070 187 98 84 255
-0.240780 -0.265799 0.140070 187 98 84 255
0.300966 0.187101 0.140204 194 101 81 255
0.253098 0.251200 0.140204 194 101 81 255
0.253098 0.251200 0.500204 194 101 81 255
0.300966 0.187101 0.500204 194 101 81 255
-0.035346 0.035793 0.500204 194 101 81 255
0.012522 -0.028305 0.500204 196 107 90 255
-0.035346 0.035793 0.140204 195 102 82 255
0.012522 -0.028305 0.140204 200 121 106 255
0.537058 0.448019 0.140122 187 85 69 255
0.489189 0.512118 0.140122 187 85 69 255
0.489189 0.512118 0.500122 187 85 69 255
0.537057 0.448019 0.500122 187 85 69 255
0.200745 0.296712 0.500122 187 85 69 255
0.248613 0.232613 0.500122 187 85 69 255
0.200745 0.296712 0.140122 187 85 69 255
0.248613 0.232613 0.140122 187 85 69 255
-0.223906 -0.300683 -0.165184 187 88 74 255
-0.271774 -0.236584 -0.165184 187 88 74 255
-0.271774 -0.236584 0.194816 187 88 74 255
-0.223906 -0.300683 0.194816 187 88 74 255
-0.560218 -0.451990 0.194816 187 88 74 255
-0.512350 -0.516089 0.194816 187 88 74 255
-0.560218 -0.451990 -0.165184 187 88 74 255
-0.512350 -0.516089 -0.165184 187 88 74 255
0.047112 -0.044624 -0.161116 194 108 88 255
-0.000756 0.019475 -0.161116 194 108 88 255
-0.000756 0.019475 0.198884 194 108 88 255
0.047112 -0.044624 0.198884 194 108 88 255
-0.305225 -0.207898 0.198884 194 108 88 255
-0.257357 -0.271997 0.198884 194 108 88 255
-0.305225 -0.207898 -0.161116 194 108 88 255
-0.257357 -0.271997 -0.161116 194 108 88 255
0.281220 0.208589 -0.171031 194 99 72 255
0.233352 0.272687 -0.171031 194 111 91 255
0.233352 0.272687 0.188969 194 111 91 255
0.281220 0.208589 0.188969 194 99 72 255
-0.055093 0.057281 0.188969 194 111 91 255
-0.007225 -0.006817 0.188969 194 111 91 255
-0.055093 0.057281 -0.171031 194 111 91 255
-0.007225 -0.006817 -0.171031 194 111 91 255
0.536398 0.456864 -0.165184 194 107 82 255
0.488530 0.520963 -0.165184 194 107 82 255
0.488530 0.520963 0.194816 194 107 82 255
0.536398 0.456864 0.194816 194 107 82 255
0.184061 0.293589 0.194816 194 107 82 255
0.231929 0.229491 0.194816 199 120 100 255
0.184061 0.293589 -0.165184 194 107 82 255
0.231929 0.229491 -0.165184 194 107 83 255
0.393302 0.220230 -0.500000 187 119 80 255
0.333399 0.300303 -0.500000 187 119 80 255
0.333399 0.300303 0.500000 187 119 80 255
0.393302 0.220230 0.500000 187 119 80 255
0.253326 0.240401 0.500000 187 119 80 255
0.313229 0.160328 0.500000 188 122 85 255
0.253326 0.240401 -0.500000 187 119 80 255
0.313229 0.160328 -0.500000 188 123 86 255
0.143269 -0.022896 -0.500000 187 119 80 255
0.083366 0.057177 -0.500000 187 119 80 255
0.083366 0.057177 0.500000 187 119 80 255
0.143268 -0.022896 0.500000 187 119 80 255
0.003293 -0.002725 0.500000 187 119 80 255
0.063195 -0.082798 0.500000 188 122 85 255
0.003293 -0.002725 -0.500000 187 119 80 255
0.063195 -0.082798 -0.500000 188 123 86 255
-0.113672 -0.274310 -0.500000 187 119 80 255
-0.173574 -0.194237 -0.500000 187 119 80 255
-0.173574 -0.194237 0.500000 187 119 80 255
-0.113672 -0.274310 0.500000 187 119 80 255
-0.253647 -0.254140 0.500000 187 119 80 255
-0.193745 -0.334213 0.500000 188 122 85 255
-0.253647 -0.254140 -0.500000 187 119 80 255
-0.193745 -0.334213 -0.500000 188 123 86 255
-0.327648 -0.481120 -0.500000 187 119 80 255
-0.387551 -0.401046 -0.500000 187 119 80 255
-0.387551 -0.401046 0.500000 187 119 80 255
-0.327648 -0.481120 0.500000 187 119 80 255
-0.467624 -0.460949 0.500000 187 119 80 255
-0.407722 -0.541022 0.500000 188 122 85 255
-0.467624 -0.460949 -0.500000 187 119 80 255
-0.407722 -0.541022 -0.500000 188 123 86 255
4 0 1 2 3
4 3 2 4 5
4 5 4 6 7
4 7 6 1 0
4 3 5 7 0
4 4 2 1 6
4 8 9 10 11
4 11 10 12 13
4 13 12 14 15
4 15 14 9 8
4 11 13 15 8
4 12 10 9 14
4 16 17 18 19
4 19 18 20 21
4 21 20 22 23
4 23 22 17 16
4 19 21 23 16
4 20 18 17 22
4 24 25 26 27
4 27 26 28 29
4 29 28 30 31
4 31 30 25 24
4 27 29 31 24
4 28 26 25 30
4 32 33 34 35
4 35 34 36 37
4 37 36 38 39
4 39 38 33 32
4 35 37 39 32
4 36 34 33 38
4 40 41 42 43
4 43 42 44 45
4 45 44 46 47
4 47 46 41 40
4 43 45 47 40
4 44 42 41 46
4 48 49 50 51
4 51 50 52 53
4 53 52 54 55
4 55 54 49 48
4 51 53 55 48
4 52 50 49 54
4 56 57 58 59
4 59 58 60 61
4 61 60 62 63
4 63 62 57 56
4 59 61 63 56
4 60 58 57 62
4 64 65 66 67
4 67 66 68 69
4 69 68 70 71
4 71 70 65 64
4 67 69 71 64
4 68 66 65 70
4 72 73 74 75
4 75 74 76 77
4 77 76 78 79
4 79 78 73 72
4 75 77 79 72
4 76 74 73 78
4 80 81 82 83
4 83 82 84 85
4 85 84 86 87
4 87 86 81 80
4 83 85 87 80
4 84 82 81 86
4 88 89 90 91
4 91 90 92 93
4 93 92 94 95
4 95 94 89 88
4 91 93 95 88
4 92 90 89 94
4 96 97 98 99
4 99 98 100 101
4 101 100 102 103
4 103 102 97 96
4 99 101 103 96
4 100 98 97 102
4 104 105 106 107
4 107 106 108 109
4 109 108 110 111
4 111 110 105 104
4 107 109 111 104
4 108 106 105 110
4 112 113 114 115
4 115 114 116 117
4 117 116 118 119
4 119 118 113 112
4 115 117 119 112
4 116 114 113 118
4 120 121 122 123
4 123 122 124 125
4 125 124 126 127
4 127 126 121 120
4 123 125 127 120
4 124 122 121 126
4 128 129 130 131
4 131 130 132 133
4 133 132 134 135
4 135 134 129 128
4 131 133 135 128
4 132 130 129 134
