ply
format ascii 1.0
comment Created in Blender version 4.2.2 LTS
element vertex 48
property float x
property float y
property float z
property uchar red
property uchar green
property uchar blue
property uchar alpha
element face 92
property list uchar uint vertex_indices
end_header
0.5 -0.5 -0.5 72 99 55 255
0.5 -0.42286032 -0.5 50 67 38 255
0.5 -0.5 0.5 72 99 55 255
0.5 -0.42286032 0.5 50 67 38 255
-0.5 -0.5 -0.5 72 99 55 255
-0.5 -0.42286032 -0.5 50 67 38 255
-0.5 -0.5 0.5 72 99 55 255
-0.5 -0.42286032 0.5 50 67 38 255
0.5130309 -0.38184816 -0.5130309 72 99 55 255
0.5130309 -0.38184816 0.5130309 72 99 55 255
-0.5130309 -0.38184816 0.5130309 72 99 55 255
-0.5130309 -0.38184816 -0.5130309 72 99 55 255
0.5130309 -0.3363582 -0.5130309 50 67 38 255
0.5130309 -0.3363582 0.5130309 50 67 38 255
-0.5130309 -0.3363582 0.5130309 50 67 38 255
-0.5130309 -0.3363582 -0.5130309 50 67 38 255
0.58060277 -0.30075735 -0.58060277 50 67 38 255
0.58060277 -0.30075735 0.58060277 50 67 38 255
-0.58060277 -0.30075735 0.58060277 50 67 38 255
-0.58060277 -0.30075735 -0.58060277 50 67 38 255
0.58060277 -0.2730678 -0.58060277 72 99 55 255
0.58060277 -0.2730678 0.58060277 72 99 55 255
-0.58060277 -0.2730678 0.58060277 72 99 55 255
-0.58060277 -0.2730678 -0.58060277 72 99 55 255
0.5019128 -0.2730678 -0.5019128 72 99 55 255
0.5019128 -0.2730678 0.5019128 72 99 55 255
-0.5019128 -0.2730678 0.5019128 72 99 55 255
-0.5019128 -0.2730678 -0.5019128 72 99 55 255
0.5019128 0.23918888 -0.5019128 72 99 55 255
0.5019128 0.23918888 0.5019128 72 99 55 255
-0.5019128 0.23918888 0.5019128 72 99 55 255
-0.5019128 0.23918888 -0.5019128 72 99 55 255
0.5510953 0.3032704 -0.5510953 50 67 38 255
0.5510953 0.3032704 0.5510953 50 67 38 255
-0.5510953 0.3032704 0.5510953 50 67 38 255
-0.5510953 0.3032704 -0.5510953 50 67 38 255
0.5510953 0.355485 -0.5510953 72 99 55 255
0.5510953 0.355485 0.5510953 72 99 55 255
-0.5510953 0.355485 0.5510953 72 99 55 255
-0.5510953 0.355485 -0.5510953 72 99 55 255
0.65780264 0.4646609 -0.65780264 50 67 38 255
0.65780264 0.4646609 0.65780264 50 67 38 255
-0.65780264 0.4646609 0.65780264 50 67 38 255
-0.65780264 0.4646609 -0.65780264 50 67 38 255
0.65780264 0.4999671 -0.65780264 50 67 38 255
0.65780264 0.4999671 0.65780264 50 67 38 255
-0.65780264 0.4999671 0.65780264 50 67 38 255
-0.65780264 0.4999671 -0.65780264 50 67 38 255
3 1 2 0
3 3 6 2
3 7 4 6
3 5 0 4
3 6 0 2
3 3 10 7
3 10 15 11
3 7 11 5
3 1 9 3
3 5 8 1
3 14 19 15
3 8 13 9
3 11 12 8
3 9 14 10
3 19 20 16
3 12 17 13
3 15 16 12
3 13 18 14
3 22 27 23
3 17 22 18
3 18 23 19
3 16 21 17
3 27 28 24
3 20 25 21
3 23 24 20
3 21 26 22
3 30 35 31
3 25 30 26
3 26 31 27
3 24 29 25
3 34 39 35
3 28 33 29
3 31 32 28
3 29 34 30
3 39 40 36
3 32 37 33
3 35 36 32
3 33 38 34
3 42 47 43
3 37 42 38
3 38 43 39
3 36 41 37
3 45 47 46
3 40 45 41
3 43 44 40
3 41 46 42
3 1 3 2
3 3 7 6
3 7 5 4
3 5 1 0
3 6 4 0
3 3 9 10
3 10 14 15
3 7 10 11
3 1 8 9
3 5 11 8
3 14 18 19
3 8 12 13
3 11 15 12
3 9 13 14
3 19 23 20
3 12 16 17
3 15 19 16
3 13 17 18
3 22 26 27
3 17 21 22
3 18 22 23
3 16 20 21
3 27 31 28
3 20 24 25
3 23 27 24
3 21 25 26
3 30 34 35
3 25 29 30
3 26 30 31
3 24 28 29
3 34 38 39
3 28 32 33
3 31 35 32
3 29 33 34
3 39 43 40
3 32 36 37
3 35 39 36
3 33 37 38
3 42 46 47
3 37 41 42
3 38 42 43
3 36 40 41
3 45 44 47
3 40 44 45
3 43 47 44
3 41 45 46
