ply
format ascii 1.0
comment Created by Blender 2.83.20 - www.blender.org, source file: '5DoorGreenRightClosed.blend'
element vertex 100
property float x
property float y
property float z
property uchar red
property uchar green
property uchar blue
property uchar alpha
element face 75
property list uchar uint vertex_indices
end_header
-0.283069 1.405647 0.399058 182 176 163 255
-0.283069 1.500010 0.399058 182 176 163 255
-0.283069 1.500010 0.499058 182 176 163 255
-0.383069 1.500010 0.499058 182 176 163 255
-0.383069 1.500010 0.399058 182 176 163 255
-0.383069 1.405939 0.399058 182 176 163 255
-0.303649 1.404665 -0.500882 73 100 56 255
-0.303649 -0.495335 -0.500882 73 100 56 255
-0.363649 -0.495335 -0.500882 73 100 56 255
-0.363649 1.404665 -0.500882 73 100 56 255
-0.363649 -0.495335 0.399560 73 100 56 255
-0.363649 1.404665 0.399560 73 100 56 255
-0.363649 1.404665 0.399560 199 111 77 255
-0.363649 -0.495335 0.399560 199 111 77 255
-0.303649 -0.495335 0.399560 199 111 77 255
-0.303649 1.404665 0.399560 199 111 77 255
-0.303649 -0.495335 0.399560 73 100 56 255
-0.303649 1.404665 -0.500882 199 111 77 255
-0.363649 1.404665 -0.500882 199 111 77 255
-0.263279 0.287270 -0.434716 108 90 99 255
-0.209695 0.287270 -0.434716 105 86 96 255
-0.209695 0.287270 -0.254716 105 86 96 255
-0.263279 0.287270 -0.254716 105 86 96 255
-0.283069 -0.499990 0.499058 184 178 166 255
-0.283069 -0.499990 0.399058 183 177 164 255
-0.283069 1.500010 -0.500881 182 176 163 255
-0.283069 1.405599 -0.500881 182 176 163 255
-0.383069 1.406056 -0.500881 182 176 163 255
-0.383069 1.500010 -0.500881 182 176 163 255
-0.383069 -0.499990 0.399058 182 176 163 255
-0.383069 -0.499990 0.499058 182 176 163 255
-0.263279 0.340854 -0.254716 105 86 96 255
-0.209695 0.340854 -0.254716 105 86 96 255
-0.209695 0.340854 -0.434716 105 86 96 255
-0.278885 -0.076220 0.383351 105 86 96 255
-0.278885 -0.183525 0.383351 105 86 96 255
-0.386189 -0.183525 0.383351 105 86 96 255
-0.386189 -0.076220 0.383351 105 86 96 255
-0.386189 -0.183525 0.490656 105 86 96 255
-0.386189 -0.076220 0.490656 105 86 96 255
-0.278885 -0.183525 0.490656 105 86 96 255
-0.278885 -0.076220 0.490656 105 86 96 255
-0.292654 -0.089989 0.389440 105 86 96 255
-0.292654 -0.169756 0.389440 105 86 96 255
-0.292654 -0.169756 -0.110560 105 86 96 255
-0.292654 -0.089989 -0.110560 105 86 96 255
-0.372420 -0.169756 -0.110560 105 86 96 255
-0.372420 -0.089989 -0.110560 105 86 96 255
-0.372420 -0.169756 0.389440 105 86 96 255
-0.372420 -0.089989 0.389440 105 86 96 255
-0.278885 1.139933 0.490656 105 86 96 255
-0.278885 1.032628 0.490656 105 86 96 255
-0.278885 1.032628 0.383351 105 86 96 255
-0.278885 1.139933 0.383351 105 86 96 255
-0.386189 1.032628 0.383351 105 86 96 255
-0.386189 1.139933 0.383351 105 86 96 255
-0.386189 1.032628 0.490656 105 86 96 255
-0.386189 1.139933 0.490656 105 86 96 255
-0.292654 1.126163 0.389440 105 86 96 255
-0.292654 1.046397 0.389440 105 86 96 255
-0.292654 1.046397 -0.110560 105 86 96 255
-0.292654 1.126163 -0.110560 105 86 96 255
-0.372420 1.046397 -0.110560 105 86 96 255
-0.372420 1.126163 -0.110560 105 86 96 255
-0.372420 1.046397 0.389440 105 86 96 255
-0.372420 1.126163 0.389440 105 86 96 255
-0.278885 0.555506 0.490656 103 85 95 255
-0.278885 0.448201 0.490656 105 86 96 255
-0.278885 0.448201 0.383351 105 86 96 255
-0.278885 0.555506 0.383351 105 86 96 255
-0.386189 0.448201 0.383351 105 86 96 255
-0.386189 0.555506 0.383351 105 86 96 255
-0.386189 0.448201 0.490656 104 85 95 255
-0.386189 0.555506 0.490656 104 85 95 255
-0.292654 0.541737 0.389440 105 86 96 255
-0.292654 0.461970 0.389440 105 86 96 255
-0.292654 0.461970 -0.110560 105 86 96 255
-0.292654 0.541737 -0.110560 105 86 96 255
-0.372420 0.461970 -0.110560 97 78 88 255
-0.372420 0.541737 -0.110560 104 85 95 255
-0.372420 0.461970 0.389440 105 86 96 255
-0.372420 0.541737 0.389440 105 86 96 255
-0.253426 0.356881 -0.363640 105 86 96 255
-0.253426 0.271271 -0.363640 105 86 96 255
-0.253426 0.271271 -0.449250 105 86 96 255
-0.253426 0.356881 -0.449250 105 86 96 255
-0.413426 0.271271 -0.449250 105 86 96 255
-0.413426 0.356881 -0.449250 105 86 96 255
-0.413426 0.271271 -0.363640 105 86 96 255
-0.413426 0.356881 -0.363640 105 86 96 255
-0.404274 0.340854 -0.254716 105 86 96 255
-0.404274 0.287270 -0.254716 105 86 96 255
-0.404274 0.287270 -0.434716 105 86 96 255
-0.404274 0.340854 -0.434716 105 86 96 255
-0.457858 0.287270 -0.434716 105 86 96 255
-0.457858 0.340854 -0.434716 105 86 96 255
-0.457858 0.287270 -0.254716 105 86 96 255
-0.457858 0.340854 -0.254716 105 86 96 255
-0.263279 0.340854 -0.434716 105 86 96 255
-0.303649 1.404665 0.399560 73 100 56 255
3 0 1 2
3 3 4 5
4 6 7 8 9
4 9 8 10 11
4 12 13 14 15
4 8 7 16 10
4 17 18 12 15
4 19 20 21 22
3 2 23 0
3 23 24 0
4 25 26 27 28
3 5 29 30
3 30 3 5
4 29 24 23 30
4 1 4 3 2
4 31 22 21 32
4 0 24 29 5
4 27 5 4 28
4 26 0 5 27
4 32 21 20 33
4 34 35 36 37
4 37 36 38 39
4 39 38 40 41
4 36 35 40 38
4 34 37 39 41
4 42 43 44 45
4 45 44 46 47
4 47 46 48 49
4 49 48 43 42
4 46 44 43 48
4 45 47 49 42
4 50 51 52 53
4 53 52 54 55
4 55 54 56 57
4 57 56 51 50
4 54 52 51 56
4 53 55 57 50
4 58 59 60 61
4 61 60 62 63
4 63 62 64 65
4 65 64 59 58
4 62 60 59 64
4 61 63 65 58
4 66 67 68 69
4 69 68 70 71
4 71 70 72 73
4 73 72 67 66
4 70 68 67 72
4 69 71 73 66
4 74 75 76 77
4 77 76 78 79
4 79 78 80 81
4 81 80 75 74
4 78 76 75 80
4 77 79 81 74
4 82 83 84 85
4 85 84 86 87
4 87 86 88 89
4 89 88 83 82
4 86 84 83 88
4 85 87 89 82
4 90 91 92 93
4 93 92 94 95
4 95 94 96 97
4 97 96 91 90
4 94 92 91 96
4 93 95 97 90
4 33 98 31 32
4 41 40 35 34
4 4 1 25 28
4 33 20 19 98
4 98 19 22 31
4 3 30 23 2
4 25 1 0 26
4 99 16 7 6
