ply
format ascii 1.0
comment Created by Blender 2.83.20 - www.blender.org, source file: '5DoorGreenLeftClosed.blend'
element vertex 100
property float x
property float y
property float z
property uchar red
property uchar green
property uchar blue
property uchar alpha
element face 75
property list uchar uint vertex_indices
end_header
-0.283069 1.500010 -0.499939 182 176 163 255
-0.283069 1.500010 -0.399939 182 176 163 255
-0.283069 1.405647 -0.399939 182 176 163 255
-0.383069 1.405939 -0.399939 182 176 163 255
-0.383069 1.500010 -0.499939 182 176 163 255
-0.383069 -0.499990 -0.499939 182 176 163 255
-0.363649 -0.495335 0.500001 73 100 56 255
-0.303649 -0.495335 0.500001 73 100 56 255
-0.303649 1.404665 0.500001 73 100 56 255
-0.363649 1.404665 0.500001 73 100 56 255
-0.363649 -0.495335 -0.400440 73 100 56 255
-0.363649 1.404665 -0.400440 73 100 56 255
-0.303649 -0.495335 -0.400440 199 111 77 255
-0.363649 -0.495335 -0.400440 199 111 77 255
-0.363649 1.404665 -0.400440 199 111 77 255
-0.303649 1.404665 -0.400440 199 111 77 255
-0.303649 -0.495335 -0.400440 73 100 56 255
-0.363649 1.404665 0.500001 199 111 77 255
-0.303649 1.404665 0.500001 199 111 77 255
-0.209695 0.287270 0.253835 105 86 96 255
-0.209695 0.287270 0.433835 105 86 96 255
-0.263279 0.287270 0.433835 108 90 99 255
-0.263279 0.287270 0.253835 105 86 96 255
-0.283069 -0.499990 -0.399939 183 177 164 255
-0.283069 -0.499990 -0.499939 184 178 166 255
-0.283069 1.500010 0.500001 182 176 163 255
-0.283069 1.405599 0.500001 182 176 163 255
-0.383069 1.406056 0.500001 182 176 163 255
-0.383069 1.500010 0.500001 182 176 163 255
-0.383069 -0.499990 -0.399939 182 176 163 255
-0.383069 1.500010 -0.399939 182 176 163 255
-0.263279 0.340854 0.253835 105 86 96 255
-0.209695 0.340854 0.253835 105 86 96 255
-0.209695 0.340854 0.433835 105 86 96 255
-0.386189 -0.183525 -0.384232 105 86 96 255
-0.278885 -0.183525 -0.384232 105 86 96 255
-0.278885 -0.076220 -0.384232 105 86 96 255
-0.386189 -0.076220 -0.384232 105 86 96 255
-0.386189 -0.183525 -0.491537 105 86 96 255
-0.386189 -0.076220 -0.491537 105 86 96 255
-0.278885 -0.183525 -0.491537 105 86 96 255
-0.278885 -0.076220 -0.491537 105 86 96 255
-0.292654 -0.169756 0.109679 105 86 96 255
-0.292654 -0.169756 -0.390321 105 86 96 255
-0.292654 -0.089989 -0.390321 105 86 96 255
-0.292654 -0.089989 0.109679 105 86 96 255
-0.372420 -0.169756 0.109679 105 86 96 255
-0.372420 -0.089989 0.109679 105 86 96 255
-0.372420 -0.169756 -0.390321 105 86 96 255
-0.372420 -0.089989 -0.390321 105 86 96 255
-0.278885 1.032628 -0.384232 105 86 96 255
-0.278885 1.032628 -0.491537 105 86 96 255
-0.278885 1.139933 -0.491537 105 86 96 255
-0.278885 1.139933 -0.384232 105 86 96 255
-0.386189 1.032628 -0.384232 105 86 96 255
-0.386189 1.139933 -0.384232 105 86 96 255
-0.386189 1.032628 -0.491537 105 86 96 255
-0.386189 1.139933 -0.491537 105 86 96 255
-0.292654 1.046397 0.109679 105 86 96 255
-0.292654 1.046397 -0.390321 105 86 96 255
-0.292654 1.126163 -0.390321 105 86 96 255
-0.292654 1.126163 0.109679 105 86 96 255
-0.372420 1.046397 0.109679 105 86 96 255
-0.372420 1.126163 0.109679 105 86 96 255
-0.372420 1.046397 -0.390321 105 86 96 255
-0.372420 1.126163 -0.390321 105 86 96 255
-0.278885 0.448201 -0.384232 105 86 96 255
-0.278885 0.448201 -0.491537 105 86 96 255
-0.278885 0.555506 -0.491537 103 85 95 255
-0.278885 0.555506 -0.384232 105 86 96 255
-0.386189 0.448201 -0.384232 105 86 96 255
-0.386189 0.555506 -0.384232 105 86 96 255
-0.386189 0.448201 -0.491537 104 85 95 255
-0.386189 0.555506 -0.491537 104 85 95 255
-0.292654 0.461970 0.109679 105 86 96 255
-0.292654 0.461970 -0.390321 105 86 96 255
-0.292654 0.541737 -0.390321 105 86 96 255
-0.292654 0.541737 0.109679 105 86 96 255
-0.372420 0.461970 0.109679 97 78 88 255
-0.372420 0.541737 0.109679 104 85 95 255
-0.372420 0.461970 -0.390321 105 86 96 255
-0.372420 0.541737 -0.390321 105 86 96 255
-0.253426 0.271271 0.448369 105 86 96 255
-0.253426 0.271271 0.362759 105 86 96 255
-0.253426 0.356881 0.362759 105 86 96 255
-0.253426 0.356881 0.448369 105 86 96 255
-0.413426 0.271271 0.448369 105 86 96 255
-0.413426 0.356881 0.448369 105 86 96 255
-0.413426 0.271271 0.362759 105 86 96 255
-0.413426 0.356881 0.362759 105 86 96 255
-0.404274 0.287270 0.433835 105 86 96 255
-0.404274 0.287270 0.253835 105 86 96 255
-0.404274 0.340854 0.253835 105 86 96 255
-0.404274 0.340854 0.433835 105 86 96 255
-0.457858 0.287270 0.433835 105 86 96 255
-0.457858 0.340854 0.433835 105 86 96 255
-0.457858 0.287270 0.253835 105 86 96 255
-0.457858 0.340854 0.253835 105 86 96 255
-0.263279 0.340854 0.433835 105 86 96 255
-0.303649 1.404665 -0.400440 73 100 56 255
3 0 1 2
3 3 4 5
4 6 7 8 9
4 10 6 9 11
4 12 13 14 15
4 16 7 6 10
4 14 17 18 15
4 19 20 21 22
3 23 24 2
3 24 0 2
4 25 26 27 28
3 5 29 3
3 3 30 4
4 24 23 29 5
4 4 30 1 0
4 19 22 31 32
4 29 23 2 3
4 27 28 30 3
4 26 27 3 2
4 20 19 32 33
4 34 35 36 37
4 38 34 37 39
4 40 38 39 41
4 40 35 34 38
4 39 37 36 41
4 42 43 44 45
4 46 42 45 47
4 48 46 47 49
4 43 48 49 44
4 43 42 46 48
4 49 47 45 44
4 50 51 52 53
4 54 50 53 55
4 56 54 55 57
4 51 56 57 52
4 51 50 54 56
4 57 55 53 52
4 58 59 60 61
4 62 58 61 63
4 64 62 63 65
4 59 64 65 60
4 59 58 62 64
4 65 63 61 60
4 66 67 68 69
4 70 66 69 71
4 72 70 71 73
4 67 72 73 68
4 67 66 70 72
4 73 71 69 68
4 74 75 76 77
4 78 74 77 79
4 80 78 79 81
4 75 80 81 76
4 75 74 78 80
4 81 79 77 76
4 82 83 84 85
4 86 82 85 87
4 88 86 87 89
4 83 88 89 84
4 83 82 86 88
4 89 87 85 84
4 90 91 92 93
4 94 90 93 95
4 96 94 95 97
4 91 96 97 92
4 91 90 94 96
4 97 95 93 92
4 31 98 33 32
4 35 40 41 36
4 25 1 30 28
4 21 20 33 98
4 22 21 98 31
4 24 5 4 0
4 25 26 2 1
4 7 16 99 8
