ply
format ascii 1.0
comment Created in Blender version 4.2.2 LTS
element vertex 120
property float x
property float y
property float z
property uchar red
property uchar green
property uchar blue
property uchar alpha
element face 228
property list uchar uint vertex_indices
end_header
0 -0.5 0.27760094 186 86 81 255
0 -0.23821902 0.27760094 186 86 81 255
-0.1962935 -0.5 0.1962935 186 86 81 255
-0.1962935 -0.23821902 0.1962935 186 86 81 255
-0.27760094 -0.5 -1.2134323e-08 186 86 81 255
-0.27760094 -0.23821902 -1.2134323e-08 186 86 81 255
-0.1962935 -0.5 -0.1962935 186 86 81 255
-0.1962935 -0.23821902 -0.1962935 186 86 81 255
2.4268646e-08 -0.5 -0.27760094 186 86 81 255
2.4268646e-08 -0.23821902 -0.27760094 186 86 81 255
0.19629349 -0.5 -0.19629352 186 86 81 255
0.19629349 -0.23821902 -0.19629352 186 86 81 255
0.27760094 -0.5 3.3103582e-09 185 86 81 255
0.27760094 -0.23821902 3.3103582e-09 186 86 81 255
0.19629353 -0.5 0.19629349 186 86 81 255
0.19629353 -0.23821902 0.19629349 186 86 81 255
-0.18747199 -0.21771294 0.18747202 116 53 51 255
4.3842956e-09 -0.21771294 0.26512545 116 53 51 255
-0.26512545 -0.21771294 -1.1518028e-08 116 53 51 255
-0.18747199 -0.21771294 -0.18747202 116 53 51 255
2.75623e-08 -0.21771294 -0.26512545 116 53 51 255
0.18747199 -0.21771294 -0.18747203 116 53 51 255
0.26512545 -0.21771294 3.2325622e-09 116 53 51 255
0.18747205 -0.21771294 0.18747199 116 53 51 255
-0.19465055 -0.20062454 0.19465056 186 86 81 255
7.086497e-09 -0.20062454 0.27527747 186 86 81 255
-0.27527747 -0.20062454 -1.1757206e-08 186 86 81 255
-0.19465055 -0.20062454 -0.19465056 186 86 81 255
3.1152013e-08 -0.20062454 -0.27527747 186 86 81 255
0.19465055 -0.20062454 -0.19465058 186 86 81 255
0.27527747 -0.20062454 3.5582057e-09 186 86 81 255
0.19465059 -0.20062454 0.19465055 186 86 81 255
-0.19465055 0.16711402 0.19465056 186 86 81 255
9.662336e-09 0.16711402 0.27527747 186 86 81 255
-0.27527747 0.16711402 -1.1757206e-08 186 86 81 255
-0.19465055 0.16711402 -0.19465056 186 86 81 255
3.3727854e-08 0.16711402 -0.27527747 186 86 81 255
0.19465055 0.16711402 -0.19465058 186 86 81 255
0.27527747 0.16711402 3.5582057e-09 186 86 81 255
0.19465059 0.16711402 0.19465055 186 86 81 255
-0.18695113 0.18557337 0.18695116 186 86 81 255
1.3761724e-08 0.18557337 0.2643889 186 86 81 255
-0.26438886 0.18557337 -1.130717e-08 186 86 81 255
-0.18695113 0.18557337 -0.18695116 186 86 81 255
3.687533e-08 0.18557337 -0.2643889 186 86 81 255
0.18695115 0.18557337 -0.18695118 186 86 81 255
0.2643889 0.18557337 3.4024397e-09 186 86 81 255
0.1869512 0.18557337 0.18695115 186 86 81 255
-0.19538875 0.20537667 0.1953888 186 86 81 255
1.8229969e-08 0.20537667 0.27632147 186 86 81 255
-0.27632147 0.20537667 -1.1618612e-08 186 86 81 255
-0.19538875 0.20537667 -0.1953888 186 86 81 255
4.2386755e-08 0.20537667 -0.27632147 186 86 81 255
0.19538876 0.20537667 -0.19538881 186 86 81 255
0.27632147 0.20537667 3.754884e-09 186 86 81 255
0.19538884 0.20537667 0.19538876 186 86 81 255
-0.19538875 0.39164734 0.1953888 186 86 81 255
1.8229969e-08 0.39164734 0.27632147 186 86 81 255
-0.27632147 0.39164734 -1.1618612e-08 186 86 81 255
-0.19538875 0.39164734 -0.1953888 186 86 81 255
4.2386755e-08 0.39164734 -0.27632147 186 86 81 255
0.19538876 0.39164734 -0.19538881 186 86 81 255
0.27632147 0.39164734 3.754884e-09 186 86 81 255
0.19538884 0.39164734 0.19538876 186 86 81 255
-0.00016702474 0.13401973 0.28353488 186 86 81 255
-0.00016700102 0.31823695 0.38320026 116 53 51 255
-0.20065646 0.13401973 0.2004894 186 86 81 255
-0.2711305 0.31823695 0.2709635 116 53 51 255
-0.28370187 0.13401973 -1.3119974e-08 186 86 81 255
-0.38336724 0.31823695 -1.6750215e-08 116 53 51 255
-0.20065646 0.13401973 -0.2004894 186 86 81 255
-0.2711305 0.31823695 -0.2709635 116 53 51 255
-0.00016699996 0.13401973 -0.28353488 186 86 81 255
-0.00016696753 0.31823695 -0.38320026 116 53 51 255
0.20032239 0.13401973 -0.20048943 186 86 81 255
0.27079648 0.31823695 -0.27096352 116 53 51 255
0.28336787 0.13401973 2.6548461e-09 186 86 81 255
0.38303328 0.31823695 4.569617e-09 116 53 51 255
0.20032243 0.13401973 0.20048939 186 86 81 255
0.27079654 0.31823695 0.2709635 116 53 51 255
-0.00016701837 0.10265216 0.33267075 186 86 81 255
-0.23540077 0.10265216 0.23523371 186 86 81 255
-0.3328377 0.10265216 -1.42002845e-08 186 86 81 255
-0.23540077 0.10265216 -0.23523371 186 86 81 255
-0.0001669893 0.10265216 -0.33267075 186 86 81 255
0.2350667 0.10265216 -0.23523377 186 86 81 255
0.33250374 0.10265216 4.308273e-09 186 86 81 255
0.23506676 0.10265216 0.23523366 186 86 81 255
-0.0001670443 0.065567955 0.28092125 116 53 51 255
-0.19880839 0.065567955 0.19864132 116 53 51 255
-0.28108823 0.065567955 -1.4608694e-08 116 53 51 255
-0.19880839 0.065567955 -0.19864132 116 53 51 255
-0.00016701974 0.065567955 -0.28092125 116 53 51 255
0.19847426 0.065567955 -0.19864136 116 53 51 255
0.28075424 0.065567955 1.020715e-09 116 53 51 255
0.1984743 0.065567955 0.19864126 116 53 51 255
0.47336888 0.44492072 -0.45673293 116 53 51 255
0.5166359 0.49999994 -0.49999994 186 86 81 255
0.47336888 0.44492072 0.45673293 116 53 51 255
0.5166359 0.49999994 0.49999994 186 86 81 255
-0.44009694 0.44492072 -0.45673293 116 53 51 255
-0.483364 0.49999994 -0.49999994 186 86 81 255
-0.44009694 0.44492072 0.45673293 116 53 51 255
-0.483364 0.49999994 0.49999994 186 86 81 255
0.50562936 0.4311858 0.4889934 186 86 81 255
0.50562936 0.4311858 -0.4889934 186 86 81 255
-0.47235745 0.4311858 0.4889934 186 86 81 255
-0.47235745 0.4311858 -0.4889934 186 86 81 255
0.50562936 0.4105835 0.4889934 186 86 81 255
0.50562936 0.4105835 -0.4889934 186 86 81 255
-0.47235745 0.4105835 0.4889934 186 86 81 255
-0.47235745 0.4105835 -0.4889934 186 86 81 255
0.4449829 0.3583909 0.42834693 186 86 81 255
0.4449829 0.3583909 -0.42834693 186 86 81 255
-0.41171098 0.3583909 0.42834693 186 86 81 255
-0.41171098 0.3583909 -0.42834693 186 86 81 255
0.4449829 0.31224164 0.42834693 116 53 51 255
0.4449829 0.31224164 -0.42834693 116 53 51 255
-0.41171098 0.31224164 0.42834693 116 53 51 255
-0.41171098 0.31224164 -0.42834693 116 53 51 255
3 1 2 0
3 3 4 2
3 5 6 4
3 7 8 6
3 9 10 8
3 11 12 10
3 5 19 7
3 13 14 12
3 15 0 14
3 6 10 14
3 22 31 23
3 11 22 13
3 9 19 20
3 15 22 23
3 3 18 5
3 11 20 21
3 15 17 1
3 1 16 3
3 27 36 28
3 20 29 21
3 18 27 19
3 17 24 16
3 23 25 17
3 21 30 22
3 19 28 20
3 16 26 18
3 39 41 33
3 24 34 26
3 30 39 31
3 28 37 29
3 26 35 27
3 25 32 24
3 31 33 25
3 29 38 30
3 45 52 53
3 37 46 38
3 35 44 36
3 32 42 34
3 38 47 39
3 37 44 45
3 34 43 35
3 33 40 32
3 54 63 55
3 42 51 43
3 41 48 40
3 47 49 41
3 46 53 54
3 44 51 52
3 40 50 42
3 47 54 55
3 62 60 58
3 52 61 53
3 50 59 51
3 49 56 48
3 55 57 49
3 53 62 54
3 51 60 52
3 48 58 50
3 64 67 66
3 67 68 66
3 69 70 68
3 71 72 70
3 73 74 72
3 75 76 74
3 77 73 69
3 77 78 76
3 79 64 78
3 64 87 78
3 80 95 87
3 66 80 64
3 70 82 68
3 76 85 74
3 72 83 70
3 78 86 76
3 68 81 66
3 74 84 72
3 91 93 95
3 85 94 93
3 83 92 91
3 82 89 81
3 87 94 86
3 84 93 92
3 82 91 90
3 81 88 80
3 97 98 96
3 99 102 98
3 103 100 102
3 101 96 100
3 96 107 100
3 99 101 103
3 104 109 105
3 102 104 98
3 98 105 96
3 100 106 102
3 109 115 111
3 105 111 107
3 106 108 104
3 107 110 106
3 115 118 114
3 110 112 108
3 111 114 110
3 108 113 109
3 118 117 116
3 112 117 113
3 113 119 115
3 114 116 112
3 1 3 2
3 3 5 4
3 5 7 6
3 7 9 8
3 9 11 10
3 11 13 12
3 5 18 19
3 13 15 14
3 15 1 0
3 14 0 2
3 2 4 6
3 6 8 10
3 10 12 14
3 14 2 6
3 22 30 31
3 11 21 22
3 9 7 19
3 15 13 22
3 3 16 18
3 11 9 20
3 15 23 17
3 1 17 16
3 27 35 36
3 20 28 29
3 18 26 27
3 17 25 24
3 23 31 25
3 21 29 30
3 19 27 28
3 16 24 26
3 39 47 41
3 24 32 34
3 30 38 39
3 28 36 37
3 26 34 35
3 25 33 32
3 31 39 33
3 29 37 38
3 45 44 52
3 37 45 46
3 35 43 44
3 32 40 42
3 38 46 47
3 37 36 44
3 34 42 43
3 33 41 40
3 54 62 63
3 42 50 51
3 41 49 48
3 47 55 49
3 46 45 53
3 44 43 51
3 40 48 50
3 47 46 54
3 58 56 57
3 57 63 62
3 62 61 60
3 60 59 58
3 58 57 62
3 52 60 61
3 50 58 59
3 49 57 56
3 55 63 57
3 53 61 62
3 51 59 60
3 48 56 58
3 64 65 67
3 67 69 68
3 69 71 70
3 71 73 72
3 73 75 74
3 75 77 76
3 69 67 65
3 65 79 77
3 77 75 73
3 73 71 69
3 69 65 77
3 77 79 78
3 79 65 64
3 64 80 87
3 80 88 95
3 66 81 80
3 70 83 82
3 76 86 85
3 72 84 83
3 78 87 86
3 68 82 81
3 74 85 84
3 95 88 89
3 89 90 91
3 91 92 93
3 93 94 95
3 95 89 91
3 85 86 94
3 83 84 92
3 82 90 89
3 87 95 94
3 84 85 93
3 82 83 91
3 81 89 88
3 97 99 98
3 99 103 102
3 103 101 100
3 101 97 96
3 96 105 107
3 99 97 101
3 104 108 109
3 102 106 104
3 98 104 105
3 100 107 106
3 109 113 115
3 105 109 111
3 106 110 108
3 107 111 110
3 115 119 118
3 110 114 112
3 111 115 114
3 108 112 113
3 118 119 117
3 112 116 117
3 113 117 119
3 114 118 116
