ply
format ascii 1.0
comment Created in Blender version 4.2.2 LTS
element vertex 116
property float x
property float y
property float z
property uchar red
property uchar green
property uchar blue
property uchar alpha
element face 220
property list uchar uint vertex_indices
end_header
0 -0.44267607 0.27760094 186 86 81 255
0 -0.23821902 0.27760094 186 86 81 255
-0.1962935 -0.44267607 0.1962935 186 86 81 255
-0.1962935 -0.23821902 0.1962935 186 86 81 255
-0.27760094 -0.44267607 -1.2134323e-08 185 86 81 255
-0.27760094 -0.23821902 -1.2134323e-08 186 86 81 255
-0.1962935 -0.44267607 -0.1962935 186 86 81 255
-0.1962935 -0.23821902 -0.1962935 186 86 81 255
2.4268646e-08 -0.44267607 -0.27760094 186 86 81 255
2.4268646e-08 -0.23821902 -0.27760094 186 86 81 255
0.19629349 -0.44267607 -0.19629352 186 86 81 255
0.19629349 -0.23821902 -0.19629352 186 86 81 255
0.27760094 -0.44267607 3.3103582e-09 186 86 81 255
0.27760094 -0.23821902 3.3103582e-09 186 86 81 255
0.19629353 -0.44267607 0.19629349 186 86 81 255
0.19629353 -0.23821902 0.19629349 186 86 81 255
-0.18747199 -0.21771294 0.18747202 116 53 51 255
4.3842956e-09 -0.21771294 0.26512545 116 53 51 255
-0.26512545 -0.21771294 -1.1518028e-08 116 53 51 255
-0.18747199 -0.21771294 -0.18747202 116 53 51 255
2.75623e-08 -0.21771294 -0.26512545 116 53 51 255
0.18747199 -0.21771294 -0.18747203 116 53 51 255
0.26512545 -0.21771294 3.2325622e-09 116 53 51 255
0.18747205 -0.21771294 0.18747199 116 53 51 255
-0.19465055 -0.20062454 0.19465056 186 86 81 255
7.086497e-09 -0.20062454 0.27527747 186 86 81 255
-0.27527747 -0.20062454 -1.1757206e-08 186 86 81 255
-0.19465055 -0.20062454 -0.19465056 186 86 81 255
3.1152013e-08 -0.20062454 -0.27527747 186 86 81 255
0.19465055 -0.20062454 -0.19465058 186 86 81 255
0.27527747 -0.20062454 3.5582057e-09 186 86 81 255
0.19465059 -0.20062454 0.19465055 186 86 81 255
-0.19465055 0.16711402 0.19465056 186 86 81 255
9.662336e-09 0.16711402 0.27527747 186 86 81 255
-0.27527747 0.16711402 -1.1757206e-08 186 86 81 255
-0.19465055 0.16711402 -0.19465056 186 86 81 255
3.3727854e-08 0.16711402 -0.27527747 186 86 81 255
0.19465055 0.16711402 -0.19465058 186 86 81 255
0.27527747 0.16711402 3.5582057e-09 186 86 81 255
0.19465059 0.16711402 0.19465055 186 86 81 255
-0.18695113 0.18557337 0.18695116 116 53 51 255
1.3761724e-08 0.18557337 0.2643889 116 53 51 255
-0.26438886 0.18557337 -1.130717e-08 116 53 51 255
-0.18695113 0.18557337 -0.18695116 116 53 51 255
3.687533e-08 0.18557337 -0.2643889 116 53 51 255
0.18695115 0.18557337 -0.18695118 116 53 51 255
0.2643889 0.18557337 3.4024397e-09 116 53 51 255
0.1869512 0.18557337 0.18695115 116 53 51 255
-0.19538875 0.20537667 0.1953888 186 86 81 255
1.8229969e-08 0.20537667 0.27632147 186 86 81 255
-0.27632147 0.20537667 -1.1618612e-08 186 86 81 255
-0.19538875 0.20537667 -0.1953888 186 86 81 255
4.2386755e-08 0.20537667 -0.27632147 186 86 81 255
0.19538876 0.20537667 -0.19538881 186 86 81 255
0.27632147 0.20537667 3.754884e-09 186 86 81 255
0.19538884 0.20537667 0.19538876 186 86 81 255
-0.19538875 0.5001078 0.1953888 186 86 81 255
1.8229969e-08 0.5001078 0.27632147 186 86 81 255
-0.27632147 0.5001078 -1.1618612e-08 186 86 81 255
-0.19538875 0.5001078 -0.1953888 186 86 81 255
4.2386755e-08 0.5001078 -0.27632147 186 86 81 255
0.19538876 0.5001078 -0.19538881 186 86 81 255
0.27632147 0.5001078 3.754884e-09 185 87 80 255
0.19538884 0.5001078 0.19538876 186 86 81 255
0.50200236 -0.5 -0.49999997 116 53 51 255
0.4889899 -0.42242602 -0.48698753 186 86 81 255
0.50200236 -0.5 0.49999997 116 53 51 255
0.4889899 -0.42242602 0.48698753 186 86 81 255
-0.4979976 -0.5 -0.49999997 116 53 51 255
-0.48498517 -0.42242602 -0.48698753 186 86 81 255
-0.4979976 -0.5 0.49999997 116 53 51 255
-0.48498517 -0.42242602 0.48698753 185 87 80 255
0.461572 -0.40660343 -0.45956963 116 53 51 255
0.461572 -0.40660343 0.45956963 116 53 51 255
-0.45756727 -0.40660343 0.45956963 116 53 51 255
-0.45756727 -0.40660343 -0.45956963 116 53 51 255
0.48637348 -0.38682517 -0.48437113 186 86 81 255
0.48637348 -0.38682517 0.48437113 186 86 81 255
-0.48236877 -0.38682517 0.48437113 186 86 81 255
-0.48236877 -0.38682517 -0.48437113 186 86 81 255
0.39082345 -0.3235348 -0.38882107 186 86 81 255
0.39082345 -0.3235348 0.38882107 186 86 81 255
-0.3868187 -0.3235348 0.38882107 186 86 81 255
-0.3868187 -0.3235348 -0.38882107 186 86 81 255
0.0002075438 -0.32832223 0.37282327 186 86 81 255
0.00020735907 -0.1437451 0.27594468 116 53 51 255
-0.26341835 -0.32832223 0.26362586 186 86 81 255
-0.194915 -0.1437451 0.19512235 116 53 51 255
-0.37261572 -0.32832223 -1.6296623e-08 186 86 81 255
-0.27573735 -0.1437451 -1.1596482e-08 116 53 51 255
-0.26341835 -0.32832223 -0.26362586 186 86 81 255
-0.194915 -0.1437451 -0.19512235 116 53 51 255
0.00020757651 -0.32832223 -0.37282327 186 86 81 255
0.00020738326 -0.1437451 -0.27594468 116 53 51 255
0.26383337 -0.32832223 -0.26362586 186 86 81 255
0.19532968 -0.1437451 -0.19512238 116 53 51 255
0.37303084 -0.32832223 4.445873e-09 186 86 81 255
0.276152 -0.1437451 3.7560506e-09 116 53 51 255
0.26383343 -0.32832223 0.26362586 186 86 81 255
0.19532974 -0.1437451 0.19512235 116 53 51 255
-0.21525502 -0.121186614 0.21546243 186 86 81 255
0.00020741389 -0.121186614 0.3047099 186 86 81 255
-0.30450246 -0.121186614 -1.2416995e-08 186 86 81 255
-0.21525502 -0.121186614 -0.21546243 186 86 81 255
0.00020744065 -0.121186614 -0.3047099 186 86 81 255
0.21566983 -0.121186614 -0.21546246 186 86 81 255
0.30491734 -0.121186614 4.535926e-09 186 86 81 255
0.21566986 -0.121186614 0.21546243 186 86 81 255
-0.19233073 -0.09262191 0.19253813 186 86 81 255
0.00020738946 -0.09262191 0.27229005 186 86 81 255
-0.27208266 -0.09262191 -1.188859e-08 186 86 81 255
-0.19233073 -0.09262191 -0.19253813 186 86 81 255
0.00020741337 -0.09262191 -0.27229005 186 86 81 255
0.19274546 -0.09262191 -0.19253813 186 86 81 255
0.2724974 -0.09262191 3.2606116e-09 186 86 81 255
0.19274552 -0.09262191 0.19253813 186 86 81 255
3 1 2 0
3 3 4 2
3 5 6 4
3 7 8 6
3 9 10 8
3 11 12 10
3 5 19 7
3 13 14 12
3 15 0 14
3 6 10 14
3 22 31 23
3 11 22 13
3 9 19 20
3 15 22 23
3 3 18 5
3 11 20 21
3 15 17 1
3 1 16 3
3 27 36 28
3 20 29 21
3 18 27 19
3 17 24 16
3 23 25 17
3 21 30 22
3 19 28 20
3 16 26 18
3 39 41 33
3 24 34 26
3 30 39 31
3 28 37 29
3 26 35 27
3 25 32 24
3 31 33 25
3 29 38 30
3 45 52 53
3 37 46 38
3 35 44 36
3 32 42 34
3 38 47 39
3 37 44 45
3 34 43 35
3 33 40 32
3 54 63 55
3 42 51 43
3 41 48 40
3 47 49 41
3 46 53 54
3 44 51 52
3 40 50 42
3 47 54 55
3 62 60 58
3 52 61 53
3 50 59 51
3 49 56 48
3 55 57 49
3 53 62 54
3 51 60 52
3 48 58 50
3 65 66 64
3 67 70 66
3 71 68 70
3 69 64 68
3 70 64 66
3 65 73 67
3 75 76 72
3 69 72 65
3 67 74 71
3 71 75 69
3 79 82 83
3 73 78 74
3 74 79 75
3 72 77 73
3 81 83 82
3 77 80 81
3 76 83 80
3 78 81 82
3 85 86 84
3 87 88 86
3 88 91 90
3 90 93 92
3 92 95 94
3 94 97 96
3 91 102 103
3 97 98 96
3 99 84 98
3 90 94 98
3 107 114 115
3 97 105 106
3 93 103 104
3 97 107 99
3 87 102 89
3 95 104 105
3 99 101 85
3 85 100 87
3 114 112 110
3 104 113 105
3 102 111 103
3 100 109 108
3 101 115 109
3 105 114 106
3 103 112 104
3 102 108 110
3 1 3 2
3 3 5 4
3 5 7 6
3 7 9 8
3 9 11 10
3 11 13 12
3 5 18 19
3 13 15 14
3 15 1 0
3 14 0 2
3 2 4 6
3 6 8 10
3 10 12 14
3 14 2 6
3 22 30 31
3 11 21 22
3 9 7 19
3 15 13 22
3 3 16 18
3 11 9 20
3 15 23 17
3 1 17 16
3 27 35 36
3 20 28 29
3 18 26 27
3 17 25 24
3 23 31 25
3 21 29 30
3 19 27 28
3 16 24 26
3 39 47 41
3 24 32 34
3 30 38 39
3 28 36 37
3 26 34 35
3 25 33 32
3 31 39 33
3 29 37 38
3 45 44 52
3 37 45 46
3 35 43 44
3 32 40 42
3 38 46 47
3 37 36 44
3 34 42 43
3 33 41 40
3 54 62 63
3 42 50 51
3 41 49 48
3 47 55 49
3 46 45 53
3 44 43 51
3 40 48 50
3 47 46 54
3 58 56 57
3 57 63 62
3 62 61 60
3 60 59 58
3 58 57 62
3 52 60 61
3 50 58 59
3 49 57 56
3 55 63 57
3 53 61 62
3 51 59 60
3 48 56 58
3 65 67 66
3 67 71 70
3 71 69 68
3 69 65 64
3 70 68 64
3 65 72 73
3 75 79 76
3 69 75 72
3 67 73 74
3 71 74 75
3 79 78 82
3 73 77 78
3 74 78 79
3 72 76 77
3 81 80 83
3 77 76 80
3 76 79 83
3 78 77 81
3 85 87 86
3 87 89 88
3 88 89 91
3 90 91 93
3 92 93 95
3 94 95 97
3 91 89 102
3 97 99 98
3 99 85 84
3 98 84 86
3 86 88 90
3 90 92 94
3 94 96 98
3 98 86 90
3 107 106 114
3 97 95 105
3 93 91 103
3 97 106 107
3 87 100 102
3 95 93 104
3 99 107 101
3 85 101 100
3 110 108 109
3 109 115 114
3 114 113 112
3 112 111 110
3 110 109 114
3 104 112 113
3 102 110 111
3 100 101 109
3 101 107 115
3 105 113 114
3 103 111 112
3 102 100 108
