ply
format ascii 1.0
comment Created by Blender 3.4.1 - www.blender.org
element vertex 64
property float x
property float y
property float z
property uchar red
property uchar green
property uchar blue
property uchar alpha
element face 48
property list uchar uint vertex_indices
end_header
0.398096 -0.383813 -0.156177 153 79 75 255
0.398096 0.392946 -0.156177 153 79 75 255
0.398096 0.392946 -0.122167 153 79 75 255
0.398096 -0.383813 -0.122167 153 79 75 255
0.364086 0.392946 -0.122167 153 79 75 255
0.364086 -0.383813 -0.122167 153 79 75 255
0.364086 0.392946 -0.156177 153 79 75 255
0.364086 -0.383813 -0.156177 153 79 75 255
0.417929 0.500000 -0.500000 172 92 89 255
0.417929 0.500000 0.500000 172 92 89 255
0.417882 0.436228 0.436228 172 92 89 255
0.417882 0.436228 -0.436228 172 92 89 255
0.417929 -0.500000 0.500000 172 92 89 255
0.331684 0.500000 0.500000 172 92 89 255
0.331684 -0.500000 0.500000 172 92 89 255
0.331684 0.500000 -0.500000 172 92 89 255
0.331714 0.437148 -0.437148 172 92 89 255
0.331714 0.437148 0.437148 172 92 89 255
0.331684 -0.500000 -0.500000 172 92 89 255
0.417929 -0.500000 -0.500000 172 92 89 255
0.331714 -0.437148 -0.437148 153 79 75 255
0.353913 -0.437148 -0.437148 124 64 61 255
0.353913 0.437148 -0.437148 124 64 61 255
0.331714 -0.437148 0.437148 172 92 89 255
0.403626 0.436228 0.436228 124 64 61 255
0.403626 0.436228 -0.436228 124 64 61 255
0.417882 -0.436228 -0.436228 172 92 89 255
0.417882 -0.436228 0.436228 172 92 89 255
0.403626 0.376025 0.376025 153 79 75 255
0.403626 0.376025 -0.376025 153 79 75 255
0.403626 -0.436228 -0.436228 124 64 61 255
0.403626 -0.436228 0.436228 124 64 61 255
0.353913 -0.437148 0.437148 124 64 61 255
0.353913 0.437148 0.437148 124 64 61 255
0.353913 0.376131 0.376131 153 79 75 255
0.353913 -0.376131 0.376131 153 79 75 255
0.403626 -0.376025 -0.376025 153 79 75 255
0.403626 -0.376025 0.376025 153 79 75 255
0.353913 -0.376131 -0.376131 153 79 75 255
0.353913 0.376131 -0.376131 153 79 75 255
0.398096 -0.383813 0.122709 153 79 75 255
0.398096 0.392946 0.122709 153 79 75 255
0.398096 0.392946 0.156719 153 79 75 255
0.398096 -0.383813 0.156719 153 79 75 255
0.364086 0.392946 0.156719 153 79 75 255
0.364086 -0.383813 0.156719 153 79 75 255
0.364086 0.392946 0.122709 153 79 75 255
0.364086 -0.383813 0.122709 153 79 75 255
0.393225 -0.126177 -0.388314 153 79 75 255
0.393225 -0.126177 0.388444 153 79 75 255
0.393225 -0.160188 0.388444 153 79 75 255
0.393225 -0.160188 -0.388314 153 79 75 255
0.359215 -0.160188 0.388444 153 79 75 255
0.359215 -0.160188 -0.388314 153 79 75 255
0.359215 -0.126177 0.388444 153 79 75 255
0.359215 -0.126177 -0.388314 153 79 75 255
0.393225 0.155087 -0.386432 153 79 75 255
0.393225 0.155087 0.390327 153 79 75 255
0.393225 0.121077 0.390327 153 79 75 255
0.393225 0.121077 -0.386432 153 79 75 255
0.359215 0.121077 0.390327 153 79 75 255
0.359215 0.121077 -0.386432 153 79 75 255
0.359215 0.155087 0.390327 153 79 75 255
0.359215 0.155087 -0.386432 153 79 75 255
4 0 1 2 3
4 3 2 4 5
4 5 4 6 7
4 7 6 1 0
4 8 9 10 11
4 12 9 13 14
4 13 15 16 17
4 18 15 8 19
4 12 14 18 19
4 13 9 8 15
4 16 20 21 22
4 14 13 17 23
4 15 18 20 16
4 18 14 23 20
4 11 10 24 25
4 12 19 26 27
4 9 12 27 10
4 19 8 11 26
4 25 24 28 29
4 27 26 30 31
4 10 27 31 24
4 26 11 25 30
4 32 33 34 35
4 20 23 32 21
4 17 16 22 33
4 23 17 33 32
4 31 30 36 37
4 24 31 37 28
4 30 25 29 36
4 22 21 38 39
4 21 32 35 38
4 33 22 39 34
4 29 28 34 39
4 36 29 39 38
4 37 36 38 35
4 37 35 34 28
4 40 41 42 43
4 43 42 44 45
4 45 44 46 47
4 47 46 41 40
4 48 49 50 51
4 51 50 52 53
4 53 52 54 55
4 55 54 49 48
4 56 57 58 59
4 59 58 60 61
4 61 60 62 63
4 63 62 57 56
