ply
format ascii 1.0
comment Created by Blender 3.4.1 - www.blender.org
element vertex 64
property float x
property float y
property float z
property uchar red
property uchar green
property uchar blue
property uchar alpha
element face 32
property list uchar uint vertex_indices
end_header
0.398096 -0.483081 -0.178624 153 79 75 255
0.398096 0.499977 -0.178624 153 79 75 255
0.398096 0.499977 -0.144614 153 79 75 255
0.398096 -0.483081 -0.144614 153 79 75 255
0.364086 0.499977 -0.144614 153 79 75 255
0.364086 -0.483081 -0.144614 153 79 75 255
0.364086 0.499977 -0.178624 153 79 75 255
0.364086 -0.483081 -0.178624 153 79 75 255
0.398096 -0.483081 0.148944 153 79 75 255
0.398096 0.499977 0.148944 153 79 75 255
0.398096 0.499977 0.182954 153 79 75 255
0.398096 -0.483081 0.182954 153 79 75 255
0.364086 0.499977 0.182954 153 79 75 255
0.364086 -0.483081 0.182954 153 79 75 255
0.364086 0.499977 0.148944 153 79 75 255
0.364086 -0.483081 0.148944 153 79 75 255
0.393230 0.500006 0.499955 153 79 75 255
0.393230 -0.482992 0.499955 153 79 75 255
0.393230 -0.482992 0.482950 153 79 75 255
0.393230 0.500006 0.482950 153 79 75 255
0.359220 -0.482992 0.482950 153 79 75 255
0.359220 0.500006 0.482950 153 79 75 255
0.359220 -0.482992 0.499955 153 79 75 255
0.359220 0.500006 0.499955 153 80 75 255
0.393225 -0.482991 -0.483006 153 79 75 255
0.393225 -0.482991 0.499999 153 79 75 255
0.393225 -0.499996 0.499999 153 79 75 255
0.393225 -0.499996 -0.483004 153 79 75 255
0.359215 -0.499996 0.499999 153 79 75 255
0.359215 -0.499996 -0.483003 153 79 75 255
0.359215 -0.482991 0.499999 153 79 75 255
0.359215 -0.482991 -0.483006 153 79 75 255
0.393225 -0.144906 -0.483147 153 79 75 255
0.393225 -0.144906 0.483316 153 80 75 255
0.393225 -0.178917 0.483316 153 79 75 255
0.393225 -0.178917 -0.483147 153 79 75 255
0.359215 -0.178917 0.483316 153 79 75 255
0.359215 -0.178917 -0.483147 153 79 75 255
0.359215 -0.144906 0.483316 153 79 75 255
0.359215 -0.144906 -0.483147 153 79 75 255
0.393225 0.179858 -0.482996 153 79 75 255
0.393225 0.179858 0.483082 153 79 75 255
0.393225 0.145848 0.483082 153 79 75 255
0.393225 0.145848 -0.482996 153 79 75 255
0.359215 0.145848 0.483082 153 79 75 255
0.359215 0.145848 -0.482996 153 79 75 255
0.359215 0.179858 0.483082 153 79 75 255
0.359215 0.179858 -0.482996 153 79 75 255
0.393225 0.500003 -0.483006 153 79 75 255
0.393225 0.500003 0.482980 153 79 75 255
0.393225 0.482998 0.482980 153 79 75 255
0.393225 0.482998 -0.483006 153 79 75 255
0.359215 0.482998 0.482980 153 79 75 255
0.359215 0.482998 -0.483006 153 79 75 255
0.359215 0.500003 0.482980 153 79 75 255
0.359215 0.500003 -0.483006 153 79 75 255
0.393230 0.500006 -0.483000 153 79 75 255
0.393230 -0.500000 -0.483000 153 79 75 255
0.393230 -0.500000 -0.500005 153 79 75 255
0.393230 0.500006 -0.500005 153 79 75 255
0.359220 -0.500000 -0.500005 153 79 75 255
0.359220 0.500006 -0.500005 153 79 75 255
0.359220 -0.500000 -0.483000 153 79 75 255
0.359220 0.500006 -0.483000 153 79 75 255
4 0 1 2 3
4 3 2 4 5
4 5 4 6 7
4 7 6 1 0
4 8 9 10 11
4 11 10 12 13
4 13 12 14 15
4 15 14 9 8
4 16 17 18 19
4 19 18 20 21
4 21 20 22 23
4 23 22 17 16
4 24 25 26 27
4 27 26 28 29
4 29 28 30 31
4 31 30 25 24
4 32 33 34 35
4 35 34 36 37
4 37 36 38 39
4 39 38 33 32
4 40 41 42 43
4 43 42 44 45
4 45 44 46 47
4 47 46 41 40
4 48 49 50 51
4 51 50 52 53
4 53 52 54 55
4 55 54 49 48
4 56 57 58 59
4 59 58 60 61
4 61 60 62 63
4 63 62 57 56
