ply
format ascii 1.0
comment Created by Blender 2.83.20 - www.blender.org, source file: '4WindowWhiteOneSideConnection.blend'
element vertex 72
property float x
property float y
property float z
property uchar red
property uchar green
property uchar blue
property uchar alpha
element face 44
property list uchar uint vertex_indices
end_header
0.398096 -0.383813 -0.156177 172 157 143 255
0.398096 0.499977 -0.156177 172 156 142 255
0.398096 0.499977 -0.122167 172 155 141 255
0.398096 -0.383813 -0.122167 172 157 143 255
0.364086 0.499977 -0.122167 172 157 143 255
0.364086 -0.383813 -0.122167 172 157 143 255
0.364086 0.499977 -0.156177 172 157 143 255
0.364086 -0.383813 -0.156177 172 157 143 255
0.398096 -0.383813 0.122709 172 157 143 255
0.398096 0.499977 0.122709 172 157 143 255
0.398096 0.499977 0.156719 172 157 143 255
0.398096 -0.383813 0.156719 172 157 143 255
0.364086 0.499977 0.156719 172 157 143 255
0.364086 -0.383813 0.156719 172 157 143 255
0.364086 0.499977 0.122709 172 157 143 255
0.364086 -0.383813 0.122709 172 157 143 255
0.417929 -0.500000 0.500000 187 179 173 255
0.417929 0.500000 0.500000 187 180 174 255
0.331684 0.500000 0.500000 187 180 174 255
0.331684 -0.500000 0.500000 187 180 174 255
0.331684 -0.500000 -0.500000 187 180 174 255
0.331684 0.500000 -0.500000 184 176 170 255
0.417929 0.500000 -0.500000 187 180 174 255
0.417929 -0.500000 -0.500000 187 180 174 255
0.331714 0.500051 -0.437148 187 180 173 255
0.331714 -0.437148 -0.437148 187 180 174 255
0.353913 -0.437148 -0.437148 141 129 117 255
0.353913 0.500051 -0.437148 141 129 117 255
0.331714 0.500051 0.437148 187 180 174 255
0.331714 -0.437148 0.437148 187 180 174 255
0.417882 -0.436228 -0.436228 187 180 174 255
0.417882 -0.436228 0.436228 187 180 174 255
0.417882 0.499957 0.436228 187 180 174 255
0.417882 0.500023 -0.436228 187 180 174 255
0.403626 -0.436228 -0.436228 141 129 117 255
0.403626 -0.436228 0.436228 141 129 117 255
0.403626 0.499957 0.436228 141 129 117 255
0.403626 0.500023 -0.436228 141 129 117 255
0.353913 -0.437148 0.437148 141 129 117 255
0.353913 0.500051 0.437148 141 129 117 255
0.353913 0.500003 0.376131 172 157 143 255
0.353913 -0.376131 0.376131 172 157 143 255
0.403626 -0.376025 -0.376025 172 157 143 255
0.403626 -0.376025 0.376025 172 157 143 255
0.403626 0.499986 0.376025 172 157 143 255
0.403626 0.499999 -0.376025 172 157 143 255
0.353913 -0.376131 -0.376131 172 157 143 255
0.353913 0.500005 -0.376131 172 157 143 255
0.393225 -0.080680 -0.388314 172 157 143 255
0.393225 -0.080680 0.388444 172 157 143 255
0.393225 -0.114691 0.388444 172 157 143 255
0.393225 -0.114691 -0.388314 172 157 143 255
0.359215 -0.114691 0.388444 172 157 143 255
0.359215 -0.114691 -0.388314 172 157 143 255
0.359215 -0.080680 0.388444 172 157 143 255
0.359215 -0.080680 -0.388314 172 157 143 255
0.393225 0.219919 -0.386432 172 157 143 255
0.393225 0.219919 0.390327 172 157 143 255
0.393225 0.185909 0.390327 172 157 143 255
0.393225 0.185909 -0.386432 172 157 143 255
0.359215 0.185909 0.390327 172 157 143 255
0.359215 0.185909 -0.386432 172 157 143 255
0.359215 0.219919 0.390327 172 157 143 255
0.359215 0.219919 -0.386432 172 157 143 255
0.393225 0.500003 -0.386432 172 157 143 255
0.393225 0.500003 0.390327 172 157 143 255
0.393225 0.482998 0.390327 172 157 143 255
0.393225 0.482998 -0.386432 172 157 143 255
0.359215 0.482998 0.390327 172 157 143 255
0.359215 0.482998 -0.386432 172 157 143 255
0.359215 0.500003 0.390327 172 157 143 255
0.359215 0.500003 -0.386432 172 157 143 255
4 0 1 2 3
4 3 2 4 5
4 5 4 6 7
4 7 6 1 0
4 8 9 10 11
4 11 10 12 13
4 13 12 14 15
4 15 14 9 8
4 16 17 18 19
4 20 21 22 23
4 16 19 20 23
4 24 25 26 27
4 19 18 28 29
4 21 20 25 24
4 20 19 29 25
4 16 23 30 31
4 17 16 31 32
4 23 22 33 30
4 31 30 34 35
4 32 31 35 36
4 30 33 37 34
4 38 39 40 41
4 25 29 38 26
4 29 28 39 38
4 35 34 42 43
4 36 35 43 44
4 34 37 45 42
4 27 26 46 47
4 26 38 41 46
4 42 45 47 46
4 43 42 46 41
4 43 41 40 44
4 48 49 50 51
4 51 50 52 53
4 53 52 54 55
4 55 54 49 48
4 56 57 58 59
4 59 58 60 61
4 61 60 62 63
4 63 62 57 56
4 64 65 66 67
4 67 66 68 69
4 69 68 70 71
4 71 70 65 64
