ply
format ascii 1.0
comment Created by Blender 2.83.20 - www.blender.org, source file: '4WindowWhiteTwoSideConnection2AlignmentFix.blend'
element vertex 72
property float x
property float y
property float z
property uchar red
property uchar green
property uchar blue
property uchar alpha
element face 40
property list uchar uint vertex_indices
end_header
0.331684 -0.500000 -0.500000 187 180 174 255
0.331684 0.500000 -0.500000 187 180 174 255
0.417929 0.500000 -0.500000 187 180 174 255
0.417929 -0.500000 -0.500000 187 180 174 255
0.417929 -0.500000 0.500000 187 180 174 255
0.331684 -0.500000 0.500000 187 180 174 255
0.331714 0.500051 -0.437148 187 180 174 255
0.331714 -0.437148 -0.437148 187 180 174 255
0.353913 -0.437148 -0.437148 147 134 122 255
0.353913 0.500051 -0.437148 147 134 122 255
0.331714 -0.437148 0.499999 187 180 174 255
0.417882 -0.436228 -0.436228 187 180 174 255
0.417882 -0.436228 0.499999 187 180 174 255
0.417882 0.500023 -0.436228 187 180 174 255
0.403626 -0.436228 -0.436228 147 134 122 255
0.403626 -0.436228 0.499999 147 134 122 255
0.403626 0.500023 -0.436228 147 134 122 255
0.353913 -0.437148 0.499999 147 134 122 255
0.403626 -0.376025 -0.376025 172 157 143 255
0.403626 -0.376025 0.499997 172 157 143 255
0.403626 0.499999 -0.376025 172 157 143 255
0.353913 -0.376131 -0.376131 172 157 143 255
0.353913 0.500005 -0.376131 172 157 143 255
0.353913 -0.376131 0.500000 172 157 143 255
0.398096 -0.383813 -0.117923 172 157 143 255
0.398096 0.499977 -0.117923 172 157 143 255
0.398096 0.499977 -0.083912 172 157 143 255
0.398096 -0.383813 -0.083912 172 157 143 255
0.364086 0.499977 -0.083912 172 157 143 255
0.364086 -0.383813 -0.083912 172 157 143 255
0.364086 0.499977 -0.117923 172 157 143 255
0.364086 -0.383813 -0.117923 172 157 143 255
0.398096 -0.383813 0.185665 172 157 143 255
0.398096 0.499977 0.185665 172 157 143 255
0.398096 0.499977 0.219675 172 157 143 255
0.398096 -0.383813 0.219675 172 157 143 255
0.364086 0.499977 0.219675 172 157 143 255
0.364086 -0.383813 0.219675 172 157 143 255
0.364086 0.499977 0.185665 172 157 143 255
0.364086 -0.383813 0.185665 172 157 143 255
0.393225 -0.080680 -0.388314 172 157 143 255
0.393225 -0.080680 0.483316 172 157 143 255
0.393225 -0.114691 0.483316 172 157 143 255
0.393225 -0.114691 -0.388314 172 157 143 255
0.359215 -0.114691 0.483316 174 151 135 255
0.359215 -0.114691 -0.388314 172 157 143 255
0.359215 -0.080680 0.483316 172 157 143 255
0.359215 -0.080680 -0.388314 172 157 143 255
0.393225 0.219919 -0.386432 172 157 143 255
0.393225 0.219919 0.483082 172 155 141 255
0.393225 0.185909 0.483082 172 155 141 255
0.393225 0.185909 -0.386432 172 157 143 255
0.359215 0.185909 0.483082 172 157 143 255
0.359215 0.185909 -0.386432 172 157 143 255
0.359215 0.219919 0.483082 172 157 143 255
0.359215 0.219919 -0.386432 172 157 143 255
0.393225 0.500003 -0.386432 172 157 143 255
0.393225 0.500003 0.482980 172 157 143 255
0.393225 0.482998 0.482980 172 157 143 255
0.393225 0.482998 -0.386432 172 157 143 255
0.359215 0.482998 0.482980 172 157 143 255
0.359215 0.482998 -0.386432 172 157 143 255
0.359215 0.500003 0.482980 172 157 143 255
0.359215 0.500003 -0.386432 172 157 143 255
0.393230 0.500006 0.499955 172 157 143 255
0.393230 -0.382234 0.499955 172 157 143 255
0.393230 -0.382234 0.482950 172 157 143 255
0.393230 0.500006 0.482950 172 157 143 255
0.359220 -0.382234 0.482950 172 157 143 255
0.359220 0.500006 0.482950 172 157 143 255
0.359220 -0.382234 0.499955 172 157 143 255
0.359220 0.500006 0.499955 172 157 143 255
4 0 1 2 3
4 4 5 0 3
4 6 7 8 9
4 1 0 7 6
4 0 5 10 7
4 4 3 11 12
4 3 2 13 11
4 12 11 14 15
4 11 13 16 14
4 7 10 17 8
4 15 14 18 19
4 14 16 20 18
4 9 8 21 22
4 8 17 23 21
4 18 20 22 21
4 19 18 21 23
4 24 25 26 27
4 27 26 28 29
4 29 28 30 31
4 31 30 25 24
4 32 33 34 35
4 35 34 36 37
4 37 36 38 39
4 39 38 33 32
4 40 41 42 43
4 43 42 44 45
4 45 44 46 47
4 47 46 41 40
4 48 49 50 51
4 51 50 52 53
4 53 52 54 55
4 55 54 49 48
4 56 57 58 59
4 59 58 60 61
4 61 60 62 63
4 63 62 57 56
4 64 65 66 67
4 67 66 68 69
4 69 68 70 71
4 71 70 65 64
