ply
format ascii 1.0
comment Created in Blender version 4.1.1
element vertex 67
property float x
property float y
property float z
property uchar red
property uchar green
property uchar blue
property uchar alpha
property float s
property float t
element face 53
property list uchar uint vertex_indices
end_header
-0.49930054 0.50159204 0.25177428 199 155 97 255 -9 -9
-0.4870161 0.5082708 -0.2545918 199 156 98 255 -9 -9
-0.50116915 0.33766606 -0.5000001 195 147 93 255 -9 -9
0.5878256 -0.50419813 0.25000018 199 156 98 255 -9 -9
0.6134257 -0.5041981 0.50000125 195 145 89 255 -9 -9
0.50000983 -0.5002101 0.50000113 195 147 93 255 -9 -9
0.5000254 -0.3298659 0.5600001 106 66 52 255 -9 -9
0.50002545 -0.3298659 0.5000001 106 66 52 255 -9 -9
-0.4997094 0.6702997 0.4999998 106 66 52 255 -9 -9
-0.49970946 0.6702997 0.5599997 106 66 52 255 -9 -9
-0.5011694 0.33766606 0.50000083 195 147 93 255 -9 -9
-0.5006489 0.5003634 0.50000083 195 146 91 255 -9 -9
-0.50710833 0.53169364 -1.7330761e-07 201 164 117 255 -9 -9
-0.5006487 0.50036335 -0.5000001 197 148 92 255 -9 -9
0.36609083 -0.23172231 -0.49999988 195 160 109 255 -9 -9
0.615935 -0.5041982 -0.4999998 195 145 89 255 -9 -9
0.5000101 -0.5002102 -0.49999982 194 147 93 255 -9 -9
0.5932746 -0.50419813 -0.2499998 199 156 98 255 -9 -9
0.6600608 -0.50419813 2.0819785e-07 205 167 119 255 -9 -9
0.36609063 -0.23172225 0.50000113 195 160 109 255 -9 -9
-0.4999998 0.32999998 -0.5600002 81 52 42 255 -9 -9
0.50000024 -0.33000004 -0.5599998 106 66 52 255 -9 -9
0.50000024 -0.6700001 -0.5599997 81 52 42 255 -9 -9
0.5000002 -0.33000004 -0.49999982 106 66 52 255 -9 -9
-0.49999985 0.32999998 -0.5000001 81 52 42 255 -9 -9
0.5000002 -0.6700001 -0.4999998 81 52 42 255 -9 -9
-0.49999985 -0.50000006 -0.5000001 252 252 252 255 1 0
-0.49999985 0.37499997 -0.5000002 252 252 252 255 1 0.875
0.5000002 -0.50000006 -0.49999976 252 252 252 255 0 0
-0.17366458 0.246679 0.24999993 199 156 98 255 -9 -9
-0.21173564 0.28062642 0.01392429 227 181 128 255 -9 -9
0.5000002 -0.50000006 -0.43999976 252 252 252 255 0 0
-0.49999985 0.37499997 -0.44000018 252 252 252 255 1 0.875
-0.49999985 -0.50000006 -0.44000012 252 252 252 255 1 0
-0.5000002 -0.49999997 0.43999988 252 252 252 255 0 0
-0.5000002 0.37500003 0.43999982 252 252 252 255 0 0.875
0.49999985 -0.49999997 0.44000024 252 252 252 255 1 0
0.49999985 -0.49999997 0.5000002 252 252 252 255 1 0
-0.5000002 0.37500003 0.49999982 252 252 252 255 0 0.875
-0.5000002 -0.49999997 0.49999988 252 252 252 255 0 0
-0.5001173 0.32942405 0.49999982 81 52 42 255 -9 -9
0.49992338 -0.67032576 0.5000002 81 52 42 255 -9 -9
-0.50011736 0.32942405 0.5599998 81 52 42 255 -9 -9
0.49992332 -0.67032576 0.56000024 81 52 42 255 -9 -9
-0.24477424 0.2563348 -0.25000006 195 147 93 255 -9 -9
0.04413881 0.0123063065 0.25 198 155 97 255 -9 -9
0.07717755 0.034174792 -0.020193797 203 166 118 255 -9 -9
0.36609066 -0.24818434 0.22980627 199 156 98 255 -9 -9
0.36609074 -0.2317223 1.0643367e-07 227 181 128 255 -9 -9
0.07717763 -0.0046600294 -0.24999999 195 147 93 255 -9 -9
0.4042767 -0.25064108 -0.24999987 195 147 93 255 -9 -9
0.36609083 -0.23172231 -0.49999988 195 160 109 255 -9 -9
0.07717771 0.012306235 -0.5 213 174 119 255 -9 -9
-0.21173549 0.2563348 -0.5000001 230 183 124 255 -9 -9
0.07717739 0.0123063335 0.500001 213 174 119 255 -9 -9
0.36609063 -0.23172225 0.50000113 195 160 109 255 -9 -9
-0.21173579 0.25633487 0.50000095 230 183 124 255 -9 -9
-0.5006489 0.5003634 0.50000083 195 146 91 255 -9 -9
-0.4999998 0.66999996 -0.5600003 106 66 52 255 -9 -9
-0.49999985 0.66999996 -0.5000002 106 66 52 255 -9 -9
-0.50011736 0.32942405 0.5599998 81 52 42 255 -9 -9
-0.49970946 0.6702997 0.5599997 106 66 52 255 -9 -9
-0.4997094 0.6702997 0.4999998 106 66 52 255 -9 -9
-0.5011694 0.33766606 0.50000083 195 147 93 255 -9 -9
-0.50011736 0.32942405 0.5599998 81 52 42 255 -9 -9
-0.5001173 0.32942405 0.49999982 81 52 42 255 -9 -9
-0.49970946 0.6702997 0.5599997 106 66 52 255 -9 -9
3 0 1 2
3 3 4 5
4 6 7 8 9
3 2 10 0
3 10 11 0
3 0 12 1
3 1 13 2
3 14 15 16
3 5 16 3
3 16 15 17
3 17 18 3
3 16 17 3
3 5 4 19
3 20 21 22
3 23 24 25
3 26 27 28
4 0 29 30 12
3 31 32 33
3 34 35 36
3 37 38 39
3 40 7 41
3 6 42 43
4 12 30 44 1
4 29 45 46 30
4 45 47 48 46
4 49 50 51 52
4 44 53 13 1
4 54 55 47 45
4 3 18 48 47
4 56 29 0 57
4 49 52 53 44
4 48 50 49 46
4 46 49 44 30
4 48 18 17 50
4 54 45 29 56
4 50 17 15 51
4 24 20 22 25
3 20 58 21
4 43 41 7 6
3 23 59 24
4 55 4 3 47
4 20 24 59 58
4 40 60 61 62
4 34 39 38 35
4 16 5 63 2
4 64 65 41 43
4 33 26 28 31
3 40 62 7
4 26 33 32 27
3 6 66 42
4 25 22 21 23
4 23 21 58 59
4 39 34 36 37
