ply
format ascii 1.0
comment Created in Blender version 4.1.1
element vertex 47
property float x
property float y
property float z
property uchar red
property uchar green
property uchar blue
property uchar alpha
element face 69
property list uchar uint vertex_indices
end_header
0.012914894 0.08329946 -0.0027488521 204 165 117 255
-0.14844449 -0.10549363 0.12661403 191 155 109 255
0.015099331 -0.08946352 0.16113316 206 167 118 255
-0.25652784 -0.475751 0.577875 201 156 100 255
-0.49732774 -0.4757509 0.577712 197 147 91 255
-0.50000006 -0.5000001 0.49999994 196 149 95 255
0.28944844 -0.24208906 0.29969826 198 155 100 255
0.12861577 -0.10549362 0.15178938 189 151 108 255
0.002673301 -0.23172243 0.2938514 229 183 130 255
0.25267327 -0.47575095 0.5755803 201 156 100 255
0.0026732783 -0.47575092 0.6243471 207 167 119 255
0.50267327 -0.475751 0.5802211 197 147 91 255
-0.17304842 -0.24162015 0.32393765 204 160 106 255
-0.31233382 -0.30098382 0.30675614 197 156 101 255
-0.14156339 -0.059764326 -0.0081817955 189 151 108 255
0.49999997 -0.5000001 0.5 196 149 95 255
-0.2841904 -0.23690236 -0.32316014 197 160 109 255
-0.12326911 -0.10549365 -0.1504462 189 151 108 255
-0.24732663 -0.25064123 -0.39665064 197 149 95 255
0.2526734 -0.47575107 -0.5511648 201 156 100 255
0.49356943 -0.475751 -0.5767648 197 147 91 255
0.50000006 -0.5000001 -0.49999976 196 149 95 255
0.011526724 -0.055863272 -0.15328538 191 155 109 255
0.0026733566 -0.23172247 -0.35846472 229 183 130 255
-0.24732661 -0.47575095 -0.5692421 201 156 100 255
0.0026734043 -0.47575098 -0.63602835 207 167 119 255
-0.49732655 -0.47575095 -0.5919025 197 147 91 255
0.23247953 -0.24818456 -0.35846466 201 156 100 255
0.3204148 -0.25177112 -0.31620783 197 160 109 255
0.15379111 -0.10549365 -0.14875169 191 155 109 255
0.111643456 -0.059764326 0.009524993 189 151 108 255
-0.49999997 -0.5000002 -0.49999985 196 149 95 255
-0.5599488 -0.475751 -0.33022523 201 156 100 255
-0.5855488 -0.47575095 -0.5011722 197 147 91 255
-0.2905064 -0.24818452 -0.22913459 201 156 100 255
-0.29050642 -0.23172241 0.0006715725 229 183 130 255
-0.5653977 -0.47575098 0.16977467 201 156 100 255
-0.63218397 -0.47575092 0.00067156856 207 167 119 255
-0.58805805 -0.4757509 0.4197747 197 147 91 255
-0.17304842 -0.24162015 0.32393765 204 160 106 255
0.56529534 -0.47575092 0.16977474 201 156 100 255
0.5908954 -0.4757509 0.41977575 197 147 91 255
0.33403894 -0.25064123 -0.24932836 197 149 95 255
0.29585302 -0.23172241 0.0006716089 229 183 130 255
0.5707442 -0.47575095 -0.33022514 201 156 100 255
0.6375305 -0.47575092 0.00067164976 207 167 119 255
0.57716346 -0.475751 -0.48854274 197 147 91 255
3 0 1 2
3 3 4 5
4 6 7 2 8
3 7 0 2
4 9 6 8 10
3 11 6 9
4 3 12 13 4
4 10 8 12 3
4 8 2 1 12
4 2 0 14 1
3 6 11 15
3 5 15 3
3 15 11 9
3 9 10 3
3 15 9 3
3 5 4 13
3 16 17 18
3 19 20 21
4 18 17 22 23
3 17 0 22
4 24 18 23 25
4 26 16 18 24
4 19 27 28 20
4 25 23 27 19
4 23 22 29 27
4 22 0 30 29
3 16 26 31
3 21 31 19
3 31 26 24
3 24 25 19
3 31 24 19
3 21 20 28
3 31 21 5
3 32 33 31
3 34 17 16
4 13 1 14 35
3 1 0 14
4 36 13 35 37
3 38 13 36
3 13 39 1
4 32 34 16 33
4 37 35 34 32
4 35 14 17 34
3 0 17 14
3 13 38 5
3 31 5 32
3 5 38 36
3 36 37 32
3 5 36 32
3 31 33 16
3 40 41 15
4 42 29 30 43
3 29 0 30
4 44 42 43 45
4 46 28 42 44
3 40 6 41
4 45 43 6 40
4 43 30 7 6
3 30 0 7
3 28 46 21
3 15 21 40
3 21 46 44
3 44 45 40
3 21 44 40
3 15 41 6
3 21 15 5
3 29 42 28
3 27 29 28
3 22 0 29
