ply
format ascii 1.0
comment Created in Blender version 4.1.1
element vertex 60
property float x
property float y
property float z
property uchar red
property uchar green
property uchar blue
property uchar alpha
element face 88
property list uchar uint vertex_indices
end_header
-0.5003218 -0.49688444 0.39954835 197 149 95 255
-0.25 -0.14831413 0.19714713 202 157 101 255
-0.5 -0.13999996 0.16 232 185 126 255
-0.26236784 -0.24992405 0.261209 200 155 99 255
-0.5 -0.24999996 0.3 214 172 118 255
-0.2788871 -0.25840715 -0.2633438 198 150 96 255
-0.24999999 -0.14831407 -0.20141691 201 156 100 255
-9.143252e-05 -0.00036925077 -0.0010673851 204 159 103 255
-0.00018280443 -0.019628659 -0.24999985 204 159 103 255
-0.12835501 -0.13896759 -0.24999994 205 160 107 255
-0.16800214 -0.08983998 0.15562356 205 160 107 255
-0.49891764 -0.16291186 -0.0021348358 197 149 95 255
-0.5 3.774895e-08 -5.9624403e-09 197 148 93 255
-0.25 -0.019319322 -0.0021348924 201 155 99 255
-0.5 -0.37999997 0.5 198 160 109 255
-0.49941865 -0.49688432 -0.403818 197 149 95 255
-0.5 -0.13999996 -0.16 232 185 126 255
-0.37979397 -0.3015705 0.38322473 206 166 113 255
-0.49891764 -0.24999996 -0.3 215 174 119 255
-0.1506296 -0.114366606 -0.13191181 205 160 108 255
-0.47000003 -0.34999996 0.5 205 166 113 255
-0.5 -0.38040677 -0.49999994 197 157 106 255
-0.00018288607 -0.019628704 0.25000003 207 166 117 255
-0.00018275781 -0.16322121 -0.49999982 197 149 95 255
0.3 -0.25000003 -0.5 215 174 119 255
0.4015003 -0.49719375 -0.5 196 149 95 255
0.6227479 -0.5046501 0.25000006 201 156 100 255
0.61999995 -0.50000006 0.49999994 197 147 91 255
0.40150028 -0.49719378 0.49987024 197 149 95 255
0.29999998 -0.25000003 0.5 215 174 119 255
0.19909911 -0.14862354 0.25 201 156 100 255
0.15999998 -0.14000002 0.5 232 185 126 255
0.4738065 -0.3625148 0.22980624 201 156 100 255
0.27436996 -0.25007877 0.25000003 200 155 99 255
0.51199245 -0.3649714 -0.24999982 197 149 95 255
0.30740866 -0.2670451 -0.24999994 197 149 95 255
0.3074086 -0.22821027 -0.020193752 205 166 118 255
0.47380653 -0.34605268 6.525473e-08 229 183 130 255
0.12798941 -0.13896771 -0.24999994 197 149 95 255
0.161028 -0.11467604 0.013924422 229 183 130 255
0.62819666 -0.5046501 -0.24999987 201 156 100 255
0.65777516 -0.50573385 7.517947e-08 207 167 119 255
0.61999995 -0.5 -0.49999958 197 147 91 255
0.46999997 -0.35000002 -0.49999994 197 160 109 255
5.9624403e-09 0 -0.5 199 150 94 255
0.16 -0.14000002 -0.49999994 232 185 126 255
-0.00018288754 -0.16322125 0.49891758 197 149 95 255
0.46999997 -0.35000002 0.5 197 160 109 255
-5.9624403e-09 0 0.5 197 148 93 255
-0.40186578 -0.49719357 -0.4999506 196 149 95 255
-0.40186596 -0.4971936 0.49941856 197 149 95 255
-0.30000004 -0.24999997 0.5 206 166 113 255
-0.16000001 -0.13999999 0.5 232 185 126 255
-0.19946484 -0.14862342 0.24999997 205 160 107 255
-0.3 -0.24999997 -0.49999994 215 174 119 255
-0.16 -0.13999999 -0.49999994 232 185 126 255
-0.00018282267 -0.16322124 -0.00054112077 197 149 95 255
-0.50000006 -0.34999996 0.47 206 166 113 255
-0.47000003 -0.34999996 -0.49999994 207 165 112 255
-0.5 -0.34999996 -0.47 207 165 112 255
3 0 4 2
3 5 6 9
3 10 13 1
3 11 0 2
3 0 57 4
3 2 12 11
3 15 16 18
3 19 9 6
3 19 13 7
3 11 16 15
3 15 59 21
3 16 11 12
3 24 43 25
3 26 27 28
3 28 29 31
3 53 22 10
3 25 23 45
3 23 44 45
3 43 42 25
3 25 45 24
3 28 25 26
3 25 42 40
3 40 41 26
3 25 40 26
3 46 28 31
3 28 27 47
3 28 47 29
3 31 48 46
3 49 58 54
3 50 52 51
3 53 10 1
3 5 58 21
3 53 1 3
3 49 55 23
3 23 55 44
3 49 54 55
3 46 52 50
3 50 20 14
3 52 46 48
3 59 5 21
3 19 6 13
3 21 49 15
3 28 46 56
3 14 0 50
3 15 56 11
3 56 0 11
3 3 4 17
3 57 17 4
3 51 3 17
3 17 20 51
3 23 25 56
3 25 28 56
3 0 14 57
3 15 18 59
3 49 21 58
3 5 54 58
3 50 51 20
3 59 18 5
4 7 13 10 22
3 57 14 17
4 55 54 5 9
4 37 34 35 36
4 35 24 45 38
4 19 7 8 9
4 22 30 39 7
4 56 46 50 0
4 22 53 52 48
4 44 55 9 8
4 34 40 42 43
3 17 14 20
4 35 34 43 24
4 30 33 36 39
4 16 6 5 18
4 7 39 38 8
4 26 41 37 32
4 2 1 13 12
4 13 6 16 12
4 27 26 32 47
4 52 53 3 51
4 2 4 3 1
4 37 41 40 34
4 31 30 22 48
4 36 35 38 39
4 29 33 30 31
4 32 37 36 33
4 23 56 15 49
4 38 45 44 8
4 47 32 33 29
