ply
format ascii 1.0
comment Created in Blender version 4.1.1
element vertex 58
property float x
property float y
property float z
property uchar red
property uchar green
property uchar blue
property uchar alpha
element face 84
property list uchar uint vertex_indices
end_header
-0.5 -0.16322118 0.00018271459 197 149 95 255
-0.49999997 -0.25000003 -0.30000004 215 174 119 255
-0.5080784 -0.49719372 -0.40150034 196 149 95 255
0.25000006 -0.48189193 -0.617933 201 156 100 255
0.49999997 -0.48030937 -0.62591326 199 158 106 255
0.5101036 -0.49703905 -0.51678467 196 149 95 255
0.30545664 -0.22790092 -0.020193778 205 166 118 255
0.30545673 -0.26673576 -0.24999993 197 149 95 255
-0.24999999 -0.36497143 -0.51199245 197 149 95 255
-0.25 -0.26704505 -0.30740872 197 149 95 255
-0.0201938 -0.22821024 -0.30740866 205 166 118 255
3.7696196e-08 -0.34605265 -0.4738066 229 183 130 255
-0.25000003 -0.13896765 -0.12798946 197 149 95 255
-0.25000003 -0.01962863 0.0001827759 201 156 100 255
-0.001067467 -0.00036921352 9.141111e-05 203 164 117 255
0.013924367 -0.11467601 -0.16102804 229 183 130 255
-0.5 -0.14000002 -0.16000003 232 185 126 255
-0.5 0 -4.371139e-08 199 150 94 255
-0.24999993 -0.48189187 -0.62338185 201 156 100 255
7.641134e-08 -0.4818919 -0.69016814 207 167 119 255
-0.49999985 -0.50000006 -0.62 197 147 91 255
-0.49999997 -0.35000002 -0.47000003 197 160 109 255
0.22980623 -0.36251476 -0.4738065 201 156 100 255
0.4853861 -0.34589803 -0.48690325 199 158 106 255
0.21588168 -0.24575849 -0.24633335 200 155 99 255
0.51004046 -0.36466214 -0.24999993 197 149 95 255
-0.50000006 -0.49999997 0.5 196 149 95 255
-0.25000006 -0.1389675 0.128355 197 149 95 255
-0.26334396 -0.25840712 0.2788871 198 150 96 255
-0.5 -0.24999997 0.29999998 215 174 119 255
-0.50000006 -0.38037243 0.49999997 197 157 106 255
-0.50000006 -0.13999999 0.15999997 232 185 126 255
0.6192774 -0.48158255 0.2500001 201 156 100 255
0.61999995 -0.49999997 0.5000001 197 147 91 255
0.48853287 -0.49688444 0.4908393 197 149 95 255
0.19714716 -0.14831413 0.25 201 156 100 255
-0.0021349262 -0.019319337 0.25 201 155 99 255
-4.371139e-08 3.774895e-08 0.5 197 148 93 255
0.15999995 -0.13999996 0.5 232 185 126 255
0.4718545 -0.3622054 0.22980623 201 156 100 255
0.27241796 -0.2497694 0.25000003 200 155 99 255
0.29999998 -0.24999996 0.50000006 215 174 119 255
0.47185457 -0.34574336 6.362844e-08 229 183 130 255
0.62472624 -0.48158255 -0.24999991 201 156 100 255
0.6915125 -0.48158255 8.652213e-08 207 167 119 255
0.62725776 -0.48000008 -0.4999998 199 158 106 255
0.15907599 -0.11436668 0.013924368 210 165 111 255
-0.0021349292 -0.16291185 0.49891764 197 149 95 255
0.46999997 -0.34999996 0.50000006 197 160 109 255
-0.16000004 -0.13999996 0.5 232 185 126 255
-0.20141694 -0.14831404 0.24999996 202 158 106 255
-0.18300548 -0.13189684 0.13583225 217 171 119 255
-0.30000004 -0.24999996 0.5 215 174 119 255
-0.28550178 -0.33147666 0.2800727 197 149 95 255
-0.05202617 -0.24129526 0.05994241 197 149 95 255
-0.112562306 -0.08442552 0.08829118 216 170 116 255
-0.50000006 -0.34999996 0.46999997 207 165 112 255
-0.47000003 -0.34999996 0.5 207 165 112 255
3 1 21 2
3 3 4 5
3 4 23 45
3 27 14 13
3 14 55 36
3 22 24 7
3 10 15 24
3 2 0 16
3 0 17 16
3 21 20 2
3 2 16 1
3 5 2 3
3 2 20 18
3 18 19 3
3 2 18 3
3 26 56 29
3 50 27 28
3 28 56 30
3 26 31 0
3 0 31 17
3 26 29 31
3 32 33 34
3 34 41 38
3 45 5 4
3 34 5 32
3 5 45 43
3 43 44 32
3 5 43 32
3 47 34 38
3 34 33 48
3 34 48 41
3 38 37 47
3 26 49 52
3 47 49 26
3 26 57 30
3 49 47 37
3 6 7 24
3 15 14 46
3 50 51 27
3 28 57 52
3 2 5 0
3 47 5 34
3 5 54 0
3 5 47 54
3 26 0 53
3 54 53 0
3 47 26 53
3 54 47 53
3 27 55 14
3 36 51 50
4 49 50 28 52
4 7 6 42 25
4 23 22 7 25
4 31 29 28 27
4 24 22 11 10
4 38 35 36 37
4 36 35 46 14
4 12 16 17 13
3 26 30 56
4 35 40 6 46
4 36 50 49 37
4 32 44 42 39
3 28 29 56
4 17 31 27 13
4 11 8 9 10
4 9 8 21 1
4 8 18 20 21
4 35 38 41 40
4 42 44 43 25
4 11 19 18 8
4 9 1 16 12
4 23 4 3 22
4 14 15 12 13
4 3 19 11 22
4 46 6 24 15
4 10 9 12 15
4 39 42 6 40
3 26 52 57
4 33 32 39 48
3 28 30 57
4 48 39 40 41
3 27 51 55
3 36 55 51
4 25 43 45 23
