ply
format ascii 1.0
comment Created in Blender version 4.1.1
element vertex 120
property float x
property float y
property float z
property uchar red
property uchar green
property uchar blue
property uchar alpha
property float s
property float t
element face 85
property list uchar uint vertex_indices
end_header
0.5589194 0.12958021 0.3002365 81 52 42 255 -9 -9
0.5589194 0.47045583 0.29982862 106 66 52 255 -9 -9
0.52325255 0.47045583 0.29982862 106 66 52 255 -9 -9
0.52325255 0.12958021 0.3002365 81 52 42 255 -9 -9
0.5000001 -0.33000007 -0.49999988 106 66 52 255 -9 -9
0.5000001 -0.67000014 -0.49999982 81 52 42 255 -9 -9
0.5600001 -0.33000007 -0.49999988 106 66 52 255 -9 -9
0.5600001 -0.67000014 -0.49999982 81 52 42 255 -9 -9
0.5589194 0.47045583 0.29982862 106 66 52 255 -9 -9
0.5589194 0.12958021 0.3002365 81 52 42 255 -9 -9
0.52325255 0.12958021 0.3002365 81 52 42 255 -9 -9
0.5589194 0.12958021 0.3002365 81 52 42 255 -9 -9
0.52325255 0.47045583 0.29982862 106 66 52 255 -9 -9
0.5589194 0.47045583 0.29982862 106 66 52 255 -9 -9
0.530198 0.12751028 -0.3014192 81 52 42 255 -9 -9
0.49891958 0.12751028 -0.3014192 81 52 42 255 -9 -9
0.49891952 0.468386 -0.3010114 106 66 52 255 -9 -9
0.5301979 0.468386 -0.3010114 106 66 52 255 -9 -9
0.49999994 -0.6699999 0.50000024 81 52 42 255 -9 -9
0.49999994 -0.32999995 0.5000001 106 66 52 255 -9 -9
0.5599999 -0.6699999 0.50000024 81 52 42 255 -9 -9
0.5599999 -0.32999995 0.5000001 106 66 52 255 -9 -9
0.530198 0.12751028 -0.3014192 81 52 42 255 -9 -9
0.5301979 0.468386 -0.3010114 106 66 52 255 -9 -9
0.49891958 0.12751028 -0.3014192 81 52 42 255 -9 -9
0.530198 0.12751028 -0.3014192 81 52 42 255 -9 -9
0.5301979 0.468386 -0.3010114 106 66 52 255 -9 -9
0.49891952 0.468386 -0.3010114 106 66 52 255 -9 -9
0.25000018 -0.5026709 -0.5804302 199 156 98 255 -9 -9
0.50000006 -0.50108826 -0.58841044 195 145 89 255 -9 -9
0.4908393 -0.49688444 -0.39954808 195 147 93 255 -9 -9
-0.50807816 -0.49688447 -0.39954826 194 147 93 255 -9 -9
0.49891764 -0.16291186 0.0021349634 195 147 93 255 -9 -9
-0.49999988 -0.16291192 0.0021347022 195 147 93 255 -9 -9
0.2500001 -0.14831416 -0.19714707 199 156 98 255 -9 -9
0.25 -0.019319337 0.0021349152 199 155 97 255 -9 -9
0.49891764 -0.00021456854 0.0021349331 195 146 91 255 -9 -9
0.4989177 -0.13865827 -0.15907589 230 183 124 255 -9 -9
0.22980632 -0.36220548 -0.47185442 199 156 98 255 -9 -9
0.25000012 -0.24976943 -0.27241796 198 155 97 255 -9 -9
0.49891773 -0.24976945 -0.30545652 213 174 119 255 -9 -9
0.49891776 -0.3457434 -0.4718544 195 160 109 255 -9 -9
-0.24999987 -0.36466223 -0.51004046 195 147 93 255 -9 -9
-0.24999985 -0.26673582 -0.30545667 195 147 93 255 -9 -9
-0.020193674 -0.22790098 -0.30545658 203 166 118 255 -9 -9
1.2922997e-07 -0.34574342 -0.47185448 227 181 128 255 -9 -9
-0.2499999 -0.13865836 -0.12603743 195 147 93 255 -9 -9
-0.24999994 -0.019319352 0.0021347648 199 156 98 255 -9 -9
5.915426e-08 -0.0002145764 0.0021348335 201 164 117 255 -9 -9
0.013924464 -0.114366725 -0.15907598 227 181 128 255 -9 -9
-0.4999998 -0.24976955 -0.3054568 213 174 119 255 -9 -9
-0.49999985 -0.13865837 -0.15907611 230 183 124 255 -9 -9
-0.49999988 -0.00021460297 0.0021347054 197 148 92 255 -9 -9
-0.24999976 -0.50267094 -0.5858791 199 156 98 255 -9 -9
1.990205e-07 -0.5026709 -0.6526653 205 167 119 255 -9 -9
-0.49999958 -0.5010883 -0.5884105 195 145 89 255 -9 -9
-0.49999976 -0.34574345 -0.4718546 195 160 109 255 -9 -9
0.49891776 -0.3457434 -0.4718544 195 160 109 255 -9 -9
0.5000002 -0.50000006 -0.4999998 252 252 252 255 1 0
0.5 -0.12499996 1.2815295e-07 252 252 252 255 0.5 0.375
0.43998975 -0.1282374 0.0021349152 252 252 252 255 0.5 0.375
0.44000015 -0.4999877 -0.49767473 252 252 252 255 1 0
0.24999984 -0.50579876 0.57188815 199 156 98 255 -9 -9
0.4908391 -0.49688423 0.40381822 195 147 93 255 -9 -9
0.49999988 -0.5069189 0.5927993 195 145 89 255 -9 -9
-0.5080786 -0.49688426 0.40381783 194 147 93 255 -9 -9
0.24999994 -0.14831401 0.20141688 199 156 98 255 -9 -9
0.4989176 -0.13865808 0.16334581 230 183 124 255 -9 -9
0.22980604 -0.37479573 0.4990161 199 156 98 255 -9 -9
0.49891752 -0.35947818 0.4326299 195 160 109 255 -9 -9
0.49891752 -0.2497692 0.3097265 213 174 119 255 -9 -9
0.24999991 -0.24976929 0.27668768 198 155 97 255 -9 -9
-0.25000012 -0.3772525 0.5372018 195 147 93 255 -9 -9
-1.4161462e-07 -0.35833368 0.49901608 227 181 128 255 -9 -9
-0.020193867 -0.22790071 0.30972636 203 166 118 255 -9 -9
-0.25000006 -0.26673558 0.30972624 195 147 93 255 -9 -9
-0.24999997 -0.1386582 0.130307 195 147 93 255 -9 -9
0.013924334 -0.11436655 0.16334572 227 181 128 255 -9 -9
-0.49999994 -0.24976933 0.30972615 213 174 119 255 -9 -9
-0.49999988 -0.1386582 0.16334559 230 183 124 255 -9 -9
-0.25000012 -0.50579876 0.57733685 199 156 98 255 -9 -9
-1.832861e-07 -0.50579876 0.64412326 205 167 119 255 -9 -9
-0.5 -0.5069189 0.59279925 195 145 89 255 -9 -9
-0.49999994 -0.35833368 0.49901584 195 160 109 255 -9 -9
0.4399999 -0.49998757 0.50194466 252 252 252 255 0 0
0.4999999 -0.4999999 0.5000001 252 252 252 255 0 0
-0.49999976 -0.5000002 -0.5 252 252 252 255 0 0
-0.5 -0.12500004 -9.040399e-08 252 252 252 255 0.5 0.375
-0.44000003 -0.12823747 0.0021347145 252 252 252 255 0.5 0.375
-0.43999982 -0.49998775 -0.497675 252 252 252 255 0 0
-0.50000006 -0.49999997 0.49999997 252 252 252 255 1 0
-0.44000003 -0.49998763 0.50194454 252 252 252 255 1 0
-0.4978225 0.12958008 0.30023623 81 52 42 255 -9 -9
-0.49782252 0.47045565 0.29982832 106 66 52 255 -9 -9
-0.5334893 0.47045565 0.29982832 106 66 52 255 -9 -9
-0.5334892 0.12958008 0.30023623 81 52 42 255 -9 -9
-0.5599999 -0.33000007 -0.5 106 66 52 255 -9 -9
-0.5599999 -0.67000014 -0.5 81 52 42 255 -9 -9
-0.49999994 -0.33000007 -0.5 106 66 52 255 -9 -9
-0.49782217 -0.67023295 -0.4975765 81 52 42 255 -9 -9
-0.49782252 0.47045565 0.29982832 106 66 52 255 -9 -9
-0.4978225 0.12958008 0.30023623 81 52 42 255 -9 -9
-0.5334892 0.12958008 0.30023623 81 52 42 255 -9 -9
-0.4978225 0.12958008 0.30023623 81 52 42 255 -9 -9
-0.5334893 0.47045565 0.29982832 106 66 52 255 -9 -9
-0.49782252 0.47045565 0.29982832 106 66 52 255 -9 -9
-0.52654386 0.12751016 -0.3014194 81 52 42 255 -9 -9
-0.55782235 0.12751016 -0.3014194 81 52 42 255 -9 -9
-0.55782235 0.46838582 -0.3010116 106 66 52 255 -9 -9
-0.526544 0.46838582 -0.3010116 106 66 52 255 -9 -9
-0.56000006 -0.6699999 0.5 81 52 42 255 -9 -9
-0.5600001 -0.32999995 0.49999994 106 66 52 255 -9 -9
-0.5000001 -0.6699999 0.5 81 52 42 255 -9 -9
-0.5000001 -0.32999995 0.49999994 106 66 52 255 -9 -9
-0.52654386 0.12751016 -0.3014194 81 52 42 255 -9 -9
-0.526544 0.46838582 -0.3010116 106 66 52 255 -9 -9
-0.55782235 0.12751016 -0.3014194 81 52 42 255 -9 -9
-0.52654386 0.12751016 -0.3014194 81 52 42 255 -9 -9
-0.526544 0.46838582 -0.3010116 106 66 52 255 -9 -9
-0.55782235 0.46838582 -0.3010116 106 66 52 255 -9 -9
4 0 1 2 3
4 3 2 4 5
4 5 4 6 7
4 7 6 8 9
4 10 5 7 11
4 4 12 13 6
4 14 15 16 17
4 15 18 19 16
4 18 20 21 19
4 20 22 23 21
4 24 25 20 18
4 19 21 26 27
3 28 29 30
3 31 32 33
4 34 35 36 37
4 38 39 40 41
4 42 43 44 45
4 46 47 48 49
4 43 46 49 44
4 50 51 46 43
4 51 52 47 46
4 53 42 45 54
4 55 56 42 53
4 56 50 43 42
4 28 38 41 29
4 54 45 38 28
4 45 44 39 38
4 39 34 37 40
4 44 49 34 39
4 49 48 35 34
3 35 48 47
3 56 55 31
3 30 31 28
3 31 55 53
3 53 54 28
3 31 53 28
3 30 29 57
3 31 30 32
4 58 59 60 61
3 62 63 64
3 65 33 32
4 66 67 36 35
4 68 69 70 71
4 72 73 74 75
4 76 77 48 47
4 75 74 77 76
4 78 75 76 79
4 79 76 47 52
4 80 81 73 72
4 82 80 72 83
4 83 72 75 78
4 62 64 69 68
4 81 62 68 73
4 73 68 71 74
4 71 70 67 66
4 74 71 66 77
4 77 66 35 48
3 83 65 82
3 63 62 65
3 65 80 82
3 80 62 81
3 65 62 80
3 63 69 64
3 65 32 63
3 61 84 60
3 85 58 59
4 61 58 85 84
4 84 60 59 85
4 86 87 88 89
3 86 90 87
3 91 89 88
4 86 89 91 90
4 90 87 88 91
4 92 93 94 95
4 95 94 96 97
4 97 96 98 99
4 99 98 100 101
4 102 97 99 103
4 96 104 105 98
4 106 107 108 109
4 107 110 111 108
4 110 112 113 111
4 112 114 115 113
4 116 117 112 110
4 111 113 118 119
