ply
format ascii 1.0
comment Created in Blender version 4.1.1
element vertex 44
property float x
property float y
property float z
property uchar red
property uchar green
property uchar blue
property uchar alpha
element face 38
property list uchar uint vertex_indices
end_header
0.49983037 0.50517756 -0.25000003 201 155 99 255
0.49983037 0.50517756 0.24999994 201 156 100 255
0.50116926 0.40839788 0.49999994 197 149 95 255
-0.070000045 3.774895e-08 0.5 215 174 119 255
-0.37000003 -0.22999996 0.50000006 197 160 109 255
-0.50000995 -0.5002101 0.50000006 196 149 95 255
-0.6650804 -0.50290245 -0.24999994 201 156 100 255
-0.69360864 -0.50237006 -0.49999994 197 147 91 255
-0.50000995 -0.5002102 -0.49999994 197 149 95 255
-0.069999956 -3.774895e-08 -0.5 215 174 119 255
0.21000004 0.24999996 -0.50000006 232 185 126 255
0.50116926 0.4032104 -0.5 197 149 95 255
0.50116926 0.40839788 0.49999994 197 149 95 255
0.17366453 0.24667896 -0.25 201 156 100 255
0.49983037 0.50517756 -0.25000003 201 155 99 255
0.50000006 0.49999997 -0.50000006 197 148 93 255
0.21000004 0.24999996 -0.50000006 232 185 126 255
-0.36609071 -0.24818437 -0.22980615 201 156 100 255
-0.04413888 0.012306269 -0.25 200 155 99 255
-0.069999956 -3.774895e-08 -0.5 215 174 119 255
-0.36999997 -0.23000005 -0.5 197 160 109 255
-0.40427664 -0.25064102 0.25 197 149 95 255
-0.07717756 -0.0046599912 0.25 197 149 95 255
-0.07717755 0.034174792 0.020193812 205 166 118 255
-0.36609074 -0.2317223 2.4569438e-08 229 183 130 255
0.2447743 0.25633487 0.24999997 197 149 95 255
0.49983037 0.50517756 0.24999994 201 156 100 255
0.5006488 0.5225678 -3.3549465e-08 203 164 117 255
0.21173564 0.28062642 -0.013924389 229 183 130 255
-0.070000045 3.774895e-08 0.5 215 174 119 255
0.20999995 0.25000003 0.49999997 232 185 126 255
0.49999997 0.50000006 0.49999994 199 150 94 255
-0.6705293 -0.5029024 0.25000003 201 156 100 255
-0.6920629 -0.5013052 4.926371e-08 207 167 119 255
-0.69611776 -0.50237 0.50000006 197 147 91 255
-0.37000003 -0.22999996 0.50000006 197 160 109 255
0.50116926 0.4032104 -0.5 197 149 95 255
0.50000006 0.49999997 -0.50000006 197 148 93 255
0.5006488 0.5225678 -3.3549465e-08 203 164 117 255
0.49999997 0.50000006 0.49999994 199 150 94 255
0.20999995 0.25000003 0.49999997 232 185 126 255
0.50116926 0.4032104 -0.5 197 149 95 255
-0.36999997 -0.23000005 -0.5 197 160 109 255
0.50000006 0.49999997 -0.50000006 197 148 93 255
3 0 1 2
3 3 4 5
3 6 7 8
3 8 9 10
3 5 11 12
4 13 14 15 16
4 17 18 19 20
4 21 22 23 24
4 25 26 27 28
4 22 25 28 23
4 29 30 25 22
4 30 31 26 25
4 32 21 24 33
4 34 35 21 32
4 35 29 22 21
4 6 17 20 7
4 33 24 17 6
4 24 23 18 17
4 18 13 16 19
4 23 28 13 18
4 28 27 14 13
3 2 36 0
3 36 37 0
3 0 38 1
3 1 39 2
3 5 2 40
3 2 39 40
3 4 34 5
3 5 40 3
3 8 5 6
3 5 34 32
3 32 33 6
3 5 32 6
3 41 8 10
3 8 7 42
3 8 42 9
3 10 43 41
3 5 8 11
