ply
format ascii 1.0
comment Created in Blender version 4.1.1
element vertex 39
property float x
property float y
property float z
property uchar red
property uchar green
property uchar blue
property uchar alpha
element face 50
property list uchar uint vertex_indices
end_header
-0.070000045 3.774895e-08 0.5 214 174 119 255
-0.37000003 -0.22999996 0.49999997 196 160 109 255
-0.50118124 -0.5002101 0.49998617 195 148 94 255
-0.66764766 -0.50278884 -0.25001386 200 156 99 255
-0.63118726 -0.5064643 -0.5539758 196 146 90 255
-0.50004554 -0.5002102 -0.5000568 195 148 94 255
-0.40544796 -0.25064102 0.24998613 196 148 94 255
-0.07834887 -0.0046599912 0.24998611 196 148 94 255
-0.048266232 0.033749264 -0.04246037 204 166 118 255
-0.36726207 -0.2317223 -1.3864524e-05 228 182 129 255
0.23001944 0.24939544 0.21551827 198 150 96 255
0.055271357 0.15135235 0.070190035 228 182 129 255
-0.070000045 3.774895e-08 0.5 214 174 119 255
0.20999995 0.25000003 0.5 231 184 125 255
0.49999997 0.50000006 0.5 198 149 93 255
0.3842297 0.3889125 0.36231318 200 155 98 255
-0.67309654 -0.5027888 0.24998616 200 156 99 255
-0.7398828 -0.5027888 -1.3843088e-05 206 167 119 255
-0.6957569 -0.5027888 0.49998614 196 146 90 255
-0.37000003 -0.22999996 0.49999997 196 160 109 255
-0.3851295 -0.26618883 -0.33016762 197 154 97 255
-0.5442338 -0.49684048 -0.63551337 196 150 96 255
-0.1817467 -0.082710035 -0.15190473 197 150 96 255
0.5000053 0.4291747 0.49999437 196 148 94 255
0.20999995 0.25000003 0.5 231 184 125 255
0.25109038 -0.49996722 -0.67562515 200 156 99 255
0.500008 -0.47575086 -0.66230536 196 146 90 255
0.50000006 -0.50000006 -0.4999999 196 148 94 255
0.5 -5.284853e-09 -0.069999956 214 174 119 255
0.49999997 0.25000003 0.21000002 231 184 125 255
0.49999997 0.25000003 0.21000002 231 184 125 255
0.23089644 -0.24818438 -0.36726287 200 156 99 255
0.25109023 0.012306292 -0.04531103 199 155 98 255
0.5 -5.284853e-09 -0.069999956 214 174 119 255
0.50000006 -0.23000003 -0.36999995 196 160 109 255
0.0010902681 -0.2317223 -0.36726287 228 182 129 255
-0.24890971 -0.50146306 -0.67179716 200 156 99 255
0.0010903128 -0.47575086 -0.7089404 206 167 119 255
0.50000006 -0.23000003 -0.36999995 196 160 109 255
3 0 1 2
3 3 4 5
3 7 11 8
3 13 15 10
3 20 4 3
3 9 22 20
3 7 10 11
3 2 23 24
3 23 14 24
3 1 18 2
3 2 24 0
3 5 2 3
3 2 18 16
3 16 17 3
3 2 16 3
3 5 4 21
3 25 26 27
3 27 28 29
3 15 30 10
3 22 35 20
3 21 20 36
3 11 32 8
4 34 26 25 31
4 9 17 16 6
3 27 5 25
3 5 21 36
3 36 37 25
3 5 36 25
3 23 27 29
3 27 26 38
3 27 38 28
3 29 14 23
3 5 27 23
3 2 5 23
3 13 14 15
4 35 37 36 20
4 25 37 35 31
4 6 16 18 19
3 20 21 4
3 9 8 22
3 15 14 30
4 30 33 32 10
3 22 8 35
4 3 17 9 20
4 32 31 35 8
4 9 6 7 8
4 33 34 31 32
4 7 6 19 12
3 11 10 32
4 7 12 13 10
