ply
format ascii 1.0
comment Created in Blender version 4.1.1
element vertex 45
property float x
property float y
property float z
property uchar red
property uchar green
property uchar blue
property uchar alpha
property float s
property float t
element face 48
property list uchar uint vertex_indices
end_header
-0.49987233 0.503782 0.24999991 200 155 98 255 -9 -9
-0.50064874 0.5007413 -0.25000006 200 156 99 255 -9 -9
-0.5011692 0.3376661 -0.50000006 196 148 94 255 -9 -9
0.077177666 0.012306273 -0.5 214 174 119 255 -9 -9
0.3660908 -0.23172227 -0.49999994 196 160 109 255 -9 -9
0.50001 -0.50021017 -0.4999999 195 148 94 255 -9 -9
0.613914 -0.5148491 0.2500001 200 156 99 255 -9 -9
0.69051665 -0.5014524 0.50000113 196 146 90 255 -9 -9
0.5000099 -0.50021017 0.5000011 196 148 94 255 -9 -9
0.069999956 0.010000038 0.500001 214 174 119 255 -9 -9
-0.21000004 0.25000003 0.500001 231 184 125 255 -9 -9
-0.5011693 0.33766603 0.5000009 196 148 94 255 -9 -9
-0.17366457 0.24667898 0.24999996 200 156 99 255 -9 -9
-0.50000006 0.50000006 0.5000009 196 147 92 255 -9 -9
0.3660907 -0.24818435 0.22980623 200 156 99 255 -9 -9
0.044138834 0.012306288 0.25 199 155 98 255 -9 -9
0.36999997 -0.22999996 0.5000011 196 160 109 255 -9 -9
0.40427667 -0.25064105 -0.24999993 196 148 94 255 -9 -9
0.07717761 -0.0046600103 -0.24999999 196 148 94 255 -9 -9
0.07717755 0.034174792 -0.0201938 204 166 118 255 -9 -9
0.36609074 -0.2317223 5.693445e-08 228 182 129 255 -9 -9
-0.24477425 0.25633484 -0.25000003 196 148 94 255 -9 -9
-0.5006488 0.5227426 -9.176313e-08 202 164 117 255 -9 -9
-0.21173564 0.28062642 0.0139243305 228 182 129 255 -9 -9
-0.21173553 0.25633484 -0.50000006 231 184 125 255 -9 -9
-0.50064874 0.5003634 -0.50000006 198 149 93 255 -9 -9
0.619363 -0.514849 -0.2499999 200 156 99 255 -9 -9
0.68614924 -0.51484907 1.1040461e-07 206 167 119 255 -9 -9
0.6420234 -0.5148491 -0.49999988 196 146 90 255 -9 -9
-0.50011694 0.32942402 -0.49994493 82 52 42 255 -9 -9
-0.4997091 0.6702996 -0.4999449 106 66 52 255 -9 -9
-0.49970907 0.6702996 -0.559945 106 66 52 255 -9 -9
-0.5001169 0.32942402 -0.5599449 82 52 42 255 -9 -9
0.49669492 -0.33356848 -0.56470686 106 66 52 255 -9 -9
0.49992365 -0.6703258 -0.5599447 82 52 42 255 -9 -9
0.50002575 -0.3298659 -0.49994478 106 66 52 255 -9 -9
0.49992362 -0.6703258 -0.49994478 82 52 42 255 -9 -9
-0.49999988 -0.5 -0.4398751 253 253 253 255 0.99999994 0
-0.49999985 0.4 -0.44060203 253 253 253 255 1 0.9
-0.49999988 0.4 -0.5000001 253 253 253 255 1 0.9
-0.49999988 -0.5 -0.5000001 253 253 253 255 1 0
0.5000001 -0.5 -0.49999985 253 253 253 255 0 0
0.5000001 -0.4998677 -0.43987483 253 253 253 255 -4.798174e-06 8.291006e-05
-0.49999985 0.3723405 -0.4398751 253 253 253 255 1 0.9
0.5000001 -0.4998677 -0.43987483 253 253 253 255 4.798174e-06 -8.291006e-05
3 0 1 2
3 3 4 5
3 6 7 8
3 8 9 10
3 5 11 2
4 12 0 13 10
4 14 15 9 16
4 17 18 19 20
4 21 1 22 23
4 18 21 23 19
4 3 24 21 18
4 24 25 1 21
4 26 17 20 27
4 28 4 17 26
4 4 3 18 17
4 6 14 16 7
4 27 20 14 6
4 20 19 15 14
4 15 12 10 9
4 19 23 12 15
4 23 22 0 12
3 2 11 0
3 11 13 0
3 0 22 1
3 1 25 2
3 5 2 24
3 2 25 24
3 4 28 5
3 5 24 3
3 8 5 6
3 5 28 26
3 26 27 6
3 5 26 6
3 11 8 10
3 8 7 16
3 8 16 9
3 10 13 11
3 5 8 11
4 29 30 31 32
4 32 31 33 34
4 34 33 35 36
4 36 35 30 29
4 32 34 36 29
4 33 31 30 35
4 37 38 39 40
3 40 39 41
3 42 43 37
4 40 41 44 37
