ply
format ascii 1.0
comment Created in Blender version 4.1.1
element vertex 36
property float x
property float y
property float z
property uchar red
property uchar green
property uchar blue
property uchar alpha
element face 63
property list uchar uint vertex_indices
end_header
0.25108343 0.5004112 0.49947748 199 155 97 255
-0.24891657 0.5004112 0.49947727 199 156 98 255
-0.49999523 0.42532542 0.4999977 195 147 93 255
-0.49999514 -5.284853e-09 -0.070000045 213 174 119 255
-0.49999505 -0.23000003 -0.37000003 195 160 109 255
-0.49999994 -0.5000001 -0.5 194 147 93 255
0.4999999 0.45159087 0.5 195 147 93 255
0.21627456 0.30890572 0.17810671 199 156 98 255
0.4999999 0.51915264 0.5 195 146 91 255
-0.06625992 0.026174868 -0.0786498 202 162 111 255
-0.2489164 -0.0046600285 -0.07834903 195 147 93 255
-0.24891645 0.25633493 0.24360277 195 147 93 255
-0.24891657 0.5004112 0.49947727 199 156 98 255
0.0010834053 0.519516 0.49947736 201 164 117 255
0.015007878 0.2806265 0.21056421 227 181 128 255
-0.49999514 -5.284853e-09 -0.070000045 213 174 119 255
-0.49999523 0.25000003 0.20999993 230 183 124 255
-0.49999523 0.5000001 0.49999982 197 148 92 255
0.11374177 0.19977023 0.0227335 198 155 97 255
0.0010834053 0.519516 0.49947736 201 164 117 255
-0.49999994 -0.34000003 -0.5 195 145 89 255
0.49948025 0.500411 -0.2500016 199 155 97 255
0.49948007 0.5004111 0.24999824 199 156 98 255
-0.069999956 -3.774895e-08 -0.5 213 174 119 255
0.21000004 0.24999996 -0.5 230 183 124 255
0.17249598 0.2466789 -0.25000155 199 156 98 255
0.5000001 0.49999997 -0.5 195 146 91 255
-0.20797138 -0.119304866 -0.23979881 199 156 98 255
-0.045307398 0.012306239 -0.25000158 198 155 97 255
-0.36999997 -0.23000005 -0.5 195 160 109 255
0.49948022 0.5195158 -1.6363603e-06 201 164 117 255
0.21056706 0.28062636 -0.013926008 227 181 128 255
0.3008051 0.38830027 0.33717415 230 183 124 255
0.5000008 0.4361792 -0.49999997 195 147 93 255
-0.3720744 -0.24136117 -0.38671726 195 155 100 255
-0.20097531 -0.091215745 -0.20307739 213 169 116 255
3 0 1 2
3 3 4 5
3 5 6 2
3 0 6 7
3 10 35 27
3 11 9 10
3 21 24 25
3 17 11 16
3 11 13 14
3 4 27 34
3 14 18 9
3 25 23 28
3 2 6 0
3 6 8 0
3 0 19 1
3 1 17 2
3 5 2 16
3 2 17 16
3 4 20 5
3 5 16 3
3 7 18 14
3 27 15 10
3 5 23 24
3 31 21 25
3 32 8 22
3 32 31 7
3 9 35 10
3 27 4 15
3 25 9 18
3 29 27 23
3 14 0 7
3 6 21 22
3 33 26 21
3 21 30 22
3 22 8 6
3 7 31 18
3 33 5 24
3 5 20 29
3 5 29 23
3 24 26 33
3 27 28 23
3 11 12 13
3 22 30 31
3 14 13 0
3 16 11 10
3 22 31 32
3 11 14 9
3 9 28 35
3 29 34 27
3 6 33 21
3 17 12 11
3 21 26 24
3 32 7 0
3 32 0 8
3 18 31 25
3 25 28 9
3 5 33 6
3 34 20 4
3 31 30 21
3 27 35 28
3 25 24 23
3 20 34 29
3 16 10 15
