ply
format ascii 1.0
comment Created in Blender version 4.1.1
element vertex 73
property float x
property float y
property float z
property uchar red
property uchar green
property uchar blue
property uchar alpha
property float s
property float t
element face 88
property list uchar uint vertex_indices
end_header
-0.0021349331 -0.019319303 0.25 200 155 98 255 -9.000002 -8.999998
-0.002134786 -0.019319363 -0.24999996 200 156 99 255 -9.000002 -8.999998
-0.0021347422 -0.07381762 -0.49999997 196 148 94 255 -9.000002 -8.999998
0.30000004 -0.25000003 -0.49999985 214 174 119 255 -9.000002 -8.999998
0.47000003 -0.35000002 -0.49999988 196 160 109 255 -9.000002 -8.999998
0.49208575 -0.4985861 -0.50807834 195 148 94 255 -9.000002 -8.999998
0.6149821 -0.5076481 0.25000018 200 156 99 255 -9.000002 -8.999998
0.6229623 -0.5060655 0.5000002 196 146 90 255 -9.000002 -8.999998
0.48814732 -0.4990629 0.49083933 196 148 94 255 -9.000002 -8.999998
0.30545664 -0.24976934 0.4989178 214 174 119 255 -9.000002 -8.999998
0.15907598 -0.1386582 0.49891773 231 184 125 255 -9.000002 -8.999998
-0.0021349168 -0.14347462 0.49891764 196 148 94 255 -9.000002 -8.999998
0.1971471 -0.14831412 0.25000006 200 156 99 255 -9.000002 -8.999998
-0.0021349168 -0.0002145461 0.49891764 196 147 92 255 -9.000002 -8.999998
0.4718545 -0.3622054 0.22980632 200 156 99 255 -9.000002 -8.999998
0.27241796 -0.2497694 0.2500001 199 155 98 255 -9.000002 -8.999998
0.47185454 -0.3457433 0.49891776 196 160 109 255 -9.000002 -8.999998
0.51004046 -0.3646622 -0.24999985 196 148 94 255 -9.000002 -8.999998
0.30545676 -0.2667358 -0.2499999 196 148 94 255 -9.000002 -8.999998
0.30545667 -0.22790092 -0.02019371 204 166 118 255 -9.000002 -8.999998
0.4718546 -0.34574336 1.4328339e-07 228 182 129 255 -9.000002 -8.999998
0.12603745 -0.13865837 -0.24999994 196 148 94 255 -9.000002 -8.999998
-0.0021348298 -0.00021457672 1.4617248e-08 202 164 117 255 -9.000002 -8.999998
0.15907604 -0.11436671 0.013924428 228 182 129 255 -9.000002 -8.999998
0.16000004 -0.14000005 -0.4999999 231 184 125 255 -9.000002 -8.999998
4.3711385e-08 -3.7748947e-08 -0.49999997 198 149 93 255 -9.000002 -8.999998
0.62043095 -0.50764817 -0.2499998 200 156 99 255 -9.000002 -8.999998
0.66557467 -0.5076481 2.0167263e-07 206 167 119 255 -9.000002 -8.999998
0.62000006 -0.50000006 -0.4999997 196 146 90 255 -9.000002 -8.999998
-0.30023652 0.1295802 0.5589193 82 52 42 255 -9.000002 -8.999998
-0.29982865 0.47045586 0.5589193 106 66 52 255 -9.000002 -8.999998
-0.29982865 0.47045586 0.5232524 106 66 52 255 -9.000002 -8.999998
-0.30023652 0.1295802 0.5232524 82 52 42 255 -9.000002 -8.999998
0.49767864 -0.32977283 0.4989196 106 66 52 255 -9.000002 -8.999998
0.4975765 -0.67023265 0.49891967 82 52 42 255 -9.000002 -8.999998
0.49767858 -0.32977283 0.5589196 106 66 52 255 -9.000002 -8.999998
0.49757645 -0.67023265 0.5589197 82 52 42 255 -9.000002 -8.999998
0.49999994 -0.49999994 0.4999697 253 253 253 255 1 0
-8.742278e-08 -0.124999925 0.5 253 253 253 255 0.5 0.375
-7.693205e-08 -0.12499994 0.44 253 253 253 255 0.5 0.37499997
0.49999994 -0.49999994 0.44000018 253 253 253 255 1 0
-0.5000001 -0.49999994 0.44 253 253 253 255 0 0
-0.5000001 -0.49999994 0.5 253 253 253 255 0 0
0.30141926 0.12751037 0.530198 82 52 42 255 -9.000002 -8.999998
0.30141932 0.12751037 0.49891955 82 52 42 255 -9.000002 -8.999998
0.30101138 0.46838608 0.4989195 106 66 52 255 -9.000002 -8.999998
0.30101132 0.46838608 0.5301979 106 66 52 255 -9.000002 -8.999998
-0.5018464 -0.67023265 0.4989194 82 52 42 255 -9.000002 -8.999998
-0.50194854 -0.32977283 0.49891937 106 66 52 255 -9.000002 -8.999998
-0.5018464 -0.67023265 0.5589194 82 52 42 255 -9.000002 -8.999998
-0.50194854 -0.32977283 0.5589194 106 66 52 255 -9.000002 -8.999998
-0.29999998 -0.25000003 -0.5 214 174 119 255 -9.000002 -8.999998
-0.47961703 -0.49920493 -0.5080785 195 148 94 255 -9.000002 -8.999998
-0.46999997 -0.35000002 -0.5 196 160 109 255 -9.000002 -8.999998
-0.62589604 -0.50978357 0.24999991 200 156 99 255 -9.000002 -8.999998
-0.46224874 -0.50739175 0.49083912 196 148 94 255 -9.000002 -8.999998
-0.64680725 -0.5109036 0.49999994 196 146 90 255 -9.000002 -8.999998
-0.30972648 -0.24976924 0.4989176 214 174 119 255 -9.000002 -8.999998
-0.16334584 -0.13865805 0.4989176 231 184 125 255 -9.000002 -8.999998
-0.20141694 -0.14831406 0.24999997 200 156 99 255 -9.000002 -8.999998
-0.49901617 -0.37479582 0.22980611 200 156 99 255 -9.000002 -8.999998
-0.43262994 -0.3594782 0.4989176 196 160 109 255 -9.000002 -8.999998
-0.2766878 -0.24976933 0.24999997 199 155 98 255 -9.000002 -8.999998
-0.5224134 -0.37756076 -0.2500001 196 148 94 255 -9.000002 -8.999998
-0.4990161 -0.3583338 -6.7858295e-08 228 182 129 255 -9.000002 -8.999998
-0.3097263 -0.2279008 -0.020193845 204 166 118 255 -9.000002 -8.999998
-0.30972624 -0.26673573 -0.25 196 148 94 255 -9.000002 -8.999998
-0.13030705 -0.13865823 -0.24999999 196 148 94 255 -9.000002 -8.999998
-0.16334575 -0.11436662 0.013924358 228 182 129 255 -9.000002 -8.999998
-0.15999995 -0.14000005 -0.5 231 184 125 255 -9.000002 -8.999998
-0.63134474 -0.50978357 -0.2500001 200 156 99 255 -9.000002 -8.999998
-0.69813114 -0.5097836 -1.199345e-07 206 167 119 255 -9.000002 -8.999998
-0.61999995 -0.50000006 -0.49999994 196 146 90 255 -9.000002 -8.999998
3 0 1 2
3 3 4 5
3 6 7 8
3 8 9 10
3 5 11 2
4 12 0 13 10
4 14 15 9 16
4 17 18 19 20
4 21 1 22 23
4 18 21 23 19
4 3 24 21 18
4 24 25 1 21
4 26 17 20 27
4 28 4 17 26
4 4 3 18 17
4 6 14 16 7
4 27 20 14 6
4 20 19 15 14
4 15 12 10 9
4 19 23 12 15
4 23 22 0 12
3 2 11 0
3 11 13 0
3 0 22 1
3 1 25 2
3 5 2 24
3 2 25 24
3 4 28 5
3 5 24 3
3 8 5 6
3 5 28 26
3 26 27 6
3 5 26 6
3 11 8 10
3 8 7 16
3 8 16 9
3 10 13 11
3 5 8 11
4 29 30 31 32
4 32 31 33 34
4 34 33 35 36
4 36 35 30 29
4 32 34 36 29
4 33 31 30 35
4 37 38 39 40
3 40 41 39
3 42 37 38
4 40 37 42 41
4 41 39 38 42
4 43 44 45 46
4 44 47 48 45
4 47 49 50 48
4 49 43 46 50
4 44 43 49 47
4 48 50 46 45
3 51 52 53
3 54 55 56
3 55 57 58
3 52 2 11
4 59 58 13 0
4 60 61 57 62
4 63 64 65 66
4 67 68 22 1
4 66 65 68 67
4 51 66 67 69
4 69 67 1 25
4 70 71 64 63
4 72 70 63 53
4 53 63 66 51
4 54 56 61 60
4 71 54 60 64
4 64 60 62 65
4 62 57 58 59
4 65 62 59 68
4 68 59 0 22
3 52 69 2
3 2 69 25
3 53 52 72
3 52 51 69
3 55 54 52
3 52 70 72
3 70 54 71
3 52 54 70
3 11 55 58
3 55 61 56
3 55 57 61
3 58 13 11
3 52 11 55
