ply
format ascii 1.0
comment Created in Blender version 4.1.1
element vertex 51
property float x
property float y
property float z
property uchar red
property uchar green
property uchar blue
property uchar alpha
element face 66
property list uchar uint vertex_indices
end_header
-0.0021349113 -0.019319322 0.25 201 155 99 255
-0.0021348079 -0.019319344 -0.24999996 201 156 100 255
-0.002134786 -0.08843575 -0.49999997 197 149 95 255
0.30000004 -0.25000003 -0.4999999 215 174 119 255
0.47000003 -0.35000002 -0.49999994 197 160 109 255
0.45290786 -0.49688444 -0.4999999 196 149 95 255
0.6180502 -0.50239015 0.2500001 201 156 100 255
0.61999995 -0.49999997 0.50000006 197 147 91 255
0.46442214 -0.49688444 0.50000006 197 149 95 255
0.29999998 -0.24999996 0.50000006 215 174 119 255
0.15999995 -0.13999996 0.5 232 185 126 255
-0.0021348733 -0.08843572 0.49891764 197 149 95 255
0.19714712 -0.14831413 0.25000003 201 156 100 255
-4.371139e-08 3.774895e-08 0.5 197 148 93 255
0.47185454 -0.36220542 0.22980624 201 156 100 255
0.272418 -0.24976942 0.25000006 200 155 99 255
0.46999997 -0.34999996 0.50000006 197 160 109 255
0.51004046 -0.36466217 -0.24999993 197 149 95 255
0.30545673 -0.26673576 -0.24999994 197 149 95 255
0.30545667 -0.22790092 -0.020193756 205 166 118 255
0.4718546 -0.34574336 7.5929655e-08 229 183 130 255
0.12603743 -0.13865836 -0.24999996 197 149 95 255
-0.0021348298 -0.00021457672 1.478768e-08 203 164 117 255
0.15907604 -0.11436671 0.013924406 229 183 130 255
0.16000004 -0.14000005 -0.49999994 232 185 126 255
4.3711385e-08 -3.7748947e-08 -0.49999997 199 150 94 255
0.62349904 -0.5023901 -0.2499999 201 156 100 255
0.6902853 -0.5023901 1.0024933e-07 207 167 119 255
0.62000006 -0.50000006 -0.4999998 197 147 91 255
-0.29999998 -0.25000003 -0.5 215 174 119 255
-0.45455807 -0.49688435 -0.5 196 149 95 255
-0.46999997 -0.35000002 -0.5 197 160 109 255
-0.6011618 -0.50814056 0.24999993 201 156 100 255
-0.46158537 -0.49688432 0.5 197 149 95 255
-0.62000006 -0.49999997 0.49999997 197 147 91 255
-0.30000004 -0.24999996 0.5 215 174 119 255
-0.16000004 -0.13999996 0.5 232 185 126 255
-0.20141692 -0.14831407 0.24999997 201 156 100 255
-0.49901614 -0.37479585 0.22980613 201 156 100 255
-0.47000003 -0.34999996 0.5 197 160 109 255
-0.27668777 -0.24976934 0.24999997 200 155 99 255
-0.5372018 -0.37725264 -0.25000006 197 149 95 255
-0.4990161 -0.3583338 -5.128637e-08 229 183 130 255
-0.3097263 -0.2279008 -0.020193836 205 166 118 255
-0.30972627 -0.2667357 -0.25 197 149 95 255
-0.13030706 -0.13865821 -0.24999999 197 149 95 255
-0.16334575 -0.11436662 0.013924364 229 183 130 255
-0.15999995 -0.14000005 -0.5 232 185 126 255
-0.6066105 -0.5081405 -0.25000003 201 156 100 255
-0.6733969 -0.50814056 -9.2154565e-08 207 167 119 255
-0.61999995 -0.50000006 -0.4999999 197 147 91 255
3 3 4 5
3 6 7 8
3 8 9 10
3 5 11 2
4 12 0 13 10
4 14 15 9 16
4 17 18 19 20
4 21 1 22 23
4 18 21 23 19
4 3 24 21 18
4 24 25 1 21
4 26 17 20 27
4 28 4 17 26
4 4 3 18 17
4 6 14 16 7
4 27 20 14 6
4 20 19 15 14
4 15 12 10 9
4 19 23 12 15
4 23 22 0 12
3 5 2 24
3 2 25 24
3 4 28 5
3 5 24 3
3 8 5 6
3 5 28 26
3 26 27 6
3 5 26 6
3 11 8 10
3 8 7 16
3 8 16 9
3 10 13 11
3 5 8 11
3 29 30 31
3 32 33 34
3 33 36 35
3 30 2 11
4 37 36 13 0
4 38 39 35 40
4 41 42 43 44
4 45 46 22 1
4 44 43 46 45
4 29 44 45 47
4 47 45 1 25
4 48 49 42 41
4 50 48 41 31
4 31 41 44 29
4 32 34 39 38
4 49 32 38 42
4 42 38 40 43
4 40 35 36 37
4 43 40 37 46
4 46 37 0 22
3 30 47 2
3 2 47 25
3 31 30 50
3 30 29 47
3 33 32 30
3 30 48 50
3 48 32 49
3 30 32 48
3 11 36 33
3 33 39 34
3 33 35 39
3 36 11 13
3 30 11 33
