ply
format ascii 1.0
comment Created in Blender version 4.1.1
element vertex 43
property float x
property float y
property float z
property uchar red
property uchar green
property uchar blue
property uchar alpha
property float s
property float t
element face 49
property list uchar uint vertex_indices
end_header
-0.5011864 0.5020115 0.24999991 200 155 98 255 -9 -9
-0.5007514 0.5035501 -0.25000006 200 156 99 255 -9 -9
-0.5011692 0.3376661 -0.50000006 196 148 94 255 -9 -9
0.070000045 -3.774895e-08 -0.5 214 174 119 255 -9 -9
0.37000003 -0.23000005 -0.49999994 196 160 109 255 -9 -9
0.50001 -0.50021017 -0.4999999 195 148 94 255 -9 -9
0.6352553 -0.50400245 0.2500001 200 156 99 255 -9 -9
0.6437597 -0.50400233 0.49891773 196 146 90 255 -9 -9
0.5000099 -0.50021017 0.49891773 196 148 94 255 -9 -9
0.077177435 0.012306295 0.49891764 214 174 119 255 -9 -9
-0.21173574 0.25633484 0.4989176 231 184 125 255 -9 -9
-0.5011693 0.33766603 0.49891758 196 148 94 255 -9 -9
-0.17366457 0.24667898 0.24999996 200 156 99 255 -9 -9
-0.50000006 0.50000006 0.4999999 196 147 92 255 -9 -9
0.3660907 -0.24818435 0.22980623 200 156 99 255 -9 -9
0.044138834 0.012306288 0.25 199 155 98 255 -9 -9
0.36609066 -0.2317223 0.49891773 196 160 109 255 -9 -9
0.40427667 -0.25064105 -0.24999993 196 148 94 255 -9 -9
0.07717761 -0.0046600103 -0.24999999 196 148 94 255 -9 -9
0.07717755 0.034174792 -0.0201938 204 166 118 255 -9 -9
0.36609074 -0.2317223 5.693445e-08 228 182 129 255 -9 -9
-0.24477425 0.25633484 -0.25000003 196 148 94 255 -9 -9
-0.5006488 0.5257053 -9.176313e-08 202 164 117 255 -9 -9
-0.21173564 0.28062642 0.0139243305 228 182 129 255 -9 -9
-0.20999995 0.24999996 -0.50000006 231 184 125 255 -9 -9
-0.49999997 0.49999997 -0.50000006 198 149 93 255 -9 -9
0.6407043 -0.50400233 -0.2499999 200 156 99 255 -9 -9
0.6903948 -0.50400233 1.104046e-07 206 167 119 255 -9 -9
0.6947534 -0.50263834 -0.49999988 196 146 90 255 -9 -9
-0.50011724 0.329424 0.5589194 82 52 42 255 -9 -9
-0.49970946 0.67029965 0.55891937 106 66 52 255 -9 -9
-0.4997094 0.67029965 0.4989194 106 66 52 255 -9 -9
-0.5001172 0.329424 0.4989194 82 52 42 255 -9 -9
0.5000255 -0.32986593 0.49891955 106 66 52 255 -9 -9
0.49992332 -0.67032576 0.49891952 82 52 42 255 -9 -9
0.50002545 -0.32986593 0.55891955 106 66 52 255 -9 -9
0.4999233 -0.67032576 0.5589196 82 52 42 255 -9 -9
-0.5000001 -0.49999997 0.49999988 253 253 253 255 0 0
-0.5000001 0.375 0.49999988 253 253 253 255 0 0.875
-0.5000001 0.375 0.43996933 253 253 253 255 0 0.875
-0.5000001 -0.49999994 0.43996933 253 253 253 255 0 0
0.49999994 -0.5 0.44000015 253 253 253 255 1 0
0.49999994 -0.5 0.5000001 253 253 253 255 1 0
3 0 1 2
3 3 4 5
3 6 7 8
3 8 9 10
3 5 11 2
4 12 0 13 10
4 14 15 9 16
4 17 18 19 20
4 21 1 22 23
4 18 21 23 19
4 3 24 21 18
4 24 25 1 21
4 26 17 20 27
4 28 4 17 26
4 4 3 18 17
4 6 14 16 7
4 27 20 14 6
4 20 19 15 14
4 15 12 10 9
4 19 23 12 15
4 23 22 0 12
3 2 11 0
3 11 13 0
3 0 22 1
3 1 25 2
3 5 2 24
3 2 25 24
3 4 28 5
3 5 24 3
3 8 5 6
3 5 28 26
3 26 27 6
3 5 26 6
3 11 8 10
3 8 7 16
3 8 16 9
3 10 13 11
3 5 8 11
4 29 30 31 32
4 32 31 33 34
4 34 33 35 36
4 36 35 30 29
4 32 34 36 29
4 33 31 30 35
4 37 38 39 40
3 40 39 41
3 42 38 37
4 40 41 42 37
4 41 39 38 42
