ply
format ascii 1.0
comment Created in Blender version 4.1.1
element vertex 123
property float x
property float y
property float z
property uchar red
property uchar green
property uchar blue
property uchar alpha
element face 98
property list uchar uint vertex_indices
end_header
-0.49999994 -0.25000003 -0.30000004 214 174 119 255
-0.49999994 -0.36000004 -0.50000006 196 157 106 255
-0.44999993 -0.5000001 -0.45 195 148 94 255
0.44519377 -0.49703908 -0.45478922 195 148 94 255
0.5 -0.25000003 -0.29999995 214 174 119 255
0.5 -0.14000002 -0.15999994 231 184 125 255
0.5000001 -0.36000004 -0.49999988 197 159 107 255
0.27816316 -0.27427554 -0.27696618 199 152 98 255
0.5 -0.25000003 -0.29999995 214 174 119 255
-0.49999994 -0.36000004 -0.50000006 196 157 106 255
-0.49999994 -0.25000003 -0.30000004 214 174 119 255
-0.27986312 -0.2668904 -0.2787044 196 148 94 255
-0.5 -0.16322118 0.0001826832 196 148 94 255
-0.5 -0.14000002 -0.16000003 231 184 125 255
-0.5 -3.300118e-15 -8.742278e-08 198 149 93 255
0.49891758 -0.1632212 0.0001829752 196 148 94 255
0.5000001 -0.36000004 -0.49999988 197 159 107 255
0.5 3.300118e-15 8.742278e-08 196 147 92 255
-0.50000006 -0.24999997 0.29999998 214 174 119 255
-0.45594838 -0.4970389 0.44635248 195 148 94 255
-0.5000002 -0.35999995 0.49999994 196 157 106 255
0.4451936 -0.49703896 0.44635278 196 148 94 255
0.49999997 -0.13999999 0.16000006 231 184 125 255
0.49999988 -0.24999997 0.30000007 214 174 119 255
0.49999994 -0.35999998 0.5000001 197 159 107 255
0.49999988 -0.24999997 0.30000007 214 174 119 255
0.2612089 -0.24992403 0.26236787 204 160 102 255
-0.5000002 -0.35999995 0.49999994 196 157 106 255
-0.263344 -0.2584071 0.2788871 198 151 97 255
-0.50000006 -0.24999997 0.29999998 214 174 119 255
-0.50000006 -0.13999999 0.15999997 231 184 125 255
0.49999994 -0.35999998 0.5000001 197 159 107 255
0.30000004 -0.25000003 -0.49999988 214 174 119 255
0.5000001 -0.36000004 -0.49999988 197 159 107 255
0.44519377 -0.49703908 -0.45478922 195 148 94 255
0.29999998 -0.24999996 0.5000001 214 174 119 255
0.15999995 -0.13999996 0.5 231 184 125 255
0.49999994 -0.35999998 0.5000001 197 159 107 255
0.29999998 -0.24999996 0.5000001 214 174 119 255
0.5000001 -0.36000004 -0.49999988 197 159 107 255
0.30000004 -0.25000003 -0.49999988 214 174 119 255
0.27816316 -0.27427554 -0.27696618 199 152 98 255
-0.002134746 -0.16291195 -0.5 196 148 94 255
0.16000004 -0.14000005 -0.49999994 231 184 125 255
8.749474e-08 -7.556005e-08 -0.50082326 198 149 93 255
-0.0017730213 -0.0014791124 0.5 196 147 92 255
-0.0021349727 -0.16291179 0.49891764 196 148 94 255
-0.29999998 -0.25000003 -0.5000001 214 174 119 255
-0.45594838 -0.4970389 0.44635248 195 148 94 255
-0.16000004 -0.13999996 0.5 231 184 125 255
-0.30000004 -0.24999996 0.5 214 174 119 255
-0.5000002 -0.35999995 0.49999994 196 157 106 255
-0.30000004 -0.24999996 0.5 214 174 119 255
-0.263344 -0.2584071 0.2788871 198 151 97 255
-0.49999994 -0.36000004 -0.50000006 196 157 106 255
-0.29999998 -0.25000003 -0.5000001 214 174 119 255
-0.15999995 -0.14000005 -0.50000006 231 184 125 255
-0.5000002 -0.35999995 0.49999994 196 157 106 255
0.12603739 -0.13865834 -0.24999997 204 159 102 255
0.16000004 -0.14000005 -0.49999994 231 184 125 255
8.749474e-08 -7.556005e-08 -0.50082326 198 149 93 255
-0.0021348493 -0.019319348 -0.25 200 156 99 255
0.24999999 -0.019628659 0.00018292118 200 155 98 255
0.2499999 -0.14862333 0.19946489 204 160 102 255
0.49999997 -0.13999999 0.16000006 231 184 125 255
0.5 3.300118e-15 8.742278e-08 196 147 92 255
-0.25000003 -0.13896766 -0.12798947 204 160 102 255
-0.5 -0.14000002 -0.16000003 231 184 125 255
-0.5 -3.300118e-15 -8.742278e-08 198 149 93 255
-0.25000003 -0.01962863 0.00018275552 200 156 99 255
-0.18362096 -0.13237992 0.13600573 204 160 103 255
-0.11279062 -0.08456012 0.08795684 202 161 112 255
-0.13030711 -0.1386582 -0.25000003 204 160 102 255
-0.18400323 -0.1651881 -0.18025348 204 160 102 255
-0.14442275 -0.12892683 -0.14076054 205 160 104 255
-0.16000004 -0.13999996 0.5 231 184 125 255
-0.20141695 -0.14831403 0.24999996 204 160 102 255
0.13454229 -0.1321449 -0.18063882 202 161 112 255
0.08743232 -0.08508069 -0.110831045 202 161 112 255
-0.14442275 -0.12892683 -0.14076054 205 160 104 255
-0.001067467 -0.00036921352 9.141104e-05 202 164 117 255
0.15999995 -0.13999996 0.5 231 184 125 255
0.19714715 -0.14831412 0.25000003 204 160 102 255
-0.002134948 -0.019319318 0.25 200 155 98 255
-0.0017730213 -0.0014791124 0.5 196 147 92 255
0.21186417 -0.15941215 0.21418223 204 160 102 255
0.18740344 -0.13962203 0.18937017 204 160 102 255
0.08743232 -0.08508069 -0.110831045 202 161 112 255
0.13454229 -0.1321449 -0.18063882 202 161 112 255
-0.50000006 -0.13999999 0.15999997 231 184 125 255
-0.25000006 -0.13896748 0.12835498 204 160 102 255
0.09985548 -0.079500176 0.10188839 202 161 112 255
0.18736161 -0.13958852 0.18932095 204 160 102 255
0.25 -0.1486235 -0.1990991 204 160 102 255
0.17148936 -0.17174914 -0.23057076 204 160 102 255
0.15811895 -0.15461561 -0.20890881 204 160 102 255
0.18736161 -0.13958852 0.18932095 204 160 102 255
0.09985548 -0.079500176 0.10188839 202 161 112 255
-0.11279062 -0.08456012 0.08795684 202 161 112 255
-0.18362096 -0.13237992 0.13600573 204 160 103 255
0.15811895 -0.15461561 -0.20890881 204 160 102 255
0.17148936 -0.17174914 -0.23057076 204 160 102 255
-0.23175687 -0.17060806 0.17431265 205 161 110 255
-0.18362096 -0.13237992 0.13600573 204 160 103 255
-0.21097483 -0.1541225 0.15882367 205 160 103 255
0.5 -0.14000002 -0.15999994 231 184 125 255
-0.18400323 -0.1651881 -0.18025348 204 160 102 255
-0.15999995 -0.14000005 -0.50000006 231 184 125 255
-0.14442275 -0.12892683 -0.14076054 205 160 104 255
-0.18400323 -0.1651881 -0.18025348 204 160 102 255
-0.18400323 -0.1651881 -0.18025348 204 160 102 255
0.21186417 -0.15941215 0.21418223 204 160 102 255
0.18740344 -0.13962203 0.18937017 204 160 102 255
0.21186417 -0.15941215 0.21418223 204 160 102 255
0.21186417 -0.15941215 0.21418223 204 160 102 255
0.09985548 -0.079500176 0.10188839 202 161 112 255
0.13454229 -0.1321449 -0.18063882 202 161 112 255
0.09985548 -0.079500176 0.10188839 202 161 112 255
-0.14442275 -0.12892683 -0.14076054 205 160 104 255
0.13454229 -0.1321449 -0.18063882 202 161 112 255
-0.21097483 -0.1541225 0.15882367 205 160 103 255
-0.18362096 -0.13237992 0.13600573 204 160 103 255
-0.23175687 -0.17060806 0.17431265 205 161 110 255
3 0 1 2
3 3 4 5
3 6 7 8
3 9 10 11
3 2 12 13
3 12 14 13
3 2 13 0
3 15 3 5
3 3 16 4
3 5 17 15
3 18 19 20
3 21 22 23
3 24 25 26
3 27 28 29
3 19 30 12
3 12 30 14
3 19 18 30
3 15 22 21
3 21 23 31
3 22 15 17
3 32 33 34
3 21 35 36
3 37 26 38
3 39 40 41
3 34 42 43
3 42 44 43
3 34 43 32
3 21 31 35
3 36 45 46
3 47 2 1
3 48 49 50
3 51 52 53
3 54 11 55
3 2 56 42
3 42 56 44
3 2 47 56
3 46 49 48
3 48 50 57
3 49 46 45
4 58 59 60 61
4 62 63 64 65
4 66 67 68 69
3 36 46 21
3 70 71 69
3 72 73 74
4 75 76 53 52
3 77 61 78
4 79 80 61 72
4 81 82 83 84
3 85 86 82
3 87 62 88
4 89 29 28 90
3 62 91 92
3 93 94 95
3 96 97 83
3 83 98 99
3 58 100 101
3 90 28 102
3 103 104 76
4 105 93 62 65
3 71 80 69
3 69 90 70
4 83 76 75 84
3 72 11 106
4 60 107 72 61
4 11 10 67 66
4 81 38 26 82
3 58 61 77
3 61 80 78
3 66 108 109
3 110 11 66
3 111 26 63
3 63 112 113
3 86 96 82
3 82 26 114
4 64 63 26 25
3 87 80 62
3 62 93 88
4 105 8 7 93
3 112 63 92
3 63 62 92
3 62 80 115
4 107 55 11 72
4 41 40 59 58
3 93 7 94
3 95 116 93
3 80 83 117
3 83 82 96
4 118 66 69 80
3 99 76 83
3 83 80 98
3 101 41 58
3 58 119 100
3 102 120 90
3 120 121 90
3 104 122 76
3 122 53 76
4 68 89 90 69
