ply
format ascii 1.0
comment Created in Blender version 4.2.2 LTS
element vertex 112
property float x
property float y
property float z
property uchar red
property uchar green
property uchar blue
property uchar alpha
element face 136
property list uchar uint vertex_indices
end_header
-0.099999994 0.402495 0.10000003 172 64 51 255
0.10000001 0.402495 0.10000001 172 64 51 255
0.13367201 0.404857 0.133672 172 64 51 255
-0.13367198 0.404857 0.13367203 172 64 51 255
-0.10000001 -0.3977 -0.10000001 172 64 51 255
-0.10000001 0.402495 -0.09999997 172 64 51 255
0.099999994 0.402495 -0.099999994 172 64 51 255
0.099999994 -0.3977 -0.10000003 172 64 51 255
0.10000001 -0.3977 0.09999997 172 64 51 255
0.13260801 -0.429139 0.13260797 172 64 51 255
0.13260798 -0.429139 -0.13260803 172 64 51 255
-0.099999994 -0.3977 0.099999994 172 64 51 255
0.13367198 0.404857 -0.133672 172 64 51 255
0.13367198 0.446859 -0.13367198 141 52 42 255
0.13367201 0.446859 0.13367201 141 52 42 255
-0.13367201 0.404857 -0.13367197 172 64 51 255
-0.13367198 0.446859 0.13367203 141 52 42 255
0.17538501 0.452737 0.175385 172 64 51 255
-0.17538498 0.452737 0.17538503 172 64 51 255
-0.13367201 0.446859 -0.13367197 141 52 42 255
0.17538498 0.452737 -0.175385 172 64 51 255
0.17538498 0.499994 -0.175385 172 64 51 255
0.17538501 0.499994 0.175385 172 64 51 255
-0.17538501 0.452737 -0.17538497 172 64 51 255
-0.17538498 0.499994 0.17538503 172 64 51 255
-0.17538501 0.499994 -0.17538497 172 64 51 255
-0.13260801 -0.429139 -0.132608 172 64 51 255
0.13260798 -0.500027 -0.13260803 166 61 49 255
-0.13260801 -0.500027 -0.13260801 141 52 42 255
-0.13260798 -0.429139 0.132608 172 64 51 255
0.13260801 -0.500027 0.13260797 166 61 49 255
-0.13260798 -0.500027 0.13260798 141 52 42 255
0.030000005 -0.309583 0.060007986 172 64 51 255
0.030000005 -0.209583 0.06000799 172 64 51 255
0.030000042 -0.20958301 0.500008 172 64 51 255
0.030000042 -0.30958304 0.500008 172 64 51 255
-0.029999956 -0.30958304 0.500008 172 64 51 255
-0.029999956 -0.20958301 0.500008 172 64 51 255
-0.029999994 -0.209583 0.060007993 172 64 51 255
-0.029999994 -0.309583 0.06000799 172 64 51 255
0.030000005 0.15125 0.060008004 172 64 51 255
0.030000005 0.25125 0.060008008 141 52 42 255
0.030000042 0.25124997 0.500008 141 52 42 255
0.030000042 0.15124999 0.500008 172 64 51 255
-0.029999956 0.15124999 0.500008 172 64 51 255
-0.029999956 0.25124997 0.500008 141 52 42 255
-0.029999994 0.25125 0.060008015 141 52 42 255
-0.029999994 0.15125 0.060008008 172 64 51 255
0.020000024 -0.24718201 0.28413 172 64 51 255
0.020000014 -0.247182 0.16412999 172 64 51 255
0.020000014 0.192818 0.16413 172 64 51 255
0.020000024 0.19281799 0.28413 172 64 51 255
-0.019999975 0.19281799 0.28413 172 64 51 255
-0.019999985 0.192818 0.16413002 172 64 51 255
-0.019999985 -0.247182 0.16412999 172 64 51 255
-0.019999975 -0.24718201 0.28413 172 64 51 255
0.02000004 -0.24718201 0.46517 172 64 51 255
0.02000003 -0.24718201 0.34517 172 64 51 255
0.02000003 0.19281799 0.34517 172 64 51 255
0.02000004 0.19281799 0.46517 172 64 51 255
-0.019999959 0.19281799 0.46517 172 64 51 255
-0.01999997 0.19281799 0.34517 172 64 51 255
-0.01999997 -0.24718201 0.34517 172 64 51 255
-0.019999959 -0.24718201 0.46517 172 64 51 255
0.050000004 0.249647 0.060008008 172 64 51 255
0.050000004 0.309648 0.060008008 172 64 51 255
0.050000045 0.30964798 0.500008 172 64 51 255
0.050000045 0.24964699 0.500008 172 64 51 255
-0.049999956 0.24964699 0.500008 172 64 51 255
-0.049999956 0.30964798 0.500008 172 64 51 255
-0.049999997 0.309648 0.06000802 172 64 51 255
-0.049999997 0.249647 0.060008015 172 64 51 255
-0.030000005 -0.309583 -0.06000801 172 64 51 255
-0.030000005 -0.209583 -0.060008008 172 64 51 255
-0.030000042 -0.20958298 -0.500008 172 64 51 255
-0.030000042 -0.30958298 -0.500008 172 64 51 255
0.029999956 -0.30958298 -0.500008 171 64 51 255
0.029999956 -0.20958298 -0.500008 172 64 51 255
0.029999994 -0.209583 -0.06000801 172 64 51 255
0.029999994 -0.309583 -0.060008015 172 64 51 255
-0.030000005 0.15125 -0.060007993 172 64 51 255
-0.030000005 0.25125 -0.060007986 141 52 42 255
-0.030000042 0.25125003 -0.500008 141 52 42 255
-0.030000042 0.15125002 -0.500008 172 64 51 255
0.029999956 0.15125002 -0.500008 172 64 51 255
0.029999956 0.25125003 -0.500008 141 52 42 255
0.029999994 0.25125 -0.060007993 141 52 42 255
0.029999994 0.15125 -0.060007997 172 64 51 255
-0.020000024 -0.24718198 -0.28413 172 64 51 255
-0.020000014 -0.247182 -0.16413002 172 64 51 255
-0.020000014 0.192818 -0.16412999 172 64 51 255
-0.020000024 0.19281802 -0.28413 172 64 51 255
0.019999975 0.19281802 -0.28413 172 64 51 255
0.019999985 0.192818 -0.16413 172 64 51 255
0.019999985 -0.247182 -0.16413002 172 64 51 255
0.019999975 -0.24718198 -0.28413 172 64 51 255
-0.02000004 -0.24718198 -0.46517 172 64 51 255
-0.02000003 -0.24718198 -0.34517 172 64 51 255
-0.02000003 0.19281802 -0.34517 172 64 51 255
-0.02000004 0.19281802 -0.46517 172 64 51 255
0.019999959 0.19281802 -0.46517 172 64 51 255
0.01999997 0.19281802 -0.34517 172 64 51 255
0.01999997 -0.24718198 -0.34517 172 64 51 255
0.019999959 -0.24718198 -0.46517 172 64 51 255
-0.050000004 0.249647 -0.060007986 172 64 51 255
-0.050000004 0.309648 -0.060007982 172 64 51 255
-0.050000045 0.30964804 -0.500008 172 64 51 255
-0.050000045 0.24964702 -0.500008 172 64 51 255
0.049999956 0.24964702 -0.500008 172 64 51 255
0.049999956 0.30964804 -0.500008 172 64 51 255
0.049999997 0.309648 -0.060007993 172 64 51 255
0.049999997 0.249647 -0.060007993 172 64 51 255
3 1 3 0
3 5 7 4
3 6 8 7
3 8 10 7
3 0 4 11
3 1 11 8
3 12 14 2
3 5 12 6
3 6 2 1
3 0 15 5
3 14 18 16
3 15 13 12
3 2 16 3
3 3 19 15
3 20 22 17
3 16 23 19
3 13 17 14
3 19 20 13
3 22 25 24
3 23 21 20
3 17 24 18
3 18 25 23
3 10 28 26
3 4 29 11
3 11 9 8
3 7 26 4
3 31 27 30
3 9 27 10
3 26 31 29
3 29 30 9
3 33 35 32
3 37 39 36
3 36 32 35
3 34 38 37
3 41 43 40
3 45 47 44
3 44 40 43
3 49 51 48
3 53 55 52
3 52 48 51
3 50 54 53
3 57 59 56
3 61 63 60
3 60 56 59
3 58 62 61
3 65 67 64
3 69 71 68
3 68 64 67
3 66 70 69
3 73 75 72
3 77 79 76
3 76 72 75
3 74 78 77
3 81 83 80
3 85 87 84
3 84 80 83
3 89 91 88
3 93 95 92
3 92 88 91
3 90 94 93
3 97 99 96
3 101 103 100
3 100 96 99
3 98 102 101
3 105 107 104
3 109 111 108
3 108 104 107
3 106 110 109
3 1 2 3
3 5 6 7
3 6 1 8
3 8 9 10
3 0 5 4
3 1 0 11
3 12 13 14
3 5 15 12
3 6 12 2
3 0 3 15
3 14 17 18
3 15 19 13
3 2 14 16
3 3 16 19
3 20 21 22
3 16 18 23
3 13 20 17
3 19 23 20
3 22 21 25
3 23 25 21
3 17 22 24
3 18 24 25
3 10 27 28
3 4 26 29
3 11 29 9
3 7 10 26
3 31 28 27
3 9 30 27
3 26 28 31
3 29 31 30
3 33 34 35
3 37 38 39
3 36 39 32
3 34 33 38
3 41 42 43
3 45 46 47
3 44 47 40
3 49 50 51
3 53 54 55
3 52 55 48
3 50 49 54
3 57 58 59
3 61 62 63
3 60 63 56
3 58 57 62
3 65 66 67
3 69 70 71
3 68 71 64
3 66 65 70
3 73 74 75
3 77 78 79
3 76 79 72
3 74 73 78
3 81 82 83
3 85 86 87
3 84 87 80
3 89 90 91
3 93 94 95
3 92 95 88
3 90 89 94
3 97 98 99
3 101 102 103
3 100 103 96
3 98 97 102
3 105 106 107
3 109 110 111
3 108 111 104
3 106 105 110
