ply
format ascii 1.0
comment Created by Blender 2.83.20 - www.blender.org, source file: 'rooftileddiagonalbothblue.blend'
element vertex 182
property float x
property float y
property float z
property float s
property float t
property uchar red
property uchar green
property uchar blue
property uchar alpha
element face 120
property list uchar uint vertex_indices
end_header
-0.500000 -0.500000 -0.500000 1.000000 0.000000 255 255 255 255
-0.500000 0.450000 -0.500000 1.000000 0.950000 255 255 255 255
0.500000 -0.500000 -0.500000 0.000000 0.000000 255 255 255 255
-0.499152 0.454259 -0.414547 -9.000141 -9.000171 170 108 72 255
-0.499152 -0.500148 -0.418872 -9.000131 -9.000166 170 108 72 255
0.475730 -0.500148 -0.418872 -9.000135 -8.999837 170 108 72 255
-0.499381 0.260004 -0.535160 -9.000179 -9.000170 223 206 197 255
0.499995 -0.499998 -0.535160 -9.000175 -8.999829 223 206 197 255
0.500053 -0.739998 -0.535160 -9.000172 -8.999828 224 208 199 255
0.499995 -0.499998 -0.495160 -9.000162 -8.999829 225 209 200 255
-0.499381 0.260004 -0.495160 -9.000166 -9.000170 227 212 204 255
0.500053 -0.739998 -0.495160 -9.000158 -8.999827 223 206 197 255
-0.499381 0.260004 0.494314 -8.999833 -9.000165 223 206 197 255
0.499995 -0.499998 0.494314 -8.999828 -8.999825 223 206 197 255
0.500053 -0.739998 0.494314 -8.999825 -8.999823 224 208 199 255
0.499995 -0.499998 0.534314 -8.999815 -8.999825 225 209 200 255
-0.499381 0.260004 0.534314 -8.999819 -9.000165 227 212 204 255
0.500053 -0.739998 0.534314 -8.999812 -8.999823 223 206 197 255
-0.499152 -0.499101 0.412995 -8.999851 -9.000161 170 108 72 255
-0.499152 0.455309 0.417321 -8.999861 -9.000167 170 108 72 255
0.475730 -0.499101 0.412995 -8.999856 -8.999833 170 108 72 255
-0.500000 0.450000 0.500000 0.000000 0.950000 255 255 255 255
-0.500000 -0.500000 0.500000 0.000000 0.000000 255 255 255 255
0.500000 -0.500000 0.500000 1.000000 0.000000 255 255 255 255
-0.200745 0.296712 -0.176375 -9.000061 -9.000068 82 97 122 255
-0.200745 0.296712 -0.555900 -9.000189 -9.000070 82 97 122 255
-0.489189 0.512118 -0.555900 -9.000190 -9.000168 82 97 122 255
-0.489189 0.512118 -0.176375 -9.000062 -9.000166 82 97 122 255
0.199564 -0.308480 -0.176725 -9.000055 -8.999929 86 98 122 255
0.488008 -0.523886 -0.176725 -9.000054 -8.999831 87 98 122 255
0.535877 -0.459787 -0.176725 -9.000055 -8.999816 86 98 122 255
0.247432 -0.244381 -0.176725 -9.000056 -8.999914 86 98 122 255
-0.143268 -0.022896 0.500000 -8.999829 -9.000044 187 119 80 255
-0.143268 -0.022896 -0.487909 -9.000162 -9.000049 187 119 80 255
-0.063195 -0.082798 -0.487909 -9.000162 -9.000021 188 122 85 255
-0.063195 -0.082798 0.500000 -8.999828 -9.000016 188 123 86 255
-0.536398 0.456864 0.165184 -8.999946 -9.000180 88 100 126 255
-0.536398 0.456864 -0.194816 -9.000068 -9.000182 88 100 126 255
-0.231929 0.229491 -0.194816 -9.000066 -9.000078 94 105 130 255
-0.231929 0.229491 0.165184 -8.999945 -9.000076 88 100 126 255
-0.012522 -0.028305 -0.555982 -9.000186 -9.000005 90 103 128 255
-0.300966 0.187101 -0.555982 -9.000187 -9.000103 87 101 126 255
-0.253098 0.251200 -0.555982 -9.000188 -9.000087 87 101 126 255
0.035346 0.035793 -0.555982 -9.000187 -8.999989 87 101 126 255
0.240780 -0.268560 0.140053 -8.999949 -8.999914 91 106 127 255
-0.047664 -0.053154 0.140053 -8.999950 -9.000013 85 104 126 255
0.000204 0.010945 0.140053 -8.999951 -8.999997 90 105 126 255
0.288648 -0.204461 0.140053 -8.999950 -8.999899 90 105 126 255
0.193745 -0.334213 0.500000 -8.999826 -8.999928 188 123 86 255
0.193745 -0.334213 -0.487909 -9.000160 -8.999933 188 122 85 255
0.253647 -0.254140 -0.487909 -9.000161 -8.999913 187 119 80 255
0.253647 -0.254140 0.500000 -8.999828 -8.999908 187 119 80 255
0.257357 -0.271997 -0.198884 -9.000064 -8.999910 89 101 126 255
-0.047112 -0.044624 -0.198884 -9.000065 -9.000014 89 101 126 255
0.000756 0.019475 -0.198884 -9.000066 -8.999999 89 101 126 255
0.305225 -0.207898 -0.198884 -9.000065 -8.999895 89 101 126 255
-0.300966 0.187101 -0.176457 -9.000059 -9.000101 87 101 126 255
-0.012522 -0.028305 -0.176458 -9.000057 -9.000003 96 108 131 255
-0.047664 -0.050392 -0.555848 -9.000185 -9.000016 85 99 122 255
-0.047664 -0.050392 -0.176324 -9.000057 -9.000014 85 98 121 255
0.000204 0.013706 -0.176324 -9.000058 -8.999999 85 99 122 255
0.000204 0.013706 -0.555848 -9.000186 -9.000000 85 99 122 255
0.223906 -0.300683 0.165184 -8.999940 -8.999920 83 98 122 255
0.512350 -0.516089 0.165184 -8.999939 -8.999822 83 98 122 255
0.560218 -0.451990 0.165184 -8.999940 -8.999805 83 98 122 255
0.271774 -0.236584 0.165184 -8.999941 -8.999905 83 98 122 255
-0.500000 -0.500000 -0.500000 -9.000158 -9.000166 170 108 72 255
0.500000 -0.500000 -0.500000 -9.000163 -8.999846 170 108 72 255
0.240780 -0.268560 0.558072 -8.999808 -8.999912 90 105 126 255
-0.047664 -0.053154 0.558072 -8.999809 -9.000011 90 105 126 255
-0.500000 0.450000 -0.500000 -9.000171 -9.000172 170 108 72 255
0.055093 0.057281 0.171031 -8.999942 -8.999979 90 102 126 255
0.055093 0.057281 -0.188969 -9.000063 -8.999981 90 102 126 255
-0.233352 0.272687 -0.188969 -9.000065 -9.000079 90 102 126 255
-0.233352 0.272687 0.171031 -8.999943 -9.000077 90 102 126 255
-0.496230 0.509357 0.558047 -8.999814 -9.000165 86 101 122 255
-0.544098 0.445258 0.558047 -8.999813 -9.000181 86 101 122 255
-0.255654 0.229852 0.558047 -8.999812 -9.000083 86 101 122 255
-0.207786 0.293951 0.558047 -8.999813 -9.000067 86 101 122 255
0.247432 -0.244381 -0.556250 -9.000184 -8.999916 90 101 124 255
0.199564 -0.308480 -0.556250 -9.000183 -8.999931 86 98 122 255
0.466713 -0.543198 -0.070000 -9.000018 -8.999838 174 116 85 255
0.393971 -0.615940 -0.070000 -9.000016 -8.999862 170 108 72 255
-0.606029 0.384060 -0.070000 -9.000024 -9.000205 170 108 72 255
-0.533287 0.456802 -0.070000 -9.000026 -9.000180 170 108 72 255
-0.296870 0.193888 0.558097 -8.999811 -9.000096 86 101 126 255
-0.008426 -0.021519 0.558097 -8.999810 -8.999998 87 102 127 255
0.039442 0.042580 0.558097 -8.999811 -8.999982 86 101 126 255
-0.249002 0.257986 0.558097 -8.999812 -9.000080 86 101 126 255
-0.537057 0.448019 -0.555900 -9.000189 -9.000184 82 97 122 255
-0.537058 0.448019 -0.176375 -9.000061 -9.000182 82 97 122 255
-0.003293 -0.002725 -0.487909 -9.000163 -9.000001 187 119 80 255
-0.003293 -0.002725 0.500000 -8.999830 -8.999996 187 119 80 255
-0.255654 0.229852 0.140028 -8.999953 -9.000085 86 101 122 255
-0.544098 0.445258 0.140028 -8.999954 -9.000183 86 101 122 255
-0.496230 0.509357 0.140028 -8.999955 -9.000167 86 101 122 255
-0.207786 0.293951 0.140028 -8.999954 -9.000069 86 101 122 255
-0.184061 0.293589 0.165184 -8.999946 -9.000061 88 100 126 255
-0.184061 0.293589 -0.194816 -9.000067 -9.000062 88 100 126 255
-0.488530 0.520963 -0.194816 -9.000069 -9.000166 88 100 126 255
-0.488530 0.520963 0.165184 -8.999947 -9.000165 88 100 126 255
0.288648 -0.201700 -0.176324 -9.000057 -8.999900 85 99 122 255
0.288648 -0.201700 -0.555848 -9.000185 -8.999902 85 99 122 255
-0.296870 0.193888 0.140078 -8.999952 -9.000098 86 101 126 255
-0.008426 -0.021519 0.140078 -8.999951 -9.000000 86 101 126 255
-0.500013 0.500003 0.534314 -8.999823 -9.000167 223 206 197 255
-0.500013 0.500003 0.494314 -8.999836 -9.000167 223 206 197 255
-0.393302 0.220230 0.500000 -8.999831 -9.000130 187 119 80 255
-0.393302 0.220230 -0.487909 -9.000164 -9.000134 187 119 80 255
-0.313229 0.160328 -0.487909 -9.000164 -9.000107 188 122 85 255
-0.313229 0.160328 0.500000 -8.999830 -9.000102 188 123 86 255
-0.083366 0.057177 0.500000 -8.999830 -9.000024 187 119 80 255
-0.083366 0.057177 -0.487909 -9.000163 -9.000029 187 119 80 255
-0.248613 0.232613 -0.176375 -9.000060 -9.000084 82 97 122 255
-0.248613 0.232613 -0.555900 -9.000188 -9.000086 82 97 122 255
0.039442 0.042580 0.140078 -8.999952 -8.999984 86 101 126 255
0.535877 -0.461399 0.558079 -8.999807 -8.999812 85 101 122 255
0.535877 -0.461399 0.140060 -8.999949 -8.999814 85 101 122 255
0.247432 -0.245993 0.140060 -8.999949 -8.999912 85 101 122 255
0.247432 -0.245993 0.558079 -8.999808 -8.999910 85 101 122 255
0.467624 -0.460949 0.500000 -8.999826 -8.999835 187 119 80 255
0.467624 -0.460949 -0.487909 -9.000159 -8.999840 187 119 80 255
0.387551 -0.401046 -0.487909 -9.000160 -8.999867 187 119 80 255
0.387551 -0.401046 0.500000 -8.999827 -8.999863 187 119 80 255
0.488008 -0.525497 0.558079 -8.999806 -8.999828 85 101 122 255
0.199564 -0.310091 0.558079 -8.999807 -8.999927 85 101 122 255
0.199564 -0.310091 0.140060 -8.999949 -8.999928 85 101 122 255
0.488008 -0.525497 0.140060 -8.999948 -8.999830 85 101 122 255
0.113672 -0.274310 0.500000 -8.999827 -8.999956 187 119 80 255
0.113672 -0.274310 -0.487909 -9.000160 -8.999960 187 119 80 255
0.535877 -0.459787 -0.556250 -9.000183 -8.999818 86 98 122 255
-0.249002 0.257986 0.140078 -8.999953 -9.000083 87 101 127 255
-0.047112 -0.044624 0.161116 -8.999944 -9.000012 89 101 126 255
0.257357 -0.271997 0.161116 -8.999942 -8.999908 89 101 126 255
0.305225 -0.207898 0.161116 -8.999943 -8.999893 89 101 126 255
0.000756 0.019475 0.161116 -8.999945 -8.999997 89 101 126 255
0.223906 -0.300683 -0.194816 -9.000062 -8.999922 83 98 122 255
0.512350 -0.516089 -0.194816 -9.000060 -8.999824 83 98 122 255
0.007225 -0.006817 -0.188969 -9.000062 -8.999996 90 102 126 255
-0.281220 0.208589 -0.188969 -9.000064 -9.000094 85 99 126 255
0.007225 -0.006817 0.171031 -8.999941 -8.999994 90 102 126 255
0.327648 -0.481120 0.500000 -8.999825 -8.999883 187 119 80 255
0.327648 -0.481120 -0.487909 -9.000158 -8.999887 187 119 80 255
0.407722 -0.541022 -0.487909 -9.000158 -8.999860 188 122 85 255
0.407722 -0.541022 0.500000 -8.999825 -8.999855 188 123 86 255
-0.253326 0.240401 0.500000 -8.999832 -9.000082 187 119 80 255
-0.253326 0.240401 -0.487909 -9.000165 -9.000087 187 119 80 255
-0.333399 0.300303 -0.487909 -9.000165 -9.000114 187 119 80 255
-0.333399 0.300303 0.500000 -8.999832 -9.000110 187 119 80 255
-0.281220 0.208589 0.171031 -8.999942 -9.000093 85 99 126 255
0.393971 -0.615940 0.070000 -8.999969 -8.999862 170 108 72 255
0.466713 -0.543198 0.070000 -8.999970 -8.999837 172 113 80 255
-0.533287 0.456802 0.070000 -8.999978 -9.000179 170 109 73 255
0.173574 -0.194237 -0.487909 -9.000161 -8.999941 187 119 80 255
0.173574 -0.194237 0.500000 -8.999828 -8.999936 187 119 80 255
0.000204 0.010945 0.558072 -8.999811 -8.999995 90 105 126 255
0.035346 0.035793 -0.176458 -9.000059 -8.999987 88 102 127 255
-0.253098 0.251200 -0.176457 -9.000060 -9.000086 87 101 126 255
0.223906 -0.300683 -0.194816 -9.000062 -8.999922 187 88 74 255
0.223906 -0.300683 0.165184 -8.999940 -8.999920 187 88 74 255
0.271774 -0.236584 0.165184 -8.999941 -8.999905 187 88 74 255
0.271774 -0.236584 -0.194816 -9.000063 -8.999906 187 88 74 255
-0.606029 0.384060 0.070000 -8.999977 -9.000204 171 109 72 255
0.560218 -0.451990 -0.194816 -9.000061 -8.999807 83 98 122 255
0.271774 -0.236584 -0.194816 -9.000063 -8.999906 83 98 122 255
0.500000 -0.500000 0.500000 -8.999826 -8.999841 170 108 72 255
-0.500000 0.450000 0.500000 -8.999834 -9.000167 170 108 72 255
0.240780 -0.265799 -0.555848 -9.000184 -8.999918 85 99 122 255
0.240780 -0.265799 -0.176324 -9.000056 -8.999916 85 99 122 255
0.488008 -0.523886 -0.556250 -9.000182 -8.999833 86 98 122 255
-0.500000 -0.500000 0.500000 -8.999822 -9.000161 170 108 72 255
-0.500013 0.500003 -0.535160 -9.000183 -9.000172 223 206 197 255
-0.500013 0.450000 -0.500000 -9.000170 -9.000172 223 206 197 255
0.288648 -0.204461 0.558072 -8.999809 -8.999897 90 105 126 255
-0.281220 0.208589 -0.188969 -9.000064 -9.000094 194 99 72 255
-0.233352 0.272687 -0.188969 -9.000065 -9.000079 194 111 91 255
-0.233352 0.272687 0.171031 -8.999943 -9.000077 194 111 91 255
-0.281220 0.208589 0.171031 -8.999942 -9.000093 194 99 72 255
-0.047112 -0.044624 -0.198884 -9.000065 -9.000014 194 108 88 255
-0.047112 -0.044624 0.161116 -8.999944 -9.000012 194 108 88 255
0.000756 0.019475 0.161116 -8.999945 -8.999997 194 108 88 255
0.000756 0.019475 -0.198884 -9.000066 -8.999999 194 108 88 255
3 0 1 2
3 3 4 5
3 6 7 8
3 9 10 11
3 12 13 14
3 15 16 17
3 18 19 20
3 21 22 23
4 24 25 26 27
4 28 29 30 31
4 32 33 34 35
4 36 37 38 39
4 40 41 42 43
4 44 45 46 47
4 48 49 50 51
4 52 53 54 55
4 56 41 40 57
4 58 59 60 61
4 62 63 64 65
4 4 66 67 5
4 68 69 45 44
4 5 67 70 3
4 71 72 73 74
4 75 76 77 78
4 14 17 16 12
4 79 80 28 31
4 81 82 83 84
4 85 86 87 88
4 89 90 27 26
4 35 34 91 92
4 93 94 95 96
4 97 98 99 100
4 101 102 61 60
4 86 85 103 104
4 105 106 12 16
4 107 108 109 110
4 39 38 98 97
4 33 32 111 112
4 113 114 25 24
4 86 104 115 87
4 116 117 118 119
4 9 11 8 7
4 120 121 122 123
4 15 13 106 105
4 124 125 126 127
4 128 129 49 48
4 113 90 89 114
4 30 130 79 31
4 87 115 131 88
4 132 133 134 135
4 62 136 137 63
4 104 103 131 115
4 133 52 55 134
4 138 139 73 72
4 140 138 72 71
4 103 85 88 131
4 141 142 143 144
4 145 146 147 148
4 149 139 138 140
4 150 82 81 151
4 151 81 84 152
4 37 36 100 99
4 51 50 153 154
4 78 96 95 75
4 45 69 155 46
4 56 57 156 157
4 158 159 160 161
4 114 89 26 25
4 100 36 39 97
4 124 127 117 116
4 150 151 152 162
4 8 11 10 6
4 64 163 164 65
4 82 150 162 83
4 165 20 19 166
4 74 149 140 71
4 76 94 93 77
4 126 125 119 118
4 59 58 167 168
4 95 94 76 75
4 92 91 112 111
4 57 40 43 156
4 77 93 96 78
4 167 58 61 102
4 129 128 154 153
4 28 80 169 29
4 144 143 121 120
4 108 107 148 147
4 170 18 20 165
4 127 126 118 117
4 156 43 42 157
4 9 7 171 172
4 110 109 146 145
4 168 167 102 101
4 173 47 46 155
4 132 53 52 133
4 66 4 3 70
4 98 38 37 99
4 137 136 164 163
4 174 175 176 177
4 41 56 157 42
4 60 59 168 101
4 169 80 79 130
3 6 171 7
4 69 68 173 155
3 9 172 10
4 119 125 124 116
4 15 17 14 13
3 12 106 13
4 178 179 180 181
3 15 105 16
4 134 55 54 135
4 63 137 163 64
4 18 170 166 19
4 90 113 24 27
4 152 84 83 162
4 10 172 171 6
4 68 44 47 173
4 142 141 123 122
4 29 169 130 30
