ply
format ascii 1.0
comment Created by Blender 2.83.20 - www.blender.org, source file: 'rooftiledvblue.blend'
element vertex 181
property float x
property float y
property float z
property float s
property float t
property uchar red
property uchar green
property uchar blue
property uchar alpha
element face 115
property list uchar uint vertex_indices
end_header
0.000078 -0.278745 0.535161 -9.000005 -9.000016 223 206 197 255
0.500209 -0.739998 0.535160 -8.999972 -9.000043 224 208 199 255
0.498841 -0.497057 0.534796 -8.999972 -9.000031 223 206 197 255
0.500151 -0.499998 0.495160 -8.999972 -9.000029 225 209 200 255
0.500209 -0.739998 0.495160 -8.999972 -9.000041 223 206 197 255
0.000078 -0.278745 0.495161 -9.000005 -9.000015 227 212 204 255
0.250000 -0.500000 0.500000 0.750000 0.000000 255 255 255 255
0.000000 -0.250000 0.500000 0.500000 0.250000 255 255 255 255
-0.250000 -0.500000 0.500000 0.250000 0.000000 255 255 255 255
-0.007428 -0.280072 0.463785 -9.000005 -9.000013 171 109 72 255
0.251708 -0.500148 0.462871 -8.999988 -9.000026 171 109 72 255
-0.250000 -0.500524 0.460004 -9.000020 -9.000023 171 109 72 255
-0.499995 -0.499998 0.535160 -9.000037 -9.000025 223 206 197 255
-0.500053 -0.739998 0.535160 -9.000037 -9.000037 224 208 199 255
-0.499995 -0.499998 0.495160 -9.000037 -9.000023 225 209 200 255
-0.500053 -0.739998 0.495160 -9.000037 -9.000035 223 206 197 255
0.488165 -0.525497 -0.140060 -8.999967 -9.000004 85 101 122 255
0.536033 -0.461399 -0.140060 -8.999964 -9.000001 85 101 122 255
0.247588 -0.245993 -0.140060 -8.999983 -8.999989 85 101 122 255
0.199720 -0.310091 -0.140060 -8.999986 -8.999991 85 101 122 255
0.247588 -0.245993 -0.500060 -8.999979 -8.999973 85 101 122 255
0.536033 -0.461399 -0.500060 -8.999960 -8.999986 85 101 122 255
0.488164 -0.525497 -0.500060 -8.999963 -8.999989 85 101 122 255
0.199720 -0.310091 -0.500060 -8.999982 -8.999976 85 101 122 255
0.407878 -0.541022 -0.500000 -8.999969 -8.999989 188 123 86 255
0.467780 -0.460949 -0.500000 -8.999965 -8.999986 187 119 80 255
0.467780 -0.460949 0.507125 -8.999974 -9.000028 187 119 80 255
0.407878 -0.541022 0.507125 -8.999978 -9.000031 188 122 85 255
0.173730 -0.194237 -0.500000 -8.999984 -8.999970 187 119 80 255
0.253803 -0.254140 -0.500000 -8.999978 -8.999973 187 119 80 255
0.193901 -0.334213 -0.500000 -8.999982 -8.999977 188 123 86 255
0.113828 -0.274310 -0.500000 -8.999988 -8.999974 187 119 80 255
0.000078 -0.044624 -0.161116 -8.999998 -8.999976 89 101 126 255
0.000078 -0.044624 0.198884 -9.000002 -8.999990 89 101 126 255
-0.257357 -0.271997 0.198884 -9.000018 -9.000001 89 101 126 255
-0.257357 -0.271997 -0.161116 -9.000015 -8.999986 89 101 126 255
0.000078 -0.050392 0.188657 -9.000002 -8.999990 186 97 83 255
0.240936 -0.265799 0.188656 -8.999987 -9.000003 187 98 84 255
0.288804 -0.201700 0.188656 -8.999983 -9.000000 187 98 84 255
0.000078 0.013706 0.188657 -9.000002 -8.999988 187 98 84 255
0.488164 -0.523886 0.140472 -8.999969 -9.000015 87 98 122 255
0.536033 -0.459787 0.140471 -8.999967 -9.000012 86 98 122 255
0.536033 -0.459787 0.556250 -8.999970 -9.000030 86 98 122 255
0.488165 -0.523886 0.556250 -8.999973 -9.000032 86 98 122 255
0.305381 -0.207898 -0.161116 -8.999979 -8.999986 89 101 126 255
0.000078 0.019475 -0.161116 -8.999998 -8.999972 89 101 126 255
0.000078 0.019475 0.198884 -9.000002 -8.999988 89 101 126 255
0.305381 -0.207898 0.198884 -8.999982 -9.000001 89 101 126 255
-0.199564 -0.310091 -0.500060 -9.000008 -8.999974 85 101 122 255
-0.199564 -0.310091 -0.140060 -9.000011 -8.999989 85 101 122 255
-0.488008 -0.525498 -0.140060 -9.000030 -8.999998 85 101 122 255
-0.488008 -0.525497 -0.500060 -9.000026 -8.999983 85 101 122 255
0.199720 -0.308480 0.556250 -8.999992 -9.000020 187 107 88 255
0.199720 -0.308480 0.189058 -8.999989 -9.000005 187 107 88 255
0.247588 -0.244381 0.189057 -8.999986 -9.000002 187 107 88 255
0.247588 -0.244381 0.556250 -8.999990 -9.000017 190 116 99 255
-0.250000 -0.500000 0.500000 -9.000021 -9.000025 171 109 72 255
0.000000 -0.250000 0.500000 -9.000005 -9.000013 171 109 72 255
0.000078 0.010945 -0.502132 -8.999995 -8.999959 90 105 126 255
-0.288648 -0.204461 -0.504211 -9.000013 -8.999968 90 105 126 255
-0.288648 -0.204461 -0.140053 -9.000017 -8.999983 90 105 126 255
0.000078 0.010945 -0.140053 -8.999999 -8.999974 90 105 126 255
0.000078 -0.053154 -0.502132 -8.999995 -8.999962 90 105 126 255
-0.240780 -0.268560 -0.504211 -9.000010 -8.999971 90 105 126 255
-0.535876 -0.461399 -0.500060 -9.000030 -8.999979 85 101 122 255
-0.535876 -0.461399 -0.140060 -9.000032 -8.999994 85 101 122 255
-0.247432 -0.245993 -0.140060 -9.000014 -8.999986 85 101 122 255
-0.247432 -0.245993 -0.500060 -9.000010 -8.999970 85 101 122 255
0.257513 -0.271997 -0.161116 -8.999982 -8.999989 89 101 126 255
-0.327648 -0.481120 -0.500000 -9.000016 -8.999982 187 119 80 255
-0.327648 -0.481120 0.507125 -9.000026 -9.000024 187 119 80 255
-0.407721 -0.541022 0.507126 -9.000031 -9.000026 188 122 85 255
-0.407721 -0.541022 -0.500000 -9.000021 -8.999984 188 123 86 255
-0.113671 -0.274310 -0.500000 -9.000002 -8.999972 187 119 80 255
-0.113671 -0.274310 0.507125 -9.000012 -9.000014 187 119 80 255
-0.193745 -0.334213 0.507125 -9.000017 -9.000017 188 122 85 255
-0.193745 -0.334213 -0.500000 -9.000008 -8.999975 188 123 86 255
0.224062 -0.300683 -0.165184 -8.999984 -8.999990 83 98 122 255
0.271930 -0.236584 -0.165184 -8.999981 -8.999987 83 98 122 255
0.560374 -0.451990 -0.165184 -8.999962 -8.999999 83 98 122 255
0.512506 -0.516089 -0.165184 -8.999965 -9.000002 83 98 122 255
0.488164 -0.523886 0.189058 -8.999970 -9.000017 187 108 89 255
0.536033 -0.459787 0.189058 -8.999967 -9.000014 187 107 88 255
0.288804 -0.204461 -0.500053 -8.999976 -8.999971 90 105 126 255
0.240936 -0.268560 -0.500053 -8.999979 -8.999974 90 105 126 255
-0.223906 -0.300683 -0.165184 -9.000012 -8.999988 83 98 122 255
-0.223906 -0.300683 0.194816 -9.000016 -9.000002 83 98 122 255
-0.512350 -0.516089 0.194816 -9.000034 -9.000011 83 98 122 255
-0.512350 -0.516089 -0.165184 -9.000031 -8.999996 83 98 122 255
0.257513 -0.271997 0.198884 -8.999985 -9.000004 89 101 126 255
-0.271774 -0.236584 -0.165184 -9.000015 -8.999984 83 98 122 255
-0.560218 -0.451990 -0.165184 -9.000034 -8.999992 83 98 122 255
-0.560218 -0.451990 0.194816 -9.000038 -9.000008 83 98 122 255
-0.271774 -0.236584 0.194816 -9.000019 -8.999999 83 98 122 255
0.288804 -0.204461 -0.140053 -8.999980 -8.999987 90 105 126 255
0.000078 -0.053154 -0.140053 -8.999998 -8.999977 85 104 126 255
0.240936 -0.268560 -0.140053 -8.999983 -8.999990 91 106 127 255
-0.393971 -0.615940 -0.070000 -9.000025 -9.000006 170 108 72 255
-0.393971 -0.615940 0.070000 -9.000026 -9.000011 170 108 72 255
-0.466197 -0.536432 0.070000 -9.000031 -9.000008 174 116 85 255
-0.466197 -0.536432 -0.070000 -9.000029 -9.000002 172 113 80 255
-0.288648 -0.201700 0.555848 -9.000024 -9.000012 85 99 122 255
-0.240780 -0.265799 0.555848 -9.000021 -9.000015 85 99 122 255
0.000078 -0.050392 0.557012 -9.000006 -9.000006 85 99 122 255
0.000078 0.013706 0.557012 -9.000006 -9.000003 85 99 122 255
-0.305225 -0.207898 -0.161116 -9.000018 -8.999982 89 101 126 255
-0.305225 -0.207898 0.198884 -9.000022 -8.999997 89 101 126 255
-0.535876 -0.459787 0.556250 -9.000040 -9.000024 86 98 122 255
-0.488008 -0.523886 0.556250 -9.000037 -9.000027 86 98 122 255
-0.199564 -0.308480 0.556250 -9.000018 -9.000018 86 98 122 255
-0.247432 -0.244381 0.556250 -9.000021 -9.000014 90 101 124 255
-0.240780 -0.265799 0.140070 -9.000017 -8.999998 85 99 122 255
-0.288648 -0.201700 0.140070 -9.000020 -8.999994 85 99 122 255
0.224062 -0.300683 0.194816 -8.999988 -9.000005 187 88 74 255
0.224062 -0.300683 -0.165184 -8.999984 -8.999990 187 88 74 255
0.271930 -0.236584 -0.165184 -8.999981 -8.999987 187 88 74 255
0.271930 -0.236584 0.194816 -8.999984 -9.000002 187 88 74 255
-0.467624 -0.460949 0.507126 -9.000035 -9.000022 187 119 80 255
-0.467624 -0.460949 -0.500000 -9.000025 -8.999980 187 119 80 255
0.000078 -0.050392 0.140070 -9.000001 -8.999989 85 98 121 255
0.240936 -0.265799 0.140070 -8.999986 -9.000001 85 99 122 255
0.240936 -0.265799 0.558176 -8.999990 -9.000018 85 99 122 255
-0.535876 -0.459787 0.140471 -9.000035 -9.000006 86 98 122 255
-0.247432 -0.244381 0.140471 -9.000017 -8.999997 86 98 122 255
0.193901 -0.334213 0.507125 -8.999992 -9.000019 188 122 85 255
0.113828 -0.274310 0.507125 -8.999997 -9.000016 187 119 80 255
-0.488008 -0.523886 0.140472 -9.000032 -9.000010 87 98 122 255
-0.240780 -0.268560 -0.140053 -9.000014 -8.999987 91 106 127 255
0.000078 0.013706 0.140070 -9.000002 -8.999986 85 99 122 255
0.288804 -0.201700 0.558176 -8.999987 -9.000015 85 99 122 255
0.288804 -0.201700 0.140070 -8.999983 -8.999998 85 99 122 255
-0.173574 -0.194237 -0.500000 -9.000006 -8.999969 187 119 80 255
-0.253647 -0.254140 -0.500000 -9.000011 -8.999970 187 119 80 255
-0.000674 -0.038746 0.535161 -9.000006 -9.000005 223 206 197 255
-0.000674 -0.038746 0.495160 -9.000005 -9.000003 223 206 197 255
0.199720 -0.308480 0.556250 -8.999992 -9.000020 86 98 122 255
0.199720 -0.308480 0.140471 -8.999989 -9.000003 86 98 122 255
0.001073 -0.235652 -0.070000 -8.999999 -8.999990 171 109 72 255
0.001073 -0.235652 0.070000 -9.000000 -8.999995 170 108 72 255
0.173730 -0.194237 0.507125 -8.999994 -9.000012 187 119 80 255
0.253803 -0.254140 0.507125 -8.999989 -9.000016 187 119 80 255
-0.199564 -0.308480 0.140471 -9.000014 -9.000001 86 98 122 255
-0.199564 -0.308480 0.189059 -9.000014 -9.000003 187 107 88 255
-0.247432 -0.244381 0.189059 -9.000018 -8.999999 187 107 88 255
-0.535876 -0.459787 0.189059 -9.000036 -9.000008 187 107 88 255
-0.488008 -0.523886 0.189059 -9.000033 -9.000011 187 108 89 255
0.394127 -0.615940 -0.070000 -8.999973 -9.000010 170 108 72 255
0.001073 -0.132351 -0.070000 -8.999999 -8.999984 170 109 73 255
0.457409 -0.556233 -0.070000 -8.999969 -9.000008 172 113 80 255
-0.387550 -0.401046 0.507126 -9.000030 -9.000019 187 119 80 255
-0.387550 -0.401046 -0.500000 -9.000020 -8.999977 187 119 80 255
0.250000 -0.500000 0.500000 -8.999989 -9.000028 171 109 72 255
0.327804 -0.481120 -0.500000 -8.999973 -8.999986 187 119 80 255
0.327804 -0.481120 0.507125 -8.999984 -9.000028 187 119 80 255
0.387707 -0.401046 -0.500000 -8.999969 -8.999982 187 119 80 255
0.247588 -0.244381 0.556250 -8.999990 -9.000017 90 101 124 255
0.387707 -0.401046 0.507125 -8.999980 -9.000024 187 119 80 255
0.394127 -0.615940 0.070000 -8.999975 -9.000016 170 108 72 255
0.247588 -0.244381 0.140471 -8.999986 -9.000000 86 98 122 255
0.512506 -0.516089 0.194816 -8.999969 -9.000017 83 98 122 255
0.224062 -0.300683 0.194816 -8.999988 -9.000005 83 98 122 255
0.560374 -0.451990 0.194816 -8.999966 -9.000014 83 98 122 255
0.271930 -0.236584 0.194816 -8.999984 -9.000002 83 98 122 255
0.457409 -0.556233 0.070000 -8.999970 -9.000013 174 116 85 255
0.247588 -0.245993 -0.140060 -8.999983 -8.999989 187 87 82 255
0.247588 -0.245993 -0.500060 -8.999979 -8.999973 187 87 82 255
0.199720 -0.310091 -0.500060 -8.999982 -8.999976 187 87 82 255
0.199720 -0.310091 -0.140060 -8.999986 -8.999991 187 87 82 255
-0.288648 -0.201700 0.188657 -9.000020 -8.999996 187 98 84 255
-0.240780 -0.265799 0.188657 -9.000017 -9.000000 187 98 84 255
0.001073 -0.132351 0.070000 -9.000001 -8.999990 170 108 72 255
-0.253647 -0.254140 0.507125 -9.000021 -9.000012 187 119 80 255
-0.173574 -0.194237 0.507125 -9.000016 -9.000010 187 119 80 255
-0.199564 -0.310091 -0.140060 -9.000011 -8.999989 187 87 82 255
-0.247432 -0.245993 -0.140060 -9.000014 -8.999986 187 87 82 255
-0.247432 -0.245993 -0.500060 -9.000010 -8.999970 187 87 82 255
-0.199564 -0.310091 -0.500060 -9.000008 -8.999974 187 87 82 255
-0.271774 -0.236584 0.194816 -9.000019 -8.999999 187 88 74 255
-0.223906 -0.300683 0.194816 -9.000016 -9.000002 187 88 74 255
-0.223906 -0.300683 -0.165184 -9.000012 -8.999988 187 88 74 255
-0.271774 -0.236584 -0.165184 -9.000015 -8.999984 187 88 74 255
3 0 1 2
3 3 4 5
3 6 7 8
3 9 10 11
3 0 12 13
3 14 5 15
4 16 17 18 19
4 20 21 22 23
4 24 25 26 27
4 28 29 30 31
4 32 33 34 35
4 36 37 38 39
4 40 41 42 43
4 44 45 46 47
4 48 49 50 51
4 52 53 54 55
4 11 56 57 9
4 58 59 60 61
4 62 63 59 58
4 64 65 66 67
4 32 45 44 68
4 69 70 71 72
4 73 74 75 76
4 77 78 79 80
4 54 53 81 82
4 62 58 83 84
4 85 86 87 88
4 32 68 89 33
4 15 13 12 14
4 90 91 92 93
4 94 61 95 96
4 65 50 49 66
4 97 98 99 100
4 101 102 103 104
4 105 106 46 45
4 107 108 109 110
4 111 102 101 112
4 113 114 115 116
4 72 71 117 118
4 13 15 5 0
4 119 103 102 111
4 120 121 103 119
4 51 50 65 64
4 4 3 2 1
4 122 107 110 123
4 31 30 124 125
4 126 108 107 122
4 48 51 64 67
4 63 127 60 59
4 35 34 106 105
4 128 104 129 130
4 131 73 76 132
4 63 62 95 127
4 14 12 133 134
4 112 101 104 128
4 40 43 135 136
4 98 97 137 138
4 29 28 139 140
4 109 141 123 110
4 88 87 92 91
4 142 143 144 145
4 146 137 147 148
4 118 117 149 150
4 57 151 10 9
4 152 24 27 153
4 69 72 118 150
4 121 129 104 103
4 152 154 25 24
4 84 83 94 96
4 42 155 135 43
4 30 29 140 124
4 25 154 156 26
4 70 69 150 149
4 157 138 137 146
4 158 155 42 41
4 89 47 46 33
4 77 80 159 160
4 161 162 160 159
4 80 79 161 159
4 22 21 17 16
4 146 148 163 157
4 153 156 154 152
4 164 165 166 167
4 21 20 18 17
3 0 2 133
4 39 168 169 36
3 3 5 134
4 127 95 61 60
4 23 22 16 19
4 148 147 170 163
4 97 100 147 137
4 1 0 5 4
4 170 138 157 163
4 10 151 56 11
4 85 88 91 90
4 141 109 108 126
4 68 44 47 89
4 100 99 170 147
4 84 96 95 62
4 132 171 172 131
4 173 174 175 176
4 76 75 171 132
4 78 162 161 79
4 92 87 86 93
4 125 139 28 31
4 3 134 133 2
4 170 99 98 138
4 177 178 179 180
4 74 73 131 172
3 0 133 12
4 120 130 129 121
3 14 134 5
4 83 58 61 94
4 34 33 46 106
4 32 35 105 45
