ply
format ascii 1.0
comment Created by Blender 2.83.20 - www.blender.org, source file: 'roofdiagonalflipblue.blend'
element vertex 193
property float x
property float y
property float z
property float s
property float t
property uchar red
property uchar green
property uchar blue
property uchar alpha
element face 113
property list uchar uint vertex_indices
end_header
-0.499152 -0.500148 -0.415609 -9.000031 -9.000055 171 109 72 255
0.498821 -0.500148 -0.415609 -8.999942 -9.000045 171 109 72 255
-0.505177 0.454259 -0.411283 -9.000032 -8.999969 171 109 72 255
-0.500000 0.450000 -0.500000 1.000000 0.950000 255 255 255 255
0.500000 -0.500000 -0.500000 0.000000 0.000000 255 255 255 255
-0.500000 -0.500000 -0.500000 1.000000 0.000000 255 255 255 255
-0.499381 0.260004 -0.489247 -9.000029 -8.999988 223 206 197 255
0.500053 -0.739998 -0.489247 -8.999939 -9.000069 224 208 199 255
0.499995 -0.499998 -0.489247 -8.999939 -9.000047 223 206 197 255
0.499995 -0.499998 -0.529247 -8.999938 -9.000048 225 209 200 255
0.500053 -0.739998 -0.529247 -8.999938 -9.000070 223 206 197 255
-0.499381 0.260004 -0.529247 -9.000028 -8.999989 227 212 204 255
-0.300966 0.187101 0.181278 -9.000032 -8.999977 87 101 126 255
-0.012522 -0.028305 0.181278 -9.000007 -8.999993 96 108 131 255
-0.012522 -0.028305 0.500204 -9.000016 -8.999986 90 103 128 255
-0.300966 0.187101 0.500204 -9.000042 -8.999969 87 101 126 255
-0.547484 0.442605 -0.070000 -9.000047 -8.999962 170 109 73 255
-0.606029 0.384060 -0.070000 -9.000051 -8.999968 171 109 72 255
-0.606029 0.384060 0.070000 -9.000056 -8.999965 170 108 72 255
-0.547484 0.442605 0.070000 -9.000051 -8.999959 170 108 72 255
0.512350 -0.516089 0.194816 -8.999960 -9.000032 83 98 122 255
0.560218 -0.451990 0.194816 -8.999955 -9.000026 83 98 122 255
0.271774 -0.236584 0.194816 -8.999981 -9.000010 83 98 122 255
0.223906 -0.300683 0.194816 -8.999986 -9.000015 83 98 122 255
0.199564 -0.308480 0.181545 -8.999988 -9.000017 86 98 122 255
0.247432 -0.244381 0.181545 -8.999983 -9.000010 86 98 122 255
0.535877 -0.459787 0.181545 -8.999957 -9.000027 86 98 122 255
0.488008 -0.523886 0.181545 -8.999962 -9.000033 87 98 122 255
-0.063195 -0.082798 0.499344 -9.000021 -8.999991 188 122 85 255
-0.003293 -0.002725 0.499344 -9.000015 -8.999984 187 119 80 255
-0.083366 0.057177 0.499344 -9.000023 -8.999979 187 119 80 255
-0.143268 -0.022896 0.499344 -9.000029 -8.999987 187 119 80 255
0.247432 -0.244381 0.500472 -8.999993 -9.000003 90 101 124 255
0.535877 -0.459787 0.500472 -8.999968 -9.000020 86 98 122 255
0.240780 -0.268560 -0.150935 -8.999973 -9.000021 91 106 127 255
0.288648 -0.204461 -0.150935 -8.999969 -9.000014 90 105 126 255
0.000204 0.010945 -0.150935 -8.999995 -8.999997 90 105 126 255
-0.047664 -0.053154 -0.150935 -8.999999 -9.000004 85 104 126 255
-0.003293 -0.002725 -0.455974 -8.999986 -9.000006 187 119 80 255
-0.083366 0.057177 -0.455974 -8.999992 -9.000001 187 119 80 255
-0.233352 0.272687 -0.171031 -9.000015 -8.999976 90 102 126 255
0.055093 0.057281 -0.171031 -8.999990 -8.999993 90 102 126 255
0.007225 -0.006817 -0.171031 -8.999993 -9.000000 90 102 126 255
-0.281220 0.208589 -0.171031 -9.000019 -8.999983 85 99 126 255
0.000204 0.010945 -0.140053 -8.999995 -8.999997 194 95 90 255
-0.047664 -0.053154 -0.140053 -8.999999 -9.000004 194 75 72 255
-0.047664 -0.053154 -0.536268 -8.999987 -9.000013 194 95 90 255
0.000204 0.010945 -0.536268 -8.999983 -9.000007 194 95 90 255
0.223906 -0.300683 -0.165184 -8.999974 -9.000024 83 98 122 255
0.271774 -0.236584 -0.165184 -8.999970 -9.000018 83 98 122 255
0.560218 -0.451990 -0.165184 -8.999944 -9.000034 83 98 122 255
0.512350 -0.516089 -0.165184 -8.999949 -9.000041 83 98 122 255
0.247432 -0.244381 0.500472 -8.999993 -9.000003 190 116 99 255
0.247432 -0.244381 0.140471 -8.999982 -9.000011 187 107 88 255
0.199564 -0.308480 0.140471 -8.999986 -9.000018 187 107 88 255
0.199564 -0.308480 0.500472 -8.999997 -9.000010 187 107 88 255
0.223906 -0.300683 0.194816 -8.999986 -9.000015 187 88 74 255
0.271774 -0.236584 0.194816 -8.999981 -9.000010 187 88 74 255
0.271774 -0.236584 -0.165184 -8.999970 -9.000018 187 88 74 255
0.223906 -0.300683 -0.165184 -8.999974 -9.000024 187 88 74 255
-0.248613 0.232613 0.181196 -9.000028 -8.999972 82 97 122 255
-0.248613 0.232613 0.500122 -9.000038 -8.999965 82 97 122 255
-0.537057 0.448019 0.500122 -9.000064 -8.999948 82 97 122 255
-0.537058 0.448019 0.181196 -9.000053 -8.999955 82 97 122 255
-0.253326 0.240401 -0.455974 -9.000008 -8.999987 187 119 80 255
-0.333399 0.300303 -0.455974 -9.000015 -8.999982 187 119 80 255
-0.333399 0.300303 0.499344 -9.000046 -8.999959 187 119 80 255
-0.253326 0.240401 0.499344 -9.000038 -8.999964 187 119 80 255
0.407722 -0.541022 -0.455974 -8.999949 -9.000051 188 123 86 255
0.467624 -0.460949 -0.455974 -8.999943 -9.000043 187 119 80 255
0.467624 -0.460949 0.499344 -8.999973 -9.000020 187 119 80 255
0.407722 -0.541022 0.499344 -8.999979 -9.000029 188 122 85 255
0.288648 -0.204461 -0.536268 -8.999957 -9.000023 90 105 126 255
0.000204 0.010945 -0.536268 -8.999983 -9.000007 90 105 126 255
-0.500000 0.450000 -0.500000 -9.000029 -8.999970 171 109 72 255
-0.500000 -0.500000 -0.500000 -9.000028 -9.000057 171 109 72 255
0.488008 -0.525497 -0.536276 -8.999939 -9.000051 85 101 122 255
0.488008 -0.525497 -0.150942 -8.999950 -9.000041 85 101 122 255
0.199564 -0.310091 -0.150942 -8.999977 -9.000025 85 101 122 255
0.199564 -0.310091 -0.536276 -8.999965 -9.000033 85 101 122 255
-0.255654 0.229852 -0.150910 -9.000018 -8.999980 86 101 122 255
-0.207786 0.293951 -0.150910 -9.000013 -8.999974 86 101 122 255
-0.496230 0.509357 -0.150910 -9.000039 -8.999957 86 101 122 255
-0.544098 0.445258 -0.150910 -9.000044 -8.999964 86 101 122 255
0.257357 -0.271997 -0.161116 -8.999971 -9.000021 89 101 126 255
0.305225 -0.207898 -0.161116 -8.999968 -9.000014 89 101 126 255
0.305225 -0.207898 0.198884 -8.999979 -9.000006 89 101 126 255
0.257357 -0.271997 0.198884 -8.999983 -9.000012 89 101 126 255
0.193745 -0.334213 0.499344 -8.999998 -9.000011 188 122 85 255
0.253647 -0.254140 0.499344 -8.999992 -9.000004 187 119 80 255
0.173574 -0.194237 0.499344 -9.000000 -8.999999 187 119 80 255
0.113672 -0.274310 0.499344 -9.000005 -9.000007 187 119 80 255
-0.047664 -0.050392 0.500070 -9.000020 -8.999989 187 98 84 255
0.000204 0.013706 0.500070 -9.000015 -8.999982 187 98 84 255
0.000204 0.013706 0.140070 -9.000004 -8.999990 187 98 84 255
-0.047664 -0.050392 0.140070 -9.000009 -8.999997 186 97 83 255
-0.255654 0.229852 -0.536243 -9.000006 -8.999990 86 101 122 255
-0.207786 0.293951 -0.536243 -9.000001 -8.999983 86 101 122 255
-0.231929 0.229491 -0.165184 -9.000015 -8.999980 88 100 126 255
-0.184061 0.293589 -0.165184 -9.000011 -8.999974 88 100 126 255
-0.184061 0.293589 0.194816 -9.000023 -8.999966 88 100 126 255
-0.231929 0.229491 0.194816 -9.000027 -8.999971 94 105 130 255
-0.008426 -0.021519 -0.536293 -8.999983 -9.000010 87 102 127 255
0.039442 0.042580 -0.536293 -8.999979 -9.000004 86 101 126 255
0.039442 0.042580 -0.150960 -8.999991 -8.999994 86 101 126 255
-0.008426 -0.021519 -0.150960 -8.999995 -9.000001 86 101 126 255
0.113672 -0.274310 -0.455974 -8.999975 -9.000030 187 119 80 255
0.193745 -0.334213 -0.455974 -8.999968 -9.000034 188 123 86 255
-0.313229 0.160328 -0.455974 -9.000013 -8.999994 188 123 86 255
-0.313229 0.160328 0.499344 -9.000044 -8.999971 188 122 85 255
0.535877 -0.461399 -0.536276 -8.999934 -9.000044 85 101 122 255
0.535877 -0.461399 -0.150942 -8.999947 -9.000035 85 101 122 255
0.387551 -0.401046 0.499344 -8.999981 -9.000016 187 119 80 255
0.327648 -0.481120 0.499344 -8.999986 -9.000024 187 119 80 255
0.035346 0.035793 0.181278 -9.000002 -8.999987 88 102 127 255
-0.253098 0.251200 0.181278 -9.000029 -8.999970 87 101 126 255
-0.253098 0.251200 0.500204 -9.000038 -8.999963 87 101 126 255
0.035346 0.035793 0.500204 -9.000012 -8.999980 87 101 126 255
0.452516 -0.557395 0.070000 -8.999961 -9.000039 174 116 85 255
0.393971 -0.615940 0.070000 -8.999966 -9.000046 170 108 72 255
-0.200745 0.296712 0.181196 -9.000024 -8.999966 82 97 122 255
-0.200745 0.296712 0.500122 -9.000033 -8.999958 82 97 122 255
0.253647 -0.254140 -0.455974 -8.999962 -9.000027 187 119 80 255
0.173574 -0.194237 -0.455974 -8.999969 -9.000022 187 119 80 255
0.387551 -0.401046 -0.455974 -8.999950 -9.000038 187 119 80 255
0.327648 -0.481120 -0.455974 -8.999955 -9.000046 187 119 80 255
-0.489189 0.512118 0.181196 -9.000050 -8.999949 82 97 122 255
-0.489189 0.512118 0.500122 -9.000059 -8.999942 82 97 122 255
-0.047112 -0.044624 0.198884 -9.000010 -8.999995 194 108 88 255
-0.047112 -0.044624 -0.161116 -8.999999 -9.000003 194 108 88 255
0.000756 0.019475 -0.161116 -8.999994 -8.999997 194 108 88 255
0.000756 0.019475 0.198884 -9.000006 -8.999989 194 108 88 255
0.000204 0.013706 0.181144 -9.000006 -8.999990 85 99 122 255
0.288648 -0.201700 0.181144 -8.999979 -9.000006 85 99 122 255
0.240780 -0.265799 0.181144 -8.999984 -9.000012 85 99 122 255
-0.047664 -0.050392 0.181144 -9.000010 -8.999996 85 98 121 255
-0.047112 -0.044624 -0.161116 -8.999999 -9.000003 89 101 126 255
0.000756 0.019475 -0.161116 -8.999994 -8.999997 89 101 126 255
-0.249002 0.257986 -0.150960 -9.000017 -8.999977 87 101 127 255
-0.296870 0.193888 -0.150960 -9.000021 -8.999984 86 101 126 255
0.488008 -0.523886 0.500472 -8.999971 -9.000026 86 98 122 255
0.199564 -0.308480 0.500472 -8.999997 -9.000010 86 98 122 255
0.007225 -0.006817 0.188969 -9.000005 -8.999991 90 102 126 255
0.055093 0.057281 0.188969 -9.000001 -8.999985 90 102 126 255
-0.233352 0.272687 0.188969 -9.000027 -8.999969 90 102 126 255
-0.281220 0.208589 0.188969 -9.000031 -8.999974 85 99 126 255
0.000204 0.013706 0.500070 -9.000015 -8.999982 85 99 122 255
0.288648 -0.201700 0.500070 -8.999990 -8.999999 85 99 122 255
0.393971 -0.615940 -0.070000 -8.999962 -9.000049 170 108 72 255
0.452516 -0.557395 -0.070000 -8.999956 -9.000043 172 113 80 255
-0.536398 0.456864 0.194816 -9.000054 -8.999954 88 100 126 255
-0.488530 0.520963 0.194816 -9.000050 -8.999948 88 100 126 255
-0.488530 0.520963 -0.165184 -9.000038 -8.999956 88 100 126 255
-0.536398 0.456864 -0.165184 -9.000043 -8.999963 88 100 126 255
-0.544098 0.445258 -0.536243 -9.000031 -8.999972 86 101 122 255
-0.063195 -0.082798 -0.455974 -8.999990 -9.000013 188 123 86 255
-0.296870 0.193888 -0.536293 -9.000010 -8.999993 86 101 126 255
-0.249002 0.257986 -0.536293 -9.000005 -8.999987 86 101 126 255
0.247432 -0.245993 -0.536276 -8.999960 -9.000028 85 101 122 255
0.199564 -0.310091 -0.140060 -8.999977 -9.000025 187 87 82 255
0.199564 -0.310091 -0.536276 -8.999965 -9.000033 187 87 82 255
0.247432 -0.245993 -0.536276 -8.999960 -9.000028 187 87 82 255
0.247432 -0.245993 -0.140060 -8.999973 -9.000018 187 87 82 255
-0.296870 0.193888 -0.140078 -9.000022 -8.999984 194 93 73 255
-0.249002 0.257986 -0.140078 -9.000017 -8.999977 195 95 75 255
-0.249002 0.257986 -0.536294 -9.000005 -8.999987 194 93 73 255
-0.296870 0.193888 -0.536294 -9.000010 -8.999993 194 93 73 255
0.000756 0.019475 0.198884 -9.000006 -8.999989 89 101 126 255
-0.047664 -0.053154 -0.536268 -8.999987 -9.000013 90 105 126 255
0.240780 -0.268560 -0.536268 -8.999961 -9.000030 90 105 126 255
-0.393302 0.220230 0.499344 -9.000051 -8.999968 187 119 80 255
0.240780 -0.265799 0.500070 -8.999993 -9.000005 85 99 122 255
-0.047664 -0.050392 0.500070 -9.000020 -8.999989 85 99 122 255
0.247432 -0.245993 -0.150942 -8.999972 -9.000018 85 101 122 255
-0.047112 -0.044624 0.198884 -9.000010 -8.999995 89 101 126 255
-0.393302 0.220230 -0.455974 -9.000020 -8.999990 187 119 80 255
-0.500013 0.500003 -0.529247 -9.000028 -8.999967 135 136 146 255
-0.499381 0.260004 -0.529247 -9.000028 -8.999989 139 140 149 255
-0.499381 0.260004 -0.489247 -9.000029 -8.999988 135 136 146 255
-0.500013 0.500003 -0.489247 -9.000029 -8.999966 135 136 146 255
-0.143268 -0.022896 -0.455974 -8.999998 -9.000010 187 119 80 255
-0.496230 0.509357 -0.536243 -9.000028 -8.999967 86 101 122 255
-0.300966 0.187101 0.500204 -9.000042 -8.999969 194 101 81 255
-0.300966 0.187101 0.140204 -9.000031 -8.999978 194 101 81 255
-0.253098 0.251200 0.140204 -9.000027 -8.999971 194 101 81 255
-0.253098 0.251200 0.500204 -9.000038 -8.999963 194 101 81 255
0.500000 -0.500000 -0.500000 -8.999939 -9.000047 171 109 72 255
-0.281220 0.208589 0.188969 -9.000031 -8.999974 194 99 72 255
-0.233352 0.272687 0.188969 -9.000027 -8.999969 194 111 91 255
-0.233352 0.272687 -0.171031 -9.000015 -8.999976 194 111 91 255
-0.281220 0.208589 -0.171031 -9.000019 -8.999983 194 99 72 255
-0.500013 0.500003 -0.529247 -9.000028 -8.999967 223 206 197 255
-0.500013 0.500003 -0.489247 -9.000029 -8.999966 223 206 197 255
3 0 1 2
3 3 4 5
3 6 7 8
3 9 10 11
4 12 13 14 15
4 16 17 18 19
4 20 21 22 23
4 24 25 26 27
4 28 29 30 31
4 26 25 32 33
4 34 35 36 37
4 38 39 30 29
4 40 41 42 43
4 44 45 46 47
4 9 8 7 10
4 48 49 50 51
4 52 53 54 55
4 56 57 58 59
4 60 61 62 63
4 64 65 66 67
4 68 69 70 71
4 72 73 36 35
4 74 2 0 75
4 76 77 78 79
4 51 50 21 20
4 80 81 82 83
4 84 85 86 87
4 88 89 90 91
4 92 93 94 95
4 96 97 81 80
4 98 99 100 101
4 102 103 104 105
4 106 107 88 91
4 108 64 67 109
4 76 110 111 77
4 70 112 113 71
4 114 115 116 117
4 118 19 18 119
3 74 0 2
3 0 74 75
4 60 120 121 61
4 122 123 90 89
4 113 112 124 125
4 120 126 127 121
4 128 129 130 131
4 69 124 112 70
4 132 133 134 135
4 136 137 85 84
4 48 51 20 23
4 105 104 138 139
4 24 27 140 141
4 142 143 144 145
4 42 41 143 142
4 41 40 144 143
4 133 132 146 147
4 43 42 142 145
4 148 149 118 119
4 149 16 19 118
4 7 6 11 10
4 150 151 152 153
4 154 96 80 83
4 155 38 29 28
4 153 98 101 150
4 156 157 103 102
4 12 115 114 13
4 14 117 116 15
4 158 110 76 79
4 152 99 98 153
4 159 160 161 162
4 163 164 165 166
4 119 18 17 148
4 103 157 138 104
4 100 151 150 101
4 85 137 167 86
4 168 73 72 169
4 67 66 170 109
4 140 33 32 141
4 107 122 89 88
4 171 147 146 172
4 50 49 22 21
4 110 158 173 111
4 136 84 87 174
4 135 134 171 172
4 99 152 151 100
4 170 66 65 175
4 176 177 178 179
4 91 90 123 106
4 31 30 39 180
4 102 105 139 156
4 168 169 34 37
4 87 86 167 174
4 97 181 82 81
4 169 72 35 34
4 127 126 63 62
4 27 26 33 140
4 77 111 173 78
4 83 82 181 154
4 13 114 117 14
4 134 133 147 171
4 182 183 184 185
4 63 126 120 60
4 186 1 0 75
4 181 97 96 154
4 175 108 109 170
4 187 188 189 190
4 9 191 192 8
4 125 68 71 113
4 186 74 2 1
3 6 8 192
4 148 17 16 149
3 9 11 191
4 61 121 127 62
4 180 155 28 31
