ply
format ascii 1.0
comment Created by Blender 2.83.20 - www.blender.org, source file: 'RoofTopMiddleBlue.blend'
element vertex 176
property float x
property float y
property float z
property uchar red
property uchar green
property uchar blue
property uchar alpha
element face 108
property list uchar uint vertex_indices
end_header
-0.512350 -0.516089 0.194816 83 98 122 255
-0.223906 -0.300683 0.194816 83 98 122 255
-0.271774 -0.236584 0.194816 83 98 122 255
-0.560218 -0.451990 0.194816 83 98 122 255
-0.393971 -0.615940 0.070000 170 108 72 255
-0.393970 -0.615940 -0.070000 170 108 72 255
0.112701 -0.127172 -0.070000 171 109 72 255
0.112701 -0.127172 0.070000 170 108 72 255
0.224062 -0.300683 -0.165184 83 98 122 255
0.512506 -0.516089 -0.165184 83 98 122 255
0.512506 -0.516089 0.194816 83 98 122 255
0.224062 -0.300683 0.194816 83 98 122 255
0.000360 0.010945 -0.499567 90 105 126 255
0.000360 0.010945 -0.140053 90 105 126 255
0.288804 -0.204461 -0.140053 90 105 126 255
0.288804 -0.204461 -0.499567 90 105 126 255
-0.000756 0.019475 0.198884 89 101 126 255
0.047112 -0.044624 0.198884 89 101 126 255
0.047112 -0.044624 -0.161116 89 101 126 255
-0.000756 0.019475 -0.161116 89 101 126 255
0.253803 -0.254140 -0.499041 187 119 80 255
0.173730 -0.194237 -0.499041 187 119 80 255
0.173730 -0.194237 0.487909 187 119 80 255
0.253803 -0.254140 0.487909 187 119 80 255
-0.000204 0.013706 0.140070 85 99 122 255
0.047664 -0.050392 0.140070 85 98 121 255
-0.240780 -0.265799 0.140070 85 99 122 255
-0.288648 -0.201700 0.140070 85 99 122 255
-0.467624 -0.460949 -0.499041 187 119 80 255
-0.467624 -0.460949 0.487909 187 119 80 255
-0.387550 -0.401046 0.487909 187 119 80 255
-0.387550 -0.401046 -0.499041 187 119 80 255
0.240936 -0.268560 -0.140053 91 106 127 255
-0.047508 -0.053154 -0.140053 85 104 126 255
-0.240780 -0.268560 -0.500024 90 105 126 255
0.047664 -0.053154 -0.500024 90 105 126 255
0.047664 -0.053154 -0.140053 85 104 126 255
-0.240780 -0.268560 -0.140053 91 106 127 255
0.047664 -0.050392 0.499870 85 99 122 255
-0.000204 0.013706 0.499870 85 99 122 255
-0.288648 -0.204461 -0.500024 90 105 126 255
-0.000204 0.010945 -0.500024 90 105 126 255
-0.240780 -0.265799 0.499870 85 99 122 255
0.257513 -0.271997 -0.161116 89 101 126 255
0.257513 -0.271997 0.198884 89 101 126 255
-0.046956 -0.044624 0.198884 89 101 126 255
-0.046956 -0.044624 -0.161116 89 101 126 255
-0.247432 -0.245993 -0.140060 187 87 82 255
-0.247432 -0.245993 -0.500037 187 87 82 255
-0.199564 -0.310091 -0.500037 187 87 82 255
-0.199564 -0.310091 -0.140060 187 87 82 255
0.240936 -0.265799 0.140070 85 99 122 255
0.288804 -0.201700 0.140070 85 99 122 255
0.288804 -0.201700 0.501146 85 99 122 255
0.240936 -0.265799 0.501146 85 99 122 255
-0.288648 -0.201700 0.499870 85 99 122 255
0.240936 -0.268560 -0.499567 90 105 126 255
-0.047508 -0.053154 -0.499567 90 105 126 255
0.199720 -0.308480 0.497958 187 107 88 255
0.199720 -0.308480 0.140472 187 107 88 255
0.247588 -0.244381 0.140471 187 107 88 255
0.247588 -0.244381 0.497958 190 116 99 255
0.493122 -0.516945 -0.070000 172 113 80 255
-0.011560 -0.036134 -0.070000 170 109 73 255
-0.011560 -0.036134 0.070000 170 108 72 255
0.493122 -0.516945 0.070000 174 116 85 255
-0.199564 -0.308480 0.140471 86 98 122 255
-0.199564 -0.308480 0.500271 86 98 122 255
-0.488008 -0.523886 0.500271 86 98 122 255
-0.488008 -0.523886 0.140471 87 98 122 255
-0.199564 -0.310091 -0.500037 85 101 122 255
-0.199564 -0.310091 -0.140060 85 101 122 255
-0.488008 -0.525497 -0.140060 85 101 122 255
-0.488008 -0.525497 -0.500037 85 101 122 255
0.305381 -0.207898 -0.161116 89 101 126 255
0.000912 0.019475 -0.161116 89 101 126 255
0.000912 0.019475 0.198884 89 101 126 255
0.305381 -0.207898 0.198884 89 101 126 255
-0.535876 -0.459787 0.500271 86 98 122 255
-0.535876 -0.459787 0.140471 86 98 122 255
-0.223906 -0.300683 0.194816 187 88 74 255
-0.271774 -0.236584 0.194816 187 88 74 255
-0.271774 -0.236584 -0.165184 187 88 74 255
-0.223906 -0.300683 -0.165184 187 88 74 255
-0.512350 -0.516089 -0.165184 83 98 122 255
-0.560218 -0.451990 -0.165184 83 98 122 255
-0.046956 -0.044624 0.198884 194 108 88 255
-0.046956 -0.044624 -0.161116 194 108 88 255
0.000912 0.019475 -0.161116 194 108 88 255
0.000912 0.019475 0.198884 194 108 88 255
-0.305225 -0.207898 -0.161116 89 101 126 255
-0.305225 -0.207898 0.198884 89 101 126 255
-0.257357 -0.271997 -0.161116 89 101 126 255
-0.535876 -0.461399 -0.140060 85 101 122 255
-0.535876 -0.461399 -0.500037 85 101 122 255
-0.288648 -0.204461 -0.140053 90 105 126 255
-0.000204 0.010945 -0.140053 90 105 126 255
-0.257357 -0.271997 0.198884 89 101 126 255
-0.047508 -0.053154 -0.140053 194 75 72 255
0.000360 0.010945 -0.140053 194 95 90 255
0.000360 0.010945 -0.499567 194 95 90 255
-0.047508 -0.053154 -0.499567 194 95 90 255
-0.247432 -0.244381 0.140471 86 98 122 255
0.327804 -0.481120 -0.499041 187 119 80 255
0.387707 -0.401046 -0.499041 187 119 80 255
0.467780 -0.460949 -0.499041 187 119 80 255
0.407878 -0.541022 -0.499041 188 123 86 255
0.467780 -0.460949 0.487909 187 119 80 255
0.387707 -0.401046 0.487909 187 119 80 255
0.327804 -0.481120 0.487909 187 119 80 255
0.407878 -0.541022 0.487909 188 122 85 255
-0.327648 -0.481120 0.487909 187 119 80 255
-0.327648 -0.481120 -0.499041 187 119 80 255
0.488164 -0.525497 -0.499574 85 101 122 255
0.488165 -0.525497 -0.140060 85 101 122 255
0.199720 -0.310091 -0.140060 85 101 122 255
0.199720 -0.310091 -0.499574 85 101 122 255
-0.407721 -0.541022 0.487909 188 122 85 255
0.560374 -0.451990 -0.165184 83 98 122 255
0.560374 -0.451990 0.194816 83 98 122 255
0.013706 -0.028177 0.070000 170 108 72 255
-0.492965 -0.516945 0.070000 174 116 85 255
-0.113671 -0.274310 -0.499041 187 119 80 255
-0.113671 -0.274310 0.487909 187 119 80 255
-0.193745 -0.334213 0.487909 188 122 85 255
-0.193745 -0.334213 -0.499041 188 123 86 255
0.000360 0.013706 0.501146 85 99 122 255
-0.047508 -0.050392 0.501146 85 99 122 255
0.247588 -0.245993 -0.499574 85 101 122 255
0.536033 -0.461399 -0.499574 85 101 122 255
0.488164 -0.523886 0.140472 87 98 122 255
0.536033 -0.459787 0.140472 86 98 122 255
0.536033 -0.459787 0.497958 86 98 122 255
0.488165 -0.523886 0.497958 86 98 122 255
0.000360 0.013706 0.140070 85 99 122 255
-0.047508 -0.050392 0.140070 85 98 121 255
0.271930 -0.236584 -0.165184 83 98 122 255
-0.492965 -0.516945 -0.070000 172 113 80 255
-0.247432 -0.245993 -0.140060 85 101 122 255
-0.247432 -0.245993 -0.500037 85 101 122 255
-0.223906 -0.300683 -0.165184 83 98 122 255
-0.407721 -0.541022 -0.499041 188 123 86 255
0.536033 -0.461399 -0.140060 85 101 122 255
0.394127 -0.615940 -0.070000 170 108 72 255
0.394127 -0.615940 0.070000 170 108 72 255
0.247588 -0.244381 0.140471 86 98 122 255
0.247588 -0.244381 0.497958 90 101 124 255
0.247588 -0.245993 -0.140060 85 101 122 255
0.247588 -0.245993 -0.140060 187 87 82 255
0.199720 -0.310091 -0.140060 187 87 82 255
0.199720 -0.310091 -0.499574 187 87 82 255
0.247588 -0.245993 -0.499574 187 87 82 255
-0.271774 -0.236584 -0.165184 83 98 122 255
0.013706 -0.028177 -0.070000 170 109 73 255
-0.110555 -0.135129 0.070000 170 108 72 255
-0.247432 -0.244381 0.500271 90 101 124 255
0.113828 -0.274310 0.487909 187 119 80 255
0.113828 -0.274310 -0.499041 187 119 80 255
-0.253647 -0.254140 -0.499041 187 119 80 255
-0.173574 -0.194237 -0.499041 187 119 80 255
0.193901 -0.334213 -0.499041 188 123 86 255
0.193901 -0.334213 0.487909 188 122 85 255
-0.110555 -0.135129 -0.070000 171 109 72 255
-0.253647 -0.254140 0.487909 187 119 80 255
-0.199564 -0.308480 0.500271 187 107 88 255
-0.199564 -0.308480 0.140471 187 107 88 255
-0.247432 -0.244381 0.140471 187 107 88 255
-0.247432 -0.244381 0.500271 190 116 99 255
0.199720 -0.308480 0.497958 86 98 122 255
-0.173574 -0.194237 0.487909 187 119 80 255
0.199720 -0.308480 0.140471 86 98 122 255
0.271930 -0.236584 0.194816 83 98 122 255
0.224062 -0.300683 0.194816 187 88 74 255
0.271930 -0.236584 0.194816 187 88 74 255
0.271930 -0.236584 -0.165184 187 88 74 255
0.224062 -0.300683 -0.165184 187 88 74 255
4 0 1 2 3
4 4 5 6 7
4 8 9 10 11
4 12 13 14 15
4 16 17 18 19
4 20 21 22 23
4 24 25 26 27
4 28 29 30 31
4 32 14 13 33
4 34 35 36 37
4 38 25 24 39
4 35 34 40 41
4 25 38 42 26
4 43 44 45 46
4 47 48 49 50
4 51 52 53 54
4 27 55 39 24
4 56 32 33 57
4 58 59 60 61
4 62 63 64 65
4 66 67 68 69
4 70 71 72 73
4 74 75 76 77
4 69 68 78 79
4 80 81 82 83
4 84 0 3 85
4 86 87 88 89
4 90 91 16 19
4 18 92 90 19
4 73 72 93 94
4 95 37 36 96
4 92 97 91 90
4 98 99 100 101
4 66 69 79 102
4 103 104 105 106
4 107 108 109 110
4 111 112 31 30
4 113 114 115 116
4 117 111 30 29
4 9 118 119 10
4 120 121 4 7
4 122 123 124 125
4 54 53 126 127
4 109 108 104 103
4 128 129 113 116
4 130 131 132 133
4 127 126 134 135
4 136 118 9 8
4 34 37 95 40
4 5 4 121 137
4 94 93 138 139
4 103 106 110 109
4 140 1 0 84
4 112 111 117 141
4 129 142 114 113
4 56 15 14 32
4 143 62 65 144
4 42 38 39 55
4 131 145 146 132
4 114 142 147 115
4 46 75 74 43
4 105 104 108 107
4 148 149 150 151
4 26 42 55 27
4 140 84 85 152
4 5 137 153 6
4 153 120 7 6
4 64 154 144 65
4 137 121 120 153
4 40 95 96 41
4 79 78 155 102
4 156 22 21 157
4 122 125 158 159
4 157 160 161 156
4 141 117 29 28
4 63 162 154 64
4 68 67 155 78
4 125 124 163 158
4 18 17 97 92
4 164 165 166 167
4 160 20 23 161
4 72 71 138 93
4 139 70 73 94
4 129 128 147 142
4 135 51 54 127
4 133 132 146 168
4 143 162 63 62
4 112 141 28 31
4 57 12 15 56
4 36 35 41 96
4 97 17 16 91
4 77 76 45 44
4 161 23 22 156
4 21 20 160 157
4 123 122 159 169
4 52 134 126 53
4 170 130 133 168
4 135 134 52 51
4 136 171 119 118
4 158 163 169 159
4 124 123 169 163
4 43 74 77 44
4 106 105 107 110
4 10 119 171 11
4 145 131 130 170
4 154 162 143 144
4 172 173 174 175
4 85 3 2 152
