ply
format ascii 1.0
comment Created by Blender 2.83.20 - www.blender.org, source file: 'BlueTopMiddleRoof90degreecorner.blend'
element vertex 248
property float x
property float y
property float z
property uchar red
property uchar green
property uchar blue
property uchar alpha
element face 153
property list uchar uint vertex_indices
end_header
-0.166662 -0.271997 0.277816 194 108 88 255
-0.161945 -0.207898 0.325767 194 108 88 255
-0.181408 -0.271997 0.277899 194 108 88 255
-0.166651 -0.207898 0.325684 89 101 126 255
-0.181467 0.019475 0.021298 89 101 126 255
-0.161945 -0.207898 0.325767 89 101 126 255
0.000175 -0.044624 0.034084 89 101 126 255
-0.181527 -0.271997 -0.236971 89 101 126 255
0.265333 -0.271997 -0.237054 89 101 126 255
-0.257357 -0.271997 0.198884 89 101 126 255
0.047112 -0.044624 0.198884 89 101 126 255
-0.000756 0.019475 0.198884 89 101 126 255
-0.302498 -0.214466 0.180874 89 101 126 255
-0.257357 -0.271997 0.137069 89 101 126 255
0.047112 -0.044624 0.020975 89 101 126 255
0.047112 -0.044624 0.198884 89 101 126 255
-0.257357 -0.271997 0.198884 89 101 126 255
-0.524495 -0.204461 0.309269 90 105 126 255
-0.160337 -0.204461 0.309185 90 105 126 255
-0.160404 0.010945 0.020741 90 105 126 255
-0.524562 0.010945 0.020825 90 105 126 255
0.271930 -0.236584 0.194816 83 98 122 255
0.560374 -0.451990 0.194816 83 98 122 255
0.560374 -0.451990 -0.165184 83 98 122 255
0.271930 -0.236584 -0.165184 83 98 122 255
-0.158286 -0.199443 0.494660 131 91 72 255
-0.475730 -0.499101 0.498865 165 114 90 255
-0.475730 -0.500148 0.418872 165 114 90 255
-0.158286 -0.200491 0.414667 131 91 72 255
-0.166651 -0.207898 0.325684 194 108 88 255
-0.166662 -0.271997 0.277816 89 101 126 255
0.000284 -0.044624 -0.026653 89 101 126 255
0.000295 0.019475 0.021215 89 101 126 255
0.151568 -0.194237 -0.153338 187 119 80 255
0.151582 -0.274310 -0.093435 187 119 80 255
0.151563 -0.334213 -0.173509 188 122 85 255
0.151550 -0.254140 -0.233411 187 119 80 255
0.237134 -0.194237 0.193966 187 119 80 255
0.237120 -0.274310 0.134064 187 119 80 255
-0.520325 -0.274310 0.134292 187 119 80 255
-0.520311 -0.194237 0.194194 187 119 80 255
0.467780 -0.460949 0.451603 187 119 80 255
0.407878 -0.541022 0.451603 188 122 85 255
0.407878 -0.541022 -0.390068 188 123 86 255
0.467780 -0.460949 -0.390068 187 119 80 255
0.467652 -0.541022 0.428113 188 122 85 255
0.421557 -0.481120 0.348040 187 119 80 255
0.421571 -0.401046 0.407943 187 119 80 255
0.467666 -0.460949 0.488016 187 119 80 255
0.237139 -0.334213 0.214137 188 122 85 255
-0.520306 -0.334213 0.214365 188 123 86 255
0.237153 -0.254140 0.274039 187 119 80 255
-0.520293 -0.254140 0.274267 187 119 80 255
-0.520410 -0.254140 -0.233183 187 119 80 255
-0.520396 -0.334213 -0.173281 188 123 86 255
-0.467825 -0.401046 -0.367087 187 119 80 255
-0.467812 -0.481120 -0.307184 187 119 80 255
0.444119 -0.481120 -0.307412 187 119 80 255
0.444105 -0.401046 -0.367315 187 119 80 255
-0.185664 -0.451990 -0.539831 83 98 122 255
-0.185653 -0.516089 -0.491963 83 98 122 255
-0.185587 -0.300683 -0.203519 83 98 122 255
-0.185598 -0.236584 -0.251387 83 98 122 255
-0.302498 -0.214466 0.180874 89 101 126 255
-0.305225 -0.207898 0.137069 89 101 126 255
-0.450184 -0.541022 0.428341 188 123 86 255
-0.450203 -0.481120 0.348268 187 119 80 255
0.387707 -0.401046 0.451603 187 119 80 255
0.327804 -0.481120 0.451603 187 119 80 255
0.247588 -0.245993 -0.140060 85 101 122 255
0.247588 -0.245993 -0.212953 85 101 122 255
0.199720 -0.310091 -0.212953 85 101 122 255
0.199720 -0.310091 -0.140060 85 101 122 255
0.174402 -0.236584 -0.251470 83 98 122 255
0.174336 -0.451990 -0.539914 83 98 122 255
-0.160470 -0.204461 -0.268267 90 105 126 255
-0.160459 -0.268560 -0.220399 91 106 127 255
-0.520459 -0.268560 -0.220316 90 105 126 255
-0.520470 -0.204461 -0.268184 90 105 126 255
-0.450189 -0.401046 0.408171 187 119 80 255
-0.450170 -0.460949 0.488244 187 119 80 255
0.173730 -0.194237 -0.141289 187 119 80 255
0.173730 -0.194237 0.487909 187 119 80 255
0.253803 -0.254140 0.487909 187 119 80 255
0.253803 -0.254140 -0.141289 187 119 80 255
-0.160404 0.010945 0.020177 90 105 126 255
-0.520404 0.010945 0.020260 90 105 126 255
0.247588 -0.244381 0.140471 86 98 122 255
0.247588 -0.244381 0.556250 90 101 124 255
0.536032 -0.459787 0.556250 86 98 122 255
0.536033 -0.459787 0.140471 86 98 122 255
-0.113671 -0.274310 -0.219587 187 119 80 255
-0.193745 -0.334213 -0.219587 188 123 86 255
-0.253647 -0.254140 -0.219587 187 119 80 255
-0.173574 -0.194237 -0.219587 187 119 80 255
0.047664 -0.050392 0.140070 85 98 121 255
0.047664 -0.050392 0.555848 85 99 122 255
-0.240780 -0.265799 0.555848 85 99 122 255
-0.240780 -0.265799 0.140070 85 99 122 255
-0.524506 -0.268560 0.261401 90 105 126 255
-0.160348 -0.268560 0.261317 91 106 127 255
0.288804 -0.201700 0.558176 85 99 122 255
0.000360 0.013706 0.558176 85 99 122 255
-0.047508 -0.050392 0.558176 85 99 122 255
0.240936 -0.265799 0.558176 85 99 122 255
-0.517998 -0.459787 0.354522 86 98 122 255
-0.488008 -0.523886 0.347902 87 98 122 255
-0.488008 -0.523886 0.556250 86 98 122 255
-0.517998 -0.459787 0.562870 86 98 122 255
0.113828 -0.274310 -0.141289 187 119 80 255
0.113828 -0.274310 0.487909 187 119 80 255
-0.160535 -0.461399 -0.515495 85 101 122 255
-0.160524 -0.525497 -0.467627 85 101 122 255
-0.520524 -0.525497 -0.467544 85 101 122 255
-0.520535 -0.461399 -0.515412 85 101 122 255
-0.407721 -0.541022 -0.416883 188 123 86 255
-0.407721 -0.541022 0.421236 188 122 85 255
-0.467624 -0.460949 0.421236 187 119 80 255
-0.467624 -0.460949 -0.416883 187 119 80 255
-0.160393 -0.053154 0.068045 85 104 126 255
0.174347 -0.516089 -0.492046 83 98 122 255
-0.247432 -0.245993 -0.140060 187 87 82 255
-0.247432 -0.245993 -0.210585 187 87 82 255
-0.199564 -0.310091 -0.210585 187 87 82 255
-0.199564 -0.310091 -0.140060 187 87 82 255
-0.520393 -0.053154 0.068128 90 105 126 255
-0.327648 -0.481120 -0.416883 187 119 80 255
-0.387550 -0.401046 -0.416883 187 119 80 255
0.327804 -0.481120 -0.390068 187 119 80 255
-0.327648 -0.481120 0.421236 187 119 80 255
-0.387550 -0.401046 0.421236 187 119 80 255
-0.000204 0.013706 0.555848 85 99 122 255
-0.288648 -0.201700 0.555848 85 99 122 255
-0.181468 0.019475 0.019630 89 101 126 255
-0.181538 -0.207898 -0.284839 89 101 126 255
-0.181457 -0.044624 0.067498 89 101 126 255
-0.047508 -0.050392 0.140070 85 98 121 255
0.240936 -0.265799 0.140070 85 99 122 255
0.288804 -0.201700 0.140070 85 99 122 255
0.444100 -0.541022 -0.387485 188 122 85 255
0.444087 -0.460949 -0.447388 187 119 80 255
0.230074 -0.244381 0.267808 190 116 99 255
0.120178 -0.244381 0.267904 187 107 88 255
0.120167 -0.308480 0.220036 187 107 88 255
0.230063 -0.308480 0.219940 187 107 88 255
-0.467844 -0.460949 -0.447160 187 119 80 255
-0.467830 -0.541022 -0.387257 188 123 86 255
-0.373788 -0.461399 0.556413 85 101 122 255
-0.373799 -0.525498 0.508545 85 101 122 255
-0.160365 -0.310091 0.220101 85 101 122 255
-0.160354 -0.245993 0.267969 85 101 122 255
0.387707 -0.401046 -0.390068 187 119 80 255
-0.520391 -0.194237 -0.153110 187 119 80 255
-0.520377 -0.274310 -0.093207 187 119 80 255
0.120063 -0.244381 -0.227116 86 98 122 255
0.119997 -0.459788 -0.515560 86 98 122 255
0.120008 -0.523886 -0.467692 87 98 122 255
0.120074 -0.308480 -0.179248 86 98 122 255
-0.181478 -0.044624 -0.026570 89 101 126 255
0.512506 -0.516089 -0.165184 83 98 122 255
0.224062 -0.300683 -0.165184 83 98 122 255
-0.113671 -0.274310 0.487909 187 119 80 255
-0.193745 -0.334213 0.487909 188 122 85 255
-0.090354 -0.028177 0.006815 170 109 73 255
0.049646 -0.028177 0.006783 170 108 72 255
0.049623 -0.127172 -0.092212 170 108 72 255
-0.090377 -0.127172 -0.092180 171 109 72 255
0.000360 0.013706 0.140070 85 99 122 255
-0.160468 -0.245993 -0.227051 85 101 122 255
-0.160457 -0.310091 -0.179183 85 101 122 255
-0.288648 -0.201700 0.140070 85 99 122 255
-0.520354 -0.245993 0.268052 187 87 82 255
-0.520365 -0.310091 0.220184 187 87 82 255
-0.160365 -0.310091 0.220101 187 87 82 255
-0.160354 -0.245993 0.267969 187 87 82 255
0.193901 -0.334213 0.487909 188 122 85 255
0.193901 -0.334213 -0.141289 188 123 86 255
0.252408 -0.308480 -0.179344 187 107 88 255
0.120074 -0.308480 -0.179248 187 107 88 255
0.120063 -0.244381 -0.227116 187 107 88 255
0.252397 -0.244381 -0.227212 190 116 99 255
0.488164 -0.523886 0.140472 87 98 122 255
0.488165 -0.523886 0.556250 86 98 122 255
0.199720 -0.308480 0.556250 86 98 122 255
0.199720 -0.308480 0.140471 86 98 122 255
0.275502 -0.207898 -0.234267 89 101 126 255
0.257513 -0.271997 -0.234267 89 101 126 255
-0.046956 -0.044624 0.019366 89 101 126 255
0.000912 0.019475 0.019366 89 101 126 255
-0.520365 -0.310091 0.220184 85 101 122 255
-0.520299 -0.525498 0.508628 85 101 122 255
-0.520288 -0.461399 0.556496 85 101 122 255
-0.160468 -0.245993 -0.227051 187 87 82 255
-0.520468 -0.245993 -0.226968 187 87 82 255
-0.520457 -0.310091 -0.179100 187 87 82 255
-0.160457 -0.310091 -0.179183 187 87 82 255
-0.199564 -0.308480 0.140471 86 98 122 255
-0.247432 -0.244381 0.140471 86 98 122 255
-0.181467 0.019475 0.021298 89 101 126 255
-0.181478 -0.044624 -0.026570 89 101 126 255
-0.181408 -0.271997 0.277899 89 101 126 255
-0.161945 -0.207898 0.325767 89 101 126 255
0.305381 -0.207898 0.198884 89 101 126 255
0.257513 -0.271997 0.198884 89 101 126 255
0.000164 0.019475 0.019547 89 101 126 255
-0.046956 -0.044624 0.198884 89 101 126 255
-0.173574 -0.194237 0.487909 187 119 80 255
0.000912 0.019475 0.198884 89 101 126 255
-0.160415 -0.053154 -0.027127 85 104 126 255
-0.520468 -0.245993 -0.226968 85 101 122 255
-0.520457 -0.310091 -0.179100 85 101 122 255
0.512506 -0.516089 0.194816 83 98 122 255
0.224062 -0.300683 0.194816 83 98 122 255
0.535775 -0.459787 -0.515656 86 98 122 255
0.494882 -0.523886 -0.467788 86 98 122 255
-0.524573 -0.053154 -0.027043 90 105 126 255
-0.199564 -0.308480 0.556250 86 98 122 255
-0.247432 -0.244381 0.556250 90 101 124 255
0.536032 -0.461399 -0.140060 85 101 122 255
0.488164 -0.525497 -0.140060 85 101 122 255
0.488165 -0.525497 -0.455120 85 101 122 255
0.536033 -0.461399 -0.500060 85 101 122 255
-0.253647 -0.254140 0.487909 187 119 80 255
0.278131 -0.207898 -0.258217 89 101 126 255
0.252408 -0.308480 -0.179344 86 98 122 255
-0.000204 0.013706 0.140070 85 99 122 255
-0.000835 -0.038746 0.495160 223 206 197 255
-0.499995 -0.499998 0.495160 225 209 200 255
-0.499995 -0.499998 0.535160 223 206 197 255
-0.000835 -0.038746 0.535160 223 206 197 255
-0.000756 0.019475 0.020975 89 101 126 255
-0.000756 0.019475 0.198884 89 101 126 255
0.224062 -0.300683 0.194816 187 88 74 255
0.224062 -0.300683 -0.165184 187 88 74 255
0.271930 -0.236584 -0.165184 187 88 74 255
0.271930 -0.236584 0.194816 187 88 74 255
-0.181408 -0.271997 0.277899 89 101 126 255
0.252397 -0.244381 -0.227212 90 101 124 255
-0.520354 -0.245993 0.268052 85 101 122 255
-0.185598 -0.236584 -0.251387 187 88 74 255
-0.185587 -0.300683 -0.203519 187 88 74 255
0.174413 -0.300683 -0.203602 187 88 74 255
0.174402 -0.236584 -0.251470 187 88 74 255
0.174413 -0.300683 -0.203602 83 98 122 255
-0.000514 -0.038746 0.495160 223 206 197 255
-0.000514 -0.038746 0.535160 223 206 197 255
0.500151 -0.499998 0.535160 223 206 197 255
0.500151 -0.499998 0.495160 225 209 200 255
3 0 1 2
3 3 4 5
3 6 7 8
4 9 10 11 12
4 13 14 15 16
4 17 18 19 20
4 21 22 23 24
4 25 26 27 28
3 0 29 1
4 3 30 31 32
4 33 34 35 36
4 37 38 39 40
4 41 42 43 44
4 45 46 47 48
4 39 38 49 50
4 50 49 51 52
4 53 36 35 54
4 55 56 57 58
4 59 60 61 62
4 13 16 63 64
4 65 66 46 45
4 39 50 52 40
4 67 68 42 41
4 69 70 71 72
4 73 74 59 62
4 75 76 77 78
4 79 66 65 80
4 81 82 83 84
4 85 75 78 86
4 87 88 89 90
4 91 92 93 94
4 95 96 97 98
4 99 100 18 17
4 101 102 103 104
4 105 106 107 108
4 81 109 110 82
4 111 112 113 114
4 115 116 117 118
4 85 119 76 75
4 74 120 60 59
4 121 122 123 124
4 76 119 125 77
4 126 115 118 127
4 42 68 128 43
4 116 129 130 117
4 97 96 131 132
4 133 134 7 135
4 104 103 136 137
4 101 104 137 138
4 58 57 139 140
4 86 125 119 85
4 141 142 143 144
4 145 146 56 55
4 147 148 149 150
4 151 128 68 67
4 152 153 34 33
4 154 155 156 157
4 32 31 158 4
4 54 35 34 153
4 145 140 139 146
4 24 23 159 160
4 146 139 57 56
4 91 161 162 92
4 58 140 145 55
4 47 46 66 79
4 163 164 165 166
4 167 136 103 102
4 168 169 112 111
4 98 97 132 170
4 171 172 173 174
4 175 110 109 176
4 33 36 53 152
4 177 178 179 180
4 181 182 183 184
4 185 186 187 188
4 189 149 148 190
4 190 148 147 191
4 40 52 51 37
4 80 48 47 79
3 3 32 4
4 192 193 194 195
4 196 106 105 197
4 198 199 200 201
4 185 202 203 186
4 133 135 6 204
4 203 205 187 186
4 87 184 183 88
4 161 91 94 206
4 188 187 205 207
4 18 100 208 19
4 168 111 114 209
4 113 112 169 210
4 211 212 160 159
4 155 213 214 156
4 19 208 215 20
4 108 107 216 217
4 218 219 220 221
4 22 211 159 23
4 162 161 206 222
4 134 223 8 7
4 156 214 224 157
4 188 207 202 185
4 130 129 126 127
4 87 90 181 184
4 65 45 48 80
4 89 182 181 90
4 215 208 100 99
4 44 43 128 151
4 82 110 175 83
4 22 21 212 211
4 225 95 98 170
4 226 227 228 229
4 126 129 116 115
4 15 14 230 231
4 92 162 222 93
4 83 175 176 84
4 88 183 182 89
4 225 170 132 131
4 96 95 225 131
4 14 13 64 230
4 232 233 234 235
4 158 31 30 236
4 105 108 217 197
4 219 72 71 220
4 237 224 214 213
4 238 189 190 191
4 84 176 109 81
4 239 240 241 242
4 138 137 136 167
4 51 49 38 37
4 151 67 41 44
4 93 222 206 94
4 78 77 125 86
4 218 69 72 219
4 120 243 61 60
4 118 117 130 127
4 204 223 134 133
4 64 63 231 230
4 244 245 246 247
4 223 204 6 8
4 70 69 218 221
4 152 53 54 153
4 74 73 243 120
4 114 113 210 209
4 20 215 99 17
4 216 196 197 217
4 238 191 147 150
4 237 213 155 154
4 106 196 216 107
4 202 207 205 203
3 6 135 7
4 70 221 220 71
4 102 101 138 167
