ply
format ascii 1.0
comment Created by Blender 2.83.20 - www.blender.org, source file: 'BluePyramidRoof.blend'
element vertex 194
property float x
property float y
property float z
property uchar red
property uchar green
property uchar blue
property uchar alpha
element face 121
property list uchar uint vertex_indices
end_header
-0.293502 -0.230865 0.308441 92 107 126 255
-0.008340 0.019475 0.014723 92 107 126 255
-0.291936 -0.230864 -0.261054 92 107 126 255
-0.185676 -0.236584 -0.251564 83 98 122 255
0.174324 -0.236584 -0.251564 83 98 122 255
0.174324 -0.451990 -0.540008 83 98 122 255
-0.185676 -0.451990 -0.540008 83 98 122 255
-0.327648 -0.481120 -0.419890 187 119 80 255
-0.407721 -0.541022 -0.419890 188 123 86 255
-0.467624 -0.460949 -0.419890 187 119 80 255
-0.387550 -0.401046 -0.419890 187 119 80 255
-0.160552 -0.525497 -0.467798 85 101 122 255
-0.160552 -0.310091 -0.179354 85 101 122 255
-0.238638 -0.310091 -0.179354 85 101 122 255
-0.476745 -0.525498 -0.467798 85 101 122 255
-0.001990 0.019475 0.014723 89 101 126 255
0.293711 -0.230864 -0.261978 89 101 126 255
0.257513 -0.271997 -0.237132 89 101 126 255
-0.046956 -0.044624 0.014723 89 101 126 255
-0.488008 -0.523886 0.140471 87 98 122 255
-0.199564 -0.308480 0.140471 86 98 122 255
-0.199564 -0.308480 0.257898 86 98 122 255
-0.488008 -0.523886 0.509740 86 98 122 255
-0.238638 -0.245993 -0.227222 85 101 122 255
-0.520552 -0.461399 -0.515666 85 101 122 255
0.235691 -0.308480 0.219931 86 98 122 255
0.120252 -0.308480 0.219931 86 98 122 255
0.120252 -0.244381 0.267799 86 98 122 255
0.235691 -0.244381 0.267799 90 101 124 255
0.247588 -0.245993 -0.221480 85 101 122 255
0.536033 -0.461399 -0.500060 85 101 122 255
0.496470 -0.525497 -0.454145 85 101 122 255
0.199720 -0.310091 -0.221480 85 101 122 255
-0.488008 -0.525497 -0.473101 85 101 122 255
-0.488008 -0.525497 -0.140060 85 101 122 255
-0.535876 -0.461399 -0.140060 85 101 122 255
-0.525740 -0.461399 -0.509406 85 101 122 255
-0.185403 -0.300683 0.244273 83 98 122 255
-0.185403 -0.516089 0.532717 83 98 122 255
-0.185403 -0.451990 0.580585 83 98 122 255
-0.185403 -0.236584 0.292141 83 98 122 255
0.488164 -0.523886 0.140472 87 98 122 255
0.491484 -0.523886 0.504084 86 98 122 255
0.199720 -0.308480 0.257898 86 98 122 255
0.199720 -0.308480 0.140471 86 98 122 255
0.235418 -0.244381 -0.227222 90 101 124 255
0.535758 -0.459787 -0.515666 86 98 122 255
0.119980 -0.459787 -0.515666 86 98 122 255
0.119980 -0.244381 -0.227222 86 98 122 255
-0.327648 -0.481120 0.462000 187 119 80 255
-0.407721 -0.541022 0.462000 188 122 85 255
-0.467624 -0.460949 -0.419890 85 91 122 255
-0.467624 -0.460949 0.462000 85 91 122 255
-0.387550 -0.401046 0.462000 85 91 122 255
-0.387550 -0.401046 -0.419890 85 91 122 255
-0.247432 -0.244381 0.257898 90 101 124 255
-0.247432 -0.244381 0.140471 86 98 122 255
0.174597 -0.451990 0.580585 83 98 122 255
0.174597 -0.236584 0.292141 83 98 122 255
-0.512350 -0.516089 -0.165184 83 98 122 255
-0.512350 -0.516089 0.194816 83 98 122 255
-0.560218 -0.451990 0.194816 83 98 122 255
-0.560218 -0.451990 -0.165184 83 98 122 255
-0.223906 -0.300683 -0.165184 83 98 122 255
-0.223906 -0.300683 0.194816 83 98 122 255
0.498994 -0.523886 -0.463721 86 98 122 255
0.119980 -0.523886 -0.467798 87 98 122 255
0.247588 -0.244381 0.257898 90 101 124 255
0.539361 -0.459787 0.556250 86 98 122 255
0.293711 -0.230864 0.310590 89 101 126 255
0.257513 -0.271997 0.275843 89 101 126 255
0.235418 -0.308480 -0.179354 86 98 122 255
0.119980 -0.308480 -0.179354 86 98 122 255
-0.280818 -0.230865 0.313968 92 102 125 255
0.281487 -0.230864 0.313968 92 102 125 255
-0.003740 0.019616 0.018622 92 102 125 255
-0.006040 0.019616 0.018622 92 102 125 255
-0.008033 0.019475 0.017218 92 107 126 255
0.174324 -0.516089 -0.492140 83 98 122 255
0.174324 -0.300683 -0.203696 83 98 122 255
-0.185676 -0.300683 -0.203696 83 98 122 255
-0.185676 -0.516089 -0.492140 83 98 122 255
0.437818 -0.541022 0.428088 188 122 85 255
0.437818 -0.481120 0.348015 187 119 80 255
0.437818 -0.401046 0.407917 187 119 80 255
0.437818 -0.460949 0.487991 187 119 80 255
-0.387550 -0.401046 0.462000 187 119 80 255
-0.467624 -0.460949 0.462000 187 119 80 255
-0.160552 -0.245993 -0.227222 85 101 122 255
-0.160552 -0.461399 -0.515666 85 101 122 255
0.255507 -0.271997 0.277724 92 102 125 255
0.004525 -0.044624 -0.026745 92 102 125 255
0.536033 -0.461399 -0.140060 85 101 122 255
0.488165 -0.525497 -0.140060 85 101 122 255
0.174597 -0.516089 0.532717 83 98 122 255
-0.003435 0.019475 0.013985 88 104 126 255
0.004252 -0.044624 0.067322 88 104 126 255
0.248125 -0.271997 -0.237147 88 104 126 255
0.280611 -0.230864 -0.273246 88 104 126 255
-0.005734 0.019475 0.013985 88 104 126 255
-0.277073 -0.230864 -0.273246 88 104 126 255
-0.254655 -0.271997 -0.237147 88 104 126 255
-0.005734 -0.044624 0.067322 88 104 126 255
0.437545 -0.541022 -0.387512 188 122 85 255
0.437546 -0.481120 -0.307438 187 119 80 255
-0.428625 -0.481120 -0.307438 187 119 80 255
-0.428625 -0.541022 -0.387511 188 123 86 255
0.120252 -0.523886 0.508375 87 98 122 255
0.489845 -0.523886 0.508375 86 98 122 255
-0.005461 -0.044624 -0.026745 92 102 125 255
-0.251858 -0.271997 0.277724 92 102 125 255
-0.428352 -0.481120 0.348015 187 119 80 255
-0.428352 -0.401046 0.407918 187 119 80 255
0.467780 -0.460949 -0.419890 187 119 80 255
0.407878 -0.541022 -0.419890 188 123 86 255
0.327804 -0.481120 -0.419890 187 119 80 255
0.387707 -0.401046 -0.419890 187 119 80 255
-0.428352 -0.541022 0.428088 188 123 86 255
0.174597 -0.300683 0.244273 83 98 122 255
-0.428352 -0.460949 0.487991 187 119 80 255
-0.003435 0.019475 0.013985 89 101 126 255
-0.005734 0.019475 0.013985 89 101 126 255
-0.005734 -0.044624 0.067322 89 101 126 255
0.004252 -0.044624 0.067322 89 101 126 255
-0.257357 -0.271997 0.275591 92 107 126 255
0.047112 -0.044624 0.017218 92 107 126 255
0.248125 -0.271997 -0.237147 89 101 126 255
-0.254655 -0.271997 -0.237147 89 101 126 255
0.047112 -0.044624 0.014723 92 107 126 255
-0.255729 -0.271997 -0.237227 92 107 126 255
-0.255729 -0.271997 -0.237227 89 101 126 255
0.047112 -0.044624 0.014723 89 101 126 255
0.047112 -0.044624 0.017218 89 101 126 255
-0.257357 -0.271997 0.275591 89 101 126 255
0.437545 -0.401046 -0.367341 187 119 80 255
-0.428625 -0.401046 -0.367341 187 119 80 255
0.120252 -0.459787 0.556243 86 98 122 255
0.533768 -0.459787 0.556243 86 98 122 255
0.536033 -0.459787 0.140472 86 98 122 255
-0.238365 -0.245993 0.267799 85 101 122 255
-0.238365 -0.310091 0.219931 85 101 122 255
-0.479027 -0.525498 0.508375 85 101 122 255
-0.520280 -0.461399 0.556243 85 101 122 255
-0.271774 -0.236584 -0.165184 83 98 122 255
-0.535876 -0.459787 0.556250 86 98 122 255
-0.535876 -0.459787 0.140471 86 98 122 255
-0.247432 -0.245993 -0.221480 85 101 122 255
-0.199564 -0.310091 -0.221480 85 101 122 255
0.327804 -0.481120 0.462000 187 119 80 255
0.387707 -0.401046 0.462000 187 119 80 255
0.467780 -0.460949 0.462000 187 119 80 255
0.407878 -0.541022 0.462000 188 122 85 255
-0.199564 -0.310091 -0.140060 85 101 122 255
-0.247432 -0.245993 -0.140060 85 101 122 255
-0.008033 0.019475 0.017218 89 101 126 255
-0.008340 0.019475 0.014723 89 101 126 255
-0.001990 0.019475 0.017218 89 101 126 255
-0.046956 -0.044624 0.017218 89 101 126 255
-0.160280 -0.310091 0.219931 85 101 122 255
-0.160280 -0.525498 0.508375 85 101 122 255
-0.160279 -0.461399 0.556243 85 101 122 255
-0.160280 -0.245993 0.267799 85 101 122 255
0.247588 -0.245993 -0.140060 85 101 122 255
0.199720 -0.310091 -0.140060 85 101 122 255
-0.428625 -0.460949 -0.447414 187 119 80 255
0.247588 -0.244381 0.140471 86 98 122 255
0.271930 -0.236584 -0.165184 83 98 122 255
0.560374 -0.451990 -0.165184 83 98 122 255
0.512506 -0.516089 -0.165184 83 98 122 255
0.224062 -0.300683 -0.165184 83 98 122 255
0.512506 -0.516089 0.194816 83 98 122 255
0.224062 -0.300683 0.194816 83 98 122 255
-0.271774 -0.236584 0.194816 83 98 122 255
-0.003740 0.019616 0.018622 89 101 126 255
0.004525 -0.044624 -0.026745 89 101 126 255
-0.005461 -0.044624 -0.026745 89 101 126 255
-0.006040 0.019616 0.018622 89 101 126 255
-0.251858 -0.271997 0.277724 89 101 126 255
0.255507 -0.271997 0.277724 89 101 126 255
-0.428352 -0.401046 0.407918 85 91 122 255
-0.428352 -0.460949 0.487991 85 91 122 255
0.437818 -0.460949 0.487990 85 91 122 255
0.437818 -0.401046 0.407917 85 91 122 255
0.387707 -0.401046 0.462000 85 91 122 255
0.467780 -0.460949 0.462000 85 91 122 255
0.467780 -0.460949 -0.419890 85 91 122 255
0.387707 -0.401046 -0.419890 85 91 122 255
0.271930 -0.236584 0.194816 83 98 122 255
0.560374 -0.451990 0.194816 83 98 122 255
0.437545 -0.401046 -0.367341 85 91 122 255
0.437545 -0.460949 -0.447414 85 91 122 255
-0.428625 -0.460949 -0.447414 85 91 122 255
-0.428625 -0.401046 -0.367340 85 91 122 255
0.437545 -0.460949 -0.447414 187 119 80 255
3 0 1 2
4 3 4 5 6
4 7 8 9 10
4 11 12 13 14
4 15 16 17 18
4 19 20 21 22
4 23 24 14 13
4 25 26 27 28
4 29 30 31 32
4 33 34 35 36
4 37 38 39 40
4 41 42 43 44
4 45 46 47 48
4 7 49 50 8
4 51 52 53 54
4 55 21 20 56
4 39 57 58 40
4 59 60 61 62
4 63 64 60 59
4 47 46 65 66
4 67 43 42 68
4 16 69 70 17
4 66 65 71 72
4 73 74 75 76
3 0 77 1
4 78 79 80 81
4 82 83 84 85
4 50 49 86 87
4 23 88 89 24
4 90 91 75 74
4 45 71 65 46
4 92 93 31 30
4 39 38 94 57
4 95 96 97 98
4 99 100 101 102
4 103 104 105 106
4 107 26 25 108
4 76 109 110 73
4 83 111 112 84
4 88 12 11 89
4 113 114 115 116
4 111 83 82 117
4 58 118 37 40
4 117 82 85 119
4 120 121 122 123
4 124 125 77 0
4 126 123 122 127
4 1 128 129 2
4 130 131 132 133
4 134 135 105 104
4 88 23 13 12
4 4 79 78 5
4 89 11 14 24
4 136 137 28 27
4 138 68 42 41
4 139 140 141 142
4 63 59 62 143
4 22 21 55 144
4 145 19 22 144
4 3 80 79 4
4 146 147 33 36
4 145 144 55 56
4 86 49 7 10
4 116 115 148 149
4 150 149 148 151
4 151 148 115 114
4 34 152 153 35
4 153 152 147 146
4 154 132 131 155
4 156 157 70 69
4 2 129 124 0
4 146 36 35 153
4 17 70 157 18
4 95 98 100 99
4 94 118 58 57
4 27 26 107 136
4 48 47 66 72
4 136 107 108 137
4 108 25 28 137
4 140 158 159 141
4 139 142 160 161
4 162 163 93 92
4 147 152 34 33
4 141 159 160 142
4 164 106 105 135
4 29 162 92 30
4 67 68 138 165
4 150 151 114 113
4 3 6 81 80
4 161 158 140 139
4 166 167 168 169
4 170 171 169 168
4 60 64 172 61
4 173 174 175 176
4 100 98 97 101
4 110 90 74 73
4 93 163 32 31
4 177 175 174 178
4 156 69 16 15
4 48 72 71 45
4 64 63 143 172
4 179 180 181 182
4 37 118 94 38
4 20 19 145 56
4 8 50 87 9
4 183 184 185 186
4 6 5 78 81
4 187 171 170 188
4 165 138 41 44
4 189 190 191 192
4 159 158 161 160
4 188 170 168 167
4 111 117 119 112
4 165 44 43 67
4 166 187 188 167
4 166 169 171 187
4 15 18 157 156
4 162 29 32 163
4 164 193 103 106
4 134 104 103 193
4 62 61 172 143
