ply
format ascii 1.0
comment Created by Blender 2.83.20 - www.blender.org, source file: 'BlueTopMiddleRoofThreeCrossing.blend'
element vertex 236
property float x
property float y
property float z
property uchar red
property uchar green
property uchar blue
property uchar alpha
element face 154
property list uchar uint vertex_indices
end_header
0.536033 -0.459788 0.140471 86 98 122 255
0.247588 -0.244381 0.140471 86 98 122 255
0.247588 -0.244381 0.556250 90 101 124 255
0.536033 -0.459788 0.556250 86 98 122 255
0.000692 -0.271997 0.258169 89 101 126 255
0.000692 -0.044624 -0.046300 89 101 126 255
0.000692 0.019475 0.001568 89 101 126 255
0.000692 -0.207899 0.306037 89 101 126 255
0.431861 -0.481120 -0.326992 187 119 80 255
0.431861 -0.401047 -0.386894 187 119 80 255
-0.500000 -0.401047 -0.386894 187 119 80 255
-0.500000 -0.481120 -0.326992 187 119 80 255
0.000360 0.010945 -0.560294 90 105 126 255
0.288804 -0.204462 -0.560294 90 105 126 255
0.240936 -0.268560 -0.560294 90 105 126 255
-0.047508 -0.053154 -0.560294 90 105 126 255
-0.419463 -0.525498 -0.487352 85 101 122 255
-0.419463 -0.461399 -0.535220 85 101 122 255
-0.140060 -0.245993 -0.246776 85 101 122 255
-0.140060 -0.310092 -0.198908 85 101 122 255
0.240936 -0.268560 -0.140053 91 106 127 255
-0.047508 -0.053154 -0.140053 85 104 126 255
-0.000756 0.019475 0.198884 89 101 126 255
0.047112 -0.044624 0.198884 89 101 126 255
0.047112 -0.044624 -0.193506 89 101 126 255
-0.000756 0.019475 -0.193506 89 101 126 255
0.431861 -0.481120 0.328460 187 119 80 255
-0.500000 -0.481120 0.328461 187 119 80 255
-0.500000 -0.401047 0.388363 187 119 80 255
0.431861 -0.401047 0.388363 187 119 80 255
-0.407721 -0.541022 0.487909 188 122 85 255
-0.327648 -0.481120 0.487909 187 119 80 255
-0.387551 -0.401047 0.487909 187 119 80 255
-0.467624 -0.460949 0.487909 187 119 80 255
0.431861 -0.541022 -0.407065 188 122 85 255
0.431861 -0.460949 -0.466968 187 119 80 255
0.247588 -0.245993 -0.560302 85 101 122 255
0.536033 -0.461399 -0.560301 85 101 122 255
0.488165 -0.525498 -0.560301 85 101 122 255
0.199720 -0.310092 -0.560301 85 101 122 255
-0.560302 -0.310091 -0.198908 85 101 122 255
-0.560302 -0.525498 -0.487352 85 101 122 255
-0.564452 0.010945 0.001016 90 105 126 255
-0.564452 -0.053154 -0.046852 90 105 126 255
-0.564452 -0.268560 0.241592 90 105 126 255
-0.564452 -0.204462 0.289461 90 105 126 255
-0.500000 -0.460949 -0.466967 187 119 80 255
-0.179102 -0.207898 -0.304569 89 101 126 255
-0.179102 0.019475 -0.000100 89 101 126 255
0.000692 0.019475 -0.000100 89 101 126 255
0.000692 -0.207899 -0.304569 89 101 126 255
-0.560294 -0.053154 0.048321 90 105 126 255
-0.560294 0.010945 0.000452 90 105 126 255
-0.560294 -0.204462 -0.287992 90 105 126 255
-0.560294 -0.268560 -0.240124 90 105 126 255
-0.560302 -0.245993 -0.246776 85 101 122 255
-0.488008 -0.525498 -0.560301 85 101 122 255
-0.488008 -0.525498 -0.413493 85 101 122 255
-0.535876 -0.461399 -0.413493 85 101 122 255
-0.535876 -0.461399 -0.560301 85 101 122 255
-0.179102 -0.271997 -0.256701 89 101 126 255
0.000692 -0.271997 -0.256701 89 101 126 255
0.000692 -0.044624 0.047768 89 101 126 255
-0.179102 -0.044624 0.047768 89 101 126 255
0.288804 -0.204462 -0.140053 90 105 126 255
0.000360 0.010945 -0.140053 90 105 126 255
0.199720 -0.308480 0.556250 86 98 122 255
0.199720 -0.308480 0.140471 86 98 122 255
-0.560302 -0.310091 0.200376 85 101 122 255
-0.560301 -0.525498 0.488821 85 101 122 255
-0.560301 -0.461399 0.536689 85 101 122 255
-0.560302 -0.245993 0.248244 85 101 122 255
-0.387551 -0.401047 -0.500000 187 119 80 255
-0.467624 -0.460949 -0.500000 187 119 80 255
0.047664 -0.053154 -0.564452 90 105 126 255
-0.240780 -0.268560 -0.564452 90 105 126 255
-0.288648 -0.204462 -0.564452 90 105 126 255
-0.000204 0.010945 -0.564452 90 105 126 255
-0.140053 -0.204462 0.289460 90 105 126 255
-0.140053 0.010945 0.001016 90 105 126 255
0.288804 -0.201700 0.140070 85 99 122 255
0.000360 0.013706 0.140070 85 99 122 255
0.000360 0.013706 0.558176 85 99 122 255
0.288804 -0.201700 0.558176 85 99 122 255
-0.179102 -0.044624 -0.046300 89 101 126 255
-0.179102 -0.271997 0.258169 89 101 126 255
-0.257357 -0.271997 0.198884 89 101 126 255
-0.305225 -0.207899 0.198884 89 101 126 255
0.224062 -0.300683 -0.165184 83 98 122 255
0.271930 -0.236584 -0.165184 83 98 122 255
0.560374 -0.451990 -0.165184 83 98 122 255
0.512506 -0.516089 -0.165184 83 98 122 255
-0.492966 -0.516945 -0.070000 172 113 80 255
-0.492966 -0.516945 0.070000 174 116 85 255
0.013706 -0.028177 0.070000 170 108 72 255
0.013706 -0.028177 -0.070000 170 109 73 255
-0.247432 -0.245993 -0.560302 85 101 122 255
-0.247432 -0.245993 -0.140060 85 101 122 255
-0.140060 -0.310092 0.200376 85 101 122 255
-0.412209 -0.525498 0.488821 85 101 122 255
0.240936 -0.265799 0.140070 85 99 122 255
0.240936 -0.265799 0.558176 85 99 122 255
0.047664 -0.050393 0.140070 85 98 121 255
0.047664 -0.050393 0.555848 85 99 122 255
-0.240780 -0.265799 0.555848 85 99 122 255
-0.240780 -0.265799 0.140070 85 99 122 255
-0.000204 0.013706 0.140070 85 99 122 255
-0.288648 -0.201700 0.140070 85 99 122 255
-0.288648 -0.201700 0.555848 85 99 122 255
-0.000204 0.013706 0.555848 85 99 122 255
-0.140053 -0.268560 0.241592 91 106 127 255
-0.140053 -0.053154 -0.046852 85 104 126 255
-0.140053 -0.053154 0.048320 85 104 126 255
-0.140053 0.010945 0.000452 90 105 126 255
0.047664 -0.053154 -0.140053 85 104 126 255
-0.240780 -0.268560 -0.140053 91 106 127 255
-0.393971 -0.615940 -0.070000 170 108 72 255
-0.393971 -0.615940 0.070000 170 108 72 255
-0.046956 -0.044624 -0.193277 89 101 126 255
0.257513 -0.271997 -0.193277 89 101 126 255
0.257513 -0.271997 0.198884 89 101 126 255
-0.046956 -0.044624 0.198884 89 101 126 255
0.407878 -0.541022 -0.500000 188 123 86 255
0.467780 -0.460949 -0.500000 187 119 80 255
0.467780 -0.460949 0.487909 187 119 80 255
0.407878 -0.541022 0.487909 188 122 85 255
-0.560302 -0.461399 -0.535220 85 101 122 255
-0.179102 -0.207899 0.306038 89 101 126 255
0.512506 -0.516089 0.194816 83 98 122 255
0.224062 -0.300683 0.194816 83 98 122 255
-0.488008 -0.523886 0.556250 86 98 122 255
-0.199564 -0.308480 0.556250 86 98 122 255
-0.247432 -0.244381 0.556250 90 101 124 255
-0.535876 -0.459788 0.556250 86 98 122 255
0.023607 -0.028177 -0.012893 170 108 72 255
0.023607 -0.516945 0.493778 174 116 85 255
0.023607 -0.615940 0.394783 170 108 72 255
0.023607 -0.127172 -0.111888 170 108 72 255
0.305381 -0.207898 -0.193277 89 101 126 255
0.000912 0.019475 -0.193277 89 101 126 255
0.000912 0.019475 0.198884 89 101 126 255
0.305381 -0.207899 0.198884 89 101 126 255
-0.327648 -0.481120 -0.500000 187 119 80 255
-0.407721 -0.541022 -0.500000 188 123 86 255
-0.288648 -0.204462 -0.140053 90 105 126 255
-0.000204 0.010945 -0.140053 90 105 126 255
0.394127 -0.615940 -0.070000 170 108 72 255
0.493122 -0.516946 -0.070000 172 113 80 255
0.493122 -0.516945 0.070000 174 116 85 255
0.394127 -0.615941 0.070000 170 108 72 255
0.327805 -0.481120 -0.500000 187 119 80 255
0.327805 -0.481120 0.487909 187 119 80 255
-0.140053 -0.204462 -0.287992 90 105 126 255
-0.140053 -0.268560 -0.240124 91 106 127 255
-0.047508 -0.050393 0.140070 85 98 121 255
-0.047508 -0.050393 0.558176 85 99 122 255
-0.179102 0.019475 0.001568 89 101 126 255
-0.070000 -0.028177 -0.012893 170 109 73 255
-0.070000 -0.516945 0.493778 172 113 80 255
0.199720 -0.310092 -0.140060 85 101 122 255
0.247588 -0.245993 -0.140060 85 101 122 255
0.488165 -0.523886 0.140472 87 98 122 255
-0.535876 -0.459788 0.376435 86 98 122 255
-0.488008 -0.523886 0.376435 87 98 122 255
0.271930 -0.236584 0.194816 83 98 122 255
0.560374 -0.451990 0.194816 83 98 122 255
-0.500000 -0.460949 0.468436 187 119 80 255
0.431861 -0.460949 0.468436 187 119 80 255
-0.140060 -0.245993 0.248244 85 101 122 255
-0.412209 -0.461399 0.536689 85 101 122 255
0.431861 -0.541022 0.408534 188 122 85 255
-0.500000 -0.541022 0.408534 188 123 86 255
-0.110555 -0.135129 0.070000 170 108 72 255
-0.110555 -0.135129 -0.070000 171 109 72 255
-0.305225 -0.207899 -0.193506 89 101 126 255
0.239603 -0.334213 0.194557 86 93 122 255
0.239603 -0.274311 0.114484 85 91 122 255
0.239603 -0.194238 0.174386 85 91 122 255
0.239603 -0.254140 0.254459 85 91 122 255
0.488165 -0.525498 -0.140060 85 101 122 255
0.536033 -0.461399 -0.140060 85 101 122 255
-0.070000 -0.516945 -0.492309 172 113 80 255
-0.070000 -0.036134 0.012373 170 109 73 255
0.070000 -0.036134 0.012373 170 108 72 255
0.070000 -0.516945 -0.492309 174 116 85 255
0.488165 -0.523886 0.556250 86 98 122 255
-0.070000 -0.028177 -0.012893 76 82 110 255
-0.070000 -0.127172 -0.111888 77 83 111 255
0.023607 -0.127172 -0.111888 76 82 110 255
0.023607 -0.028177 -0.012893 76 82 110 255
0.112701 -0.127172 -0.070000 171 109 72 255
0.112701 -0.127172 0.070000 170 108 72 255
-0.199564 -0.310092 -0.560302 85 101 122 255
-0.199564 -0.310092 -0.140060 85 101 122 255
-0.199564 -0.308480 0.140471 86 98 122 255
-0.247432 -0.244381 0.140471 86 98 122 255
-0.011560 -0.036134 -0.070000 170 109 73 255
-0.011560 -0.036134 0.070000 170 108 72 255
-0.070000 -0.615940 0.394783 170 108 72 255
-0.500000 -0.541022 -0.407065 188 123 86 255
0.387707 -0.401047 0.487909 187 119 80 255
0.253803 -0.254140 -0.500000 85 91 122 255
0.173730 -0.194238 -0.500000 85 91 122 255
0.173730 -0.194238 0.487909 85 91 122 255
0.253803 -0.254140 0.487909 85 91 122 255
-0.070000 -0.127172 -0.111888 171 109 72 255
-0.257357 -0.271997 -0.193506 89 101 126 255
-0.070000 -0.615940 -0.393314 170 108 72 255
0.070000 -0.615940 -0.393315 170 108 72 255
-0.173574 -0.194238 -0.500000 85 91 122 255
-0.253647 -0.254140 -0.500000 85 91 122 255
-0.253647 -0.254140 0.487909 85 91 122 255
-0.173574 -0.194238 0.487909 85 91 122 255
0.242752 -0.334213 -0.193089 86 93 122 255
0.242752 -0.274311 -0.113015 85 91 122 255
0.242752 -0.194238 -0.172918 85 91 122 255
0.242752 -0.254140 -0.252991 85 91 122 255
0.387707 -0.401047 -0.500000 187 119 80 255
-0.070000 -0.036134 0.012373 76 82 110 255
-0.070000 -0.135129 0.111368 77 83 111 255
0.070000 -0.135129 0.111367 76 82 110 255
0.070000 -0.036134 0.012373 76 82 110 255
-0.110555 -0.135129 -0.070000 77 83 111 255
-0.011560 -0.036134 -0.070000 76 82 110 255
-0.011560 -0.036134 0.070000 76 82 110 255
-0.110555 -0.135129 0.070000 76 82 110 255
0.013706 -0.028177 -0.070000 76 82 110 255
0.112701 -0.127172 -0.070000 77 83 111 255
0.112701 -0.127172 0.070000 76 82 110 255
0.013706 -0.028177 0.070000 76 82 110 255
0.467780 -0.460949 -0.500000 85 91 122 255
0.467780 -0.460949 0.487909 85 91 122 255
0.387707 -0.401047 0.487909 85 91 122 255
0.387707 -0.401047 -0.500000 85 91 122 255
-0.070000 -0.135129 0.111368 171 109 72 255
0.070000 -0.135129 0.111367 170 108 72 255
4 0 1 2 3
4 4 5 6 7
4 8 9 10 11
4 12 13 14 15
4 16 17 18 19
4 15 14 20 21
4 22 23 24 25
4 26 27 28 29
4 30 31 32 33
4 34 35 9 8
4 36 37 38 39
4 40 41 16 19
4 42 43 44 45
4 10 9 35 46
4 47 48 49 50
4 51 52 53 54
4 18 55 40 19
4 56 57 58 59
4 60 61 62 63
4 20 64 65 21
4 66 2 1 67
4 68 69 70 71
4 72 73 33 32
4 74 75 76 77
4 45 78 79 42
4 80 81 82 83
4 84 5 4 85
4 86 23 22 87
4 88 89 90 91
4 92 93 94 95
4 96 59 58 97
4 68 98 99 69
4 100 80 83 101
4 102 103 104 105
4 106 107 108 109
4 62 49 48 63
4 110 111 79 78
4 112 113 52 51
4 74 114 115 75
4 111 43 42 79
4 116 117 93 92
4 118 119 120 121
4 122 123 124 125
4 41 126 17 16
4 85 4 7 127
4 88 91 128 129
4 63 48 47 60
4 104 103 109 108
4 130 131 132 133
4 134 135 136 137
4 45 44 110 78
4 138 139 140 141
4 142 31 30 143
4 144 115 114 145
4 55 126 41 40
4 146 147 148 149
4 43 111 110 44
4 150 122 125 151
4 54 53 152 153
4 82 81 154 155
4 54 153 112 51
4 119 138 141 120
4 84 85 127 156
4 157 158 135 134
4 105 104 108 107
4 159 160 36 39
4 67 1 0 161
4 162 163 130 133
4 129 164 89 88
4 165 164 129 128
4 166 167 29 28
4 60 47 50 61
4 99 98 168 169
4 72 142 143 73
4 27 26 170 171
4 75 115 144 76
4 149 172 173 146
4 154 81 80 100
4 174 87 22 25
4 175 176 177 178
4 179 180 160 159
4 181 182 183 184
4 161 185 66 67
4 186 187 188 189
4 38 179 159 39
4 167 170 26 29
4 117 116 190 191
4 106 102 105 107
4 27 171 166 28
4 55 18 17 126
4 192 193 57 56
4 83 82 155 101
4 161 0 3 185
4 131 194 195 132
4 147 196 197 148
4 162 133 132 195
4 71 70 169 168
4 14 13 64 20
4 89 164 165 90
4 121 140 139 118
4 76 144 145 77
4 198 136 135 158
4 97 193 192 96
4 154 100 101 155
4 11 199 34 8
4 125 124 200 151
4 201 202 203 204
4 136 198 205 137
4 24 23 86 206
4 206 86 87 174
4 143 30 33 73
4 197 172 149 148
4 114 74 77 145
4 146 173 196 147
4 31 142 72 32
4 207 181 184 208
4 199 46 35 34
4 91 90 165 128
4 209 210 211 212
4 65 12 15 21
4 213 214 215 216
4 151 200 217 150
4 198 158 157 205
4 37 36 160 180
4 94 93 117 191
4 13 12 65 64
4 192 56 59 96
4 171 170 167 166
4 120 141 140 121
4 218 219 220 221
4 222 223 224 225
4 226 227 228 229
4 230 231 232 233
4 207 234 182 181
4 3 2 66 185
4 163 194 131 130
4 38 37 180 179
4 53 52 113 152
4 118 139 138 119
4 11 10 46 199
4 208 235 234 207
4 57 193 97 58
4 24 206 174 25
4 116 92 95 190
4 6 5 84 156
4 183 235 208 184
4 194 163 162 195
4 103 102 106 109
4 152 113 112 153
4 61 50 49 62
4 69 99 169 70
4 98 68 71 168
4 150 217 123 122
4 127 7 6 156
