ply
format ascii 1.0
comment Created by Blender 2.83.20 - www.blender.org, source file: 'TilesBetterPlacedAndVertexPaintedWithBeamSupportMadeTileableBlue01064039(1).blend'
element vertex 136
property float x
property float y
property float z
property uchar red
property uchar green
property uchar blue
property uchar alpha
element face 102
property list uchar uint vertex_indices
end_header
-0.055093 0.057281 -0.171031 90 102 126 255
-0.055093 0.057281 0.188969 90 102 126 255
0.233352 0.272687 0.188969 90 102 126 255
0.233352 0.272687 -0.171031 90 102 126 255
0.281220 0.208589 -0.171031 85 99 126 255
-0.007225 -0.006817 -0.171031 90 102 126 255
0.281220 0.208589 0.188969 85 99 126 255
-0.007225 -0.006817 0.188969 90 102 126 255
-0.393971 -0.615940 0.070000 170 108 72 255
-0.393971 -0.615940 -0.070000 170 108 72 255
0.606029 0.384060 -0.070000 171 109 72 255
0.606029 0.384060 0.070000 170 108 72 255
-0.535877 -0.459787 0.140471 86 98 122 255
-0.535877 -0.459787 0.500471 86 98 122 255
-0.247432 -0.244381 0.500471 90 101 124 255
-0.247432 -0.244381 0.140471 86 98 122 255
0.544098 0.445258 -0.140028 86 101 122 255
0.544098 0.445258 -0.500028 86 101 122 255
0.496230 0.509357 -0.500028 86 101 122 255
0.496230 0.509357 -0.140028 86 101 122 255
-0.193745 -0.334213 0.500000 188 122 85 255
-0.113672 -0.274310 0.500000 187 119 80 255
-0.173574 -0.194237 0.500000 187 119 80 255
-0.253647 -0.254140 0.500000 187 119 80 255
0.231929 0.229491 -0.165184 88 100 126 255
0.231929 0.229491 0.194816 94 105 130 255
0.184061 0.293590 0.194816 88 100 126 255
0.184061 0.293590 -0.165184 88 100 126 255
0.207786 0.293951 -0.500028 86 101 122 255
0.207786 0.293951 -0.140028 86 101 122 255
0.296870 0.193888 -0.140078 86 101 126 255
0.296870 0.193888 -0.500078 86 101 126 255
0.249002 0.257986 -0.500078 86 101 126 255
0.249002 0.257986 -0.140078 87 101 127 255
-0.467624 -0.460949 -0.500000 187 119 80 255
-0.467624 -0.460949 0.500000 187 119 80 255
-0.387551 -0.401046 0.500000 187 119 80 255
-0.387551 -0.401046 -0.500000 187 119 80 255
0.253326 0.240401 -0.500000 187 119 80 255
0.253326 0.240401 0.500000 187 119 80 255
0.333399 0.300303 0.500000 187 119 80 255
0.333399 0.300303 -0.500000 187 119 80 255
-0.327648 -0.481120 -0.500000 187 119 80 255
-0.327648 -0.481120 0.500000 187 119 80 255
-0.407722 -0.541022 0.500000 188 122 85 255
-0.407722 -0.541022 -0.500000 188 123 86 255
0.488530 0.520963 0.194816 88 100 126 255
0.488530 0.520963 -0.165184 88 100 126 255
-0.039442 0.042580 -0.500078 86 101 126 255
-0.039442 0.042580 -0.140078 86 101 126 255
0.047664 -0.053154 -0.140053 85 104 126 255
0.047664 -0.053154 -0.500053 90 105 126 255
-0.000204 0.010945 -0.500053 90 105 126 255
-0.000204 0.010945 -0.140053 90 105 126 255
-0.240780 -0.268560 -0.500053 90 105 126 255
-0.288648 -0.204461 -0.500053 90 105 126 255
0.047112 -0.044624 -0.161116 89 101 126 255
-0.257357 -0.271997 -0.161116 89 101 126 255
-0.305225 -0.207898 -0.161116 89 101 126 255
-0.000756 0.019475 -0.161116 89 101 126 255
-0.288648 -0.204461 -0.140053 90 105 126 255
-0.199564 -0.310091 -0.140060 85 101 122 255
-0.199564 -0.310091 -0.500060 85 101 122 255
-0.247432 -0.245993 -0.500060 85 101 122 255
-0.247432 -0.245993 -0.140060 85 101 122 255
-0.253647 -0.254140 -0.500000 187 119 80 255
-0.173574 -0.194237 -0.500000 187 119 80 255
0.248613 0.232613 0.500122 82 97 122 255
0.537058 0.448019 0.500122 82 97 122 255
0.489189 0.512118 0.500122 82 97 122 255
0.200745 0.296712 0.500122 82 97 122 255
-0.113672 -0.274310 -0.500000 187 119 80 255
-0.193745 -0.334213 -0.500000 188 123 86 255
-0.488008 -0.525498 -0.140060 85 101 122 255
-0.535877 -0.461399 -0.140060 85 101 122 255
-0.535877 -0.461399 -0.500060 85 101 122 255
0.047664 -0.050392 0.500070 85 99 122 255
0.047664 -0.050392 0.140070 85 98 121 255
-0.000204 0.013706 0.140070 85 99 122 255
-0.000204 0.013706 0.500070 85 99 122 255
-0.492966 -0.516945 0.070000 174 116 85 255
-0.492966 -0.516945 -0.070000 172 113 80 255
-0.240780 -0.265799 0.500070 85 99 122 255
-0.288648 -0.201700 0.500070 85 99 122 255
-0.288648 -0.201700 0.140070 85 99 122 255
0.300966 0.187101 0.500204 87 101 126 255
0.300966 0.187101 0.140204 87 101 126 255
0.253098 0.251200 0.140204 87 101 126 255
0.253098 0.251200 0.500204 87 101 126 255
0.003293 -0.002725 -0.500000 187 119 80 255
0.003293 -0.002725 0.500000 187 119 80 255
0.083366 0.057177 0.500000 187 119 80 255
0.083366 0.057177 -0.500000 187 119 80 255
0.536398 0.456864 -0.165184 88 100 126 255
0.143269 -0.022896 -0.500000 187 119 80 255
0.143269 -0.022896 0.500000 187 119 80 255
0.063195 -0.082798 0.500000 188 122 85 255
0.063195 -0.082798 -0.500000 188 123 86 255
0.012522 -0.028305 0.500204 90 103 128 255
-0.035346 0.035793 0.500204 87 101 126 255
-0.035346 0.035793 0.140204 88 102 127 255
0.537058 0.448019 0.140122 82 97 122 255
0.489189 0.512118 0.140122 82 97 122 255
0.248613 0.232613 0.140122 82 97 122 255
0.200745 0.296712 0.140122 82 97 122 255
0.507034 0.483055 0.070000 170 108 72 255
-0.223906 -0.300683 0.194816 83 98 122 255
-0.223906 -0.300683 -0.165184 83 98 122 255
-0.271774 -0.236584 -0.165184 83 98 122 255
-0.271774 -0.236584 0.194816 83 98 122 255
0.313229 0.160328 -0.500000 188 123 86 255
0.313229 0.160328 0.500000 188 122 85 255
0.255654 0.229852 -0.140028 86 101 122 255
0.012522 -0.028305 0.140204 96 108 131 255
-0.560218 -0.451990 -0.165184 83 98 122 255
-0.560218 -0.451990 0.194816 83 98 122 255
0.047112 -0.044624 0.198884 89 101 126 255
-0.000756 0.019475 0.198884 89 101 126 255
0.393302 0.220230 0.500000 187 119 80 255
0.393302 0.220230 -0.500000 187 119 80 255
-0.512350 -0.516089 0.194816 83 98 122 255
0.536398 0.456864 0.194816 88 100 126 255
-0.257357 -0.271997 0.198884 89 101 126 255
-0.305225 -0.207898 0.198884 89 101 126 255
-0.512350 -0.516089 -0.165184 83 98 122 255
-0.240780 -0.268560 -0.140053 91 106 127 255
0.255654 0.229852 -0.500028 86 101 122 255
-0.199564 -0.308480 0.140471 86 98 122 255
-0.488008 -0.523886 0.140471 87 98 122 255
-0.199564 -0.308480 0.500471 86 98 122 255
-0.488008 -0.523886 0.500471 86 98 122 255
-0.488008 -0.525498 -0.500060 85 101 122 255
0.008426 -0.021519 -0.140078 86 101 126 255
0.507034 0.483055 -0.070000 170 109 73 255
-0.240780 -0.265799 0.140070 85 99 122 255
0.008426 -0.021519 -0.500078 87 102 127 255
4 0 1 2 3
4 4 5 0 3
4 4 6 7 5
4 8 9 10 11
4 12 13 14 15
4 16 17 18 19
4 5 7 1 0
4 20 21 22 23
4 24 25 26 27
4 1 7 6 2
4 28 29 19 18
4 30 31 32 33
4 34 35 36 37
4 38 39 40 41
4 42 43 44 45
4 27 26 46 47
4 48 49 33 32
4 50 51 52 53
4 45 44 35 34
4 51 54 55 52
4 43 42 37 36
4 56 57 58 59
4 55 60 53 52
4 61 62 63 64
4 65 23 22 66
4 67 68 69 70
4 71 21 20 72
4 73 61 64 74
4 75 74 64 63
4 76 77 78 79
4 72 20 23 65
4 9 8 80 81
4 21 71 66 22
4 82 76 79 83
4 84 83 79 78
4 85 86 87 88
4 89 90 91 92
4 93 24 27 47
4 94 95 96 97
4 98 85 88 99
4 100 99 88 87
4 68 101 102 69
4 97 96 90 89
4 102 101 103 104
4 95 94 92 91
4 105 80 8 11
4 104 70 69 102
4 106 107 108 109
4 110 111 39 38
4 29 112 16 19
4 6 4 3 2
4 86 113 100 87
4 114 115 109 108
4 116 56 59 117
4 118 119 41 40
4 120 106 109 115
4 93 121 25 24
4 122 116 117 123
4 58 123 117 59
4 121 93 47 46
4 107 106 120 124
4 125 50 53 60
4 126 112 29 28
4 127 128 12 15
4 127 129 130 128
4 128 130 13 12
4 130 129 14 13
4 62 131 75 63
4 17 16 112 126
4 96 95 91 90
4 56 116 122 57
4 132 30 33 49
4 57 122 123 58
4 9 81 133 10
4 124 120 115 114
4 17 126 28 18
4 119 118 111 110
4 101 68 67 103
4 92 94 97 89
4 103 67 70 104
4 26 25 121 46
4 86 85 98 113
4 113 98 99 100
4 77 76 82 134
4 71 72 65 66
4 134 82 83 84
4 107 124 114 108
4 62 61 73 131
4 131 73 74 75
4 51 50 125 54
4 37 42 45 34
4 54 125 60 55
4 111 118 40 39
4 31 30 132 135
4 135 132 49 48
4 81 80 105 133
4 44 43 36 35
4 133 105 11 10
4 41 119 110 38
4 32 31 135 48
4 77 134 84 78
4 129 127 15 14
