ply
format ascii 1.0
comment Created by Blender 2.83.20 - www.blender.org, source file: 'RoofCornerOutsideBlue(1).blend'
element vertex 284
property float x
property float y
property float z
property uchar red
property uchar green
property uchar blue
property uchar alpha
element face 149
property list uchar uint vertex_indices
end_header
-0.528969 -0.456232 -0.140060 85 101 122 255
-0.240525 -0.240825 -0.221145 85 101 122 255
-0.528969 -0.456232 -0.529242 85 101 122 255
0.255520 0.237780 0.500122 82 97 122 255
0.499016 0.419561 0.499676 82 97 122 255
0.499571 0.419976 0.500122 82 97 122 255
0.207652 0.301879 0.500122 82 97 122 255
0.496096 0.517285 0.500296 82 97 122 255
0.207652 0.301879 0.214015 82 97 122 255
0.501140 0.299118 0.211464 86 101 122 255
0.500175 0.450425 0.499802 86 101 122 255
0.501003 0.235019 0.259332 86 101 122 255
0.499016 0.419561 0.499676 187 85 69 255
0.496096 0.517285 0.500122 187 85 69 255
0.496096 0.517285 0.500296 187 85 69 255
0.501625 -0.047987 0.051343 90 105 126 255
0.141626 -0.047987 0.050310 85 104 126 255
0.142454 -0.263393 -0.238133 91 106 127 255
0.502452 -0.263393 -0.237100 90 105 126 255
-0.068177 -0.057715 -0.036858 76 82 110 255
-0.066875 -0.511778 -0.490920 81 87 113 255
-0.067159 -0.610773 -0.391925 76 82 110 255
-0.068461 -0.156710 0.062136 76 82 110 255
-0.240525 -0.240825 -0.221145 187 87 82 255
-0.528969 -0.456232 -0.529242 187 87 82 255
-0.495380 -0.520331 -0.484995 187 87 82 255
-0.192657 -0.304924 -0.221145 187 87 82 255
0.208956 0.299118 0.210626 86 101 122 255
0.499776 0.514524 0.499906 86 101 122 255
0.500313 0.514524 0.499907 86 101 122 255
-0.240525 -0.240825 -0.140060 85 101 122 255
-0.421314 -0.455782 -0.466595 187 119 80 255
-0.421486 -0.535855 -0.406693 188 122 85 255
-0.421715 -0.475952 -0.326620 187 119 80 255
-0.421543 -0.395879 -0.386522 187 119 80 255
0.054571 -0.045225 0.500070 187 98 84 255
0.054571 -0.045225 0.140070 186 97 83 255
0.006703 0.018873 0.140070 187 98 84 255
0.006703 0.018873 0.500070 187 98 84 255
-0.481101 -0.518719 0.500471 86 98 122 255
-0.192657 -0.303313 0.500471 86 98 122 255
-0.240525 -0.239214 0.500471 90 101 124 255
-0.528969 -0.454620 0.500471 86 98 122 255
-0.528969 -0.454620 0.140471 86 98 122 255
-0.240525 -0.239214 0.140471 86 98 122 255
0.502649 -0.475952 -0.323968 187 119 80 255
0.502820 -0.395879 -0.383870 187 119 80 255
0.502479 -0.240825 -0.243752 85 101 122 255
0.503306 -0.456232 -0.532195 85 101 122 255
0.143308 -0.456232 -0.533228 85 101 122 255
0.142480 -0.240825 -0.244785 85 101 122 255
0.054571 -0.045225 0.140070 85 98 121 255
0.054571 -0.045225 0.500070 85 99 122 255
-0.233873 -0.260632 0.500070 85 99 122 255
-0.233873 -0.260632 0.140070 85 99 122 255
-0.281741 -0.196533 0.140070 85 99 122 255
-0.281741 -0.196533 0.500070 85 99 122 255
0.006703 0.018873 0.500070 85 99 122 255
0.006703 0.018873 0.140070 85 99 122 255
0.054019 -0.039457 0.198884 194 108 88 255
0.054019 -0.039457 0.022268 194 108 88 255
0.006151 0.024642 0.022268 194 108 88 255
0.006151 0.024642 0.198884 194 108 88 255
0.142591 -0.199294 -0.286001 90 105 126 255
0.502589 -0.199294 -0.284968 90 105 126 255
0.162829 0.024642 0.001951 194 108 88 255
0.162691 -0.039457 0.049819 194 108 88 255
0.020117 -0.039457 0.049410 194 108 88 255
0.020254 0.037432 0.021556 194 108 88 255
-0.238033 -0.239214 -0.223461 190 116 99 255
-0.138050 -0.239214 -0.245589 187 107 88 255
-0.138188 -0.303313 -0.197721 187 107 88 255
-0.238171 -0.303313 -0.198008 187 107 88 255
-0.137360 -0.518719 -0.486165 87 98 122 255
-0.138188 -0.303313 -0.197721 86 98 122 255
-0.238171 -0.303313 -0.198008 86 98 122 255
-0.497359 -0.518719 -0.487197 86 98 122 255
0.240678 0.237780 0.248288 82 97 122 255
0.501763 -0.016352 0.012105 87 102 127 255
0.500935 0.199055 0.300548 86 101 126 255
0.251130 0.199055 0.299832 86 101 126 255
0.001623 -0.016352 0.010639 86 101 126 255
0.260005 0.256367 0.269980 87 101 126 255
-0.028439 0.040961 -0.011398 88 102 127 255
-0.028439 0.040961 0.500204 87 101 126 255
0.260005 0.256367 0.500204 87 101 126 255
0.006151 0.024642 0.022268 89 101 126 255
-0.298318 -0.202731 -0.283649 89 101 126 255
-0.298318 -0.202731 0.198884 89 101 126 255
0.006151 0.024642 0.198884 89 101 126 255
0.496096 0.517285 0.500122 82 97 122 255
0.049125 -0.174584 0.070000 170 108 72 255
-0.387064 -0.610773 0.070000 170 108 72 255
-0.387064 -0.610773 -0.070000 170 108 72 255
0.049125 -0.174584 -0.070000 171 109 72 255
0.070102 -0.077631 0.006014 188 123 86 255
0.070102 -0.077631 0.500000 188 122 85 255
0.010200 0.002442 0.500000 187 119 80 255
0.010200 0.002442 0.006014 187 119 80 255
-0.505443 -0.510922 0.194816 83 98 122 255
-0.216999 -0.295516 0.194816 83 98 122 255
-0.264867 -0.231417 0.194816 83 98 122 255
-0.553311 -0.446823 0.194816 83 98 122 255
-0.553311 -0.446823 -0.165184 83 98 122 255
-0.264867 -0.231417 -0.165184 83 98 122 255
0.500752 0.305470 0.337077 85 91 122 255
0.500982 0.245568 0.257004 85 91 122 255
0.295828 0.245568 0.256416 85 91 122 255
0.295598 0.305470 0.336489 85 91 122 255
-0.400814 -0.535855 0.500000 188 122 85 255
-0.320741 -0.475952 0.500000 187 119 80 255
-0.380644 -0.395879 0.500000 187 119 80 255
-0.460717 -0.455782 0.500000 187 119 80 255
-0.238033 -0.239214 -0.223461 90 101 124 255
-0.528561 -0.454620 -0.535065 86 98 122 255
-0.137223 -0.454620 -0.534033 86 98 122 255
-0.138050 -0.239214 -0.245589 86 98 122 255
0.501900 0.047747 -0.035763 86 101 126 255
-0.030189 0.047747 -0.032092 86 101 126 255
0.251267 0.263153 0.251964 87 101 127 255
0.501072 0.263153 0.252680 86 101 126 255
-0.186838 -0.329046 -0.241737 188 123 86 255
-0.186838 -0.329046 0.500000 188 122 85 255
-0.246740 -0.248973 0.500000 187 119 80 255
-0.246740 -0.248973 -0.241737 187 119 80 255
-0.191635 -0.510922 -0.510662 83 98 122 255
-0.192462 -0.295515 -0.222219 83 98 122 255
-0.192325 -0.231417 -0.270087 83 98 122 255
-0.191497 -0.446823 -0.558530 83 98 122 255
0.010489 -0.077631 0.065465 188 122 85 255
0.010260 -0.017729 0.145538 187 119 80 255
0.010431 0.062344 0.085636 187 119 80 255
0.010661 0.002442 0.005563 187 119 80 255
-0.486059 -0.511778 -0.070000 172 113 80 255
-0.486059 -0.511778 0.070000 174 116 85 255
0.090273 0.062344 0.500000 187 119 80 255
0.090273 0.062344 0.006014 187 119 80 255
0.150176 -0.017729 0.006014 187 119 80 255
0.150176 -0.017729 0.500000 187 119 80 255
0.054019 -0.039457 0.022268 89 101 126 255
0.054019 -0.039457 0.198884 89 101 126 255
-0.250450 -0.266830 0.198884 89 101 126 255
-0.250450 -0.266830 -0.233823 89 101 126 255
0.501527 -0.077631 0.066874 188 123 86 255
0.501699 0.002442 0.006972 187 119 80 255
0.499638 0.450425 0.499796 86 101 122 255
0.255789 0.235019 0.258494 86 101 122 255
-0.495380 -0.520330 -0.484995 85 101 122 255
-0.481101 -0.520330 -0.140060 85 101 122 255
0.502264 -0.329046 -0.190065 188 123 86 255
-0.231848 -0.329046 -0.192171 188 122 85 255
-0.231676 -0.248973 -0.252073 187 119 80 255
0.502436 -0.248973 -0.249967 187 119 80 255
0.400209 0.225397 0.500000 187 119 80 255
0.400209 0.225397 0.251845 187 119 80 255
0.340306 0.305470 0.251845 187 119 80 255
0.340306 0.305470 0.500000 187 119 80 255
0.019429 -0.023138 0.500204 90 103 128 255
0.307873 0.192268 0.500204 87 101 126 255
-0.106765 -0.269143 -0.241737 187 119 80 255
-0.166667 -0.189070 -0.241737 187 119 80 255
0.142454 -0.263393 -0.238133 195 98 93 255
0.141626 -0.047987 0.050310 194 75 72 255
0.141763 0.016112 0.002442 194 95 90 255
0.142591 -0.199294 -0.286001 194 95 90 255
0.163702 -0.202731 -0.302517 89 101 126 255
0.163565 -0.266830 -0.254649 89 101 126 255
-0.258128 -0.266830 -0.255859 89 101 126 255
-0.310422 -0.202731 -0.303727 89 101 126 255
0.307873 0.192268 0.269980 87 101 126 255
0.019429 -0.023138 0.010766 96 108 131 255
0.162691 -0.039457 0.049819 89 101 126 255
0.020117 -0.039457 0.049410 89 101 126 255
0.208956 0.299118 0.210626 86 101 122 255
0.499776 0.514524 0.499906 86 101 122 255
0.499638 0.450425 0.499796 86 101 122 255
0.255789 0.235019 0.258494 86 101 122 255
0.502878 -0.535855 -0.404041 188 123 86 255
0.295426 0.225397 0.396391 187 119 80 255
0.500580 0.225397 0.396979 187 119 80 255
0.500752 0.305470 0.337077 187 119 80 255
0.295598 0.305470 0.336489 187 119 80 255
-0.049870 -0.075589 -0.070000 170 109 73 255
-0.049870 -0.075589 0.070000 170 108 72 255
-0.232078 -0.269143 -0.112098 187 119 80 255
0.502035 -0.269143 -0.109992 187 119 80 255
0.502207 -0.189070 -0.169894 187 119 80 255
-0.231906 -0.189070 -0.172000 187 119 80 255
0.072841 -0.610773 -0.391524 170 108 72 255
0.073125 -0.511778 -0.490518 172 113 80 255
0.071822 -0.057715 -0.036457 170 109 73 255
0.071538 -0.156710 0.062538 171 109 72 255
-0.068461 -0.156710 0.062136 170 108 72 255
-0.067159 -0.610773 -0.391925 170 108 72 255
-0.216999 -0.295516 -0.165184 83 98 122 255
-0.505443 -0.510922 -0.165184 83 98 122 255
-0.192657 -0.304924 -0.140060 85 101 122 255
-0.192657 -0.304924 -0.221145 85 101 122 255
0.020254 0.037432 0.021556 89 101 126 255
0.162829 0.024642 0.001951 89 101 126 255
0.500810 0.165495 0.316906 188 123 86 255
0.500982 0.245568 0.257004 187 119 80 255
0.143170 -0.520330 -0.485360 85 101 122 255
0.142343 -0.304924 -0.196917 85 101 122 255
0.168364 -0.510922 -0.509630 83 98 122 255
0.168501 -0.446823 -0.557497 83 98 122 255
0.320136 0.165495 0.251845 188 123 86 255
0.320136 0.165495 0.500000 188 122 85 255
0.260233 0.245568 0.500000 187 119 80 255
0.260233 0.245568 0.251845 187 119 80 255
-0.192657 -0.303313 0.500471 187 107 88 255
-0.192657 -0.303313 0.140471 187 107 88 255
-0.240525 -0.239214 0.140471 187 107 88 255
-0.240525 -0.239214 0.500471 190 116 99 255
-0.481101 -0.518719 0.140471 87 98 122 255
-0.192657 -0.303313 0.140471 86 98 122 255
0.499571 0.419976 0.500122 187 85 69 255
0.295656 0.165495 0.316318 188 122 85 255
0.295828 0.245568 0.256416 187 119 80 255
-0.460717 -0.455782 -0.416760 187 119 80 255
-0.380644 -0.395879 -0.416760 187 119 80 255
0.295656 0.165495 0.316318 86 93 122 255
0.295426 0.225397 0.396391 85 91 122 255
0.307873 0.192268 0.500204 194 101 81 255
0.307873 0.192268 0.269980 194 101 81 255
0.260005 0.256367 0.269980 194 101 81 255
0.260005 0.256367 0.500204 194 101 81 255
0.503050 -0.455782 -0.463943 187 119 80 255
-0.216999 -0.295516 0.194816 187 88 74 255
-0.216999 -0.295516 -0.165184 187 88 74 255
-0.264867 -0.231417 -0.165184 187 88 74 255
-0.264867 -0.231417 0.194816 187 88 74 255
0.141763 0.016112 0.002442 90 105 126 255
0.501762 0.016112 0.003475 90 105 126 255
-0.106765 -0.269143 0.500000 187 119 80 255
-0.166667 -0.189070 0.500000 187 119 80 255
-0.166667 -0.189070 0.500000 85 91 122 255
-0.246740 -0.248973 0.500000 85 91 122 255
-0.246740 -0.248973 -0.241737 85 91 122 255
-0.166667 -0.189070 -0.241737 85 91 122 255
-0.320741 -0.475952 -0.416760 187 119 80 255
-0.400814 -0.535855 -0.416760 188 123 86 255
0.167536 -0.295515 -0.221186 83 98 122 255
-0.233873 -0.260632 0.140070 187 98 84 255
-0.281741 -0.196533 0.140070 187 98 84 255
0.501298 -0.017729 0.146947 187 119 80 255
0.501625 -0.047987 0.051343 194 95 90 255
0.501762 0.016112 0.003475 194 95 90 255
0.167674 -0.231417 -0.269054 83 98 122 255
0.251267 0.263153 0.251964 195 95 75 255
0.251130 0.199055 0.299832 194 93 73 255
0.500935 0.199055 0.300548 194 93 73 255
0.501072 0.263153 0.252680 194 93 73 255
-0.137223 -0.454620 -0.534033 187 107 88 255
-0.137360 -0.518719 -0.486165 187 108 89 255
0.502479 -0.240825 -0.243752 187 87 82 255
0.502341 -0.304924 -0.195884 187 87 82 255
0.142343 -0.304924 -0.196917 187 87 82 255
0.142480 -0.240825 -0.244785 187 87 82 255
-0.231906 -0.189070 -0.172000 85 91 122 255
-0.231676 -0.248973 -0.252073 85 91 122 255
0.502436 -0.248973 -0.249967 85 91 122 255
0.502207 -0.189070 -0.169894 85 91 122 255
0.501469 0.062344 0.087045 187 119 80 255
-0.066875 -0.511778 -0.490920 174 116 85 255
-0.068177 -0.057715 -0.036858 170 108 72 255
0.502341 -0.304924 -0.195884 85 101 122 255
0.503169 -0.520330 -0.484327 85 101 122 255
-0.232078 -0.269143 -0.112098 85 91 122 255
-0.231848 -0.329046 -0.192171 86 93 122 255
-0.192657 -0.304924 -0.140060 187 87 82 255
-0.240525 -0.240825 -0.140060 187 87 82 255
0.260233 0.245568 0.251845 85 91 122 255
0.260233 0.245568 0.500000 85 91 122 255
0.340306 0.305470 0.500000 85 91 122 255
0.340306 0.305470 0.251845 85 91 122 255
0.499776 0.514524 0.499906 187 93 88 255
0.499638 0.450425 0.499796 187 92 87 255
0.500175 0.450425 0.499802 187 92 87 255
0.500313 0.514524 0.499907 187 92 87 255
0.167674 -0.231417 -0.269054 187 88 74 255
0.167536 -0.295515 -0.221186 187 88 74 255
-0.192462 -0.295515 -0.222219 187 88 74 255
-0.192325 -0.231417 -0.270087 187 88 74 255
3 0 1 2
3 3 4 5
3 6 7 8
3 9 10 11
3 12 13 14
4 15 16 17 18
4 19 20 21 22
4 23 24 25 26
4 9 27 28 29
3 0 30 1
4 31 32 33 34
4 35 36 37 38
4 39 40 41 42
4 43 42 41 44
4 34 33 45 46
4 47 48 49 50
4 51 52 53 54
4 55 56 57 58
4 59 60 61 62
4 18 17 63 64
4 65 66 67 68
4 69 70 71 72
4 73 74 75 76
4 4 77 8 7
4 78 79 80 81
4 82 83 84 85
4 86 87 88 89
3 3 77 4
3 6 90 7
4 91 92 93 94
4 95 96 97 98
4 99 100 101 102
4 103 102 101 104
4 105 106 107 108
4 109 110 111 112
4 76 75 113 114
4 115 114 113 116
4 6 3 5 90
4 117 118 119 120
4 121 122 123 124
4 125 126 127 128
4 129 130 131 132
4 133 93 92 134
4 98 97 135 136
4 137 138 96 95
4 139 140 141 142
4 143 129 132 144
4 11 10 145 146
4 147 148 0 2
4 149 150 151 152
4 153 154 155 156
4 84 157 158 85
4 159 121 124 160
4 161 162 163 164
4 165 166 167 168
4 82 169 170 83
4 166 171 172 167
4 173 174 175 176
4 45 33 32 177
4 178 179 180 181
4 182 183 91 94
4 184 185 186 187
4 188 189 190 191
4 192 193 188 191
4 194 195 103 104
4 53 52 57 56
4 137 95 98 136
4 142 141 88 87
4 9 11 146 27
4 148 196 30 0
4 169 158 157 170
4 197 196 148 147
4 81 80 119 118
3 9 29 10
4 77 3 6 8
4 165 168 198 199
4 167 172 198 168
4 179 200 201 180
4 49 202 203 50
4 204 125 128 205
4 206 207 208 209
4 155 154 206 209
4 210 211 212 213
4 86 139 142 87
4 214 39 42 43
4 215 40 39 214
4 207 153 156 208
4 134 92 91 183
3 12 216 13
4 200 217 218 201
4 219 112 111 220
4 195 99 102 103
4 133 134 183 182
4 194 100 99 195
4 107 221 222 108
4 223 224 225 226
4 46 45 177 227
4 228 229 230 231
4 64 63 232 233
4 138 137 136 135
4 123 122 234 235
4 236 237 238 239
4 159 234 122 121
4 149 185 184 150
4 110 240 220 111
4 94 93 133 182
4 241 109 112 219
4 240 110 109 241
4 79 78 117 120
4 204 242 126 125
4 36 243 244 37
4 143 245 130 129
4 220 240 241 219
4 227 31 34 46
4 162 246 247 163
4 248 242 204 205
4 249 250 251 252
4 253 254 71 70
4 255 256 257 258
4 54 53 56 55
4 185 149 152 186
4 259 260 261 262
4 245 143 144 263
4 189 264 265 190
4 15 18 64 233
4 177 32 31 227
4 44 215 214 43
4 188 193 264 189
4 266 267 48 47
4 266 203 202 267
4 96 138 135 97
4 205 128 127 248
4 144 132 131 263
4 199 171 166 165
4 154 153 207 206
4 259 268 269 260
4 23 26 270 271
4 272 273 274 275
4 267 202 49 48
4 115 73 76 114
4 179 178 217 200
4 117 78 81 118
4 276 277 278 279
4 130 245 263 131
4 141 140 89 88
4 280 281 282 283
4 191 190 265 192
4 170 157 84 83
4 234 159 160 235
