ply
format ascii 1.0
comment Created by Blender 2.83.20 - www.blender.org, source file: 'BlueTopMiddleRoofFourCrossing.blend'
element vertex 252
property float x
property float y
property float z
property uchar red
property uchar green
property uchar blue
property uchar alpha
element face 175
property list uchar uint vertex_indices
end_header
-0.488008 -0.525498 -0.451073 85 101 122 255
-0.199564 -0.310092 -0.560302 85 101 122 255
-0.199564 -0.310092 -0.140060 85 101 122 255
-0.535876 -0.461399 -0.451073 85 101 122 255
-0.247432 -0.245993 -0.560302 85 101 122 255
-0.535876 -0.461399 -0.560301 85 101 122 255
0.556250 -0.308480 -0.198908 86 98 122 255
0.140471 -0.308480 -0.198908 86 98 122 255
0.451236 -0.523886 -0.487352 87 98 122 255
0.556250 -0.244381 -0.246776 90 101 124 255
0.556250 -0.459788 -0.535220 86 98 122 255
0.451236 -0.459788 -0.535220 86 98 122 255
-0.288648 -0.201700 0.555848 85 99 122 255
-0.240780 -0.265799 0.555848 85 99 122 255
0.047664 -0.050393 0.555848 85 99 122 255
-0.000204 0.013706 0.555848 85 99 122 255
-0.500000 -0.254140 0.254459 85 91 122 255
-0.500000 -0.194238 0.174386 85 91 122 255
0.487909 -0.194238 0.174386 85 91 122 255
0.487909 -0.254140 0.254459 85 91 122 255
-0.560294 -0.268560 -0.240124 90 105 126 255
-0.560294 -0.204462 -0.287992 90 105 126 255
-0.140053 -0.204462 -0.287992 90 105 126 255
-0.140053 -0.268560 -0.240124 91 106 127 255
0.487909 -0.274311 -0.113015 187 119 80 255
0.487909 -0.194238 -0.172918 187 119 80 255
-0.500000 -0.194238 -0.172918 187 119 80 255
-0.500000 -0.274311 -0.113015 187 119 80 255
0.047664 -0.050393 0.140070 85 98 121 255
-0.240780 -0.265799 0.140070 85 99 122 255
-0.564452 -0.268560 0.241593 90 105 126 255
-0.564452 -0.053154 -0.046852 90 105 126 255
-0.140053 -0.053154 -0.046852 85 104 126 255
-0.140053 -0.268560 0.241592 91 106 127 255
-0.327648 -0.481120 -0.500000 187 119 80 255
-0.407721 -0.541022 -0.500000 188 123 86 255
-0.467624 -0.460949 -0.500000 187 119 80 255
-0.387550 -0.401047 -0.500000 187 119 80 255
0.488165 -0.523886 0.556250 86 98 122 255
0.536033 -0.459788 0.556250 86 98 122 255
0.247588 -0.244381 0.556250 90 101 124 255
0.199720 -0.308480 0.556250 86 98 122 255
-0.500000 -0.460949 -0.466968 187 119 80 255
0.487909 -0.460949 -0.466968 187 119 80 255
0.487909 -0.541022 -0.407065 188 122 85 255
-0.500000 -0.541022 -0.407065 188 123 86 255
-0.560302 -0.310092 -0.198908 85 101 122 255
-0.560302 -0.245993 -0.246776 85 101 122 255
-0.560302 -0.461399 -0.535220 85 101 122 255
-0.560302 -0.525498 -0.487352 85 101 122 255
0.247588 -0.245993 -0.560302 85 101 122 255
0.247588 -0.245993 -0.140060 85 101 122 255
0.536033 -0.461399 -0.407799 85 101 122 255
0.536033 -0.461399 -0.560301 85 101 122 255
-0.560301 -0.245993 0.248244 85 101 122 255
-0.560301 -0.461399 0.536689 85 101 122 255
-0.412209 -0.461399 0.536689 85 101 122 255
-0.140060 -0.245993 0.248244 85 101 122 255
0.257513 -0.271997 -0.161116 89 101 126 255
0.305381 -0.207898 -0.161116 89 101 126 255
0.305381 -0.207899 0.198884 89 101 126 255
0.257513 -0.271997 0.198884 89 101 126 255
-0.500000 -0.460949 0.468436 187 119 80 255
0.487909 -0.460949 0.468436 187 119 80 255
0.487909 -0.401047 0.388363 187 119 80 255
-0.500000 -0.401047 0.388363 187 119 80 255
0.556250 -0.523887 -0.487352 86 98 122 255
-0.500000 -0.481120 -0.326992 187 119 80 255
0.487909 -0.481120 -0.326992 187 119 80 255
0.199720 -0.310092 -0.560301 85 101 122 255
0.488164 -0.525498 -0.560301 85 101 122 255
0.488164 -0.525498 -0.407799 85 101 122 255
0.199720 -0.310092 -0.140060 85 101 122 255
0.488164 -0.523886 0.405663 87 98 122 255
0.199720 -0.308480 0.140471 86 98 122 255
-0.173574 -0.194238 -0.500000 187 119 80 255
-0.113671 -0.274311 -0.500000 187 119 80 255
-0.193745 -0.334213 -0.500000 188 123 86 255
-0.253647 -0.254140 -0.500000 187 119 80 255
0.193901 -0.334213 -0.500000 188 123 86 255
0.253803 -0.254140 -0.500000 187 119 80 255
0.253803 -0.254140 0.487909 187 119 80 255
0.193901 -0.334213 0.487909 188 122 85 255
0.140070 -0.050393 0.048320 85 98 121 255
0.140070 -0.265799 -0.240124 85 99 122 255
0.558176 -0.265799 -0.240124 85 99 122 255
0.558176 -0.050393 0.048320 85 99 122 255
-0.419463 -0.525498 -0.487352 85 101 122 255
-0.419463 -0.461399 -0.535220 85 101 122 255
-0.140060 -0.245993 -0.246776 85 101 122 255
-0.140060 -0.310092 -0.198908 85 101 122 255
0.047112 -0.044624 -0.161116 89 101 126 255
-0.257357 -0.271997 -0.161116 89 101 126 255
-0.305225 -0.207899 -0.161116 89 101 126 255
-0.000756 0.019475 -0.161116 89 101 126 255
0.000360 0.013706 0.558176 85 99 122 255
0.000360 0.013706 0.140070 85 99 122 255
-0.047508 -0.050393 0.140070 85 98 121 255
-0.047508 -0.050393 0.558176 85 99 122 255
0.140472 -0.244381 0.248244 86 98 122 255
0.140472 -0.308480 0.200376 86 98 122 255
0.396388 -0.523886 0.488821 87 98 122 255
0.396388 -0.459788 0.536689 86 98 122 255
-0.140053 -0.053154 0.048320 85 104 126 255
-0.140053 0.010945 0.000452 90 105 126 255
-0.560294 0.010945 0.000452 90 105 126 255
-0.560294 -0.053154 0.048321 90 105 126 255
0.288804 -0.204462 -0.140053 90 105 126 255
0.000360 0.010945 -0.140053 90 105 126 255
-0.047508 -0.053154 -0.140053 85 104 126 255
0.240936 -0.268560 -0.140053 91 106 127 255
0.173730 -0.194238 0.487909 187 119 80 255
0.113828 -0.274311 0.487909 187 119 80 255
-0.240780 -0.268560 -0.564452 90 105 126 255
0.047664 -0.053154 -0.564452 90 105 126 255
0.047664 -0.053154 -0.140053 85 104 126 255
-0.240780 -0.268560 -0.140053 91 106 127 255
-0.113671 -0.274311 0.487909 187 119 80 255
-0.173574 -0.194238 0.487909 187 119 80 255
-0.500000 -0.481120 0.328461 187 119 80 255
0.487909 -0.481120 0.328460 187 119 80 255
0.487909 -0.541022 0.408534 188 122 85 255
-0.500000 -0.541022 0.408534 188 123 86 255
-0.412209 -0.525498 0.488821 85 101 122 255
-0.140060 -0.310092 0.200376 85 101 122 255
-0.000204 0.013706 0.140070 85 99 122 255
0.047112 -0.044624 0.198884 89 101 126 255
-0.000756 0.019475 0.198884 89 101 126 255
-0.500000 -0.274311 0.114484 187 119 80 255
0.487909 -0.274311 0.114484 187 119 80 255
0.487909 -0.334213 0.194557 188 122 85 255
-0.500000 -0.334213 0.194557 188 123 86 255
-0.407721 -0.541022 0.487909 188 122 85 255
-0.467624 -0.460949 0.487909 187 119 80 255
-0.305225 -0.207899 0.198884 89 101 126 255
-0.140053 -0.204462 0.289461 90 105 126 255
-0.564452 -0.204462 0.289461 90 105 126 255
-0.140053 0.010945 0.001016 90 105 126 255
-0.535876 -0.459788 0.556250 86 98 122 255
-0.488008 -0.523886 0.556250 86 98 122 255
-0.199564 -0.308480 0.556250 86 98 122 255
-0.247432 -0.244381 0.556250 90 101 124 255
-0.488008 -0.525498 -0.560301 85 101 122 255
-0.247432 -0.245993 -0.140060 85 101 122 255
-0.488008 -0.523886 0.413954 87 98 122 255
-0.535876 -0.459788 0.413954 86 98 122 255
-0.161116 0.019475 0.001568 89 101 126 255
-0.161116 -0.044624 -0.046300 89 101 126 255
-0.161116 -0.271997 0.258169 89 101 126 255
-0.161116 -0.207899 0.306038 89 101 126 255
0.198884 -0.044624 -0.046300 89 101 126 255
0.198884 -0.271997 0.258169 89 101 126 255
0.140070 -0.201700 -0.287992 85 99 122 255
0.558176 -0.201700 -0.287992 85 99 122 255
-0.199564 -0.308480 0.140471 86 98 122 255
0.240936 -0.265799 0.140070 85 99 122 255
0.288804 -0.201700 0.140070 85 99 122 255
0.288804 -0.201700 0.558176 85 99 122 255
0.240936 -0.265799 0.558176 85 99 122 255
0.000912 0.019475 -0.161116 89 101 126 255
0.000912 0.019475 0.198884 89 101 126 255
-0.253647 -0.254140 -0.500000 85 91 122 255
-0.253647 -0.254140 0.487909 85 91 122 255
-0.173574 -0.194238 0.487909 85 91 122 255
-0.173574 -0.194238 -0.500000 85 91 122 255
-0.070000 -0.028177 -0.012893 76 82 110 255
-0.070000 -0.127172 -0.111888 77 83 111 255
0.070000 -0.127172 -0.111888 76 82 110 255
0.070000 -0.028177 -0.012893 76 82 110 255
0.253803 -0.254140 -0.500000 85 91 122 255
0.253803 -0.254140 0.487909 85 91 122 255
0.173730 -0.194238 0.487909 85 91 122 255
0.173730 -0.194238 -0.500000 85 91 122 255
0.140070 -0.265799 0.241592 85 99 122 255
0.555848 -0.265799 0.241592 85 99 122 255
0.555848 -0.201700 0.289460 85 99 122 255
0.140070 -0.201700 0.289460 85 99 122 255
0.198884 -0.207899 0.306037 89 101 126 255
-0.327648 -0.481120 0.487909 187 119 80 255
0.555848 -0.050393 -0.046852 85 99 122 255
0.140070 -0.050393 -0.046852 85 98 121 255
0.140070 0.013706 0.001016 85 99 122 255
0.555848 0.013706 0.001016 85 99 122 255
-0.046956 -0.044624 0.198884 89 101 126 255
-0.046956 -0.044624 -0.161116 89 101 126 255
-0.257357 -0.271997 0.198884 89 101 126 255
0.113828 -0.274311 -0.500000 187 119 80 255
-0.161116 -0.044624 0.047768 89 101 126 255
-0.161116 0.019475 -0.000100 89 101 126 255
-0.161116 -0.207898 -0.304569 89 101 126 255
-0.161116 -0.271997 -0.256701 89 101 126 255
-0.500000 -0.254140 -0.252991 187 119 80 255
-0.500000 -0.334213 -0.193088 188 123 86 255
0.558176 0.013706 0.000452 85 99 122 255
0.140070 0.013706 0.000452 85 99 122 255
-0.247432 -0.244381 0.140471 86 98 122 255
0.240936 -0.268560 -0.560294 90 105 126 255
-0.047508 -0.053154 -0.560294 90 105 126 255
-0.500000 -0.254140 -0.252991 85 91 122 255
0.487909 -0.254140 -0.252991 85 91 122 255
0.487909 -0.194238 -0.172918 85 91 122 255
-0.500000 -0.194238 -0.172918 85 91 122 255
0.247588 -0.244381 0.140471 86 98 122 255
0.536033 -0.459788 0.405663 86 98 122 255
-0.560302 -0.310091 0.200376 85 101 122 255
-0.560301 -0.525498 0.488821 85 101 122 255
-0.500000 -0.401047 -0.386894 187 119 80 255
0.556250 -0.308480 0.200376 86 98 122 255
0.556250 -0.523886 0.488821 86 98 122 255
0.140471 -0.244381 -0.246776 86 98 122 255
-0.193745 -0.334213 0.487909 188 122 85 255
-0.253647 -0.254140 0.487909 187 119 80 255
0.556250 -0.244381 0.248244 90 101 124 255
-0.564452 0.010945 0.001016 90 105 126 255
0.487909 -0.254140 -0.252991 187 119 80 255
0.487909 -0.334213 -0.193089 188 122 85 255
0.198884 0.019475 -0.000100 89 101 126 255
0.198884 -0.207899 -0.304569 89 101 126 255
-0.000204 0.010945 -0.140053 90 105 126 255
-0.288648 -0.204462 -0.140053 90 105 126 255
-0.387550 -0.401047 0.487909 187 119 80 255
-0.000204 0.010945 -0.564452 90 105 126 255
0.000360 0.010945 -0.560294 90 105 126 255
0.288804 -0.204462 -0.560294 90 105 126 255
-0.288648 -0.204462 -0.564452 90 105 126 255
0.407878 -0.541022 -0.500000 188 123 86 255
0.467780 -0.460949 -0.500000 187 119 80 255
0.467780 -0.460949 0.487909 187 119 80 255
0.407878 -0.541022 0.487909 188 122 85 255
0.556250 -0.459788 0.536689 86 98 122 255
-0.288648 -0.201700 0.140070 85 99 122 255
0.198884 -0.271997 -0.256701 89 101 126 255
0.198884 -0.044624 0.047768 89 101 126 255
0.173730 -0.194238 -0.500000 187 119 80 255
0.487909 -0.401047 -0.386895 187 119 80 255
0.487909 -0.194238 0.174386 187 119 80 255
0.487909 -0.254140 0.254459 187 119 80 255
0.327804 -0.481120 -0.500000 187 119 80 255
0.327804 -0.481120 0.487909 187 119 80 255
0.198884 0.019475 0.001568 89 101 126 255
-0.500000 -0.194238 0.174386 187 119 80 255
0.387707 -0.401047 0.487909 187 119 80 255
0.387707 -0.401047 -0.500000 187 119 80 255
-0.500000 -0.254140 0.254459 187 119 80 255
-0.223906 -0.300683 0.194816 83 98 122 255
-0.223906 -0.300683 -0.165184 83 98 122 255
-0.271774 -0.236584 -0.165184 83 98 122 255
-0.271774 -0.236584 0.194816 83 98 122 255
-0.070000 -0.135129 0.111368 77 83 111 255
0.070000 -0.135129 0.111367 76 82 110 255
0.070000 -0.036134 0.012373 76 82 110 255
-0.070000 -0.036134 0.012373 76 82 110 255
3 0 1 2
3 3 4 5
3 6 7 8
3 9 10 11
4 12 13 14 15
4 16 17 18 19
4 20 21 22 23
4 24 25 26 27
4 28 14 13 29
4 30 31 32 33
4 34 35 36 37
4 38 39 40 41
4 42 43 44 45
4 46 47 48 49
4 50 51 52 53
4 54 55 56 57
4 58 59 60 61
4 62 63 64 65
4 8 11 10 66
4 67 45 44 68
4 69 70 71 72
4 73 38 41 74
4 75 76 77 78
4 79 80 81 82
4 83 84 85 86
4 87 88 89 90
4 91 92 93 94
4 95 96 97 98
4 99 100 101 102
4 103 104 105 106
4 107 108 109 110
4 82 81 111 112
4 113 114 115 116
4 117 76 75 118
4 119 120 121 122
4 123 124 57 56
4 14 28 125 15
4 126 91 94 127
4 128 129 130 131
4 35 132 133 36
4 93 134 127 94
4 30 33 135 136
4 33 32 137 135
4 21 105 104 22
4 138 139 140 141
3 0 142 1
3 3 143 4
4 144 139 138 145
4 146 147 148 149
4 147 150 151 148
4 84 152 153 85
4 46 49 87 90
4 144 154 140 139
4 155 156 157 158
4 59 159 160 60
4 161 162 163 164
4 165 166 167 168
4 169 170 171 172
4 173 174 175 176
4 148 151 177 149
4 34 178 132 35
4 2 1 4 143
4 179 180 181 182
4 61 60 160 183
4 160 159 184 183
4 91 126 185 92
4 106 20 23 103
4 186 79 82 112
4 142 0 3 5
4 187 188 189 190
4 26 191 192 27
4 22 104 103 23
4 86 193 194 83
4 140 154 195 141
4 196 110 109 197
4 71 52 51 72
4 198 199 200 201
4 202 203 73 74
4 47 89 88 48
4 204 205 55 54
4 67 206 42 45
4 101 100 207 208
4 73 203 39 38
3 6 8 66
3 9 11 209
4 210 117 118 211
4 120 119 65 64
4 207 100 99 212
4 97 96 156 155
4 152 194 193 153
4 136 135 137 213
4 76 117 210 77
4 192 191 214 215
4 72 51 50 69
4 27 192 215 24
4 188 216 217 189
4 116 115 218 219
4 6 9 209 7
4 181 180 173 176
4 213 31 30 136
4 106 105 21 20
4 36 133 220 37
4 115 114 221 218
4 154 144 145 195
4 173 180 179 174
4 222 223 196 197
4 113 116 219 224
4 122 121 63 62
4 225 226 227 228
4 145 138 141 195
4 204 124 123 205
4 85 153 193 86
4 102 101 208 229
4 50 53 70 69
4 29 13 12 230
4 102 229 212 99
4 203 202 40 39
4 1 142 5 4
4 132 178 220 133
4 187 190 231 232
4 233 80 79 186
4 109 108 222 197
4 230 12 15 125
4 156 96 95 157
4 42 206 234 43
4 158 157 95 98
4 130 129 235 236
4 176 175 182 181
4 155 158 98 97
4 205 123 56 55
4 237 225 228 238
4 231 217 216 232
4 184 159 59 58
4 150 147 146 239
4 185 126 127 134
4 119 122 62 65
4 215 214 25 24
4 129 128 240 235
4 238 241 242 237
4 131 130 236 243
4 244 245 246 247
4 32 31 213 137
4 248 249 250 251
4 149 177 239 146
4 90 89 47 46
4 77 210 211 78
4 184 58 61 183
4 125 28 29 230
4 114 113 224 221
4 226 242 241 227
4 224 219 218 221
4 174 179 182 175
4 0 2 143 3
4 70 53 52 71
4 57 124 204 54
4 228 227 241 238
4 41 40 202 74
4 10 9 6 66
4 208 207 212 229
4 44 43 234 68
4 196 223 107 110
4 7 209 11 8
4 178 34 37 220
4 240 128 131 243
4 223 222 108 107
4 237 242 226 225
4 68 234 206 67
4 190 189 217 231
4 151 150 239 177
4 83 194 152 84
4 121 120 64 63
4 49 48 88 87
4 92 185 134 93
4 112 111 233 186
4 232 216 188 187
