ply
format ascii 1.0
comment Created by Blender 2.83.20 - www.blender.org, source file: 'RoofCornerInsideBlue.blend'
element vertex 288
property float x
property float y
property float z
property uchar red
property uchar green
property uchar blue
property uchar alpha
element face 162
property list uchar uint vertex_indices
end_header
-0.253647 -0.254140 -0.500000 187 119 80 255
-0.253647 -0.254140 0.500000 187 119 80 255
-0.173574 -0.194237 0.500000 187 119 80 255
-0.173574 -0.194237 -0.500000 187 119 80 255
-0.007225 -0.006817 -0.171031 90 102 126 255
-0.007225 -0.006817 0.188969 90 102 126 255
-0.055093 0.057281 0.188969 90 102 126 255
-0.055093 0.057281 -0.171031 90 102 126 255
0.536398 0.456864 0.194816 88 100 126 255
0.536398 0.456864 -0.165184 88 100 126 255
0.488530 0.520963 -0.165184 88 100 126 255
0.488530 0.520963 0.194816 88 100 126 255
0.200745 0.296712 0.140122 82 97 122 255
0.200745 0.296712 0.500122 82 97 122 255
0.489189 0.512118 0.500122 82 97 122 255
0.489189 0.512118 0.140122 82 97 122 255
-0.535877 -0.461399 -0.140060 85 101 122 255
-0.488008 -0.525497 -0.140060 85 101 122 255
-0.199564 -0.310091 -0.140060 85 101 122 255
-0.247432 -0.245993 -0.140060 85 101 122 255
0.495511 -0.194237 -0.170209 187 119 80 255
0.495262 -0.274310 -0.110307 187 119 80 255
0.495595 -0.334213 -0.190380 188 123 86 255
0.495844 -0.254140 -0.250281 187 119 80 255
0.281220 0.208589 -0.171031 85 99 126 255
0.233352 0.272687 -0.171031 90 102 126 255
0.507034 0.483055 -0.070000 170 109 73 255
0.507034 0.483055 0.070000 170 108 72 255
0.606029 0.384060 0.070000 170 108 72 255
0.606029 0.384060 -0.070000 171 109 72 255
0.544098 0.445258 -0.500028 86 101 122 255
0.544098 0.445258 -0.140028 86 101 122 255
0.255654 0.229852 -0.140028 86 101 122 255
0.255654 0.229852 -0.500028 86 101 122 255
0.496153 -0.481119 -0.324282 187 119 80 255
0.496486 -0.541022 -0.404355 188 123 86 255
0.496735 -0.460949 -0.464256 187 119 80 255
0.496402 -0.401046 -0.384184 187 119 80 255
0.493951 0.293951 0.211148 86 101 122 255
0.133954 0.293951 0.209649 86 101 122 255
0.132753 0.509357 0.498091 86 101 122 255
0.492750 0.509357 0.499590 86 101 122 255
-0.288648 -0.204461 -0.500053 90 105 126 255
-0.288648 -0.204461 -0.140053 90 105 126 255
-0.000204 0.010945 -0.140053 90 105 126 255
-0.000204 0.010945 -0.500053 90 105 126 255
0.493830 0.257986 0.252364 86 101 126 255
0.495031 0.042580 -0.036078 86 101 126 255
0.135034 0.042580 -0.037577 86 101 126 255
0.133833 0.257986 0.250865 87 101 127 255
0.537058 0.448019 0.140122 187 85 69 255
0.489189 0.512118 0.140122 187 85 69 255
0.200745 0.296712 0.140122 187 85 69 255
0.248613 0.232613 0.140122 187 85 69 255
-0.113672 -0.274311 -0.500000 187 119 80 255
-0.113672 -0.274310 0.500000 187 119 80 255
-0.193745 -0.334213 0.500000 188 122 85 255
-0.193745 -0.334213 -0.500000 188 123 86 255
0.047112 -0.044624 -0.161116 89 101 126 255
0.047112 -0.044624 0.198884 89 101 126 255
-0.257357 -0.271997 0.198884 89 101 126 255
-0.257357 -0.271997 -0.161116 89 101 126 255
0.164651 0.208589 0.283211 85 99 126 255
-0.195346 0.208589 0.281712 85 99 126 255
-0.194145 -0.006817 -0.006730 90 102 126 255
0.165852 -0.006817 -0.005231 90 102 126 255
-0.467624 -0.460949 -0.500000 187 119 80 255
-0.467624 -0.460949 0.500000 187 119 80 255
-0.387551 -0.401046 0.500000 187 119 80 255
-0.387551 -0.401046 -0.500000 187 119 80 255
-0.507362 0.512118 0.488385 82 97 122 255
-0.507561 0.448019 0.536252 82 97 122 255
-0.147564 0.448019 0.537751 82 97 122 255
-0.147365 0.512118 0.489883 82 97 122 255
-0.504730 -0.274310 -0.114471 187 119 80 255
-0.504396 -0.334213 -0.194543 188 122 85 255
-0.503256 -0.460949 -0.468420 187 119 80 255
-0.503589 -0.401046 -0.388348 187 119 80 255
0.494192 -0.022896 0.146631 187 119 80 255
-0.505800 -0.022896 0.142467 187 119 80 255
-0.505466 -0.082798 0.062395 188 122 85 255
0.494525 -0.082798 0.066558 188 123 86 255
-0.145462 -0.028305 0.013220 96 108 131 255
-0.505459 -0.028305 0.011721 90 103 128 255
-0.505260 0.035793 -0.036147 87 101 126 255
-0.145263 0.035793 -0.034648 88 102 127 255
0.233352 0.272687 0.188969 90 102 126 255
0.166051 0.057281 -0.053098 90 102 126 255
-0.193945 0.057281 -0.054597 90 102 126 255
-0.195147 0.272687 0.233845 90 102 126 255
0.164850 0.272687 0.235344 90 102 126 255
-0.073566 -0.615940 -0.392977 170 108 72 255
0.066432 -0.615940 -0.392394 170 108 72 255
0.062269 0.384060 0.607597 171 109 72 255
-0.077730 0.384060 0.607014 170 108 72 255
0.047664 -0.053154 -0.500053 90 105 126 255
0.047664 -0.053154 -0.140053 85 104 126 255
-0.240780 -0.268560 -0.140053 91 106 127 255
-0.240780 -0.268560 -0.500053 90 105 126 255
0.156979 -0.271997 -0.255403 89 101 126 255
-0.203018 -0.271997 -0.256901 89 101 126 255
-0.202818 -0.207898 -0.304769 89 101 126 255
0.157179 -0.207898 -0.303270 89 101 126 255
-0.000756 0.019475 0.198884 194 108 88 255
-0.000756 0.019475 -0.161116 194 108 88 255
0.047112 -0.044624 -0.161116 194 108 88 255
0.047112 -0.044624 0.198884 194 108 88 255
-0.488008 -0.525497 -0.500060 85 101 122 255
-0.535877 -0.461399 -0.500060 85 101 122 255
-0.145475 -0.050392 0.048362 85 98 121 255
-0.505472 -0.050392 0.046863 85 99 122 255
-0.504271 -0.265799 -0.241579 85 99 122 255
-0.144274 -0.265799 -0.240080 85 99 122 255
0.062681 0.483055 0.508603 170 109 73 255
-0.077318 0.483055 0.508020 170 108 72 255
-0.143646 -0.523886 -0.487307 87 98 122 255
-0.503643 -0.523886 -0.488806 86 98 122 255
-0.503443 -0.459787 -0.536674 86 98 122 255
-0.143446 -0.459787 -0.535175 86 98 122 255
0.253326 0.240401 -0.500000 187 119 80 255
0.313229 0.160328 -0.500000 188 123 86 255
0.313229 0.160328 0.500000 188 122 85 255
0.253326 0.240401 0.500000 187 119 80 255
0.393302 0.220230 0.500000 187 119 80 255
0.333399 0.300303 0.500000 187 119 80 255
0.493630 0.193888 0.300231 86 101 126 255
0.494831 -0.021519 0.011789 87 102 127 255
0.281220 0.208589 0.188969 85 99 126 255
-0.506660 0.187101 0.300163 87 101 126 255
-0.506461 0.251200 0.252295 87 101 126 255
0.003293 -0.002725 -0.500000 187 119 80 255
0.063195 -0.082798 -0.500000 188 123 86 255
0.063195 -0.082798 0.500000 188 122 85 255
0.003293 -0.002725 0.500000 187 119 80 255
0.537057 0.448019 0.500122 82 97 122 255
0.537058 0.448019 0.140122 82 97 122 255
-0.505272 0.013706 -0.001004 187 98 84 255
-0.505472 -0.050392 0.046863 187 98 84 255
-0.145475 -0.050392 0.048362 186 97 83 255
-0.145275 0.013706 0.000495 187 98 84 255
-0.199564 -0.310091 -0.140060 187 87 82 255
-0.199564 -0.310091 -0.500060 187 87 82 255
-0.247432 -0.245993 -0.500060 187 87 82 255
-0.247432 -0.245993 -0.140060 187 87 82 255
-0.504071 -0.201700 -0.289446 85 99 122 255
-0.144074 -0.201700 -0.287947 85 99 122 255
0.133633 0.193888 0.298732 86 101 126 255
0.134834 -0.021519 0.010291 86 101 126 255
0.493734 0.240401 0.256687 187 119 80 255
-0.506258 0.240401 0.252524 187 119 80 255
-0.506591 0.300303 0.332596 187 119 80 255
0.493400 0.300303 0.336760 187 119 80 255
0.155712 -0.044624 0.049064 89 101 126 255
-0.204285 -0.044624 0.047565 89 101 126 255
-0.144274 -0.265799 -0.240080 187 98 84 255
-0.144074 -0.201700 -0.287947 187 98 84 255
-0.503505 -0.541022 -0.408518 86 93 122 255
-0.503256 -0.460949 -0.468420 85 91 122 255
-0.503589 -0.401046 -0.388348 85 91 122 255
-0.503839 -0.481119 -0.328446 85 91 122 255
-0.204285 -0.044624 0.047565 194 108 88 255
0.155712 -0.044624 0.049064 194 108 88 255
0.155911 0.019475 0.001196 194 108 88 255
-0.204086 0.019475 -0.000303 194 108 88 255
0.248613 0.232613 0.140122 82 97 122 255
0.248613 0.232613 0.500122 82 97 122 255
-0.039442 0.042580 -0.500078 86 101 126 255
-0.039442 0.042580 -0.140078 86 101 126 255
0.249002 0.257986 -0.140078 87 101 127 255
0.249002 0.257986 -0.500078 86 101 126 255
-0.505272 0.013706 -0.001004 85 99 122 255
-0.145275 0.013706 0.000495 85 99 122 255
0.231929 0.229491 0.194816 199 120 100 255
0.184061 0.293589 0.194816 194 107 82 255
0.488530 0.520963 0.194816 194 107 82 255
0.536398 0.456864 0.194816 194 107 82 255
-0.504147 -0.254140 -0.254445 187 119 80 255
-0.504480 -0.194237 -0.174373 187 119 80 255
0.083366 0.057177 0.500000 187 119 80 255
0.083366 0.057177 -0.500000 187 119 80 255
0.231929 0.229491 -0.165184 88 100 126 255
0.184061 0.293589 -0.165184 88 100 126 255
-0.504844 -0.308480 -0.200364 86 98 122 255
-0.504644 -0.244381 -0.248232 90 101 124 255
-0.393971 -0.615940 0.070000 170 108 72 255
-0.393971 -0.615940 -0.070000 170 108 72 255
-0.492966 -0.516945 -0.070000 172 113 80 255
0.143268 -0.022896 0.500000 187 119 80 255
0.143268 -0.022896 -0.500000 187 119 80 255
0.231929 0.229491 0.194816 94 105 130 255
0.184061 0.293589 0.194816 88 100 126 255
-0.492966 -0.516945 0.070000 174 116 85 255
-0.204086 0.019475 -0.000303 89 101 126 255
0.296870 0.193888 -0.500078 86 101 126 255
0.008426 -0.021519 -0.500078 87 102 127 255
-0.506660 0.187101 0.300163 194 101 81 255
-0.146663 0.187101 0.301662 194 101 81 255
-0.146464 0.251200 0.253794 194 101 81 255
-0.506461 0.251200 0.252295 194 101 81 255
0.133755 0.229852 0.257516 86 101 122 255
0.132554 0.445258 0.545958 86 101 122 255
0.494775 -0.002725 0.006656 187 119 80 255
-0.505217 -0.002725 0.002493 187 119 80 255
-0.505550 0.057177 0.082565 187 119 80 255
0.494441 0.057177 0.086729 187 119 80 255
-0.146363 0.232613 0.249309 82 97 122 255
-0.506360 0.232613 0.247810 82 97 122 255
0.008426 -0.021519 -0.140078 86 101 126 255
-0.144847 -0.308480 -0.198866 86 98 122 255
-0.407721 -0.541022 -0.500000 188 123 86 255
-0.407721 -0.541022 0.500000 188 122 85 255
0.493151 0.220230 0.396662 187 119 80 255
-0.506841 0.220230 0.392498 187 119 80 255
-0.506507 0.160328 0.312426 188 122 85 255
0.493484 0.160328 0.316589 188 123 86 255
-0.240780 -0.268560 -0.140053 195 98 93 255
0.047664 -0.053154 -0.140053 194 75 72 255
-0.000204 0.010945 -0.140053 194 95 90 255
-0.288648 -0.204461 -0.140053 194 95 90 255
-0.145462 -0.028305 0.013220 200 121 106 255
-0.145263 0.035793 -0.034648 195 102 82 255
0.159209 0.293589 0.186029 88 100 126 255
-0.200788 0.293589 0.184530 88 100 126 255
-0.202056 0.520963 0.488997 88 100 126 255
0.157941 0.520963 0.490496 88 100 126 255
0.047664 -0.053154 -0.500053 194 95 90 255
-0.000204 0.010945 -0.500053 194 95 90 255
0.493751 0.229852 0.259015 86 101 122 255
-0.305225 -0.207898 -0.161116 89 101 126 255
-0.305225 -0.207898 0.198884 89 101 126 255
-0.000756 0.019475 0.198884 89 101 126 255
-0.000756 0.019475 -0.161116 89 101 126 255
-0.506161 0.296712 0.199943 82 97 122 255
-0.146164 0.296712 0.201442 82 97 122 255
0.296870 0.193888 -0.140078 86 101 126 255
-0.503505 -0.541022 -0.408518 188 122 85 255
0.134834 -0.021519 0.010291 194 93 73 255
0.133633 0.193888 0.298732 194 93 73 255
0.133833 0.257986 0.250865 195 95 75 255
0.135034 0.042580 -0.037577 194 93 73 255
0.207786 0.293950 -0.500028 86 101 122 255
0.207786 0.293950 -0.140028 86 101 122 255
0.496230 0.509357 -0.140028 86 101 122 255
0.496230 0.509357 -0.500028 86 101 122 255
0.157742 0.456864 0.538363 88 100 126 255
-0.202255 0.456864 0.536864 88 100 126 255
-0.200987 0.229491 0.232398 94 105 130 255
0.159010 0.229491 0.233897 88 100 126 255
-0.327648 -0.481119 0.500000 187 119 80 255
0.492550 0.445258 0.547457 86 101 122 255
-0.144647 -0.244381 -0.246733 86 98 122 255
-0.247432 -0.245993 -0.500060 85 101 122 255
0.493630 0.193888 0.300231 194 93 73 255
0.493830 0.257986 0.252364 194 93 73 255
0.393302 0.220230 -0.500000 187 119 80 255
0.333399 0.300303 -0.500000 187 119 80 255
-0.146464 0.251200 0.253794 87 101 126 255
-0.199564 -0.310091 -0.500060 85 101 122 255
0.008426 -0.021519 -0.140078 194 93 73 255
0.296870 0.193888 -0.140078 194 93 73 255
0.249002 0.257986 -0.140078 195 95 75 255
-0.039442 0.042580 -0.140078 194 93 73 255
-0.327648 -0.481119 -0.500000 187 119 80 255
0.255654 0.229852 -0.140028 187 92 87 255
0.544098 0.445258 -0.140028 187 92 87 255
0.496230 0.509357 -0.140028 187 93 88 255
0.207786 0.293950 -0.140027 187 92 87 255
-0.503839 -0.481119 -0.328446 187 119 80 255
0.066845 -0.516945 -0.491388 172 113 80 255
-0.073154 -0.516945 -0.491971 174 116 85 255
-0.504844 -0.308480 -0.200364 187 107 88 255
-0.504644 -0.244381 -0.248232 190 116 99 255
-0.144647 -0.244381 -0.246733 187 107 88 255
-0.144847 -0.308480 -0.198866 187 107 88 255
0.155911 0.019475 0.001196 89 101 126 255
0.281220 0.208589 0.188969 194 99 72 255
0.281220 0.208589 -0.171031 194 99 72 255
0.233352 0.272687 -0.171031 194 111 91 255
0.233352 0.272687 0.188969 194 111 91 255
0.296870 0.193888 -0.500078 194 93 73 255
0.249002 0.257986 -0.500078 194 93 73 255
-0.146663 0.187101 0.301662 87 101 126 255
0.164850 0.272687 0.235344 194 111 91 255
0.164651 0.208589 0.283211 194 99 72 255
0.165852 -0.006817 -0.005231 194 111 91 255
0.166051 0.057281 -0.053098 194 111 91 255
-0.195346 0.208589 0.281712 194 99 72 255
-0.195147 0.272687 0.233845 194 111 91 255
4 0 1 2 3
4 4 5 6 7
4 8 9 10 11
4 12 13 14 15
4 16 17 18 19
4 20 21 22 23
4 24 4 7 25
4 26 27 28 29
4 30 31 32 33
4 34 35 36 37
4 38 39 40 41
4 42 43 44 45
4 46 47 48 49
4 50 51 52 53
4 54 55 56 57
4 58 59 60 61
4 62 63 64 65
4 66 67 68 69
4 70 71 72 73
4 21 74 75 22
4 36 76 77 37
4 78 79 80 81
4 82 83 84 85
4 25 7 6 86
4 87 88 89 90
4 91 92 93 94
4 95 96 97 98
4 99 100 101 102
4 103 104 105 106
4 107 17 16 108
4 109 110 111 112
4 113 114 94 93
4 115 116 117 118
4 119 120 121 122
4 121 123 124 122
4 125 126 47 46
4 24 127 5 4
4 84 83 128 129
4 130 131 132 133
4 14 134 135 15
4 136 137 138 139
4 140 141 142 143
4 112 111 144 145
4 125 146 147 126
4 65 64 88 87
4 148 149 150 151
4 152 153 100 99
4 138 154 155 139
4 156 157 158 159
4 160 161 162 163
4 164 165 13 12
4 166 167 168 169
4 145 144 170 171
4 3 54 57 0
4 172 173 174 175
4 5 127 86 6
4 23 176 177 20
4 130 133 178 179
4 9 180 181 10
4 98 97 43 42
4 116 182 183 117
4 184 185 29 28
4 29 185 186 26
4 187 188 179 178
4 88 64 63 89
4 180 189 190 181
4 27 191 184 28
4 186 185 184 191
4 100 153 192 101
4 169 193 194 166
4 195 196 197 198
4 199 200 40 39
4 201 202 203 204
4 79 78 204 203
4 205 72 71 206
4 194 207 167 166
4 208 182 116 115
4 209 210 67 66
4 211 212 213 214
4 215 216 217 218
4 196 219 220 197
4 221 222 223 224
4 217 216 225 226
4 227 199 39 38
4 228 229 230 231
4 205 206 232 233
4 193 234 207 194
4 80 79 203 202
4 165 134 14 13
4 35 235 76 36
4 74 21 20 177
4 95 98 42 45
4 58 61 228 231
4 55 54 3 2
4 236 237 238 239
4 240 241 242 243
4 244 245 246 247
4 246 245 223 222
4 214 213 149 148
4 67 210 248 68
4 249 200 199 227
4 208 115 118 250
4 108 16 19 251
4 249 227 38 41
4 30 33 240 243
4 237 252 253 238
4 254 120 119 255
4 211 214 148 151
4 61 60 229 228
4 85 84 129 256
4 179 188 131 130
4 247 246 222 221
4 107 257 18 17
4 251 257 107 108
4 60 59 230 229
4 206 71 70 232
4 180 9 8 189
4 258 259 260 261
4 248 262 69 68
4 188 187 132 131
4 132 187 178 133
4 263 264 265 266
4 212 211 151 150
4 119 122 124 255
4 77 267 34 37
4 81 80 202 201
4 244 247 221 224
4 268 269 114 113
4 123 254 255 124
4 213 212 150 149
4 75 74 177 176
4 270 271 272 273
4 200 249 41 40
4 181 190 11 10
4 56 55 2 1
4 152 99 102 274
4 254 123 121 120
4 135 134 165 164
4 275 276 277 278
4 186 191 27 26
4 92 91 269 268
4 47 126 147 48
4 269 91 94 114
4 57 56 1 0
4 72 205 233 73
4 259 279 280 260
4 204 78 81 201
4 281 128 83 82
4 282 283 284 285
4 92 268 113 93
4 118 117 183 250
4 274 102 101 192
4 262 248 210 209
4 233 232 70 73
4 245 244 224 223
4 286 283 282 287
4 31 30 243 242
4 33 32 241 240
4 22 75 176 23
4 111 110 170 144
4 35 34 267 235
4 69 262 209 66
