ply
format ascii 1.0
comment Created by Blender 2.83.20 - www.blender.org, source file: 'rooftiledvbothblue.blend'
element vertex 180
property float x
property float y
property float z
property float s
property float t
property uchar red
property uchar green
property uchar blue
property uchar alpha
element face 138
property list uchar uint vertex_indices
end_header
0.000064 -0.278745 0.535161 -8.999977 -9.000005 223 206 197 255
0.500209 -0.739998 0.535160 -8.999952 -9.000025 224 208 199 255
0.500151 -0.499998 0.535160 -8.999952 -9.000010 223 206 197 255
0.500151 -0.499998 0.495160 -8.999954 -9.000010 225 209 200 255
0.500209 -0.739998 0.495160 -8.999953 -9.000025 223 206 197 255
0.000064 -0.278745 0.495161 -8.999979 -9.000005 227 212 204 255
0.000091 -0.278744 0.535161 -8.999977 -9.000005 223 206 197 255
-0.499995 -0.499998 0.535160 -9.000002 -9.000027 223 206 197 255
-0.500053 -0.739998 0.535160 -9.000001 -9.000041 224 208 199 255
-0.499995 -0.499998 0.495160 -9.000003 -9.000026 225 209 200 255
0.000091 -0.278744 0.495161 -8.999979 -9.000005 227 212 204 255
-0.500053 -0.739998 0.495160 -9.000003 -9.000041 223 206 197 255
0.000077 -0.278744 -0.497406 -9.000021 -8.999988 223 206 197 255
0.500209 -0.739998 -0.497406 -8.999996 -9.000008 224 208 199 255
0.500151 -0.499998 -0.497406 -8.999996 -8.999992 223 206 197 255
0.500151 -0.499998 -0.537406 -8.999998 -8.999992 225 209 200 255
0.500209 -0.739998 -0.537406 -8.999998 -9.000007 223 206 197 255
0.000077 -0.278744 -0.537406 -9.000023 -8.999987 227 212 204 255
-0.499995 -0.499998 -0.497406 -9.000046 -9.000009 223 206 197 255
-0.500053 -0.739998 -0.497406 -9.000046 -9.000024 224 208 199 255
-0.499995 -0.499998 -0.537406 -9.000048 -9.000008 225 209 200 255
-0.500053 -0.739998 -0.537406 -9.000047 -9.000023 223 206 197 255
0.250000 -0.500000 0.500000 0.750000 0.000000 255 255 255 255
0.000000 -0.250000 0.500000 0.500000 0.250000 255 255 255 255
-0.250000 -0.500000 0.500000 0.250000 0.000000 255 255 255 255
-0.013517 -0.260725 0.408512 -8.999983 -9.000002 171 109 72 255
0.255473 -0.500148 0.418872 -8.999969 -9.000012 171 109 72 255
-0.250840 -0.500148 0.418872 -8.999994 -9.000021 171 109 72 255
0.250508 -0.499101 -0.411207 -9.000005 -8.999998 171 109 72 255
-0.001926 -0.254130 -0.421569 -9.000018 -8.999987 171 109 72 255
-0.271874 -0.499101 -0.411207 -9.000031 -9.000007 171 109 72 255
-0.000000 -0.250000 -0.500000 0.500000 0.250000 255 255 255 255
0.250000 -0.500000 -0.500000 0.250000 0.000000 255 255 255 255
-0.250000 -0.500000 -0.500000 0.750000 0.000000 255 255 255 255
0.488165 -0.525497 -0.140060 -8.999982 -9.000001 85 101 122 255
0.536033 -0.461399 -0.140060 -8.999979 -8.999996 85 101 122 255
0.247588 -0.245993 -0.140060 -8.999993 -8.999988 85 101 122 255
0.199720 -0.310091 -0.140060 -8.999996 -8.999992 85 101 122 255
0.407878 -0.541022 0.487909 -8.999959 -9.000013 188 122 85 255
0.467780 -0.460949 0.487909 -8.999956 -9.000008 187 119 80 255
0.387707 -0.401046 0.487909 -8.999960 -9.000006 187 119 80 255
0.327804 -0.481120 0.487909 -8.999963 -9.000011 187 119 80 255
0.193901 -0.334213 -0.500000 -9.000011 -8.999988 188 123 86 255
0.253803 -0.254140 -0.500000 -9.000009 -8.999982 187 119 80 255
0.253803 -0.254140 0.487909 -8.999967 -8.999999 187 119 80 255
0.193901 -0.334213 0.487909 -8.999969 -9.000005 188 122 85 255
-0.407721 -0.541022 0.487909 -8.999999 -9.000027 188 122 85 255
-0.327648 -0.481120 0.487909 -8.999995 -9.000022 187 119 80 255
-0.387550 -0.401046 0.487909 -8.999998 -9.000018 187 119 80 255
-0.467624 -0.460949 0.487909 -9.000002 -9.000023 187 119 80 255
0.224062 -0.300683 -0.165184 -8.999996 -8.999990 83 98 122 255
0.512506 -0.516089 -0.165184 -8.999982 -8.999999 83 98 122 255
0.512506 -0.516089 0.194816 -8.999966 -9.000006 83 98 122 255
0.224062 -0.300683 0.194816 -8.999981 -8.999997 83 98 122 255
-0.535876 -0.459787 0.556250 -9.000002 -9.000025 86 98 122 255
-0.488008 -0.523886 0.556250 -9.000000 -9.000029 86 98 122 255
-0.199564 -0.308480 0.556250 -8.999986 -9.000010 86 98 122 255
-0.247432 -0.244381 0.556250 -8.999989 -9.000008 90 101 124 255
0.000078 -0.050392 0.188281 -8.999992 -8.999985 85 98 121 255
-0.000063 0.013706 0.188281 -8.999992 -8.999981 85 99 122 255
0.288804 -0.201700 0.188281 -8.999978 -8.999990 85 99 122 255
0.240936 -0.265799 0.188281 -8.999980 -8.999994 85 99 122 255
0.240936 -0.268560 -0.560294 -9.000012 -8.999982 90 105 126 255
0.288804 -0.204461 -0.560294 -9.000010 -8.999977 90 105 126 255
0.288804 -0.204461 -0.140053 -8.999991 -8.999984 90 105 126 255
0.240936 -0.268560 -0.140053 -8.999994 -8.999989 91 106 127 255
0.488164 -0.523886 0.188683 -8.999968 -9.000006 87 98 122 255
0.536033 -0.459787 0.188682 -8.999966 -9.000002 86 98 122 255
0.536033 -0.459787 0.556250 -8.999949 -9.000008 86 98 122 255
0.488165 -0.523886 0.556250 -8.999951 -9.000012 86 98 122 255
0.000078 -0.044624 -0.161116 -9.000007 -8.999979 89 101 126 255
0.257513 -0.271997 -0.161116 -8.999994 -8.999989 89 101 126 255
0.257513 -0.271997 0.198884 -8.999979 -8.999994 89 101 126 255
0.000078 -0.044624 0.198884 -8.999991 -8.999985 89 101 126 255
0.305381 -0.207898 -0.161116 -8.999991 -8.999984 89 101 126 255
0.305381 -0.207898 0.198884 -8.999976 -8.999990 89 101 126 255
0.327804 -0.481120 -0.500000 -9.000005 -8.999994 187 119 80 255
0.387707 -0.401046 -0.500000 -9.000002 -8.999989 187 119 80 255
0.467780 -0.460949 -0.500000 -8.999998 -8.999990 187 119 80 255
0.407878 -0.541022 -0.500000 -9.000001 -8.999996 188 123 86 255
-0.250000 -0.500000 0.500000 -8.999990 -9.000022 171 109 72 255
0.000000 -0.250000 0.500000 -8.999978 -9.000003 171 109 72 255
0.247588 -0.245993 -0.560302 -9.000011 -8.999980 85 101 122 255
0.536033 -0.461399 -0.560301 -8.999997 -8.999989 85 101 122 255
0.488164 -0.525497 -0.560301 -9.000000 -8.999993 85 101 122 255
0.199720 -0.310091 -0.560301 -9.000014 -8.999985 85 101 122 255
-0.240780 -0.268560 -0.564452 -9.000036 -8.999990 90 105 126 255
-0.240780 -0.268560 -0.140053 -9.000018 -8.999997 91 106 127 255
-0.288648 -0.204461 -0.140053 -9.000020 -8.999993 90 105 126 255
-0.288648 -0.204461 -0.564452 -9.000038 -8.999987 90 105 126 255
-0.002525 -0.053154 -0.562373 -9.000025 -8.999972 90 105 126 255
0.000172 0.010945 -0.561680 -9.000024 -8.999969 90 105 126 255
0.000078 -0.050392 0.557012 -8.999976 -8.999991 85 99 122 255
-0.240780 -0.265799 0.555848 -8.999988 -9.000009 85 99 122 255
-0.240780 -0.265799 0.188281 -9.000004 -9.000002 85 99 122 255
-0.000200 0.019475 -0.161116 -9.000007 -8.999975 89 101 126 255
0.247588 -0.244381 0.556250 -8.999964 -8.999999 90 101 124 255
0.199720 -0.308480 0.556250 -8.999967 -9.000004 86 98 122 255
0.113828 -0.274310 -0.500000 -9.000015 -8.999985 187 119 80 255
0.113828 -0.274310 0.487909 -8.999973 -9.000002 187 119 80 255
-0.223906 -0.300683 -0.165184 -9.000018 -8.999998 83 98 122 255
-0.512350 -0.516089 -0.165184 -9.000032 -9.000016 83 98 122 255
-0.560218 -0.451990 -0.165184 -9.000034 -9.000012 83 98 122 255
-0.271774 -0.236584 -0.165184 -9.000020 -8.999995 83 98 122 255
0.271930 -0.236584 -0.165184 -8.999993 -8.999986 83 98 122 255
0.560374 -0.451990 -0.165184 -8.999979 -8.999994 83 98 122 255
0.247588 -0.244381 0.188682 -8.999980 -8.999993 86 98 122 255
0.199720 -0.308480 0.188682 -8.999982 -8.999998 86 98 122 255
-0.223906 -0.300683 0.194816 -9.000003 -9.000004 83 98 122 255
-0.512350 -0.516089 0.194816 -9.000016 -9.000022 83 98 122 255
-0.199564 -0.308480 0.188682 -9.000002 -9.000004 86 98 122 255
-0.488008 -0.523886 0.188683 -9.000015 -9.000022 87 98 122 255
0.000172 0.010945 -0.140053 -9.000006 -8.999976 90 105 126 255
0.000078 -0.053154 -0.140053 -9.000006 -8.999980 85 104 126 255
-0.535876 -0.459787 0.188682 -9.000018 -9.000019 86 98 122 255
-0.247432 -0.244381 0.188682 -9.000004 -9.000001 86 98 122 255
-0.393971 -0.615940 -0.070000 -9.000022 -9.000022 170 108 72 255
-0.393971 -0.615940 0.070000 -9.000016 -9.000024 170 108 72 255
-0.454403 -0.562335 0.070000 -9.000019 -9.000022 174 116 85 255
-0.454403 -0.562335 -0.070000 -9.000025 -9.000019 172 113 80 255
-0.247432 -0.245993 -0.140060 -9.000018 -8.999995 85 101 122 255
-0.199564 -0.310091 -0.140060 -9.000015 -8.999999 85 101 122 255
-0.199564 -0.310091 -0.560302 -9.000033 -8.999991 85 101 122 255
-0.247432 -0.245993 -0.560302 -9.000036 -8.999989 85 101 122 255
-0.305225 -0.207898 -0.161116 -9.000022 -8.999993 89 101 126 255
-0.305225 -0.207898 0.198884 -9.000007 -9.000000 89 101 126 255
0.000078 0.019475 0.198884 -8.999991 -8.999981 89 101 126 255
0.224062 -0.300683 0.194816 -8.999981 -8.999997 187 88 74 255
0.224062 -0.300683 -0.165184 -8.999996 -8.999990 187 88 74 255
0.271930 -0.236584 -0.165184 -8.999993 -8.999986 187 88 74 255
0.271930 -0.236584 0.194816 -8.999978 -8.999992 187 88 74 255
-0.257357 -0.271997 -0.161116 -9.000019 -8.999997 89 101 126 255
-0.257357 -0.271997 0.198884 -9.000004 -9.000003 89 101 126 255
-0.560218 -0.451990 0.194816 -9.000019 -9.000019 83 98 122 255
-0.271774 -0.236584 0.194816 -9.000005 -9.000001 83 98 122 255
-0.407721 -0.541022 -0.500000 -9.000041 -9.000010 188 123 86 255
-0.467624 -0.460949 -0.500000 -9.000044 -9.000006 187 119 80 255
-0.488008 -0.525497 -0.560301 -9.000048 -9.000010 85 101 122 255
-0.488008 -0.525498 -0.140060 -9.000030 -9.000016 85 101 122 255
-0.535876 -0.461399 -0.140060 -9.000032 -9.000013 85 101 122 255
-0.000396 -0.079859 0.070000 -8.999997 -8.999985 170 108 72 255
-0.000396 -0.079859 -0.070000 -9.000003 -8.999983 170 109 73 255
-0.535876 -0.461399 -0.560301 -9.000051 -9.000006 85 101 122 255
-0.000674 -0.038746 0.535161 -8.999977 -8.999990 223 206 197 255
-0.000728 -0.038746 0.495160 -8.999979 -8.999990 223 206 197 255
-0.288648 -0.201700 0.188281 -9.000006 -8.999999 85 99 122 255
-0.288648 -0.201700 0.555848 -8.999990 -9.000006 85 99 122 255
0.000500 0.013709 0.558347 -8.999976 -8.999988 85 99 122 255
0.173730 -0.194237 0.487909 -8.999970 -8.999996 187 119 80 255
-0.113671 -0.274310 -0.500000 -9.000027 -8.999989 187 119 80 255
-0.113671 -0.274310 0.487909 -8.999985 -9.000006 187 119 80 255
-0.193745 -0.334213 0.487909 -8.999989 -9.000010 188 122 85 255
-0.193745 -0.334213 -0.500000 -9.000031 -8.999993 188 123 86 255
0.001073 -0.131150 -0.070000 -9.000003 -8.999986 171 109 72 255
0.001073 -0.131150 0.070000 -8.999997 -8.999989 170 108 72 255
0.173730 -0.194237 -0.500000 -9.000012 -8.999979 187 119 80 255
0.240936 -0.265799 0.558176 -8.999964 -9.000001 85 99 122 255
0.394127 -0.615940 -0.070000 -8.999983 -9.000009 170 108 72 255
0.447542 -0.563224 -0.070000 -8.999981 -9.000005 172 113 80 255
-0.387550 -0.401046 -0.500000 -9.000040 -9.000001 187 119 80 255
0.250000 -0.500000 -0.500000 -9.000009 -8.999996 171 109 72 255
-0.000000 -0.250000 -0.500000 -9.000021 -8.999986 171 109 72 255
-0.173574 -0.194237 0.487909 -8.999988 -9.000002 187 119 80 255
-0.253647 -0.254140 0.487909 -8.999991 -9.000007 187 119 80 255
-0.327648 -0.481120 -0.500000 -9.000037 -9.000005 187 119 80 255
0.394127 -0.615940 0.070000 -8.999977 -9.000011 170 108 72 255
0.560374 -0.451990 0.194816 -8.999964 -9.000001 83 98 122 255
0.271930 -0.236584 0.194816 -8.999978 -8.999992 83 98 122 255
0.447542 -0.563224 0.070000 -8.999974 -9.000008 174 116 85 255
0.288804 -0.201700 0.558176 -8.999962 -8.999996 85 99 122 255
0.250000 -0.500000 0.500000 -8.999966 -9.000014 171 109 72 255
-0.253647 -0.254140 -0.500000 -9.000034 -8.999990 187 119 80 255
-0.173574 -0.194237 -0.500000 -9.000030 -8.999985 187 119 80 255
-0.000675 -0.038746 -0.537406 -9.000023 -8.999972 223 206 197 255
-0.000675 -0.038746 -0.497406 -9.000021 -8.999972 223 206 197 255
-0.250000 -0.500000 -0.500000 -9.000033 -9.000005 171 109 72 255
-0.271774 -0.236584 0.194816 -9.000005 -9.000001 83 98 122 255
-0.223906 -0.300683 0.194816 -9.000003 -9.000004 83 98 122 255
-0.223906 -0.300683 -0.165184 -9.000018 -8.999998 83 98 122 255
-0.271774 -0.236584 -0.165184 -9.000020 -8.999995 83 98 122 255
3 0 1 2
3 3 4 5
3 6 7 8
3 9 10 11
3 12 13 14
3 15 16 17
3 12 18 19
3 20 17 21
3 22 23 24
3 25 26 27
3 28 29 30
3 31 32 33
4 34 35 36 37
4 38 39 40 41
4 42 43 44 45
4 46 47 48 49
4 50 51 52 53
4 54 55 56 57
4 58 59 60 61
4 62 63 64 65
4 66 67 68 69
4 70 71 72 73
4 11 8 7 9
4 71 74 75 72
4 76 77 78 79
4 27 80 81 25
4 82 83 84 85
4 86 87 88 89
4 90 86 89 91
4 58 92 93 94
4 70 95 74 71
4 16 15 14 13
4 68 96 97 69
4 98 42 45 99
4 100 101 102 103
4 50 104 105 51
4 106 67 66 107
4 79 78 39 38
4 100 108 109 101
4 84 34 37 85
4 110 56 55 111
4 64 112 113 65
4 110 111 114 115
4 116 117 118 119
4 120 121 122 123
4 89 88 112 91
4 124 125 126 95
4 37 36 82 85
4 127 128 129 130
4 131 132 125 124
4 133 109 108 134
4 135 46 49 136
4 111 55 54 114
4 70 131 124 95
4 137 122 121 138
4 87 113 112 88
4 139 138 121 120
4 114 54 57 115
4 19 21 17 12
4 90 113 87 86
4 119 118 140 141
4 137 138 139 142
4 9 7 143 144
4 62 65 113 90
4 145 146 147 59
4 45 44 148 99
4 149 150 151 152
4 117 116 153 154
4 43 155 148 44
4 61 156 92 58
4 94 93 146 145
4 83 82 36 35
4 97 96 106 107
4 157 153 141 158
4 136 49 48 159
4 29 28 160 161
4 76 79 38 41
4 151 150 162 163
4 146 93 92 147
4 91 63 62 90
4 70 73 132 131
4 78 77 40 39
4 47 164 159 48
4 165 154 153 157
4 106 96 68 67
4 21 19 18 20
4 63 91 112 64
4 166 167 53 52
4 51 105 166 52
4 84 83 35 34
4 157 158 168 165
4 41 40 77 76
4 156 169 147 92
4 74 95 126 75
4 158 141 140 168
4 116 119 141 153
4 1 0 5 4
4 140 154 165 168
4 26 170 80 27
4 59 147 169 60
4 142 139 120 123
4 155 43 42 98
4 66 69 97 107
4 101 109 133 102
4 164 135 136 159
4 56 110 115 57
4 152 151 163 171
4 104 167 166 105
4 172 149 152 171
4 99 148 155 98
4 171 163 162 172
4 4 3 2 1
4 15 173 174 14
4 132 73 126 125
4 122 137 142 123
3 0 2 143
4 13 12 17 16
3 3 5 144
4 61 60 169 156
4 150 149 172 162
3 6 143 7
4 20 18 174 173
3 9 144 10
4 59 58 94 145
3 12 14 174
4 3 144 143 2
3 15 17 173
4 8 11 10 6
3 12 174 18
4 164 47 46 135
3 20 173 17
4 72 75 126 73
4 175 30 29 161
4 160 28 30 175
4 81 170 26 25
4 140 118 117 154
4 176 177 178 179
4 103 102 133 134
