ply
format ascii 1.0
comment Created in Blender version 4.1.1
element vertex 56
property float x
property float y
property float z
property uchar red
property uchar green
property uchar blue
property uchar alpha
element face 44
property list uchar uint vertex_indices
end_header
0.2074989 0.22241116 -0.4208742 179 122 72 255
0.5351597 0.45184174 -0.4208742 155 100 58 255
0.2074989 0.22241116 0.42417097 179 122 72 255
0.5351597 0.45184174 0.42417097 155 100 58 255
0.1730843 0.27156028 -0.4208742 179 122 72 255
0.5007451 0.50099087 -0.4208742 155 100 58 255
0.1730843 0.27156028 0.42417097 179 122 72 255
0.5007451 0.50099087 0.42417097 155 100 58 255
-0.046449423 -0.030212253 -0.42087418 179 122 72 255
0.28121147 0.19921836 -0.42087418 155 100 58 255
-0.046449423 -0.030212253 0.42417103 179 122 72 255
0.28121147 0.19921836 0.42417103 155 100 58 255
-0.08086401 0.018936872 -0.42087418 179 122 72 255
0.24679688 0.24836749 -0.42087418 155 100 58 255
-0.08086401 0.018936872 0.42417103 179 122 72 255
0.24679688 0.24836749 0.42417103 155 100 58 255
-0.29527763 -0.28219688 -0.42087415 179 122 72 255
0.032383323 -0.052766263 -0.42087415 155 100 58 255
-0.29527763 -0.28219688 0.42417103 179 122 72 255
0.032383323 -0.052766263 0.42417103 155 100 58 255
-0.3296922 -0.23304778 -0.42087415 179 122 72 255
-0.0020312667 -0.0036171377 -0.42087415 155 100 58 255
-0.3296922 -0.23304778 0.42417103 179 122 72 255
-0.0020312667 -0.0036171377 0.42417103 155 100 58 255
-0.5196495 -0.5157268 -0.42087412 179 122 72 255
-0.19198868 -0.2862962 -0.42087412 155 100 58 255
-0.5196495 -0.5157268 0.4241711 179 122 72 255
-0.19198868 -0.2862962 0.4241711 155 100 58 255
-0.55406415 -0.46657765 -0.42087412 179 122 72 255
-0.22640327 -0.2371471 -0.42087412 155 100 58 255
-0.55406415 -0.46657765 0.4241711 179 122 72 255
-0.22640327 -0.2371471 0.4241711 155 100 58 255
-0.50000024 -0.5118313 0.39999998 109 69 40 255
0.49999946 0.4876296 0.39999998 109 69 40 255
-0.50000024 -0.5118313 0.5 109 69 40 255
0.49999946 0.4876296 0.5 109 69 40 255
-0.50000024 -0.37046218 0.39999995 109 69 40 255
0.4999985 0.6290461 0.39999998 109 69 40 255
-0.50000024 -0.37046218 0.5 109 69 40 255
0.4999985 0.6290461 0.5 109 69 40 255
-0.50000024 -0.5118313 -0.5 109 69 40 255
0.49999946 0.4876296 -0.5 109 69 40 255
-0.50000024 -0.5118313 -0.39999998 109 69 40 255
0.49999946 0.4876296 -0.39999998 109 69 40 255
-0.50000024 -0.37046218 -0.5 109 69 40 255
0.4999985 0.6290461 -0.5 109 69 40 255
-0.50000024 -0.37046218 -0.4 109 69 40 255
0.4999985 0.6290461 -0.39999998 109 69 40 255
-0.5879549 -0.59946907 0.49435726 109 69 40 255
-0.5879549 -0.59946907 0.3954858 109 69 40 255
-0.58795476 -0.45969522 0.49435726 109 69 40 255
-0.58795476 -0.45969522 0.39548576 109 69 40 255
-0.5879549 -0.59946907 -0.39548585 109 69 40 255
-0.5879549 -0.59946907 -0.49435732 109 69 40 255
-0.58795476 -0.45969522 -0.39548588 109 69 40 255
-0.58795476 -0.45969522 -0.49435738 109 69 40 255
4 0 1 3 2
4 2 3 7 6
4 6 7 5 4
4 4 5 1 0
4 2 6 4 0
4 7 3 1 5
4 8 9 11 10
4 10 11 15 14
4 14 15 13 12
4 12 13 9 8
4 10 14 12 8
4 15 11 9 13
4 16 17 19 18
4 18 19 23 22
4 22 23 21 20
4 20 21 17 16
4 18 22 20 16
4 23 19 17 21
4 24 25 27 26
4 26 27 31 30
4 30 31 29 28
4 28 29 25 24
4 26 30 28 24
4 31 27 25 29
4 32 33 35 34
4 34 35 39 38
4 38 39 37 36
4 36 37 33 32
4 36 32 49 51
4 39 35 33 37
4 40 41 43 42
4 42 43 47 46
4 46 47 45 44
4 44 45 41 40
4 40 42 52 53
4 47 43 41 45
4 48 50 51 49
4 52 54 55 53
4 46 44 55 54
4 34 38 50 48
4 44 40 53 55
4 32 34 48 49
4 38 36 51 50
4 42 46 54 52
