ply
format ascii 1.0
comment Created in Blender version 4.2.3 LTS
element vertex 66
property float x
property float y
property float z
property uchar red
property uchar green
property uchar blue
property uchar alpha
element face 62
property list uchar uint vertex_indices
end_header
0.4208725 0.22241116 0.20749766 179 122 72 255
0.4780161 0.45184177 0.47966477 155 100 58 255
0.18814078 0.22241116 0.18686534 179 122 72 255
0.45208412 0.4887036 0.44512558 155 100 58 255
0.4208725 0.27156028 0.17308308 179 122 72 255
0.1709335 0.27156028 0.16965806 179 122 72 255
0.42087248 -0.030212253 -0.046450645 179 122 72 255
0.42087248 0.19921836 0.28121024 155 100 58 255
-0.080188304 -0.030212253 -0.075778484 179 122 72 255
0.24348675 0.19921838 0.24126437 155 100 58 255
0.42087248 0.018936872 -0.080865234 179 122 72 255
0.42087248 0.24836749 0.24679565 155 100 58 255
-0.097395584 0.018936843 -0.09298578 179 122 72 255
0.22627945 0.24836749 0.22405706 155 100 58 255
0.42087245 -0.28219688 -0.29527885 179 122 72 255
0.42087245 -0.052766263 0.03238207 155 100 58 255
-0.29575798 -0.28219688 -0.2932989 179 122 72 255
-0.024283836 -0.052766263 -0.01953739 155 100 58 255
0.42087245 -0.23304778 -0.32969344 179 122 72 255
0.42087245 -0.0036171377 -0.0020324886 155 100 58 255
-0.329484 -0.23304784 -0.32760447 179 122 72 255
-0.041491132 -0.0036171377 -0.036744684 155 100 58 255
0.42087242 -0.5157268 -0.51965076 179 122 72 255
0.42087242 -0.2862962 -0.19198996 155 100 58 255
-0.5196964 -0.51572675 -0.51961553 179 122 72 255
-0.25428113 -0.2862962 -0.25155777 155 100 58 255
0.42087242 -0.46657765 -0.5540654 179 122 72 255
0.42087242 -0.2371471 -0.22640449 155 100 58 255
-0.5540572 -0.46657765 -0.55406886 179 122 72 255
-0.27148843 -0.23714703 -0.2687651 155 100 58 255
0.4999983 -0.5118313 -0.50000143 109 69 40 255
0.4999983 0.4876296 0.4999982 109 69 40 255
0.39999828 -0.5118313 -0.50000143 109 69 40 255
0.39999828 0.4876296 0.48197532 109 69 40 255
0.49999833 -0.37046218 -0.50000143 109 69 40 255
0.49999836 0.6290461 0.4999987 109 69 40 255
0.3999983 -0.37046218 -0.50000143 109 69 40 255
0.3999844 0.5290468 0.39999688 109 69 40 255
0.39548415 -0.59946907 -0.5879561 109 69 40 255
0.49435562 -0.59946907 -0.5879561 109 69 40 255
0.39548418 -0.45969522 -0.587956 109 69 40 255
0.49435568 -0.45969522 -0.587956 109 69 40 255
0.2074989 0.22241117 0.42417103 179 122 72 255
0.17308432 0.27156028 0.424171 179 122 72 255
-0.046449408 -0.030212283 0.4241711 179 122 72 255
0.28121147 0.19921836 0.4241711 155 100 58 255
-0.080864 0.018936872 0.42417106 179 122 72 255
0.24679689 0.24836749 0.4241711 155 100 58 255
-0.29527763 -0.28219688 0.4241711 179 122 72 255
0.032383308 -0.052766234 0.4241711 155 100 58 255
-0.3296922 -0.23304784 0.4241711 179 122 72 255
-0.0020312534 -0.0036171377 0.42417106 155 100 58 255
-0.5196495 -0.5157268 0.42417112 179 122 72 255
-0.19198872 -0.28629625 0.42417112 155 100 58 255
-0.55406415 -0.46657765 0.42417112 179 122 72 255
-0.22640325 -0.2371471 0.42417112 155 100 58 255
-0.5000002 -0.5118314 0.40000007 109 69 40 255
0.48116532 0.4876296 0.40000004 109 69 40 255
-0.5000002 -0.51183134 0.5 109 69 40 255
0.49999943 0.48762962 0.50000006 109 69 40 255
-0.5000002 -0.37046212 0.39999995 109 69 40 255
-0.5000002 -0.37046212 0.5 109 69 40 255
-0.5879548 -0.59946907 0.49435735 109 69 40 255
-0.5879548 -0.59946907 0.39548588 109 69 40 255
-0.58795476 -0.45969522 0.49435732 109 69 40 255
-0.58795476 -0.45969522 0.39548582 109 69 40 255
4 0 1 3 2
3 2 3 5
3 5 3 4
4 4 3 1 0
4 2 5 4 0
4 6 7 9 8
4 8 9 13 12
4 12 13 11 10
4 10 11 7 6
4 8 12 10 6
4 13 9 7 11
4 14 15 17 16
4 16 17 21 20
4 20 21 19 18
4 18 19 15 14
4 16 20 18 14
4 21 17 15 19
4 22 23 25 24
4 24 25 29 28
4 28 29 27 26
4 26 27 23 22
4 24 28 26 22
4 29 25 23 27
4 30 31 33 32
4 32 33 37 36
4 36 37 35 34
4 34 35 31 30
4 30 32 38 39
4 37 33 31 35
4 38 40 41 39
4 36 34 41 40
4 34 30 39 41
4 32 36 40 38
4 2 3 1 42
4 42 1 3 43
3 43 3 5
4 42 43 5 2
4 8 9 45 44
4 44 45 47 46
4 46 47 13 12
4 44 46 12 8
4 47 45 9 13
4 16 17 49 48
4 48 49 51 50
4 50 51 21 20
4 48 50 20 16
4 51 49 17 21
4 24 25 53 52
4 52 53 55 54
4 54 55 29 28
4 52 54 28 24
4 55 53 25 29
4 56 57 59 58
4 58 59 35 61
4 61 35 37 60
4 60 37 57 56
4 60 56 63 65
4 35 59 57 37
4 62 64 65 63
4 58 61 64 62
4 56 58 62 63
4 61 60 65 64
