ply
format ascii 1.0
comment Created in Blender version 4.2.3 LTS
element vertex 87
property float x
property float y
property float z
property uchar red
property uchar green
property uchar blue
property uchar alpha
element face 68
property list uchar uint vertex_indices
end_header
0.2074989 0.22241116 -0.4208742 179 122 72 255
0.5351597 0.45184174 -0.4208742 155 100 58 255
0.2074989 0.22241116 0.34444177 179 122 72 255
0.5351597 0.45184174 0.50061995 155 100 58 255
0.1730843 0.27156028 -0.4208742 179 122 72 255
0.5007451 0.50099087 -0.4208742 155 100 58 255
0.1730843 0.27156028 0.34444177 179 122 72 255
0.5007167 0.50099087 0.50068206 155 100 58 255
-0.046449423 -0.030212253 -0.42087418 179 122 72 255
0.28121147 0.19921836 -0.42087418 155 100 58 255
-0.046449423 -0.030212253 0.071480125 179 122 72 255
0.28121147 0.19921836 0.29582506 155 100 58 255
-0.08086401 0.018936872 -0.42087418 179 122 72 255
0.24679688 0.24836749 -0.42087418 155 100 58 255
-0.08086401 0.018936872 0.071480125 179 122 72 255
0.24679688 0.24836749 0.29582506 155 100 58 255
-0.29527763 -0.28219688 -0.42087415 179 122 72 255
0.032383323 -0.052766263 -0.42087415 155 100 58 255
-0.29527763 -0.28219688 -0.16878748 179 122 72 255
0.032383323 -0.052766263 0.038423315 155 100 58 255
-0.3296922 -0.23304778 -0.42087415 179 122 72 255
-0.0020312667 -0.0036171377 -0.42087415 155 100 58 255
-0.3296922 -0.23304778 -0.16878748 179 122 72 255
-0.0020312667 -0.0036171377 0.038423315 155 100 58 255
-0.5196495 -0.5157268 -0.42087412 179 122 72 255
-0.19198868 -0.2862962 -0.42087412 155 100 58 255
-0.5196495 -0.5157268 -0.380499 179 122 72 255
-0.19198868 -0.2862962 -0.16238084 155 100 58 255
-0.55406415 -0.46657765 -0.42087412 179 122 72 255
-0.22640327 -0.2371471 -0.42087412 155 100 58 255
-0.55406415 -0.46657765 -0.380499 179 122 72 255
-0.22640327 -0.2371471 -0.16238084 155 100 58 255
-0.50000024 -0.5118313 -0.5 109 69 40 255
0.49999946 0.4876296 -0.5 109 69 40 255
-0.50000024 -0.5118313 -0.39999998 109 69 40 255
0.49999946 0.4876296 -0.39999998 109 69 40 255
-0.50000024 -0.37046218 -0.5 109 69 40 255
0.4999985 0.6290461 -0.5 109 69 40 255
-0.50000024 -0.37046218 -0.4 109 69 40 255
0.4999985 0.6290461 -0.39999998 109 69 40 255
-0.5879549 -0.59946907 -0.39548585 109 69 40 255
-0.5879549 -0.59946907 -0.49435732 109 69 40 255
-0.58795476 -0.45969522 -0.39548588 109 69 40 255
-0.58795476 -0.45969522 -0.49435738 109 69 40 255
0.30081406 0.22241116 0.20749788 179 122 72 255
0.5006882 0.45184177 0.5351587 155 100 58 255
-0.4241716 0.22241119 0.2074979 179 122 72 255
-0.4241716 0.45184174 0.5351587 155 100 58 255
0.3008141 0.27156028 0.1730833 179 122 72 255
-0.42417154 0.27156028 0.17308332 179 122 72 255
-0.4241716 0.50099087 0.50074416 155 100 58 255
0.07199758 -0.030212224 -0.04645042 179 122 72 255
0.27207893 0.19921836 0.28121045 155 100 58 255
-0.42417166 -0.030212224 -0.04645042 179 122 72 255
-0.42417166 0.19921839 0.28121045 155 100 58 255
0.07199755 0.018936872 -0.08086501 179 122 72 255
0.27207893 0.24836749 0.24679588 155 100 58 255
-0.4241716 0.018936932 -0.08086498 179 122 72 255
-0.42417166 0.24836752 0.24679588 155 100 58 255
-0.15802857 -0.28219688 -0.29527864 179 122 72 255
0.042819798 -0.052766234 0.032382295 155 100 58 255
-0.42417166 -0.28219688 -0.29527864 179 122 72 255
-0.4241716 -0.052766234 0.032382324 155 100 58 255
-0.15802851 -0.23304778 -0.32969323 179 122 72 255
0.04281977 -0.0036171377 -0.0020322665 155 100 58 255
-0.42417166 -0.23304778 -0.32969317 179 122 72 255
-0.42417166 -0.0036171079 -0.0020322665 155 100 58 255
-0.37579253 -0.5157267 -0.5196505 179 122 72 255
-0.1763458 -0.28629613 -0.19198973 155 100 58 255
-0.42417172 -0.5157268 -0.5196505 179 122 72 255
-0.42417172 -0.28629625 -0.19198968 155 100 58 255
-0.3757926 -0.4665777 -0.55406517 179 122 72 255
-0.1763458 -0.2371471 -0.22640426 155 100 58 255
-0.42417172 -0.46657765 -0.55406517 179 122 72 255
-0.42417172 -0.2371471 -0.22640426 155 100 58 255
-0.4000006 -0.5118314 -0.50000125 109 69 40 255
-0.40000054 0.4876296 0.49999845 109 69 40 255
-0.5000006 -0.51183134 -0.50000125 109 69 40 255
-0.5000005 0.48762965 0.49999845 109 69 40 255
-0.40000054 -0.37046212 -0.50000125 109 69 40 255
-0.4000006 0.6290461 0.49999753 109 69 40 255
-0.5000007 -0.37046212 -0.50000125 109 69 40 255
-0.5000006 0.6290462 0.49999753 109 69 40 255
-0.49435785 -0.59946907 -0.5879559 109 69 40 255
-0.39548644 -0.59946907 -0.5879559 109 69 40 255
-0.49435785 -0.45969522 -0.5879558 109 69 40 255
-0.39548638 -0.45969528 -0.5879558 109 69 40 255
4 0 1 3 2
4 2 3 7 6
4 6 7 5 4
4 4 5 1 0
4 2 6 4 0
4 7 3 1 5
4 8 9 11 10
4 10 11 15 14
4 14 15 13 12
4 12 13 9 8
4 10 14 12 8
4 15 11 9 13
4 16 17 19 18
4 18 19 23 22
4 22 23 21 20
4 20 21 17 16
4 18 22 20 16
4 23 19 17 21
4 24 25 27 26
4 26 27 31 30
4 30 31 29 28
4 28 29 25 24
4 26 30 28 24
4 31 27 25 29
4 32 33 35 34
4 34 35 39 38
4 38 39 37 36
4 36 37 33 32
4 32 34 40 41
4 39 35 33 37
4 40 42 43 41
4 38 36 43 42
4 36 32 41 43
4 34 38 42 40
4 44 45 47 46
4 46 47 50 49
4 49 50 7 48
4 48 7 45 44
4 46 49 48 44
4 50 47 45 7
4 51 52 54 53
4 53 54 58 57
4 57 58 56 55
4 55 56 52 51
4 53 57 55 51
4 58 54 52 56
4 59 60 62 61
4 61 62 66 65
4 65 66 64 63
4 63 64 60 59
4 61 65 63 59
4 66 62 60 64
4 67 68 70 69
4 69 70 74 73
4 73 74 72 71
4 71 72 68 67
4 69 73 71 67
4 74 70 68 72
4 75 76 78 77
4 77 78 82 81
4 81 82 80 79
4 79 80 76 75
4 79 75 84 86
4 82 78 76 80
4 83 85 86 84
4 77 81 85 83
4 75 77 83 84
4 81 79 86 85
