ply
format ascii 1.0
comment Created in Blender version 4.2.3 LTS
element vertex 136
property float x
property float y
property float z
property uchar red
property uchar green
property uchar blue
property uchar alpha
element face 122
property list uchar uint vertex_indices
end_header
0.26774412 -0.26687956 -0.42087415 179 122 72 255
0.00037246943 -0.053262472 -0.42087412 155 100 58 255
0.26774412 -0.26687956 0.42417103 179 122 72 255
0.00037246943 -0.053262472 0.42417103 155 100 58 255
0.3021587 -0.2177304 -0.42087415 179 122 72 255
0.00037249923 0.002504766 -0.42087412 155 100 58 255
0.3021587 -0.2177304 0.42417103 179 122 72 255
0.00037246943 -0.00016570091 0.42417103 155 100 58 255
0.5203945 -0.5167192 -0.42087412 179 122 72 255
0.19273365 -0.28728867 -0.42087412 155 100 58 255
0.5203945 -0.5167192 0.4241711 179 122 72 255
0.19273365 -0.28728867 0.4241711 155 100 58 255
0.5548091 -0.46757007 -0.42087412 179 122 72 255
0.22714818 -0.23813951 -0.42087412 155 100 58 255
0.5548091 -0.46757007 0.4241711 179 122 72 255
0.22714818 -0.23813951 0.4241711 155 100 58 255
0.5007451 -0.5128238 0.39999998 109 69 40 255
4.172325e-07 -0.0121279955 0.40000004 109 69 40 255
0.5007451 -0.5128238 0.5 109 69 40 255
4.172325e-07 -0.0121279955 0.50000006 109 69 40 255
0.5007451 -0.3714546 0.39999995 109 69 40 255
4.172325e-07 0.1292885 0.40000004 109 69 40 255
0.5007451 -0.3714546 0.5 109 69 40 255
4.172325e-07 0.1292885 0.50000006 109 69 40 255
0.5007451 -0.5128238 -0.5 109 69 40 255
4.172325e-07 -0.0121279955 -0.49999994 109 69 40 255
0.5007451 -0.5128238 -0.39999998 109 69 40 255
4.172325e-07 -0.0121279955 -0.39999992 109 69 40 255
0.5007451 -0.3714546 -0.5 109 69 40 255
4.172325e-07 0.1292885 -0.49999994 109 69 40 255
0.5007451 -0.3714546 -0.4 109 69 40 255
4.172325e-07 0.1292885 -0.39999992 109 69 40 255
0.58869976 -0.6004615 0.49435726 109 69 40 255
0.58869976 -0.6004615 0.3954858 109 69 40 255
0.5886997 -0.46068764 0.49435726 109 69 40 255
0.5886997 -0.46068764 0.39548576 109 69 40 255
0.58869976 -0.6004615 -0.39548585 109 69 40 255
0.58869976 -0.6004615 -0.49435732 109 69 40 255
0.5886997 -0.46068764 -0.39548588 109 69 40 255
0.5886997 -0.46068764 -0.49435738 109 69 40 255
-0.2665088 -0.26103437 -0.42087412 179 122 72 255
-0.2665088 -0.26103437 0.424171 179 122 72 255
-0.3009234 -0.21188521 -0.42087412 179 122 72 255
-0.3009234 -0.21188521 0.424171 179 122 72 255
-0.5196496 -0.5157268 -0.4208741 179 122 72 255
-0.19198874 -0.2862962 -0.4208741 155 100 58 255
-0.5196496 -0.5157268 0.42417106 179 122 72 255
-0.19198874 -0.2862962 0.42417106 155 100 58 255
-0.55406415 -0.4665776 -0.4208741 179 122 72 255
-0.22640328 -0.2371471 -0.4208741 155 100 58 255
-0.55406415 -0.4665776 0.42417106 179 122 72 255
-0.22640328 -0.2371471 0.42417106 155 100 58 255
-0.5000003 -0.51183134 0.39999995 109 69 40 255
-0.5000003 -0.51183134 0.49999994 109 69 40 255
-0.50000024 -0.37046206 0.39999992 109 69 40 255
-0.50000024 -0.37046206 0.49999994 109 69 40 255
-0.5000003 -0.51183134 -0.49999997 109 69 40 255
-0.5000003 -0.51183134 -0.39999995 109 69 40 255
-0.50000024 -0.37046206 -0.5 109 69 40 255
-0.50000024 -0.37046206 -0.39999998 109 69 40 255
-0.58795494 -0.59946907 0.49435723 109 69 40 255
-0.58795494 -0.59946907 0.39548576 109 69 40 255
-0.5879549 -0.45969528 0.49435723 109 69 40 255
-0.5879549 -0.45969528 0.39548573 109 69 40 255
-0.58795494 -0.59946907 -0.39548582 109 69 40 255
-0.58795494 -0.59946907 -0.4943573 109 69 40 255
-0.5879549 -0.45969528 -0.39548585 109 69 40 255
-0.5879549 -0.45969528 -0.49435735 109 69 40 255
-0.42087415 -0.26687956 -0.2677441 179 122 72 255
-0.42087412 -0.053262472 -0.00037245103 155 100 58 255
0.42417103 -0.26687956 -0.26774415 179 122 72 255
0.42417103 -0.053262472 -0.00037248796 155 100 58 255
-0.42087415 -0.2177304 -0.30215868 179 122 72 255
-0.42087412 0.002504766 -0.00037248083 155 100 58 255
0.42417103 -0.2177304 -0.30215874 179 122 72 255
0.42417103 -0.00016570091 -0.00037248796 155 100 58 255
-0.42087415 -0.5167192 -0.5203945 179 122 72 255
-0.42087412 -0.28728867 -0.19273363 155 100 58 255
0.42417106 -0.5167192 -0.5203945 179 122 72 255
0.4241711 -0.28728867 -0.19273366 155 100 58 255
-0.42087415 -0.46757007 -0.5548091 179 122 72 255
-0.42087412 -0.23813951 -0.22714816 155 100 58 255
0.42417106 -0.46757007 -0.5548091 179 122 72 255
0.4241711 -0.23813951 -0.22714819 155 100 58 255
0.39999995 -0.5128238 -0.5007451 109 69 40 255
0.40000004 -0.0121279955 -4.3471707e-07 109 69 40 255
0.49999997 -0.5128238 -0.5007451 109 69 40 255
0.50000006 -0.0121279955 -4.390882e-07 109 69 40 255
0.39999992 -0.3714546 -0.5007451 109 69 40 255
0.40000004 0.1292885 -4.3471707e-07 109 69 40 255
0.49999997 -0.3714546 -0.5007451 109 69 40 255
0.50000006 0.1292885 -4.390882e-07 109 69 40 255
-0.5 -0.5128238 -0.5007451 109 69 40 255
-0.49999994 -0.0121279955 -3.9537682e-07 109 69 40 255
-0.4 -0.5128238 -0.5007451 109 69 40 255
-0.39999992 -0.0121279955 -3.9974796e-07 109 69 40 255
-0.5 -0.3714546 -0.5007451 109 69 40 255
-0.49999994 0.1292885 -3.9537682e-07 109 69 40 255
-0.40000004 -0.3714546 -0.5007451 109 69 40 255
-0.39999992 0.1292885 -3.9974796e-07 109 69 40 255
0.49435723 -0.6004615 -0.58869976 109 69 40 255
0.39548576 -0.6004615 -0.58869976 109 69 40 255
0.49435723 -0.46068764 -0.5886997 109 69 40 255
0.39548573 -0.46068764 -0.5886997 109 69 40 255
-0.39548588 -0.6004615 -0.58869976 109 69 40 255
-0.49435735 -0.6004615 -0.58869976 109 69 40 255
-0.3954859 -0.46068764 -0.5886997 109 69 40 255
-0.4943574 -0.46068764 -0.5886997 109 69 40 255
-0.42087412 -0.26103437 0.26650882 179 122 72 255
0.424171 -0.26103437 0.26650876 179 122 72 255
-0.42087412 -0.21188521 0.30092344 179 122 72 255
0.424171 -0.21188521 0.30092338 179 122 72 255
-0.42087406 -0.5157268 0.5196496 179 122 72 255
-0.4208741 -0.2862962 0.19198875 155 100 58 255
0.4241711 -0.5157268 0.5196496 179 122 72 255
0.42417106 -0.2862962 0.19198872 155 100 58 255
-0.42087406 -0.4665776 0.55406415 179 122 72 255
-0.4208741 -0.2371471 0.2264033 155 100 58 255
0.4241711 -0.4665776 0.55406415 179 122 72 255
0.42417106 -0.2371471 0.22640327 155 100 58 255
0.39999998 -0.51183134 0.5000003 109 69 40 255
0.49999997 -0.51183134 0.5000003 109 69 40 255
0.39999995 -0.37046206 0.50000024 109 69 40 255
0.49999997 -0.37046206 0.50000024 109 69 40 255
-0.49999994 -0.51183134 0.5000003 109 69 40 255
-0.39999992 -0.51183134 0.5000003 109 69 40 255
-0.49999997 -0.37046206 0.50000024 109 69 40 255
-0.39999995 -0.37046206 0.50000024 109 69 40 255
0.49435726 -0.59946907 0.58795494 109 69 40 255
0.3954858 -0.59946907 0.58795494 109 69 40 255
0.49435726 -0.45969528 0.5879549 109 69 40 255
0.39548576 -0.45969528 0.5879549 109 69 40 255
-0.3954858 -0.59946907 0.58795494 109 69 40 255
-0.49435726 -0.59946907 0.58795494 109 69 40 255
-0.39548582 -0.45969528 0.5879549 109 69 40 255
-0.49435732 -0.45969528 0.5879549 109 69 40 255
4 0 2 3 1
4 2 6 7 3
4 6 4 5 7
4 4 0 1 5
4 2 0 4 6
4 7 5 1 3
4 8 10 11 9
4 10 14 15 11
4 14 12 13 15
4 12 8 9 13
4 10 8 12 14
4 15 13 9 11
4 16 18 19 17
4 18 22 23 19
4 22 20 21 23
4 20 16 17 21
4 20 35 33 16
4 23 19 17 21
4 24 26 27 25
4 26 30 31 27
4 30 28 29 31
4 28 24 25 29
4 24 37 36 26
4 31 27 25 29
4 32 33 35 34
4 36 37 39 38
4 30 38 39 28
4 18 32 34 22
4 28 39 37 24
4 16 33 32 18
4 22 34 35 20
4 26 36 38 30
4 40 1 3 41
4 41 3 7 43
4 43 7 5 42
4 42 5 1 40
4 41 43 42 40
4 44 45 47 46
4 46 47 51 50
4 50 51 49 48
4 48 49 45 44
4 46 50 48 44
4 51 47 45 49
4 52 17 19 53
4 53 19 23 55
4 55 23 21 54
4 54 21 17 52
4 54 52 61 63
4 56 25 27 57
4 57 27 31 59
4 59 31 29 58
4 58 29 25 56
4 56 57 64 65
4 60 62 63 61
4 64 66 67 65
4 59 58 67 66
4 53 55 62 60
4 58 56 65 67
4 52 53 60 61
4 55 54 63 62
4 57 59 66 64
4 68 70 71 69
4 70 74 75 71
4 74 72 73 75
4 72 68 69 73
4 70 68 72 74
4 75 73 69 71
4 76 78 79 77
4 78 82 83 79
4 82 80 81 83
4 80 76 77 81
4 78 76 80 82
4 83 81 77 79
4 84 86 87 85
4 86 90 91 87
4 90 88 89 91
4 88 84 85 89
4 88 103 101 84
4 91 87 85 89
4 92 94 95 93
4 94 98 99 95
4 98 96 97 99
4 96 92 93 97
4 92 105 104 94
4 99 95 93 97
4 100 101 103 102
4 104 105 107 106
4 98 106 107 96
4 86 100 102 90
4 96 107 105 92
4 84 101 100 86
4 90 102 103 88
4 94 104 106 98
4 108 69 71 109
4 109 71 75 111
4 111 75 73 110
4 110 73 69 108
4 109 111 110 108
4 112 113 115 114
4 114 115 119 118
4 118 119 117 116
4 116 117 113 112
4 114 118 116 112
4 119 115 113 117
4 120 85 87 121
4 121 87 91 123
4 123 91 89 122
4 122 89 85 120
4 122 120 129 131
4 124 93 95 125
4 125 95 99 127
4 127 99 97 126
4 126 97 93 124
4 124 125 132 133
4 128 130 131 129
4 132 134 135 133
4 127 126 135 134
4 121 123 130 128
4 126 124 133 135
4 120 121 128 129
4 123 122 131 130
4 125 127 134 132
