ply
format ascii 1.0
comment Created in Blender version 4.2.3 LTS
element vertex 80
property float x
property float y
property float z
property uchar red
property uchar green
property uchar blue
property uchar alpha
property float s
property float t
element face 71
property list uchar uint vertex_indices
end_header
0.26774412 -0.26687956 -0.42087415 179 122 72 255 -9 -9
0.26774412 -0.26687956 0.42417103 179 122 72 255 -9 -9
0.00037246943 -0.053262472 0.42417103 155 100 58 255 -9 -9
0.00037246943 -0.053262472 -0.42087412 155 100 58 255 -9 -9
0.3021587 -0.2177304 0.42417103 179 122 72 255 -9 -9
0.00037246943 -0.00016570091 0.42417103 155 100 58 255 -9 -9
0.3021587 -0.2177304 -0.42087415 179 122 72 255 -9 -9
0.00037249923 0.002504766 -0.42087412 155 100 58 255 -9 -9
0.5203945 -0.5167192 -0.42087412 179 122 72 255 -9 -9
0.5203945 -0.5167192 0.4241711 179 122 72 255 -9 -9
0.19273365 -0.28728867 0.4241711 155 100 58 255 -9 -9
0.19273365 -0.28728867 -0.42087412 155 100 58 255 -9 -9
0.5548091 -0.46757007 0.4241711 179 122 72 255 -9 -9
0.22714818 -0.23813951 0.4241711 155 100 58 255 -9 -9
0.5548091 -0.46757007 -0.42087412 179 122 72 255 -9 -9
0.22714818 -0.23813951 -0.42087412 155 100 58 255 -9 -9
0.5007451 -0.5128238 0.39999998 109 69 40 255 -9 -9
0.5007451 -0.5128238 0.59857714 109 69 40 255 -9 -9
4.172325e-07 -0.0121279955 0.5985771 109 69 40 255 -9 -9
4.172325e-07 -0.0121279955 0.40000004 109 69 40 255 -9 -9
0.5007451 -0.3714546 0.59857714 109 69 40 255 -9 -9
4.172325e-07 0.1292885 0.5985771 109 69 40 255 -9 -9
0.5007451 -0.3714546 0.39999995 109 69 40 255 -9 -9
4.172325e-07 0.1292885 0.40000004 109 69 40 255 -9 -9
0.5886997 -0.46068764 0.39548576 109 69 40 255 -9 -9
0.58869976 -0.6004615 0.3954858 109 69 40 255 -9 -9
0.5007451 -0.5128238 -0.59890723 109 69 40 255 -9 -9
0.5007451 -0.5128238 -0.39999998 109 69 40 255 -9 -9
4.172325e-07 -0.0121279955 -0.39999992 109 69 40 255 -9 -9
4.172325e-07 -0.0121279955 -0.59890705 109 69 40 255 -9 -9
0.5007451 -0.3714546 -0.4 109 69 40 255 -9 -9
4.172325e-07 0.1292885 -0.39999992 109 69 40 255 -9 -9
0.5007451 -0.3714546 -0.59890723 109 69 40 255 -9 -9
4.172325e-07 0.1292885 -0.59890676 109 69 40 255 -9 -9
0.58869976 -0.6004615 -0.5932646 109 69 40 255 -9 -9
0.58869976 -0.6004615 -0.39548585 109 69 40 255 -9 -9
0.58869976 -0.6004615 0.5929344 109 69 40 255 -9 -9
0.5886997 -0.46068764 0.5929344 109 69 40 255 -9 -9
0.5886997 -0.46068764 -0.5932646 109 69 40 255 -9 -9
0.5886997 -0.46068764 -0.39548588 109 69 40 255 -9 -9
-0.2665088 -0.26103437 -0.42087412 179 122 72 255 -9 -9
-0.2665088 -0.26103437 0.424171 179 122 72 255 -9 -9
-0.3009234 -0.21188521 0.424171 179 122 72 255 -9 -9
-0.3009234 -0.21188521 -0.42087412 179 122 72 255 -9 -9
-0.5196496 -0.5157268 -0.4208741 179 122 72 255 -9 -9
-0.19198874 -0.2862962 -0.4208741 155 100 58 255 -9 -9
-0.19198874 -0.2862962 0.42417106 155 100 58 255 -9 -9
-0.5196496 -0.5157268 0.42417106 179 122 72 255 -9 -9
-0.22640328 -0.2371471 0.42417106 155 100 58 255 -9 -9
-0.55406415 -0.4665776 0.42417106 179 122 72 255 -9 -9
-0.22640328 -0.2371471 -0.4208741 155 100 58 255 -9 -9
-0.55406415 -0.4665776 -0.4208741 179 122 72 255 -9 -9
-0.5000003 -0.51183134 0.39999995 109 69 40 255 -9 -9
-0.5000003 -0.51183134 0.59857696 109 69 40 255 -9 -9
-0.50000024 -0.37046206 0.59857696 109 69 40 255 -9 -9
-0.50000024 -0.37046206 0.39999992 109 69 40 255 -9 -9
-0.58795494 -0.59946907 0.39548576 109 69 40 255 -9 -9
-0.5879549 -0.45969528 0.39548573 109 69 40 255 -9 -9
-0.5000003 -0.51183134 -0.5989071 109 69 40 255 -9 -9
-0.5000003 -0.51183134 -0.39999995 109 69 40 255 -9 -9
-0.50000024 -0.37046206 -0.39999998 109 69 40 255 -9 -9
-0.50000024 -0.37046206 -0.5989068 109 69 40 255 -9 -9
-0.58795494 -0.59946907 -0.39548582 109 69 40 255 -9 -9
-0.58795494 -0.59946907 -0.5932645 109 69 40 255 -9 -9
-0.58795494 -0.59946907 0.59293437 109 69 40 255 -9 -9
-0.5879549 -0.45969528 0.59293437 109 69 40 255 -9 -9
-0.5879549 -0.45969528 -0.39548585 109 69 40 255 -9 -9
-0.5879549 -0.45969528 -0.5932646 109 69 40 255 -9 -9
0.5 -0.5 0.43526202 254 254 254 255 1 0
0 -0.012141001 0.43526202 254 254 254 255 0.5 0.5
0 -0.012141001 0.5 254 254 254 255 0.5 0.5
0.5 -0.5 0.5 254 254 254 255 1 0
-0.5 -0.5 0.50000036 254 254 254 255 0 0
-0.5 -0.5 0.43526202 254 254 254 255 0 0
0.5 -0.5 -0.5 254 254 254 255 0 0
0 -0.012141001 -0.5 254 254 254 255 0.5 0.5
0 -0.012141001 -0.435262 254 254 254 255 0.5 0.5
0.5 -0.5 -0.435262 254 254 254 255 0 0
-0.5 -0.5 -0.4352617 254 254 254 255 1 0
-0.5 -0.5 -0.5 254 254 254 255 1 0
4 0 1 2 3
4 1 4 5 2
4 4 6 7 5
4 6 0 3 7
4 1 0 6 4
4 5 7 3 2
4 8 9 10 11
4 9 12 13 10
4 12 14 15 13
4 14 8 11 15
4 9 8 14 12
4 13 15 11 10
4 16 17 18 19
4 17 20 21 18
4 20 22 23 21
4 22 16 19 23
4 22 24 25 16
4 21 18 19 23
4 26 27 28 29
4 27 30 31 28
4 30 32 33 31
4 32 26 29 33
4 26 34 35 27
4 31 28 29 33
4 36 25 24 37
4 35 34 38 39
4 30 39 38 32
4 17 36 37 20
4 32 38 34 26
4 16 25 36 17
4 20 37 24 22
4 27 35 39 30
4 40 3 2 41
4 41 2 5 42
4 42 5 7 43
4 43 7 3 40
4 41 42 43 40
4 44 45 46 47
4 47 46 48 49
4 49 48 50 51
4 51 50 45 44
4 47 49 51 44
4 48 46 45 50
4 52 19 18 53
4 53 18 21 54
4 54 21 23 55
4 55 23 19 52
4 55 52 56 57
4 58 29 28 59
4 59 28 31 60
4 60 31 33 61
4 61 33 29 58
4 58 59 62 63
4 64 65 57 56
4 62 66 67 63
4 60 61 67 66
4 53 54 65 64
4 61 58 63 67
4 52 53 64 56
4 54 55 57 65
4 59 60 66 62
4 68 69 70 71
3 71 70 72
4 72 70 69 73
3 73 69 68
4 71 72 73 68
4 74 75 76 77
3 77 76 78
4 78 76 75 79
3 79 75 74
4 77 78 79 74
