ply
format ascii 1.0
comment Created in Blender version 4.2.3 LTS
element vertex 90
property float x
property float y
property float z
property uchar red
property uchar green
property uchar blue
property uchar alpha
element face 83
property list uchar uint vertex_indices
end_header
-0.2677441 -0.26687956 0.42087418 179 122 72 255
-0.00037243264 -0.053262472 0.42087412 155 100 58 255
-0.22141765 -0.26687956 0.22527099 179 122 72 255
-0.00037247446 -0.053262472 0.00037232417 155 100 58 255
-0.30215868 -0.2177304 0.42087418 179 122 72 255
-0.00037246244 0.002504766 0.42087412 155 100 58 255
-0.23862495 -0.2177304 0.24247828 179 122 72 255
-0.00037247446 -0.00016570091 0.00037232417 155 100 58 255
-0.44466048 -0.46690074 0.40811846 179 122 72 255
-0.19273362 -0.28728867 0.42087415 155 100 58 255
-0.44466048 -0.46690074 0.2530664 179 122 72 255
-0.22332022 -0.28728867 0.22927786 155 100 58 255
-0.47907507 -0.41775158 0.40811846 179 122 72 255
-0.22714815 -0.23813951 0.42087415 155 100 58 255
-0.47907507 -0.41775158 0.2530664 179 122 72 255
-0.21697916 -0.23690592 0.22103052 155 100 58 255
-0.50074506 -0.5128238 0.50000006 109 69 40 255
-3.7352112e-07 -0.0121279955 0.49999994 109 69 40 255
-0.50074506 -0.5128238 0.4 109 69 40 255
-3.822634e-07 -0.0121279955 0.39999992 109 69 40 255
-0.50074506 -0.3714546 0.50000006 109 69 40 255
-3.7352112e-07 0.1292885 0.49999994 109 69 40 255
-0.50074506 -0.3714546 0.40000004 109 69 40 255
-3.822634e-07 0.1292885 0.39999992 109 69 40 255
-0.5886997 -0.6004615 0.3954859 109 69 40 255
-0.5886997 -0.6004615 0.49435738 109 69 40 255
-0.58869964 -0.46068764 0.39548594 109 69 40 255
-0.58869964 -0.46068764 0.49435744 109 69 40 255
0.26650882 -0.26103437 0.4208741 179 122 72 255
0.2836435 -0.26103437 -0.28379267 179 122 72 255
0.30092344 -0.21188521 0.4208741 179 122 72 255
0.3008508 -0.21188521 -0.30099997 179 122 72 255
0.5196497 -0.5157268 0.42087403 179 122 72 255
0.19198877 -0.2862962 0.42087406 155 100 58 255
0.53694904 -0.5157268 -0.5368404 179 122 72 255
0.20052351 -0.2862962 -0.20047723 155 100 58 255
0.5540642 -0.4665776 0.42087403 179 122 72 255
0.22640331 -0.2371471 0.42087406 155 100 58 255
0.5541563 -0.4665776 -0.55404764 179 122 72 255
0.21773078 -0.2371471 -0.2176845 155 100 58 255
0.50000036 -0.51183134 0.49999994 109 69 40 255
0.50000036 -0.51183134 0.39999992 109 69 40 255
0.5000003 -0.37046206 0.49999997 109 69 40 255
0.5000003 -0.37046206 0.39999995 109 69 40 255
0.587955 -0.59946907 0.39548576 109 69 40 255
0.587955 -0.59946907 0.49435723 109 69 40 255
0.58795494 -0.45969528 0.3954858 109 69 40 255
0.58795494 -0.45969528 0.4943573 109 69 40 255
-0.0003722841 -0.053262472 0.00037246945 155 100 58 255
-0.424171 -0.26687956 0.26774415 179 122 72 255
-0.42417103 -0.053262472 0.00037250144 155 100 58 255
-0.0003722841 0.002504766 0.00037249926 155 100 58 255
-0.424171 -0.2177304 0.30215874 179 122 72 255
-0.42417103 -0.00016570091 0.00037250144 155 100 58 255
-0.28390366 -0.4739811 0.44102374 179 122 72 255
-0.42417106 -0.4739811 0.44102374 179 122 72 255
-0.42417106 -0.28728867 0.19273368 155 100 58 255
-0.28390366 -0.42483196 0.47543833 179 122 72 255
-0.42417106 -0.42483196 0.47543833 179 122 72 255
-0.42417106 -0.23813951 0.2271482 155 100 58 255
-0.39999995 -0.5128238 0.5007452 109 69 40 255
-0.40000004 -0.0121279955 4.4743166e-07 109 69 40 255
-0.49999997 -0.5128238 0.5007452 109 69 40 255
-0.50000006 -0.0121279955 4.5498146e-07 109 69 40 255
-0.39999992 -0.3714546 0.5007452 109 69 40 255
-0.40000004 0.1292885 4.4743166e-07 109 69 40 255
-0.49999997 -0.3714546 0.5007452 109 69 40 255
-0.50000006 0.1292885 4.5498146e-07 109 69 40 255
0.49999994 -0.0121279955 3.7948357e-07 0 0 0 255
0.39999992 -0.0121279955 3.8703337e-07 0 0 0 255
0.49999994 0.1292885 3.7948357e-07 0 0 0 255
0.39999992 0.1292885 3.8703337e-07 0 0 0 255
-0.4943572 -0.6004615 0.5886998 109 69 40 255
-0.39548573 -0.6004615 0.5886998 109 69 40 255
-0.4943572 -0.46068764 0.58869976 109 69 40 255
-0.3954857 -0.46068764 0.58869976 109 69 40 255
-0.42417103 -0.26103437 -0.26650876 179 122 72 255
-0.42417103 -0.21188521 -0.30092338 179 122 72 255
-0.42417112 -0.5157268 -0.51964957 179 122 72 255
-0.4241711 -0.2862962 -0.1919887 155 100 58 255
-0.42417112 -0.4665776 -0.5540641 179 122 72 255
-0.4241711 -0.2371471 -0.22640325 155 100 58 255
-0.39999998 -0.51183134 -0.50000024 109 69 40 255
-0.49999997 -0.51183134 -0.50000024 109 69 40 255
-0.39999995 -0.37046206 -0.5000002 109 69 40 255
-0.49999997 -0.37046206 -0.5000002 109 69 40 255
-0.4943573 -0.59946907 -0.5879549 109 69 40 255
-0.39548582 -0.59946907 -0.5879549 109 69 40 255
-0.4943573 -0.45969528 -0.5879548 109 69 40 255
-0.3954858 -0.45969528 -0.5879548 109 69 40 255
4 0 2 3 1
4 2 6 7 3
4 6 4 5 7
4 4 0 1 5
4 2 0 4 6
4 7 5 1 3
4 8 10 11 9
4 10 14 15 11
4 14 12 13 15
4 12 8 9 13
4 10 8 12 14
4 15 13 9 11
4 16 18 19 17
4 18 22 23 19
4 22 20 21 23
4 20 16 17 21
4 16 25 24 18
4 23 19 17 21
4 24 25 27 26
4 22 26 27 20
4 20 27 25 16
4 18 24 26 22
4 28 1 3 29
4 29 3 7 31
4 31 7 5 30
4 30 5 1 28
4 29 31 30 28
4 32 33 35 34
4 34 35 39 38
4 38 39 37 36
4 36 37 33 32
4 34 38 36 32
4 39 35 33 37
4 40 17 19 41
4 41 19 23 43
4 43 23 21 42
4 42 21 17 40
4 40 41 44 45
4 44 46 47 45
4 43 42 47 46
4 42 40 45 47
4 41 43 46 44
4 2 49 50 48
4 49 52 53 50
4 52 6 51 53
4 6 2 48 51
4 49 2 6 52
4 53 51 48 50
4 54 55 56 11
4 55 58 59 56
4 58 57 15 59
4 57 54 11 15
4 55 54 57 58
4 59 15 11 56
4 60 62 63 61
4 62 66 67 63
4 66 64 65 67
4 64 60 61 65
4 64 75 73 60
4 67 63 61 65
4 72 73 75 74
4 62 72 74 66
4 60 73 72 62
4 66 74 75 64
4 29 48 50 76
4 76 50 53 77
4 77 53 51 31
4 31 51 48 29
4 76 77 31 29
4 34 35 79 78
4 78 79 81 80
4 80 81 39 38
4 78 80 38 34
4 81 79 35 39
4 82 61 63 83
4 83 63 67 85
4 85 67 65 84
4 84 65 61 82
4 84 82 87 89
4 86 88 89 87
4 83 85 88 86
4 82 83 86 87
4 85 84 89 88
