ply
format ascii 1.0
comment Created in Blender version 4.2.3 LTS
element vertex 116
property float x
property float y
property float z
property uchar red
property uchar green
property uchar blue
property uchar alpha
element face 103
property list uchar uint vertex_indices
end_header
0.00037374813 -0.26687956 0.26774412 179 122 72 255
0.00037373 -0.053262472 0.00037246945 155 100 58 255
-0.42417103 -0.26687956 0.2677441 179 122 72 255
-0.42417103 -0.053262472 0.0003724509 155 100 58 255
0.00037374662 -0.2177304 0.3021587 179 122 72 255
0.00037373 0.002504766 0.00037249926 155 100 58 255
-0.42417103 -0.2177304 0.30215868 179 122 72 255
-0.42417103 -0.00016570091 0.0003724509 155 100 58 255
0.00037370727 -0.5167192 0.5203945 179 122 72 255
0.00037372162 -0.28728867 0.19273365 155 100 58 255
-0.42417112 -0.5167192 0.5203945 179 122 72 255
-0.4241711 -0.28728867 0.19273363 155 100 58 255
0.00037370579 -0.46757007 0.5548091 179 122 72 255
0.0003737201 -0.23813951 0.22714818 155 100 58 255
-0.42417112 -0.46757007 0.5548091 179 122 72 255
-0.4241711 -0.23813951 0.22714816 155 100 58 255
-0.4 -0.5128238 0.5007451 109 69 40 255
-0.40000004 -0.0121279955 3.9974796e-07 109 69 40 255
-0.5 -0.5128238 0.5007451 109 69 40 255
-0.50000006 -0.0121279955 3.9537682e-07 109 69 40 255
-0.39999998 -0.3714546 0.5007451 109 69 40 255
-0.40000004 0.1292885 3.9974796e-07 109 69 40 255
-0.5 -0.3714546 0.5007451 109 69 40 255
-0.50000006 0.1292885 3.9537682e-07 109 69 40 255
-0.4943573 -0.6004615 0.58869976 109 69 40 255
-0.39548582 -0.6004615 0.58869976 109 69 40 255
-0.4943573 -0.46068764 0.5886997 109 69 40 255
-0.3954858 -0.46068764 0.5886997 109 69 40 255
0.00037374167 -0.26103437 -0.2665088 179 122 72 255
-0.424171 -0.26103437 -0.26650882 179 122 72 255
0.00037374318 -0.21188521 -0.3009234 179 122 72 255
-0.424171 -0.21188521 -0.30092344 179 122 72 255
0.00037372293 -0.5157268 -0.5196496 179 122 72 255
0.0003737086 -0.2862962 -0.19198874 155 100 58 255
-0.42417103 -0.5157268 -0.5196496 179 122 72 255
-0.42417106 -0.2862962 -0.19198875 155 100 58 255
0.00037372444 -0.4665776 -0.55406415 179 122 72 255
0.00037371012 -0.2371471 -0.22640328 155 100 58 255
-0.42417103 -0.4665776 -0.55406415 179 122 72 255
-0.42417106 -0.2371471 -0.2264033 155 100 58 255
-0.39999992 -0.51183134 -0.5000003 109 69 40 255
-0.4999999 -0.51183134 -0.5000003 109 69 40 255
-0.3999999 -0.37046206 -0.50000024 109 69 40 255
-0.4999999 -0.37046206 -0.50000024 109 69 40 255
-0.4943572 -0.59946907 -0.58795494 109 69 40 255
-0.39548573 -0.59946907 -0.58795494 109 69 40 255
-0.4943572 -0.45969528 -0.5879549 109 69 40 255
-0.3954857 -0.45969528 -0.5879549 109 69 40 255
0.26774412 -0.26687956 -0.42087415 179 122 72 255
0.00037246943 -0.053262472 -0.42087412 155 100 58 255
0.26774412 -0.26687956 0.42417103 179 122 72 255
0.00037246943 -0.053262472 0.42417103 155 100 58 255
0.3021587 -0.2177304 -0.42087415 179 122 72 255
0.00037249923 0.002504766 -0.42087412 155 100 58 255
0.3021587 -0.2177304 0.42417103 179 122 72 255
0.00037246943 -0.00016570091 0.42417103 155 100 58 255
0.5203945 -0.5167192 -0.42087412 179 122 72 255
0.19273365 -0.28728867 -0.42087412 155 100 58 255
0.5203945 -0.5167192 0.4241711 179 122 72 255
0.19273365 -0.28728867 0.4241711 155 100 58 255
0.5548091 -0.46757007 -0.42087412 179 122 72 255
0.22714818 -0.23813951 -0.42087412 155 100 58 255
0.5548091 -0.46757007 0.4241711 179 122 72 255
0.22714818 -0.23813951 0.4241711 155 100 58 255
0.5007451 -0.5128238 0.39999998 109 69 40 255
4.172325e-07 -0.0121279955 0.40000004 109 69 40 255
0.5007451 -0.5128238 0.5 109 69 40 255
4.172325e-07 -0.0121279955 0.50000006 109 69 40 255
0.5007451 -0.3714546 0.39999995 109 69 40 255
4.172325e-07 0.1292885 0.40000004 109 69 40 255
0.5007451 -0.3714546 0.5 109 69 40 255
4.172325e-07 0.1292885 0.50000006 109 69 40 255
0.5007451 -0.5128238 -0.49999997 109 69 40 255
4.172325e-07 -0.0121279955 -0.49999994 109 69 40 255
0.5007451 -0.5128238 -0.39999998 109 69 40 255
4.172325e-07 -0.0121279955 -0.39999992 109 69 40 255
0.5007451 -0.3714546 -0.49999997 109 69 40 255
4.172325e-07 0.1292885 -0.49999994 109 69 40 255
0.5007451 -0.3714546 -0.4 109 69 40 255
4.172325e-07 0.1292885 -0.39999992 109 69 40 255
0.58869976 -0.6004615 0.49435726 109 69 40 255
0.58869976 -0.6004615 0.3954858 109 69 40 255
0.5886997 -0.46068764 0.49435726 109 69 40 255
0.5886997 -0.46068764 0.39548576 109 69 40 255
0.58869976 -0.6004615 -0.39548585 109 69 40 255
0.58869976 -0.6004615 -0.49435732 109 69 40 255
0.5886997 -0.46068764 -0.39548588 109 69 40 255
0.5886997 -0.46068764 -0.49435738 109 69 40 255
-0.2665088 -0.26103437 -0.42087412 179 122 72 255
-0.2665088 -0.26103437 0.424171 179 122 72 255
-0.3009234 -0.21188521 -0.42087412 179 122 72 255
-0.3009234 -0.21188521 0.424171 179 122 72 255
-0.5196496 -0.5157268 -0.4208741 179 122 72 255
-0.19198874 -0.2862962 -0.4208741 155 100 58 255
-0.5196496 -0.5157268 0.42417106 179 122 72 255
-0.19198874 -0.2862962 0.42417106 155 100 58 255
-0.55406415 -0.4665776 -0.4208741 179 122 72 255
-0.22640328 -0.2371471 -0.4208741 155 100 58 255
-0.55406415 -0.4665776 0.42417106 179 122 72 255
-0.22640328 -0.2371471 0.42417106 155 100 58 255
-0.5000003 -0.51183134 0.39999995 109 69 40 255
-0.5000003 -0.51183134 0.49999994 109 69 40 255
-0.50000024 -0.37046206 0.39999992 109 69 40 255
-0.50000024 -0.37046206 0.49999994 109 69 40 255
-0.5000003 -0.51183134 -0.49999997 109 69 40 255
-0.5000003 -0.51183134 -0.39999995 109 69 40 255
-0.50000024 -0.37046206 -0.5 109 69 40 255
-0.50000024 -0.37046206 -0.39999998 109 69 40 255
-0.58795494 -0.59946907 0.49435723 109 69 40 255
-0.58795494 -0.59946907 0.39548576 109 69 40 255
-0.5879549 -0.45969528 0.49435723 109 69 40 255
-0.5879549 -0.45969528 0.39548573 109 69 40 255
-0.58795494 -0.59946907 -0.39548582 109 69 40 255
-0.58795494 -0.59946907 -0.4943573 109 69 40 255
-0.5879549 -0.45969528 -0.39548585 109 69 40 255
-0.5879549 -0.45969528 -0.49435735 109 69 40 255
4 0 2 3 1
4 2 6 7 3
4 6 4 5 7
4 4 0 1 5
4 2 0 4 6
4 7 5 1 3
4 8 10 11 9
4 10 14 15 11
4 14 12 13 15
4 12 8 9 13
4 10 8 12 14
4 15 13 9 11
4 16 18 19 17
4 18 22 23 19
4 22 20 21 23
4 20 16 17 21
4 20 27 25 16
4 23 19 17 21
4 24 25 27 26
4 18 24 26 22
4 16 25 24 18
4 22 26 27 20
4 28 1 3 29
4 29 3 7 31
4 31 7 5 30
4 30 5 1 28
4 29 31 30 28
4 32 33 35 34
4 34 35 39 38
4 38 39 37 36
4 36 37 33 32
4 34 38 36 32
4 39 35 33 37
4 40 17 19 41
4 41 19 23 43
4 43 23 21 42
4 42 21 17 40
4 42 40 45 47
4 44 46 47 45
4 41 43 46 44
4 40 41 44 45
4 43 42 47 46
4 48 50 51 49
4 50 54 55 51
4 54 52 53 55
4 52 48 49 53
4 50 48 52 54
4 55 53 49 51
4 56 58 59 57
4 58 62 63 59
4 62 60 61 63
4 60 56 57 61
4 58 56 60 62
4 63 61 57 59
4 64 66 67 65
4 66 70 71 67
4 70 68 69 71
4 68 64 65 69
4 68 83 81 64
4 71 67 65 69
4 72 74 75 73
4 74 78 79 75
4 78 76 77 79
4 76 72 73 77
4 72 85 84 74
4 79 75 73 77
4 80 81 83 82
4 84 85 87 86
4 78 86 87 76
4 66 80 82 70
4 76 87 85 72
4 64 81 80 66
4 70 82 83 68
4 74 84 86 78
4 88 49 51 89
4 89 51 55 91
4 91 55 53 90
4 90 53 49 88
4 89 91 90 88
4 92 93 95 94
4 94 95 99 98
4 98 99 97 96
4 96 97 93 92
4 94 98 96 92
4 99 95 93 97
4 100 65 67 101
4 101 67 71 103
4 103 71 69 102
4 102 69 65 100
4 102 100 109 111
4 104 73 75 105
4 105 75 79 107
4 107 79 77 106
4 106 77 73 104
4 104 105 112 113
4 108 110 111 109
4 112 114 115 113
4 107 106 115 114
4 101 103 110 108
4 106 104 113 115
4 100 101 108 109
4 103 102 111 110
4 105 107 114 112
