ply
format ascii 1.0
comment Created in Blender version 4.2.3 LTS
element vertex 30
property float x
property float y
property float z
property uchar red
property uchar green
property uchar blue
property uchar alpha
element face 42
property list uchar uint vertex_indices
end_header
0.2742892 -0.26687956 -0.2666069 179 122 72 255
0.00037246943 -0.053262472 -0.001495719 155 100 58 255
0.26874635 -0.26395696 0.26847422 179 122 72 255
0.00037246943 -0.053262472 0.0055121183 155 100 58 255
0.2914965 -0.2177304 -0.28381416 179 122 72 255
0.0003709034 0.0016146104 0.0012146395 155 100 58 255
0.28595364 -0.21480781 0.28568155 179 122 72 255
0.5267737 -0.5167192 -0.5251252 179 122 72 255
0.207255 -0.28728867 -0.19736421 155 100 58 255
0.5212788 -0.516223 0.51632726 179 122 72 255
0.19328593 -0.28679243 0.19446462 155 100 58 255
0.54398096 -0.46757007 -0.54233253 179 122 72 255
0.22446227 -0.23813951 -0.21457148 155 100 58 255
0.5384861 -0.46707383 0.5335345 179 122 72 255
0.21049319 -0.2376433 0.21167189 155 100 58 255
-0.28930783 -0.26395696 -0.27318227 179 122 72 255
-0.2697846 -0.26103437 0.280122 179 122 72 255
-0.30651513 -0.21480781 -0.29038954 179 122 72 255
-0.28699192 -0.21188521 0.29732934 179 122 72 255
-0.5224632 -0.516223 -0.52191985 179 122 72 255
-0.22217661 -0.28679243 -0.20194325 155 100 58 255
-0.52429485 -0.5157268 0.522738 179 122 72 255
-0.19928126 -0.2862962 0.21329324 155 100 58 255
-0.53967047 -0.46707383 -0.5391271 179 122 72 255
-0.23938388 -0.2376433 -0.21915051 155 100 58 255
-0.5415021 -0.4665776 0.53994524 179 122 72 255
-0.21648854 -0.2371471 0.23050052 155 100 58 255
0.0003677416 -0.053262472 -0.00037245103 155 100 58 255
0.00037187475 -0.053262472 -0.00037248796 155 100 58 255
0.00037187475 -0.00016570091 -0.00037248796 155 100 58 255
4 0 2 3 1
4 2 6 5 3
3 6 4 5
4 4 0 1 5
4 2 0 4 6
3 5 1 3
4 7 9 10 8
4 9 13 14 10
4 13 11 12 14
4 11 7 8 12
4 9 7 11 13
4 14 12 8 10
4 15 1 3 16
4 16 3 5 18
3 18 5 17
4 17 5 1 15
4 16 18 17 15
4 19 20 22 21
4 21 22 26 25
4 25 26 24 23
4 23 24 20 19
4 21 25 23 19
4 26 22 20 24
4 15 0 28 27
4 0 4 29 28
4 4 17 5 29
4 17 15 27 5
4 0 15 17 4
4 29 5 27 28
4 19 7 8 20
4 11 23 24 12
4 7 19 23 11
4 12 24 20 8
4 16 27 28 2
4 2 28 29 6
4 6 29 5 18
4 18 5 27 16
4 2 6 18 16
4 21 22 10 9
4 13 14 26 25
4 9 13 25 21
4 14 10 22 26
