ply
format ascii 1.0
comment Created in Blender version 4.2.3 LTS
element vertex 74
property float x
property float y
property float z
property uchar red
property uchar green
property uchar blue
property uchar alpha
property float s
property float t
element face 66
property list uchar uint vertex_indices
end_header
-0.26774406 -0.26687956 0.42087418 179 122 72 255 -9 -9
-0.26774418 -0.26687956 -0.424171 179 122 72 255 -9 -9
-0.00037253348 -0.053262472 -0.42417103 155 100 58 255 -9 -9
-0.00037240586 -0.053262472 0.42087412 155 100 58 255 -9 -9
-0.30215877 -0.2177304 -0.42417097 179 122 72 255 -9 -9
-0.00037253348 -0.00016570091 -0.42417103 155 100 58 255 -9 -9
-0.30215865 -0.2177304 0.4208742 179 122 72 255 -9 -9
-0.00037243566 0.002504766 0.42087412 155 100 58 255 -9 -9
-0.52039444 -0.5167192 0.4208742 179 122 72 255 -9 -9
-0.52039456 -0.5167192 -0.424171 179 122 72 255 -9 -9
-0.1927337 -0.28728867 -0.42417106 155 100 58 255 -9 -9
-0.19273359 -0.28728867 0.42087415 155 100 58 255 -9 -9
-0.55480915 -0.46757007 -0.424171 179 122 72 255 -9 -9
-0.22714823 -0.23813951 -0.42417106 155 100 58 255 -9 -9
-0.55480903 -0.46757007 0.4208742 179 122 72 255 -9 -9
-0.22714812 -0.23813951 0.42087415 155 100 58 255 -9 -9
-0.5007452 -0.5128238 -0.3999999 109 69 40 255 -9 -9
-0.5007452 -0.5128238 -0.4999999 109 69 40 255 -9 -9
-4.927304e-07 -0.0121279955 -0.50000006 109 69 40 255 -9 -9
-4.7763086e-07 -0.0121279955 -0.40000004 109 69 40 255 -9 -9
-0.5007452 -0.3714546 -0.4999999 109 69 40 255 -9 -9
-4.927304e-07 0.1292885 -0.50000006 109 69 40 255 -9 -9
-0.5007452 -0.3714546 -0.39999986 109 69 40 255 -9 -9
-4.7763086e-07 0.1292885 -0.40000004 109 69 40 255 -9 -9
-0.58869976 -0.46068764 -0.39548567 109 69 40 255 -9 -9
-0.5886998 -0.6004615 -0.3954857 109 69 40 255 -9 -9
-0.500745 -0.5128238 0.5985769 109 69 40 255 -9 -9
-0.50074506 -0.5128238 0.40000007 109 69 40 255 -9 -9
-3.5683422e-07 -0.0121279955 0.39999992 109 69 40 255 -9 -9
-3.3290354e-07 -0.0121279955 0.5985768 109 69 40 255 -9 -9
-0.50074506 -0.3714546 0.4000001 109 69 40 255 -9 -9
-3.5683422e-07 0.1292885 0.39999992 109 69 40 255 -9 -9
-0.500745 -0.3714546 0.5985769 109 69 40 255 -9 -9
-3.3290354e-07 0.1292885 0.5985768 109 69 40 255 -9 -9
-0.58869964 -0.6004615 0.5929346 109 69 40 255 -9 -9
-0.5886997 -0.6004615 0.39548594 109 69 40 255 -9 -9
-0.5886998 -0.6004615 -0.49435717 109 69 40 255 -9 -9
-0.58869976 -0.46068764 -0.49435717 109 69 40 255 -9 -9
-0.5886996 -0.46068764 0.5929346 109 69 40 255 -9 -9
-0.58869964 -0.46068764 0.39548597 109 69 40 255 -9 -9
0.26650885 -0.26103437 0.4208741 179 122 72 255 -9 -9
0.26650873 -0.26103437 -0.42417103 179 122 72 255 -9 -9
0.30092335 -0.21188521 -0.42417106 179 122 72 255 -9 -9
0.30092347 -0.21188521 0.42087406 179 122 72 255 -9 -9
0.5196497 -0.5157268 0.420874 179 122 72 255 -9 -9
0.1919888 -0.2862962 0.42087406 155 100 58 255 -9 -9
0.19198868 -0.2862962 -0.4241711 155 100 58 255 -9 -9
0.51964957 -0.5157268 -0.42417115 179 122 72 255 -9 -9
0.22640322 -0.2371471 -0.4241711 155 100 58 255 -9 -9
0.5540641 -0.4665776 -0.42417115 179 122 72 255 -9 -9
0.22640334 -0.2371471 0.42087406 155 100 58 255 -9 -9
0.5540642 -0.4665776 0.420874 179 122 72 255 -9 -9
0.50000024 -0.51183134 -0.40000004 109 69 40 255 -9 -9
0.50000024 -0.51183134 -0.5 109 69 40 255 -9 -9
0.5000002 -0.37046206 -0.5 109 69 40 255 -9 -9
0.5000002 -0.37046206 -0.4 109 69 40 255 -9 -9
0.5879549 -0.59946907 -0.39548585 109 69 40 255 -9 -9
0.5879548 -0.45969528 -0.39548582 109 69 40 255 -9 -9
0.5000004 -0.51183134 0.59857714 109 69 40 255 -9 -9
0.50000036 -0.51183134 0.39999986 109 69 40 255 -9 -9
0.5000003 -0.37046206 0.3999999 109 69 40 255 -9 -9
0.50000036 -0.37046206 0.59857714 109 69 40 255 -9 -9
0.587955 -0.59946907 0.39548573 109 69 40 255 -9 -9
0.58795506 -0.59946907 0.5929344 109 69 40 255 -9 -9
0.5879549 -0.59946907 -0.49435732 109 69 40 255 -9 -9
0.5879548 -0.45969528 -0.49435732 109 69 40 255 -9 -9
0.58795494 -0.45969528 0.39548576 109 69 40 255 -9 -9
0.587955 -0.45969528 0.5929345 109 69 40 255 -9 -9
-0.4999999 -0.5 0.50000006 254 254 254 255 0 0
7.54979e-08 -0.012141001 0.5 254 254 254 255 0.5 0.5
6.572269e-08 -0.012141001 0.4352617 254 254 254 255 0.5 0.5
-0.49999994 -0.5 0.4352618 254 254 254 255 0 0
0.50000006 -0.5 0.4352616 254 254 254 255 1 0
0.50000006 -0.5 0.4999999 254 254 254 255 1 0
4 0 1 2 3
4 1 4 5 2
4 4 6 7 5
4 6 0 3 7
4 1 0 6 4
4 5 7 3 2
4 8 9 10 11
4 9 12 13 10
4 12 14 15 13
4 14 8 11 15
4 9 8 14 12
4 13 15 11 10
4 16 17 18 19
4 17 20 21 18
4 20 22 23 21
4 22 16 19 23
4 22 24 25 16
4 21 18 19 23
4 26 27 28 29
4 27 30 31 28
4 30 32 33 31
4 32 26 29 33
4 26 34 35 27
4 31 28 29 33
4 36 25 24 37
4 35 34 38 39
4 30 39 38 32
4 17 36 37 20
4 32 38 34 26
4 16 25 36 17
4 20 37 24 22
4 27 35 39 30
4 40 3 2 41
4 41 2 5 42
4 42 5 7 43
4 43 7 3 40
4 41 42 43 40
4 44 45 46 47
4 47 46 48 49
4 49 48 50 51
4 51 50 45 44
4 47 49 51 44
4 48 46 45 50
4 52 19 18 53
4 53 18 21 54
4 54 21 23 55
4 55 23 19 52
4 55 52 56 57
4 58 29 28 59
4 59 28 31 60
4 60 31 33 61
4 61 33 29 58
4 58 59 62 63
4 64 65 57 56
4 62 66 67 63
4 60 61 67 66
4 53 54 65 64
4 61 58 63 67
4 52 53 64 56
4 54 55 57 65
4 59 60 66 62
4 68 69 70 71
3 71 70 72
4 72 70 69 73
3 73 69 68
4 71 72 73 68
