ply
format ascii 1.0
comment Created in Blender version 4.1.1
element vertex 68
property float x
property float y
property float z
property uchar red
property uchar green
property uchar blue
property uchar alpha
property float s
property float t
element face 54
property list uchar uint vertex_indices
end_header
-0.20749883 0.22241116 0.42087424 179 122 72 255 -9 -9
-0.53515965 0.45184174 0.4208743 155 100 58 255 -9 -9
-0.53515977 0.45184174 -0.42417088 155 100 58 255 -9 -9
-0.20749895 0.22241116 -0.42417094 179 122 72 255 -9 -9
-0.5007452 0.50099087 -0.42417088 155 100 58 255 -9 -9
-0.17308436 0.27156028 -0.42417094 179 122 72 255 -9 -9
-0.50074506 0.50099087 0.4208743 155 100 58 255 -9 -9
-0.17308424 0.27156028 0.42087424 179 122 72 255 -9 -9
0.046449486 -0.030212253 0.42087418 179 122 72 255 -9 -9
-0.2812114 0.19921836 0.4208742 155 100 58 255 -9 -9
-0.28121153 0.19921836 -0.424171 155 100 58 255 -9 -9
0.04644936 -0.030212253 -0.42417103 179 122 72 255 -9 -9
-0.24679694 0.24836749 -0.424171 155 100 58 255 -9 -9
0.080863945 0.018936872 -0.42417103 179 122 72 255 -9 -9
-0.24679682 0.24836749 0.4208742 155 100 58 255 -9 -9
0.08086408 0.018936872 0.42087418 179 122 72 255 -9 -9
0.29527768 -0.28219688 0.42087412 179 122 72 255 -9 -9
-0.03238326 -0.052766263 0.42087415 155 100 58 255 -9 -9
-0.032383386 -0.052766263 -0.42417103 155 100 58 255 -9 -9
0.29527757 -0.28219688 -0.42417106 179 122 72 255 -9 -9
0.0020312027 -0.0036171377 -0.42417103 155 100 58 255 -9 -9
0.32969216 -0.23304778 -0.4241711 179 122 72 255 -9 -9
0.0020313303 -0.0036171377 0.42087415 155 100 58 255 -9 -9
0.32969227 -0.23304778 0.4208741 179 122 72 255 -9 -9
0.51964957 -0.5157268 0.42087403 179 122 72 255 -9 -9
0.19198874 -0.2862962 0.4208741 155 100 58 255 -9 -9
0.19198862 -0.2862962 -0.42417112 155 100 58 255 -9 -9
0.51964945 -0.5157268 -0.42417118 179 122 72 255 -9 -9
0.2264032 -0.2371471 -0.42417112 155 100 58 255 -9 -9
0.5540641 -0.46657765 -0.42417118 179 122 72 255 -9 -9
0.22640333 -0.2371471 0.4208741 155 100 58 255 -9 -9
0.5540642 -0.46657765 0.42087403 179 122 72 255 -9 -9
0.5000002 -0.5118313 -0.40000007 109 69 40 255 -9 -9
-0.49999952 0.4876296 -0.3999999 109 69 40 255 -9 -9
-0.49999955 0.4876296 -0.5985766 109 69 40 255 -9 -9
0.5000001 -0.5118313 -0.5985767 109 69 40 255 -9 -9
-0.4999986 0.6290461 -0.5985766 109 69 40 255 -9 -9
0.5000001 -0.37046218 -0.5985767 109 69 40 255 -9 -9
-0.49999857 0.6290461 -0.3999999 109 69 40 255 -9 -9
0.5000002 -0.37046218 -0.40000004 109 69 40 255 -9 -9
0.5879548 -0.59946907 -0.39548588 109 69 40 255 -9 -9
0.5879547 -0.45969522 -0.39548585 109 69 40 255 -9 -9
0.50000036 -0.5118313 0.59890735 109 69 40 255 -9 -9
-0.49999937 0.4876296 0.5989075 109 69 40 255 -9 -9
-0.4999994 0.4876296 0.40000007 109 69 40 255 -9 -9
0.5000003 -0.5118313 0.3999999 109 69 40 255 -9 -9
-0.49999845 0.6290461 0.40000007 109 69 40 255 -9 -9
0.5000003 -0.37046218 0.39999992 109 69 40 255 -9 -9
-0.49999842 0.6290461 0.5989075 109 69 40 255 -9 -9
0.50000036 -0.37046218 0.5989074 109 69 40 255 -9 -9
0.58795494 -0.59946907 0.39548576 109 69 40 255 -9 -9
0.587955 -0.59946907 0.59326464 109 69 40 255 -9 -9
0.58795476 -0.59946907 -0.592934 109 69 40 255 -9 -9
0.58795464 -0.45969522 -0.592934 109 69 40 255 -9 -9
0.5879548 -0.45969522 0.3954858 109 69 40 255 -9 -9
0.5879549 -0.45969522 0.59326476 109 69 40 255 -9 -9
-0.50000006 -0.50000006 -0.4574689 254 254 254 255 1 0
-0.50000006 0.5 -0.4574689 254 254 254 255 1 1
-0.50000006 0.5 -0.49999946 254 254 254 255 1 1
-0.50000006 -0.50000006 -0.49999917 254 254 254 255 1 0
0.4999999 -0.5 -0.49999934 254 254 254 255 0 0
0.49999994 -0.5 -0.45746908 254 254 254 255 0 0
-0.4999999 -0.50000006 0.50000006 254 254 254 255 0 0
-0.4999999 0.5 0.49999967 254 254 254 255 0 1
-0.49999994 0.5 0.45746952 254 254 254 255 0 1
-0.49999994 -0.50000006 0.45746982 254 254 254 255 0 0
0.50000006 -0.5 0.45746964 254 254 254 255 1 0
0.50000006 -0.5 0.4999999 254 254 254 255 1 0
4 0 1 2 3
4 3 2 4 5
4 5 4 6 7
4 7 6 1 0
4 3 5 7 0
4 4 2 1 6
4 8 9 10 11
4 11 10 12 13
4 13 12 14 15
4 15 14 9 8
4 11 13 15 8
4 12 10 9 14
4 16 17 18 19
4 19 18 20 21
4 21 20 22 23
4 23 22 17 16
4 19 21 23 16
4 20 18 17 22
4 24 25 26 27
4 27 26 28 29
4 29 28 30 31
4 31 30 25 24
4 27 29 31 24
4 28 26 25 30
4 32 33 34 35
4 35 34 36 37
4 37 36 38 39
4 39 38 33 32
4 39 32 40 41
4 36 34 33 38
4 42 43 44 45
4 45 44 46 47
4 47 46 48 49
4 49 48 43 42
4 42 45 50 51
4 46 44 43 48
4 52 53 41 40
4 50 54 55 51
4 47 49 55 54
4 35 37 53 52
4 49 42 51 55
4 32 35 52 40
4 37 39 41 53
4 45 47 54 50
4 56 57 58 59
3 59 58 60
3 61 57 56
4 59 60 61 56
4 60 58 57 61
4 62 63 64 65
3 65 64 66
3 67 63 62
4 65 66 67 62
4 66 64 63 67
