ply
format ascii 1.0
comment Created in Blender version 4.2.3 LTS
element vertex 64
property float x
property float y
property float z
property uchar red
property uchar green
property uchar blue
property uchar alpha
element face 124
property list uchar uint vertex_indices
end_header
0 -0.5 0.27760094 193 175 160 255
0 -0.23821902 0.27760094 193 175 160 255
-0.1962935 -0.5 0.1962935 193 174 159 255
-0.1962935 -0.23821902 0.1962935 193 175 160 255
-0.27760094 -0.5 -1.2134323e-08 193 175 160 255
-0.27760094 -0.23821902 -1.2134323e-08 193 175 160 255
-0.1962935 -0.5 -0.1962935 193 175 160 255
-0.1962935 -0.23821902 -0.1962935 193 175 160 255
2.4268646e-08 -0.5 -0.27760094 193 175 160 255
2.4268646e-08 -0.23821902 -0.27760094 193 175 160 255
0.19629349 -0.5 -0.19629352 193 175 160 255
0.19629349 -0.23821902 -0.19629352 193 175 160 255
0.27760094 -0.5 3.3103582e-09 193 175 160 255
0.27760094 -0.23821902 3.3103582e-09 193 175 160 255
0.19629353 -0.5 0.19629349 193 175 160 255
0.19629353 -0.23821902 0.19629349 193 175 160 255
-0.18747199 -0.21771294 0.18747202 137 122 113 255
4.3842956e-09 -0.21771294 0.26512545 137 122 113 255
-0.26512545 -0.21771294 -1.1518028e-08 137 122 113 255
-0.18747199 -0.21771294 -0.18747202 137 122 113 255
2.75623e-08 -0.21771294 -0.26512545 137 122 113 255
0.18747199 -0.21771294 -0.18747203 137 122 113 255
0.26512545 -0.21771294 3.2325622e-09 137 122 113 255
0.18747205 -0.21771294 0.18747199 137 122 113 255
-0.19465055 -0.20062454 0.19465056 193 175 160 255
7.086497e-09 -0.20062454 0.27527747 193 175 160 255
-0.27527747 -0.20062454 -1.1757206e-08 193 175 160 255
-0.19465055 -0.20062454 -0.19465056 193 175 160 255
3.1152013e-08 -0.20062454 -0.27527747 193 175 160 255
0.19465055 -0.20062454 -0.19465058 193 175 160 255
0.27527747 -0.20062454 3.5582057e-09 193 175 160 255
0.19465059 -0.20062454 0.19465055 193 175 160 255
-0.19465055 0.16711402 0.19465056 193 175 160 255
9.662336e-09 0.16711402 0.27527747 193 175 160 255
-0.27527747 0.16711402 -1.1757206e-08 193 175 160 255
-0.19465055 0.16711402 -0.19465056 193 175 160 255
3.3727854e-08 0.16711402 -0.27527747 193 175 160 255
0.19465055 0.16711402 -0.19465058 193 175 160 255
0.27527747 0.16711402 3.5582057e-09 193 175 160 255
0.19465059 0.16711402 0.19465055 193 175 160 255
-0.18695113 0.18557337 0.18695116 137 122 113 255
1.3761724e-08 0.18557337 0.2643889 137 122 113 255
-0.26438886 0.18557337 -1.130717e-08 137 122 113 255
-0.18695113 0.18557337 -0.18695116 137 122 113 255
3.687533e-08 0.18557337 -0.2643889 137 122 113 255
0.18695115 0.18557337 -0.18695118 137 122 113 255
0.2643889 0.18557337 3.4024397e-09 137 122 113 255
0.1869512 0.18557337 0.18695115 137 122 113 255
-0.19538875 0.20537667 0.1953888 193 175 160 255
1.8229969e-08 0.20537667 0.27632147 193 175 160 255
-0.27632147 0.20537667 -1.1618612e-08 193 175 160 255
-0.19538875 0.20537667 -0.1953888 193 175 160 255
4.2386755e-08 0.20537667 -0.27632147 193 175 160 255
0.19538876 0.20537667 -0.19538881 193 175 160 255
0.27632147 0.20537667 3.754884e-09 193 175 160 255
0.19538884 0.20537667 0.19538876 193 175 160 255
-0.19538875 0.5 0.1953888 193 175 160 255
1.8229969e-08 0.5 0.27632147 193 175 160 255
-0.27632147 0.5 -1.1618612e-08 193 175 160 255
-0.19538875 0.5 -0.1953888 193 175 160 255
4.2386755e-08 0.5 -0.27632147 193 175 160 255
0.19538876 0.5 -0.19538881 193 175 160 255
0.27632147 0.5 3.754884e-09 193 175 160 255
0.19538884 0.5 0.19538876 193 175 160 255
3 1 2 0
3 3 4 2
3 5 6 4
3 7 8 6
3 9 10 8
3 11 12 10
3 5 19 7
3 13 14 12
3 15 0 14
3 6 10 14
3 22 31 23
3 11 22 13
3 9 19 20
3 15 22 23
3 3 18 5
3 11 20 21
3 15 17 1
3 1 16 3
3 27 36 28
3 20 29 21
3 18 27 19
3 17 24 16
3 23 25 17
3 21 30 22
3 19 28 20
3 16 26 18
3 39 41 33
3 24 34 26
3 30 39 31
3 28 37 29
3 26 35 27
3 25 32 24
3 31 33 25
3 29 38 30
3 45 52 53
3 37 46 38
3 35 44 36
3 32 42 34
3 38 47 39
3 37 44 45
3 34 43 35
3 33 40 32
3 54 63 55
3 42 51 43
3 41 48 40
3 47 49 41
3 46 53 54
3 44 51 52
3 40 50 42
3 47 54 55
3 62 60 58
3 52 61 53
3 50 59 51
3 49 56 48
3 55 57 49
3 53 62 54
3 51 60 52
3 48 58 50
3 1 3 2
3 3 5 4
3 5 7 6
3 7 9 8
3 9 11 10
3 11 13 12
3 5 18 19
3 13 15 14
3 15 1 0
3 14 0 2
3 2 4 6
3 6 8 10
3 10 12 14
3 14 2 6
3 22 30 31
3 11 21 22
3 9 7 19
3 15 13 22
3 3 16 18
3 11 9 20
3 15 23 17
3 1 17 16
3 27 35 36
3 20 28 29
3 18 26 27
3 17 25 24
3 23 31 25
3 21 29 30
3 19 27 28
3 16 24 26
3 39 47 41
3 24 32 34
3 30 38 39
3 28 36 37
3 26 34 35
3 25 33 32
3 31 39 33
3 29 37 38
3 45 44 52
3 37 45 46
3 35 43 44
3 32 40 42
3 38 46 47
3 37 36 44
3 34 42 43
3 33 41 40
3 54 62 63
3 42 50 51
3 41 49 48
3 47 55 49
3 46 45 53
3 44 43 51
3 40 48 50
3 47 46 54
3 58 56 57
3 57 63 62
3 62 61 60
3 60 59 58
3 58 57 62
3 52 60 61
3 50 58 59
3 49 57 56
3 55 63 57
3 53 61 62
3 51 59 60
3 48 56 58
