ply
format ascii 1.0
comment Created by Blender 2.83.20 - www.blender.org, source file: '5DoorFrameRightOpenedBlue.blend'
element vertex 98
property float x
property float y
property float z
property uchar red
property uchar green
property uchar blue
property uchar alpha
element face 75
property list uchar uint vertex_indices
end_header
-0.283069 1.500010 0.500056 182 176 163 255
-0.283069 1.405647 0.400056 182 176 163 255
-0.283069 1.500010 0.400056 182 176 163 255
-0.383069 1.405938 0.400056 182 176 163 255
-0.383069 -0.499989 0.500056 182 176 163 255
-0.383069 1.500010 0.500056 182 176 163 255
-0.283069 -0.499989 0.400056 183 177 164 255
-0.283069 -0.499989 0.500056 184 178 166 255
-0.283069 1.500010 -0.499884 182 176 163 255
-0.383069 1.500010 -0.499884 182 176 163 255
-0.383069 1.406056 -0.499884 182 176 163 255
-0.283069 1.405599 -0.499884 182 176 163 255
-0.383069 -0.499989 0.400056 182 176 163 255
-0.383069 1.500010 0.400056 182 176 163 255
0.367368 0.287270 0.498823 105 86 96 255
0.367368 0.340854 0.498823 105 86 96 255
0.362601 0.340854 0.445452 105 86 96 255
0.362601 0.287270 0.445452 105 86 96 255
0.471969 0.271271 0.445576 105 86 96 255
0.471969 0.356881 0.445576 105 86 96 255
0.457737 0.356881 0.286210 105 86 96 255
0.457737 0.271271 0.286210 105 86 96 255
-0.283870 -0.183525 0.379789 105 86 96 255
-0.283870 -0.076220 0.379789 105 86 96 255
-0.274325 -0.076220 0.486668 105 86 96 255
-0.274325 -0.183525 0.486668 105 86 96 255
-0.390749 -0.183525 0.389334 105 86 96 255
-0.390749 -0.076220 0.389334 105 86 96 255
-0.381204 -0.183525 0.496213 105 86 96 255
-0.381204 -0.076220 0.496213 105 86 96 255
0.543007 0.271271 0.278595 105 86 96 255
0.543007 0.356881 0.278595 105 86 96 255
0.557240 0.356881 0.437961 105 86 96 255
0.557240 0.271271 0.437961 105 86 96 255
0.209308 -0.169756 0.349567 105 86 96 255
0.209308 -0.089990 0.349567 105 86 96 255
0.216404 -0.089990 0.429017 105 86 96 255
0.216404 -0.169756 0.429017 105 86 96 255
-0.288710 -0.169756 0.394045 105 86 96 255
-0.288710 -0.089990 0.394045 105 86 96 255
-0.281614 -0.169756 0.473495 105 86 96 255
-0.281614 -0.089990 0.473495 105 86 96 255
0.541888 0.340854 0.429440 105 86 96 255
0.541888 0.287270 0.429440 108 90 99 255
-0.288710 0.541737 0.394045 105 86 96 255
-0.281614 0.541737 0.473495 105 86 96 255
0.216404 0.541737 0.429017 105 86 96 255
0.209308 0.541737 0.349567 104 85 95 255
-0.283870 1.032628 0.379789 105 86 96 255
-0.283870 1.139933 0.379789 105 86 96 255
-0.274325 1.139933 0.486668 105 86 96 255
-0.274325 1.032628 0.486668 105 86 96 255
-0.390749 1.032628 0.389334 105 86 96 255
-0.390749 1.139933 0.389334 105 86 96 255
-0.381204 1.032628 0.496213 105 86 96 255
-0.381204 1.139933 0.496213 105 86 96 255
-0.281614 0.461970 0.473495 105 86 96 255
-0.288710 0.461970 0.394045 105 86 96 255
-0.390749 0.448201 0.389334 104 85 95 255
-0.283870 0.448201 0.379789 105 86 96 255
-0.274325 0.448201 0.486668 105 86 96 255
-0.381204 0.448201 0.496213 105 86 96 255
0.209308 1.046397 0.349567 105 86 96 255
0.209308 1.126163 0.349567 105 86 96 255
0.216404 1.126163 0.429017 105 86 96 255
0.216404 1.046397 0.429017 105 86 96 255
-0.288710 1.046397 0.394045 105 86 96 255
-0.288710 1.126163 0.394045 105 86 96 255
-0.281614 1.046397 0.473495 105 86 96 255
-0.281614 1.126163 0.473495 105 86 96 255
0.209308 0.461970 0.349567 97 78 88 255
0.216404 0.461970 0.429017 105 86 96 255
0.546654 0.287270 0.482811 105 86 96 255
0.546654 0.340854 0.482811 105 86 96 255
-0.381204 0.555506 0.496213 103 85 95 255
-0.390749 0.555506 0.389334 104 85 95 255
-0.274325 0.555506 0.486668 105 86 96 255
-0.283870 0.555506 0.379789 105 86 96 255
0.529346 0.287270 0.289004 105 86 96 255
0.529346 0.340854 0.289004 105 86 96 255
0.350059 0.340854 0.305016 105 86 96 255
0.350059 0.287270 0.305016 105 86 96 255
0.604200 -0.495335 0.383344 81 104 134 255
0.604200 1.404665 0.383344 81 104 134 255
-0.292672 1.404665 0.463443 81 104 134 255
-0.292672 -0.495335 0.463443 81 104 134 255
0.345292 0.340854 0.251644 105 86 96 255
0.345292 0.287270 0.251644 105 86 96 255
0.598863 -0.495335 0.323582 81 104 134 255
0.598863 1.404665 0.323582 81 104 134 255
0.524579 0.340854 0.235632 105 86 96 255
0.524579 0.287270 0.235632 105 86 96 255
-0.298009 -0.495335 0.403681 81 104 134 255
-0.298009 1.404665 0.403681 81 104 134 255
-0.292672 -0.495335 0.463443 199 111 77 255
-0.292672 1.404665 0.463443 199 111 77 255
-0.298009 1.404665 0.403681 199 111 77 255
-0.298009 -0.495335 0.403681 199 111 77 255
3 0 1 2
3 3 4 5
3 6 1 7
3 7 1 0
4 8 9 10 11
3 4 3 12
3 3 5 13
4 7 4 12 6
4 5 0 2 13
4 14 15 16 17
4 12 3 1 6
4 10 3 13 9
4 10 11 1 3
4 18 19 20 21
4 22 23 24 25
4 26 27 23 22
4 28 29 27 26
4 30 31 32 33
4 21 20 31 30
4 33 32 19 18
4 34 35 36 37
4 38 39 35 34
4 40 41 39 38
4 17 16 42 43
4 44 45 46 47
4 20 19 32 31
4 48 49 50 51
4 52 53 49 48
4 54 55 53 52
4 56 45 44 57
4 58 59 60 61
4 40 38 34 37
4 62 63 64 65
4 66 67 63 62
4 68 69 67 66
4 57 44 47 70
4 56 57 70 71
4 41 36 35 39
4 72 73 15 14
4 7 0 5 4
4 61 74 75 58
4 71 46 45 56
4 75 74 76 77
4 27 29 24 23
4 68 66 62 65
4 60 76 74 61
4 70 47 46 71
4 78 79 80 81
4 82 83 84 85
4 67 69 64 63
4 26 22 25 28
4 81 80 86 87
4 88 89 83 82
4 25 24 29 28
4 15 73 42 16
4 21 30 33 18
4 65 64 69 68
4 87 86 90 91
4 8 9 13 2
4 37 36 41 40
4 80 79 90 86
4 85 92 88 82
4 58 75 77 59
4 51 50 55 54
4 43 42 73 72
4 91 90 79 78
4 81 87 91 78
4 14 17 43 72
4 52 48 51 54
4 92 93 89 88
4 94 95 96 97
4 53 55 50 49
4 93 84 83 89
4 8 2 1 11
4 59 77 76 60
