ply
format ascii 1.0
comment Created by Blender 2.83.20 - www.blender.org, source file: '5DoorFrameLeftOpenedRed.blend'
element vertex 98
property float x
property float y
property float z
property uchar red
property uchar green
property uchar blue
property uchar alpha
element face 75
property list uchar uint vertex_indices
end_header
-0.283069 1.500010 -0.499939 182 176 163 255
-0.283069 1.500010 -0.399939 182 176 163 255
-0.283069 1.405647 -0.399939 182 176 163 255
-0.383069 1.405938 -0.399939 182 176 163 255
-0.383069 1.500010 -0.499939 182 176 163 255
-0.383069 -0.499989 -0.499939 182 176 163 255
-0.283069 -0.499989 -0.399939 183 177 164 255
-0.283069 -0.499989 -0.499939 184 178 166 255
-0.283069 1.500010 0.500001 182 176 163 255
-0.283069 1.405599 0.500001 182 176 163 255
-0.383069 1.406056 0.500001 182 176 163 255
-0.383069 1.500010 0.500001 182 176 163 255
-0.383069 -0.499989 -0.399939 182 176 163 255
-0.383069 1.500010 -0.399939 182 176 163 255
0.367368 0.287270 -0.498706 105 86 96 255
0.362601 0.287270 -0.445335 105 86 96 255
0.362601 0.340854 -0.445335 105 86 96 255
0.367368 0.340854 -0.498706 105 86 96 255
0.471969 0.271271 -0.445459 105 86 96 255
0.457737 0.271271 -0.286094 105 86 96 255
0.457737 0.356881 -0.286094 105 86 96 255
0.471969 0.356881 -0.445459 105 86 96 255
-0.283870 -0.183525 -0.379672 105 86 96 255
-0.274325 -0.183525 -0.486551 105 86 96 255
-0.274325 -0.076220 -0.486551 105 86 96 255
-0.283870 -0.076220 -0.379672 105 86 96 255
-0.390749 -0.183525 -0.389217 105 86 96 255
-0.390749 -0.076220 -0.389217 105 86 96 255
-0.381204 -0.183525 -0.496097 105 86 96 255
-0.381204 -0.076220 -0.496097 105 86 96 255
0.543007 0.271271 -0.278478 105 86 96 255
0.557240 0.271271 -0.437844 105 86 96 255
0.557240 0.356881 -0.437844 105 86 96 255
0.543007 0.356881 -0.278478 105 86 96 255
0.209308 -0.169756 -0.349450 105 86 96 255
0.216404 -0.169756 -0.428900 105 86 96 255
0.216404 -0.089990 -0.428900 105 86 96 255
0.209308 -0.089990 -0.349450 105 86 96 255
-0.288710 -0.169756 -0.393928 105 86 96 255
-0.288710 -0.089990 -0.393928 105 86 96 255
-0.281614 -0.169756 -0.473378 105 86 96 255
-0.281614 -0.089990 -0.473378 105 86 96 255
0.541888 0.287270 -0.429323 108 90 99 255
0.541888 0.340854 -0.429323 105 86 96 255
-0.288710 0.541737 -0.393928 105 86 96 255
0.209308 0.541737 -0.349450 104 85 95 255
0.216404 0.541737 -0.428900 105 86 96 255
-0.281614 0.541737 -0.473378 105 86 96 255
-0.283870 1.032628 -0.379672 105 86 96 255
-0.274325 1.032628 -0.486551 105 86 96 255
-0.274325 1.139933 -0.486551 105 86 96 255
-0.283870 1.139933 -0.379672 105 86 96 255
-0.390749 1.032628 -0.389217 105 86 96 255
-0.390749 1.139933 -0.389217 105 86 96 255
-0.381204 1.032628 -0.496097 105 86 96 255
-0.381204 1.139933 -0.496097 105 86 96 255
-0.281614 0.461970 -0.473378 105 86 96 255
-0.288710 0.461970 -0.393928 105 86 96 255
-0.390749 0.448201 -0.389217 104 85 95 255
-0.381204 0.448201 -0.496097 105 86 96 255
-0.274325 0.448201 -0.486551 105 86 96 255
-0.283870 0.448201 -0.379672 105 86 96 255
0.209308 1.046397 -0.349450 105 86 96 255
0.216404 1.046397 -0.428900 105 86 96 255
0.216404 1.126163 -0.428900 105 86 96 255
0.209308 1.126163 -0.349450 105 86 96 255
-0.288710 1.046397 -0.393928 105 86 96 255
-0.288710 1.126163 -0.393928 105 86 96 255
-0.281614 1.046397 -0.473378 105 86 96 255
-0.281614 1.126163 -0.473378 105 86 96 255
0.209308 0.461970 -0.349450 97 78 88 255
0.216404 0.461970 -0.428900 105 86 96 255
0.546654 0.287270 -0.482694 105 86 96 255
0.546654 0.340854 -0.482694 105 86 96 255
-0.390749 0.555506 -0.389217 104 85 95 255
-0.381204 0.555506 -0.496097 103 85 95 255
-0.283870 0.555506 -0.379672 105 86 96 255
-0.274325 0.555506 -0.486551 105 86 96 255
0.529346 0.287270 -0.288887 105 86 96 255
0.350059 0.287270 -0.304899 105 86 96 255
0.350059 0.340854 -0.304899 105 86 96 255
0.529346 0.340854 -0.288887 105 86 96 255
0.604200 -0.495335 -0.383227 153 79 75 255
-0.292672 -0.495335 -0.463327 153 79 75 255
-0.292672 1.404665 -0.463327 155 80 75 255
0.604200 1.404665 -0.383227 155 81 75 255
0.345292 0.287270 -0.251528 105 86 96 255
0.345292 0.340854 -0.251528 105 86 96 255
0.598863 -0.495335 -0.323465 153 79 75 255
0.598863 1.404665 -0.323465 153 79 75 255
0.524579 0.287270 -0.235516 105 86 96 255
0.524579 0.340854 -0.235516 105 86 96 255
-0.298009 -0.495335 -0.403564 153 79 75 255
-0.298009 1.404665 -0.403564 154 80 75 255
-0.292672 -0.495335 -0.463327 199 111 77 255
-0.298009 -0.495335 -0.403564 199 111 77 255
-0.298009 1.404665 -0.403564 199 111 77 255
-0.292672 1.404665 -0.463327 199 111 77 255
3 0 1 2
3 3 4 5
3 6 7 2
3 7 0 2
4 8 9 10 11
3 5 12 3
3 3 13 4
4 7 6 12 5
4 4 13 1 0
4 14 15 16 17
4 12 6 2 3
4 10 11 13 3
4 10 3 2 9
4 18 19 20 21
4 22 23 24 25
4 26 22 25 27
4 28 26 27 29
4 30 31 32 33
4 19 30 33 20
4 31 18 21 32
4 34 35 36 37
4 38 34 37 39
4 40 38 39 41
4 15 42 43 16
4 44 45 46 47
4 20 33 32 21
4 48 49 50 51
4 52 48 51 53
4 54 52 53 55
4 56 57 44 47
4 58 59 60 61
4 40 35 34 38
4 62 63 64 65
4 66 62 65 67
4 68 66 67 69
4 57 70 45 44
4 56 71 70 57
4 41 39 37 36
4 72 14 17 73
4 7 5 4 0
4 59 58 74 75
4 71 56 47 46
4 74 76 77 75
4 27 25 24 29
4 68 63 62 66
4 60 59 75 77
4 70 71 46 45
4 78 79 80 81
4 82 83 84 85
4 67 65 64 69
4 26 28 23 22
4 79 86 87 80
4 88 82 85 89
4 23 28 29 24
4 17 16 43 73
4 19 18 31 30
4 63 68 69 64
4 86 90 91 87
4 8 1 13 11
4 35 40 41 36
4 80 87 91 81
4 83 82 88 92
4 58 61 76 74
4 49 54 55 50
4 42 72 73 43
4 90 78 81 91
4 79 78 90 86
4 14 72 42 15
4 52 54 49 48
4 92 88 89 93
4 94 95 96 97
4 53 51 50 55
4 93 89 85 84
4 8 9 2 1
4 61 60 77 76
