ply
format ascii 1.0
comment Created by Blender 2.83.20 - www.blender.org, source file: '5DoorFrameRightClosedRed.blend'
element vertex 100
property float x
property float y
property float z
property uchar red
property uchar green
property uchar blue
property uchar alpha
element face 75
property list uchar uint vertex_indices
end_header
-0.283069 1.500010 0.499058 182 176 163 255
-0.283069 1.405647 0.399058 182 176 163 255
-0.283069 1.500010 0.399058 182 176 163 255
-0.383069 1.405939 0.399058 182 176 163 255
-0.383069 -0.499990 0.499058 182 176 163 255
-0.383069 1.500010 0.499058 182 176 163 255
-0.363649 -0.495335 -0.500882 153 79 75 255
-0.363649 1.404665 -0.500882 153 79 75 255
-0.303649 1.404665 -0.500882 153 79 75 255
-0.303649 -0.495335 -0.500882 153 79 75 255
-0.363649 -0.495335 0.399560 153 79 75 255
-0.363649 1.404665 0.399560 153 79 75 255
-0.303649 -0.495335 0.399560 199 111 77 255
-0.303649 1.404665 0.399560 199 111 77 255
-0.363649 1.404665 0.399560 199 111 77 255
-0.363649 -0.495335 0.399560 199 111 77 255
-0.303649 -0.495335 0.399560 153 79 75 255
-0.303649 1.404665 -0.500882 199 111 77 255
-0.363649 1.404665 -0.500882 199 111 77 255
-0.209695 0.287270 -0.254716 105 86 96 255
-0.263279 0.287270 -0.254716 105 86 96 255
-0.263279 0.287270 -0.434716 108 90 99 255
-0.209695 0.287270 -0.434716 105 86 96 255
-0.283069 -0.499990 0.399058 183 177 164 255
-0.283069 -0.499990 0.499058 184 178 166 255
-0.283069 1.500010 -0.500881 182 176 163 255
-0.383069 1.500010 -0.500881 182 176 163 255
-0.383069 1.406056 -0.500881 182 176 163 255
-0.283069 1.405599 -0.500881 182 176 163 255
-0.383069 -0.499990 0.399058 182 176 163 255
-0.383069 1.500010 0.399058 182 176 163 255
-0.209695 0.340854 -0.254716 105 86 96 255
-0.263279 0.340854 -0.254716 105 86 96 255
-0.209695 0.340854 -0.434716 105 86 96 255
-0.386189 -0.183525 0.383351 105 86 96 255
-0.386189 -0.076220 0.383351 105 86 96 255
-0.278885 -0.076220 0.383351 105 86 96 255
-0.278885 -0.183525 0.383351 105 86 96 255
-0.386189 -0.183525 0.490656 105 86 96 255
-0.386189 -0.076220 0.490656 105 86 96 255
-0.278885 -0.183525 0.490656 105 86 96 255
-0.278885 -0.076220 0.490656 105 86 96 255
-0.292654 -0.169756 -0.110560 105 86 96 255
-0.292654 -0.089989 -0.110560 105 86 96 255
-0.292654 -0.089989 0.389440 105 86 96 255
-0.292654 -0.169756 0.389440 105 86 96 255
-0.372420 -0.169756 -0.110560 105 86 96 255
-0.372420 -0.089989 -0.110560 105 86 96 255
-0.372420 -0.169756 0.389440 105 86 96 255
-0.372420 -0.089989 0.389440 105 86 96 255
-0.278885 1.032628 0.383351 105 86 96 255
-0.278885 1.139933 0.383351 105 86 96 255
-0.278885 1.139933 0.490656 105 86 96 255
-0.278885 1.032628 0.490656 105 86 96 255
-0.386189 1.032628 0.383351 105 86 96 255
-0.386189 1.139933 0.383351 105 86 96 255
-0.386189 1.032628 0.490656 105 86 96 255
-0.386189 1.139933 0.490656 105 86 96 255
-0.292654 1.046397 -0.110560 105 86 96 255
-0.292654 1.126163 -0.110560 105 86 96 255
-0.292654 1.126163 0.389440 105 86 96 255
-0.292654 1.046397 0.389440 105 86 96 255
-0.372420 1.046397 -0.110560 105 86 96 255
-0.372420 1.126163 -0.110560 105 86 96 255
-0.372420 1.046397 0.389440 105 86 96 255
-0.372420 1.126163 0.389440 105 86 96 255
-0.278885 0.448201 0.383351 105 86 96 255
-0.278885 0.555506 0.383351 105 86 96 255
-0.278885 0.555506 0.490656 103 85 95 255
-0.278885 0.448201 0.490656 105 86 96 255
-0.386189 0.448201 0.383351 105 86 96 255
-0.386189 0.555506 0.383351 105 86 96 255
-0.386189 0.448201 0.490656 104 85 95 255
-0.386189 0.555506 0.490656 104 85 95 255
-0.292654 0.461970 -0.110560 105 86 96 255
-0.292654 0.541737 -0.110560 105 86 96 255
-0.292654 0.541737 0.389440 105 86 96 255
-0.292654 0.461970 0.389440 105 86 96 255
-0.372420 0.461970 -0.110560 97 78 88 255
-0.372420 0.541737 -0.110560 104 85 95 255
-0.372420 0.461970 0.389440 105 86 96 255
-0.372420 0.541737 0.389440 105 86 96 255
-0.253426 0.271271 -0.449250 105 86 96 255
-0.253426 0.356881 -0.449250 105 86 96 255
-0.253426 0.356881 -0.363640 105 86 96 255
-0.253426 0.271271 -0.363640 105 86 96 255
-0.413426 0.271271 -0.449250 105 86 96 255
-0.413426 0.356881 -0.449250 105 86 96 255
-0.413426 0.271271 -0.363640 105 86 96 255
-0.413426 0.356881 -0.363640 105 86 96 255
-0.404274 0.287270 -0.434716 105 86 96 255
-0.404274 0.340854 -0.434716 105 86 96 255
-0.404274 0.340854 -0.254716 105 86 96 255
-0.404274 0.287270 -0.254716 105 86 96 255
-0.457858 0.287270 -0.434716 105 86 96 255
-0.457858 0.340854 -0.434716 105 86 96 255
-0.457858 0.287270 -0.254716 105 86 96 255
-0.457858 0.340854 -0.254716 105 86 96 255
-0.263279 0.340854 -0.434716 105 86 96 255
-0.303649 1.404665 0.399560 153 79 75 255
3 0 1 2
3 3 4 5
4 6 7 8 9
4 10 11 7 6
4 12 13 14 15
4 16 10 6 9
4 14 13 17 18
4 19 20 21 22
3 23 1 24
3 24 1 0
4 25 26 27 28
3 4 3 29
3 3 5 30
4 24 4 29 23
4 5 0 2 30
4 19 31 32 20
4 29 3 1 23
4 27 3 30 26
4 28 1 3 27
4 22 33 31 19
4 34 35 36 37
4 38 39 35 34
4 40 41 39 38
4 40 38 34 37
4 39 41 36 35
4 42 43 44 45
4 46 47 43 42
4 48 49 47 46
4 45 44 49 48
4 45 48 46 42
4 49 44 43 47
4 50 51 52 53
4 54 55 51 50
4 56 57 55 54
4 53 52 57 56
4 53 56 54 50
4 57 52 51 55
4 58 59 60 61
4 62 63 59 58
4 64 65 63 62
4 61 60 65 64
4 61 64 62 58
4 65 60 59 63
4 66 67 68 69
4 70 71 67 66
4 72 73 71 70
4 69 68 73 72
4 69 72 70 66
4 73 68 67 71
4 74 75 76 77
4 78 79 75 74
4 80 81 79 78
4 77 76 81 80
4 77 80 78 74
4 81 76 75 79
4 82 83 84 85
4 86 87 83 82
4 88 89 87 86
4 85 84 89 88
4 85 88 86 82
4 89 84 83 87
4 90 91 92 93
4 94 95 91 90
4 96 97 95 94
4 93 92 97 96
4 93 96 94 90
4 97 92 91 95
4 32 31 33 98
4 37 36 41 40
4 25 26 30 2
4 21 98 33 22
4 20 32 98 21
4 24 0 5 4
4 25 2 1 28
4 9 8 99 16
