ply
format ascii 1.0
comment Created in Blender version 4.2.3 LTS
element vertex 64
property float x
property float y
property float z
property uchar red
property uchar green
property uchar blue
property uchar alpha
element face 124
property list uchar uint vertex_indices
end_header
0 0.23821898 0.277601 193 141 93 255
0.196294 0.5 0.19629401 193 141 93 255
0 0.5 0.27760103 193 141 93 255
0.196294 0.23821898 0.19629401 193 141 93 255
0.277601 0.5 2.1855694e-08 193 141 93 255
0.277601 0.238219 1.0412883e-08 194 143 96 255
0.196294 0.5 -0.19629398 193 141 93 255
0.196294 0.23821901 -0.19629398 193 141 93 255
0 0.5 -0.27760097 193 141 93 255
0 0.23821901 -0.277601 193 141 93 255
-0.196293 0.5 -0.19629398 194 142 94 255
-0.196293 0.23821901 -0.19629398 193 141 93 255
-0.277601 0.5 2.1855694e-08 194 143 95 255
0.187472 0.21771301 -0.18747199 136 98 66 255
-0.277601 0.238219 1.0412883e-08 193 141 93 255
-0.196294 0.5 0.19629301 193 142 94 255
-0.196294 0.23821898 0.19629301 193 141 93 255
-0.265125 0.217713 9.516538e-09 136 98 66 255
-0.194651 0.20062499 0.19465101 193 141 93 255
-0.187472 0.21771298 0.18747202 136 98 66 255
0 0.21771301 -0.265125 136 98 66 255
0.265125 0.217713 9.516538e-09 136 98 66 255
-0.187472 0.21771301 -0.18747199 136 98 66 255
0 0.21771298 0.265125 136 98 66 255
0.187472 0.21771298 0.18747202 136 98 66 255
0.194651 0.20062502 -0.19465098 193 141 93 255
0 -0.16711399 -0.275277 193 141 93 255
0 0.20062502 -0.275277 193 141 93 255
-0.194651 0.20062502 -0.19465098 193 141 93 255
0.194651 0.20062499 0.19465101 194 142 94 255
0 0.20062499 0.275277 193 141 93 255
-0.275277 0.200625 8.7695975e-09 193 141 93 255
0.275277 0.200625 8.7695975e-09 190 140 92 255
-0.194651 -0.16711402 0.194651 193 142 95 255
0 -0.18557301 0.264389 136 98 66 255
0 -0.16711402 0.275277 193 141 93 255
0.275277 -0.167114 -7.304785e-09 193 141 93 255
-0.194651 -0.16711399 -0.194651 193 141 93 255
0.194651 -0.16711399 -0.194651 193 141 93 255
0.194651 -0.16711402 0.194651 193 141 93 255
-0.275277 -0.167114 -7.304785e-09 193 141 93 255
-0.186951 -0.18557298 -0.18695101 136 98 66 255
0 -0.20537698 -0.276321 193 141 93 255
-0.195389 -0.20537698 -0.19538902 193 141 93 255
-0.264389 -0.185573 -8.111654e-09 136 98 66 255
0 -0.18557298 -0.264389 136 98 66 255
0.264389 -0.185573 -8.111654e-09 136 98 66 255
-0.186951 -0.18557301 0.18695098 136 98 66 255
0.186951 -0.18557298 -0.18695101 136 98 66 255
0.186951 -0.18557301 0.18695098 136 98 66 255
-0.276321 -0.205377 -8.977314e-09 193 141 93 255
-0.195389 -0.5 0.19538899 193 141 93 255
-0.195389 -0.20537701 0.19538899 193 141 93 255
0.195389 -0.20537698 -0.19538902 193 141 93 255
0.195389 -0.20537701 0.19538899 193 141 93 255
0 -0.20537701 0.276321 193 141 93 255
0.276321 -0.205377 -8.977314e-09 193 141 93 255
0.276321 -0.5 -2.1855694e-08 193 141 93 255
0 -0.5 0.27632096 193 141 93 255
-0.276321 -0.5 -2.1855694e-08 193 141 93 255
-0.195389 -0.5 -0.19538902 193 141 93 255
0.195389 -0.5 -0.19538902 193 141 93 255
0.195389 -0.5 0.19538899 193 141 93 255
0 -0.5 -0.27632102 193 141 93 255
3 0 1 2
3 3 4 1
3 5 6 4
3 7 8 6
3 9 10 8
3 11 12 10
3 5 13 7
3 14 15 12
3 16 2 15
3 6 10 15
3 17 18 19
3 11 17 14
3 9 13 20
3 16 17 19
3 3 21 5
3 11 20 22
3 23 0 16
3 0 24 3
3 25 26 27
3 20 28 22
3 21 25 13
3 23 29 24
3 19 30 23
3 22 31 17
3 13 27 20
3 24 32 21
3 33 34 35
3 29 36 32
3 31 33 18
3 27 37 28
3 32 38 25
3 30 39 29
3 18 35 30
3 28 40 31
3 41 42 43
3 37 44 40
3 38 45 26
3 39 46 36
3 40 47 33
3 37 45 41
3 36 48 38
3 35 49 39
3 50 51 52
3 46 53 48
3 34 54 49
3 47 55 34
3 44 43 50
3 45 53 42
3 49 56 46
3 47 50 52
3 57 58 59
3 42 60 43
3 56 61 53
3 55 62 54
3 52 58 55
3 43 59 50
3 53 63 42
3 54 57 56
3 0 3 1
3 3 5 4
3 5 7 6
3 7 9 8
3 9 11 10
3 11 14 12
3 5 21 13
3 14 16 15
3 16 0 2
3 15 2 1
3 1 4 6
3 6 8 10
3 10 12 15
3 15 1 6
3 17 31 18
3 11 22 17
3 9 7 13
3 16 14 17
3 3 24 21
3 11 9 20
3 16 19 23
3 0 23 24
3 25 38 26
3 20 27 28
3 21 32 25
3 23 30 29
3 19 18 30
3 22 28 31
3 13 25 27
3 24 29 32
3 33 47 34
3 29 39 36
3 31 40 33
3 27 26 37
3 32 36 38
3 30 35 39
3 18 33 35
3 28 37 40
3 41 45 42
3 37 41 44
3 38 48 45
3 39 49 46
3 40 44 47
3 37 26 45
3 36 46 48
3 35 34 49
3 50 59 51
3 46 56 53
3 34 55 54
3 47 52 55
3 44 41 43
3 45 48 53
3 49 54 56
3 47 44 50
3 57 62 58
3 58 51 59
3 59 60 63
3 63 61 59
3 61 57 59
3 42 63 60
3 56 57 61
3 55 58 62
3 52 51 58
3 43 60 59
3 53 61 63
3 54 62 57
