ply
format ascii 1.0
comment Created by Blender 3.4.1 - www.blender.org
element vertex 80
property float x
property float y
property float z
property uchar red
property uchar green
property uchar blue
property uchar alpha
element face 40
property list uchar uint vertex_indices
end_header
0.393225 -0.150309 -0.388314 175 122 85 255
0.393225 -0.150309 0.388444 175 122 85 255
0.393225 -0.184320 0.388444 175 122 85 255
0.393225 -0.184319 -0.388314 175 122 85 255
0.359215 -0.184320 0.388444 175 122 85 255
0.359215 -0.184319 -0.388314 175 122 85 255
0.359215 -0.150309 0.388444 175 122 85 255
0.359215 -0.150309 -0.388314 176 123 86 255
0.417929 -0.500000 0.500000 146 102 71 255
0.417929 0.500000 0.500000 146 102 71 255
0.331684 0.500000 0.500000 146 102 71 255
0.331684 -0.500000 0.500000 146 102 71 255
0.331684 -0.500000 -0.500000 146 102 71 255
0.331684 0.500000 -0.500000 146 102 71 255
0.417929 0.500000 -0.500000 146 102 71 255
0.417929 -0.500000 -0.500000 146 102 71 255
0.331714 0.500051 -0.437148 146 102 71 255
0.331714 -0.499999 -0.437148 146 102 71 255
0.353913 -0.499999 -0.437148 175 122 85 255
0.353913 0.500051 -0.437148 175 122 85 255
0.331714 0.500051 0.437148 146 102 71 255
0.331714 -0.500001 0.437148 147 103 72 255
0.417882 -0.500000 0.436228 146 102 71 255
0.417882 0.499957 0.436228 146 102 71 255
0.417882 0.500023 -0.436228 146 102 71 255
0.417882 -0.499999 -0.436228 146 102 71 255
0.403626 -0.500000 0.436228 175 122 85 255
0.403626 0.499957 0.436228 167 117 82 255
0.403626 0.500023 -0.436228 174 121 85 255
0.403626 -0.499999 -0.436228 175 122 85 255
0.353913 -0.500001 0.437148 175 122 85 255
0.353913 0.500051 0.437148 175 122 85 255
0.353913 0.500003 0.376131 175 122 85 255
0.353913 -0.499998 0.376131 175 122 85 255
0.403626 -0.499998 0.376025 175 122 85 255
0.403626 0.499986 0.376025 175 122 85 255
0.403626 0.499999 -0.376025 175 122 85 255
0.403626 -0.500000 -0.376025 175 122 85 255
0.353913 -0.500002 -0.376131 175 122 85 255
0.353913 0.500005 -0.376131 175 122 85 255
0.398096 -0.484549 -0.156177 175 122 85 255
0.398096 0.499977 -0.156177 175 122 85 255
0.398096 0.499977 -0.122167 175 122 85 255
0.398096 -0.484549 -0.122167 175 122 85 255
0.364086 0.499977 -0.122167 175 122 85 255
0.364086 -0.484549 -0.122167 175 122 85 255
0.364086 0.499977 -0.156177 175 122 85 255
0.364086 -0.484549 -0.156177 175 122 85 255
0.398096 -0.484549 0.122709 175 122 85 255
0.398096 0.499977 0.122709 177 126 91 255
0.398096 0.499977 0.156719 175 122 85 255
0.398096 -0.484549 0.156719 175 122 85 255
0.364086 0.499977 0.156719 175 122 85 255
0.364086 -0.484549 0.156719 175 122 85 255
0.364086 0.499977 0.122709 175 122 85 255
0.364086 -0.484549 0.122709 175 122 85 255
0.393225 0.183674 -0.386432 175 122 85 255
0.393225 0.183674 0.390327 175 122 85 255
0.393225 0.149663 0.390327 175 122 85 255
0.393225 0.149663 -0.386432 175 122 85 255
0.359215 0.149663 0.390327 175 122 85 255
0.359215 0.149663 -0.386432 175 122 85 255
0.359215 0.183674 0.390327 175 122 85 255
0.359215 0.183674 -0.386432 175 122 85 255
0.393225 0.500003 -0.386432 175 122 85 255
0.393225 0.500003 0.390327 175 122 85 255
0.393225 0.482998 0.390327 175 122 85 255
0.393225 0.482998 -0.386432 175 122 85 255
0.359215 0.482998 0.390327 175 122 85 255
0.359215 0.482998 -0.386432 175 122 85 255
0.359215 0.500003 0.390327 175 122 85 255
0.359215 0.500003 -0.386432 175 122 85 255
0.393225 -0.482994 -0.386432 175 122 85 255
0.393225 -0.482994 0.390327 175 122 85 255
0.393225 -0.499999 0.390327 175 122 85 255
0.393225 -0.499999 -0.386432 175 122 85 255
0.359215 -0.499999 0.390327 175 122 85 255
0.359215 -0.499999 -0.386432 175 122 85 255
0.359215 -0.482994 0.390327 175 122 85 255
0.359215 -0.482994 -0.386432 175 122 85 255
4 0 1 2 3
4 3 2 4 5
4 5 4 6 7
4 7 6 1 0
4 8 9 10 11
4 12 13 14 15
4 16 17 18 19
4 11 10 20 21
4 13 12 17 16
4 9 8 22 23
4 15 14 24 25
4 23 22 26 27
4 25 24 28 29
4 30 31 32 33
4 21 20 31 30
4 27 26 34 35
4 29 28 36 37
4 19 18 38 39
4 37 36 39 38
4 34 33 32 35
4 40 41 42 43
4 43 42 44 45
4 45 44 46 47
4 47 46 41 40
4 48 49 50 51
4 51 50 52 53
4 53 52 54 55
4 55 54 49 48
4 56 57 58 59
4 59 58 60 61
4 61 60 62 63
4 63 62 57 56
4 64 65 66 67
4 67 66 68 69
4 69 68 70 71
4 71 70 65 64
4 72 73 74 75
4 75 74 76 77
4 77 76 78 79
4 79 78 73 72
