ply
format ascii 1.0
comment Created by Blender 3.4.1 - www.blender.org
element vertex 94
property float x
property float y
property float z
property uchar red
property uchar green
property uchar blue
property uchar alpha
element face 73
property list uchar uint vertex_indices
end_header
-0.283069 1.500010 -0.499939 182 176 163 255
-0.283069 1.500010 -0.399939 182 176 163 255
-0.283069 1.405647 -0.399939 182 176 163 255
-0.363649 -0.495335 0.500001 199 111 77 255
-0.303649 -0.495335 0.500001 199 111 77 255
-0.303649 1.404665 0.500001 199 111 77 255
-0.363649 1.404665 0.500001 199 111 77 255
-0.363649 -0.495335 -0.400440 199 111 77 255
-0.363649 1.404665 -0.400440 199 111 77 255
-0.303649 -0.495335 -0.400440 199 111 77 255
-0.303649 1.404665 -0.400440 199 111 77 255
-0.209695 0.287270 0.253835 105 86 96 255
-0.209695 0.287270 0.433835 105 86 96 255
-0.263279 0.287270 0.433835 108 90 99 255
-0.263279 0.287270 0.253835 105 86 96 255
-0.383069 1.406056 0.500001 182 176 163 255
-0.383069 1.405939 -0.399939 182 176 163 255
-0.283069 1.405599 0.500001 182 176 163 255
-0.283069 -0.499990 -0.499939 184 178 166 255
-0.283069 -0.499990 -0.399939 183 177 164 255
-0.383069 1.500010 -0.399939 182 176 163 255
-0.383069 1.500010 -0.499939 182 176 163 255
-0.383069 -0.499990 -0.399939 182 176 163 255
-0.383069 -0.499990 -0.499939 182 176 163 255
-0.209695 0.340854 0.433835 105 86 96 255
-0.263279 0.340854 0.433835 105 86 96 255
-0.283069 1.500010 0.500001 182 176 163 255
-0.383069 1.500010 0.500001 182 176 163 255
-0.386189 -0.183525 -0.384232 105 86 96 255
-0.278885 -0.183525 -0.384232 105 86 96 255
-0.278885 -0.076220 -0.384232 105 86 96 255
-0.386189 -0.076220 -0.384232 105 86 96 255
-0.386189 -0.183525 -0.491537 105 86 96 255
-0.386189 -0.076220 -0.491537 105 86 96 255
-0.278885 -0.183525 -0.491537 105 86 96 255
-0.278885 -0.076220 -0.491537 105 86 96 255
-0.292654 -0.169756 0.109679 105 86 96 255
-0.292654 -0.169756 -0.390321 105 86 96 255
-0.292654 -0.089989 -0.390321 105 86 96 255
-0.292654 -0.089989 0.109679 105 86 96 255
-0.372420 -0.169756 0.109679 105 86 96 255
-0.372420 -0.089989 0.109679 105 86 96 255
-0.372420 -0.169756 -0.390321 105 86 96 255
-0.372420 -0.089989 -0.390321 105 86 96 255
-0.278885 1.032628 -0.384232 105 86 96 255
-0.278885 1.032628 -0.491537 105 86 96 255
-0.278885 1.139933 -0.491537 105 86 96 255
-0.278885 1.139933 -0.384232 105 86 96 255
-0.386189 1.032628 -0.384232 105 86 96 255
-0.386189 1.139933 -0.384232 105 86 96 255
-0.386189 1.032628 -0.491537 105 86 96 255
-0.386189 1.139933 -0.491537 105 86 96 255
-0.292654 1.046397 0.109679 105 86 96 255
-0.292654 1.046397 -0.390321 105 86 96 255
-0.292654 1.126163 -0.390321 105 86 96 255
-0.292654 1.126163 0.109679 105 86 96 255
-0.372420 1.046397 0.109679 105 86 96 255
-0.372420 1.126163 0.109679 105 86 96 255
-0.372420 1.046397 -0.390321 105 86 96 255
-0.372420 1.126163 -0.390321 105 86 96 255
-0.278885 0.448201 -0.384232 105 86 96 255
-0.278885 0.448201 -0.491537 105 86 96 255
-0.278885 0.555506 -0.491537 103 85 95 255
-0.278885 0.555506 -0.384232 105 86 96 255
-0.386189 0.448201 -0.384232 105 86 96 255
-0.386189 0.555506 -0.384232 105 86 96 255
-0.386189 0.448201 -0.491537 104 85 95 255
-0.386189 0.555506 -0.491537 104 85 95 255
-0.292654 0.461970 0.109679 105 86 96 255
-0.292654 0.461970 -0.390321 105 86 96 255
-0.292654 0.541737 -0.390321 105 86 96 255
-0.292654 0.541737 0.109679 105 86 96 255
-0.372420 0.461970 0.109679 97 78 88 255
-0.372420 0.541737 0.109679 104 85 95 255
-0.372420 0.461970 -0.390321 105 86 96 255
-0.372420 0.541737 -0.390321 105 86 96 255
-0.253426 0.271271 0.448369 105 86 96 255
-0.253426 0.271271 0.362759 105 86 96 255
-0.253426 0.356881 0.362759 105 86 96 255
-0.253426 0.356881 0.448369 105 86 96 255
-0.413426 0.271271 0.448369 105 86 96 255
-0.413426 0.356881 0.448369 105 86 96 255
-0.413426 0.271271 0.362759 105 86 96 255
-0.413426 0.356881 0.362759 105 86 96 255
-0.404274 0.287270 0.433835 105 86 96 255
-0.404274 0.287270 0.253835 105 86 96 255
-0.404274 0.340854 0.253835 105 86 96 255
-0.404274 0.340854 0.433835 105 86 96 255
-0.457858 0.287270 0.433835 105 86 96 255
-0.457858 0.340854 0.433835 105 86 96 255
-0.457858 0.287270 0.253835 105 86 96 255
-0.457858 0.340854 0.253835 105 86 96 255
-0.263279 0.340854 0.253835 105 86 96 255
-0.209695 0.340854 0.253835 105 86 96 255
3 0 1 2
4 3 4 5 6
4 7 3 6 8
4 9 7 8 10
4 9 4 3 7
4 8 6 5 10
4 11 12 13 14
4 15 16 2 17
4 18 0 2 19
3 16 20 21
4 18 19 22 23
4 21 20 1 0
4 13 12 24 25
4 26 17 15 27
4 15 27 20 16
4 22 19 2 16
4 26 17 2 1
4 16 21 23 22
4 28 29 30 31
4 32 28 31 33
4 34 32 33 35
4 34 29 28 32
4 33 31 30 35
4 36 37 38 39
4 40 36 39 41
4 42 40 41 43
4 37 42 43 38
4 37 36 40 42
4 43 41 39 38
4 44 45 46 47
4 48 44 47 49
4 50 48 49 51
4 45 50 51 46
4 45 44 48 50
4 51 49 47 46
4 52 53 54 55
4 56 52 55 57
4 58 56 57 59
4 53 58 59 54
4 53 52 56 58
4 59 57 55 54
4 60 61 62 63
4 64 60 63 65
4 66 64 65 67
4 61 66 67 62
4 61 60 64 66
4 67 65 63 62
4 68 69 70 71
4 72 68 71 73
4 74 72 73 75
4 69 74 75 70
4 69 68 72 74
4 75 73 71 70
4 76 77 78 79
4 80 76 79 81
4 82 80 81 83
4 77 82 83 78
4 77 76 80 82
4 83 81 79 78
4 84 85 86 87
4 88 84 87 89
4 90 88 89 91
4 92 25 24 93
4 29 34 35 30
4 85 90 91 86
4 85 84 88 90
4 91 89 87 86
4 12 11 93 24
4 18 23 21 0
4 14 13 25 92
4 11 14 92 93
4 27 26 1 20
4 4 9 10 5
