ply
format ascii 1.0
comment Created by Blender 3.4.1 - www.blender.org
element vertex 94
property float x
property float y
property float z
property uchar red
property uchar green
property uchar blue
property uchar alpha
element face 73
property list uchar uint vertex_indices
end_header
-0.283069 1.500010 0.499058 182 176 163 255
-0.283069 1.405647 0.399058 182 176 163 255
-0.283069 1.500010 0.399058 182 176 163 255
-0.363649 -0.495335 -0.500882 199 111 77 255
-0.363649 1.404665 -0.500882 199 111 77 255
-0.303649 1.404665 -0.500882 199 111 77 255
-0.303649 -0.495335 -0.500882 199 111 77 255
-0.363649 -0.495335 0.399560 199 111 77 255
-0.363649 1.404665 0.399560 199 111 77 255
-0.303649 -0.495335 0.399560 199 111 77 255
-0.303649 1.404665 0.399560 199 111 77 255
-0.209695 0.287270 -0.254716 105 86 96 255
-0.263279 0.287270 -0.254716 105 86 96 255
-0.263279 0.287270 -0.434716 108 90 99 255
-0.209695 0.287270 -0.434716 105 86 96 255
-0.383069 1.406056 -0.500881 182 176 163 255
-0.283069 1.405599 -0.500881 182 176 163 255
-0.383069 1.405939 0.399058 182 176 163 255
-0.283069 -0.499990 0.499058 184 178 166 255
-0.283069 -0.499990 0.399058 183 177 164 255
-0.383069 1.500010 0.499058 182 176 163 255
-0.383069 1.500010 0.399058 182 176 163 255
-0.383069 -0.499990 0.499058 182 176 163 255
-0.383069 -0.499990 0.399058 182 176 163 255
-0.263279 0.340854 -0.434716 105 86 96 255
-0.209695 0.340854 -0.434716 105 86 96 255
-0.283069 1.500010 -0.500881 182 176 163 255
-0.383069 1.500010 -0.500881 182 176 163 255
-0.386189 -0.183525 0.383351 105 86 96 255
-0.386189 -0.076220 0.383351 105 86 96 255
-0.278885 -0.076220 0.383351 105 86 96 255
-0.278885 -0.183525 0.383351 105 86 96 255
-0.386189 -0.183525 0.490656 105 86 96 255
-0.386189 -0.076220 0.490656 105 86 96 255
-0.278885 -0.183525 0.490656 105 86 96 255
-0.278885 -0.076220 0.490656 105 86 96 255
-0.292654 -0.169756 -0.110560 105 86 96 255
-0.292654 -0.089989 -0.110560 105 86 96 255
-0.292654 -0.089989 0.389440 105 86 96 255
-0.292654 -0.169756 0.389440 105 86 96 255
-0.372420 -0.169756 -0.110560 105 86 96 255
-0.372420 -0.089989 -0.110560 105 86 96 255
-0.372420 -0.169756 0.389440 105 86 96 255
-0.372420 -0.089989 0.389440 105 86 96 255
-0.278885 1.032628 0.383351 105 86 96 255
-0.278885 1.139933 0.383351 105 86 96 255
-0.278885 1.139933 0.490656 105 86 96 255
-0.278885 1.032628 0.490656 105 86 96 255
-0.386189 1.032628 0.383351 105 86 96 255
-0.386189 1.139933 0.383351 105 86 96 255
-0.386189 1.032628 0.490656 105 86 96 255
-0.386189 1.139933 0.490656 105 86 96 255
-0.292654 1.046397 -0.110560 105 86 96 255
-0.292654 1.126163 -0.110560 105 86 96 255
-0.292654 1.126163 0.389440 105 86 96 255
-0.292654 1.046397 0.389440 105 86 96 255
-0.372420 1.046397 -0.110560 105 86 96 255
-0.372420 1.126163 -0.110560 105 86 96 255
-0.372420 1.046397 0.389440 105 86 96 255
-0.372420 1.126163 0.389440 105 86 96 255
-0.278885 0.448201 0.383351 105 86 96 255
-0.278885 0.555506 0.383351 105 86 96 255
-0.278885 0.555506 0.490656 103 85 95 255
-0.278885 0.448201 0.490656 105 86 96 255
-0.386189 0.448201 0.383351 105 86 96 255
-0.386189 0.555506 0.383351 105 86 96 255
-0.386189 0.448201 0.490656 104 85 95 255
-0.386189 0.555506 0.490656 104 85 95 255
-0.292654 0.461970 -0.110560 105 86 96 255
-0.292654 0.541737 -0.110560 105 86 96 255
-0.292654 0.541737 0.389440 105 86 96 255
-0.292654 0.461970 0.389440 105 86 96 255
-0.372420 0.461970 -0.110560 97 78 88 255
-0.372420 0.541737 -0.110560 104 85 95 255
-0.372420 0.461970 0.389440 105 86 96 255
-0.372420 0.541737 0.389440 105 86 96 255
-0.253426 0.271271 -0.449250 105 86 96 255
-0.253426 0.356881 -0.449250 105 86 96 255
-0.253426 0.356881 -0.363640 105 86 96 255
-0.253426 0.271271 -0.363640 105 86 96 255
-0.413426 0.271271 -0.449250 105 86 96 255
-0.413426 0.356881 -0.449250 105 86 96 255
-0.413426 0.271271 -0.363640 105 86 96 255
-0.413426 0.356881 -0.363640 105 86 96 255
-0.404274 0.287270 -0.434716 105 86 96 255
-0.404274 0.340854 -0.434716 105 86 96 255
-0.404274 0.340854 -0.254716 105 86 96 255
-0.404274 0.287270 -0.254716 105 86 96 255
-0.457858 0.287270 -0.434716 105 86 96 255
-0.457858 0.340854 -0.434716 105 86 96 255
-0.457858 0.287270 -0.254716 105 86 96 255
-0.457858 0.340854 -0.254716 105 86 96 255
-0.263279 0.340854 -0.254716 105 86 96 255
-0.209695 0.340854 -0.254716 105 86 96 255
3 0 1 2
4 3 4 5 6
4 7 8 4 3
4 9 10 8 7
4 9 7 3 6
4 8 10 5 4
4 11 12 13 14
4 15 16 1 17
4 18 19 1 0
3 17 20 21
4 18 22 23 19
4 20 0 2 21
4 13 24 25 14
4 26 27 15 16
4 15 17 21 27
4 23 17 1 19
4 26 2 1 16
4 17 23 22 20
4 28 29 30 31
4 32 33 29 28
4 34 35 33 32
4 34 32 28 31
4 33 35 30 29
4 36 37 38 39
4 40 41 37 36
4 42 43 41 40
4 39 38 43 42
4 39 42 40 36
4 43 38 37 41
4 44 45 46 47
4 48 49 45 44
4 50 51 49 48
4 47 46 51 50
4 47 50 48 44
4 51 46 45 49
4 52 53 54 55
4 56 57 53 52
4 58 59 57 56
4 55 54 59 58
4 55 58 56 52
4 59 54 53 57
4 60 61 62 63
4 64 65 61 60
4 66 67 65 64
4 63 62 67 66
4 63 66 64 60
4 67 62 61 65
4 68 69 70 71
4 72 73 69 68
4 74 75 73 72
4 71 70 75 74
4 71 74 72 68
4 75 70 69 73
4 76 77 78 79
4 80 81 77 76
4 82 83 81 80
4 79 78 83 82
4 79 82 80 76
4 83 78 77 81
4 84 85 86 87
4 88 89 85 84
4 90 91 89 88
4 92 93 25 24
4 31 30 35 34
4 87 86 91 90
4 87 90 88 84
4 91 86 85 89
4 14 25 93 11
4 18 0 20 22
4 12 92 24 13
4 11 93 92 12
4 27 21 2 26
4 6 5 10 9
