ply
format ascii 1.0
comment Created by Blender 3.4.1 - www.blender.org
element vertex 94
property float x
property float y
property float z
property uchar red
property uchar green
property uchar blue
property uchar alpha
element face 73
property list uchar uint vertex_indices
end_header
-0.283069 1.500010 -0.499939 182 176 163 255
-0.283069 1.500010 -0.399939 182 176 163 255
-0.283069 1.405647 -0.399939 182 176 163 255
-0.283069 1.500010 0.500001 182 176 163 255
-0.283069 1.405599 0.500001 182 176 163 255
-0.383069 1.406056 0.500001 182 176 163 255
-0.383069 1.500010 0.500001 182 176 163 255
-0.283069 -0.499989 -0.499939 184 178 166 255
-0.283069 -0.499989 -0.399939 183 177 164 255
-0.383069 1.405938 -0.399939 182 176 163 255
-0.383069 1.500010 -0.399939 182 176 163 255
-0.383069 1.500010 -0.499939 182 176 163 255
-0.383069 -0.499989 -0.399939 182 176 163 255
-0.383069 -0.499989 -0.499939 182 176 163 255
-0.298009 -0.495335 -0.403564 199 111 77 255
0.598863 -0.495335 -0.323465 199 111 77 255
0.598863 1.404665 -0.323465 199 111 77 255
-0.298009 1.404665 -0.403564 199 111 77 255
0.367368 0.287270 -0.498706 105 86 96 255
0.362601 0.287270 -0.445335 105 86 96 255
0.362601 0.340854 -0.445335 105 86 96 255
0.367368 0.340854 -0.498706 105 86 96 255
-0.283870 -0.183525 -0.379672 105 86 96 255
-0.274325 -0.183525 -0.486551 105 86 96 255
-0.274325 -0.076220 -0.486551 105 86 96 255
-0.283870 -0.076220 -0.379672 105 86 96 255
-0.390749 -0.183525 -0.389217 105 86 96 255
-0.390749 -0.076220 -0.389217 105 86 96 255
-0.381204 -0.183525 -0.496097 105 86 96 255
-0.381204 -0.076220 -0.496097 105 86 96 255
0.541888 0.287270 -0.429323 108 90 99 255
0.541888 0.340854 -0.429323 105 86 96 255
0.457737 0.356881 -0.286094 105 86 96 255
0.543007 0.356881 -0.278478 105 86 96 255
0.557240 0.356881 -0.437844 105 86 96 255
0.471969 0.356881 -0.445459 105 86 96 255
-0.281614 1.046397 -0.473378 105 86 96 255
0.216404 1.046397 -0.428900 105 86 96 255
0.209308 1.046397 -0.349450 105 86 96 255
-0.288710 1.046397 -0.393928 105 86 96 255
0.209308 -0.169756 -0.349450 105 86 96 255
0.216404 -0.169756 -0.428900 105 86 96 255
0.216404 -0.089990 -0.428900 105 86 96 255
0.209308 -0.089990 -0.349450 105 86 96 255
-0.288710 -0.169756 -0.393928 105 86 96 255
-0.288710 -0.089990 -0.393928 105 86 96 255
-0.281614 -0.169756 -0.473378 105 86 96 255
-0.281614 -0.089990 -0.473378 105 86 96 255
0.345292 0.287270 -0.251528 105 86 96 255
0.524579 0.287270 -0.235516 105 86 96 255
0.524579 0.340854 -0.235516 105 86 96 255
0.345292 0.340854 -0.251528 105 86 96 255
-0.292672 -0.495335 -0.463327 199 111 77 255
0.604200 -0.495335 -0.383227 199 111 77 255
-0.283870 1.032628 -0.379672 105 86 96 255
-0.274325 1.032628 -0.486551 105 86 96 255
-0.274325 1.139933 -0.486551 105 86 96 255
-0.283870 1.139933 -0.379672 105 86 96 255
-0.390749 1.032628 -0.389217 105 86 96 255
-0.390749 1.139933 -0.389217 105 86 96 255
-0.381204 1.032628 -0.496097 105 86 96 255
-0.381204 1.139933 -0.496097 105 86 96 255
-0.281614 1.126163 -0.473378 105 86 96 255
0.216404 1.126163 -0.428900 105 86 96 255
0.209308 1.126163 -0.349450 105 86 96 255
-0.288710 1.126163 -0.393928 105 86 96 255
0.529346 0.287270 -0.288887 105 86 96 255
0.350059 0.287270 -0.304899 105 86 96 255
0.350059 0.340854 -0.304899 105 86 96 255
0.529346 0.340854 -0.288887 105 86 96 255
-0.281614 0.461970 -0.473378 105 86 96 255
0.216404 0.461970 -0.428900 105 86 96 255
0.209308 0.461970 -0.349450 97 78 88 255
-0.288710 0.461970 -0.393928 105 86 96 255
0.546654 0.287270 -0.482694 105 86 96 255
0.546654 0.340854 -0.482694 105 86 96 255
-0.390749 0.448201 -0.389217 104 85 95 255
-0.283870 0.448201 -0.379672 105 86 96 255
-0.283870 0.555506 -0.379672 105 86 96 255
-0.390749 0.555506 -0.389217 104 85 95 255
-0.381204 0.448201 -0.496097 105 86 96 255
-0.381204 0.555506 -0.496097 103 85 95 255
-0.274325 0.448201 -0.486551 105 86 96 255
-0.274325 0.555506 -0.486551 105 86 96 255
-0.281614 0.541737 -0.473378 105 86 96 255
0.216404 0.541737 -0.428900 105 86 96 255
0.209308 0.541737 -0.349450 104 85 95 255
-0.288710 0.541737 -0.393928 105 86 96 255
0.543007 0.271271 -0.278478 105 86 96 255
0.557240 0.271271 -0.437844 105 86 96 255
0.471969 0.271271 -0.445459 105 86 96 255
0.457737 0.271271 -0.286094 105 86 96 255
-0.292672 1.404665 -0.463327 199 111 77 255
0.604200 1.404665 -0.383227 199 111 77 255
3 0 1 2
4 3 4 5 6
4 7 0 2 8
3 9 10 11
4 7 8 12 13
4 11 10 1 0
4 14 15 16 17
4 12 8 2 9
4 6 10 9 5
4 5 9 2 4
4 18 19 20 21
4 9 11 13 12
4 22 23 24 25
4 26 22 25 27
4 28 26 27 29
4 19 30 31 20
4 32 33 34 35
4 36 37 38 39
4 40 41 42 43
4 44 40 43 45
4 46 44 45 47
4 48 49 50 51
4 52 53 15 14
4 44 46 41 40
4 54 55 56 57
4 58 54 57 59
4 60 58 59 61
4 60 55 54 58
4 59 57 56 61
4 37 36 62 63
4 38 37 63 64
4 39 38 64 65
4 36 39 65 62
4 66 67 68 69
4 65 64 63 62
4 70 71 72 73
4 30 74 75 31
4 76 77 78 79
4 80 76 79 81
4 80 82 77 76
4 79 78 83 81
4 71 70 84 85
4 72 71 85 86
4 73 72 86 87
4 70 73 87 84
4 88 89 34 33
4 87 86 85 84
4 45 43 42 47
4 74 18 21 75
4 89 90 35 34
4 77 82 83 78
4 91 88 33 32
4 27 25 24 29
4 90 89 88 91
4 90 91 32 35
4 55 60 61 56
4 49 66 69 50
4 41 46 47 42
4 68 51 50 69
4 18 74 30 19
4 28 23 22 26
4 52 14 17 92
4 67 48 51 68
4 23 28 29 24
4 21 20 31 75
4 4 2 1 3
4 3 1 10 6
4 53 52 92 93
4 15 53 93 16
4 7 13 11 0
4 17 16 93 92
4 67 66 49 48
4 82 80 81 83
